<svg width="317" height="201" viewBox="0 0 317 201" fill="none" xmlns="http://www.w3.org/2000/svg">
<path d="M124.923 179.232C133.696 170.44 142.927 170.609 152.944 174.734C156.058 176.015 157.883 178.031 161.194 178.418L160.356 179.53C163.242 185.021 168.332 188.93 167.834 194.106C164.027 199.61 155.299 200.258 150.176 200.329C137.955 200.501 130.019 196.847 124 181.774L124.923 179.232Z" fill="#8B3A2E"/>
<path d="M98.7576 37.6286C113.916 19.0798 147.621 -7.4037 176.03 7.49425C177.969 8.51627 177.743 9.88931 178.008 11.8524C172.555 23.7559 155.455 31.7678 143.903 38.0924C141.875 37.7369 136.626 37.6293 134.321 37.518C128.954 37.0969 122.348 37.2383 116.861 37.2101C113.106 36.9972 106.947 37.8567 103.014 38.2824L98.7576 37.6286Z" fill="#8B3A2E"/>
<path d="M177.998 51.311C105.06 8.65625 32.8907 44.6232 -1.17667e-05 116.844C8.8256 129.502 24.7691 151.677 38.1313 159.721C54.2573 173.878 74.0465 183.238 95.2176 186.719C140.793 194.345 178.963 177.633 215.035 152.16C226.233 144.938 233.768 136.542 242.607 126.843C258.824 146.046 276.136 151.091 300.579 144.599C306.654 142.982 312.86 141.144 316.288 135.473L315.402 132.801C312.794 132.032 309.613 129.881 307.176 128.408C303.265 126.204 299.902 124.588 295.886 122.698L294.843 122.372C294.061 121.498 284.245 115.788 280.855 113.012L281.168 111.187C283.423 109.27 286.2 106.454 288.403 104.369L290.15 103.378C298.441 95.0867 307.306 86.7957 315.78 78.648C279.056 61.8051 258.237 73.4595 239.647 106.428C216.847 85.0227 206.718 68.0496 177.998 51.311Z" fill="#D4735E"/>
<path d="M215.034 152.16C200.29 134.078 174.765 128.108 152.225 125.435C124.81 122.189 93.5094 128.003 69.0271 140.818C58.8066 146.176 48.0255 154.675 38.1309 159.721C54.2569 173.878 74.0461 183.238 95.2171 186.719C140.792 194.345 178.963 177.632 215.034 152.16Z" fill="#8B3A2E"/>
<path d="M106.351 147.452C106.823 150.975 109.868 153.579 113.424 153.515C116.98 153.443 119.921 150.719 120.257 147.181C120.592 143.642 118.219 140.414 114.742 139.672C111.266 138.929 107.782 140.918 106.647 144.289C106.311 145.303 106.207 146.39 106.351 147.452Z" fill="#FFE9D5"/>
<path d="M154.266 171.839C160.582 174.24 165.31 169.948 162.418 163.828C160.249 162.188 161.291 162.551 158.42 162.551C155.528 163.849 155.259 164.184 153.288 166.591C153.515 168.448 153.621 170.074 154.266 171.839Z" fill="#FFE9D5"/>
<path d="M73.5277 155.297C72.7821 157.273 73.9071 158.562 75.1254 159.888C78.567 161.208 81.0966 160.52 82.2882 157.147C81.1499 152.771 78.527 152.145 74.3864 152.676L73.5277 155.297Z" fill="#FFE9D5"/>
<path d="M100.347 172.203C100.674 174.081 102.28 175.466 104.181 175.515C106.089 175.564 107.763 174.266 108.187 172.407C108.612 170.554 107.664 168.652 105.929 167.87C104.194 167.088 102.144 167.636 101.037 169.187C100.415 170.061 100.163 171.145 100.347 172.203Z" fill="#FFE9D5"/>
<path d="M178.347 153.203C178.674 155.081 180.28 156.466 182.181 156.515C184.089 156.564 185.763 155.266 186.187 153.407C186.612 151.554 185.664 149.652 183.929 148.87C182.194 148.088 180.144 148.636 179.037 150.187C178.415 151.061 178.163 152.145 178.347 153.203Z" fill="#FFE9D5"/>
<path d="M156.424 145.137C155.169 144.342 153.584 144.311 152.298 145.044C151.011 145.783 150.241 147.168 150.291 148.646C150.334 150.13 151.198 151.459 152.534 152.111C154.442 153.043 156.747 152.316 157.779 150.465C158.817 148.609 158.22 146.267 156.424 145.137Z" fill="#FFE9D5"/>
<path d="M135.465 156.516C131.816 156.944 130.202 157.506 129.288 161.153C129.853 163.622 130.283 163.756 132.239 165.516C135.573 164.598 137.038 164.289 138.288 160.894C137.576 158.018 137.932 159.035 135.465 156.516Z" fill="#FFE9D5"/>
<path d="M177.998 51.3109C173.592 55.4434 170.333 57.464 165.157 60.6058L165.405 61.4921C166.37 65.1684 166.435 65.364 166.148 69.0532C163.932 72.5861 162.355 72.9771 158.535 75.0499C157.779 78.5436 161.977 82.5457 159.63 85.5962C156.384 89.8069 152.682 88.5555 153.138 94.6304L155.693 98.5674C153.19 102.882 152.864 102.204 147.884 105.02L146.398 105.32C150.518 105.946 151 105.894 154.794 104.199C157.805 100.823 157.192 102.348 158.079 98.1371C157.427 96.1817 155.719 92.8835 156.892 91.8145C165.405 84.1492 164.597 71.491 169.081 61.6616C170.033 59.5758 175.978 60.0582 177.998 51.3109Z" fill="#FFE9D5"/>
<path d="M295.886 122.698L294.843 122.372C290.763 124.562 287.842 125.761 284.662 129.151L285.913 128.186L285.509 129.985C289.746 128.799 293.396 126.335 295.886 122.698Z" fill="#FFE9D5"/>
<path d="M290.15 103.378C288.207 99.6885 286.656 95.517 283.279 93.5224C283.41 97.5115 286.147 100.823 288.403 104.369L290.15 103.378Z" fill="#FFE9D5"/>
<path d="M281.168 111.186C278.796 106.011 275.849 101.305 271.339 97.6809C273.763 103.065 275.836 107.993 281.168 111.186Z" fill="#FFE9D5"/>
<path d="M307.175 128.407C302.039 129.933 297.606 130.884 293.474 134.43C299.666 133.596 302.625 133.283 307.175 128.407Z" fill="#FFE9D5"/>
<path d="M52.7882 93.1904C52.7882 93.1904 36.9412 93.2668 34.4302 97.0165C29.5096 104.364 32.493 115.412 44.2319 121.42C61.5665 119.367 64.5588 103.493 52.7882 93.1904Z" fill="white"/>
<path d="M52.7834 92.1904H52.7345C52.7032 92.1907 52.6566 92.1916 52.5968 92.1924C52.4774 92.1939 52.3032 92.1964 52.0812 92.2012C51.6368 92.2107 51.0003 92.2285 50.2296 92.2617C48.6902 92.3281 46.6061 92.4567 44.4377 92.7041C42.2763 92.9507 39.9965 93.3197 38.0793 93.877C37.1206 94.1556 36.2241 94.4894 35.4679 94.8945C34.7218 95.2943 34.0404 95.8006 33.5988 96.46C28.2466 104.452 31.6762 116.118 43.7765 122.311L44.047 122.449L44.3498 122.413C53.3189 121.351 58.8192 116.657 60.3918 110.652C61.9533 104.689 59.5452 97.7758 53.4464 92.4375L53.1623 92.1885L52.7834 92.1904Z" stroke="#0E2F4F" stroke-opacity="0.58" stroke-width="2"/>
<path d="M49.0156 98.802C45.0265 98.1762 41.246 100.77 40.3856 104.707C39.5382 108.657 41.8978 112.581 45.7826 113.663C48.5072 114.432 51.4273 113.611 53.3697 111.565C55.3121 109.505 55.964 106.546 55.0384 103.86C54.1259 101.188 51.8054 99.2322 49.0156 98.802Z" fill="#232323"/>
<path d="M94.7747 38.2485L94.0446 38.6917C93.7187 42.8633 92.4803 44.7796 90.7073 48.508C96.5867 52.5493 96.5738 51.4411 99.2332 56.9425C98.6205 63.1347 98.3987 61.7138 93.9012 67.2933L94.3574 68.6099C97.9946 70.3307 98.3597 70.3699 101.019 73.277C102.271 77.6441 102.544 77.9178 101.032 81.9721C98.7376 84.1621 96.678 85.479 96.1305 88.4773C101.58 92.1666 102.935 92.4143 101.932 98.7499C99.0245 101.07 97.2906 101.879 96.3259 105.242L99.2983 109.413C97.8903 113.937 97.773 112.933 93.7839 116.675L91.4764 116.975L92.2716 118.043L96.5868 117.353C107.694 108.696 101.866 82.9368 101.684 70.5002C101.514 58.7676 94.8138 48.7427 94.7747 38.2485Z" fill="#FFE9D5"/>
<path d="M155.889 43.3458L154.377 43.0719C153.021 48.143 149.775 50.5809 146.007 54.4136C147.454 58.9502 150.022 60.7622 149.983 64.6862C149.905 70.4221 143.178 71.869 139.541 75.467C141.94 78.2438 142.54 78.5827 143.296 82.0243C142.148 86.0525 138.329 88.3469 134.874 91.1758C135.187 95.556 135.096 94.1742 138.759 98.2415C137.951 102.804 135.448 104.199 131.732 107.94L135.865 111.239L134.952 112.959L129.177 116.218L129.477 117.392C134.04 117.405 132.384 117.965 136.217 115.749C137.221 113.481 141.64 98.4109 141.301 97.9677C133.401 91.4495 153.047 69.7051 151.652 65.1032C146.868 49.3945 154.311 55.7302 155.889 43.3458Z" fill="#FFE9D5"/>
<path d="M127.481 36.9711C126.673 37.4664 121.524 45.0014 120.859 46.5919C124.314 49.3425 127.195 50.8156 128.211 54.909C127.508 61.023 127.377 58.9762 122.293 64.5818C132.461 81.3465 122.945 76.2494 118.812 85.2184C121.198 88.334 121.198 88.2818 122.606 91.9319C120.937 98.0068 119.751 97.4202 113.858 102.244C115.514 109.231 115.566 108.527 110.899 113.52L108.514 113.781L109.165 114.693L113.48 114.498C119.907 109.974 133.569 60.3842 127.833 50.3072C122.136 40.2823 128.772 45.8357 127.481 36.9711Z" fill="#FFE9D5"/>
<path d="M70.5265 45.7183L69.7183 46.2137C72.3777 54.231 69.3532 55.7823 70.9567 61.5183C82.559 70.2265 76.6666 73.668 73.0425 84.2665C76.823 85.9351 77.3706 86.0003 80.2386 88.8162C82.6372 99.0887 76.9795 96.9379 73.59 105.059C75.9105 106.246 78.244 107.406 80.6036 108.527L81.4641 111.33C80.1083 116.127 78.1788 117.274 74.5156 120.703L72.6384 121.642L75.4413 121.707C79.665 119.582 81.2685 119.217 83.8627 115.228C84.1104 109.674 82.0637 107.888 79.0263 102.517C80.9426 99.2843 82.0897 97.0552 83.6802 93.6527C82.898 87.1085 82.7024 88.5685 78.244 82.6761C77.9832 75.2585 74.7112 50.9198 70.5265 45.7183Z" fill="#FFE9D5"/>
<path d="M191.829 65.8593C188.492 67.4367 185.129 68.4014 183.59 71.5953C185.246 74.5545 185.689 75.5193 186.928 78.674C184.829 90.5631 180.071 83.9667 175.325 89.8069L178.271 95.6732C177.776 101.422 176.877 104.369 172.796 108.201C163.214 117.157 165.77 115.801 154.102 115.84C161.533 125.97 173.044 112.282 177.633 106.506C181.7 101.422 180.996 99.8841 180.097 93.8222L179.849 92.2057C182.104 87.3432 183.356 89.1943 188.675 84.6577C190.161 79.5735 187.879 77.97 186.849 72.0515L191.829 65.8593Z" fill="#FFE9D5"/>
<path d="M206.678 73.981C206.169 74.2678 200.082 78.361 200.069 78.3871C195.362 90.6151 194.359 103.821 188.036 115.723C185.924 119.699 182.73 119.569 178.233 120.859L177.711 121.811L180.801 122.632C195.128 119.934 189.835 114.328 194.906 103.56C199.821 93.1051 199.638 82.9369 206.678 73.981Z" fill="#FFE9D5"/>
<path d="M211.776 97.1725C209.455 97.5635 209.494 97.8373 207.591 99.3104L209.82 103.573C206.47 113.298 201.672 103.612 200.512 119.569C198.035 122.437 194.176 122.593 190.187 123.428L191.582 125.057C194.502 125.474 197.748 126.009 199.808 123.297C206.613 114.341 211.58 108.227 211.776 97.1725Z" fill="#FFE9D5"/>
<path d="M231.434 101.201L226.571 103.573C224.407 113.142 218.997 111.864 217.576 122.828L218.684 123.075C224.12 115.293 227.001 107.667 231.434 101.201Z" fill="#FFE9D5"/>
<path d="M216.742 123.062C209.99 123.897 210.198 125.266 206.522 130.767C211.463 129.737 213.392 126.778 216.742 123.062Z" fill="#FFE9D5"/>
<path d="M42.3399 104.672C43.8805 104.156 45.5502 104.963 46.1064 106.491C46.662 108.013 45.903 109.708 44.3931 110.305C43.3786 110.709 42.2253 110.526 41.3824 109.832C40.5394 109.138 40.1392 108.04 40.3388 106.97C40.5378 105.894 41.3038 105.017 42.3399 104.672Z" fill="white"/>
</svg>
