<svg width="336" height="220" viewBox="0 0 336 220" fill="none" xmlns="http://www.w3.org/2000/svg">
<g filter="url(#filter0_d_79_18354)">
<path d="M176.004 30.9123C179 24.8755 183.289 17.7858 178.947 11.4645C174.545 4.99869 165.085 3.77582 157.755 4.03093C141.139 4.61039 128.595 10.5434 123.206 26.8539L122.078 27.4281L110.165 29.8859C94.3466 33.6643 81.9072 39.0224 68.1057 47.4215L62.8906 51.0969C48.6526 62.7273 40.6306 78.2718 23.0062 80.4624C18.3479 81.0418 12.892 80.6505 8.00051 80.8289C18.3554 88.6967 24.9025 90.8241 31.3367 102.706C29.192 124.631 32.1495 151.939 46.2294 169.753L46.9669 170.917C59.4289 189.067 78.5735 201.542 100.209 205.609C106.026 206.73 124.17 208.212 129.31 206.297L133.569 205.311C136.376 204.946 137.873 204.69 140.62 204.022C145.587 202.581 147.762 201.799 152.48 199.682C174.168 193.846 191.838 172.849 200.913 153.451C202.72 149.581 205.749 144.746 206.919 140.741C213.101 127.802 220.002 108.59 227.459 97.3034C229.376 95.2121 231.26 92.9771 233.124 90.8286C237.451 87.1321 241.356 84.8873 246.416 82.4559L251.686 80.6543L257.263 78.721C255.913 72.3741 255.379 69.7124 256.755 63.2022L256.476 62.6581L253.206 62.1878L246.44 61.4066L238.686 59.9603C225.117 56.5806 216.751 51.8532 205.194 44.449L189.272 36.2584C184.93 34.2724 180.505 33.0601 176.004 30.9123Z" fill="#ADCCDA"/>
<path d="M176.004 30.9123C179 24.8755 183.289 17.7858 178.947 11.4645C174.545 4.99869 165.085 3.77582 157.755 4.03093C141.139 4.61039 128.595 10.5434 123.206 26.8539L122.078 27.4281C138.453 46.5493 142.539 49.1666 141.651 74.2148C141.109 89.5026 153.165 102.989 162.963 112.462C169.984 119.967 168.968 134.568 164.303 144.324C173.167 155.825 165.454 161.805 154.444 166.712C146.023 181.177 153.105 191.918 133.569 205.311C136.376 204.946 137.873 204.69 140.62 204.022C145.587 202.581 147.762 201.799 152.48 199.682C174.168 193.846 191.838 172.849 200.913 153.451C202.72 149.581 205.749 144.746 206.919 140.741C213.101 127.802 220.002 108.59 227.459 97.3034C229.376 95.2121 231.26 92.9771 233.124 90.8286C237.451 87.1321 241.356 84.8873 246.416 82.4559L251.686 80.6543L257.263 78.721C255.913 72.3741 255.379 69.7124 256.755 63.2022L256.476 62.6581L253.206 62.1878L246.44 61.4066L238.686 59.9603C225.117 56.5806 216.751 51.8532 205.194 44.449L189.272 36.2584C184.93 34.2724 180.505 33.0601 176.004 30.9123Z" fill="#2B5469"/>
<path d="M176.004 30.9123L173.288 30.5496C179.88 50.7168 174.56 55.0627 177.306 70.1232C183.605 104.643 200.409 134.452 182.491 169.725C175.44 183.617 164.822 190.453 152.48 199.682C174.168 193.846 191.838 172.849 200.913 153.451C202.72 149.581 205.749 144.746 206.919 140.741C213.101 127.801 220.002 108.59 227.459 97.3034C229.376 95.2121 231.26 92.977 233.124 90.8285C237.451 87.1321 241.356 84.8873 246.416 82.4558L251.686 80.6542L257.263 78.721C255.913 72.3741 255.379 69.7123 256.755 63.2021L256.476 62.6581L253.206 62.1877L246.44 61.4066L238.686 59.9602C225.117 56.5806 216.751 51.8531 205.194 44.4489L189.272 36.2583C184.93 34.2724 180.505 33.06 176.004 30.9123Z" fill="#ADCCDA"/>
<path d="M238.686 59.9604C225.117 56.5808 216.751 51.8533 205.194 44.4491C209.454 52.6472 212.506 63.6584 212.46 72.9123C212.376 89.8986 215.988 88.1715 227.459 97.3035C229.376 95.2122 231.26 92.9772 233.124 90.8287C237.451 87.1322 241.356 84.8874 246.416 82.456L251.686 80.6544L257.263 78.7211C255.913 72.3742 255.379 69.7125 256.755 63.2023L256.476 62.6583L253.206 62.1879L246.44 61.4068L238.686 59.9604Z" fill="#ADCCDA"/>
<path d="M238.686 59.9603C239.759 75.4957 232.362 75.3196 233.124 90.8286C237.451 87.1322 241.356 84.8874 246.416 82.4559L251.686 80.6544L257.263 78.7211C255.913 72.3742 255.379 69.7124 256.755 63.2022L256.476 62.6582L253.206 62.1879L246.44 61.4067L238.686 59.9603Z" fill="#2B5469"/>
<path d="M253.206 62.1878L246.44 61.4066C246.362 66.2545 245.014 70.6583 243.833 75.3654L246.416 82.4558L251.686 80.6543L257.263 78.721C255.913 72.3741 255.379 69.7124 256.755 63.2022L256.476 62.6581L253.206 62.1878Z" fill="#ADCCDA"/>
<path d="M256.476 62.6581L253.206 62.1877C252.653 69.3135 251.236 73.4043 251.686 80.6543L257.263 78.721C255.913 72.3741 255.379 69.7123 256.755 63.2021L256.476 62.6581Z" fill="#2B5469"/>
<path d="M189.271 36.2584C190.859 43.2977 197.692 51.7855 199.243 59.928C201.515 71.8361 198.957 83.2137 200.236 95.1287C201.282 102.06 208.62 106.638 209.344 117.446C209.876 125.397 206.66 135.159 206.918 140.741C213.101 127.802 220.002 108.59 227.459 97.3035C215.987 88.1714 212.376 89.8985 212.46 72.9122C212.506 63.6583 209.454 52.6472 205.194 44.449L189.271 36.2584Z" fill="#2B5469"/>
<path d="M123.205 26.854L122.077 27.4282C138.452 46.5494 142.538 49.1667 141.65 74.215C141.108 89.5028 153.164 102.989 162.962 112.462C169.983 119.967 168.967 134.568 164.302 144.324C173.167 155.825 165.453 161.805 154.443 166.712C146.022 181.177 153.104 191.919 133.568 205.311C136.375 204.947 137.872 204.69 140.619 204.022C141.349 202.018 146.211 198.157 148.182 196.47C164.091 182.85 177.892 168.129 181.076 146.494C183.393 130.797 180.692 108.309 175.469 93.1721C173.904 88.62 169.035 81.7177 167.861 76.4364C166.371 69.7283 168.335 60.3758 163.519 55.0079C151.584 41.7076 144.826 41.9168 133.508 26.4153L127.435 26.9488L123.205 26.854Z" fill="#ADCCDA"/>
<path d="M176.005 30.9123C179 24.8755 183.289 17.7858 178.947 11.4645C174.545 4.99869 165.085 3.77582 157.756 4.03093C141.14 4.61039 128.595 10.5434 123.207 26.8539L127.436 26.9487L133.509 26.4152C142.276 25.701 149.869 26.4023 158.538 27.127L162.963 27.9917L169.473 29.3975L173.288 30.5496L176.005 30.9123Z" fill="#FF8C42"/>
<path d="M149.884 8.47693C139.167 13.3421 130.927 14.4739 127.435 26.9487L133.508 26.4151C142.275 25.701 149.869 26.4023 158.538 27.127C164.709 21.5575 167.726 21.3829 169.638 13.777L169.427 12.9816C162.376 21.3792 160.201 20.6071 148.996 23.2026C155.934 18.9929 159.313 19.628 163.783 12.4894L163.851 11.1792C162.014 11.6511 161.608 12.053 160.088 13.2044C153.752 18.0025 148.145 15.7931 140.093 19.12L135.623 20.9186L135.36 20.3587C141.101 14.8908 144.548 14.3279 149.884 8.47693Z" fill="#FEAB07"/>
<path d="M176.042 18.9454C171.64 22.4425 165.785 25.6009 162.963 27.9917L169.472 29.3975C171.963 26.3723 174.055 22.3845 176.042 18.9454Z" fill="#FEAB07"/>
<path d="M62.8902 51.0968C48.6522 62.7273 40.6302 78.2717 23.0058 80.4623C18.3476 81.0418 12.8916 80.6505 8.00013 80.8288C18.355 88.6966 24.9021 90.824 31.3363 102.706C29.1916 124.631 32.1491 151.939 46.2291 169.753C47.9674 168.001 49.6606 166.206 51.3162 164.372C61.5131 152.973 67.0969 143.094 63.9513 126.621C63.1912 122.622 59.8048 115.947 60.0983 111.9C61.0239 99.032 48.6221 99.7792 47.3428 94.0185C44.1445 79.5773 56.8172 72.4674 63.2966 62.5151C65.6821 58.8442 63.9664 54.7188 62.8902 51.0968Z" fill="#ADCCDA"/>
<path d="M122.078 27.4281L110.165 29.8859C117.51 32.0216 120.083 32.811 126.149 37.7574C142.953 51.4672 135.239 66.9528 135.661 85.2297C138.942 89.9338 142.915 95.2588 145.361 100.351C144.255 105.359 138.581 122.382 142.388 125.731C161.142 142.237 128.865 147.704 121.122 157.142L121.054 157.756L126.013 161.892C137.557 166.441 141.779 167.834 154.444 166.712C165.454 161.805 173.167 155.825 164.302 144.324C168.968 134.568 169.984 119.967 162.963 112.462C153.165 102.989 141.109 89.5026 141.651 74.2148C142.539 49.1666 138.453 46.5493 122.078 27.4281Z" fill="#2B5469"/>
<path d="M164.302 144.324C152.917 149.7 145.941 153.059 133.516 155.944C131.898 156.256 129.182 156.702 127.684 157.104L121.054 157.756L126.013 161.892C137.557 166.441 141.779 167.833 154.444 166.712C165.454 161.805 173.167 155.825 164.302 144.324Z" fill="#FF8C42"/>
<path d="M133.516 155.944C131.898 156.257 129.181 156.702 127.684 157.104C130.453 158.699 135.593 161.831 138.52 162.293C140.921 162.673 152.187 162.71 153.978 161.49C151.216 159.27 137.535 156.64 133.516 155.944Z" fill="#FFA300"/>
<path d="M68.1055 47.4214L62.8905 51.0968C63.9666 54.7187 65.6823 58.8442 63.2968 62.515C56.8174 72.4673 44.1447 79.5773 47.343 94.0185C48.6223 99.7792 61.0241 99.0319 60.0985 111.9C59.805 115.947 63.1914 122.622 63.9515 126.621C67.0971 143.094 61.5133 152.973 51.3164 164.372C49.6609 166.206 47.9677 168 46.2293 169.753L46.9668 170.917C69.0688 151.925 72.0789 139.261 66.1188 111.343C64.1998 102.345 94.4067 97.4297 68.7903 72.3221C69.5805 62.0078 71.5672 58.072 68.1055 47.4214Z" fill="#2B5469"/>
<path d="M66.0141 77.0187C62.1235 75.6055 57.7814 76.4076 54.6509 79.1153C51.5203 81.8221 50.1056 86.0108 50.9484 90.0609C51.7913 94.1111 54.7562 97.3884 58.707 98.6263C64.622 100.482 70.9358 97.271 72.9225 91.3967C74.9092 85.5224 71.8463 79.1364 66.0141 77.0187Z" fill="#FF8C42"/>
<path d="M63.9375 83.8624C61.8982 82.9112 59.475 83.7389 58.4441 85.7362C57.4206 87.7342 58.1506 90.1882 60.1071 91.2944C61.4391 92.0492 63.0797 92.0131 64.3816 91.2003C65.6835 90.3883 66.436 88.9292 66.3382 87.3993C66.2479 85.8686 65.3222 84.5118 63.9375 83.8624Z" fill="#232323"/>
<path d="M154.444 166.712C141.779 167.834 137.557 166.441 126.014 161.892C133.449 170.313 139.559 176.344 142.9 187.348C138.536 201.957 130.747 202.337 129.31 206.297L133.569 205.311C153.105 191.919 146.023 181.177 154.444 166.712Z" fill="#2B5469"/>
<path d="M292.451 69.489C305.681 67.2246 319.816 61.64 324.864 48.5557C336.9 17.3532 311.917 13.9517 290.189 25.5905C273.651 34.4486 262.438 45.179 256.475 62.6582L256.754 63.2023C255.379 69.7125 255.913 72.3742 257.262 78.7211C258.558 82.4597 259.191 84.615 261.137 88.109C265.804 100.292 281.307 119.787 292.713 125.317C314.515 135.886 320.88 107.05 313.91 91.6534C308.194 79.0281 304.364 74.9832 292.451 69.489Z" fill="#FF8C42"/>
<path d="M315.416 42.3041C306.245 44.2652 299.643 43.4163 291.321 45.3872C288.191 46.1285 279.782 53.9699 275.404 53.8586C273.805 45.2668 289.62 39.5355 295.567 35.675C299.696 32.9937 306.997 28.206 311.546 26.7002L314.387 25.7829L315.754 25.3667L315.353 24.8046C303.753 22.0525 301.196 28.5492 292.582 31.074C277.605 35.4635 272.945 38.0921 266.297 53.1797C264.256 57.8109 261.932 61.1596 256.755 63.202C255.379 69.7122 255.914 72.374 257.263 78.7209C258.559 82.4595 259.192 84.6148 261.138 88.1088C264.443 88.7552 268.857 95.5469 272.262 97.5968C278.862 101.57 287.67 103.262 293.809 107.914C296.977 110.315 300.133 114.93 303.171 118.115C301.14 113.857 296.134 102.746 293.126 100.564C277.965 89.5725 278 99.1891 265.265 79.7451C283.151 93.4834 290.957 85.5411 307.089 100.052C295.945 80.6045 291.583 88.2781 274.841 76.7455C287.928 78.7148 292.546 78.5945 303.602 86.3998C288.961 66.9384 281.344 76.7387 267.414 68.2095L267.219 67.0573C273.319 63.5174 289.119 66.9234 298.859 59.7615L298.296 59.115L298.882 59.629C293.392 56.9206 283.644 63.7017 275.272 58.7162L275.206 57.692C284.279 55.3358 308.247 46.9277 315.416 42.3041Z" fill="#FEAB07"/>
</g>
<defs>
<filter id="filter0_d_79_18354" x="0" y="0" width="336" height="219.22" filterUnits="userSpaceOnUse" color-interpolation-filters="sRGB">
<feFlood flood-opacity="0" result="BackgroundImageFix"/>
<feColorMatrix in="SourceAlpha" type="matrix" values="0 0 0 0 0 0 0 0 0 0 0 0 0 0 0 0 0 0 127 0" result="hardAlpha"/>
<feOffset dy="4"/>
<feGaussianBlur stdDeviation="4"/>
<feComposite in2="hardAlpha" operator="out"/>
<feColorMatrix type="matrix" values="0 0 0 0 0 0 0 0 0 0 0 0 0 0 0 0 0 0 0.15 0"/>
<feBlend mode="normal" in2="BackgroundImageFix" result="effect1_dropShadow_79_18354"/>
<feBlend mode="normal" in="SourceGraphic" in2="effect1_dropShadow_79_18354" result="shape"/>
</filter>
</defs>
</svg>
