<svg width="395" height="213" viewBox="0 0 395 213" fill="none" xmlns="http://www.w3.org/2000/svg">
<g filter="url(#filter0_d_50_35160)">
<path d="M245.948 44.191C251.363 45.2106 256.757 46.3395 262.127 47.5777C267.327 50.6832 279.865 58.6685 284.627 60.7349C287.45 62.8784 289.334 64.2583 292.42 66.1352C308.094 74.8569 323.817 83.4857 339.598 92.0218C351.18 98.22 396.883 117.776 384.266 137.932C374.627 153.321 333.475 164.543 316.092 168.798L309.383 170.415L296.707 172.643C291.737 185.251 286.864 199.571 271.341 200.747L269.261 199.738C269.17 192.999 282.942 180.533 288.329 172.229C281.712 177.491 270.067 188.339 261.507 187.671C258.346 186.033 259.099 186.98 257.642 184.18C258.96 181.434 261.281 180.22 263.829 178.38L262.76 177.473C185.19 184.437 165.885 160.406 96.5327 138.123C89.809 132.473 89.8256 119.546 92.9379 111.974C118.212 114.529 144.248 90.0189 166.35 75.351C178.092 67.855 190.592 61.3472 202.8 54.5836L205.76 54.0328C211.696 51.3707 215.799 50.067 221.927 48.151L229.745 46.2545C234.184 45.2574 241.238 44.7037 245.948 44.191ZM310.409 123.241C314.696 127.331 320.682 129.125 326.512 128.067C336.532 126.247 343.202 116.676 341.434 106.645C339.676 96.6136 330.145 89.888 320.096 91.5921C313.192 92.764 307.547 97.7317 305.496 104.428C303.446 111.125 305.35 118.405 310.409 123.241Z" fill="#456C7E"/>
<path d="M292.419 66.1353C308.093 74.8569 323.816 83.4858 339.597 92.0218C351.179 98.22 396.882 117.776 384.265 137.932C374.626 153.321 333.474 164.543 316.091 168.798L309.382 170.415C281.174 146.362 266.932 97.473 292.419 66.1353ZM310.408 123.241C314.695 127.331 320.681 129.125 326.511 128.067C336.531 126.247 343.201 116.676 341.433 106.645C339.675 96.6136 330.144 89.8881 320.095 91.5921C313.191 92.764 307.546 97.7318 305.496 104.428C303.445 111.125 305.349 118.405 310.408 123.241Z" fill="#7A9EB0"/>
<path d="M320.095 91.592C330.144 89.888 339.675 96.6135 341.433 106.645C343.201 116.676 336.531 126.247 326.511 128.066C320.681 129.125 314.695 127.331 310.408 123.241C305.349 118.405 303.445 111.125 305.496 104.428C307.546 97.7317 313.191 92.7639 320.095 91.592ZM310.671 106.178C311.687 111.692 310.857 110.807 310.154 115.628C314.099 123.225 320.584 126.992 328.777 123.498C346.912 115.762 335.808 87.2259 316.531 96.9865C312.879 98.8352 311.248 100.825 309.89 104.624L310.671 106.178Z" fill="#393980"/>
<path d="M310.672 106.178C313.689 104.011 319.412 99.6897 322.615 100.93C337.137 106.562 329.207 129.389 310.154 115.628C310.857 110.807 311.688 111.692 310.672 106.178ZM319.676 115.979C321.541 115.014 322.4 112.805 321.668 110.831C320.936 108.859 318.856 107.739 316.805 108.225C315.232 108.595 314.021 109.836 313.689 111.41C313.357 112.985 313.953 114.611 315.232 115.588C316.512 116.566 318.24 116.717 319.676 115.979Z" fill="#232323"/>
<path d="M273.862 161.093C288.055 157.877 298.611 153.327 296.707 172.643C291.736 185.251 286.863 199.571 271.341 200.747L269.261 199.738C269.17 192.999 282.941 180.533 288.328 172.229C281.712 177.491 270.066 188.339 261.507 187.671C258.346 186.033 259.099 186.98 257.642 184.18C258.96 181.434 261.28 180.219 263.829 178.38L262.76 177.472C266.955 176.663 267.621 176.099 271.057 173.765L270.963 173.212C265.548 173.805 261.805 175.368 257.793 171.622L257.768 168.681L259.577 165.114L265.676 163.133L271.527 161.59L273.862 161.093Z" fill="#13374A"/>
<path d="M240.667 147.528C242.656 136.157 249.281 129.883 261.418 133.206C266.834 134.639 271.434 138.212 274.162 143.104C277.198 148.636 276.537 153.276 274.661 158.95C274.421 159.674 274.154 160.388 273.862 161.093L271.527 161.59L265.676 163.133L259.577 165.114C248.305 162.556 244.266 158.267 240.667 147.528Z" fill="#456C7E"/>
<path d="M240.667 147.528C242.656 136.157 249.281 129.883 261.418 133.206C266.834 134.639 271.434 138.212 274.162 143.104C277.198 148.636 276.537 153.276 274.661 158.95C274.421 159.674 274.154 160.388 273.862 161.093L271.527 161.59C273.249 156.387 275.811 149.805 273.005 144.751C263.906 128.425 234.017 133.549 246.406 155.027C251.104 163.172 266.338 167.702 266.908 154.828C267.183 148.643 258.229 143.817 252.269 146.986C250.913 149.529 250.598 152.362 252.742 154.69C256.595 155.34 258.976 153.263 262.625 151.001L263.287 152.351C261.993 156.001 262.89 154.727 259.896 157.174C254.753 157.937 250.495 155.805 249.158 150.611C250.738 135.234 276.964 147.152 265.676 163.133L259.577 165.114C248.305 162.556 244.266 158.267 240.667 147.528Z" fill="#D0D7CC"/>
<path d="M237.836 146.899L240.667 147.528C244.266 158.268 248.305 162.557 259.577 165.114L257.768 168.682C247.515 167.564 234.987 158.52 237.836 146.899Z" fill="#456C7E"/>
<path d="M257.794 171.622C247.389 170.178 226.106 157.578 237.836 146.899C234.988 158.52 247.515 167.564 257.768 168.682L257.794 171.622Z" fill="#D0D7CC"/>
<path d="M145.417 108.829C151.435 107.314 154.049 108.181 160.239 109.368L161.064 106.421C163.054 105.876 163.407 106.888 165.323 107.686C178.2 113.05 181.576 105.014 185.794 95.7561L186.348 96.4788C186.92 104.957 182.706 107.513 176.281 111.632C172.259 111.861 167.216 111.692 163.101 111.662L166.577 121.974C165.439 125.378 165.063 126.82 164.466 130.356L165.457 131.234C169.621 130.074 174.162 128.428 178.089 130.853C184.654 134.906 189.58 144.241 184.15 151.115C181.902 154.208 177.605 158.669 173.375 158.614C160.252 158.442 156.495 146.929 155.893 136.913C148.062 137.26 141.777 138.252 135.332 132.475C128.085 125.978 129.362 114.449 136.467 108.329C138.905 106.229 139.818 106.59 142.708 106.784L145.417 108.829Z" fill="#7A9EB0"/>
<path d="M142.708 106.784L145.417 108.829L145.085 109.594L146.05 110.721C147.419 110.594 148.792 110.521 150.166 110.502C158.892 110.372 163.553 113.007 163.269 122.966C162.858 137.351 143.743 140.165 135.899 129.666C133.653 126.628 132.815 122.774 133.596 119.076C134.875 113.029 137.947 109.934 142.708 106.784Z" fill="#456C7E"/>
<path d="M150.147 124.028L151.298 125.298L150.201 126.611C146.737 127.163 148.158 127.282 144.793 126.069C141.339 121.482 144.967 114.34 149.787 114.168C153.162 116.011 156.645 121.382 155.326 125.359L153.967 123.171C152.641 123.415 151.395 123.559 150.147 124.028Z" fill="#7A9EB0"/>
<path d="M150.146 124.028L147.417 124.776L145.749 123.762L145.523 121.262C147.143 118.041 147.878 116.878 151.559 117.488C153.428 119.954 153.438 120.063 153.967 123.171C152.641 123.415 151.395 123.559 150.146 124.028Z" fill="#456C7E"/>
<path d="M170.395 130.652C185.017 133.618 191.002 148.402 174.969 156.172C173.102 156.376 172.715 156.189 170.898 155.84L170.772 155.347C160.132 149.573 161.908 137.852 170.395 130.652Z" fill="#456C7E"/>
<path d="M168.999 139.442C172.412 139.805 174.198 140.52 176.056 143.246L175.026 144.887C172.336 146.138 173.728 145.854 170.674 145.64C168.718 142.719 169.335 143.42 168.999 139.442Z" fill="#456C7E"/>
<path d="M203.232 103.134L205.885 103.122C226.605 110.756 228.672 124.789 218.428 142.877L215.623 141.09L211.519 140.408C206.353 141.145 205.634 141.46 200.953 143.814C187.058 141.32 179.857 127.776 185.416 114.485C188.57 106.941 196.187 105.611 203.232 103.134Z" fill="#456C7E"/>
<path d="M203.232 103.134L205.885 103.122C226.605 110.756 228.672 124.789 218.428 142.877L215.623 141.09C219.82 135.083 222.457 124.719 219.832 117.696C218.238 113.369 214.977 109.862 210.777 107.957C186.89 97.0423 176.695 131.475 197.456 139.921C213.648 146.508 221.413 113.051 204.259 111.028C197.281 113.738 194.562 124.793 200.69 129.985C204.726 130.311 203.199 130.691 206.515 128.719C207.643 125.496 207.753 125.074 207.481 121.68C204.928 119.647 204.83 121.479 199.719 121.693C199.374 119.422 199.499 120.141 201.346 117.592C205.256 116.858 203.758 116.642 207.13 118.114C210.45 122.171 210.512 127.175 207.373 131.35C195.902 136.356 192.341 120.162 196.546 115.313C211.692 97.845 222.884 124.254 210.991 138.381L210.352 139.129L211.519 140.408C206.353 141.145 205.634 141.46 200.953 143.814C187.058 141.32 179.857 127.776 185.416 114.485C188.57 106.941 196.187 105.611 203.232 103.134Z" fill="#7A9EB0"/>
<path d="M203.231 103.134C183.938 97.093 182.06 75.4662 195.613 64.2182C199.034 63.4252 197.767 63.2201 200.696 64.5024L204.815 66.8637C230.824 61.1928 232.574 100.229 208.961 102.854C207.937 102.963 206.912 103.053 205.885 103.122L203.231 103.134Z" fill="#456C7E"/>
<path d="M203.231 103.134C183.938 97.093 182.06 75.4662 195.613 64.2182C199.034 63.4252 197.767 63.2201 200.696 64.5024C187.519 69.6469 185.75 95.2678 200.838 100.246C217.022 105.585 227.653 89.2415 220.81 75.2152C212.809 62.6586 199.244 66.1283 197.452 80.8216C196.666 87.263 196.808 93.6008 203.666 95.9914C208.721 94.9983 210.735 91.9211 213.035 87.7327C212.536 82.8753 212.602 79.9778 207.971 77.7845C204.646 78.8988 205.786 78.347 203.301 81.3958C202.65 84.9085 202.452 83.5218 203.947 86.6448C207.213 88.0842 206.332 87.5647 210.691 86.4671C209.625 88.554 209.14 88.7776 207.361 90.2112C199.625 91.4241 196.128 78.4154 207.769 75.7982C219.13 78.014 216.607 98.3234 204.266 96.4631C201.027 95.9631 198.142 94.1457 196.292 91.4416C189.678 81.9505 196.83 72.2054 204.815 66.8637C230.824 61.1928 232.574 100.229 208.961 102.854C207.937 102.963 206.912 103.053 205.885 103.122L203.231 103.134Z" fill="#D0D7CC"/>
<path d="M239.399 66.3461L239.665 65.3295C243.939 49.3804 262.867 53.4556 268.705 65.3315C271.979 71.9916 265.548 84.8304 258.847 87.3401C249.284 90.9231 232.495 79.8441 234.873 69.1723L236.314 68.684L239.399 66.3461Z" fill="#456C7E"/>
<path d="M239.399 66.3461L239.665 65.3295C243.939 49.3804 262.867 53.4556 268.705 65.3315C271.979 71.9916 265.548 84.8304 258.847 87.3401C249.284 90.9231 232.495 79.8441 234.873 69.1723L236.314 68.684C236.259 77.3822 246.748 86.7396 254.984 84.9749C281.94 79.1996 260.542 40.3492 241.838 64.8579C234.98 73.8451 253.419 79.9925 259.078 81.1107C258.166 81.554 257.201 81.8773 256.206 82.0716C247.287 83.8392 240.852 74.0014 239.399 66.3461Z" fill="#D0D7CC"/>
<path d="M256.367 76.8949C250.779 75.9818 246.272 74.3226 246.296 67.9555C250.757 61.6811 261.32 65.6381 263.525 72.7074C263.385 76.0677 261.959 79.2396 259.077 81.1107C260.904 75.6791 262.007 69.3275 255.911 65.6977C252.833 65.4311 252.425 65.9613 249.587 67.5902L248.371 69.8226C249.643 73.0326 248.576 71.8929 251.631 73.3988C254.913 72.7523 255.285 72.517 258.03 70.5834C258.487 72.6625 257.371 75.0794 256.367 76.8949Z" fill="#D0D7CC"/>
<path d="M231.956 114.741C220.141 99.5442 245.246 85.5784 253.259 99.5559C266.092 112.894 244.295 129.743 232.226 120.766L230.825 117.748L231.956 114.741Z" fill="#456C7E"/>
<path d="M231.956 114.741C220.141 99.5442 245.246 85.5784 253.259 99.5559C243.461 93.8557 231.385 93.761 231.014 110.556C230.901 115.708 242.423 115.301 247 115.099L246.964 115.814C242.756 117.581 239.897 118.204 235.373 116.421C234.187 115.962 233.043 115.4 231.956 114.741Z" fill="#D0D7CC"/>
<path d="M253.259 99.5559C266.092 112.894 244.295 129.743 232.226 120.766L230.824 117.748C236.864 121.357 247.043 122.934 251.641 116.277C256.077 109.853 254.795 106.556 253.259 99.5559Z" fill="#D0D7CC"/>
<path d="M244.742 100.539L247.716 101.917C246.339 108.509 248.729 106.743 244.279 113.065C239.581 112.903 238.359 112.603 236.472 108.557C237.433 103.425 240.328 102.254 244.742 100.539Z" fill="#D0D7CC"/>
<path d="M211.519 140.408L215.622 141.09L218.428 142.877C219.637 144.499 220.801 145.819 221.644 147.632C232.201 162.086 211.543 173.803 201.435 168.735C200.297 166.602 200.33 167.629 200.594 165.631L200.948 163.743C193.663 155.612 194.118 151.787 200.952 143.814C205.634 141.46 206.353 141.145 211.519 140.408Z" fill="#456C7E"/>
<path d="M211.519 140.408L215.622 141.09L218.428 142.877C219.637 144.499 220.801 145.819 221.644 147.632C199.02 132.374 187.612 164.061 211.119 162.203C215.522 160.057 218.745 157.794 218.669 152.657C217.039 150.332 216.487 150.358 213.68 149.301C208.759 149.346 205.901 151.484 206.263 156.613L208.195 157.627C211.618 157.098 210.926 157.757 212.491 155.672C211.559 153.941 210.657 152.849 210.956 150.973C213.799 150.462 212.603 150.144 214.745 151.56C215.142 155.765 213.025 158.046 210.333 160.775C206.821 159.478 205.878 159.048 203.462 156.177C202.09 148.351 214.28 146.708 219.695 149.623C220.853 151.444 221.561 151.72 220.932 153.942C217.962 164.448 209.355 164.883 200.948 163.743C193.663 155.612 194.118 151.787 200.952 143.814C205.634 141.46 206.353 141.145 211.519 140.408Z" fill="#D0D7CC"/>
<path d="M221.643 147.632C232.201 162.086 211.543 173.803 201.434 168.735C200.297 166.602 200.33 167.629 200.593 165.631C206.657 170.161 215.048 168.227 219.219 162.115C223.27 156.179 222.64 154.334 221.643 147.632Z" fill="#D0D7CC"/>
<path d="M172.955 89.5295C174.708 89.5823 175.83 89.9426 177.506 90.3635C179.294 93.2463 179.049 92.0569 179.2 95.2688C177.784 97.4797 178.141 97.7092 176.156 98.6642L175.244 96.6223L176.153 98.3459L176.143 96.4602L175.266 96.6018C172.283 99.4084 173.481 99.135 170.227 99.2365C167.6 96.9953 168.356 98.1965 167.73 94.3957C169.414 90.6506 168.435 91.9748 172.955 89.5295Z" fill="#456C7E"/>
<path d="M168.484 83.3207C172.974 82.9389 173.567 82.9935 178.002 83.8627C177.817 86.9339 156.02 83.056 161.368 100.267C162.941 101.373 163.211 101.984 164.016 103.645L163.878 102.357L164.83 104.31L162.834 104.102L163.555 102.972L162.034 103.562C152.869 95.0003 160.306 87.9134 168.484 83.3207Z" fill="#7A9EB0"/>
<path d="M64.7344 122.226C50.3496 109.03 36.9649 114.107 20.0352 105.884C17.3321 104.572 17.1074 104.196 16.4844 101.981C23.7588 89.1156 53.8623 112.029 62.4414 107.814L62.2969 105.956C51.1241 88.1781 10.8555 78.8334 8 69.1909L9.24902 67.396C18.835 62.2612 40.3077 68.5005 49.2813 73.3305C63.7823 81.1352 83.6621 98.5003 92.9375 111.974C89.8252 119.546 89.8086 132.473 96.5323 138.123C85.292 159.234 67.2198 173.833 43.8164 179.593C39.4756 180.661 34.5156 182.181 30.2676 180.436C27.7402 177.603 28.3858 178.959 27.7002 175.34C30.8828 163.073 49.8516 161.662 62.2637 148.295C54.2227 151.234 28.5156 161.175 25.3916 149.439C30.0225 138.259 65.7071 147.32 66.0254 134.859C61.0537 130.229 32.7676 134.259 25.1905 129.326C24.5205 126.358 24.4356 127.826 25.8086 124.813C33.6914 118.91 53.4102 122.306 64.7344 122.226Z" fill="#13374A"/>
<path d="M179.846 63.7641C168.596 57.146 158.779 58.9468 153.042 54.0698C152.58 50.9868 152.364 52.2564 154.263 49.312C161.853 44.2398 192.023 52.6001 202.8 54.5835C190.592 61.3471 178.092 67.8549 166.35 75.351C157.644 75.4301 143.438 77.7406 139.221 69.0707C139.483 65.0297 138.888 66.4545 141.229 63.5161C147.97 59.6294 159.869 64.3823 167.653 64.5278C172.155 64.6127 175.368 64.2602 179.846 63.7641Z" fill="#13374A"/>
<path d="M262.127 47.5776C257.602 40.5201 254.334 35.9341 248.981 29.5338C243.737 23.2653 233.503 13.527 230.15 6.5434C244.223 -8.91344 278.288 50.7202 284.627 60.7348C279.864 58.6684 267.326 50.6831 262.127 47.5776Z" fill="#13374A"/>
<path d="M205.76 54.0327C197.284 47.9946 172.075 44.3345 171.605 37.5572C180.31 25.9503 210.296 43.6646 221.927 48.1509C215.799 50.0669 211.695 51.3706 205.76 54.0327Z" fill="#13374A"/>
<path d="M229.744 46.2544C221.4 37.3326 204.03 28.8854 200.495 21.7342C201.97 18.8596 200.911 19.9732 203.929 18.4266C215.783 17.4516 236.453 36.3297 245.947 44.191C241.237 44.7036 234.184 45.2574 229.744 46.2544Z" fill="#13374A"/>
</g>
<defs>
<filter id="filter0_d_50_35160" x="0" y="0" width="394.448" height="212.747" filterUnits="userSpaceOnUse" color-interpolation-filters="sRGB">
<feFlood flood-opacity="0" result="BackgroundImageFix"/>
<feColorMatrix in="SourceAlpha" type="matrix" values="0 0 0 0 0 0 0 0 0 0 0 0 0 0 0 0 0 0 127 0" result="hardAlpha"/>
<feOffset dy="4"/>
<feGaussianBlur stdDeviation="4"/>
<feComposite in2="hardAlpha" operator="out"/>
<feColorMatrix type="matrix" values="0 0 0 0 0 0 0 0 0 0 0 0 0 0 0 0 0 0 0.15 0"/>
<feBlend mode="normal" in2="BackgroundImageFix" result="effect1_dropShadow_50_35160"/>
<feBlend mode="normal" in="SourceGraphic" in2="effect1_dropShadow_50_35160" result="shape"/>
</filter>
</defs>
</svg>
