<svg width="381" height="159" viewBox="0 0 381 159" fill="none" xmlns="http://www.w3.org/2000/svg">
<g filter="url(#filter0_d_50_34995)">
<path d="M136.342 4L158.329 4.06162L174.956 5.51432C178.819 5.81529 181.183 5.98948 185.016 6.84379C189.965 7.64004 195.014 8.3723 199.908 9.42093C208.351 11.7445 217.058 14.0183 225.4 16.6204L230.606 18.502C234.901 20.1076 240.77 22.1207 244.754 24.0319C254.157 28.3059 259.904 31.165 268.784 36.4118C272.286 38.6299 280.519 43.5354 283.412 45.8886L285.33 47.9823C293.047 65.0461 286.985 67.1031 271.061 71.7739C270.489 76.9673 269.974 83.0625 269.196 88.1469C262.844 91.1956 257.122 93.6721 250.605 96.3595C247.901 103.681 246.131 111.675 238.73 114.704C224.141 120.675 224.299 116.942 218.087 132.141C219.853 134.517 220.486 134.542 223.211 135.575C212.786 138.344 202.158 141.536 191.478 142.798L190.127 142.841C184.235 144.697 178.75 144.971 172.632 145.546C163.014 146.398 153.355 146.696 143.703 146.438L136.769 146.177C133.04 146.284 124.735 145.195 120.653 144.761L105.809 142.241L97.5411 139.99C92.7375 139.141 85.6292 136.788 80.7427 135.325L71.5786 131.938L64.6658 128.592C43.1467 118.979 22.8658 102.745 8 84.5222C12.9944 72.2443 19.9699 60.8681 28.6458 50.8474C57.2211 17.9083 94.6072 6.73001 136.342 4Z" fill="#6C9A8B"/>
<path d="M8 84.5222C12.9944 72.2443 19.9699 60.8681 28.6458 50.8474C57.2211 17.9083 94.6072 6.73001 136.342 4C129.556 38.7282 114.78 82.6738 89.5252 108.64C80.0092 118.423 73.1782 121.186 64.6658 128.592C43.1467 118.979 22.8658 102.745 8 84.5222Z" fill="#A8DADC"/>
<path d="M244.754 24.0319C254.157 28.3059 259.904 31.165 268.784 36.4118C272.286 38.6299 280.519 43.5354 283.412 45.8886L285.33 47.9823C293.047 65.0461 286.985 67.103 271.061 71.7739C270.489 76.9673 269.973 83.0625 269.196 88.1469C262.844 91.1956 257.122 93.6721 250.605 96.3595C247.901 103.681 246.131 111.675 238.73 114.704C224.141 120.675 224.299 116.942 218.086 132.141C219.853 134.517 220.486 134.542 223.211 135.575C212.786 138.344 202.158 141.536 191.478 142.798L190.127 142.841C184.235 144.697 178.75 144.971 172.632 145.546C163.014 146.398 153.355 146.696 143.703 146.438L136.769 146.177C175.406 120.383 191.874 102.75 219.105 65.1539C225.563 55.76 231.752 46.1836 237.666 36.439C240.853 31.7172 242.217 29.1566 244.754 24.0319Z" fill="#6C9A8B"/>
<path d="M244.754 24.0319C254.157 28.3059 259.904 31.165 268.784 36.4118C248.598 75.7351 216.055 101.201 179.362 124.899C168.461 131.94 153.847 139.293 143.703 146.438L136.769 146.177C175.406 120.383 191.874 102.75 219.105 65.1539C225.563 55.76 231.752 46.1836 237.666 36.439C240.853 31.7172 242.217 29.1566 244.754 24.0319Z" fill="#C9E4CA"/>
<path d="M283.412 45.8885L285.33 47.9823C293.047 65.0461 286.985 67.103 271.061 71.7739C270.489 76.9673 269.973 83.0624 269.196 88.1468C262.844 91.1956 257.122 93.6721 250.605 96.3594C247.901 103.681 246.131 111.675 238.73 114.704C224.141 120.675 224.299 116.942 218.086 132.141C219.853 134.517 220.486 134.542 223.211 135.575C212.786 138.344 202.158 141.536 191.478 142.798L190.127 142.841C184.235 144.697 178.75 144.971 172.632 145.546C170.188 145.282 167.663 144.92 165.216 144.603C175.119 139.644 185.295 135.744 195.27 130.547C236.479 109.077 258.654 84.0151 283.412 45.8885Z" fill="#A8DADC"/>
<path d="M285.33 47.9823C293.047 65.0461 286.985 67.103 271.061 71.7739C270.489 76.9673 269.973 83.0624 269.196 88.1468C262.844 91.1956 257.122 93.6721 250.605 96.3594C247.901 103.681 246.13 111.675 238.729 114.704C224.141 120.675 224.299 116.942 218.086 132.141C219.853 134.517 220.485 134.542 223.211 135.575C212.786 138.344 202.157 141.536 191.478 142.798L190.127 142.841C194.801 129.098 202.655 131.809 215.121 132.047C223.262 116.952 222.546 115.928 240.445 113.526C244.742 106.961 246.803 96.1283 252.718 93.3438C257.716 90.9918 261.193 90.9871 265.985 87.0591C272.492 77.6368 261.034 70.9646 284.543 64.3268C288.87 63.1052 285.02 53.2575 285.33 47.9823Z" fill="white"/>
<path d="M218.087 132.141C219.854 134.517 220.486 134.541 223.212 135.575C212.787 138.344 202.158 141.536 191.479 142.798C193.49 139.647 195.658 136.576 197.782 133.498C205.96 134.494 210.806 135.967 218.087 132.141Z" fill="#A8DADC"/>
<path d="M136.342 4L158.329 4.06162L174.956 5.51432C156.025 66.1729 129.395 96.6758 80.7429 135.325L71.5788 131.938L64.666 128.592C73.1784 121.186 80.0094 118.423 89.5254 108.64C114.781 82.6738 129.556 38.7282 136.342 4Z" fill="#C9E4CA"/>
<path d="M136.342 4L158.329 4.06162C126.887 52.479 120.075 96.0632 71.5788 131.938L64.666 128.592C73.1784 121.186 80.0094 118.423 89.5254 108.64C114.781 82.6738 129.556 38.7282 136.342 4Z" fill="#6C9A8B"/>
<path d="M174.955 5.51434C178.818 5.81531 181.182 5.9895 185.015 6.84381C189.965 7.64007 195.013 8.37232 199.907 9.42096C195.058 17.4131 180.863 41.0839 177.805 49.1127L176.794 49.8485C171.379 59.7176 166.944 67.865 160.667 77.1973L160.058 78.0954C147.524 98.7779 134.34 114.336 114.762 128.881C109.621 132.702 101.246 137.152 97.5406 139.99C92.737 139.141 85.6287 136.788 80.7422 135.325C129.394 96.6758 156.024 66.173 174.955 5.51434Z" fill="#6C9A8B"/>
<path d="M185.016 6.84381C189.965 7.64006 195.014 8.37232 199.908 9.42096C195.059 17.4131 180.864 41.0839 177.806 49.1127L176.795 49.8485C171.38 59.7176 166.945 67.865 160.667 77.1973L160.058 78.0954C157.886 78.7175 147.966 82.9476 147.223 84.1124C136.971 100.161 144.014 102.165 122.475 105.614C116.363 123.885 120.744 116.963 104.045 125.23C102.318 126.085 94.4616 134.788 91.8643 137.201C103.294 111.877 112.652 132.036 118.824 109.504C122.147 97.3773 139.742 107.59 141.624 89.7216C142.359 82.7426 153.066 78.6191 158.844 75.8678C160.553 56.7388 160.562 57.721 176.074 46.6138C172.88 27.0878 176.056 30.8937 189.316 18.9061C187.354 15.913 185.479 12.8642 183.693 9.76216L184.915 8.0891L185.016 6.84381Z" fill="white"/>
<path d="M185.015 6.84381C189.965 7.64006 195.014 8.37232 199.907 9.42096C195.059 17.4131 180.864 41.0839 177.805 49.1127C177.446 42.2593 176.809 38.6488 175.491 31.8653C188.458 24.4028 194.37 22.193 184.915 8.0891L185.015 6.84381Z" fill="#6C9A8B"/>
<path d="M160.667 77.1973C161.936 62.1668 161.49 56.3299 176.795 49.8485C171.38 59.7175 166.945 67.865 160.667 77.1973Z" fill="#6C9A8B"/>
<path d="M199.908 9.42096C208.351 11.7445 217.058 14.0184 225.4 16.6204C211.214 51.1745 159.073 105.449 129.27 128.746C121.21 133.66 114.136 137.799 105.809 142.241L97.541 139.99C101.246 137.152 109.621 132.702 114.762 128.881C134.341 114.336 147.524 98.7779 160.058 78.0954L160.667 77.1973C166.945 67.865 171.38 59.7176 176.795 49.8485L177.805 49.1127C180.864 41.0839 195.059 17.4131 199.908 9.42096Z" fill="#C9E4CA"/>
<path d="M217.702 63.5577L219.105 65.1539C191.874 102.75 175.406 120.383 136.768 146.177C133.039 146.284 124.734 145.195 120.652 144.761C130.825 131.759 130.723 137.249 145.061 131.222C148.36 129.834 149.909 125.58 151.036 122.451C153.91 111.523 167.16 117.761 170.576 114.717C179.772 106.522 174.301 95.7444 193.535 92.5558C197.065 91.9705 200.872 81.5161 201.678 77.4353C203.139 70.038 211.279 67.0188 217.702 63.5577Z" fill="#6C9A8B"/>
<path d="M230.606 18.502C234.901 20.1075 240.77 22.1206 244.754 24.0319C242.217 29.1566 240.853 31.7171 237.666 36.439C231.752 46.1836 225.563 55.76 219.105 65.1539L217.702 63.5578C211.279 67.0188 203.139 70.038 201.678 77.4353C200.872 81.5161 197.065 91.9705 193.535 92.5558C174.301 95.7444 179.772 106.522 170.576 114.717C167.16 117.761 153.91 111.523 151.036 122.451C149.909 125.58 148.36 129.834 145.061 131.222C130.723 137.249 130.825 131.759 120.652 144.761C122.276 137.882 124.59 135.941 130.153 132.235C132.699 132.22 141.868 131.641 143.058 130.14C155.068 114.979 151.973 114.036 171.626 112.561C180.504 91.6648 176.374 100.815 195.117 88.18C197.959 86.264 198.386 72.6306 202.221 70.1494C207.192 66.9336 211.535 65.1219 216.059 61.7508C220.834 53.7527 209.922 45.4015 231.122 36.8513C236.737 34.5869 229.919 25.4206 230.606 18.502Z" fill="white"/>
<path d="M230.606 18.502C234.901 20.1075 240.77 22.1206 244.754 24.0319C242.217 29.1566 240.853 31.7171 237.665 36.439C231.752 46.1836 225.563 55.76 219.105 65.1539L217.702 63.5578C220.689 57.7446 219.799 51.6163 219.578 45.0674C227.994 41.7189 230.028 41.1324 236.125 34.5419C236.12 30.0346 232.537 22.9844 230.606 18.502Z" fill="#6C9A8B"/>
<path d="M367.921 23.6989L371.368 23.4335C376.075 36.0361 347.844 69.557 337.558 77.1949C352.525 84.2237 371.813 109.078 373 125.073C339.598 131.328 319.347 119.964 302.055 90.8567C275.927 113.997 256.263 124.33 223.212 135.575C220.486 134.542 219.854 134.517 218.087 132.141C224.299 116.942 224.142 120.675 238.73 114.704C246.131 111.675 247.902 103.681 250.605 96.3594C257.122 93.6721 262.844 91.1956 269.197 88.1469C269.974 83.0625 270.489 76.9673 271.062 71.7739C286.986 67.103 293.048 65.0461 285.33 47.9823C290.362 50.8036 297.234 57.0314 301.84 60.925C320.891 37.9995 338.413 27.9587 367.921 23.6989Z" fill="#A8DADC"/>
<path d="M367.92 23.6989L371.367 23.4335C376.074 36.0361 347.843 69.557 337.557 77.1949C352.524 84.2237 371.812 109.078 373 125.073C339.287 114.299 300.948 88.2334 331.13 50.3711C340.453 38.6761 354.937 30.9766 367.92 23.6989Z" fill="#6C9A8B"/>
<path d="M47.5689 58.0099C54.0583 55.7353 61.154 59.1221 63.4751 65.5917C65.7866 72.0622 62.4424 79.1864 55.9909 81.5416C49.4731 83.9176 42.2732 80.5383 39.9428 74.0119C37.6028 67.4845 41.0321 60.3044 47.5689 58.0099Z" fill="white"/>
<path d="M48.2027 61.4288C52.7938 60.6542 57.1984 63.5088 58.0617 67.8248C58.9152 72.1409 55.9232 76.3038 51.3419 77.1504C46.7116 78.0071 42.2285 75.146 41.3554 70.7792C40.4823 66.4123 43.5528 62.2135 48.2027 61.4288Z" fill="#232323"/>
<path d="M44.545 65.049C46.0659 63.8588 48.2576 64.1185 49.4574 65.6308C50.6477 67.1431 50.3926 69.3374 48.8906 70.5389C47.3696 71.747 45.1685 71.4929 43.9593 69.9731C42.7595 68.4532 43.024 66.2458 44.545 65.049Z" fill="#FDFDFD"/>
</g>
<defs>
<filter id="filter0_d_50_34995" x="0" y="0" width="381" height="158.528" filterUnits="userSpaceOnUse" color-interpolation-filters="sRGB">
<feFlood flood-opacity="0" result="BackgroundImageFix"/>
<feColorMatrix in="SourceAlpha" type="matrix" values="0 0 0 0 0 0 0 0 0 0 0 0 0 0 0 0 0 0 127 0" result="hardAlpha"/>
<feOffset dy="4"/>
<feGaussianBlur stdDeviation="4"/>
<feComposite in2="hardAlpha" operator="out"/>
<feColorMatrix type="matrix" values="0 0 0 0 0 0 0 0 0 0 0 0 0 0 0 0 0 0 0.15 0"/>
<feBlend mode="normal" in2="BackgroundImageFix" result="effect1_dropShadow_50_34995"/>
<feBlend mode="normal" in="SourceGraphic" in2="effect1_dropShadow_50_34995" result="shape"/>
</filter>
</defs>
</svg>
