<svg width="351" height="254" viewBox="0 0 351 254" fill="none" xmlns="http://www.w3.org/2000/svg">
<g filter="url(#filter0_d_52_109)">
<path d="M337.265 57.1854C325.809 48.8701 289.283 86.7533 263.599 116.209C261.905 112.149 259.834 108.09 257.417 104.049C255.194 100.335 252.68 96.637 249.902 92.9703C247.712 94.3664 244.999 95.297 241.645 95.6098C240.818 95.6868 239.751 95.753 238.466 95.8102L237.678 88.529C237.665 88.5298 237.649 88.533 237.636 88.5361L235.274 76.2654C240.595 81.6126 245.595 87.2778 249.902 92.9703C261.576 85.1974 258.32 65.4663 257.163 54.2178C255.679 40.8177 274.388 4.03069 274.388 4.03069C274.283 3.41142 250.1 12.2868 224.313 19.5304C206.409 24.5599 187.731 28.8025 175.804 28.5332C167.144 28.2957 158.917 25.7315 148.017 24.2537C133.676 22.3097 114.71 22.2461 84.044 31.838C68.6446 37.5512 45.1919 41.2795 46.5879 88.6281C25.3629 108.563 21.0978 157.139 21.0978 157.139C17.5458 161 1.381 158.7 11.0307 174.731C23.6145 195.636 29.7597 200.734 64.9116 203.944C76.154 204.971 84.1547 205.328 90.9069 205.294C93.7929 205.282 96.4535 205.195 99.0389 205.06L99.0409 205.06C108.788 204.551 117.498 203.337 133.509 202.588C134.373 202.547 135.256 202.507 136.164 202.47C138.132 202.389 140.043 202.309 141.907 202.234C152.103 201.814 160.827 201.459 169.225 201.072C174.629 200.823 179.896 200.561 185.335 200.26C190.475 199.977 195.765 199.66 201.465 199.285C205.815 199.001 210.4 198.684 215.34 198.326C215.342 198.326 215.342 198.326 215.342 198.326C216.751 198.223 218.186 198.117 219.653 198.008C226.055 197.531 231.717 196.218 236.701 194.237C243.067 191.708 248.331 188.088 252.629 183.723C256.537 179.76 259.645 175.182 262.061 170.25C276.758 178.811 305.612 195.148 312.868 195.811C322.72 196.71 324.189 180.621 332.339 160.593C333.052 158.841 333.626 157.159 334.078 155.53C338.045 141.226 332.485 131.038 327.054 113.449C326.036 110.154 325.023 106.6 324.078 102.709C317.515 75.6852 355.55 70.457 337.265 57.1854ZM48.7038 86.7764C54.7758 81.541 60.5418 77.3242 66.167 73.9424C60.1385 77.6083 54.5375 81.9334 48.7038 86.7764ZM90.2672 63.9833C86.1556 64.9741 82.3688 66.1867 78.8109 67.6018C78.6045 67.684 78.4004 67.7683 78.1954 67.8519C86.1921 64.5526 94.1459 62.7287 102.566 61.8191C98.1428 62.3412 94.0666 63.0674 90.2672 63.9833ZM195.14 60.0713C197.483 59.7117 199.738 59.4584 201.943 59.4018C203.072 59.373 204.188 59.3822 205.297 59.4371C202.141 59.3523 198.824 59.6355 195.14 60.0713ZM230.305 71.4431C227.924 69.209 225.697 67.3606 223.569 65.8394C227.211 68.3456 231.061 71.7352 235.272 76.2651C233.66 74.6456 232.005 73.0376 230.305 71.4431Z" fill="#E9C46A"/>
<path d="M264.99 152.162C259.046 152.382 253.103 151.722 246.938 153.043C245.72 153.313 244.585 153.417 243.488 153.457C243.165 153.672 242.841 153.888 242.518 154.108L253.359 165.121C253.359 165.121 303.016 194.911 312.868 195.81C322.719 196.71 324.188 180.62 332.338 160.593C333.052 158.84 333.625 157.158 334.077 155.529C329.353 154.755 324.604 154.079 319.807 153.263C301.094 150.401 283.263 151.721 264.99 152.162Z" fill="#264653"/>
<path d="M327.053 113.448C323.982 114.847 320.959 116.06 317.825 117.157C315.843 118.037 314.522 118.478 313.202 119.138C306.377 121.78 299.773 124.862 292.728 127.504C291.847 127.724 290.747 127.284 290.086 127.724C288.986 128.385 288.105 129.706 286.564 130.146C285.904 130.146 285.243 129.926 284.803 130.146C281.721 133.008 278.199 134.329 274.897 136.31C273.796 136.971 272.255 136.971 271.154 137.411C268.292 138.952 266.091 141.154 263.229 142.475C256.343 145.727 249.955 149.15 243.488 153.457C244.585 153.417 245.72 153.313 246.938 153.042C253.102 151.721 259.046 152.382 264.99 152.162C283.263 151.721 301.094 150.4 319.807 153.262C324.604 154.079 329.353 154.755 334.077 155.529C338.044 141.225 332.484 131.037 327.053 113.448Z" fill="#264653"/>
<path d="M271.154 137.411C272.255 136.971 273.796 136.971 274.897 136.311C278.199 134.329 281.721 133.008 284.803 130.146C285.243 129.926 285.904 130.146 286.564 130.146C288.105 129.706 288.986 128.385 290.086 127.725C290.747 127.284 291.847 127.725 292.728 127.504C299.773 124.863 306.377 121.78 313.202 119.138C314.522 118.478 315.843 118.038 317.825 117.157C320.959 116.06 323.982 114.848 327.053 113.448C326.035 110.153 325.022 106.599 324.077 102.709C317.514 75.6852 355.549 70.4573 337.264 57.1854C318.979 43.9136 236.83 148.33 236.83 148.33L241.901 153.482C242.425 153.481 242.951 153.477 243.488 153.457C249.955 149.15 256.342 145.727 263.229 142.475C266.091 141.154 268.292 138.952 271.154 137.411Z" fill="#264653"/>
<path d="M135.105 46.2662C136.646 43.6243 138.627 42.3033 139.728 40.1019C140.829 37.9002 142.15 36.5794 143.47 34.8182C145.011 32.6165 145.231 29.7545 146.992 27.7733C147.433 27.3329 146.992 26.4522 147.213 25.7918C147.491 25.2818 147.757 24.7689 148.017 24.254C133.676 22.3099 114.71 22.2464 84.044 31.8383C68.6446 37.5515 45.1919 41.2798 46.5879 88.6284C74.7016 63.5883 95.9964 60.3252 126.392 61.1584C128.543 58.0166 129.86 54.4453 132.243 51.3299C133.344 49.7886 134.224 47.8072 135.105 46.2662Z" fill="#264653"/>
<path d="M214.577 37.68C215.017 36.7994 215.017 35.6985 215.458 34.8179C218.541 29.6791 221.622 24.7347 224.313 19.5304C206.408 24.5599 187.731 28.8026 175.804 28.5332C167.144 28.2957 158.916 25.7315 148.016 24.2537C147.757 24.7687 147.49 25.2815 147.212 25.7916C146.992 26.452 147.433 27.3326 146.992 27.773C145.231 29.7545 145.011 32.6165 143.47 34.8179C142.149 36.5791 140.828 37.9002 139.727 40.1016C138.627 42.3033 136.645 43.624 135.104 46.2659C134.224 47.8069 133.343 49.7883 132.243 51.3296C129.86 54.445 128.543 58.0163 126.392 61.1581C137.468 61.4617 149.753 63.4475 164.017 63.9834C180.398 64.1616 191.69 59.6645 201.943 59.402C203.287 57.8757 204.666 56.55 205.551 54.6321C208.633 48.908 210.615 42.9637 214.577 37.68Z" fill="#264653"/>
<path d="M274.388 4.03069C274.283 3.41142 250.099 12.2868 224.313 19.5304C221.621 24.7347 218.541 29.6791 215.458 34.8179C215.018 35.6985 215.018 36.7994 214.577 37.68C210.614 42.9636 208.633 48.908 205.551 54.6321C204.666 56.55 203.287 57.8754 201.943 59.402C212.65 59.128 222.223 62.2302 235.272 76.2651L235.274 76.2654C240.595 81.6129 245.595 87.2775 249.902 92.97C261.576 85.1971 258.32 65.4663 257.163 54.2178C255.678 40.8177 274.388 4.03069 274.388 4.03069Z" fill="#264653"/>
<path d="M56.8225 152.71C64.2033 151.52 69.2223 144.572 68.033 137.191C66.8436 129.81 59.8961 124.791 52.5154 125.98C45.1346 127.17 40.1156 134.117 41.3049 141.499C42.4943 148.88 49.4418 153.899 56.8225 152.71Z" fill="white"/>
<path d="M61.2972 139.649C61.6753 135.506 58.3729 131.818 53.9212 131.412C49.4694 131.006 45.554 134.035 45.1759 138.178C44.7977 142.321 48.1001 146.008 52.5519 146.415C57.0037 146.821 60.9191 143.792 61.2972 139.649Z" fill="black"/>
<path d="M59.6373 144.684C59.5189 145.983 58.4537 146.947 57.2583 146.838C56.063 146.728 55.1902 145.587 55.3086 144.289C55.4271 142.991 56.4922 142.026 57.6876 142.136C58.883 142.245 59.756 143.386 59.6373 144.684Z" fill="white"/>
<path d="M99.0412 205.06L99.0388 205.06C97.1544 205.434 95.1429 205.626 93.0563 205.599C92.3276 205.59 91.6082 205.553 90.9019 205.493L90.9068 205.294L91.3616 181.599C91.3728 181.598 91.3837 181.599 91.3949 181.598L91.8488 157.911C91.8555 157.912 91.8621 157.912 91.8687 157.911L91.4194 135.013C91.4061 135.014 91.3906 135.015 91.3771 135.016L88.3085 111.364C88.3467 111.357 88.3872 111.349 88.4258 111.339L85.2542 93.5122L84.4102 88.7615C84.397 88.7627 84.3809 88.7676 84.3674 88.771L78.8105 67.6021C82.3685 66.187 86.1555 64.9744 90.2671 63.9836C96.066 64.4646 100.551 67.1047 101.654 71.3019C103.216 77.261 97.4137 84.2521 88.4651 87.569C96.8675 86.4572 104.25 89.152 106.53 94.0579C106.809 94.6582 107.012 95.2935 107.131 95.9585C108.162 101.759 102.436 107.908 93.9375 110.656C102.751 110.392 109.948 114.251 110.703 120.068C111.506 126.258 104.733 132.458 95.3062 134.451C104.933 134.724 112.568 139.644 112.692 145.909C112.806 151.736 106.386 156.789 97.7607 158.146C106.37 159.366 112.777 164.302 112.665 170.123C112.552 176.062 105.692 180.907 96.7841 181.772C105.639 182.87 112.291 187.881 112.178 193.811C112.075 199.123 106.577 203.564 99.0412 205.06Z" fill="#2A9D8F"/>
<path d="M249.901 92.9699C247.711 94.366 244.998 95.2967 241.645 95.6095C240.818 95.6865 239.75 95.7527 238.465 95.8099L237.677 88.5286C237.664 88.5295 237.648 88.5327 237.635 88.5358L235.273 76.265C238.675 79.684 241.871 83.1504 244.838 86.6579C245.146 87.0176 245.451 87.3815 245.751 87.7426C247.192 89.4771 248.578 91.2196 249.901 92.9699Z" fill="#2A9D8F"/>
<path d="M243.461 179.995C247.023 180.707 250.177 182.023 252.628 183.722C248.33 188.087 243.066 191.707 236.7 194.236L238.067 179.412C238.078 179.411 238.089 179.412 238.1 179.413L240.221 156.396L240.241 156.398L240.47 152.028L240.853 144.68L241.408 134.079C241.393 134.078 241.379 134.079 241.364 134.079L239.972 110.826C240.01 110.82 240.05 110.817 240.09 110.81L238.465 95.8096C239.75 95.7524 240.817 95.6862 241.644 95.6092C244.998 95.2964 247.711 94.3658 249.901 92.9697C252.679 96.6367 255.193 100.335 257.416 104.048C254.926 106.982 250.713 109.379 245.633 110.566C254.437 110.986 261.338 115.292 261.681 121.012C262.047 127.098 254.859 132.612 245.321 133.83C247.476 134.056 249.513 134.503 251.375 135.13L251.377 135.131C257.785 137.29 262.091 141.58 261.844 146.313C261.547 151.994 254.792 156.418 246.099 157.079C254.223 158.844 260.099 163.762 260.143 169.132C260.145 169.38 260.136 169.629 260.113 169.876C259.582 175.647 252.404 179.837 243.461 179.995Z" fill="#2A9D8F"/>
<path d="M223.478 189.744C223.131 193.497 219.974 196.584 215.342 198.326C215.342 198.326 215.342 198.326 215.34 198.326C210.4 198.683 205.815 199.001 201.465 199.285L203.587 176.263C203.598 176.262 203.611 176.263 203.622 176.264L205.744 153.248L205.764 153.249L206.928 130.93C206.915 130.929 206.9 130.929 206.886 130.93L205.492 107.676C205.531 107.671 205.571 107.668 205.611 107.661L204.343 95.9606L203.198 85.3794C203.184 85.3803 203.171 85.3834 203.157 85.3869L198.757 62.5438C199.442 62.3501 200.143 62.1796 200.859 62.0327C211.099 59.9236 220.395 63.3612 221.616 69.7115C222.756 75.63 216.479 81.9872 207.325 84.5316C216.816 84.0385 224.689 88.1158 225.341 94.1266C225.41 94.7697 225.393 95.4114 225.298 96.0459C224.545 101.051 218.846 105.622 211.155 107.417C219.957 107.837 226.859 112.143 227.203 117.863C227.567 123.949 220.379 129.463 210.842 130.681C220.419 131.684 227.684 137.058 227.365 143.164C227.069 148.845 220.312 153.269 211.619 153.929C220.116 155.775 226.156 161.071 225.633 166.727C225.102 172.497 217.924 176.688 208.983 176.846C217.732 178.594 224.009 183.98 223.478 189.744Z" fill="#2A9D8F"/>
<path d="M185.336 200.259C179.897 200.561 174.629 200.822 169.226 201.072L169.928 179.699C169.94 179.697 169.951 179.698 169.962 179.697L170.742 155.921C170.749 155.922 170.756 155.922 170.762 155.921L170.627 132.924C170.614 132.924 170.6 132.928 170.585 132.928L167.842 109.14C167.88 109.133 167.921 109.125 167.959 109.118L165.719 95.3772L164.256 86.394C164.24 86.3968 164.226 86.4023 164.213 86.4035L158.491 63.2364C158.871 63.1007 159.254 62.9702 159.645 62.8489C165.148 62.9115 170.058 62.7186 174.491 62.3983C178.246 63.5903 180.952 65.911 181.737 69.0888C183.22 75.0938 177.32 82.036 168.326 85.2514C177.775 84.1201 185.874 87.7869 186.875 93.9158C186.972 94.5239 186.999 95.132 186.956 95.7403C186.588 100.984 181.129 106.127 173.48 108.502C182.296 108.351 189.439 112.318 190.114 118.169C190.832 124.396 183.974 130.53 174.52 132.411C184.144 132.812 191.711 137.849 191.749 144.142C191.783 149.993 185.292 154.982 176.649 156.235C185.244 157.569 191.581 162.608 191.388 168.454C191.193 174.414 184.269 179.189 175.349 179.942C184.186 181.16 190.771 186.275 190.575 192.229C190.47 195.374 188.493 198.193 185.336 200.259Z" fill="#2A9D8F"/>
<path d="M141.906 202.234C139.944 202.618 137.842 202.8 135.663 202.745C134.933 202.725 134.215 202.681 133.509 202.61L133.509 202.588L134.297 178.627C134.309 178.626 134.319 178.627 134.331 178.625L135.111 154.849C135.118 154.85 135.124 154.851 135.131 154.849L134.998 131.854C134.982 131.855 134.969 131.856 134.956 131.857L132.211 108.069C132.25 108.061 132.29 108.054 132.328 108.046L130.141 94.6219L128.624 85.3245C128.611 85.3253 128.597 85.3308 128.582 85.3337L122.86 62.1643C123.532 61.9228 124.225 61.7009 124.93 61.5022C125.686 61.2903 126.436 61.1092 127.181 60.9629C131.184 61.0919 135.411 61.332 139.89 61.6922C143.107 62.9633 145.395 65.1397 146.105 68.0187C147.589 74.0214 141.689 80.9639 132.697 84.1793C142.144 83.048 150.245 86.7148 151.244 92.8434C151.366 93.5886 151.377 94.339 151.285 95.0865C150.664 100.183 145.295 105.118 137.851 107.429C146.667 107.279 153.808 111.245 154.483 117.097C155.201 123.324 148.343 129.458 138.891 131.34C148.513 131.739 156.08 136.776 156.117 143.069C156.151 148.922 149.663 153.91 141.018 155.163C149.612 156.498 155.95 161.536 155.759 167.381C155.561 173.341 148.637 178.116 139.717 178.869C148.557 180.088 155.139 185.203 154.943 191.156C154.771 196.431 149.334 200.779 141.906 202.234Z" fill="#2A9D8F"/>
<path d="M85.04 192.049C86.1578 191.818 87.2858 191.579 88.4338 191.35C90.1949 191.13 92.1762 191.57 93.9374 191.35C95.0382 191.13 96.1389 190.469 97.2394 190.029C97.8997 190.029 98.7803 190.249 99.0005 189.809C101.202 187.167 104.284 186.286 106.926 184.965C114.631 181.443 122.776 178.36 130.482 173.297C133.343 171.536 135.765 169.554 139.067 168.453C139.287 168.233 139.507 167.353 139.728 167.133C142.14 165.685 144.354 164.104 146.442 162.392C139.597 157.274 131.861 154.075 123.167 154.075C84.8902 154.075 85.9007 171.549 85.9007 171.549C85.9007 171.549 84.4265 180.777 85.04 192.049Z" fill="#264653"/>
<path d="M146.442 162.392C144.354 164.104 142.14 165.685 139.728 167.133C139.507 167.353 139.287 168.233 139.067 168.453C135.765 169.554 133.343 171.536 130.482 173.297C122.776 178.361 114.631 181.443 106.926 184.965C104.284 186.286 101.202 187.167 99.0005 189.809C98.7803 190.249 97.8997 190.029 97.2394 190.029C96.1386 190.469 95.0379 191.13 93.9374 191.35C92.1763 191.57 90.1949 191.13 88.4338 191.35C87.2858 191.58 86.1578 191.818 85.04 192.049C85.6607 203.449 88.4182 216.938 96.9965 225.087C97.0773 225.069 97.1583 225.052 97.2394 225.034C100.322 224.153 103.183 223.053 106.045 221.731C107.366 221.291 108.687 221.511 110.008 221.071C128.06 213.145 147.653 211.825 166.586 205.88C169.715 204.907 172.756 203.756 175.737 202.466C168.754 187.956 159.13 171.878 146.442 162.392Z" fill="#264653"/>
<path d="M110.008 221.071C108.687 221.511 107.366 221.291 106.045 221.731C103.183 223.052 100.321 224.153 97.239 225.034C97.1582 225.052 97.0772 225.069 96.9961 225.087C98.9041 226.899 101.098 228.449 103.623 229.651C128.721 241.601 142.159 243.622 153.393 238.435C164.626 233.248 194.743 245.513 187.952 230.801C185.562 225.625 181.571 214.593 175.736 202.466C172.755 203.757 169.714 204.907 166.585 205.88C147.653 211.824 128.06 213.146 110.008 221.071Z" fill="#264653"/>
<path d="M67.8989 101.082C68.8623 100.799 69.8768 101.325 70.2009 102.275C70.5246 103.227 70.0424 104.263 69.1072 104.627C68.4646 104.878 67.737 104.756 67.2119 104.309C66.6868 103.862 66.4489 103.163 66.5923 102.491C66.7357 101.817 67.2372 101.275 67.8989 101.082Z" fill="white"/>
<path d="M67.8989 86.0817C68.8623 85.799 69.8768 86.3252 70.2009 87.2753C70.5246 88.2269 70.0424 89.2627 69.1072 89.6274C68.4646 89.8778 67.737 89.7561 67.2119 89.309C66.6868 88.8624 66.4489 88.1633 66.5923 87.4908C66.7357 86.8166 67.2372 86.2746 67.8989 86.0817Z" fill="white"/>
<path d="M59.7393 93.6955C62.4964 94.119 62.7294 96.3438 60.4026 97.6018C57.6805 97.7918 57.5038 94.9522 59.7393 93.6955Z" fill="white"/>
<path d="M73.0514 109.386C74.0143 109.123 75.0157 109.656 75.3348 110.602C75.6538 111.547 75.1793 112.579 74.2534 112.951C73.6046 113.214 72.8651 113.094 72.3312 112.641C71.7973 112.19 71.5579 111.479 71.7091 110.797C71.8598 110.114 72.3763 109.572 73.0514 109.386Z" fill="white"/>
<path d="M52.5732 98.3175C55.0668 98.4946 54.9347 101.343 52.7476 102.164C49.9763 101.613 50.0445 99.3594 52.5732 98.3175Z" fill="white"/>
<path d="M58.8203 108.787C60.1988 109.003 60.6138 110.457 61.1131 111.589L59.3059 112.674C57.677 113.231 55.7745 110.387 58.8203 108.787Z" fill="white"/>
<path d="M232.095 29.927C232.394 29.0057 233.698 29.0057 233.997 29.9271L236.301 37.0193C236.435 37.4313 236.819 37.7102 237.252 37.7102H244.71C245.678 37.7102 246.081 38.9499 245.297 39.5193L239.264 43.9025C238.914 44.1571 238.767 44.6085 238.901 45.0205L241.206 52.1127C241.505 53.034 240.45 53.8001 239.667 53.2307L233.634 48.8475C233.283 48.5929 232.809 48.5929 232.458 48.8475L226.425 53.2307C225.641 53.8001 224.587 53.034 224.886 52.1127L227.191 45.0205C227.325 44.6085 227.178 44.1571 226.827 43.9025L220.794 39.5193C220.011 38.9499 220.413 37.7102 221.382 37.7102H228.839C229.273 37.7102 229.657 37.4313 229.79 37.0193L232.095 29.927Z" fill="#DD8C61"/>
<path d="M144.095 202.927C144.394 202.006 145.698 202.006 145.997 202.927L148.301 210.019C148.435 210.431 148.819 210.71 149.252 210.71H156.71C157.678 210.71 158.081 211.95 157.297 212.519L151.264 216.902C150.914 217.157 150.767 217.608 150.901 218.021L153.206 225.113C153.505 226.034 152.45 226.8 151.667 226.231L145.634 221.848C145.283 221.593 144.809 221.593 144.458 221.848L138.425 226.231C137.641 226.8 136.587 226.034 136.886 225.113L139.191 218.021C139.325 217.608 139.178 217.157 138.827 216.902L132.794 212.519C132.011 211.95 132.413 210.71 133.382 210.71H140.839C141.273 210.71 141.657 210.431 141.79 210.019L144.095 202.927Z" fill="#DD8C61"/>
<path d="M36.5459 189.585C40.9792 191.09 50.9859 192.445 55.5459 185.822" stroke="#264653" stroke-width="3" stroke-linecap="round"/>
</g>
<defs>
<filter id="filter0_d_52_109" x="0" y="0" width="350.286" height="253.119" filterUnits="userSpaceOnUse" color-interpolation-filters="sRGB">
<feFlood flood-opacity="0" result="BackgroundImageFix"/>
<feColorMatrix in="SourceAlpha" type="matrix" values="0 0 0 0 0 0 0 0 0 0 0 0 0 0 0 0 0 0 127 0" result="hardAlpha"/>
<feOffset dy="4"/>
<feGaussianBlur stdDeviation="4"/>
<feComposite in2="hardAlpha" operator="out"/>
<feColorMatrix type="matrix" values="0 0 0 0 0 0 0 0 0 0 0 0 0 0 0 0 0 0 0.15 0"/>
<feBlend mode="normal" in2="BackgroundImageFix" result="effect1_dropShadow_52_109"/>
<feBlend mode="normal" in="SourceGraphic" in2="effect1_dropShadow_52_109" result="shape"/>
</filter>
</defs>
</svg>
