<svg width="335" height="238" viewBox="0 0 335 238" fill="none" xmlns="http://www.w3.org/2000/svg">
<path d="M329.265 53.1854C317.809 44.8701 281.283 82.7533 255.599 112.209C253.905 108.149 251.834 104.09 249.417 100.049C247.194 96.3354 244.68 92.637 241.902 88.9703C239.712 90.3664 236.999 91.297 233.645 91.6098C232.818 91.6868 231.751 91.753 230.466 91.8102L229.678 84.529C229.665 84.5298 229.649 84.533 229.636 84.5361L227.274 72.2654C232.595 77.6126 237.595 83.2778 241.902 88.9703C253.576 81.1974 250.32 61.4663 249.163 50.2178C247.679 36.8177 266.388 0.0306908 266.388 0.0306908C266.283 -0.588584 242.1 8.28683 216.313 15.5304C198.409 20.5599 179.731 24.8025 167.804 24.5332C159.144 24.2957 150.917 21.7315 140.017 20.2537C125.676 18.3097 106.71 18.2461 76.044 27.838C60.6446 33.5512 37.1919 37.2795 38.5879 84.6281C17.3629 104.563 13.0978 153.139 13.0978 153.139C9.54578 157 -6.619 154.7 3.03071 170.731C15.6145 191.636 21.7597 196.734 56.9116 199.944C68.154 200.971 76.1547 201.328 82.9069 201.294C85.7929 201.282 88.4535 201.195 91.0389 201.06L91.0409 201.06C100.788 200.551 109.498 199.337 125.509 198.588C126.373 198.547 127.256 198.507 128.164 198.47C130.132 198.389 132.043 198.309 133.907 198.234C144.103 197.814 152.827 197.459 161.225 197.072C166.629 196.823 171.896 196.561 177.335 196.26C182.475 195.977 187.765 195.66 193.465 195.285C197.815 195.001 202.4 194.684 207.34 194.326C207.342 194.326 207.342 194.326 207.342 194.326C208.751 194.223 210.186 194.117 211.653 194.008C218.055 193.531 223.717 192.218 228.701 190.237C235.067 187.708 240.331 184.088 244.629 179.723C248.537 175.76 251.645 171.182 254.061 166.25C268.758 174.811 297.612 191.148 304.868 191.811C314.72 192.71 316.189 176.621 324.339 156.593C325.052 154.841 325.626 153.159 326.078 151.53C330.045 137.226 324.485 127.038 319.054 109.449C318.036 106.154 317.023 102.6 316.078 98.7093C309.515 71.6852 347.55 66.457 329.265 53.1854ZM40.7038 82.7764C46.7758 77.541 52.5418 73.3242 58.167 69.9424C52.1385 73.6083 46.5375 77.9334 40.7038 82.7764ZM82.2672 59.9833C78.1556 60.9741 74.3688 62.1867 70.8109 63.6018C70.6045 63.684 70.4004 63.7683 70.1954 63.8519C78.1921 60.5526 86.1459 58.7287 94.5658 57.8191C90.1428 58.3412 86.0666 59.0674 82.2672 59.9833ZM187.14 56.0713C189.483 55.7117 191.738 55.4584 193.943 55.4018C195.072 55.373 196.188 55.3822 197.297 55.4371C194.141 55.3523 190.824 55.6355 187.14 56.0713ZM222.305 67.4431C219.924 65.209 217.697 63.3606 215.569 61.8394C219.211 64.3456 223.061 67.7352 227.272 72.2651C225.66 70.6456 224.005 69.0376 222.305 67.4431Z" fill="#E9C46A"/>
<path d="M256.99 148.162C251.046 148.382 245.103 147.722 238.938 149.043C237.72 149.313 236.585 149.417 235.488 149.457C235.165 149.672 234.841 149.888 234.518 150.108L245.359 161.121C245.359 161.121 295.016 190.911 304.868 191.81C314.719 192.71 316.188 176.62 324.338 156.593C325.052 154.84 325.625 153.158 326.077 151.529C321.353 150.755 316.604 150.079 311.807 149.263C293.094 146.401 275.263 147.721 256.99 148.162Z" fill="#264653"/>
<path d="M319.053 109.448C315.982 110.847 312.959 112.06 309.825 113.157C307.843 114.037 306.522 114.478 305.202 115.138C298.377 117.78 291.773 120.862 284.728 123.504C283.847 123.724 282.747 123.284 282.086 123.724C280.986 124.385 280.105 125.706 278.564 126.146C277.904 126.146 277.243 125.926 276.803 126.146C273.721 129.008 270.199 130.329 266.897 132.31C265.796 132.971 264.255 132.971 263.154 133.411C260.292 134.952 258.091 137.154 255.229 138.475C248.343 141.727 241.955 145.15 235.488 149.457C236.585 149.417 237.72 149.313 238.938 149.042C245.102 147.721 251.046 148.382 256.99 148.162C275.263 147.721 293.094 146.4 311.807 149.262C316.604 150.079 321.353 150.755 326.077 151.529C330.044 137.225 324.484 127.037 319.053 109.448Z" fill="#264653"/>
<path d="M263.154 133.411C264.255 132.971 265.796 132.971 266.897 132.311C270.199 130.329 273.721 129.008 276.803 126.146C277.243 125.926 277.904 126.146 278.564 126.146C280.105 125.706 280.986 124.385 282.086 123.725C282.747 123.284 283.847 123.725 284.728 123.504C291.773 120.863 298.377 117.78 305.202 115.138C306.522 114.478 307.843 114.038 309.825 113.157C312.959 112.06 315.982 110.848 319.053 109.448C318.035 106.153 317.022 102.599 316.077 98.7087C309.514 71.6852 347.549 66.4573 329.264 53.1854C310.979 39.9136 228.83 144.33 228.83 144.33L233.901 149.482C234.425 149.481 234.951 149.477 235.488 149.457C241.955 145.15 248.342 141.727 255.229 138.475C258.091 137.154 260.292 134.952 263.154 133.411Z" fill="#264653"/>
<path d="M127.105 42.2662C128.646 39.6243 130.627 38.3033 131.728 36.1019C132.829 33.9002 134.15 32.5794 135.47 30.8182C137.011 28.6165 137.231 25.7545 138.992 23.7733C139.433 23.3329 138.992 22.4522 139.213 21.7918C139.491 21.2818 139.757 20.7689 140.017 20.254C125.676 18.3099 106.71 18.2464 76.044 27.8383C60.6446 33.5515 37.1919 37.2798 38.5879 84.6284C66.7016 59.5883 87.9964 56.3252 118.392 57.1584C120.543 54.0166 121.86 50.4453 124.243 47.3299C125.344 45.7886 126.224 43.8072 127.105 42.2662Z" fill="#264653"/>
<path d="M206.577 33.68C207.017 32.7994 207.017 31.6985 207.458 30.8179C210.541 25.6791 213.622 20.7347 216.313 15.5304C198.408 20.5599 179.731 24.8026 167.804 24.5332C159.144 24.2957 150.916 21.7315 140.016 20.2537C139.757 20.7687 139.49 21.2815 139.212 21.7916C138.992 22.452 139.433 23.3326 138.992 23.773C137.231 25.7545 137.011 28.6165 135.47 30.8179C134.149 32.5791 132.828 33.9002 131.727 36.1016C130.627 38.3033 128.645 39.624 127.104 42.2659C126.224 43.8069 125.343 45.7883 124.243 47.3296C121.86 50.445 120.543 54.0163 118.392 57.1581C129.468 57.4617 141.753 59.4475 156.017 59.9834C172.398 60.1616 183.69 55.6645 193.943 55.402C195.287 53.8757 196.666 52.55 197.551 50.6321C200.633 44.908 202.615 38.9637 206.577 33.68Z" fill="#264653"/>
<path d="M266.388 0.0306908C266.283 -0.588584 242.099 8.28682 216.313 15.5304C213.621 20.7347 210.541 25.6791 207.458 30.8179C207.018 31.6985 207.018 32.7994 206.577 33.68C202.614 38.9636 200.633 44.908 197.551 50.6321C196.666 52.55 195.287 53.8754 193.943 55.402C204.65 55.128 214.223 58.2302 227.272 72.2651L227.274 72.2654C232.595 77.6129 237.595 83.2775 241.902 88.97C253.576 81.1971 250.32 61.4663 249.163 50.2178C247.678 36.8178 266.388 0.0306908 266.388 0.0306908Z" fill="#264653"/>
<path d="M48.8225 148.71C56.2033 147.52 61.2223 140.572 60.033 133.191C58.8436 125.81 51.8961 120.791 44.5154 121.98C37.1346 123.17 32.1156 130.117 33.3049 137.499C34.4943 144.88 41.4418 149.899 48.8225 148.71Z" fill="white"/>
<path d="M53.2972 135.649C53.6753 131.506 50.3729 127.818 45.9212 127.412C41.4694 127.006 37.554 130.035 37.1759 134.178C36.7977 138.321 40.1001 142.008 44.5519 142.415C49.0037 142.821 52.9191 139.792 53.2972 135.649Z" fill="black"/>
<path d="M51.6373 140.684C51.5189 141.983 50.4537 142.947 49.2583 142.838C48.063 142.728 47.1902 141.587 47.3086 140.289C47.4271 138.991 48.4922 138.026 49.6876 138.136C50.883 138.245 51.756 139.386 51.6373 140.684Z" fill="white"/>
<path d="M91.0412 201.06L91.0388 201.06C89.1544 201.434 87.1429 201.626 85.0563 201.599C84.3276 201.59 83.6082 201.553 82.9019 201.493L82.9068 201.294L83.3616 177.599C83.3728 177.598 83.3837 177.599 83.3949 177.598L83.8488 153.911C83.8555 153.912 83.8621 153.912 83.8687 153.911L83.4194 131.013C83.4061 131.014 83.3906 131.015 83.3771 131.016L80.3085 107.364C80.3467 107.357 80.3872 107.349 80.4258 107.339L77.2542 89.5122L76.4102 84.7615C76.397 84.7627 76.3809 84.7676 76.3674 84.771L70.8105 63.6021C74.3685 62.187 78.1555 60.9744 82.2671 59.9836C88.066 60.4646 92.551 63.1047 93.6535 67.3019C95.216 73.261 89.4137 80.2521 80.4651 83.569C88.8675 82.4572 96.2504 85.152 98.5304 90.0579C98.8093 90.6582 99.0122 91.2935 99.1307 91.9585C100.162 97.7585 94.4364 103.908 85.9375 106.656C94.7509 106.392 101.948 110.251 102.703 116.068C103.506 122.258 96.7331 128.458 87.3062 130.451C96.9326 130.724 104.568 135.644 104.692 141.909C104.806 147.736 98.3864 152.789 89.7607 154.146C98.3703 155.366 104.777 160.302 104.665 166.123C104.552 172.062 97.6921 176.907 88.7841 177.772C97.6389 178.87 104.291 183.881 104.178 189.811C104.075 195.123 98.5767 199.564 91.0412 201.06Z" fill="#2A9D8F"/>
<path d="M241.901 88.9699C239.711 90.366 236.998 91.2967 233.645 91.6095C232.818 91.6865 231.75 91.7527 230.465 91.8099L229.677 84.5286C229.664 84.5295 229.648 84.5327 229.635 84.5358L227.273 72.265C230.675 75.684 233.871 79.1504 236.838 82.6579C237.146 83.0176 237.451 83.3815 237.751 83.7426C239.192 85.4771 240.578 87.2196 241.901 88.9699Z" fill="#2A9D8F"/>
<path d="M235.461 175.995C239.023 176.707 242.177 178.023 244.628 179.722C240.33 184.087 235.066 187.707 228.7 190.236L230.067 175.412C230.078 175.411 230.089 175.412 230.1 175.413L232.221 152.396L232.241 152.398L232.47 148.028L232.853 140.68L233.408 130.079C233.393 130.078 233.379 130.079 233.364 130.079L231.972 106.826C232.01 106.82 232.05 106.817 232.09 106.81L230.465 91.8096C231.75 91.7524 232.817 91.6862 233.644 91.6092C236.998 91.2964 239.711 90.3658 241.901 88.9697C244.679 92.6367 247.193 96.3348 249.416 100.048C246.926 102.982 242.713 105.379 237.633 106.566C246.437 106.986 253.338 111.292 253.681 117.012C254.047 123.098 246.859 128.612 237.321 129.83C239.476 130.056 241.513 130.503 243.375 131.13L243.377 131.131C249.785 133.29 254.091 137.58 253.844 142.313C253.547 147.994 246.792 152.418 238.099 153.079C246.223 154.844 252.099 159.762 252.143 165.132C252.145 165.38 252.136 165.629 252.113 165.876C251.582 171.647 244.404 175.837 235.461 175.995Z" fill="#2A9D8F"/>
<path d="M215.478 185.744C215.131 189.497 211.974 192.584 207.342 194.326C207.342 194.326 207.342 194.326 207.34 194.325C202.4 194.683 197.815 195.001 193.465 195.285L195.587 172.263C195.598 172.262 195.611 172.263 195.622 172.264L197.744 149.248L197.764 149.249L198.928 126.93C198.915 126.929 198.9 126.929 198.886 126.93L197.492 103.676C197.531 103.671 197.571 103.668 197.611 103.661L196.343 91.9606L195.198 81.3794C195.184 81.3803 195.171 81.3834 195.157 81.3869L190.757 58.5438C191.442 58.3501 192.143 58.1796 192.859 58.0327C203.099 55.9236 212.395 59.3612 213.616 65.7115C214.756 71.63 208.479 77.9872 199.325 80.5316C208.816 80.0385 216.689 84.1158 217.341 90.1266C217.41 90.7697 217.393 91.4114 217.298 92.0459C216.545 97.0507 210.846 101.622 203.155 103.417C211.957 103.837 218.859 108.143 219.203 113.863C219.567 119.949 212.379 125.463 202.842 126.681C212.419 127.684 219.684 133.058 219.365 139.164C219.069 144.845 212.312 149.269 203.619 149.929C212.116 151.775 218.156 157.071 217.633 162.727C217.102 168.497 209.924 172.688 200.983 172.846C209.732 174.594 216.009 179.98 215.478 185.744Z" fill="#2A9D8F"/>
<path d="M177.336 196.259C171.897 196.561 166.629 196.822 161.226 197.072L161.928 175.699C161.94 175.697 161.951 175.698 161.962 175.697L162.742 151.921C162.749 151.922 162.756 151.922 162.762 151.921L162.627 128.924C162.614 128.924 162.6 128.928 162.585 128.928L159.842 105.14C159.88 105.133 159.921 105.125 159.959 105.118L157.719 91.3772L156.256 82.394C156.24 82.3968 156.226 82.4023 156.213 82.4035L150.491 59.2364C150.871 59.1007 151.254 58.9702 151.645 58.8489C157.148 58.9115 162.058 58.7186 166.491 58.3983C170.246 59.5903 172.952 61.911 173.737 65.0888C175.22 71.0938 169.32 78.036 160.326 81.2514C169.775 80.1201 177.874 83.7869 178.875 89.9158C178.972 90.5239 178.999 91.132 178.956 91.7403C178.588 96.9837 173.129 102.127 165.48 104.502C174.296 104.351 181.439 108.318 182.114 114.169C182.832 120.396 175.974 126.53 166.52 128.411C176.144 128.812 183.711 133.849 183.749 140.142C183.783 145.993 177.292 150.982 168.649 152.235C177.244 153.569 183.581 158.608 183.388 164.454C183.193 170.414 176.269 175.189 167.349 175.942C176.186 177.16 182.771 182.275 182.575 188.229C182.47 191.374 180.493 194.193 177.336 196.259Z" fill="#2A9D8F"/>
<path d="M133.906 198.234C131.944 198.618 129.842 198.8 127.663 198.745C126.933 198.725 126.215 198.681 125.509 198.61L125.509 198.588L126.297 174.627C126.309 174.626 126.319 174.627 126.331 174.625L127.111 150.849C127.118 150.85 127.124 150.851 127.131 150.849L126.998 127.854C126.982 127.855 126.969 127.856 126.956 127.857L124.211 104.069C124.25 104.061 124.29 104.054 124.328 104.046L122.141 90.6219L120.624 81.3245C120.611 81.3253 120.597 81.3308 120.582 81.3337L114.86 58.1643C115.532 57.9228 116.225 57.7009 116.93 57.5022C117.686 57.2903 118.436 57.1092 119.181 56.9629C123.184 57.0919 127.411 57.332 131.89 57.6922C135.107 58.9633 137.395 61.1397 138.105 64.0187C139.589 70.0214 133.689 76.9639 124.697 80.1793C134.144 79.048 142.245 82.7148 143.244 88.8434C143.366 89.5886 143.377 90.339 143.285 91.0865C142.664 96.183 137.295 101.118 129.851 103.429C138.667 103.279 145.808 107.245 146.483 113.097C147.201 119.324 140.343 125.458 130.891 127.34C140.513 127.739 148.08 132.776 148.117 139.069C148.151 144.922 141.663 149.91 133.018 151.163C141.612 152.498 147.95 157.536 147.759 163.381C147.561 169.341 140.637 174.116 131.717 174.869C140.557 176.088 147.139 181.203 146.943 187.156C146.771 192.431 141.334 196.779 133.906 198.234Z" fill="#2A9D8F"/>
<path d="M77.04 188.049C78.1578 187.818 79.2858 187.579 80.4338 187.35C82.1949 187.13 84.1762 187.57 85.9374 187.35C87.0382 187.13 88.1389 186.469 89.2394 186.029C89.8997 186.029 90.7803 186.249 91.0005 185.809C93.2021 183.167 96.2839 182.286 98.9259 180.965C106.631 177.443 114.776 174.36 122.482 169.297C125.343 167.536 127.765 165.554 131.067 164.453C131.287 164.233 131.507 163.353 131.728 163.133C134.14 161.685 136.354 160.104 138.442 158.392C131.597 153.274 123.861 150.075 115.167 150.075C76.8902 150.075 77.9007 167.549 77.9007 167.549C77.9007 167.549 76.4265 176.777 77.04 188.049Z" fill="#264653"/>
<path d="M138.442 158.392C136.354 160.104 134.14 161.685 131.728 163.133C131.507 163.353 131.287 164.233 131.067 164.453C127.765 165.554 125.343 167.536 122.482 169.297C114.776 174.361 106.631 177.443 98.9259 180.965C96.2842 182.286 93.2021 183.167 91.0005 185.809C90.7803 186.249 89.8997 186.029 89.2394 186.029C88.1386 186.469 87.0379 187.13 85.9374 187.35C84.1763 187.57 82.1949 187.13 80.4338 187.35C79.2858 187.58 78.1578 187.818 77.04 188.049C77.6607 199.449 80.4182 212.938 88.9965 221.087C89.0773 221.069 89.1583 221.052 89.2394 221.034C92.3215 220.153 95.1835 219.053 98.0454 217.731C99.3664 217.291 100.687 217.511 102.008 217.071C120.06 209.145 139.653 207.825 158.586 201.88C161.715 200.907 164.756 199.756 167.737 198.466C160.754 183.956 151.13 167.878 138.442 158.392Z" fill="#264653"/>
<path d="M102.008 217.071C100.687 217.511 99.366 217.291 98.045 217.731C95.1831 219.052 92.3211 220.153 89.239 221.034C89.1582 221.052 89.0772 221.069 88.9961 221.087C90.9041 222.899 93.0985 224.449 95.6232 225.651C120.721 237.601 134.159 239.622 145.393 234.435C156.626 229.248 186.743 241.513 179.952 226.801C177.562 221.625 173.571 210.593 167.736 198.466C164.755 199.757 161.714 200.907 158.585 201.88C139.653 207.824 120.06 209.146 102.008 217.071Z" fill="#264653"/>
<path d="M59.8989 97.0817C60.8623 96.799 61.8768 97.3252 62.2009 98.2753C62.5246 99.2269 62.0424 100.263 61.1072 100.627C60.4646 100.878 59.737 100.756 59.2119 100.309C58.6868 99.8624 58.4489 99.1633 58.5923 98.4908C58.7357 97.8166 59.2372 97.2746 59.8989 97.0817Z" fill="white"/>
<path d="M59.8989 82.0817C60.8623 81.799 61.8768 82.3252 62.2009 83.2753C62.5246 84.2269 62.0424 85.2627 61.1072 85.6274C60.4646 85.8778 59.737 85.7561 59.2119 85.309C58.6868 84.8624 58.4489 84.1633 58.5923 83.4908C58.7357 82.8166 59.2372 82.2746 59.8989 82.0817Z" fill="white"/>
<path d="M51.7393 89.6955C54.4964 90.119 54.7294 92.3438 52.4026 93.6018C49.6805 93.7918 49.5038 90.9522 51.7393 89.6955Z" fill="white"/>
<path d="M65.0514 105.386C66.0143 105.123 67.0157 105.656 67.3348 106.602C67.6538 107.547 67.1793 108.579 66.2534 108.951C65.6046 109.214 64.8651 109.094 64.3312 108.641C63.7973 108.19 63.5579 107.479 63.7091 106.797C63.8598 106.114 64.3763 105.572 65.0514 105.386Z" fill="white"/>
<path d="M44.5732 94.3175C47.0668 94.4946 46.9347 97.3427 44.7476 98.1643C41.9763 97.6129 42.0445 95.3594 44.5732 94.3175Z" fill="white"/>
<path d="M50.8203 104.787C52.1988 105.003 52.6138 106.457 53.1131 107.589L51.3059 108.674C49.677 109.231 47.7745 106.387 50.8203 104.787Z" fill="white"/>
<path d="M224.095 25.927C224.394 25.0057 225.698 25.0057 225.997 25.9271L228.301 33.0193C228.435 33.4313 228.819 33.7102 229.252 33.7102H236.71C237.678 33.7102 238.081 34.9499 237.297 35.5193L231.264 39.9025C230.914 40.1571 230.767 40.6085 230.901 41.0205L233.206 48.1127C233.505 49.034 232.45 49.8001 231.667 49.2307L225.634 44.8475C225.283 44.5929 224.809 44.5929 224.458 44.8475L218.425 49.2307C217.641 49.8001 216.587 49.034 216.886 48.1127L219.191 41.0205C219.325 40.6085 219.178 40.1571 218.827 39.9025L212.794 35.5193C212.011 34.9499 212.413 33.7102 213.382 33.7102H220.839C221.273 33.7102 221.657 33.4313 221.79 33.0193L224.095 25.927Z" fill="#DD8C61"/>
<path d="M136.095 198.927C136.394 198.006 137.698 198.006 137.997 198.927L140.301 206.019C140.435 206.431 140.819 206.71 141.252 206.71H148.71C149.678 206.71 150.081 207.95 149.297 208.519L143.264 212.902C142.914 213.157 142.767 213.608 142.901 214.021L145.206 221.113C145.505 222.034 144.45 222.8 143.667 222.231L137.634 217.848C137.283 217.593 136.809 217.593 136.458 217.848L130.425 222.231C129.641 222.8 128.587 222.034 128.886 221.113L131.191 214.021C131.325 213.608 131.178 213.157 130.827 212.902L124.794 208.519C124.011 207.95 124.413 206.71 125.382 206.71H132.839C133.273 206.71 133.657 206.431 133.79 206.019L136.095 198.927Z" fill="#DD8C61"/>
<path d="M28.5459 185.585C32.9792 187.09 42.9859 188.445 47.5459 181.822" stroke="#264653" stroke-width="3" stroke-linecap="round"/>
</svg>
