<svg width="313" height="253" viewBox="0 0 313 253" fill="none" xmlns="http://www.w3.org/2000/svg">
<g filter="url(#filter0_d_79_18702)">
<path d="M149.127 47.8726C139.512 45.3137 127.284 45.5695 117.46 46.3915C112.614 46.9498 107.846 48.0354 103.232 49.6328C94.765 52.4631 86.7088 56.41 79.2806 61.3649C76.5746 63.3112 74.0158 65.0637 71.5113 67.2814C65.6494 72.5155 60.1908 77.6565 55.3447 83.8909C49.0331 91.963 47.2264 97.9726 42.4035 104.92C38.9763 126.26 38.829 131.742 18.2737 141.35C14.6527 143.04 10.0004 145.498 7.99989 149.073C9.27151 153.725 18.5528 158.308 23.2439 162.371C32.8043 170.661 39.0927 181.617 47.9941 189.666C50.5528 191.729 60.0978 199.088 61.6563 201.329C63.8118 201.895 64.184 201.84 66.0217 203.019C70.1002 205.849 71.7827 206.757 76.1558 208.928C83.3979 212.316 94.6099 216.876 102.565 217.961C105.14 218.357 108.295 218.931 110.846 219.125C122.066 219.334 129.045 218.566 140.101 217.271L149.204 215.108C157.757 212.355 164.487 210.083 172.621 206.26C175.792 204.795 179.824 202.368 182.949 200.615C190.517 195.583 196.929 190.969 203.528 184.719C209.033 179.764 211.561 176.546 215.29 170.149L216.135 168.35C220.563 159.045 221.687 156.168 231.372 152.71C234.512 152.516 234.892 152.516 238.009 152.919L239.001 153.012C238.552 149.057 237.52 148.414 234.853 145.196C240.164 136.876 242.25 133.084 235.869 124.508C231.247 121.887 230.216 120.848 226.712 116.831C225.851 112.969 219.617 100.469 217.616 96.6389C215.081 91.9011 212.041 87.4501 208.568 83.3559C204.916 77.7729 197.518 71.802 192.292 67.3976C189.765 65.4358 187.221 63.885 184.531 62.1713C175.816 56.9372 167.317 53.4245 157.749 50.1523C155.322 49.2373 151.74 48.5084 149.127 47.8726Z" fill="#6B5876"/>
<path d="M55.3445 83.8909C49.0329 91.963 47.2262 97.9725 42.4033 104.92C38.9761 126.26 38.8288 131.742 18.2735 141.35C14.6525 143.04 10.0002 145.498 7.99969 149.073C9.27132 153.725 18.5526 158.308 23.2437 162.371C32.8041 170.661 39.0925 181.617 47.9939 189.666C76.3961 171.475 95.8115 141.195 81.7539 107.425C76.5666 94.9795 67.3319 88.5899 55.3445 83.8909Z" fill="#422D5B"/>
<path d="M240.979 125.128C238.513 123.003 234.806 120.119 233.496 117.071C223.377 93.5294 227.184 63.8541 212.452 41.9018C200.387 23.9276 178.894 10.063 157.679 5.82142C91.8806 -6.55432 53.5535 46.0735 42.4035 104.92C47.2264 97.9726 49.033 91.963 55.3446 83.8909C60.1908 77.6565 65.6494 72.5155 71.5113 67.2814C74.0158 65.0637 76.5746 63.3112 79.2806 61.3649C86.7088 56.41 94.765 52.4631 103.232 49.6328C107.846 48.0354 112.614 46.9498 117.46 46.3915C127.284 45.5695 139.512 45.3137 149.127 47.8726C151.74 48.5084 155.322 49.2373 157.749 50.1523C167.317 53.4245 175.816 56.9372 184.531 62.1713C187.221 63.885 189.765 65.4358 192.292 67.3976C197.518 71.802 204.916 77.7729 208.568 83.3559C212.041 87.4501 215.081 91.9011 217.616 96.6389C219.617 100.469 225.851 112.969 226.711 116.831C230.216 120.848 231.247 121.887 235.869 124.508L240.979 125.128Z" fill="#332048"/>
<ellipse cx="66.4529" cy="125.784" rx="7.79376" ry="7.79418" fill="white"/>
<path d="M157.749 50.1524C158.028 58.2943 157.416 58.7984 153.019 65.5524C168.783 74.02 169.062 89.3888 158.439 102.431C176.126 111.791 182.771 128.85 166.674 143.645C171.721 149.298 173.559 154.036 173.35 161.619C173.055 171.909 168.449 174.08 161.882 179.881C165.061 190.915 166.03 200.391 154.663 206.346C148.801 209.416 148.964 208.967 149.204 215.108C157.757 212.355 164.487 210.083 172.621 206.26C175.792 204.795 179.824 202.368 182.949 200.615C190.517 195.583 196.929 190.969 203.528 184.719C209.033 179.764 211.561 176.546 215.29 170.149L216.135 168.35C220.563 159.045 221.687 156.168 231.372 152.71C234.512 152.516 234.892 152.516 238.009 152.919L239.001 153.012C238.552 149.058 237.52 148.414 234.853 145.196C240.164 136.876 242.25 133.084 235.869 124.508C231.247 121.887 230.216 120.848 226.712 116.831C225.851 112.969 219.617 100.47 217.616 96.639C215.081 91.9012 212.041 87.4503 208.568 83.356C204.916 77.773 197.518 71.8022 192.292 67.3978C189.765 65.436 187.221 63.8851 184.531 62.1715C175.816 56.9374 167.317 53.4247 157.749 50.1524Z" fill="#6B5876"/>
<path d="M192.292 67.3977C191.641 73.6941 191.168 75.1752 187.578 80.3938C195.642 90.1564 197.441 97.3834 187.795 107.03C192.556 110.674 197.348 115.869 197.953 122.166C198.643 129.424 193.905 132.014 191.742 137.845C189.586 143.653 205.893 151.764 192.269 167.125C190.99 168.567 189.012 169.87 189.454 172.033C190.563 177.562 193.944 179.787 190.889 185.851C187.299 192.993 180.91 190.829 182.949 200.615C190.517 195.583 196.929 190.969 203.528 184.719C209.033 179.764 211.561 176.546 215.29 170.149L216.135 168.35C220.563 159.045 221.687 156.168 231.372 152.71C234.512 152.516 234.892 152.516 238.009 152.919L239.001 153.012C238.552 149.057 237.52 148.414 234.853 145.196C240.164 136.876 242.25 133.084 235.869 124.508C231.247 121.887 230.216 120.848 226.712 116.831C225.851 112.969 219.617 100.47 217.616 96.6389C215.081 91.9011 212.041 87.4502 208.568 83.356C204.916 77.7729 197.518 71.8021 192.292 67.3977Z" fill="#6B5876"/>
<path d="M217.616 96.6389C216.143 100.035 215.019 102.61 213.235 105.897C216.073 109.41 218.624 113.597 218.632 118.234C217.376 121.507 211.824 127.671 213.251 130.796C218.903 143.094 220.214 147.879 209.025 157.161C212.685 161.96 214.515 163.984 215.29 170.149L216.135 168.35C220.563 159.045 221.687 156.168 231.372 152.71C234.512 152.516 234.892 152.516 238.009 152.919L239.001 153.012C238.552 149.057 237.52 148.414 234.853 145.196C240.164 136.876 242.25 133.084 235.869 124.508C231.247 121.887 230.216 120.848 226.712 116.831C225.851 112.969 219.617 100.47 217.616 96.6389Z" fill="#6B5876"/>
<path d="M226.712 116.831C226.293 125.33 227.487 126.842 233.256 133.355L229.526 139.341C225.921 145.064 227.231 147.755 231.372 152.71C234.512 152.516 234.892 152.516 238.009 152.919L239.001 153.012C238.552 149.057 237.52 148.414 234.853 145.196C240.164 136.876 242.25 133.084 235.869 124.508C231.247 121.887 230.216 120.848 226.712 116.831Z" fill="#A096A7"/>
<path d="M217.616 96.6391C215.081 91.9013 212.041 87.4504 208.567 83.3561L211.204 92.2347C209.482 97.2672 203.791 104.874 205.947 107.968C213.483 118.808 211.273 116.792 204.877 126.136C203.357 131.688 211.638 139.799 209.552 145.243C207.536 150.515 198.728 155.106 203.543 162.248C210.312 172.289 206.815 173.623 203.527 184.719C209.033 179.764 211.56 176.546 215.29 170.149C214.515 163.985 212.685 161.961 209.025 157.161C220.214 147.879 218.903 143.095 213.251 130.796C211.824 127.671 217.376 121.507 218.632 118.235C218.624 113.598 216.073 109.41 213.235 105.898C215.019 102.61 216.143 100.035 217.616 96.6391Z" fill="#A096A7"/>
<path d="M184.532 62.1714C185.268 73.4228 182.19 71.7014 179.422 80.929C178.577 83.7593 191.905 92.6999 185.602 98.5078C183.19 101.594 179.755 101.462 177.972 106.634C178.709 114.342 185.229 112.613 189.013 118.7C190.424 120.972 191.557 127.105 189.091 129.649C167.117 142.125 197.984 144.832 188.75 160.394C186.268 164.566 181.663 162.519 180.469 170.343C181.771 176.476 186.741 177.771 183.88 183.292C182.337 186.255 175.863 188.62 174.863 191.628C172.436 198.909 177.034 197.963 172.622 206.26C175.793 204.795 179.825 202.368 182.95 200.615C180.911 190.83 187.3 192.993 190.89 185.851C193.945 179.788 190.564 177.562 189.455 172.033C189.013 169.87 190.99 168.567 192.27 167.125C205.893 151.764 189.587 143.653 191.743 137.845C193.906 132.014 198.644 129.424 197.953 122.166C197.349 115.869 192.557 110.674 187.796 107.03C197.442 97.3835 195.643 90.1564 187.579 80.3939C191.169 75.1753 191.642 73.6942 192.293 67.3978C189.765 65.436 187.222 63.8851 184.532 62.1714Z" fill="#A096A7"/>
<path d="M149.126 47.8726C139.512 45.3137 127.284 45.5695 117.46 46.3915C134.317 59.6977 118.786 67.8939 126.834 73.8026C140.202 83.604 143.109 95.91 131.502 108.534C146.684 119.7 147.925 132.556 135.433 146.716C134.766 147.468 139.434 158.967 139.496 162.837C139.69 175.181 131.099 174.778 126.392 182.052C127.509 188.022 129.641 195.521 126.066 200.67C122.787 205.384 114.854 205.089 113.265 207.656C112.939 208.183 112.862 215.372 110.846 219.125C122.066 219.334 129.044 218.566 140.101 217.271L149.204 215.108C148.963 208.967 148.801 209.416 154.662 206.346C166.03 200.39 165.06 190.915 161.881 179.88C168.449 174.08 173.055 171.909 173.349 161.619C173.559 154.036 171.721 149.298 166.673 143.645C182.77 128.85 176.125 111.791 158.439 102.431C169.061 89.3887 168.782 74.0198 153.019 65.5522C157.415 58.7983 158.028 58.2942 157.748 50.1523C155.322 49.2373 151.739 48.5084 149.126 47.8726Z" fill="#6B5876"/>
<path d="M149.126 47.8727C152.988 59.7755 144.381 59.9615 144.924 68.0027C149.235 76.354 158.035 72.6009 158.431 84.6743C158.741 94.4058 149.894 96.1893 151.072 104.928C155.073 111.806 171.186 114.35 168.449 129.486C168.294 135.674 152.507 138.14 157.151 144.715C162.168 151.81 167.154 152.741 166.216 162.279C166.099 171.607 155.182 170.855 153.073 177.655C152.011 181.09 156.632 186.363 156.741 190.69C157.066 204.004 143.954 198.499 140.698 206.191C140.915 212.03 142.466 212.293 140.101 217.271L149.204 215.108C148.963 208.967 148.801 209.416 154.662 206.346C166.03 200.391 165.06 190.915 161.881 179.881C168.449 174.08 173.055 171.909 173.349 161.619C173.559 154.036 171.721 149.298 166.673 143.645C182.77 128.85 176.125 111.791 158.439 102.431C169.061 89.3888 168.782 74.02 153.019 65.5524C157.415 58.7985 158.028 58.2944 157.748 50.1524C155.322 49.2374 151.739 48.5086 149.126 47.8727Z" fill="#A096A7"/>
<path d="M71.5118 67.2816C65.65 72.5157 60.1913 77.6567 55.3452 83.8911C67.3326 88.5902 76.5673 94.9797 81.7546 107.425C95.8122 141.195 76.3968 171.475 47.9946 189.666C50.5533 191.729 60.0983 199.088 61.6568 201.329C63.8123 201.895 64.1845 201.841 66.0222 203.019C64.5179 199.351 63.8976 198.475 66.1462 195.048C72.0546 191.923 85.7789 195.622 90.1365 188.666C93.1915 183.781 86.2053 176.539 84.9957 172.367C82.4292 163.481 99.1231 164.194 101.519 157.525C106.179 147.142 97.1071 142.218 94.37 134.139C91.3771 127.416 101.915 122.779 102.806 119.623C106.148 107.774 95.7348 100.78 86.655 99.0739C78.8392 97.6084 90.6328 80.0218 86.5775 74.997C82.4447 69.8715 77.2962 68.6696 71.5118 67.2816Z" fill="#6B5876"/>
<path d="M117.461 46.3916C112.615 46.9499 107.846 48.0355 103.232 49.6329L108.094 50.7728C113.064 51.9049 120.438 56.573 118.383 62.5437C116.329 68.4912 113.584 70.5227 115.732 76.9975C119.639 81.9214 131.061 77.9048 131.061 94.305C131.728 99.7252 118.376 106.479 123.323 111.589C129.952 118.436 137.589 120.476 136.512 131.75C135.667 140.598 127.983 137.845 124.206 142.373C122.066 150.763 133.976 153.105 131.976 164.271C129.541 177.833 117.616 169.529 114.243 178.306C115.026 184.649 125.602 188.767 119.128 197.041C115.716 201.399 104.116 196.009 103.93 203.492C103.744 210.983 107.691 210.471 102.566 217.962C105.14 218.357 108.296 218.931 110.847 219.125C112.863 215.372 112.94 208.183 113.266 207.656C114.855 205.09 122.787 205.384 126.067 200.67C129.642 195.521 127.51 188.023 126.393 182.052C131.1 174.778 139.691 175.182 139.497 162.837C139.435 158.967 134.767 147.468 135.434 146.716C147.925 132.557 146.685 119.7 131.503 108.534C143.11 95.9101 140.203 83.6041 126.835 73.8028C118.787 67.894 134.317 59.6978 117.461 46.3916Z" fill="#A096A7"/>
<path d="M79.2811 61.3651C76.575 63.3114 74.0162 65.0639 71.5117 67.2816C77.2961 68.6696 82.4446 69.8715 86.5774 74.997C90.6327 80.0217 78.8391 97.6084 86.6549 99.0739C95.7346 100.78 106.148 107.774 102.806 119.623C101.914 122.779 91.377 127.416 94.3699 134.138C97.107 142.218 106.179 147.142 101.519 157.525C99.123 164.194 82.4291 163.481 84.9956 172.367C86.2052 176.539 93.1914 183.781 90.1364 188.666C85.7788 195.622 72.0545 191.923 66.1461 195.048C63.8975 198.475 64.5178 199.351 66.0221 203.019C70.1006 205.85 71.7831 206.757 76.1563 208.928C76.4276 206.617 75.7841 204.57 75.2878 202.267C77.1255 200.67 86.6549 199.158 90.5241 197.111C101.79 191.171 99.5573 181.3 93.517 171.242C97.3397 169.94 100.589 168.924 103.698 166.21C107.381 163.038 109.606 158.502 109.839 153.648C110.358 144.731 106.28 138.24 100.658 131.998C110.273 124.422 113.941 117.009 107.831 104.595C104.295 97.4145 99.2626 94.6152 91.8732 92.3665C98.8439 75.819 95.0135 69.0961 79.2811 61.3651Z" fill="#A096A7"/>
<path d="M238.009 152.919C234.892 152.516 234.512 152.516 231.372 152.71C221.687 156.168 220.563 159.045 216.135 168.35L215.29 170.149C211.561 176.546 209.033 179.764 203.528 184.719C196.929 190.969 190.517 195.583 182.949 200.615C179.824 202.368 175.792 204.795 172.621 206.26C164.487 210.083 157.757 212.355 149.204 215.108L140.101 217.271C129.045 218.566 122.066 219.334 110.846 219.125C108.295 218.931 105.14 218.357 102.565 217.961C94.61 216.876 83.3979 212.316 76.1559 208.928C71.7827 206.756 70.1002 205.849 66.0217 203.019C64.1841 201.84 63.8119 201.895 61.6563 201.329C63.5172 205.012 65.7425 208.501 68.2858 211.75C75.9465 221.482 87.1276 228.794 99.6577 229.833C108.799 230.593 105.178 226.305 107.861 223.948C134.286 236.005 171.714 249.017 199.969 234.765C211.848 228.538 222.687 219.28 223.951 205.051C225.572 186.774 217.035 163.147 238.009 152.919Z" fill="#332048"/>
<path d="M263.612 167.032C268.071 173.041 291.541 201.833 299.784 193.156C301.358 187.883 295.883 175.569 294.511 169.87C293.1 164.333 291.208 157.828 290.851 152.097C289.44 129.688 298.628 108.1 304.731 86.9463C305.157 85.4807 305.072 84.8759 304.513 83.5732L302.947 82.9994C290.378 85.1396 268.04 112.558 256.316 120.84L255.246 121.584C249.81 123.577 246.81 124.926 240.979 125.128L235.869 124.508C242.25 133.084 240.165 136.876 234.853 145.196C237.521 148.414 238.552 149.058 239.002 153.012C248.438 151.368 257.378 161.177 263.612 167.032Z" fill="#332048"/>
<path d="M255.245 121.584C249.81 123.577 246.809 124.926 240.978 125.128L235.868 124.508C242.25 133.084 240.164 136.876 234.852 145.196C237.52 148.414 238.551 149.057 239.001 153.012C248.437 151.368 257.377 161.177 263.611 167.032C253.857 147.677 231.751 143.94 255.245 121.584Z" fill="#6B5876"/>
<path d="M56.5531 91.6846C59.0774 92.159 59.7432 92.4416 60.7674 94.7905C60.0224 97.4778 59.1335 97.8187 57.0022 99.4788C54.3376 98.7232 54.139 98.745 52.9736 96.7316C53.4624 94.1289 54.6407 93.4619 56.5531 91.6846Z" fill="#F6CECE"/>
<path d="M64.3635 97.6342C67.1625 97.5055 67.6863 97.3044 70.0758 98.3855C70.7843 100.606 70.6132 99.833 69.6536 102.402C67.2209 102.326 66.8522 102.262 64.5571 101.536C63.3207 99.4931 63.547 100.408 64.3635 97.6342Z" fill="#F6CECE"/>
<path d="M52.0628 102.402C53.9646 103.296 54.3172 103.615 55.8967 104.843C55.7927 107.262 55.3647 106.864 53.0878 109.221C50.9607 108.756 50.7952 108.867 49.0771 107.496C49.1187 105.024 50.1238 104.694 52.0628 102.402Z" fill="#F6CECE"/>
<path d="M63.4583 111.885C69.9702 110.699 76.4224 114.235 78.9264 120.361C80.5086 124.233 80.2768 128.609 78.2954 132.291C76.3134 135.974 72.7893 138.578 68.6867 139.39C63.2613 140.464 57.7111 138.244 54.5244 133.724C51.7717 129.819 51.1998 124.779 53.0092 120.357C54.8179 115.935 58.7576 112.741 63.4583 111.885ZM65.6556 134.615C92.3941 128.573 54.7312 102.621 61.7664 131.675C63.4353 132.46 64.9046 132.903 65.6556 134.615Z" fill="#232323"/>
<path d="M61.577 131.448L60.4328 133.292C53.1331 134.873 52.103 116.317 63.8126 114.828C81.899 112.529 79.3959 134.12 67.9675 136.657C66.7071 136.311 65.6673 135.873 65.4416 134.369C64.6953 132.668 63.2353 132.227 61.577 131.448ZM65.4416 134.369C92.0104 128.366 54.5865 102.578 61.577 131.448C63.2353 132.227 64.6953 132.668 65.4416 134.369Z" fill="#F2EAEE"/>
<path d="M60.9522 130.797C53.1911 102.53 94.7399 127.779 65.2426 133.657C64.4141 131.992 62.7932 131.56 60.9522 130.797ZM72.6054 129.055C74.0032 127.993 74.1944 126.144 73.0378 124.876C71.8811 123.608 69.7931 123.376 68.3164 124.352C67.3147 125.014 66.8027 126.105 66.9801 127.197C67.1576 128.289 67.997 129.209 69.1681 129.596C70.3399 129.983 71.6573 129.776 72.6054 129.055Z" fill="#232323"/>
</g>
<defs>
<filter id="filter0_d_79_18702" x="0" y="0" width="313" height="253" filterUnits="userSpaceOnUse" color-interpolation-filters="sRGB">
<feFlood flood-opacity="0" result="BackgroundImageFix"/>
<feColorMatrix in="SourceAlpha" type="matrix" values="0 0 0 0 0 0 0 0 0 0 0 0 0 0 0 0 0 0 127 0" result="hardAlpha"/>
<feOffset dy="4"/>
<feGaussianBlur stdDeviation="4"/>
<feComposite in2="hardAlpha" operator="out"/>
<feColorMatrix type="matrix" values="0 0 0 0 0 0 0 0 0 0 0 0 0 0 0 0 0 0 0.15 0"/>
<feBlend mode="normal" in2="BackgroundImageFix" result="effect1_dropShadow_79_18702"/>
<feBlend mode="normal" in="SourceGraphic" in2="effect1_dropShadow_79_18702" result="shape"/>
</filter>
</defs>
</svg>
