<svg width="402" height="178" viewBox="0 0 402 178" fill="none" xmlns="http://www.w3.org/2000/svg">
<g filter="url(#filter0_d_50_34756)">
<circle cx="91.207" cy="91.0273" r="8" fill="white"/>
<path d="M158.626 4.24801C163.505 4.21188 170.892 3.90328 175.49 4.7441L196.29 5.36911L204.77 6.60834C210.624 7.18158 217.374 7.6767 223.103 8.66302C241.199 11.4618 259.145 14.9306 274.902 24.8094C280.417 27.9305 293.51 35.5613 298.158 39.5203C312.947 49.1355 325.196 58.7848 338.88 69.7652C353.612 55.1979 368.257 40.5417 382.814 25.7987C386.476 39.8425 389.547 55.9899 381.677 69.3209C380.467 71.3717 379.106 73.3297 377.605 75.1793C393.74 89.3618 395.101 101.69 393.324 122.644C376.104 113.671 358.356 104.124 340.991 95.5639C307.211 124.48 269.423 142.17 224.969 145.348L219.318 145.925C215.521 146.239 210.762 146.756 207.031 146.756L201.765 146.985C194.129 147.732 175.459 147.331 170.526 148.159C165.598 158.507 148.928 161.613 138.664 164.756C126.278 168.548 125.161 153.621 123.813 145.132C87.4307 140.261 24.2158 124.194 8 87.1401C37.9687 21.6776 59.5312 6.46385 132.499 4.97656L137.74 4.49609C143.164 4.36816 150.895 4.43457 156.119 4L158.626 4.24801ZM82.3105 102.059C122.084 93.0717 66.0605 54.4655 76.5254 97.686C79.0078 98.853 81.1934 99.5131 82.3105 102.059Z" fill="#6B5876"/>
<path d="M123.813 145.132C121.459 112.317 118.956 102.602 151.803 129.353C158.081 134.465 164.864 143.761 170.526 148.159C165.597 158.507 148.927 161.613 138.664 164.756C126.278 168.548 125.161 153.621 123.813 145.132Z" fill="#251537"/>
<path d="M133.677 120.464C139.339 122.589 149.722 132.5 152.303 138.255C153.365 140.625 152.6 141.13 151.646 143.522C149.329 144.825 148.447 145.09 145.905 145.953C137.273 144.202 134.564 127.947 133.677 120.464Z" fill="#A096A7"/>
<path d="M204.769 6.60828C210.624 7.18152 217.374 7.67663 223.102 8.66296C228.792 21.657 230.993 35.4529 226.642 49.0592C223.994 57.3385 217.091 74.2026 206.396 71.0679C199.256 63.7994 207.18 47.818 207.087 39.1442C206.97 28.4441 205.711 17.285 204.769 6.60828Z" fill="#A096A7"/>
<path d="M137.74 4.49609C143.164 4.36816 150.895 4.43457 156.119 4C161.942 19.7157 163.553 31.8348 157.303 48.4167C151.78 53.4421 144.158 60.2174 136.861 55.0046L135.331 51.613L133.674 51.1042C135.81 34.284 135.263 21.4872 132.499 4.97656L137.74 4.49609Z" fill="#F6CECE"/>
<path d="M132.499 4.97656L137.74 4.49609C136.498 6.63475 138.076 12.7499 138.257 15.789C138.999 28.2381 138.175 39.4344 135.331 51.613L133.674 51.1042C135.81 34.284 135.263 21.4872 132.499 4.97656Z" fill="#A096A7"/>
<path d="M156.119 4L158.626 4.24801C165.332 20.6014 168.598 39.8582 161.725 56.776C158.625 64.4068 152.595 70.4772 144.984 73.6305C126.801 80.9966 131.966 60.1745 133.674 51.1042L135.331 51.613L136.861 55.0046C144.158 60.2175 151.78 53.4421 157.303 48.4167C163.553 31.8348 161.942 19.7157 156.119 4Z" fill="#A096A7"/>
<path d="M274.902 24.8093C280.417 27.9304 293.51 35.5612 298.158 39.5202C299.044 49.4703 299.872 69.3276 286.691 71.7046C277.302 66.2808 280.904 48.9342 278.875 38.737C277.604 32.3533 277.291 31.1911 274.902 24.8093Z" fill="#251537"/>
<path d="M201.765 146.985C205.301 141.49 222.236 110.181 229.571 115.473C241.104 123.793 231.333 137.179 224.969 145.348L219.318 145.925C215.521 146.239 210.762 146.756 207.031 146.756L201.765 146.985Z" fill="#A096A7"/>
<path d="M207.031 146.756C208.695 139.928 218.645 120.47 228.177 125.843C232.693 133.402 224.806 141.432 219.318 145.925C215.521 146.239 210.762 146.756 207.031 146.756Z" fill="#F6CECE"/>
<path d="M175.49 4.74414L196.29 5.36915C196.55 13.1416 196.548 27.0077 187.598 30.3602C177.076 30.1522 176.495 12.5263 175.49 4.74414Z" fill="#A096A7"/>
<path d="M182.024 50.1754C214.846 48.607 199.263 99.4534 184.03 113.757C163.022 122.412 168.35 94.2093 171.409 83.68C174.057 74.56 174.662 55.3316 182.024 50.1754Z" fill="#251537"/>
<path d="M79.0418 68.2467C88.7283 66.4821 98.3259 71.7428 102.051 80.856C104.404 86.6148 104.059 93.1245 101.112 98.602C98.1638 104.08 92.9217 107.954 86.8191 109.162C78.7488 110.761 70.4929 107.457 65.7527 100.734C61.658 94.9243 60.8074 87.4283 63.4988 80.8502C66.1892 74.2721 72.0496 69.5201 79.0418 68.2467ZM82.3103 102.059C122.084 93.0717 66.0603 54.4655 76.5252 97.686C79.0076 98.853 81.1931 99.5131 82.3103 102.059Z" fill="#251537"/>
<path d="M76.5254 97.686L74.8126 100.447C63.8848 102.814 62.3428 75.0337 79.8721 72.8052C106.947 69.3629 103.2 101.687 86.0918 105.485C84.2051 104.966 82.6485 104.311 82.3106 102.059C81.1934 99.5131 79.0078 98.853 76.5254 97.686ZM82.3106 102.059C122.084 93.0717 66.0606 54.4655 76.5254 97.686C79.0078 98.853 81.1934 99.5131 82.3106 102.059Z" fill="#F2EAEE"/>
<path d="M76.5259 97.686C66.0611 54.4656 122.085 93.0718 82.3111 102.059C81.1939 99.5131 79.0083 98.853 76.5259 97.686ZM92.2388 95.023C94.1236 93.3989 94.3814 90.5718 92.8218 88.6324C91.2623 86.6939 88.4469 86.3394 86.4556 87.8316C85.1051 88.8433 84.4146 90.5112 84.6539 92.1811C84.8931 93.8511 86.0249 95.2573 87.604 95.8491C89.1841 96.4418 90.9605 96.1245 92.2388 95.023Z" fill="#232323"/>
<path d="M244.602 62.6792C245.613 55.0552 245.924 50.0338 244.926 42.3708C244.485 38.9802 243.434 33.5007 245.374 31.0876C251.402 29.2263 256.904 32.5739 260.652 37.2145C266.639 44.6305 266.989 53.7798 266.11 62.9106C263.736 73.3139 253.732 94.9554 243.3 98.8685C234.156 96.4642 242.833 70.0288 244.602 62.6792Z" fill="#A096A7"/>
<path d="M248.747 43.4685C248.082 39.8025 247.453 39.7117 248.753 36.6277C258.838 32.8455 264.071 47.9236 264.295 56.2751C263.091 63.5485 257.564 79.2672 249.99 81.7887C244.087 77.9762 251.344 54.0358 248.747 43.4685Z" fill="#F6CECE"/>
<path d="M268.085 94.2348C269.453 90.5337 270.219 87.4575 273.25 84.8901C287.492 80.5327 286.728 105.283 279.027 115.542C273.769 121.405 265.104 130.572 256.696 125.141C253.373 116.523 265.33 103.215 268.085 94.2348Z" fill="#A096A7"/>
<path d="M269.313 95.8189C271.538 91.7915 270.547 92.2573 274.123 90.1978C283.236 92.3579 281.657 105.852 278.038 112.403C274.305 116.753 265.813 126.621 260.161 120.103C259.357 112.665 266.983 103.66 269.313 95.8189Z" fill="#F6CECE"/>
<path d="M220.81 75.0952C239.061 77.0317 229.001 96.8509 221.507 105.085C205.358 107.714 213.009 82.5024 220.81 75.0952Z" fill="#A096A7"/>
<path d="M345.474 93.3978C353.731 91.8685 371.847 98.7445 378.918 103.324C384.498 106.937 383.887 106.142 385.353 111.852C384.591 111.412 376.041 105.178 374.694 104.091C365.495 96.6644 354.618 97.6273 345.474 93.3978Z" fill="#A096A7"/>
<path d="M376.893 60.3844L378.313 61.1627L378.173 63.0807C370.743 72.7652 355.98 79.1206 344.32 82.0669L343.076 81.3853C345.398 78.8394 355.307 77.4107 359.518 74.9439C367.215 70.4351 371.06 66.6598 376.893 60.3844Z" fill="#A096A7"/>
<path d="M346.78 87.7387C353.922 85.8539 379.835 91.0541 385.535 95.9955C384.955 96.0668 346.685 87.6508 346.78 87.7387Z" fill="#A096A7"/>
<path d="M356.876 65.1881C367.637 57.0046 370.727 49.1911 376.701 44.6609L376.757 44.6892L375.895 45.1267C377.432 51.0241 362.485 63.6872 357.87 67.2047L356.876 65.1881Z" fill="#A096A7"/>
<path d="M65.6114 20.3016C69.0362 20.8983 69.9395 21.2538 71.3291 24.2079C70.3184 27.5877 69.1123 28.0164 66.2207 30.1043C62.6055 29.1541 62.3359 29.1815 60.7549 26.6493C61.418 23.3758 63.0166 22.537 65.6114 20.3016Z" fill="#F6CECE"/>
<path d="M356.876 65.188L357.87 67.2046C354.002 70.145 345.807 74.6577 340.82 75.3901C344.156 72.06 352.482 67.7417 356.876 65.188Z" fill="#A096A7"/>
<path d="M79.277 30.2644C82.695 30.0887 83.3347 29.8143 86.2526 31.2899C87.1179 34.3211 86.9089 33.2654 85.737 36.7713C82.7663 36.6687 82.3161 36.5808 79.5134 35.5896C78.0036 32.8015 78.28 34.0505 79.277 30.2644Z" fill="#F6CECE"/>
<path d="M50.8017 40.6501C52.9453 41.7097 53.3428 42.0877 55.1231 43.5427C55.0059 46.4089 54.5235 45.9382 51.9571 48.7312C49.5596 48.1794 49.373 48.3112 47.4365 46.6872C47.4834 43.7576 48.6162 43.3669 50.8017 40.6501Z" fill="#F6CECE"/>
<path d="M94.5004 113C94.5004 113 102.131 123.194 99.4159 127.083C96.7009 130.972 92.299 130.972 89.5841 127.083C86.8691 123.194 94.5004 113 94.5004 113Z" fill="#9ED7F1"/>
</g>
<defs>
<filter id="filter0_d_50_34756" x="0" y="0" width="401.921" height="177.361" filterUnits="userSpaceOnUse" color-interpolation-filters="sRGB">
<feFlood flood-opacity="0" result="BackgroundImageFix"/>
<feColorMatrix in="SourceAlpha" type="matrix" values="0 0 0 0 0 0 0 0 0 0 0 0 0 0 0 0 0 0 127 0" result="hardAlpha"/>
<feOffset dy="4"/>
<feGaussianBlur stdDeviation="4"/>
<feComposite in2="hardAlpha" operator="out"/>
<feColorMatrix type="matrix" values="0 0 0 0 0 0 0 0 0 0 0 0 0 0 0 0 0 0 0.15 0"/>
<feBlend mode="normal" in2="BackgroundImageFix" result="effect1_dropShadow_50_34756"/>
<feBlend mode="normal" in="SourceGraphic" in2="effect1_dropShadow_50_34756" result="shape"/>
</filter>
</defs>
</svg>
