<svg width="492" height="182" viewBox="0 0 492 182" fill="none" xmlns="http://www.w3.org/2000/svg">
<g filter="url(#filter0_d_50_35125)">
<path d="M139.485 32.4939C142.854 25.4788 153.675 5.63677 159.675 5.08164C186.617 2.59046 215.626 4.80085 242.548 7.68422C250.739 8.56156 262.247 13.0597 263.189 25.905C263.555 29.6501 262.914 32.7286 263.097 35.7842L264.668 36.5786L268.351 36.8861C270.32 37.0307 273.114 37.1264 275.005 37.4035C278.302 37.8196 283.601 38.7228 286.761 38.7605C290.929 39.2328 294.802 39.694 298.963 40.4526C301.619 40.7021 305.381 40.842 307.795 41.9873L309.987 42.3003C309.509 48.0173 310.648 50.862 310.268 56.0138L322.902 84.1588C324.197 88.9193 324.531 89.8031 327.226 93.5656C333.677 108.667 342.058 124.988 351.178 137.164C335.43 142.753 314.724 147.347 298.472 147.648L297.635 148.76C300.52 154.251 305.61 158.16 305.113 163.336C301.305 168.84 292.578 169.488 287.455 169.56C275.234 169.731 267.298 166.077 261.279 151.005C257.778 152.928 248.894 153.162 244.792 153.349C241.835 153.817 240.232 154.007 237.255 153.964L231.753 154.294C225.786 155.41 218.563 155.784 212.557 155.667L204.445 155.876L199.355 155.902L196.07 155.954C188.743 157.215 162.894 156.779 155.187 155.936C147.938 155.945 140.329 155.382 133.073 154.818L127.545 153.94L123.247 153.847L121.919 153.431C95.5003 148.871 71.5419 135.038 46.105 123.725C36.0428 118.241 12.7059 119.482 8.04118 103.335C7.02057 95.3949 25.2805 92.3182 28.2835 91.5927C44.5021 87.6654 50.9137 78.3442 63.135 64.5202C80.3481 45.0474 107.578 33.1871 129.756 33.5093C132.916 32.9892 136.299 32.7747 139.485 32.4939ZM85.3987 111.106C92.7917 109.368 97.7966 99.545 96.5928 89.1347C95.3825 78.7244 88.4214 71.6467 81.0219 73.3029C73.5766 74.9683 68.5128 84.8299 69.7231 95.2982C70.94 105.767 77.9666 112.853 85.3987 111.106Z" fill="#FFC544"/>
<path d="M121.919 153.431C95.5003 148.871 71.5419 135.038 46.105 123.725C36.0428 118.241 12.7059 119.482 8.04118 103.335C7.02057 95.3949 25.2805 92.3182 28.2835 91.5927C44.5021 87.6654 50.9137 78.3442 63.1349 64.5202C80.348 45.0474 107.578 33.1871 129.756 33.5093C130.149 34.5892 150.587 72.3279 150.986 72.8591C151.464 75.7002 152.589 78.2438 154.186 80.1035C160.48 98.9125 180.761 140.921 190.143 155.891L196.07 155.954C188.743 157.215 162.894 156.779 155.187 155.936C147.938 155.945 140.329 155.382 133.073 154.818L127.545 153.94L123.247 153.847L121.919 153.431ZM92.1937 108.641C69.7231 123.725 64.3387 105.709 63.1349 95.2982C61.9246 84.8879 79.9645 61.5056 87.4902 72.8591C80.0449 74.5245 68.5128 84.8299 69.7231 95.2982C70.94 105.767 84.7615 110.389 92.1937 108.641Z" fill="#FF8C42"/>
<path d="M133.073 154.818C133.839 147.177 134.532 142.182 139.236 137.155C142.449 133.766 146.492 132.312 150.47 133.114C154.31 133.833 157.777 136.702 160.093 141.07C162.481 145.598 163.149 150.09 163.129 155.628C160.584 155.611 157.758 155.818 155.187 155.936C147.938 155.945 140.329 155.382 133.073 154.818Z" fill="#FF8C42"/>
<path d="M127.545 153.94C128.121 144.557 129.776 137.335 135.193 131.047C139.472 126.173 144.98 123.97 150.437 124.951C155.965 125.824 161.009 129.815 164.405 136.011C168.121 142.791 168.402 147.266 169.083 155.571L163.129 155.628C163.149 150.09 162.481 145.598 160.093 141.07C157.777 136.702 154.31 133.833 150.47 133.114C146.492 132.312 142.449 133.766 139.236 137.155C134.532 142.182 133.839 147.177 133.073 154.818L127.545 153.94Z" fill="#4ECDC4"/>
<path d="M123.246 153.847C123.403 143.259 124.509 135.509 130.168 127.721C134.846 121.323 141.153 117.829 147.676 118.021C161.186 118.364 170.862 132.926 171.137 151.686C171.15 152.66 170.895 153.774 170.698 154.687C169.894 155.264 169.933 155.401 169.082 155.571C168.402 147.266 168.121 142.791 164.404 136.011C161.009 129.815 155.965 125.824 150.436 124.951C144.98 123.97 139.471 126.173 135.193 131.047C129.775 137.335 128.12 144.557 127.545 153.94L123.246 153.847Z" fill="#07756D"/>
<path d="M121.919 153.431C122.148 142.512 123.731 133.828 129.574 125.95C134.565 119.332 141.232 115.821 148.082 116.213C154.821 116.509 161.186 120.583 165.773 127.527C171.02 135.55 172.485 144.351 172.145 154.923L172.106 155.813L190.143 155.891L196.071 155.954C188.743 157.215 162.894 156.779 155.187 155.936C157.758 155.818 160.585 155.611 163.13 155.628L169.083 155.571C169.934 155.401 169.894 155.264 170.699 154.687C170.895 153.774 171.151 152.66 171.138 151.686C170.863 132.927 161.187 118.364 147.676 118.021C141.154 117.829 134.847 121.323 130.169 127.721C124.51 135.509 123.404 143.259 123.247 153.847L121.919 153.431Z" fill="#4ECDC4"/>
<path d="M221.645 33.2607C231.785 33.4862 255.416 36.6283 263.097 35.7841L264.667 36.5786L268.351 36.886C270.32 37.0306 273.114 37.1263 275.005 37.4034C278.302 37.8196 283.601 38.7227 286.761 38.7604C290.929 39.2327 294.802 39.6939 298.963 40.4525C301.619 40.702 305.381 40.8419 307.795 41.9872L309.987 42.3002C309.509 48.0172 310.648 50.8619 310.268 56.0137L322.902 84.1587C324.197 88.9192 324.531 89.803 327.226 93.5655C333.677 108.667 342.058 124.988 351.178 137.164C335.43 142.753 314.724 147.347 298.472 147.648L297.635 148.76C300.52 154.251 305.61 158.16 305.113 163.336C301.305 168.84 292.577 169.488 287.455 169.56C275.234 169.731 267.298 166.077 261.279 151.005L262.201 148.462C249.293 125.827 239.95 106.099 232.963 78.4003C229.162 63.3335 226.133 47.9325 221.645 33.2607Z" fill="#FF8C42"/>
<path d="M262.202 148.462C270.975 139.67 280.207 139.839 290.223 143.964C293.337 145.245 295.162 147.261 298.473 147.648L297.635 148.76C300.521 154.251 305.611 158.16 305.114 163.336C301.306 168.84 292.578 169.488 287.456 169.56C275.234 169.731 267.298 166.077 261.279 151.005L262.202 148.462Z" fill="#07756D"/>
<path d="M275.005 37.4035C278.302 37.8196 283.602 38.7227 286.762 38.7605C290.929 39.2327 294.802 39.694 298.963 40.4525C300.265 43.9822 300.795 47.8663 301.482 51.7374C295.738 86.5661 261.809 71.5574 275.005 37.4035Z" fill="#8B6E7D"/>
<path d="M268.351 36.8861C270.321 37.0306 273.114 37.1264 275.005 37.4035C261.809 71.5574 295.738 86.5662 301.482 51.7374C300.795 47.8663 300.265 43.9822 298.963 40.4525C301.62 40.702 305.382 40.842 307.796 41.9872L309.065 50.5765L307.933 50.7515C306.801 52.543 306.618 56.0247 306.062 58.6954C300.501 85.4384 275.358 86.6702 267.285 62.539C264.491 54.1992 265.891 45.4496 268.351 36.8861Z" fill="white"/>
<path d="M264.668 36.5786L268.352 36.886C265.892 45.4496 264.492 54.1991 267.285 62.539C275.358 86.6701 300.501 85.4384 306.062 58.6954C306.618 56.0247 306.801 52.5429 307.933 50.7514L309.065 50.5765C309.202 56.9554 308.123 63.269 305.931 68.8562C303.026 76.2469 298.29 81.2818 292.539 83.599C286.082 86.2872 279.127 85.222 273.232 80.6438C261.436 71.4146 258.054 52.9719 264.668 36.5786Z" fill="#FF8C42"/>
<path d="M263.098 35.7841L264.668 36.5786C258.053 52.972 261.436 71.4147 273.232 80.6438C279.127 85.222 286.081 86.2872 292.538 83.599C298.289 81.2818 303.026 76.247 305.931 68.8563C308.123 63.269 309.202 56.9555 309.065 50.5765L307.795 41.9872L309.987 42.3002C309.51 48.0172 310.648 50.8619 310.269 56.0137C308.862 68.1419 304.642 77.8985 296.601 83.4075C290.314 87.6561 283.085 88.203 276.51 84.9284C270.268 81.8517 265.165 75.3825 262.345 66.969C258.59 55.5893 260.199 46.7652 263.098 35.7841Z" fill="#4ECDC4"/>
<path d="M310.687 109.077C314.619 107.173 318.976 108.391 322.097 112.264C325.217 116.138 326.611 122.071 325.76 127.8C324.903 133.528 321.926 138.167 317.968 139.95C311.93 142.663 305.472 138.037 303.477 129.577C301.481 121.118 304.7 111.975 310.687 109.077Z" fill="#4ECDC4"/>
<path d="M311.164 110.975C314.58 109.504 318.289 110.734 320.873 114.195C323.458 117.654 324.518 122.807 323.641 127.674C322.771 132.542 320.095 136.368 316.654 137.684C311.446 139.676 306.068 135.422 304.57 128.129C303.071 120.836 306.009 113.2 311.164 110.975Z" fill="#07756D"/>
<path d="M311.786 114.627C314.292 113.428 317.06 114.243 319.009 116.752C320.959 119.261 321.783 123.067 321.162 126.68C320.54 130.294 318.564 133.145 316.013 134.115C312.238 135.551 308.338 132.512 307.194 127.25C306.055 121.987 308.09 116.4 311.786 114.627Z" fill="#07756D"/>
<path d="M139.485 32.4939C142.855 25.4788 153.676 5.63677 159.675 5.08164C186.617 2.59046 215.626 4.80085 242.548 7.68422C250.739 8.56156 262.247 13.0597 263.189 25.905C263.556 29.6501 262.915 32.7286 263.098 35.7842C255.417 36.6284 231.786 33.4863 221.645 33.2608C199.427 30.3617 161.533 31.4784 139.485 32.4939Z" fill="#07756D"/>
<path d="M212.557 155.667C203.666 145.189 201.703 127.126 214.514 118.761C218.059 116.445 223.961 117.284 227.409 119.853C233.801 124.624 237.373 136.089 234.043 145.738C233.068 148.611 231.485 150.51 230.34 153.489L231.753 154.294C225.786 155.41 218.563 155.784 212.557 155.667Z" fill="#8B6E7D"/>
<path d="M204.445 155.876C196.515 138.859 198.517 119.463 212.937 111.853C218.387 109.015 224.419 109.411 229.652 112.951C242.063 121.186 242.62 138.255 237.255 153.964L231.753 154.294L230.339 153.489C231.484 150.51 233.068 148.611 234.043 145.738C237.373 136.089 233.8 124.624 227.408 119.853C223.961 117.284 218.059 116.445 214.513 118.761C201.703 127.126 203.666 145.189 212.557 155.667L204.445 155.876Z" fill="#4ECDC4"/>
<path d="M199.355 155.902C182.816 112.361 226.898 82.4528 243.503 122.792C247.396 132.245 246.114 142.157 243.85 152.086L244.792 153.349C241.835 153.817 240.232 154.007 237.255 153.964C242.62 138.255 242.064 121.186 229.653 112.951C224.419 109.411 218.387 109.015 212.937 111.853C198.517 119.463 196.515 138.859 204.445 155.876L199.355 155.902Z" fill="#07756D"/>
<path d="M150.987 72.8591C149.907 66.4664 152.282 59.919 156.594 57.3928C160.905 54.8676 165.877 57.1093 168.344 62.6873C170.81 68.2653 170.045 75.5363 166.525 79.8604C163.012 84.1845 157.791 84.2876 154.186 80.1035C152.59 78.2438 151.464 75.7002 150.987 72.8591Z" fill="#4D5872"/>
<path d="M158.282 58.5399C162.665 57.2078 166.983 61.1471 167.906 67.3235C168.835 73.4999 166.009 79.5548 161.619 80.8243C157.255 82.0837 152.989 78.1471 152.073 72.0159C151.151 65.8846 153.931 59.8619 158.282 58.5399Z" fill="#D0D7CC"/>
<path d="M157.339 62.2122C160.257 60.1666 163.803 61.832 165.268 65.9351C166.727 70.0383 165.556 75.0327 162.645 77.1031C159.721 79.1819 156.155 77.5229 154.683 73.4023C153.217 69.2816 154.408 64.2652 157.339 62.2122Z" fill="#07756D"/>
<path d="M180.054 81.1419C187.905 80.2461 194.801 88.446 195.487 99.4952C196.168 110.545 190.378 120.296 182.534 121.318C174.617 122.349 167.623 114.124 166.936 102.984C166.243 91.8459 172.131 82.0459 180.054 81.1419Z" fill="white"/>
<path d="M309.986 42.3002C317.778 43.277 328.128 46.675 334.762 46.8333C337.563 47.3268 342.411 48.4895 345.001 48.728L346.015 49.4138C352.067 51.5193 359.643 53.865 365.374 56.8064L367.278 57.4738C380.592 64.7844 390.288 71.0602 402.562 81.7652C423.465 61.4674 452.088 43.5615 478.041 50.2921C479.893 50.7717 482.765 51.3922 483.956 53.39C485.428 70.8356 449.307 91.2503 439.631 96.3054C453.069 101.681 461.502 109.363 470.236 125.972C471.061 127.531 471.034 129.444 470.877 131.305C469.131 134.527 466.245 134.254 463.256 134.94C440.494 140.162 420.756 122.904 402.189 106.297C382.404 120.019 373.251 128.882 351.177 137.164C342.057 124.988 333.676 108.667 327.226 93.5656C324.53 89.803 324.196 88.9193 322.901 84.1588L310.268 56.0137C310.647 50.8619 309.509 48.0173 309.986 42.3002Z" fill="#07756D"/>
<path d="M322.901 84.1587C326.349 54.85 348.391 80.0739 337.36 93.5922C335.548 95.8192 329.771 94.7964 327.226 93.5655C324.53 89.803 324.197 88.9192 322.901 84.1587Z" fill="#07756D"/>
<path d="M346.016 49.4138C352.068 51.5193 359.644 53.865 365.376 56.8064C360.632 77.8811 341.384 70.2455 346.016 49.4138Z" fill="#4ECDC4"/>
<path d="M345.002 48.728L346.016 49.4139C341.384 70.2455 360.632 77.8811 365.375 56.8064L367.279 57.4738C366.16 63.6834 364.054 68.477 359.533 70.739C356.373 72.3068 352.892 72.0131 349.889 69.9252C343.844 65.7649 342.261 57.0043 345.002 48.728Z" fill="#07756D"/>
<path d="M286.762 38.7605C296.896 23.3512 305.283 20.0269 319.67 24.3013C324.551 25.7503 344.407 29.1539 346.533 35.009C345.67 45.1182 335.836 42.8664 334.763 46.8334C328.129 46.675 317.779 43.277 309.987 42.3002L307.796 41.9872C305.381 40.842 301.62 40.7021 298.963 40.4526C294.802 39.694 290.929 39.2328 286.762 38.7605Z" fill="#07756D"/>
<path d="M98.3574 86.954C96.925 94.2245 89.9132 98.963 82.6519 97.5958C75.3905 96.2132 70.6003 89.2222 71.9211 81.9361C73.2419 74.65 80.1793 69.7874 87.4608 71.0613C91.0294 71.6827 94.1966 73.7178 96.2476 76.7006C98.2985 79.699 99.0597 83.3964 98.3574 86.954Z" fill="#F2EAEE"/>
<path d="M69.1447 81.431C70.742 72.6193 79.133 66.7336 87.9461 68.2753L87.9451 68.2763C92.1256 69.0046 95.851 71.3357 98.3352 74.7611L98.5713 75.0962L98.8028 75.4442C101.11 79.005 101.949 83.3311 101.126 87.5025C99.3925 96.2998 90.909 102.028 82.1309 100.376L82.1254 100.375C73.3421 98.7022 67.547 90.2454 69.1447 81.431ZM87.461 71.0611C80.1795 69.7872 73.2417 74.6503 71.9209 81.9364L71.8639 82.2771C70.7507 89.439 75.5039 96.2351 82.6518 97.5962C89.9131 98.9633 96.9248 94.2244 98.3573 86.9538C99.0595 83.3964 98.2988 79.6991 96.248 76.7009C94.2612 73.8113 91.2265 71.8109 87.7945 71.1237L87.461 71.0611Z" fill="#4D5872"/>
<path d="M80.2515 75.0148C84.6914 73.5234 89.5034 75.8537 91.1063 80.2657C92.7077 84.6622 90.5203 89.5558 86.1688 91.2803C83.245 92.4454 79.9213 91.9172 77.492 89.9131C75.0628 87.9091 73.9094 84.7399 74.4845 81.6484C75.0581 78.5413 77.2657 76.009 80.2515 75.0148Z" fill="#232323"/>
<path d="M79.1147 75.7277C81.2886 74.9974 83.6447 76.1385 84.4295 78.299C85.2136 80.4519 84.1426 82.8482 82.012 83.6926C80.5804 84.2632 78.953 84.0045 77.7636 83.0232C76.5742 82.0418 76.0095 80.4899 76.2911 78.9761C76.5719 77.4546 77.6528 76.2145 79.1147 75.7277Z" fill="white"/>
<path d="M101.164 77.9555L98.0542 85.0129C98.4888 77.6183 92.8788 71.2645 85.5051 70.7784C78.1315 70.2923 71.7456 75.857 71.2009 83.2438C70.6717 90.6289 76.1671 97.0709 83.538 97.6699L84.8581 100.893C50.809 96.9161 75.7612 45.5889 101.164 77.9555Z" fill="#4D5872"/>
</g>
<defs>
<filter id="filter0_d_50_35125" x="-8" y="0" width="499.999" height="181.565" filterUnits="userSpaceOnUse" color-interpolation-filters="sRGB">
<feFlood flood-opacity="0" result="BackgroundImageFix"/>
<feColorMatrix in="SourceAlpha" type="matrix" values="0 0 0 0 0 0 0 0 0 0 0 0 0 0 0 0 0 0 127 0" result="hardAlpha"/>
<feOffset dy="4"/>
<feGaussianBlur stdDeviation="4"/>
<feComposite in2="hardAlpha" operator="out"/>
<feColorMatrix type="matrix" values="0 0 0 0 0 0 0 0 0 0 0 0 0 0 0 0 0 0 0.15 0"/>
<feBlend mode="normal" in2="BackgroundImageFix" result="effect1_dropShadow_50_35125"/>
<feBlend mode="normal" in="SourceGraphic" in2="effect1_dropShadow_50_35125" result="shape"/>
</filter>
</defs>
</svg>
