<svg width="363" height="212" viewBox="0 0 363 212" fill="none" xmlns="http://www.w3.org/2000/svg">
<g filter="url(#filter0_d_79_19004)">
<path d="M157.804 37.4681C149.692 37.3975 138.495 37.039 130.656 38.1873L126.189 38.8697C105.871 41.5847 92.5136 46.4708 73.7232 53.8008C71.115 54.9491 69.2922 55.8976 66.5255 56.4992C60.5382 59.8079 55.0192 64.1999 49.5507 68.3496L48.1602 69.5867C36.4162 78.1306 24.773 89.0505 14.8014 99.5787C2.8773 112.151 7.92796 122.408 19.9602 131.583C21.0337 132.463 22.6331 133.87 23.6995 134.642C29.2112 139.027 43.7795 150.179 50.0694 153.23C57.2095 158.012 68.4491 164.677 76.3889 168.103C83.3057 171.977 92.1605 175.771 99.6031 178.721C150.722 199.076 206.438 204.977 260.676 195.78C297.14 189.8 325.045 182.436 305.145 138.053C300.404 128.027 296.816 122.286 290.764 113.212L290.612 112.461C285.648 109.605 284.567 109.078 278.832 108.379C276.001 96.6719 275.95 89.0238 276.109 76.9931C274.156 76.1708 272.233 75.9955 270.136 75.6587C268.666 75.179 266.029 74.7505 264.43 74.4324L257.52 72.1646C257.491 72.1517 256.123 71.5133 256.079 71.5018C249.148 69.697 240.135 61.2822 234.962 59.1522C233.931 57.2385 233.65 57.3453 231.864 55.9373C228.931 53.6883 227.159 52.7253 223.953 50.9689C218.398 47.4865 212.468 45.4394 206.257 43.5099C203.152 42.6212 198.599 40.9297 195.796 41.7989C192.727 39.7237 173.864 37.1775 171.458 39.3768L170.593 38.3164C166.558 37.3441 161.99 37.5085 157.804 37.4681Z" fill="#FFA69E"/>
<path d="M157.804 37.4681C149.692 37.3975 138.495 37.039 130.656 38.1873L126.189 38.8697C105.871 41.5847 92.5134 46.4708 73.723 53.8008C71.1148 54.9491 69.292 55.8976 66.5253 56.4992C60.5381 59.8079 55.0191 64.1999 49.5505 68.3496L48.16 69.5867C36.416 78.1306 24.7729 89.0505 14.8013 99.5787C2.87715 112.151 7.92782 122.408 19.96 131.583C21.0335 132.463 22.633 133.87 23.6993 134.642C29.2111 139.027 43.7794 150.179 50.0693 153.23C68.6435 158.113 76.079 161.871 97.002 164.857C107.384 165.86 121.564 167.504 131.65 165.218L134.921 165.124C143.589 164.28 171.515 158.964 178.85 154.968C181.004 154.824 182.114 154.29 184.109 153.562C183.994 143.413 182.488 123.014 180.435 113.377C174.491 85.5521 169.411 68.6086 171.458 39.3768L170.593 38.3164C166.558 37.3441 161.99 37.5085 157.804 37.4681Z" fill="#FFDA80"/>
<path d="M73.7229 53.8009C71.1148 54.9493 69.2919 55.8978 66.5252 56.4994C60.538 59.808 55.019 64.2001 49.5504 68.3498L48.1599 69.5868C36.416 78.1307 24.7728 89.0507 14.8012 99.5789C2.87707 112.151 7.92774 122.408 19.9599 131.583C21.0335 132.463 22.6329 133.87 23.6992 134.642C29.211 139.027 43.7793 150.179 50.0692 153.23C68.6434 158.113 76.0789 161.871 97.002 164.857C96.8362 122.423 95.7339 91.2001 73.7229 53.8009Z" fill="#FF8C42"/>
<path d="M48.16 69.5865C36.416 78.1305 24.7729 89.0504 14.8013 99.5786C2.87717 112.151 7.92783 122.408 19.96 131.583C21.718 131.655 26.9704 132.795 29.4129 133.156C50.4728 136.25 76.4897 121.362 71.0932 96.9538C67.9879 82.9099 60.077 77.2209 48.16 69.5865Z" fill="#FF8C42"/>
<path d="M49.5501 68.3497L48.1596 69.5867C60.0765 77.2211 67.9874 82.9101 71.0927 96.954C76.4892 121.362 50.4723 136.25 29.4124 133.156C26.9699 132.795 21.7175 131.656 19.9595 131.583C21.0331 132.463 22.6325 133.87 23.6988 134.642C73.8666 140.78 93.4784 94.2079 49.5501 68.3497Z" fill="#4A4458"/>
<path d="M126.189 38.8698C105.871 41.5848 92.5133 46.4709 73.7229 53.8009C95.7339 91.2001 96.8362 122.423 97.0019 164.857C107.384 165.86 121.564 167.505 131.65 165.218C129.186 126.505 117.269 75.1849 126.189 38.8698Z" fill="#FFDA80"/>
<path d="M195.795 41.7989C192.726 39.7236 173.864 37.1774 171.457 39.3767C169.411 68.6085 174.491 85.5521 180.435 113.377C182.488 123.014 183.994 143.413 184.109 153.562C187.798 152.263 191.098 151.08 194.895 150.056C196.271 149.284 196.696 148.887 197.957 147.928C205.039 147.026 220.616 137.512 226.755 133.603L226.784 123.476C226.921 126.974 227 128.611 227.677 132.023L228.369 132.571C229.918 131.54 229.781 131.439 230.588 129.701L230.927 129.874C232.101 129.65 253.082 114.034 257.52 111.689C258.406 111.682 259.97 111.019 260.899 110.694L267.196 109.562C270.691 109.107 272.578 108.992 276.109 108.963L278.832 108.379C276.001 96.6718 275.95 89.0237 276.109 76.993C274.156 76.1707 272.232 75.9954 270.136 75.6586C268.666 75.1789 266.029 74.7505 264.429 74.4324L257.52 72.1646C257.491 72.1516 256.122 71.5132 256.079 71.5017C249.148 69.697 240.134 61.2821 234.961 59.1521C233.931 57.2385 233.65 57.3453 231.863 55.9373C228.931 53.6882 227.158 52.7253 223.952 50.9689C218.397 47.4864 212.468 45.4393 206.257 43.5098C203.152 42.6212 198.598 40.9297 195.795 41.7989Z" fill="#FFDA80"/>
<path d="M223.952 50.969C213.988 86.1084 225.062 93.9237 226.784 123.476C226.921 126.974 227 128.612 227.677 132.023L228.369 132.572C229.918 131.54 229.781 131.439 230.588 129.701L230.927 129.874C232.101 129.65 253.082 114.034 257.52 111.69C258.406 111.682 259.97 111.019 260.899 110.694L267.196 109.562C270.691 109.107 272.578 108.992 276.109 108.963L278.832 108.379C276.001 96.672 275.95 89.0239 276.109 76.9932C274.156 76.1709 272.232 75.9956 270.136 75.6588C268.666 75.1791 266.029 74.7506 264.429 74.4325L257.52 72.1647C257.491 72.1517 256.122 71.5134 256.079 71.5018C249.148 69.6971 240.134 61.2823 234.961 59.1523C233.931 57.2386 233.65 57.3454 231.863 55.9374C228.931 53.6884 227.158 52.7254 223.952 50.969Z" fill="#FFDA80"/>
<path d="M257.52 72.1648C257.491 72.1518 256.122 71.5135 256.079 71.5019C249.148 69.6972 240.134 61.2824 234.961 59.1523C236.777 85.2126 248.953 91.4815 257.52 111.69C258.406 111.682 259.97 111.019 260.899 110.694L267.196 109.562C270.691 109.107 272.578 108.992 276.109 108.963L278.832 108.379C276.001 96.672 275.95 89.024 276.109 76.9932C274.156 76.1709 272.232 75.9957 270.136 75.6588C268.666 75.1792 266.029 74.7507 264.429 74.4326L257.52 72.1648Z" fill="#4A4458"/>
<path d="M270.136 75.6586C268.666 75.1789 266.029 74.7505 264.429 74.4324C264.098 85.0472 265.136 98.98 267.196 109.562C270.691 109.107 272.578 108.992 276.109 108.963L278.832 108.379C276.001 96.6718 275.95 89.0237 276.109 76.993C274.156 76.1707 272.232 75.9955 270.136 75.6586Z" fill="#4A4458"/>
<path d="M276.109 76.993C274.156 76.1707 272.232 75.9955 270.136 75.6586C270.15 85.4396 272.196 100.185 276.109 108.963L278.832 108.379C276.001 96.6718 275.95 89.0238 276.109 76.993Z" fill="#FFDA80"/>
<path d="M264.43 74.4325L257.52 72.1647C252.311 85.6041 256.821 96.9907 260.899 110.694L267.196 109.562C265.136 98.9801 264.098 85.0473 264.43 74.4325Z" fill="#FFDA80"/>
<path d="M223.952 50.969C213.988 86.1084 225.062 93.9237 226.784 123.476C226.921 126.974 227 128.612 227.677 132.023L228.369 132.572C229.918 131.54 229.781 131.439 230.588 129.701C233.009 103.611 223.275 84.3844 231.863 55.9374C228.931 53.6884 227.158 52.7254 223.952 50.969Z" fill="#4A4458"/>
<path d="M223.952 50.9689C218.397 47.4864 212.467 45.4394 206.256 43.5099C198.771 62.6311 203.252 88.0097 202.488 108.747C201.912 124.536 201.22 132.427 197.956 147.928C205.039 147.026 220.616 137.512 226.754 133.603L226.783 123.476C225.061 93.9236 213.987 86.1083 223.952 50.9689Z" fill="#FFDA80"/>
<path d="M290.612 112.462C285.648 109.605 284.567 109.079 278.832 108.379L276.109 108.963C272.578 108.992 270.691 109.107 267.196 109.562L260.899 110.694C259.97 111.019 258.406 111.682 257.52 111.69C253.082 114.034 232.101 129.65 230.927 129.874L230.588 129.701C229.781 131.439 229.918 131.54 228.369 132.572L227.677 132.023C227 128.612 226.921 126.974 226.784 123.476L226.755 133.603C220.617 137.513 205.04 147.027 197.957 147.928C196.696 148.888 196.271 149.284 194.895 150.056C191.098 151.08 187.798 152.263 184.109 153.562C182.114 154.29 181.004 154.824 178.85 154.968C171.515 158.964 143.589 164.28 134.921 165.124L131.65 165.218C121.564 167.505 107.384 165.86 97.002 164.857C76.0789 161.871 68.6434 158.113 50.0692 153.23C57.2093 158.012 68.4489 164.677 76.3887 168.103C88.6659 166.92 85.8632 169.07 96.4472 171.739C104.812 173.845 117.255 172.943 125.641 171.068C135.714 175.612 136.312 174.126 145.772 169.034C148.402 170.13 151.637 171.977 154.209 173.347L162.891 168.442C180.997 176.088 173.266 160.76 191.523 166.516C195.198 164.374 198.505 161.85 202.575 159.505C212.36 160.659 210.249 160.53 217.871 155.084C219.716 153.764 222.965 154.68 224.795 155.56C236.352 161.164 233.73 150.792 240.963 147.921C243.298 146.991 248.55 151.066 251.763 150.842C255.546 151.08 259.004 144.437 262.578 144.798C275.921 146.168 276.584 152.256 288.948 142.915C290.425 141.797 298.466 144.271 302.421 143.139C304.208 141.703 304.41 140.254 305.145 138.054C300.404 128.027 296.816 122.286 290.764 113.212L290.612 112.462Z" fill="#E96357"/>
<path d="M299.834 46.8034C301.505 37.7343 303.299 25.2167 297.478 17.4965C286.57 3.02777 257.361 4.09531 241.128 4.02823C196.17 3.41584 151.629 12.7734 110.705 31.4301C102.297 35.2364 89.0399 41.6431 81.7269 47.0573C77.4832 49.2075 69.9829 53.2779 66.5246 56.4992C69.2913 55.8976 71.1141 54.9491 73.7223 53.8008C92.5127 46.4708 105.871 41.5847 126.188 38.8697L130.655 38.1873C138.494 37.039 149.691 37.3975 157.803 37.4682C161.99 37.5085 166.557 37.3441 170.592 38.3164L171.457 39.3768C173.863 37.1775 192.726 39.7237 195.795 41.7989C198.598 40.9297 203.151 42.6212 206.256 43.5099C212.467 45.4394 218.397 47.4865 223.952 50.9689C227.158 52.7253 228.93 53.6883 231.863 55.9373C233.65 57.3453 233.931 57.2385 234.961 59.1522C240.134 61.2822 249.147 69.697 256.078 71.5018C256.122 71.5133 257.491 72.1517 257.519 72.1646L264.429 74.4324C266.028 74.7505 268.665 75.179 270.135 75.6587C272.232 75.9955 274.156 76.1708 276.108 76.9931C278.363 76.2905 279.422 76.6541 281.886 76.8214C283.335 76.4723 284.343 75.9328 285.705 75.3334L287.989 73.9145C288.486 71.8494 293.926 61.7907 295.208 59.0959C297.427 54.4132 298.249 51.872 299.834 46.8034Z" fill="#FFA69E"/>
<path d="M212.583 36.0645C202.676 29.6787 202.633 30.4202 191.227 34.1999C180.6 30.8595 172.876 33.8638 161.305 31.0478L151.442 34.3485C130.713 29.3231 102.492 41.3466 82.3683 46.8856L81.7271 47.0572C77.4834 49.2075 69.9831 53.2778 66.5247 56.4992C69.2914 55.8976 71.1142 54.9491 73.7224 53.8008C92.5128 46.4708 105.871 41.5847 126.189 38.8697L130.656 38.1873C138.495 37.039 149.691 37.3974 157.804 37.4681C161.99 37.5085 166.558 37.3441 170.592 38.3164L171.457 39.3768C173.863 37.1775 192.726 39.7237 195.795 41.7989C198.598 40.9297 203.151 42.6212 206.257 43.5098C212.467 45.4394 218.397 47.4864 223.952 50.9689C227.158 52.7253 228.931 53.6883 231.863 55.9373C233.65 57.3453 233.931 57.2385 234.961 59.1522C240.134 61.2822 249.147 69.697 256.079 71.5017C256.122 71.5133 257.491 72.1516 257.52 72.1646L264.429 74.4324C266.029 74.7505 268.666 75.179 270.135 75.6586C272.232 75.9955 274.156 76.1708 276.108 76.9931C278.363 76.2905 279.422 76.6541 281.887 76.8214C283.335 76.4723 284.343 75.9327 285.705 75.3333L287.989 73.9145C288.486 71.8494 293.926 61.7907 295.208 59.0959C297.428 54.4132 298.249 51.872 299.834 46.8033L297.5 46.3309C292.391 47.731 290.821 52.0732 286.39 50.8961C283.803 48.8295 282.96 46.1369 281.526 43.0533C280.114 43.6548 278.695 44.242 277.275 44.8154C270.546 47.5369 269.422 44.5124 262.837 41.9951C258.499 40.3382 254.357 43.1247 250.3 45.0729C249.616 44.1605 248.91 43.2559 248.196 42.3608C246.273 39.9538 245.509 38.8076 242.404 38.4679C234.313 41.6994 230.429 40.5532 223.556 35.0049C220.991 32.9362 215.501 35.209 212.583 36.0645Z" fill="#E96357"/>
<path d="M310.757 122.026C326.139 127.775 350.607 137.722 352.098 112.541C354.952 64.57 366.609 42.0161 309.136 64.6847L304.308 66.6755C299.02 69.009 293.162 71.4412 287.989 73.9146L285.705 75.3334C284.343 75.9329 283.335 76.4724 281.887 76.8215C279.422 76.6542 278.363 76.2906 276.108 76.9932C275.95 89.0239 276 96.672 278.832 108.379C284.567 109.078 285.648 109.605 290.612 112.461L290.763 113.212L291.88 113.478L304.467 119.48L310.757 122.026Z" fill="#4A4458"/>
<path d="M304.308 66.6754C299.02 69.0089 293.162 71.4411 287.989 73.9145L285.705 75.3333C284.344 75.9327 283.335 76.4723 281.887 76.8214C279.423 76.654 278.364 76.2905 276.108 76.993C275.95 89.0238 276 96.6718 278.832 108.379C284.567 109.078 285.648 109.605 290.612 112.461L290.763 113.211L291.88 113.478L304.467 119.48C305.548 116.775 304.633 113.5 304.978 110.283C306.736 94.0182 308.977 82.8176 304.308 66.6754Z" fill="#4A4458"/>
<path d="M281.887 76.8214C279.423 76.6541 278.364 76.2905 276.109 76.9931C275.95 89.0238 276.001 96.6719 278.832 108.379C284.567 109.078 285.648 109.605 290.612 112.461C290.014 102.074 278.566 92.3657 281.887 76.8214Z" fill="#4A4458"/>
<path d="M285.706 75.3334C284.344 75.9328 283.335 76.4723 281.887 76.8214C278.566 92.3657 290.014 102.074 290.612 112.461L290.764 113.212L291.88 113.478C294.107 97.826 292.363 89.3484 285.706 75.3334Z" fill="#FFDA80"/>
<path d="M309.136 64.6848L304.309 66.6755C308.977 82.8177 306.737 94.0183 304.979 110.283C304.633 113.5 305.548 116.775 304.467 119.48L310.757 122.026L310.736 120.843C310.577 114.936 311.787 109.8 312.847 103.986C315.599 88.8767 314.122 78.8902 309.136 64.6848Z" fill="#FFDA80"/>
<path d="M45.4767 82.714C52.0507 81.6534 58.2367 86.1293 59.2957 92.7084C60.3546 99.2875 55.8861 105.482 49.3121 106.543C42.7382 107.604 36.5521 103.128 35.4932 96.5487C34.4343 89.9696 38.9028 83.7748 45.4767 82.714Z" fill="white" stroke="#0E2F4F" stroke-width="2"/>
<path d="M52.8081 94.8773C53.1169 91.49 50.4199 88.4748 46.7842 88.1426C43.1486 87.8103 39.9509 90.2869 39.6421 93.6741C39.3333 97.0614 42.0303 100.077 45.666 100.409C49.3017 100.741 52.4993 98.2645 52.8081 94.8773Z" fill="black"/>
<path d="M51.4431 99.3117C51.3445 100.309 50.4579 101.05 49.4629 100.966C48.4679 100.882 47.7414 100.005 47.84 99.008C47.9386 98.0106 48.8252 97.2698 49.8202 97.3538C50.8152 97.4377 51.5419 98.3143 51.4431 99.3117Z" fill="white"/>
<path d="M108.862 82.7837C109.246 81.8943 110.544 82.0156 110.756 82.9608L115.568 104.384C115.663 104.807 116.019 105.12 116.451 105.161L138.312 107.204C139.277 107.294 139.563 108.566 138.729 109.06L119.842 120.257C119.469 120.478 119.281 120.913 119.376 121.336L124.188 142.759C124.4 143.704 123.279 144.369 122.551 143.729L106.066 129.226C105.741 128.94 105.268 128.896 104.896 129.116L86.0081 140.313C85.1748 140.807 84.1962 139.946 84.58 139.057L93.2793 118.896C93.4509 118.499 93.3469 118.036 93.0217 117.749L76.5364 103.246C75.8091 102.606 76.3255 101.409 77.2901 101.5L99.1518 103.543C99.5831 103.584 99.9914 103.342 100.163 102.944L108.862 82.7837Z" fill="#4A4458"/>
<path d="M171.458 39.3768L170.593 38.3164C166.558 37.3441 161.99 37.5085 157.804 37.4681C153.33 55.4865 154.245 74.4245 160.448 91.9242C164.015 101.829 168.201 110.629 171.313 120.937C174.671 132.059 176.018 144.011 178.85 154.968C181.004 154.824 182.114 154.29 184.109 153.562C183.994 143.413 182.488 123.014 180.435 113.377C174.491 85.5521 169.411 68.6086 171.458 39.3768Z" fill="#4A4458"/>
<path d="M130.656 38.1874L126.189 38.8698C117.269 75.1849 129.186 126.505 131.65 165.218L134.921 165.124C135.303 147.611 135.072 128.532 132.983 111.149C129.237 80.0112 125.519 69.9272 130.656 38.1874Z" fill="#4A4458"/>
<path d="M206.257 43.5099C203.152 42.6213 198.598 40.9298 195.795 41.799C194.542 57.4658 194.246 73.194 194.924 88.8962C195.716 105.825 198.303 122.358 195.882 139.287C195.399 142.699 195.017 146.659 194.895 150.056C196.271 149.284 196.696 148.888 197.957 147.928C201.221 132.427 201.912 124.536 202.489 108.747C203.252 88.0097 198.771 62.6311 206.257 43.5099Z" fill="#4A4458"/>
</g>
<defs>
<filter id="filter0_d_79_19004" x="0" y="0" width="363" height="212" filterUnits="userSpaceOnUse" color-interpolation-filters="sRGB">
<feFlood flood-opacity="0" result="BackgroundImageFix"/>
<feColorMatrix in="SourceAlpha" type="matrix" values="0 0 0 0 0 0 0 0 0 0 0 0 0 0 0 0 0 0 127 0" result="hardAlpha"/>
<feOffset dy="4"/>
<feGaussianBlur stdDeviation="4"/>
<feComposite in2="hardAlpha" operator="out"/>
<feColorMatrix type="matrix" values="0 0 0 0 0 0 0 0 0 0 0 0 0 0 0 0 0 0 0.15 0"/>
<feBlend mode="normal" in2="BackgroundImageFix" result="effect1_dropShadow_79_19004"/>
<feBlend mode="normal" in="SourceGraphic" in2="effect1_dropShadow_79_19004" result="shape"/>
</filter>
</defs>
</svg>
