<svg width="388" height="196" viewBox="0 0 388 196" fill="none" xmlns="http://www.w3.org/2000/svg">
<path d="M172.845 175.334C171.294 174.317 169.335 174.253 167.492 174.031C157.056 172.779 147.986 165.62 137.521 164.616C134.347 164.312 131.151 164.588 127.975 164.864C122.564 165.337 110.15 164.757 108.716 172.278C107.388 179.248 117.656 181.328 122.937 181.272C124.741 181.254 126.542 180.975 128.341 181.118C131.126 181.341 133.716 182.554 136.368 183.431C147.868 187.222 160.454 184.601 172.01 180.983C172.674 180.776 173.359 180.551 173.859 180.068C175.193 178.781 174.393 176.351 172.845 175.334Z" fill="#E2CC88"/>
<path d="M251.966 184.292C253.269 186.167 254.991 187.966 255.068 190.227C255.183 193.252 252.196 195.626 249.209 195.932C246.223 196.239 243.313 195.051 240.52 193.904C237.112 192.488 233.706 191.07 230.298 189.655C220.995 185.789 211.654 181.883 202.314 177.979C196.036 175.337 195.27 170.475 190.561 167.182C186.12 164.08 180.607 165.766 177.314 159.984C171.266 149.379 183.21 140.038 191.287 135.674C203.078 129.282 214.83 122.887 226.621 116.533C229.11 115.156 231.943 113.776 234.7 114.504C236.537 115.002 237.993 116.379 239.524 117.567C242.434 119.788 245.839 121.395 249.401 122.238C253.841 123.311 258.55 123.273 262.914 121.969C262.799 132.192 251.43 138.393 247.255 147.733C244 155.084 245.495 163.543 247.217 171.354C248.216 175.871 249.324 180.503 251.966 184.292Z" fill="#E2CC88"/>
<path d="M347.903 96.1645C348.056 96.7776 348.478 97.2759 348.9 97.7332C356.173 106.116 362.109 116.07 363.831 127.059C365.476 137.434 363.486 148.804 368.731 157.876C359.275 155.311 349.781 152.746 340.287 150.181C338.028 149.568 335.77 148.957 333.511 148.229C324.247 145.51 315.174 141.836 308.856 134.678C306.981 132.534 305.41 130.122 303.573 127.902C292.241 114.389 251.01 107.077 262.456 81.2335C263.948 77.9018 266.322 74.9943 269.002 72.4675C276.506 65.4235 275.624 67.2989 285.08 63.2416C297.676 57.8431 320.913 46.3587 334.237 43.1803C340.783 41.6499 347.484 40.6151 354.222 40.1553C365.402 39.3504 376.656 40.0786 387.643 42.2605C379.449 49.4578 376.235 60.5615 370.875 70.094C365.898 79.0133 358.815 86.747 350.353 92.4905C349.053 93.4077 347.561 94.6341 347.903 96.1645Z" fill="#E2CC88"/>
<path d="M219.232 2.40856C209.125 0.648216 199.976 7.8838 190.865 12.6309C185.045 15.6559 178.537 17.9527 172.567 20.8628C165.906 24.0028 159.856 27.8684 156.105 34.1101C154.728 36.3687 153.732 38.8955 151.971 40.8092C146.496 46.8184 136.887 45.0964 128.962 46.7443C121.189 48.3513 101.205 52.8301 110.28 38.359C114.26 32.0432 120.655 25.9165 127.431 21.0161C131.146 18.3743 134.935 16.0391 138.494 14.2404C146.573 10.1832 155.492 8.00133 164.296 5.85774C182.365 1.4888 201.43 -2.83671 219.232 2.40856Z" fill="#E2CC88"/>
<path d="M262.111 16.7648C259.01 19.215 256.521 22.3166 254.071 25.3417C252.502 27.2936 250.931 29.2457 249.4 31.1619C247.947 32.9222 246.452 34.8358 246.26 37.0944C245.954 40.3877 248.442 43.4868 247.982 46.7418C247.523 49.8435 244.612 51.9487 241.973 53.6324C240.29 54.703 238.603 55.7761 236.92 56.8108C229.991 61.1363 222.908 65.1961 215.213 67.7587C197.832 73.5788 176.738 69.0975 167.742 51.6422C164.334 45.0581 164.526 38.2824 169.311 32.424C176.815 23.2364 185.696 25.0351 195.918 23.0448C197.065 22.8149 198.215 22.4316 199.288 21.9717C201.24 21.1286 203.077 20.0198 204.917 18.9851C218.279 11.4429 233.667 7.53894 249.058 7.76888C252.045 7.8072 255.185 8.03714 257.824 9.45257C260.466 10.868 262.533 13.7781 262.111 16.7648Z" fill="#E2CC88"/>
<path d="M283.472 65.5003C276.466 71.2437 282.21 89.0823 280.294 97.3909C278.38 105.7 291.167 118.446 275.853 112.705C260.539 106.962 239.484 117.184 230.526 125.454C224.172 131.389 199.364 149.918 172.91 162.399C162.228 167.452 151.318 171.471 141.211 173.311C106.104 179.703 66.5583 163.74 51.244 159.91C35.9298 156.083 12.961 129.284 3.85008 117.797C-5.26081 106.313 4.65485 102.483 4.65485 102.483C4.65485 102.483 -0.43711 95.4773 14.8772 85.255C19.5092 82.1533 30.1148 76.604 42.6339 70.3623C71.2696 56.0061 109.936 38.05 109.936 38.05C125.899 35.4849 154.614 28.4792 178.234 38.05C201.816 47.6208 231.18 59.1053 252.235 64.8487C273.288 70.5897 290.516 59.7568 283.472 65.5003Z" fill="#DB9738"/>
<path d="M172.91 162.396C166.898 165.229 160.813 167.756 154.839 169.708C150.207 171.276 145.613 172.503 141.211 173.308C106.104 179.7 66.5585 163.737 51.2443 159.907C35.93 156.08 12.9612 129.281 3.85032 117.794C-5.26057 106.31 4.65509 102.48 4.65509 102.48C4.65509 102.48 0.444591 96.698 11.2009 87.9704C12.2739 87.0889 13.4977 86.1717 14.8748 85.2519C19.5069 82.1503 30.1125 76.601 42.6316 70.3593C50.4804 70.0144 58.2882 71.1258 65.1048 74.8381C74.7522 80.1217 81.3746 92.1043 77.5473 102.403C76.8958 104.202 75.9403 106.077 76.3235 107.917C77.0133 111.172 81.0323 112.166 83.5591 114.309C87.1564 117.334 88.9193 123.573 93.5897 123.343C96.2315 123.19 98.6817 120.74 101.132 121.698C102.279 122.158 103.007 123.228 103.85 124.11C108.482 128.857 116.599 127.518 122.34 124.148C128.046 120.74 132.793 115.689 138.993 113.239C142.629 111.823 148.028 112.242 148.947 116.072C149.407 117.947 148.488 120.014 149.062 121.854C149.791 124.189 152.432 125.224 154.653 126.256C162.997 130.124 168.932 138.66 169.699 147.771C170.153 153.167 171.569 157.648 172.91 162.396Z" fill="#DE8200"/>
<path d="M154.84 169.708C150.208 171.277 145.614 172.503 141.212 173.308C106.105 179.7 66.5593 163.737 51.245 159.907C35.9307 156.08 12.9619 129.281 3.85103 117.794C-5.25985 106.31 4.6558 102.48 4.6558 102.48C4.6558 102.48 0.445307 96.6984 11.2016 87.9707C10.2435 93.331 9.9011 98.6529 11.5465 104.356C15.108 116.683 24.9088 125.832 33.9813 134.332C36.5465 136.744 39.1883 139.156 42.3283 140.725C47.7652 143.405 54.5409 143.099 59.7095 139.959C64.8398 136.819 68.2098 130.924 68.3247 124.874C68.6697 130.043 69.0912 135.365 71.4647 139.959C73.7999 144.514 78.7003 148.229 83.8306 147.577C85.2461 153.97 92.1009 157.34 98.1484 159.828C102.666 161.665 107.336 163.579 112.198 163.505C113.997 163.466 115.76 163.198 117.558 163.351C120.123 163.543 122.535 164.652 124.947 165.572C134.474 169.21 144.618 170.05 154.84 169.708Z" fill="#9F5602"/>
<path d="M45.0016 124.182C33.7992 124.182 24.718 114.194 24.718 101.875C24.718 89.5547 33.7992 79.5674 45.0016 79.5674C56.2039 79.5674 65.2852 89.5547 65.2852 101.875C65.2852 114.194 56.2039 124.182 45.0016 124.182Z" fill="#FFD502"/>
<path d="M347.903 96.1646C348.056 96.7778 348.477 97.276 348.899 97.7334C356.173 106.116 362.108 116.07 363.83 127.059C365.475 137.434 363.485 148.804 368.73 157.876C359.275 155.311 349.78 152.746 340.286 150.181C338.028 149.568 335.769 148.957 333.511 148.229C336.574 147.616 339.676 146.584 341.589 144.133C343.695 141.415 342.931 136.476 339.599 135.71C342.547 135.442 346.528 133.605 345.493 130.848C345.11 129.89 344.154 129.241 343.273 128.704C340.823 127.136 338.373 125.603 335.884 124.072C334.584 122.235 339.024 121.775 340.095 119.785C340.899 118.331 339.405 116.683 338.028 115.689C331.901 111.096 325.739 106.502 319.576 101.87C323.71 102.636 326.735 97.8509 327.233 93.6761C327.731 89.5039 327.042 84.9459 329.3 81.3869C331.597 77.8279 336.037 76.4865 339.714 74.4579C343.388 72.3909 346.835 68.1038 344.998 64.3123C348.368 60.5233 354.76 61.5172 358.779 58.4539C367.011 52.1764 360.386 46.4328 354.223 40.1528C365.404 39.348 376.658 40.0762 387.645 42.2581C379.451 49.4553 376.237 60.5591 370.877 70.0915C365.899 79.0108 358.817 86.7446 350.355 92.4881C349.052 93.4078 347.56 94.6342 347.903 96.1646Z" fill="#E09A37"/>
<path d="M251.966 184.291C253.269 186.167 254.991 187.965 255.068 190.226C255.183 193.251 252.196 195.625 249.209 195.931C246.223 196.238 243.313 195.05 240.52 193.903C237.112 192.487 233.706 191.069 230.298 189.654C230.604 189.386 230.873 189.118 231.141 188.811C234.396 184.677 226.662 179.93 226.547 174.685C229.381 176.79 233.821 174.263 234.549 170.819C235.277 167.375 233.361 163.852 230.873 161.363C233.284 162.817 236.156 159.909 236.731 157.153C237.344 154.358 237.076 151.179 238.951 149.074C239.833 148.116 241.133 147.467 241.708 146.279C242.475 144.672 241.631 142.682 242.091 140.919C242.628 138.737 244.963 137.549 246.685 136.095C248.445 134.641 249.71 131.731 247.986 130.277C249.631 129.588 251.126 128.479 252.234 127.137C250.704 125.99 249.669 124.151 249.401 122.237C253.841 123.31 258.55 123.272 262.914 121.969C262.799 132.191 251.43 138.392 247.255 147.733C244 155.083 245.495 163.543 247.217 171.353C248.216 175.87 249.324 180.502 251.966 184.291Z" fill="#E09A37"/>
<path d="M262.111 16.7648C259.01 19.215 256.521 22.3166 254.071 25.3417C252.502 27.2936 250.931 29.2457 249.4 31.1619C247.947 32.9222 246.452 34.8358 246.26 37.0944C245.954 40.3877 248.442 43.4868 247.982 46.7418C247.523 49.8435 244.612 51.9487 241.973 53.6324C240.29 54.703 238.603 55.7761 236.92 56.8108C237.111 55.0888 236.345 53.2493 234.814 52.4087C235.964 51.6039 236.536 50.0734 236.191 48.7321C235.08 48.2339 233.895 48.0806 232.707 48.1956C233.473 45.5154 231.71 42.682 229.337 41.2666C226.963 39.8895 224.091 39.6213 221.335 39.3913C226.312 32.8072 231.174 26.1848 235.997 19.4832C224.59 15.9242 214.137 24.7668 203.072 23.0065C201.35 22.7382 200.123 22.3933 199.283 21.9717C201.235 21.1286 203.072 20.0198 204.911 18.9851C218.274 11.4429 233.662 7.53894 249.053 7.76888C252.04 7.8072 255.18 8.03714 257.819 9.45257C260.466 10.868 262.533 13.7781 262.111 16.7648Z" fill="#E09A37"/>
<path d="M219.232 2.40856C209.125 0.648216 199.976 7.8838 190.865 12.6309C185.045 15.6559 178.537 17.9527 172.567 20.8628C170.423 20.7095 168.241 20.3646 166.098 19.754C167.094 18.6426 168.126 17.4954 169.161 16.384C164.835 17.1505 160.433 17.3038 156.069 16.8439C157.447 16.1158 158.52 14.8919 159.094 13.4356C150.137 14.5828 141.253 16.5373 132.641 19.2558C130.919 19.7923 129.194 20.4438 127.434 21.0161C131.149 18.3743 134.938 16.0391 138.497 14.2404C146.575 10.1832 155.495 8.00133 164.299 5.85774C182.365 1.4888 201.43 -2.83671 219.232 2.40856Z" fill="#E09A37"/>
<path d="M90.1791 100.467C147.596 98.2544 205.028 97.5875 262.443 94.9431C265.177 94.818 265.169 99.0643 262.443 99.1895C205.171 101.829 147.512 104.248 90.1791 102.92C88.5976 102.884 88.6001 100.528 90.1791 100.467Z" fill="#BA5904"/>
<path d="M288.978 67.5926C310.076 58.1623 331.89 51.0749 354.583 46.6319C355.861 46.3815 356.41 48.3412 355.125 48.5941C332.527 53.0116 310.802 59.5931 289.673 68.7806C288.87 69.1281 288.168 67.9528 288.978 67.5926Z" fill="#BA5904"/>
<path d="M290.919 74.1536C311.931 66.0391 335.988 58.1265 358.786 58.3692C360.104 58.382 360.449 60.4055 359.103 60.7198C336.39 65.9983 313.773 68.6631 291.397 75.8833C290.278 76.2435 289.862 74.5598 290.919 74.1536Z" fill="#BA5904"/>
<path d="M290.352 83.4356C307.297 80.965 325.748 77.7458 342.843 79.2736C344.049 79.3809 344.019 80.9829 342.843 81.1285C325.552 83.2491 307.938 82.756 290.559 84.9634C289.698 85.0733 289.484 83.5633 290.352 83.4356Z" fill="#BA5904"/>
<path d="M291.157 91.9203C306.875 91.1717 323.413 91.4731 338.72 95.5022C340.289 95.9136 339.586 98.0853 338.068 97.8682C322.32 95.5968 307.136 93.2258 291.157 93.4762C290.153 93.4915 290.163 91.9688 291.157 91.9203Z" fill="#BA5904"/>
<path d="M288.639 98.5533C308.2 100.633 330.312 105.033 346.871 116.239C347.686 116.791 347.203 118.316 346.156 117.933C326.7 110.817 309.538 103.26 288.636 100.825C287.208 100.661 287.178 98.4001 288.639 98.5533Z" fill="#BA5904"/>
<path d="M289.791 105.589C298.858 106.662 306.684 110.117 314.551 114.644C325.182 120.763 335.031 125.968 346.492 130.418C347.88 130.957 347.859 133.356 346.112 133.239C325.092 131.803 310.547 110.881 289.497 107.764C288.276 107.582 288.552 105.441 289.791 105.589Z" fill="#BA5904"/>
<path d="M182.625 33.029C198.264 31.6442 212.198 13.6907 228.282 17.7889C229.179 18.0162 229.268 19.5236 228.282 19.6923C218.318 21.4041 210.78 24.7766 202.002 29.7229C195.793 33.2206 189.804 35.75 182.628 36.1997C180.576 36.3274 180.617 33.2079 182.625 33.029Z" fill="#BA5904"/>
<path d="M197.643 36.2303C211.33 32.5129 223.251 22.2446 237.631 21.0565C238.987 20.9441 239.238 23.0801 237.947 23.4071C224.11 26.9099 212.061 34.9426 198.152 38.075C196.954 38.3458 196.448 36.5548 197.643 36.2303Z" fill="#BA5904"/>
<path d="M206.591 39.9887C215.702 36.5805 225.696 31.2969 235.311 29.8252C236.422 29.6566 237.209 31.0873 236.118 31.7389C227.679 36.7721 216.491 39.0613 207.212 42.2397C205.778 42.7277 205.203 40.5074 206.591 39.9887Z" fill="#BA5904"/>
<path d="M220.558 43.5326C222.949 42.6128 225.343 41.693 227.735 40.7732C229.863 39.9556 232.081 38.6628 234.406 38.9694C235.3 39.087 235.793 40.0272 235.147 40.7554C233.603 42.4927 231.202 42.9577 229.076 43.7165C226.506 44.6337 223.938 45.5535 221.368 46.4707C219.503 47.1401 218.752 44.2275 220.558 43.5326Z" fill="#BA5904"/>
<path d="M229.914 52.263C228.028 52.263 228.026 49.3325 229.914 49.3325C231.8 49.3325 231.805 52.263 229.914 52.263Z" fill="#BA5904"/>
<path d="M123.921 30.906C126.964 24.9402 134.688 21.1641 140.163 17.7686C146.279 13.9745 153.494 9.36538 160.868 9.0358C161.954 8.98725 162.306 10.5202 161.412 11.0414C149.854 17.7839 134.795 21.6546 125.945 32.4646C124.974 33.6449 123.293 32.14 123.921 30.906Z" fill="#BA5904"/>
<path d="M139.129 29.575C146.472 23.4534 155.749 15.1294 165.312 13.1136C166.076 12.9526 166.789 13.9158 166.127 14.5137C162.762 17.5489 158.432 19.4524 154.589 21.8259C149.844 24.7539 145.269 27.8861 140.864 31.3097C139.645 32.2551 137.9 30.5995 139.129 29.575Z" fill="#BA5904"/>
<path d="M150.752 27.3242C159.613 21.1234 168.969 13.9084 178.931 9.61352C180.341 9.00545 181.399 10.7607 180.139 11.6804C171.251 18.1597 161.085 23.1598 151.93 29.3376C150.676 30.1858 149.534 28.1776 150.752 27.3242Z" fill="#BA5904"/>
<path d="M130.425 177.286C133.475 177.598 136.526 177.917 139.579 178.2C142.07 178.43 144.592 178.497 146.896 179.521C148.11 180.06 147.318 181.637 146.293 181.752C143.738 182.035 141.122 181.192 138.631 180.651C135.828 180.04 133.02 179.463 130.212 178.875C129.334 178.688 129.512 177.194 130.425 177.286Z" fill="#BA5904"/>
<path d="M147 174.366C149.203 174.614 151.402 174.864 153.605 175.112C155.444 175.319 157.363 175.263 158.886 176.415C159.507 176.885 159.402 177.711 158.679 177.999C156.903 178.709 155.064 178.147 153.232 177.861C151.042 177.519 148.852 177.177 146.665 176.834C145.283 176.617 145.59 174.205 147 174.366Z" fill="#BA5904"/>
<path d="M187.59 160.061C193.382 159.213 198.441 160.825 203.453 163.794C206.453 165.569 209.164 167.789 212.135 169.611C215.847 171.888 219.792 172.841 223.844 174.241C224.639 174.517 224.81 175.84 223.844 176.029C210.415 178.663 201.624 160.416 187.771 161.41C187.01 161.466 186.818 160.173 187.59 160.061Z" fill="#BA5904"/>
<path d="M201.106 152.615C205.958 155.748 210.935 158.862 216.191 161.274C221.311 163.622 227.601 164.578 232.297 167.585C233.235 168.185 232.805 169.501 231.753 169.59C226.3 170.063 220.263 166.969 215.419 164.616C209.686 161.831 204.586 158.479 199.908 154.164C199.093 153.413 200.161 152.005 201.106 152.615Z" fill="#BA5904"/>
<path d="M208.21 150.36C212.237 150.322 215.257 151.98 218.637 154.07C224.577 157.741 229.442 158.625 236.253 159.502C237.035 159.604 237.334 160.728 236.452 160.971C232.543 162.046 228.361 161.252 224.633 159.767C218.885 157.481 214.667 151.901 208.213 151.556C207.446 151.515 207.436 150.368 208.21 150.36Z" fill="#BA5904"/>
<path d="M216.046 144.618C222.786 146.146 230.548 147.643 236.657 150.98C237.357 151.363 236.871 152.414 236.125 152.237C229.242 150.602 222.615 147.59 215.709 145.829C214.927 145.628 215.259 144.44 216.046 144.618Z" fill="#BA5904"/>
<path d="M223.916 140.201C226.883 141.353 229.905 142.191 233.066 142.582C235.546 142.889 238.16 142.434 240.457 143.456C240.912 143.658 240.861 144.376 240.457 144.593C238.117 145.847 235.163 145.183 232.626 144.751C229.361 144.197 226.252 143.167 223.224 141.841C222.304 141.437 222.966 139.833 223.916 140.201Z" fill="#BA5904"/>
<path d="M230.539 134.826C233.748 135.038 236.944 135.094 240.158 135.117C242.953 135.137 245.937 134.721 248.641 135.439C249.491 135.666 249.376 136.78 248.641 137.053C243.416 139.005 235.925 137.503 230.539 136.798C229.318 136.64 229.241 134.739 230.539 134.826Z" fill="#BA5904"/>
<path d="M239.381 127.728C241.683 128.834 244.215 129.356 246.711 129.828C247.641 130.004 247.309 131.269 246.504 131.356C243.556 131.673 240.947 130.863 238.326 129.537C237.117 128.924 238.178 127.148 239.381 127.728Z" fill="#BA5904"/>
<path d="M229.424 180.377C231.813 180.768 234.074 181.407 236.281 182.406C238.126 183.239 240.661 184.215 241.711 186.026C241.971 186.476 241.54 187.046 241.036 186.905C239.166 186.387 237.638 184.723 235.944 183.76C233.842 182.567 231.588 181.606 229.299 180.84C229 180.74 229.123 180.329 229.424 180.377Z" fill="#BA5904"/>
<path d="M236.703 173.131C238.596 173.706 241.923 173.98 242.871 175.927C243.078 176.351 243.014 176.961 242.539 177.196C240.525 178.185 237.914 176.466 235.988 175.73C234.404 175.122 235.014 172.618 236.703 173.131Z" fill="#BA5904"/>
<path d="M238.209 166.665C236.901 166.665 236.899 164.631 238.209 164.631C239.517 164.631 239.52 166.665 238.209 166.665Z" fill="#BA5904"/>
<path d="M344.127 140.145C346.1 139.967 348.067 139.913 350.045 140.046C351.664 140.156 353.504 140.14 354.827 141.16C355.453 141.64 355.458 142.662 354.6 142.91C352.99 143.375 351.296 142.82 349.651 142.698C347.809 142.562 345.969 142.585 344.127 142.716C342.467 142.836 342.497 140.294 344.127 140.145Z" fill="#BA5904"/>
<path d="M312.71 123.052C317.043 127.257 321.79 130.518 327.5 132.551C331.54 133.99 336.739 133.962 340.265 136.325C341.093 136.879 340.942 138.083 339.994 138.402C335.39 139.95 329.693 136.953 325.625 134.777C320.439 132.002 315.735 128.325 311.737 124.025C311.134 123.376 312.071 122.434 312.71 123.052Z" fill="#BA5904"/>
<path d="M352.894 123.384C353.484 123.678 354.077 123.972 354.667 124.268C355.403 124.634 354.861 125.668 354.138 125.525C353.479 125.395 352.817 125.265 352.158 125.134C350.87 124.879 351.573 122.728 352.894 123.384Z" fill="#BA5904"/>
<path d="M344.525 107.419C345.33 107.582 346.138 107.746 346.942 107.909C347.883 108.101 347.885 109.621 346.942 109.813C346.138 109.976 345.33 110.14 344.525 110.303C342.113 110.794 342.098 106.928 344.525 107.419Z" fill="#BA5904"/>
<path d="M346.527 84.1204C348.252 84.3657 350.081 84.3273 351.312 85.7121C351.808 86.2691 351.726 87.0892 351.083 87.498C349.409 88.5532 347.398 87.9017 345.556 87.6411C343.241 87.3089 344.225 83.7908 346.527 84.1204Z" fill="#BA5904"/>
<path d="M353.879 72.1098C355.59 71.6321 357.305 71.1568 359.017 70.6791C360.613 70.2345 362.246 69.6034 363.919 69.7337C365.455 69.8538 365.961 71.6984 364.689 72.5773C363.317 73.5252 361.587 73.8063 359.993 74.2227C358.273 74.6724 356.551 75.122 354.832 75.5717C352.596 76.1542 351.651 72.7281 353.879 72.1098Z" fill="#BA5904"/>
<path d="M371.264 49.2095C372.266 48.4558 373.16 47.8759 374.323 47.3981C375.876 46.7568 376.573 48.8953 375.779 49.8968C374.992 50.8882 374.087 51.5473 373.078 52.3061C371.231 53.6986 369.44 50.5841 371.264 49.2095Z" fill="#BA5904"/>
<path d="M237.739 12.0434C239.696 11.6371 241.656 11.2334 243.613 10.8272C245.389 10.4593 247.269 9.78993 249.078 9.99688C250.322 10.1374 251.012 11.7802 249.758 12.5058C248.181 13.4154 246.242 13.5764 244.474 13.9417C242.517 14.3479 240.557 14.7516 238.6 15.1578C236.569 15.5768 235.703 12.4649 237.739 12.0434Z" fill="#BA5904"/>
<path d="M245.231 20.2598C246.92 20.3415 248.535 19.8867 250.147 19.4217C250.936 19.1943 251.58 20.2495 250.962 20.8218C249.329 22.3344 247.431 22.7355 245.231 22.5924C243.744 22.4953 243.724 20.1857 245.231 20.2598Z" fill="#BA5904"/>
<path d="M240.125 31.668C238.469 31.668 238.466 29.0952 240.125 29.0952C241.78 29.0952 241.783 31.668 240.125 31.668Z" fill="#BA5904"/>
<path d="M237.789 40.9753C238.735 40.5921 239.465 40.5154 240.434 40.7402C241.351 40.9548 241.481 42.056 240.947 42.6896C240.304 43.4536 239.583 43.7806 238.63 44.031C236.607 44.5649 235.947 41.7239 237.789 40.9753Z" fill="#BA5904"/>
<path d="M188.081 6.11311C189.06 5.90616 189.99 5.72477 190.991 5.69667C192.026 5.66856 192.501 7.22197 191.535 7.7023C190.646 8.1443 189.752 8.43304 188.797 8.70897C187.121 9.19185 186.395 6.4708 188.081 6.11311Z" fill="#BA5904"/>
<path d="M83.9569 72.4955C86.2665 71.0801 88.5762 69.662 90.8859 68.2466C91.5885 67.8148 92.5977 67.7995 93.3003 68.2466C94.146 68.7857 94.4321 69.307 94.4858 70.3136C94.5292 71.1286 94.0055 71.9896 93.3003 72.3779C90.9293 73.6912 88.5609 75.0045 86.1924 76.3177C83.6937 77.6999 81.5271 73.985 83.9569 72.4955Z" fill="#BA5904"/>
<path d="M106.926 65.6461C109.341 64.9128 112.235 63.4462 114.772 64.0237C115.807 64.2587 116.129 65.6562 115.393 66.3742C113.541 68.1779 110.286 68.4233 107.864 69.0492C105.659 69.619 104.754 66.3052 106.926 65.6461Z" fill="#BA5904"/>
<path d="M131.253 63.3822C133.585 62.8968 135.898 62.1635 138.281 62.5442C139.178 62.6873 139.163 63.9341 138.516 64.348C136.59 65.5846 134.25 65.8069 132.045 66.2667C130.169 66.6576 129.367 63.7757 131.253 63.3822Z" fill="#BA5904"/>
<path d="M150.16 63.4684C152.429 63.2155 154.381 63.5195 156.346 64.705C157.03 65.1189 156.806 66.4143 155.909 66.3223C154.011 66.1281 152.059 66.0106 150.16 66.2201C148.403 66.4143 148.415 63.6626 150.16 63.4684Z" fill="#BA5904"/>
<path d="M177.731 66.7087C179.997 67.6924 182.256 68.6249 184.402 69.8564C185.299 70.3725 184.663 71.6091 183.733 71.443C181.275 71.0036 178.924 70.2627 176.53 69.5524C174.423 68.929 175.616 65.7915 177.731 66.7087Z" fill="#BA5904"/>
<path d="M203.989 74.8259C205.578 75.508 207.277 76.0395 208.447 77.3732C209.152 78.178 208.675 79.4222 207.581 79.4656C205.675 79.5423 203.948 78.5535 202.239 77.8228C200.192 76.9439 201.958 73.9546 203.989 74.8259Z" fill="#BA5904"/>
<path d="M217.793 77.9324C219.957 78.0423 223.02 78.5737 223.996 80.7888C224.333 81.5528 223.968 82.866 222.885 82.7255C221.073 82.4853 219.637 81.2793 217.793 81.0443C215.866 80.8015 215.744 77.8276 217.793 77.9324Z" fill="#BA5904"/>
<path d="M237.571 84.8355C235.647 84.8355 235.642 81.8438 237.571 81.8438C239.495 81.8437 239.5 84.8355 237.571 84.8355Z" fill="#BA5904"/>
<path d="M180.455 119.172C180.089 119.713 187.098 127.958 187.647 128.686C190.266 132.151 193.477 135.59 195.421 139.476C196.229 141.09 194.256 142.736 192.884 141.433C189.236 137.963 186.541 133.216 183.592 129.141C181.679 126.499 177.077 122.286 177.43 118.776C177.504 118.035 178.058 117.194 178.924 117.281C179.083 117.296 179.241 117.312 179.397 117.33C180.245 117.411 181.024 118.329 180.455 119.172Z" fill="#BA5904"/>
<path d="M192.682 116.734C195.837 119.848 198.801 123.129 201.527 126.627C203.499 129.159 206.91 132.35 206.767 135.715C206.729 136.637 205.786 137.184 204.966 136.747C202.13 135.232 200.909 131.049 199.243 128.39C196.928 124.698 194.358 121.192 191.581 117.833C190.955 117.074 191.956 116.016 192.682 116.734Z" fill="#BA5904"/>
<path d="M207.274 112.761C208.771 115.06 210.442 117.214 212.348 119.192C213.646 120.538 216.571 122.084 216.321 124.166C216.265 124.636 216.027 125.081 215.531 125.203C213.137 125.806 211.318 122.62 210.02 120.993C208.245 118.765 206.702 116.389 205.363 113.875C204.691 112.615 206.5 111.568 207.274 112.761Z" fill="#BA5904"/>
<path d="M218.705 108.425C219.343 110.03 220.268 111.504 221.461 112.751C222.494 113.829 224.004 114.555 224.691 115.899C225.151 116.798 224.601 118.065 223.477 118.014C219.652 117.843 216.857 112.373 215.82 109.223C215.207 107.358 218.01 106.68 218.705 108.425Z" fill="#BA5904"/>
<path d="M228.362 105.883C230.488 107.252 232.706 108.54 234.701 110.093C236.617 111.586 234.142 114.713 232.118 113.441C230.128 112.191 228.301 110.612 226.431 109.187C224.53 107.74 226.234 104.514 228.362 105.883Z" fill="#BA5904"/>
<path d="M246.502 108.862C244.039 108.862 244.034 105.035 246.502 105.035C248.965 105.032 248.97 108.862 246.502 108.862Z" fill="#BA5904"/>
<path d="M43.2279 94.6419C44.0684 94.3327 43.2969 94.7058 43.0311 95.2576C42.6505 96.0522 42.4589 97.2964 42.395 98.1702C42.3132 99.2739 42.5585 101.228 43.7848 99.8641C44.6867 98.86 45.4558 96.7088 45.0521 95.3751C44.6126 93.9188 44.1323 95.1554 42.6351 95.1324C41.1226 95.1094 39.9678 93.9035 39.9141 92.4114C39.8068 89.555 42.745 88.2724 45.2156 88.533C47.745 88.8013 49.7941 90.462 50.6883 92.8253C52.3873 97.3118 50.1492 103.985 45.6116 105.97C39.9295 108.456 36 102.455 36.7026 97.4012C37.0143 95.1656 37.7246 92.1099 39.9065 90.8963C41.8687 89.8054 44.2524 90.7686 44.4364 93.0553C44.4977 93.8141 43.8743 94.4043 43.2279 94.6419Z" fill="#482600"/>
<path d="M41.4878 95.0526C40.6983 96.8155 39.0887 97.8273 39.2778 99.9607C39.4106 101.483 40.4377 102.684 41.9579 102.955C43.662 103.262 45.5322 102.48 46.3447 100.937C47.2951 99.1278 46.7561 97.2371 46.0381 95.4588C45.5936 94.3577 46.1965 93.2105 46.8506 92.3828C47.193 91.951 47.7167 91.6852 48.2456 91.5702C49.6636 91.2611 51.0407 91.7848 51.8174 93.024C56.7714 100.914 49.3646 111.348 40.2946 109.046C36.2962 108.032 33.5879 104.554 33.2737 100.495C32.9696 96.5575 35.3687 92.0199 39.7044 91.951C41.4035 91.9203 42.0958 93.6883 41.4878 95.0526Z" fill="#482600"/>
<path d="M7.02863 92.0531C-3.33418 101.422 10.3194 113.497 14.2974 121.854C14.6347 122.564 13.9576 123.221 13.255 122.896C7.48854 120.237 3.74812 111.138 2.00566 105.374C0.329624 99.8328 0.901898 94.0587 6.2136 90.9928C6.86 90.6223 7.6086 91.5293 7.02863 92.0531Z" fill="#482600"/>
<path d="M1.77798 109.514C2.11523 118.29 12.731 124.859 18.1423 131.062C22.5905 136.159 26.9568 141.323 32.1101 145.73C33.85 147.217 31.3488 149.647 29.614 148.226C22.966 142.779 17.9814 135.459 12.2839 129.09C7.02837 123.211 -0.927674 118.385 0.222046 109.516C0.347237 108.548 1.73966 108.484 1.77798 109.514Z" fill="#713C00"/>
<path d="M28.7045 114.813C34.8849 120.868 43.9217 125.025 52.4552 121.446C61.9468 117.465 62.1614 108.285 61.7654 99.3428C61.6555 96.8313 65.3193 96.9565 65.5927 99.3428C66.8114 109.936 65.1404 120.901 53.983 125.061C43.8757 128.827 34.1389 123.507 27.9023 115.615C27.4577 115.058 28.168 114.287 28.7045 114.813Z" fill="#713C00"/>
<path d="M51.3533 141.407C67.7815 140.495 67.3829 120.837 69.8076 108.744C70.408 105.75 75.62 106.381 75.2138 109.475C73.7038 120.934 69.8919 151.087 50.9419 144.46C49.2838 143.882 49.5648 141.506 51.3533 141.407Z" fill="#915603"/>
<path d="M103.135 142.83C104.653 145.758 106.255 148.64 107.977 151.453C109.497 153.936 111.603 156.335 112.474 159.128C112.699 159.846 111.817 160.188 111.324 159.797C109.04 157.986 107.635 154.986 106.176 152.505C104.502 149.662 102.951 146.752 101.485 143.796C100.938 142.699 102.566 141.731 103.135 142.83Z" fill="#915603"/>
<path d="M120.866 135.293C122.616 140.199 124.857 144.872 127.703 149.235C129.954 152.687 134.246 155.985 135.122 160.025C135.345 161.054 134.44 162.199 133.319 161.829C129.072 160.421 126.456 154.884 124.359 151.19C121.65 146.415 119.614 141.323 118.096 136.054C117.58 134.261 120.253 133.574 120.866 135.293Z" fill="#915603"/>
<path d="M136.688 122.204C139.01 127.697 141.56 133.075 144.429 138.305C146.93 142.863 150.724 147.515 151.828 152.625C152.084 153.811 150.806 154.411 149.93 153.732C145.571 150.359 143.124 144.097 140.809 139.202C138.346 133.992 136.182 128.658 134.227 123.241C133.716 121.823 136.092 120.793 136.688 122.204Z" fill="#915603"/>
<path d="M81.6944 115.866C79.3004 112.419 79.5968 107.125 79.5968 103.076C79.5942 98.8933 79.1037 93.7757 81.4031 90.1452C82.1568 88.9571 83.861 89.228 84.3004 90.5233C85.6162 94.389 84.4103 99.0031 84.4307 103.073C84.4486 107.097 85.5319 111.755 84.1011 115.549C83.6898 116.637 82.3638 116.829 81.6944 115.866Z" fill="#915603"/>
<path d="M94.4024 110.786C94.3564 114.057 95.1101 117.053 96.7504 119.884C98.4213 122.771 93.7228 124.953 92.4428 121.701C91.0043 118.042 90.6773 114.235 91.2905 110.365C91.5716 108.579 94.428 109.031 94.4024 110.786Z" fill="#915603"/>
<path d="M107.544 117.863C107.923 118.954 108.605 119.649 109.565 120.257C112.739 122.266 109.412 126.818 106.361 124.409C104.703 123.098 103.635 121.103 103.331 119.023C102.933 116.29 106.599 115.147 107.544 117.863Z" fill="#915603"/>
<path d="M31.6043 99.0592C29.1337 110.326 41.5481 119.706 50.8557 111.481C55.1863 107.654 55.3882 100.97 53.6329 95.7787C52.2226 91.609 48.7683 90.7481 46.7781 87.4165C46.3258 86.6602 46.6452 85.7583 47.335 85.2882C52.8869 81.5171 58.196 90.6817 59.4914 94.9612C61.8138 102.621 60.2476 111.834 53.4336 116.637C40.8327 125.518 24.126 113.073 29.5271 98.4869C30.0049 97.1967 31.9058 97.6872 31.6043 99.0592Z" fill="#9E5D03"/>
<path d="M16.3671 96.6959C15.8484 100.699 15.4882 104.69 16.7912 108.602C17.8668 111.834 21.4872 114.524 21.4667 117.887C21.4616 118.771 20.7565 119.384 19.9108 119.443C15.6134 119.747 13.0125 113.303 12.0263 109.915C10.6696 105.245 10.7718 100.099 13.411 95.8962C14.1724 94.6903 16.5843 95.0326 16.3671 96.6959Z" fill="#9E5D03"/>
<path d="M23.4988 124.524C25.9311 128.377 28.8821 131.813 32.4156 134.698C34.1504 136.113 36.0053 137.396 37.9163 138.558C39.5183 139.532 40.7523 139.936 41.0896 141.885C41.1943 142.488 41.0334 143.288 40.4023 143.574C36.7155 145.25 32.2546 140.597 29.7022 138.203C26.0155 134.744 23.0032 130.653 20.6552 126.185C19.6741 124.31 22.367 122.731 23.4988 124.524Z" fill="#9E5D03"/>
<path d="M46.6336 148.065C50.3817 149.164 54.1911 150.02 58.0516 150.612C59.8324 150.886 61.6924 151.19 63.509 151.175C65.6525 151.157 67.3618 150.252 69.4108 149.915C70.9898 149.654 72.5559 151.2 71.6055 152.771C66.8738 160.602 51.3194 153.919 45.4328 150.909C43.859 150.101 44.9525 147.572 46.6336 148.065Z" fill="#9E5D03"/>
<path d="M71.6754 158.254C73.0397 158.359 74.2175 158.221 75.5231 157.792C78.474 156.818 79.8307 161.662 76.8082 162.452C74.8741 162.958 73.0397 162.994 71.0724 162.72C68.5532 162.368 69.1281 158.063 71.6754 158.254Z" fill="#9E5D03"/>
<path d="M45.3235 76.2538C52.2346 74.6391 63.3255 76.8823 65.9597 84.5241C66.2969 85.5052 65.0271 86.0188 64.3603 85.4542C61.813 83.3055 60.0475 80.7761 56.9867 79.1563C53.4609 77.2912 49.5647 76.7955 45.6582 77.4649C44.8738 77.6003 44.5238 76.4403 45.3235 76.2538Z" fill="#9E5D03"/>
<g filter="url(#filter0_d_147_1069)">
<path d="M77.5275 60.2113C78.2837 60.4898 79.0247 60.758 79.7222 61.1668C81.0405 61.9409 81.0405 63.9031 79.7222 64.6798C79.0272 65.0886 78.2837 65.3569 77.5275 65.6354C73.0257 67.2935 72.995 58.5378 77.5275 60.2113Z" fill="#FFE492"/>
</g>
<g filter="url(#filter1_d_147_1069)">
<path d="M87.0443 54.6823C88.7228 55.6583 91.2931 56.9971 91.3008 59.179C91.3033 59.6568 90.9303 60.2496 90.4218 60.3339C88.1991 60.7018 86.5486 58.594 85.2302 57.0303C84.1827 55.7835 85.4985 53.783 87.0443 54.6823Z" fill="#FFE492"/>
</g>
<g filter="url(#filter2_d_147_1069)">
<path d="M101.609 50.0833C102.513 51.7133 103.791 53.374 103.801 55.2979C103.803 55.9724 103.001 56.4911 102.406 56.0976C100.806 55.045 100.106 53.1159 99.2325 51.4731C98.4022 49.9121 100.748 48.5299 101.609 50.0833Z" fill="#FFE492"/>
</g>
<g filter="url(#filter3_d_147_1069)">
<path d="M116.778 48.5659C117.516 50.1602 118.295 51.7418 118.942 53.3769C119.959 55.9498 115.572 57.2629 114.731 54.5368C114.264 53.0243 113.932 51.4633 113.553 49.9252C113.094 48.0678 115.906 46.6804 116.778 48.5659Z" fill="#FFE492"/>
</g>
<g filter="url(#filter4_d_147_1069)">
<path d="M133.095 42.5721C133.343 43.796 133.593 45.0172 133.833 46.241C134.022 47.2017 133.721 48.354 132.775 48.8394C132.134 49.1664 131.697 49.1945 131.002 49.0719C129.937 48.8803 129.418 47.8021 129.313 46.8542C129.178 45.6151 129.05 44.3759 128.923 43.1367C128.677 40.7657 132.622 40.2344 133.095 42.5721Z" fill="#FFE492"/>
</g>
<g filter="url(#filter5_d_147_1069)">
<path d="M148.3 41.8646C148.318 44.0644 149.003 47.2862 146.974 48.717C146.632 48.9597 146.019 48.9597 145.677 48.717C143.643 47.2811 144.335 44.067 144.351 41.8646C144.374 39.325 148.28 39.3199 148.3 41.8646Z" fill="#FFE492"/>
</g>
<g filter="url(#filter6_d_147_1069)">
<path d="M156.551 51.55C157.55 47.7687 158.628 42.8019 161.786 40.2061C162.581 39.5546 164.039 39.9071 163.981 41.1156C163.792 45.04 161.502 48.8519 160.473 52.6332C159.788 55.155 155.882 54.087 156.551 51.55Z" fill="#FFE492"/>
</g>
<g filter="url(#filter7_d_147_1069)">
<path d="M176.471 49.7592C177.334 52.6718 177.866 56.1082 176.946 59.0744C176.175 61.5655 171.969 61.2641 172.194 58.4306C172.414 55.6611 173.208 52.9426 173.477 50.1654C173.632 48.5124 175.955 48.0218 176.471 49.7592Z" fill="#FFE492"/>
</g>
<g filter="url(#filter8_d_147_1069)">
<path d="M192.506 55.2651C192.583 57.1558 192.659 59.0464 192.736 60.9371C192.859 64.003 187.848 64.0081 187.971 60.9371C188.048 59.0464 188.124 57.1558 188.199 55.2651C188.311 52.4956 192.396 52.4905 192.506 55.2651Z" fill="#FFE492"/>
</g>
<g filter="url(#filter9_d_147_1069)">
<path d="M205.938 59.7314C206.04 61.6169 206.203 63.5127 206.211 65.4033C206.224 68.5638 201.285 68.5689 201.298 65.4033C201.305 63.5127 201.469 61.6194 201.571 59.7314C201.722 56.9235 205.784 56.9184 205.938 59.7314Z" fill="#FFE492"/>
</g>
<g filter="url(#filter10_d_147_1069)">
<path d="M216.516 64.3018C216.8 65.5409 217.134 66.7571 217.201 68.032C217.252 69.0156 216.501 69.7413 215.658 70.0606C215.489 70.1245 215.279 70.1372 215.098 70.1347C214.16 70.1321 213.33 69.4806 213.069 68.5915C212.714 67.383 212.663 66.0928 212.523 64.8434C212.262 62.5593 216.013 62.0918 216.516 64.3018Z" fill="#FFE492"/>
</g>
<g filter="url(#filter11_d_147_1069)">
<path d="M232.667 68.6627C232.695 70.3515 232.741 72.0045 232.58 73.6882C232.251 77.1092 227.58 77.1169 227.25 73.6882C227.087 72.0045 227.136 70.3515 227.164 68.6627C227.225 65.1241 232.606 65.1164 232.667 68.6627Z" fill="#FFE492"/>
</g>
<g filter="url(#filter12_d_147_1069)">
<path d="M245.39 71.7443C245.863 72.9834 246.402 74.2174 246.755 75.4975C247.848 79.4678 241.821 81.103 240.608 77.1914C240.214 75.9267 240.005 74.5981 239.736 73.3028C238.965 69.5649 244.054 68.244 245.39 71.7443Z" fill="#FFE492"/>
</g>
<g filter="url(#filter13_d_147_1069)">
<path d="M260.614 73.6936C261.179 74.3144 261.716 74.8918 262.104 75.643C263.542 78.4278 259.761 81.8488 257.518 79.1815C256.953 78.5121 256.567 77.8887 256.197 77.1018C254.93 74.3961 258.32 71.1667 260.614 73.6936Z" fill="#FFE492"/>
</g>
<path d="M100.519 82.0633C100.452 84.0562 100.23 86.0438 99.7955 87.9933C99.4378 89.5926 99.1415 91.5242 97.6366 92.4031C97.118 92.7071 96.4971 92.4133 96.3183 91.8666C95.8431 90.4052 96.6172 89.0076 96.9775 87.5794C97.4348 85.7654 97.6775 83.931 97.7669 82.0633C97.8512 80.303 100.577 80.2851 100.519 82.0633Z" fill="#D07A02"/>
<path d="M115.244 78.2618C115.474 81.154 115.21 84.1203 114.86 86.9972C114.579 89.3119 114.814 91.7237 112.625 93.0165C112.045 93.3589 111.13 93.2976 110.668 92.7636C108.964 90.8014 109.853 88.7626 110.328 86.3839C110.9 83.5224 111.59 80.6098 112.717 77.9195C113.269 76.6037 115.124 76.7416 115.244 78.2618Z" fill="#D07A02"/>
<path d="M130 76.3253C129.786 79.2047 129.571 82.0841 129.356 84.9609C129.185 87.2527 129.615 89.9073 127.693 91.4811C127.075 91.987 126.048 92.1863 125.453 91.4811C123.777 89.496 124.52 87.4035 124.793 84.9609C125.113 82.0815 125.435 79.2021 125.754 76.3253C126.05 73.6656 130.207 73.5634 130 76.3253Z" fill="#D07A02"/>
<path d="M145.84 77.6127C145.935 79.8329 145.802 82.0608 145.562 84.2708C145.342 86.2764 145.296 88.3281 143.796 89.8074C142.912 90.6812 141.372 90.5074 140.743 89.4139C139.688 87.5769 140.179 85.5917 140.508 83.5861C140.869 81.3914 141.336 79.2095 142.021 77.094C142.7 75.0041 145.746 75.3924 145.84 77.6127Z" fill="#D07A02"/>
<path d="M159.749 76.9536C159.555 80.2239 159.361 83.4917 159.167 86.762C159.019 89.2582 159.517 92.2423 157.368 93.9081C156.778 94.368 155.912 94.5366 155.337 93.9081C153.436 91.8284 154.323 89.368 154.632 86.762C155.02 83.4917 155.411 80.2239 155.799 76.9536C156.093 74.4983 159.903 74.368 159.749 76.9536Z" fill="#D07A02"/>
<path d="M178.867 80.7857C178.98 83.7264 179.174 86.6773 179.174 89.6206C179.174 90.5353 178.489 91.5751 177.544 91.7617C177.122 91.8434 176.785 91.8434 176.363 91.7617C175.418 91.5751 174.733 90.5429 174.733 89.6206C174.731 86.6773 174.928 83.7264 175.04 80.7857C175.132 78.3253 178.775 78.3202 178.867 80.7857Z" fill="#D07A02"/>
<path d="M193.204 83.9797C193.212 86.7696 193.736 89.4753 194.007 92.2422C194.293 95.1651 189.725 95.6404 188.981 92.9219C188.115 89.764 188.399 86.5958 188.917 83.3996C189.318 80.9239 193.199 81.5806 193.204 83.9797Z" fill="#D07A02"/>
<path d="M206.121 84.8741C207.082 87.0841 208.04 89.2941 208.998 91.5041C210.61 95.2139 204.905 97.2885 204.051 93.5889C203.502 91.2077 202.953 88.824 202.404 86.4428C201.916 84.3171 205.163 82.6641 206.121 84.8741Z" fill="#D07A02"/>
<path d="M215.877 90.7757C212.875 90.7757 212.87 86.1104 215.877 86.1104C218.879 86.1104 218.885 90.7757 215.877 90.7757Z" fill="#D07A02"/>
<path d="M254.16 94.7054C251.851 94.7054 251.848 91.1157 254.16 91.1157C256.47 91.1157 256.475 94.7054 254.16 94.7054Z" fill="#D07A02"/>
<path d="M265.119 89.2996C266.617 87.3042 267.851 85.3088 269.992 83.9725C271.083 83.2904 272.485 84.4171 272.145 85.6282C271.504 87.8995 270.086 89.5167 268.684 91.3844C267.107 93.482 263.523 91.4279 265.119 89.2996Z" fill="#D07A02"/>
<path d="M168.013 122.159C169.602 124.289 171.193 126.418 172.783 128.548C174.339 130.633 176.234 132.7 177.325 135.071C177.877 136.269 176.526 137.381 175.493 136.484C173.562 134.808 172.113 132.44 170.583 130.408C168.881 128.152 167.182 125.894 165.481 123.638C164.346 122.136 166.894 120.661 168.013 122.159Z" fill="#D07A02"/>
<path d="M92.8284 104.371C139.218 111.19 184.648 98.1724 230.892 101.318C231.311 101.346 231.319 101.964 230.892 101.977C184.906 103.213 137.989 115.347 92.2561 106.45C90.8765 106.18 91.4896 104.174 92.8284 104.371Z" fill="#FFE5B0"/>
<path d="M238.22 102.552C244.459 101.313 252.448 99.2231 258.779 100.667C259.298 100.784 259.344 101.678 258.779 101.763C255.859 102.205 252.91 101.87 249.962 101.814C245.981 101.737 242.182 102.036 238.235 102.611C238.197 102.613 238.181 102.557 238.22 102.552Z" fill="#FFE5B0"/>
<path d="M200.198 31.9665C204.389 28.4535 208.918 25.4897 213.929 23.272C217.848 21.5372 222.575 19.2838 226.908 20.1678C227.508 20.2904 227.552 21.1361 227.071 21.4248C223.479 23.5914 218.745 23.829 214.81 25.3645C209.856 27.2986 205.334 29.9327 201.103 33.1392C200.434 33.6501 199.549 32.5107 200.198 31.9665Z" fill="white"/>
<path d="M203.956 37.9348C212.543 33.5224 222.712 27.9578 232.418 26.877C233.19 26.7902 233.473 27.991 232.812 28.3257C228.864 30.3236 224.477 31.3405 220.331 32.8734C215.065 34.8203 209.937 37.0712 204.894 39.5367C203.828 40.0579 202.888 38.4841 203.956 37.9348Z" fill="white"/>
<path d="M212.501 43.6833C216.237 42.342 219.969 41.0006 223.705 39.6593C226.934 38.4993 230.337 36.67 233.799 36.6675C234.767 36.6675 234.916 37.8351 234.251 38.3384C231.502 40.4309 227.639 41.0441 224.374 42.0865C220.603 43.2899 216.829 44.4958 213.058 45.6992C211.763 46.1182 211.247 44.1356 212.501 43.6833Z" fill="white"/>
<path d="M219.693 49.6647C221.573 48.704 223.456 47.7408 225.337 46.7802C227.02 45.9192 228.589 44.9023 230.485 44.6877C231.77 44.542 232.465 46.425 231.543 47.24C230.135 48.4817 228.267 48.9544 226.53 49.611C224.557 50.3571 222.585 51.1031 220.615 51.8491C219.35 52.332 218.494 50.2779 219.693 49.6647Z" fill="white"/>
<path d="M285.222 72.9836C297.274 67.9708 310.636 62.0332 323.748 60.7889C324.982 60.6714 324.993 62.3985 324.019 62.7868C311.676 67.7179 298.25 70.1553 285.718 74.772C284.576 75.1885 284.147 73.4281 285.222 72.9836Z" fill="white"/>
<path d="M285.733 80.1528C300.447 77.677 315.822 73.929 330.748 73.4844C331.936 73.4486 332.159 75.2269 331.027 75.5411C316.648 79.5191 300.835 80.467 286.042 82.4445C284.752 82.6157 284.438 80.3699 285.733 80.1528Z" fill="white"/>
<path d="M286.065 87.1296C295.661 87.1807 306.274 85.9799 315.651 88.2614C316.479 88.4633 316.535 89.825 315.651 89.9911C306.167 91.7693 295.646 90.0345 286.065 89.5823C284.496 89.5082 284.476 87.1219 286.065 87.1296Z" fill="white"/>
<path d="M285.175 95.3361C295.599 97.6074 306.082 97.2958 316.49 98.9974C318.062 99.2529 318.059 101.91 316.49 102.171C306.123 103.885 294.352 100.954 284.411 98.1057C282.625 97.5921 283.373 94.9452 285.175 95.3361Z" fill="white"/>
<path d="M285.803 110.045C289.02 111.2 292.196 112.455 295.323 113.837C298.226 115.119 302.152 116.297 304.179 118.806C304.753 119.519 304.488 121.039 303.312 120.899C300.441 120.559 298.062 118.717 295.499 117.429C292.089 115.715 288.604 114.172 285.057 112.756C283.412 112.102 284.076 109.424 285.803 110.045Z" fill="white"/>
<path d="M196.091 154.807C201.439 159.043 207.371 161.974 213.043 165.671C213.666 166.077 213.288 167.183 212.512 166.928C206.03 164.795 200.092 160.311 194.821 156.075C193.919 155.352 195.197 154.1 196.091 154.807Z" fill="white"/>
<path d="M202.366 150.073C204.992 151.64 207.683 153.076 210.478 154.315C213.263 155.549 216.267 156.305 218.986 157.654C220.161 158.236 219.272 159.803 218.155 159.621C212.305 158.668 206.275 154.956 201.339 151.829C200.238 151.131 201.237 149.399 202.366 150.073Z" fill="white"/>
<path d="M209.884 147.669C214.991 148.824 221.795 149.861 226.12 152.971C226.989 153.597 226.841 155.401 225.502 155.255C222.799 154.961 220.316 153.796 217.738 152.968C214.884 152.051 211.999 151.259 209.089 150.551C207.214 150.099 208.008 147.245 209.884 147.669Z" fill="white"/>
<path d="M216.843 140.853C219.72 141.995 222.678 142.516 225.726 142.969C226.942 143.15 226.569 144.972 225.448 145.025C222.254 145.176 219.147 144.392 216.191 143.219C214.743 142.642 215.374 140.271 216.843 140.853Z" fill="white"/>
<path d="M224.5 136.389C226.623 136.803 229.173 136.926 231.089 137.948C232.109 138.492 231.531 139.861 230.545 139.953C228.396 140.155 225.936 139.243 223.831 138.811C222.246 138.484 222.921 136.08 224.5 136.389Z" fill="white"/>
<path d="M229.276 128.928C231.047 129.11 232.868 129.066 234.422 130.017C235.398 130.614 235.234 132.168 234.1 132.477C232.332 132.96 230.607 132.423 228.847 132.101C227.076 131.774 227.459 128.742 229.276 128.928Z" fill="white"/>
<path d="M242.037 124.304C240.228 124.304 240.225 121.494 242.037 121.494C243.846 121.494 243.848 124.304 242.037 124.304Z" fill="white"/>
<path d="M141.224 176.425C144.737 176.632 148.268 176.708 151.743 177.283C153.089 177.505 152.69 179.524 151.433 179.575C148.03 179.71 144.619 179.34 141.224 179.115C139.507 179.005 139.487 176.325 141.224 176.425Z" fill="white"/>
<path d="M134.053 27.6743C136.504 25.1372 139.299 21.8464 142.804 20.8194C143.939 20.4872 144.909 21.7927 144.324 22.7968C142.572 25.8014 139.135 27.9118 136.593 30.2138C134.884 31.757 132.439 29.3452 134.053 27.6743Z" fill="white"/>
<path d="M144.152 29.4859C147.358 26.5196 150.352 23.4766 154.141 21.2666C154.885 20.8323 155.999 21.7623 155.411 22.5339C152.757 26.0162 149.433 28.6121 146.098 31.4302C144.762 32.5595 142.833 30.702 144.152 29.4859Z" fill="white"/>
<path d="M157.07 26.563C159.418 24.823 161.697 23.1624 164.308 21.8364C165.284 21.3407 166.321 22.562 165.503 23.3872C163.365 25.5487 160.984 27.2732 158.518 29.0412C157.008 30.1271 155.608 27.6488 157.07 26.563Z" fill="white"/>
<path d="M85.883 50.3719C87.4543 49.9657 88.7829 49.3372 90.2979 50.1446C91.2152 50.6351 91.1819 51.7874 90.5994 52.4926C89.6388 53.6602 88.231 53.5733 86.8207 53.7751C84.6414 54.0868 83.6194 50.957 85.883 50.3719Z" fill="white"/>
<path d="M101.026 46.3611C101.686 46.2998 102.34 46.0187 103.006 45.9319C103.423 45.8782 103.982 46.3023 104.044 46.7213C104.302 48.4817 103.157 49.5752 101.519 50.0018C98.962 50.6687 98.2798 46.614 101.026 46.3611Z" fill="white"/>
<path d="M117.122 41.3178C118.111 40.9652 118.947 40.8579 119.946 41.1619C120.799 41.4225 121.369 42.5058 120.822 43.3157C120.13 44.3402 119.353 44.7695 118.188 45.1834C115.753 46.047 114.706 42.1762 117.122 41.3178Z" fill="white"/>
<path d="M131.196 38.87C131.893 38.5992 132.22 38.5531 132.961 38.5455C133.981 38.5353 134.911 39.8357 134.226 40.7504C133.723 41.4249 133.339 41.8005 132.624 42.2604C130.457 43.6528 128.585 39.8894 131.196 38.87Z" fill="white"/>
<path d="M147.364 36.5936C148.174 36.7648 148.956 36.9615 149.75 37.1991C150.575 37.4469 150.575 38.6248 149.75 38.8726C148.958 39.1102 148.174 39.3069 147.364 39.4781C144.955 39.9865 144.939 36.0826 147.364 36.5936Z" fill="white"/>
<path d="M165.721 38.3871C166.265 38.7576 166.809 39.1281 167.353 39.5011C168.235 40.1015 167.977 41.6523 166.779 41.6191C166.14 41.6012 165.499 41.5833 164.86 41.5654C161.863 41.4811 163.49 36.867 165.721 38.3871Z" fill="white"/>
<path d="M179.469 42.9141C181.007 43.4277 184.762 44.166 184.024 46.6111C183.268 49.1098 179.862 47.4925 178.357 46.9534C175.846 46.0516 176.888 42.0531 179.469 42.9141Z" fill="white"/>
<path d="M194.182 54.3756C191.218 54.3756 191.213 49.769 194.182 49.769C197.145 49.7716 197.15 54.3756 194.182 54.3756Z" fill="white"/>
<path d="M209.497 59.5217C207.302 59.5217 207.299 56.1108 209.497 56.1108C211.689 56.1134 211.694 59.5217 209.497 59.5217Z" fill="white"/>
<path d="M84.4362 80.2086C81.8966 80.2086 81.8915 76.2612 84.4362 76.2612C86.9783 76.2612 86.9809 80.2086 84.4362 80.2086Z" fill="white"/>
<path d="M92.7301 70.6689C93.9232 70.6255 95.75 70.927 95.75 72.4932C95.75 74.0517 93.9207 74.3608 92.7301 74.3174C90.3821 74.2305 90.3795 70.7532 92.7301 70.6689Z" fill="white"/>
<path d="M105.362 69.371C106.233 69.5754 106.716 69.8437 107.189 70.5974C107.414 70.9576 107.414 71.4737 107.189 71.834C106.701 72.6158 106.246 72.8533 105.362 73.0603C102.278 73.791 102.26 68.6377 105.362 69.371Z" fill="white"/>
<path d="M122.11 66.6012C122.772 66.5679 123.37 66.5424 124.029 66.6062C125.23 66.7238 126.188 68.2542 125.107 69.2097C124.504 69.7437 123.871 70.1755 123.196 70.6124C120.363 72.452 118.326 66.7979 122.11 66.6012Z" fill="white"/>
<path d="M148.889 64.5798C151.598 63.3509 153.565 65.285 152.326 68.0162C150.568 71.8946 144.985 66.3504 148.889 64.5798Z" fill="white"/>
<path d="M136.745 66.6241C137.381 66.6778 138.018 66.7289 138.654 66.78C139.614 66.8592 140.322 68.0702 139.499 68.8213C139.052 69.2276 138.608 69.6364 138.161 70.0426C135.118 72.8198 133.242 66.3354 136.745 66.6241Z" fill="white"/>
<path d="M169.378 68.5255C170.895 68.1295 172.508 67.4473 173.905 68.4565C174.598 68.9573 174.942 69.826 174.475 70.6257C173.578 72.1561 172.076 72.197 170.461 72.4474C167.939 72.8408 166.782 69.2 169.378 68.5255Z" fill="white"/>
<path d="M190.917 72.9966C191.497 73.2138 192.075 73.4335 192.649 73.6609C194.004 74.1975 194.006 75.8913 192.649 76.4304C192.075 76.6578 191.497 76.8776 190.917 77.0947C187.519 78.3697 187.496 71.7115 190.917 72.9966Z" fill="white"/>
<path d="M207.503 79.4066C208.911 79.708 211.939 80.2292 211.348 82.3984C210.766 84.5419 207.876 83.7218 206.389 83.4459C203.76 82.9553 204.854 78.8394 207.503 79.4066Z" fill="white"/>
<path d="M224.475 84.2715C225.083 84.6905 225.374 84.9026 225.834 85.4749C226.534 86.3461 226.172 87.9378 224.84 87.8739C224.135 87.8407 223.765 87.787 223.093 87.552C220.525 86.6501 222.413 82.8484 224.475 84.2715Z" fill="white"/>
<path d="M242.036 90.6485C238.38 90.6485 238.373 84.9663 242.036 84.9663C245.692 84.9638 245.7 90.6485 242.036 90.6485Z" fill="white"/>
<path d="M33.1281 89.4556C35.8031 86.4689 40.7392 82.501 45.0723 83.2266C45.7034 83.3314 45.7979 84.315 45.2512 84.5935C43.5266 85.4724 41.4367 85.5567 39.6201 86.3156C37.4255 87.2328 35.4096 88.3748 33.5956 89.9205C33.2711 90.1939 32.8419 89.7749 33.1281 89.4556Z" fill="white"/>
<path d="M229.92 54.1791C231.603 53.4229 233.374 52.2119 235.26 52.4852C235.809 52.5644 236.103 53.3692 235.796 53.8036C234.708 55.3416 232.574 55.7862 230.888 56.476C229.58 57.01 228.622 54.7617 229.92 54.1791Z" fill="white"/>
<defs>
<filter id="filter0_d_147_1069" x="68.1387" y="53.9976" width="18.5723" height="17.8477" filterUnits="userSpaceOnUse" color-interpolation-filters="sRGB">
<feFlood flood-opacity="0" result="BackgroundImageFix"/>
<feColorMatrix in="SourceAlpha" type="matrix" values="0 0 0 0 0 0 0 0 0 0 0 0 0 0 0 0 0 0 127 0" result="hardAlpha"/>
<feOffset/>
<feGaussianBlur stdDeviation="3"/>
<feComposite in2="hardAlpha" operator="out"/>
<feColorMatrix type="matrix" values="0 0 0 0 1 0 0 0 0 0.800824 0 0 0 0 0.371022 0 0 0 1 0"/>
<feBlend mode="normal" in2="BackgroundImageFix" result="effect1_dropShadow_147_1069"/>
<feBlend mode="normal" in="SourceGraphic" in2="effect1_dropShadow_147_1069" result="shape"/>
</filter>
<filter id="filter1_d_147_1069" x="78.8535" y="48.457" width="18.4473" height="17.9189" filterUnits="userSpaceOnUse" color-interpolation-filters="sRGB">
<feFlood flood-opacity="0" result="BackgroundImageFix"/>
<feColorMatrix in="SourceAlpha" type="matrix" values="0 0 0 0 0 0 0 0 0 0 0 0 0 0 0 0 0 0 127 0" result="hardAlpha"/>
<feOffset/>
<feGaussianBlur stdDeviation="3"/>
<feComposite in2="hardAlpha" operator="out"/>
<feColorMatrix type="matrix" values="0 0 0 0 1 0 0 0 0 0.800824 0 0 0 0 0.371022 0 0 0 1 0"/>
<feBlend mode="normal" in2="BackgroundImageFix" result="effect1_dropShadow_147_1069"/>
<feBlend mode="normal" in="SourceGraphic" in2="effect1_dropShadow_147_1069" result="shape"/>
</filter>
<filter id="filter2_d_147_1069" x="93.0566" y="43.4028" width="16.7441" height="18.8311" filterUnits="userSpaceOnUse" color-interpolation-filters="sRGB">
<feFlood flood-opacity="0" result="BackgroundImageFix"/>
<feColorMatrix in="SourceAlpha" type="matrix" values="0 0 0 0 0 0 0 0 0 0 0 0 0 0 0 0 0 0 127 0" result="hardAlpha"/>
<feOffset/>
<feGaussianBlur stdDeviation="3"/>
<feComposite in2="hardAlpha" operator="out"/>
<feColorMatrix type="matrix" values="0 0 0 0 1 0 0 0 0 0.800824 0 0 0 0 0.371022 0 0 0 1 0"/>
<feBlend mode="normal" in2="BackgroundImageFix" result="effect1_dropShadow_147_1069"/>
<feBlend mode="normal" in="SourceGraphic" in2="effect1_dropShadow_147_1069" result="shape"/>
</filter>
<filter id="filter3_d_147_1069" x="107.504" y="41.6675" width="17.5898" height="20.3809" filterUnits="userSpaceOnUse" color-interpolation-filters="sRGB">
<feFlood flood-opacity="0" result="BackgroundImageFix"/>
<feColorMatrix in="SourceAlpha" type="matrix" values="0 0 0 0 0 0 0 0 0 0 0 0 0 0 0 0 0 0 127 0" result="hardAlpha"/>
<feOffset/>
<feGaussianBlur stdDeviation="3"/>
<feComposite in2="hardAlpha" operator="out"/>
<feColorMatrix type="matrix" values="0 0 0 0 1 0 0 0 0 0.800824 0 0 0 0 0.371022 0 0 0 1 0"/>
<feBlend mode="normal" in2="BackgroundImageFix" result="effect1_dropShadow_147_1069"/>
<feBlend mode="normal" in="SourceGraphic" in2="effect1_dropShadow_147_1069" result="shape"/>
</filter>
<filter id="filter4_d_147_1069" x="122.912" y="35.0649" width="16.9746" height="20.0742" filterUnits="userSpaceOnUse" color-interpolation-filters="sRGB">
<feFlood flood-opacity="0" result="BackgroundImageFix"/>
<feColorMatrix in="SourceAlpha" type="matrix" values="0 0 0 0 0 0 0 0 0 0 0 0 0 0 0 0 0 0 127 0" result="hardAlpha"/>
<feOffset/>
<feGaussianBlur stdDeviation="3"/>
<feComposite in2="hardAlpha" operator="out"/>
<feColorMatrix type="matrix" values="0 0 0 0 1 0 0 0 0 0.800824 0 0 0 0 0.371022 0 0 0 1 0"/>
<feBlend mode="normal" in2="BackgroundImageFix" result="effect1_dropShadow_147_1069"/>
<feBlend mode="normal" in="SourceGraphic" in2="effect1_dropShadow_147_1069" result="shape"/>
</filter>
<filter id="filter5_d_147_1069" x="138.225" y="33.958" width="16.2012" height="20.9409" filterUnits="userSpaceOnUse" color-interpolation-filters="sRGB">
<feFlood flood-opacity="0" result="BackgroundImageFix"/>
<feColorMatrix in="SourceAlpha" type="matrix" values="0 0 0 0 0 0 0 0 0 0 0 0 0 0 0 0 0 0 127 0" result="hardAlpha"/>
<feOffset/>
<feGaussianBlur stdDeviation="3"/>
<feComposite in2="hardAlpha" operator="out"/>
<feColorMatrix type="matrix" values="0 0 0 0 1 0 0 0 0 0.800824 0 0 0 0 0.371022 0 0 0 1 0"/>
<feBlend mode="normal" in2="BackgroundImageFix" result="effect1_dropShadow_147_1069"/>
<feBlend mode="normal" in="SourceGraphic" in2="effect1_dropShadow_147_1069" result="shape"/>
</filter>
<filter id="filter6_d_147_1069" x="150.475" y="33.8838" width="19.5078" height="26.1885" filterUnits="userSpaceOnUse" color-interpolation-filters="sRGB">
<feFlood flood-opacity="0" result="BackgroundImageFix"/>
<feColorMatrix in="SourceAlpha" type="matrix" values="0 0 0 0 0 0 0 0 0 0 0 0 0 0 0 0 0 0 127 0" result="hardAlpha"/>
<feOffset/>
<feGaussianBlur stdDeviation="3"/>
<feComposite in2="hardAlpha" operator="out"/>
<feColorMatrix type="matrix" values="0 0 0 0 1 0 0 0 0 0.800824 0 0 0 0 0.371022 0 0 0 1 0"/>
<feBlend mode="normal" in2="BackgroundImageFix" result="effect1_dropShadow_147_1069"/>
<feBlend mode="normal" in="SourceGraphic" in2="effect1_dropShadow_147_1069" result="shape"/>
</filter>
<filter id="filter7_d_147_1069" x="166.186" y="42.6689" width="17.2422" height="24.0962" filterUnits="userSpaceOnUse" color-interpolation-filters="sRGB">
<feFlood flood-opacity="0" result="BackgroundImageFix"/>
<feColorMatrix in="SourceAlpha" type="matrix" values="0 0 0 0 0 0 0 0 0 0 0 0 0 0 0 0 0 0 127 0" result="hardAlpha"/>
<feOffset/>
<feGaussianBlur stdDeviation="3"/>
<feComposite in2="hardAlpha" operator="out"/>
<feColorMatrix type="matrix" values="0 0 0 0 1 0 0 0 0 0.800824 0 0 0 0 0.371022 0 0 0 1 0"/>
<feBlend mode="normal" in2="BackgroundImageFix" result="effect1_dropShadow_147_1069"/>
<feBlend mode="normal" in="SourceGraphic" in2="effect1_dropShadow_147_1069" result="shape"/>
</filter>
<filter id="filter8_d_147_1069" x="181.969" y="47.186" width="16.7695" height="22.0522" filterUnits="userSpaceOnUse" color-interpolation-filters="sRGB">
<feFlood flood-opacity="0" result="BackgroundImageFix"/>
<feColorMatrix in="SourceAlpha" type="matrix" values="0 0 0 0 0 0 0 0 0 0 0 0 0 0 0 0 0 0 127 0" result="hardAlpha"/>
<feOffset/>
<feGaussianBlur stdDeviation="3"/>
<feComposite in2="hardAlpha" operator="out"/>
<feColorMatrix type="matrix" values="0 0 0 0 1 0 0 0 0 0.800824 0 0 0 0 0.371022 0 0 0 1 0"/>
<feBlend mode="normal" in2="BackgroundImageFix" result="effect1_dropShadow_147_1069"/>
<feBlend mode="normal" in="SourceGraphic" in2="effect1_dropShadow_147_1069" result="shape"/>
</filter>
<filter id="filter9_d_147_1069" x="195.297" y="51.6235" width="16.9141" height="22.1519" filterUnits="userSpaceOnUse" color-interpolation-filters="sRGB">
<feFlood flood-opacity="0" result="BackgroundImageFix"/>
<feColorMatrix in="SourceAlpha" type="matrix" values="0 0 0 0 0 0 0 0 0 0 0 0 0 0 0 0 0 0 127 0" result="hardAlpha"/>
<feOffset/>
<feGaussianBlur stdDeviation="3"/>
<feComposite in2="hardAlpha" operator="out"/>
<feColorMatrix type="matrix" values="0 0 0 0 1 0 0 0 0 0.800824 0 0 0 0 0.371022 0 0 0 1 0"/>
<feBlend mode="normal" in2="BackgroundImageFix" result="effect1_dropShadow_147_1069"/>
<feBlend mode="normal" in="SourceGraphic" in2="effect1_dropShadow_147_1069" result="shape"/>
</filter>
<filter id="filter10_d_147_1069" x="206.51" y="56.8662" width="16.6934" height="19.2686" filterUnits="userSpaceOnUse" color-interpolation-filters="sRGB">
<feFlood flood-opacity="0" result="BackgroundImageFix"/>
<feColorMatrix in="SourceAlpha" type="matrix" values="0 0 0 0 0 0 0 0 0 0 0 0 0 0 0 0 0 0 127 0" result="hardAlpha"/>
<feOffset/>
<feGaussianBlur stdDeviation="3"/>
<feComposite in2="hardAlpha" operator="out"/>
<feColorMatrix type="matrix" values="0 0 0 0 1 0 0 0 0 0.800824 0 0 0 0 0.371022 0 0 0 1 0"/>
<feBlend mode="normal" in2="BackgroundImageFix" result="effect1_dropShadow_147_1069"/>
<feBlend mode="normal" in="SourceGraphic" in2="effect1_dropShadow_147_1069" result="shape"/>
</filter>
<filter id="filter11_d_147_1069" x="221.135" y="60.0059" width="17.5605" height="22.251" filterUnits="userSpaceOnUse" color-interpolation-filters="sRGB">
<feFlood flood-opacity="0" result="BackgroundImageFix"/>
<feColorMatrix in="SourceAlpha" type="matrix" values="0 0 0 0 0 0 0 0 0 0 0 0 0 0 0 0 0 0 127 0" result="hardAlpha"/>
<feOffset/>
<feGaussianBlur stdDeviation="3"/>
<feComposite in2="hardAlpha" operator="out"/>
<feColorMatrix type="matrix" values="0 0 0 0 1 0 0 0 0 0.800824 0 0 0 0 0.371022 0 0 0 1 0"/>
<feBlend mode="normal" in2="BackgroundImageFix" result="effect1_dropShadow_147_1069"/>
<feBlend mode="normal" in="SourceGraphic" in2="effect1_dropShadow_147_1069" result="shape"/>
</filter>
<filter id="filter12_d_147_1069" x="233.656" y="63.7041" width="19.2305" height="21.7241" filterUnits="userSpaceOnUse" color-interpolation-filters="sRGB">
<feFlood flood-opacity="0" result="BackgroundImageFix"/>
<feColorMatrix in="SourceAlpha" type="matrix" values="0 0 0 0 0 0 0 0 0 0 0 0 0 0 0 0 0 0 127 0" result="hardAlpha"/>
<feOffset/>
<feGaussianBlur stdDeviation="3"/>
<feComposite in2="hardAlpha" operator="out"/>
<feColorMatrix type="matrix" values="0 0 0 0 1 0 0 0 0 0.800824 0 0 0 0 0.371022 0 0 0 1 0"/>
<feBlend mode="normal" in2="BackgroundImageFix" result="effect1_dropShadow_147_1069"/>
<feBlend mode="normal" in="SourceGraphic" in2="effect1_dropShadow_147_1069" result="shape"/>
</filter>
<filter id="filter13_d_147_1069" x="249.922" y="66.7793" width="18.5" height="19.3667" filterUnits="userSpaceOnUse" color-interpolation-filters="sRGB">
<feFlood flood-opacity="0" result="BackgroundImageFix"/>
<feColorMatrix in="SourceAlpha" type="matrix" values="0 0 0 0 0 0 0 0 0 0 0 0 0 0 0 0 0 0 127 0" result="hardAlpha"/>
<feOffset/>
<feGaussianBlur stdDeviation="3"/>
<feComposite in2="hardAlpha" operator="out"/>
<feColorMatrix type="matrix" values="0 0 0 0 1 0 0 0 0 0.800824 0 0 0 0 0.371022 0 0 0 1 0"/>
<feBlend mode="normal" in2="BackgroundImageFix" result="effect1_dropShadow_147_1069"/>
<feBlend mode="normal" in="SourceGraphic" in2="effect1_dropShadow_147_1069" result="shape"/>
</filter>
</defs>
</svg>
