<svg width="100" height="271" viewBox="0 0 100 271" fill="none" xmlns="http://www.w3.org/2000/svg">
<path d="M74.7369 114.425C74.0241 118.661 73.2681 122.89 72.6103 127.135C71.896 131.745 73.1384 133.18 77.6802 132.924C78.919 132.854 80.2102 132.68 80.8898 133.799C82.8734 137.064 87.0684 139.118 86.4687 143.814C87.0283 147.755 86.7963 151.662 85.9544 155.54C82.6561 156.442 80.0024 154.46 80.234 151.145C80.3603 149.335 80.8453 147.556 80.9749 145.437C79.1662 146.049 77.3553 145.988 75.6434 146.279C74.0375 146.551 73.0926 148.43 71.4494 149.014C72.3166 148.706 73.1928 148.391 73.8108 147.694C75.341 145.968 77.1809 146.12 78.7438 147.297C80.5916 148.689 79.2412 150.349 78.5396 151.822C78.2039 152.526 77.5323 153.019 77.0697 153.647C76.2782 154.728 76.9284 155.991 76.6391 157.136C76.5029 157.483 76.2783 157.752 75.954 157.939C74.0019 157.909 71.7788 156.527 70.6708 159.737C70.216 161.055 68.7202 160.798 68.1837 159.208C67.9755 158.591 68.1625 157.9 68.0193 157.275C67.3467 154.332 64.7206 153.366 62.2388 155.098C60.8828 156.044 59.6387 157.348 57.7086 156.71C56.4179 155.42 56.5151 153.904 56.9866 152.326C58.049 151.08 57.9361 149.117 59.4957 148.165C62.5144 148.482 64.0913 146.055 66.7083 144.713C65.068 143.608 63.5262 145.134 62.4038 144.034C62.5734 142.366 63.1962 140.825 61.443 139.284C60.0963 138.101 60.1399 135.926 60.1705 134.071C60.1894 132.932 59.8829 131.352 61.3334 131.064C63.1883 130.696 63.2015 132.411 63.5479 134.026C63.4526 131.386 64.5286 129.258 64.5923 126.973C62.9111 126.361 61.0977 129.609 60.0962 127.078C59.113 124.594 61.8622 124.057 63.4908 123.189C64.5267 122.637 65.7291 122.457 66.8527 122.098C67.7219 121.82 68.9301 121.59 68.8488 120.516C68.5311 116.317 72.3514 115.579 74.5221 113.463C74.8575 113.725 74.9286 114.045 74.7369 114.425Z" fill="#C2C558"/>
<path d="M56.7851 232.885C56.6493 233.207 56.5135 233.529 56.3777 233.851C55.8008 234.518 55.8095 235.878 54.8685 235.953C52.1744 236.164 52.601 238.033 52.8895 239.59C53.2748 241.669 53.2386 243.638 52.4802 245.603C52.2445 245.913 51.9324 246.095 51.553 246.173C50.9683 246.163 50.4424 245.972 49.9512 245.669C48.4156 244.532 47.7895 242.696 46.5942 241.294C47.2925 236.569 49.4464 232.442 51.9002 228.439C52.0499 228.195 53.1757 228.144 51.862 227.742C49.7637 227.1 49.2511 225.361 49.6153 223.315C50.6621 221.684 52.3662 221.01 54.0395 220.299C55.5876 219.641 56.7078 218.71 56.4205 216.488C54.9438 216.799 53.5764 218.416 51.9339 216.656C50.1209 214.713 50.1459 212.814 51.069 210.634C51.3245 209.206 52.0236 207.952 52.6089 206.654C52.8636 206.009 53.0403 205.343 53.1732 204.663C53.6268 203.121 53.2742 201.509 53.5818 199.952C53.9154 199.062 54.3647 198.233 54.8796 197.434C56.0645 196.101 57.0348 194.367 59.3033 195.023C61.5647 197.368 59.8442 198.989 58.2864 200.642C56.9524 201.686 56.3644 203.005 56.7805 204.944C58.0512 203.235 59.787 202.204 60.6191 200.379C60.8127 199.871 60.9808 199.356 61.1174 198.829C61.5385 197.394 61.6168 195.733 63.4605 195.224C64.1036 195.231 64.5827 195.533 64.9499 196.043C65.9469 197.851 64.7381 199.494 64.5594 201.214C63.9368 203.849 63.7993 206.389 64.1695 209.19C64.7609 213.664 62.9067 217.982 60.4595 221.618C58.0875 225.141 56.7557 228.719 56.7851 232.885Z" fill="#A7AC3E"/>
<path d="M40.8719 10.577C41.0797 10.5439 41.289 10.5207 41.4989 10.5075C44.6851 14.8577 49.8714 17.6713 51.327 23.3701C51.5295 24.1625 51.8053 24.8498 51.382 25.6084C51.1354 25.9179 50.8122 26.1099 50.4228 26.1834C48.5342 25.3297 46.9086 24.0623 45.1389 22.7133C44.618 23.8938 45.7754 24.9434 45.2968 26.0109C42.6475 28.8706 41.7615 31.91 43.2844 35.8087C44.2041 38.163 41.7307 38.8809 40.0161 39.6769C39.5079 39.3883 39.1701 38.9494 38.9101 38.4397C37.6968 35.3164 37.2563 31.7987 34.3524 29.5321C34.1547 29.3778 33.9694 29.0982 33.9728 28.8596C34.0563 22.9219 28.3011 24.1503 25.4453 20.9991C24.7623 23.6066 27.6439 24.4676 26.5081 26.3255C24.7772 27.0414 23.4475 26.3235 22.2456 25.1451C21.4042 23.8474 21.3994 22.4104 21.722 20.988C21.9673 19.9071 21.8378 19.1521 21.1256 18.164C18.4265 14.4189 19.4472 11.3423 23.8481 9.29927C26.343 10.4395 27.41 12.6243 27.9991 15.1088C28.3339 16.5207 28.6319 17.9204 29.6701 19.0206C30.3249 19.7147 31.0279 20.2375 32.0765 19.9436C33.6848 19.4928 37.0973 14.6399 36.9354 12.8743C36.601 9.23428 39.1681 10.6673 40.8719 10.577Z" fill="#C7CB5E"/>
<path d="M40.8724 10.5769C40.6563 11.394 40.1082 11.5119 39.3851 11.2983C37.2772 10.6757 36.7549 11.589 38.0309 13.1144C39.6692 15.0729 39.3936 15.773 36.9599 16.4137C36.0279 16.6591 35.2609 17.9905 34.6734 18.9786C33.8103 20.4298 32.6593 21.841 31.0411 21.3601C29.4192 20.8779 27.8995 19.5258 27.6436 17.6023C27.2409 14.5734 25.7886 12.0656 24.1461 9.61212C23.372 9.14882 23.1341 8.46972 23.338 7.61122C24.3329 6.31925 25.743 6.57822 27.0902 6.60239C27.4658 6.70219 27.7623 6.92134 27.9897 7.2338C28.6216 8.72274 27.5033 10.381 28.467 11.8859C29.9563 10.3505 27.5284 7.04333 30.9242 6.39876C33.9146 5.86451 36.5788 6.37854 38.658 8.78502C39.3964 9.38225 40.1342 9.97962 40.8724 10.5769Z" fill="#D4D677"/>
<path d="M29.1023 115.813C27.1204 116.471 26.3029 114.867 25.2326 113.797C22.4065 110.97 20.0689 107.659 16.3219 105.768C15.1866 105.196 14.413 103.652 13.7813 102.398C12.8416 100.533 13.0873 97.9653 10.1387 97.4095C9.63469 97.3145 9.15266 95.5784 9.16452 94.6062C9.18581 92.8334 8.71787 91.3936 7.82252 89.8437C5.74681 86.2497 8.18041 82.8379 9.38511 79.8469C10.7317 76.5046 13.6099 73.6441 17.4076 72.3348C17.7387 72.5513 17.9642 72.8481 18.0861 73.2234C18.2316 74.6766 17.2413 75.6349 16.5531 76.7256C15.2259 78.8287 13.8908 80.9403 12.9925 83.2626C10.0338 90.9123 11.8705 97.5372 18.4683 103.119C19.8649 104.3 21.3414 105.387 22.68 106.637C23.6192 107.896 24.3551 109.352 25.9255 110.009C26.3474 110.346 26.6739 110.763 26.9506 111.221C27.6 112.454 28.4611 113.563 29.1175 114.796C29.2462 115.136 29.2337 115.475 29.1023 115.813Z" fill="#F8F8E9"/>
<path d="M51.1697 25.6314C50.7727 20.0317 45.8948 17.2655 43.2351 13.0968C42.6762 12.2211 42.0796 11.3695 41.4997 10.5068C45.3593 13.5471 48.7213 16.9049 51.4902 21.1237C54.4871 25.6896 57.1542 30.3378 59.6085 35.2045C61.6392 39.2311 62.8949 43.528 63.4653 47.7529C64.0867 52.3555 66.0566 56.2702 67.5114 60.4632C67.1062 61.0585 66.5429 61.2365 65.8561 61.0924C64.1736 58.7415 62.8981 56.1186 61.0511 53.8715C58.9734 45.5303 56.8028 37.2243 53.345 29.3092C52.7575 27.9642 51.6763 26.9813 51.1697 25.6314Z" fill="#EAEBC6"/>
<path d="M24.8581 265.082C19.3699 264.744 18.3757 263.026 15.619 259.193C11.7288 253.785 14.9905 249.902 16.8433 245.525C18.406 241.834 20.7954 238.516 21.83 234.582C22.3193 233.367 22.9951 232.421 24.5271 232.709C26.9688 235.03 23.7549 236.949 24.0775 239.121C23.5391 242.505 22.1733 245.594 20.6659 248.633C19.9757 249.877 19.2557 251.101 18.7833 252.46C17.3469 256.594 17.85 258.172 21.9591 260.145C23.7754 261.017 23.756 262.892 24.9261 264.035C25.0769 264.395 25.0443 264.744 24.8581 265.082Z" fill="#D3D697"/>
<path d="M85.6193 155.557C86.5512 151.689 85.2857 147.664 86.468 143.814C88.7697 148.793 87.487 153.877 85.9653 158.529C83.5239 165.993 80.0257 173.166 75.5841 179.633C72.9484 183.471 70.0854 187.096 67.7835 191.209C66.4636 193.568 67.1185 196.132 65.8542 198.298C65.023 197.892 65.0908 197.031 64.8541 196.325C63.8692 190.594 67.4116 186.62 70.2641 182.377C71.5987 180.715 72.918 179.039 74.0631 177.235C74.8938 175.47 75.803 173.75 76.9578 172.17C79.2489 168.489 79.2486 168.49 75.8766 166.954C75.1701 166.633 74.3456 166.312 74.5916 165.34C74.8007 164.514 75.6293 164.29 76.3563 163.996C77.9351 163.359 80.1138 164.755 81.1995 162.557C81.2197 161.51 80.3207 161.406 79.6622 161.06C79.3353 160.917 79.0422 160.73 78.7658 160.508C77.9488 157.476 79.3435 155.669 82.304 156.405C83.8076 156.779 84.7492 156.802 85.6193 155.557Z" fill="#CED271"/>
<path d="M25.1157 4.4452C26.625 6.08645 28.8286 5.32153 30.6078 6.02697C30.5059 6.19702 30.4036 6.36717 30.3017 6.53722C29.397 6.83988 28.5737 7.6327 27.5136 7.00075C25.3133 7.06283 23.0712 5.60251 20.9186 7.19791C20.5014 7.52544 19.9921 8.10102 19.5984 8.00376C15.4472 6.97592 14.4179 9.51223 12.5992 12.6607C10.2179 16.7831 8.96493 20.4261 11.639 24.4637C13.5588 27.3622 14.3303 30.5792 15.3694 33.755C18.4576 37.5848 21.0675 41.7883 24.5761 45.28C25.6779 46.3765 26.7894 47.4872 27.1985 49.0755C27.3157 49.7002 27.2696 50.2998 26.9269 50.8542C22.8231 50.0068 20.9771 46.35 18.6257 43.6195C15.6812 40.201 12.838 36.512 11.3299 32.0878C8.57989 29.5132 7.34131 26.0001 5.98091 22.6961C4.35855 18.7556 9.33461 8.0584 12.9976 5.81621C16.9143 3.41863 20.8912 3.25193 25.1157 4.4452Z" fill="#E5E7AB"/>
<path d="M25.1159 4.44567C22.3836 4.47282 19.527 3.99736 16.9463 4.63649C12.2168 5.8077 9.85658 9.57857 8.26587 13.985C5.83176 20.728 7.62777 26.5779 11.6723 32.0497C12.6413 34.5232 14.9574 36.4663 14.5948 39.4646C9.9732 34.0718 6.85447 27.6749 4.73357 21.1266C3.39419 16.991 3.5808 11.8408 7.40287 7.97059C8.52381 6.83527 9.73259 6.38693 11.0904 5.94247C12.4401 5.50068 14.0034 5.4201 14.7861 3.94627C15.7414 2.14756 16.8512 1.23787 18.7369 2.9447C19.358 3.50686 20.3855 3.53076 20.9665 3.02801C23.2601 1.0445 24.0525 3.0623 25.1159 4.44567Z" fill="#F7F7E5"/>
<path d="M30.8994 199.975C30.3852 195.445 29.8642 190.916 29.3592 186.386C28.986 183.035 26.9234 180.347 25.7439 177.313C24.1309 173.164 21.0704 169.675 20.0887 165.175C19.5706 162.801 16.6323 161.552 18.3142 157.939C20.1727 153.946 19.3932 153.584 22.6597 153.875C24.0909 154.957 22.8243 156.2 22.8785 157.366C22.7359 158.247 22.6033 159.129 22.5234 160.018C21.9902 163.68 23.719 166.835 24.794 170.131C26.7558 173.268 27.4472 177.09 30.073 179.872C30.8009 180.653 31.5391 181.519 31.5576 182.582C31.6286 186.671 33.3239 190.464 33.6223 194.503C33.6676 194.892 33.6691 195.282 33.6478 195.673C33.4323 197.219 33.1264 198.734 31.9642 199.906C31.6231 200.131 31.2674 200.153 30.8994 199.975Z" fill="#EFF0D4"/>
<path d="M51.4518 245.9C51.6826 245.809 51.9108 245.712 52.1367 245.609C52.7693 245.993 52.9216 246.529 52.6434 247.203C51.87 251.89 50.8363 256.431 46.1457 258.959C43.8416 260.2 42.5126 262.472 41.2583 264.504C38.773 268.529 34.2505 267.774 30.7938 269.356C29.9178 269.756 27.5504 266.898 25.8682 265.538C26.1279 264.963 26.6166 264.778 27.2003 264.749C28.138 264.852 28.9048 265.335 29.6568 265.847C30.7331 266.756 31.8354 266.501 32.9437 265.906C35.6465 264.953 37.9359 263.548 38.8737 260.618C39.504 258.648 41.19 258.03 43.0274 257.73C42.1039 255.78 38.9564 257.235 38.8855 254.508C40.2424 251.6 42.9925 250.858 45.4365 251.804C48.4649 252.976 49.0104 251.406 49.7608 249.353C50.2013 248.147 50.3968 246.81 51.4518 245.9Z" fill="#B9BD56"/>
<path d="M14.5955 39.4641C13.6211 36.9927 12.6471 34.5212 11.6727 32.0496C14.986 36.5914 17.6214 41.6331 21.691 45.6187C23.4262 47.3181 25.1426 49.037 26.8676 50.7468C27.5321 50.8986 28.2002 51.1979 28.4841 51.7807C31.0052 56.9563 31.5681 62.5124 31.5096 68.1681C31.5027 68.8195 31.0681 69.7163 30.5385 69.7879C26.1052 70.3877 22.5869 74.5175 17.6578 73.1238C17.5747 72.8609 17.4918 72.5975 17.4083 72.3346C19.6635 69.5494 23.0265 68.8597 26.1803 68.4543C29.5793 68.0174 29.6275 66.3303 28.9623 63.8765C28.4813 62.1025 28.0871 60.3584 28.0963 58.4762C28.1053 56.6373 27.1063 55.3221 25.9447 53.6853C22.4158 48.7118 16.7324 45.4669 14.5955 39.4641Z" fill="#F3F3DC"/>
<path d="M23.1902 239.172C22.5126 236.814 25.3904 235.339 24.7316 232.985C23.1805 230.29 26.1373 228.457 26.0617 226.044L26.0597 226.05C26.3366 224.903 26.0151 223.629 26.7984 222.59C27.1743 221.346 27.5502 220.102 27.9265 218.858C28.8862 217.254 28.84 215.47 28.9473 213.685C29.0889 211.32 30.2696 210.468 32.5227 211.63C34.434 214.032 33.5086 216.852 32.246 218.641C30.4244 221.222 31.5003 223.171 32.2056 225.403C32.6505 226.81 33.269 228.242 31.4698 229.164C29.0694 230.393 28.6541 232.367 29.0623 234.821C29.2939 236.213 29.5763 237.715 28.4531 238.955C26.7532 240.327 24.9363 238.87 23.1902 239.172Z" fill="#B3B757"/>
<path d="M28.3971 148.092C28.1779 146.876 28.6674 146.475 29.9006 146.533C33.3649 146.697 34.5672 144.468 34.5497 141.531C34.5166 135.963 34.4247 130.458 31.9106 125.163C30.5546 122.308 30.4549 118.856 29.7886 115.673C32.7602 115.624 33.0949 118.492 33.3147 120.012C34.2282 126.331 37.775 131.755 38.9253 137.939C39.0973 138.581 39.1472 139.237 39.1107 139.897C39.6301 145.159 37.6955 148.327 32.0497 149.097C29.2369 149.48 27.2963 152.348 24.3275 152.811C24.139 152.734 23.9509 152.654 23.7627 152.575C22.2835 150.98 23.1858 150.321 24.7993 149.942C25.6962 148.738 27.5375 149.369 28.3971 148.092Z" fill="#ECEDC8"/>
<path d="M74.0114 62.587C74.8148 63.4197 75.4692 64.5554 76.4465 65.0352C82.2971 67.9073 83.136 72.772 82.9634 78.7125C82.7739 85.2355 82.3246 91.6491 80.557 97.9207C79.5393 101.532 78.2422 105.064 77.0707 108.632C74.8988 106.417 76.6178 104.137 77.1895 102.056C79.0641 95.2304 80.6902 88.4067 80.0904 81.2527C80.1927 78.5972 78.8589 76.2405 78.5021 73.6839C78.3886 72.3794 78.1479 71.0993 77.6738 69.8701C77.374 69.0758 77.9397 68.0752 76.5094 67.5653C74.8267 66.9652 73.5747 65.5998 73.5166 63.561C73.5686 63.1782 73.7291 62.8515 74.0114 62.587Z" fill="#E1E3B1"/>
<path d="M80.8878 81.3269C82.182 89.5301 79.4434 97.1495 77.4266 104.865C77.0969 106.127 76.4938 107.308 77.0708 108.633C76.2921 110.563 75.5138 112.493 74.7356 114.424C74.6229 114.135 74.5099 113.845 74.3966 113.555C73.0828 110.943 75.5697 108.655 75.0265 106.108C75.1995 105.045 75.6254 104.033 75.6751 102.945C75.788 101.389 75.2041 100.232 73.7709 99.5362C72.5647 98.951 71.6714 98.114 71.5454 96.677C71.096 93.8367 72.5227 92.3991 75.1244 91.7154C76.3304 91.3982 77.6875 91.2641 78.454 90.0394C79.8073 87.3708 78.5001 84.2724 79.8232 81.6053C80.1191 81.2854 80.4745 81.1936 80.8878 81.3269Z" fill="#C3C760"/>
<path d="M56.7848 232.885C55.1348 228.504 57.2676 225.158 59.5348 221.644C62.4925 217.059 65.3848 212.295 62.4006 206.484C61.2292 204.203 64.1763 203.144 64.1372 201.165C64.2839 200.922 64.4618 200.81 64.6708 200.83C64.8762 200.85 64.9885 200.893 65.0075 200.959C65.9551 209.268 64.2855 216.915 59.8615 224.113C58.2755 226.693 57.7786 229.942 56.7848 232.885Z" fill="#BBBF66"/>
<path d="M38.1101 138.773C35.7879 131.656 33.4628 124.54 31.1475 117.421C30.9017 116.665 30.6899 115.909 29.7897 115.673C29.5603 115.719 29.3313 115.766 29.1026 115.813C29.0103 115.58 28.9155 115.348 28.8191 115.117C27.984 113.961 27.5686 112.493 26.2633 111.687C26.0698 111.209 25.8765 110.731 25.6829 110.253C25.8154 110.119 25.948 109.986 26.0804 109.852C26.4476 109.744 26.8175 109.731 27.1908 109.819C32.1733 112.508 34.618 116.89 35.5148 122.311C37.0456 126.32 38.3201 130.392 38.8414 134.664C39.0164 136.097 40.0458 137.705 38.1101 138.773Z" fill="#DADC98"/>
<path d="M32.6446 211.811C30.6101 211.696 29.1745 212.122 29.3615 214.69C29.471 216.195 29.4571 217.835 27.9268 218.858C28.1931 215.065 28.7885 211.329 29.8802 207.68C32.127 206.507 31.3218 203.111 33.8963 202.174C34.2366 202.34 34.4777 202.6 34.6413 202.938C34.7795 203.305 34.8457 203.708 35.0277 204.05C37.5127 208.727 37.5164 208.725 33.1728 211.644C32.997 211.701 32.8209 211.756 32.6446 211.811Z" fill="#BFC374"/>
<path d="M34.0459 202.355C33.7345 202.572 33.2133 202.738 33.1455 203.014C32.6961 204.848 31.1802 207.093 29.8799 207.68C29.3214 204.993 31.1064 202.616 30.8993 199.975C31.1237 199.891 31.3447 199.799 31.562 199.699C33.2882 198.991 34.6129 197.683 36.1261 196.656C36.7952 196.201 37.5713 195.847 38.2762 196.52C38.9415 197.154 38.8261 197.996 38.4097 198.704C37.3963 200.427 36.2567 202.043 34.0459 202.355Z" fill="#CED193"/>
<path d="M52.6431 247.203C52.4747 246.672 52.3061 246.141 52.1372 245.609C53.5952 242.717 50.7077 239.876 52.0263 237.006C52.5131 235.947 51.7647 232.772 54.6898 235.285C54.7769 235.36 55.7936 234.353 56.3774 233.851C55.1325 238.301 53.8879 242.752 52.6431 247.203Z" fill="#B5BA5D"/>
<path d="M26.0614 226.045C26.3371 228.496 25.0486 230.648 24.7313 232.986C23.7645 233.518 22.7973 234.05 21.8301 234.582C21.3359 230.794 24.3904 228.762 26.0614 226.045Z" fill="#E5E7C7"/>
<path d="M38.658 8.7849C36.1648 7.60227 33.7168 6.23477 30.7807 6.88052C30.4075 6.79619 30.3255 6.57973 30.4931 6.24931C30.4931 6.24931 30.6071 6.02901 30.6076 6.02823C33.8819 5.22569 36.9279 5.08771 38.658 8.7849Z" fill="#E5E7AB"/>
<path d="M66.1151 60.8397C66.5806 60.7145 67.0459 60.589 67.5116 60.4634C69.6991 61.1071 72.598 59.5798 74.0106 62.5883C73.9348 62.6975 73.8569 62.8072 73.7776 62.9154C71.8292 63.5208 69.923 62.6659 67.9867 62.7594C67.2402 62.6582 66.5523 62.4282 66.0253 61.8533C65.8503 61.4979 65.8808 61.1599 66.1151 60.8397Z" fill="#E1E3B1"/>
<path d="M22.0295 157.368C21.46 156.063 23.1427 155.164 22.6595 153.875C23.0285 153.443 23.3973 153.01 23.7647 152.576C23.7631 152.575 23.982 152.67 23.982 152.67C25.8666 154.975 25.5095 155.834 22.0295 157.368Z" fill="#ECEDC8"/>
<path d="M65.0074 200.959C64.7172 201.028 64.4272 201.096 64.137 201.165C63.6735 199.479 65.3444 197.892 64.3722 196.182C64.4996 195.956 64.6598 195.848 64.853 195.858C65.0455 195.868 65.1502 195.903 65.1672 195.963C65.3958 196.741 65.6245 197.52 65.8534 198.298C65.9674 199.311 65.6536 200.188 65.0074 200.959Z" fill="#B2B74F"/>
<path d="M27.3192 265.186C26.8353 265.303 26.3514 265.42 25.8675 265.538C25.5309 265.386 25.1942 265.234 24.8572 265.082C24.7708 264.801 24.6848 264.52 24.5984 264.238C24.2601 264.03 24.1127 263.728 24.1539 263.333C24.5191 262.396 25.1124 261.796 26.2125 261.956C27.2535 262.801 27.5641 263.898 27.3192 265.186Z" fill="#919E3E"/>
<path d="M26.7981 222.59C26.9083 223.82 26.8121 225.005 26.059 226.05C25.5026 224.726 25.4276 223.504 26.7981 222.59Z" fill="#E5E7C7"/>
<path d="M28.3971 148.092C27.7017 149.688 26.0408 149.407 24.7994 149.942C25.5266 148.408 27.1699 148.655 28.3971 148.092Z" fill="#EFF0D4"/>
<path d="M75.5271 105.86C77.0242 108.699 74.4596 110.944 74.3971 113.555C73.075 114.868 73.4869 117.877 70.3904 117.526C69.8498 117.465 69.3304 118.576 69.6368 119.117C71.869 123.052 68.3039 122.583 66.4765 123.193C64.4753 123.861 62.4579 124.403 60.7994 125.788C60.3113 126.195 60.257 126.682 60.6669 127.123C61.1331 127.625 61.5526 127.443 61.8938 126.897C62.6937 125.617 63.5103 124.425 65.3244 125.464C67.663 126.803 65.0546 127.844 65.1608 129.021C65.3527 131.15 63.6932 132.941 64.4051 135.106C61.8397 134.977 63.1611 132.338 61.7265 131.576C60.2915 136.823 61.3445 139.487 65.495 140.764C64.9712 142.284 62.4754 142.13 62.6007 144.069C62.6085 145.073 61.958 145.62 61.2068 146.096C60.5443 146.485 59.931 146.916 59.8792 147.793C59.8151 147.93 59.7463 148.064 59.6772 148.197C58.8284 149.427 59.7522 151.63 57.5303 152.107C56.9029 149.616 56.6035 147.105 57.031 144.545C57.7231 141.579 58.072 138.623 56.9315 135.67C56.4861 134.516 56.5003 133.318 57.1495 132.258C58.1098 130.69 58.0991 129.041 57.7969 127.331C57.7294 125.378 57.9086 123.431 57.8776 121.478C58.0353 119.355 57.1842 117.198 58.0699 115.098C58.1552 115.001 58.2263 114.87 58.336 114.813C59.9544 113.965 61.1503 117.557 62.7457 115.36C64.003 113.629 62.0311 112.214 61.7535 110.601C61.5483 109.411 61.62 108.242 61.9882 107.093C62.5604 105.305 63.468 103.847 65.6557 104.51C67.9222 105.196 67.8326 106.818 66.9987 108.464C68.145 104.685 66.998 103.155 63.2965 103.982C61.5178 104.38 61.2776 103.229 60.8701 102.154C60.4086 100.937 59.6591 99.2414 61.3908 98.7867C63.6957 98.1819 64.8656 96.8426 65.9254 94.8909C66.8623 93.1654 68.9774 92.2212 70.6286 92.6109C72.4632 93.0437 72.0828 95.3218 72.1604 96.9643C72.4314 97.7263 72.847 98.5037 73.6752 98.5776C76.77 98.854 77.0414 100.71 76.3962 103.156C75.7229 104.509 74.1275 103.063 73.3874 104.012C73.0196 106.073 75.6561 104.218 75.5271 105.86Z" fill="#BABE49"/>
<path d="M82.5885 162.192C82.3901 164.472 80.912 165.261 78.9365 164.878C77.4773 164.595 76.2694 164.513 74.9653 165.635C81.3087 167.065 81.5927 167.99 77.3825 172.722C75.2528 171.622 73.14 171.915 71.0346 172.807C70.3343 172.89 69.6548 172.756 68.9782 172.623C67.7357 172.316 67.1793 173.114 66.7043 174.046C66.4009 174.527 66.0063 174.904 65.5064 175.176C64.3552 175.676 63.2476 175.703 62.2192 174.882C61.9765 174.58 61.8451 174.233 61.8227 173.846C65.9735 168.647 65.9735 168.647 65.0755 164.438C65.1938 167.451 64.4046 170.623 61.3035 172.864C60.9055 172.863 60.5325 172.772 60.1756 172.599C57.8203 170.766 57.8768 168.106 57.7361 165.513C57.671 164.94 57.6815 164.366 57.7449 163.795C57.8099 163.254 57.9538 162.729 58.1004 162.208C58.6392 160.559 58.5832 158.939 57.8512 157.35C57.9088 157.19 57.9678 157.03 58.0269 156.871C59.4408 155.349 61.9157 155.174 62.83 152.962C63.2265 152.003 64.3351 152.146 64.8135 152.742C66.0717 154.308 69.1814 153.779 69.2032 156.668C69.2106 157.675 68.503 158.672 69.2084 159.827C71.7948 159.509 69.6024 156.219 71.7013 155.724C73.5857 155.279 74.364 157.923 76.2931 157.419C78.1669 157.662 77.6867 160.423 79.6585 160.561L79.6597 160.56C80.7661 160.872 81.7403 161.419 82.5885 162.192Z" fill="#C7CA5F"/>
<path d="M79.6584 160.561C77.4137 160.715 77.2271 158.666 76.293 157.418L76.2928 157.417C76.9005 156.018 75.3995 154.795 75.959 153.4C77.478 151.95 78.8249 150.407 78.8104 148.278C76.3 146.158 74.6745 148.358 72.7882 149.411C71.6128 150.067 70.0591 151.61 69.3003 149.379C68.547 147.165 71.0008 148.657 71.5852 147.962C74.4796 144.517 79.2225 146.005 82.8525 143.085C82.2781 145.841 81.9506 147.925 81.3989 149.949C80.3737 153.709 82.4584 155.008 85.6189 155.557C84.4812 158.055 84.4931 158.028 82.1142 156.971C81.1431 156.54 80.4036 157.153 79.6539 157.705C78.3208 158.686 78.6422 159.611 79.6584 160.561Z" fill="#CACD6A"/>
<path d="M58.813 162.416C58.6394 162.747 58.4656 163.078 58.2917 163.408C57.175 163.04 56.1204 162.9 54.8706 163.11C51.7336 163.638 50.2301 161.522 51.4925 158.636C51.7034 158.153 51.3701 158.698 51.7009 158.306C54.5946 154.881 55.3146 151.044 54.4887 146.652C53.97 143.894 55.2111 142.835 57.8289 144.617C57.1725 147.091 59.0238 149.665 57.5305 152.106C57.6733 153.697 57.3416 155.337 58.0269 156.871L58.0293 156.873C56.4678 158.979 59.6887 160.408 58.813 162.416Z" fill="#A4B14E"/>
<path d="M60.5535 145.492C61.2362 145.018 61.9184 144.543 62.6011 144.069C62.9782 143.961 63.3491 143.811 63.7337 143.751C65.1042 143.537 66.8436 141.431 67.7231 143.56C68.402 145.202 66.5824 146.757 64.9275 147.186C63.8023 147.477 63.2684 147.769 62.6585 148.793C61.3975 150.911 60.4304 149.664 59.677 148.198L59.6776 148.197C59.7832 147.235 59.6613 146.199 60.5535 145.492Z" fill="#C9CC68"/>
<path d="M79.2131 142.853C78.4659 143.321 78.0107 143.76 77.5214 143.279C77.2848 143.046 77.2557 142.603 77.1328 142.255C79.607 142.344 78.608 139.469 79.9349 138.923C80.6257 138.639 80.5585 140.095 80.6371 140.824C80.7118 141.518 81.2463 142.411 79.9748 142.641C79.5999 142.709 79.2376 142.846 79.2131 142.853Z" fill="#CACD6A"/>
<path d="M75.9595 153.4C76.1496 154.732 77.2533 155.988 76.2933 157.416C76.106 156.084 75.0089 154.827 75.9595 153.4Z" fill="#C7CA5F"/>
<path d="M53.95 199.959C54.4845 201.655 54.8364 203.342 53.7309 204.967C52.5878 204.571 52.832 203.182 52.001 202.529C51.1313 203.258 51.9313 205.014 50.7931 205.22C45.8052 206.12 45.8819 210.25 45.0189 213.82C44.8636 214.463 44.5612 215.04 44.0533 215.491C43.7226 215.687 43.3668 215.802 42.9826 215.831C42.39 215.769 41.9124 215.5 41.5408 215.04C40.8771 212.923 43.2297 211.01 41.96 208.852C41.6917 207.975 41.9901 207.219 42.4628 206.501C42.5954 206.222 42.7311 205.942 42.8431 205.653C43.0612 204.875 42.9642 204.062 43.0946 203.27C43.8019 200.455 45.1921 197.811 45.1234 194.814C45.3226 193.542 45.659 192.314 46.3069 191.187C47.8381 190.104 47.5495 186.436 50.9914 187.816C49.4361 187.085 46.6728 187.738 47.1029 184.668C47.1507 184.294 47.2672 183.944 47.4536 183.618C47.7517 183.384 48.0895 183.267 48.4695 183.281C49.5805 183.542 50.4504 184.535 51.7885 184.364C51.9474 181.589 52.7957 179.578 56.2063 180.74C57.0763 182.557 56.9766 184.42 56.485 186.305C54.7181 190.684 52.2373 194.932 53.95 199.959Z" fill="#899737"/>
<path d="M55.7813 186.32C55.7698 184.398 55.7584 182.476 55.7466 180.554C54.7925 179.075 54.4604 177.616 55.8852 176.216C58.8474 177.666 57.3437 180.575 58.1415 183.066C59.7307 182.609 60.5858 179.639 62.7917 181.244C63.8025 181.98 63.8813 183.113 63.3487 184.426C64.2736 183.069 64.5439 181.699 64.7955 180.286C65.5128 176.261 66.6264 175.867 70.2584 178.248C70.5277 178.539 70.7542 178.856 70.9516 179.199C71.5528 180.332 71.6153 181.5 71.1803 182.699C68.2438 186.698 65.517 190.792 65.1664 195.962C64.9018 196.036 64.6367 196.109 64.3718 196.182C64.039 195.998 63.7061 195.813 63.3733 195.629C62.5643 191.935 60.2033 193.497 58.194 194.162C57.0714 194.533 56.5191 196.397 54.8638 195.438C53.931 192.274 54.9854 189.31 55.7813 186.32Z" fill="#AEB23F"/>
<path d="M43.5139 215.286C44.4928 213.804 44.5268 212.048 44.752 210.401C45.1687 207.349 46.0119 204.881 49.7258 204.908C50.5781 204.914 51.0812 204.387 50.7343 203.706C49.7889 201.852 50.6995 200.675 52.2913 200.72C54.3242 200.777 53.1002 202.741 53.4303 203.829C53.5441 204.204 53.631 204.588 53.7306 204.967C53.8788 205.604 53.912 206.219 53.3874 206.725C52.0863 207.765 50.7424 208.786 51.6141 210.777C50.9274 212.655 49.782 214.36 49.5356 216.392C48.9568 217.714 50.4337 217.864 50.8309 218.631C51.4252 219.685 51.6544 220.735 50.8129 221.776C49.4566 222.779 47.655 222.851 46.8971 221.637C45.4377 219.297 44.4176 220.957 43.1926 221.586C40.3695 221.556 40.8045 219.833 41.4541 218.115C41.8721 217.009 42.9494 216.321 43.5139 215.286Z" fill="#7B8A23"/>
<path d="M49.9337 223.316C50.7288 225.47 50.44 229.082 54.9858 226.042C52.3524 230.596 48.5149 233.662 48.6425 238.609C48.6816 240.12 47.142 240.31 46.8891 241.444C47.8142 243.261 46.351 244.363 45.6311 245.69C45.0093 246.529 44.8368 247.542 44.5538 248.516C44.4294 248.855 44.2469 249.157 44.0245 249.439C43.2262 250.22 42.4195 250.983 41.152 250.583C40.9009 250.301 40.7565 249.973 40.7316 249.593C41.6699 245.906 44.1137 242.782 44.7204 238.973C45.0633 237.83 45.1177 236.691 44.646 235.559C46.3385 231.662 46.9756 227.387 48.9299 223.581C49.2135 223.299 49.5489 223.212 49.9337 223.316Z" fill="#9BA22F"/>
<path d="M49.9334 223.316C49.678 223.386 49.4226 223.456 49.1669 223.526C48.3466 222.241 50.0291 222.321 50.2245 221.59C51.1253 220.474 50.3409 219.412 50.1189 218.332C49.1972 217.946 48.1459 217.648 48.7244 216.255C48.8471 214.066 50.4 212.504 51.2035 210.613C51.311 210.338 51.4594 210.217 51.6488 210.247C51.837 210.277 51.9421 210.331 51.9641 210.408C52.2539 211.38 51.8531 212.136 51.3603 212.97C50.388 214.616 52.3816 215.083 52.8365 216.186C53.0988 216.823 53.7266 217.247 54.325 216.453C55.3322 215.118 57.0527 213.739 57.7913 215.607C58.2457 216.757 58.4024 219.866 55.6686 220.852C53.715 221.557 51.8425 222.487 49.9334 223.316Z" fill="#9AA12B"/>
<path d="M41.2291 250.453C42.1704 249.908 43.1119 249.364 44.0531 248.819C46.0816 249.8 47.6601 249.844 48.3164 247.133C48.5435 246.196 49.1546 245.227 50.4622 245.344C50.7922 245.529 51.1218 245.714 51.4519 245.9C51.5019 249.195 49.8039 251.805 48.0579 254.68C45.1194 250.935 42.1056 252.343 39.0884 254.372C38.975 254.21 38.8615 254.048 38.747 253.885C38.7959 252.179 39.2049 250.732 41.2291 250.453Z" fill="#AAB03A"/>
<path d="M50.4613 245.344C49.5069 246.286 48.3205 247.525 48.6502 248.683C49.6347 252.14 46.3664 248.82 45.7921 250.571C45.512 251.425 43.7817 250.427 44.0519 248.819L44.0516 248.82C44.6763 247.743 44.4591 246.503 44.7207 245.356C45.789 244.244 46.4926 242.929 46.8881 241.444C49.7347 241.229 48.7034 244.563 50.4613 245.344Z" fill="#B0B549"/>
<path d="M55.1273 195.524C56.8002 193.193 59.531 192.649 61.9132 191.521C63.0004 191.007 63.7733 191.491 63.8324 192.573C63.8877 193.58 63.5427 194.609 63.3739 195.629C62.1619 196.574 62.2764 198.026 61.9616 199.314C60.6136 199.845 60.5062 198.845 60.2747 197.966C60.0197 196.997 60.0788 195.893 59.1392 195.204C57.1566 195.253 56.6891 197.519 55.0154 198.02C53.0407 197.099 54.1735 196.315 55.1273 195.524Z" fill="#B2B74F"/>
<path d="M55.1275 195.524C55.3747 196.368 53.7898 197.131 55.0157 198.02C55.2617 198.996 54.9283 199.655 53.95 199.959C52.7386 199.383 52.007 198.818 52.2324 197.081C52.7324 193.229 53.5548 189.567 55.7818 186.32C55.564 189.388 55.3458 192.456 55.1275 195.524Z" fill="#A1AB50"/>
<path d="M61.4218 200.296C61.3543 203.36 57.4268 203.913 57.1145 206.841C57.1138 206.847 56.3706 206.908 56.1194 206.734C54.6677 205.729 55.544 201.645 57.4048 200.625C58.713 200.142 59.8771 197.889 61.4218 200.296Z" fill="#B2B74F"/>
<path d="M61.4216 200.296C59.9565 198.863 58.7933 201.126 57.4043 200.625C58.1263 198.864 60.7007 197.695 59.1391 195.204C61.0831 195.886 60.0273 198.626 61.9613 199.314C61.7811 199.641 61.6014 199.969 61.4216 200.296Z" fill="#AEB23F"/>
<path d="M51.9642 210.408C51.7104 210.475 51.4571 210.543 51.2039 210.613C49.258 207.817 50.7137 206.929 53.3873 206.725C52.913 207.952 52.4386 209.18 51.9642 210.408Z" fill="#899737"/>
<path d="M39.6866 38.0326C39.8441 38.529 40.0019 39.0254 40.1595 39.5222C42.1304 40.2328 42.5299 42.0648 43.2452 43.7206C44.969 47.7109 47.1214 51.5061 48.7121 55.5553C49.8165 60.7675 54.033 64.8177 54.2609 70.3724C54.342 72.3449 55.7741 74.4425 53.6277 76.1638C53.2339 76.2857 52.8915 76.1955 52.6057 75.8984C51.7448 74.2829 52.0821 72.2967 51.052 70.7385C50.6218 70.0877 50.644 68.646 49.2761 69.3563C48.5472 69.7347 47.6743 70.2375 48.3641 71.4693C49.2628 73.0737 48.617 74.1467 46.904 74.6481C45.9021 74.3592 45.2769 73.6362 44.7453 72.8003C44.4439 72.2949 44.2068 71.7582 43.9909 71.2121C42.5099 68.856 42.1802 66.0983 41.296 63.5309C36.6439 54.7401 35.9308 44.3142 29.8654 36.1134C28.6518 32.914 28.4486 29.7917 30.6124 26.8659C31.1412 26.1508 31.5968 25.1206 32.6607 25.3813C33.6817 25.6317 33.9043 26.655 33.8095 27.5945C33.6717 28.9577 34.5893 29.7136 35.3344 30.5848C32.2915 33.9857 35.3425 36.6501 36.7136 39.242C37.5016 40.7318 37.9732 38.5339 38.6796 38.1646C38.9871 37.903 39.3246 37.8705 39.6866 38.0326Z" fill="#A1AE4C"/>
<path d="M48.1631 56.1781C47.5121 56.0356 46.7848 55.871 46.6945 55.1016C46.0121 49.2754 41.8306 44.9261 40.1583 39.5226C40.7575 38.7322 40.9297 37.6177 42.12 37.2743C42.6868 37.1109 43.2146 36.7778 42.6041 35.8866C40.3816 32.6418 41.7688 27.4501 45.2166 25.7704C46.8961 26.7485 46.7219 28.4241 46.6162 29.9399C46.4306 32.5988 47.5657 35.0562 47.5909 37.6647C47.5935 37.922 47.5263 38.1798 47.5688 38.4369C49.2719 36.3134 52.0939 38.3039 53.9246 36.7187C55.1971 35.6169 54.1114 34.5597 53.7169 33.5542C53.1943 32.2224 52.4217 31.0014 51.7611 29.7318C51.2514 28.7742 50.1043 28.242 49.9485 27.0462C49.9265 26.6655 50.0237 26.3152 50.2212 25.9908C50.5362 25.8717 50.8507 25.7524 51.1674 25.6321C54.9541 26.3626 54.4963 30.0094 55.5514 32.4214C58.5654 39.3121 61.0656 46.4129 61.6159 54.0251C61.4396 53.9505 61.2634 53.8758 61.0855 53.8033C60.6479 53.4176 60.3547 52.9349 60.1335 52.4039C59.3892 50.2542 58.9195 47.491 56.2383 51.1847C55.4085 52.3278 53.9878 52.557 52.7092 51.7569C51.5778 51.0487 51.7924 49.9403 52.3481 48.9933C53.605 46.8523 52.5517 45.6102 50.206 44.1904C51.6944 47.9049 51.7915 51.1376 50.9986 54.5988C50.4818 56.8569 49.6964 56.7027 48.1631 56.1781Z" fill="#C9CC6B"/>
<path d="M26.4492 49.192C23.1179 45.1276 19.8664 40.9935 16.4018 37.046C15.4907 36.0081 14.9733 34.9483 14.5866 33.7212C14.8134 30.4179 15.2953 27.1542 12.2222 24.5655C11.2316 23.7308 10.849 21.8607 12.5333 20.8213C14.167 19.8129 16.8609 21.3047 17.9628 23.8191C18.8364 21.8883 19.0738 20.0676 18.4323 18.1098C18.1483 17.243 18.0564 16.2613 19.1855 15.7641C21.1127 17.6369 22.7725 19.5816 21.6143 22.584C21.2115 23.6278 21.8653 24.3161 22.7286 24.8176C23.9595 25.2859 25.1907 25.7541 26.4219 26.2222C27.1918 26.7435 27.1233 27.4221 26.792 28.1537C26.154 29.8412 24.5828 31.6455 27.4142 32.8782C27.749 33.0279 28.0305 33.2434 28.2628 33.5257C30.2157 36.6844 29.1887 40.4261 30.2661 43.7566C30.878 45.6479 27.2282 45.7632 28.534 47.9401C28.7736 48.6773 28.894 49.4147 28.595 50.1635C27.1846 51.373 27.2016 49.4362 26.4492 49.192Z" fill="#D7D97D"/>
<path d="M52.5981 28.5948C53.2644 29.9974 53.9556 31.3888 54.5921 32.8052C56.5621 37.1884 55.3036 38.9904 50.493 38.4567C49.2108 38.3146 48.1317 37.599 48.5693 39.8078C48.7234 40.5856 47.7629 40.691 47.1285 40.6376C46.1727 40.5575 46.4546 39.8516 46.4036 39.1964C46.0538 34.7177 45.6228 30.245 45.2179 25.7708C44.3936 24.9186 43.7088 23.9837 43.5841 22.7602C43.4403 21.351 45.2759 20.768 45.3273 21.0493C45.85 23.9102 49.8584 23.1768 50.2224 25.991C50.2868 26.2415 50.3527 26.4915 50.4199 26.7416C48.7141 30.2144 52.1807 27.6147 52.5981 28.5948Z" fill="#C2C554"/>
<path d="M26.1465 27.9604C26.6617 27.4481 26.6083 26.8456 26.4221 26.2224C26.1699 25.1858 25.8772 24.1523 24.7091 23.7879C22.8904 23.2204 23.4991 21.9795 24.0535 20.997C24.7955 19.682 25.9681 19.7515 27.0293 20.6633C28.598 22.0113 29.9667 23.6138 32.4272 23.1672C33.2007 23.0268 34.0587 23.7617 34.0953 24.5637C34.3319 29.7469 39.4989 32.857 39.6872 38.0327C39.4326 38.1068 39.1778 38.181 38.9233 38.2551C37.0043 36.2344 35.1145 34.1988 35.2131 31.1286C32.8704 30.1626 33.4732 27.7144 32.7694 25.7273C29.7561 28.7851 29.1781 32.0149 30.7747 35.6609C29.3204 36.1884 29.017 35.041 28.7537 34.1284C28.3125 32.5998 27.2222 31.5633 26.2624 30.4113C25.7936 29.6152 25.6987 28.7996 26.1465 27.9604Z" fill="#ADB94F"/>
<path d="M22.728 24.8176C21.2697 25.0423 19.8751 23.8989 20.5364 23.0349C22.8473 20.016 19.8899 18.2264 19.3714 15.9045C18.1354 15.3387 17.4599 14.27 16.8651 13.1255C16.332 11.7363 15.7928 10.343 16.7927 8.92878C17.5424 8.20521 18.6463 8.48114 19.4776 7.98864C20.6158 7.57532 21.8429 7.54537 23.0013 7.20281C23.1669 7.24257 23.3324 7.28535 23.4975 7.3282C23.7137 8.08967 23.9294 8.85096 24.1456 9.61244C19.5331 12.9359 19.3374 14.78 23.3353 18.2021C24.0419 18.8071 23.9629 19.0967 23.3893 19.6805C21.8918 21.2047 22.4067 23.0336 22.728 24.8176Z" fill="#CED16E"/>
<path d="M30.4933 6.2492C30.6102 6.45005 30.7061 6.66057 30.7809 6.88071C29.5286 8.57597 29.9442 10.5442 29.9119 12.4261C29.8992 13.1612 30.3941 14.1119 29.2817 14.2948C28.4402 14.4328 28.01 13.6561 27.5958 12.9526C26.425 10.9638 27.1902 8.98769 27.514 7.00136C28.5068 6.75039 29.5 6.49964 30.4933 6.2492Z" fill="#D9DC87"/>
<path d="M20.7784 6.45804C23.2472 3.87932 25.2902 6.55545 27.5138 7.00112C26.2042 7.46512 24.8764 7.70992 23.4979 7.3281L23.497 7.32836C22.6295 6.98879 21.7986 7.96661 20.9239 7.40208C20.6415 7.12352 20.5934 6.80861 20.7784 6.45804Z" fill="#D9DC87"/>
<path d="M26.4492 49.192C27.0945 49.5697 27.7398 49.9474 28.3851 50.3255C30.9799 53.3952 32.4883 56.9245 32.8065 60.9351C32.9826 63.1543 32.8732 65.4028 33.3841 67.5863C34.0803 70.5618 32.5548 71.7997 29.8885 71.9343C22.5 72.3079 18.6756 77.3397 16.1223 83.211C12.7678 90.9237 14.8073 97.7263 21.1869 103.237C22.2692 104.171 23.5663 104.967 23.3806 106.704C23.1775 107.13 22.8459 107.289 22.387 107.183C16.5969 104.673 13.6882 99.2386 10.9321 94.3094C8.77413 90.4498 10.8803 85.5953 12.7105 81.5401C14.0412 78.5913 15.9859 75.9192 17.657 73.1238C21.7272 73.0744 24.6465 69.2607 28.9588 69.7505C30.2342 69.8952 30.8967 68.5679 30.713 67.2085C29.9552 61.6002 29.9847 55.8049 26.8673 50.7474C26.7283 50.2289 26.5886 49.7105 26.4492 49.192Z" fill="#E1E39F"/>
<path d="M22.3875 107.183C22.6282 107.076 22.8766 106.992 23.1332 106.932C25.0793 107.142 26.1095 108.14 25.9266 110.18C25.9266 110.18 25.6844 110.252 25.6838 110.252C23.2187 110.694 22.9502 108.781 22.3875 107.183Z" fill="#ECEDC8"/>
<path d="M26.2623 111.687C28.1705 112.043 28.4193 113.636 28.818 115.116C27.4888 114.329 26.8949 112.994 26.2623 111.687Z" fill="#ECEDC8"/>
<path d="M66.115 60.8398C66.1634 61.0978 66.2116 61.3562 66.26 61.6146C64.0951 62.2054 64.1953 60.1474 63.3751 59.1638C62.7449 57.8367 61.2037 57.4416 60.4096 56.3079C59.5134 55.0288 59.3553 53.9621 61.4541 53.9564C61.4541 53.9564 61.6146 54.0247 61.6157 54.025C64.4248 55.4334 65.3619 58.0761 66.115 60.8398Z" fill="#C9CC6B"/>
<path d="M26.4566 262.081C25.7923 262.555 25.1281 263.029 24.4639 263.503C23.2835 262.058 23.0335 259.776 20.483 259.544C19.7683 259.479 19.0984 258.374 18.9701 257.434C18.7746 256.004 19.9537 255.11 20.4504 253.95C20.9969 252.674 18.6588 253.413 18.8536 251.954C19.0315 250.62 19.8237 249.557 20.0515 248.284C20.9557 245.198 22.7575 242.421 23.1902 239.172C24.4725 236.215 26.5209 239.982 27.9857 238.626C27.6227 240.884 27.4324 243.23 25.5359 244.861C24.0484 246.141 24.4705 247.683 25.946 247.797C31.0703 248.196 29.7988 251.184 28.9213 254.167C28.8106 254.544 28.7785 254.944 28.7232 255.336C28.2041 257.547 29.8349 260.326 27 261.931C26.8198 261.982 26.6382 262.032 26.4566 262.081Z" fill="#B2B747"/>
<path d="M20.0515 248.284C21.0234 249.735 17.4763 252.411 21.4839 253.214C22.2924 253.377 21.2466 254.807 20.6652 255.353C18.7683 257.136 19.5781 258.692 21.4538 259.157C24.0333 259.798 24.0023 261.695 24.4631 263.502C24.5246 263.745 24.57 263.99 24.599 264.238C22.8651 262.8 21.0044 261.415 19.4253 259.91C15.8371 256.492 16.2135 253.909 20.0515 248.284Z" fill="#BCC05A"/>
<path d="M70.6422 172.186C72.9654 171.401 75.4184 168.991 77.3814 172.722C76.4763 174.35 75.5712 175.978 74.6662 177.606C72.8329 176.949 72.2646 180.714 70.1035 178.911L70.1039 178.911C68.4427 176.523 69.129 174.322 70.6422 172.186Z" fill="#C2C558"/>
<path d="M70.1038 178.911C71.259 179.219 71.4925 178.458 71.9431 177.606C72.707 176.162 73.7592 175.797 74.6665 177.605C73.9898 179.635 72.2812 180.959 71.1807 182.699C70.8215 181.436 70.4627 180.174 70.1038 178.911Z" fill="#B7BC50"/>
<path d="M82.5878 162.193C81.4248 161.984 80.4444 161.447 79.6596 160.56C81.1307 160.218 82.1092 160.757 82.5878 162.193Z" fill="#CACD6A"/>
<path d="M20.7789 6.4579C20.8526 6.71333 20.9262 6.96845 21 7.22388C21.0284 7.66517 20.8565 7.9935 20.4534 8.19128C19.4414 8.47908 18.4298 8.76712 17.4178 9.05492C14.923 10.9815 14.4011 13.7286 13.7456 16.4438C15.8759 15.8981 14.8207 12.5438 17.7411 13.0875C18.5375 13.8803 19.1782 14.7629 19.3722 15.9042C19.5014 18.6892 20.1599 21.4416 19.3443 24.2748C19.0513 25.2928 18.977 26.0756 17.7841 25.9192C16.7134 25.7787 16.086 25.1196 16.556 23.9933C17.182 22.493 16.8849 21.7246 15.1384 21.8873C14.2082 21.9738 13.0614 20.4859 12.418 21.9331C11.9306 23.0298 12.5294 24.2886 13.5386 25.0358C16.98 27.5839 16.5972 30.5414 14.5869 33.7209C14.3682 33.5831 13.9493 33.4277 13.9595 33.31C14.3074 29.3333 11.6844 26.107 10.1047 23.1306C7.63607 18.4792 9.76219 16.0002 11.7902 12.6622C13.184 10.3678 12.9993 7.02518 16.6161 6.41472C18.0278 6.17594 19.3823 8.38085 20.7789 6.4579Z" fill="#DCDE88"/>
<path d="M22.0292 157.368C22.9654 155.92 25.7664 155.246 23.9816 152.669C27.9464 150.242 31.4628 146.886 36.5434 146.802C38.389 146.771 37.9232 145.196 37.8554 144.209C37.7591 142.808 37.0914 141.402 38.4533 140.243C39.2454 140.619 39.4031 141.44 39.7774 142.114C42.1243 146.341 41.5709 147.849 36.9256 149.65C33.4135 151.011 29.6463 151.906 27.2287 155.171C26.8313 155.718 26.3912 156.237 26.0014 156.789C25.539 157.468 25.4748 158.305 25.1359 159.036C24.3888 159.88 23.3753 159.946 22.354 159.995C22.1936 159.94 22.0336 159.881 21.8734 159.822C21.9256 159.004 21.9775 158.186 22.0292 157.368Z" fill="#D5D782"/>
<path d="M34.0459 202.355C35.3301 200.571 37.7706 199.599 38.1187 196.313C36.0795 197.892 34.5081 199.099 32.9486 200.32C32.0703 201.009 31.8963 200.192 31.5628 199.699C32.0077 198.452 32.4534 197.205 32.8995 195.958C33.7662 195.804 34.6935 196.025 35.4969 195.522C36.5653 194.949 37.2719 194.005 37.9988 193.075C39.4888 191.463 41.0476 192.108 42.6155 192.919C43.3071 193.303 44.0323 193.708 44.4498 194.374C45.5915 196.193 46.1091 197.876 43.0464 198.161C41.9364 198.265 41.0701 198.809 40.2757 199.523C38.2482 200.677 37.4166 203.835 34.2708 203.125C34.196 202.868 34.121 202.611 34.0459 202.355Z" fill="#BDC26D"/>
<path d="M32.8994 195.31C32.43 191.423 30.6086 187.761 30.7818 183.798C30.8541 182.146 29.7926 181.218 29.2633 179.955C27.9131 178.783 28.0794 177.101 27.7915 175.572C30.1427 174.116 31.1062 175.954 31.9561 177.501C32.9091 179.235 33.1481 181.212 33.1049 183.193C33.3598 184.731 33.629 186.269 34.4559 187.639C34.6625 187.968 34.8281 188.318 34.976 188.677C35.2351 191.183 35.3913 193.662 32.8994 195.31Z" fill="#C9CC79"/>
<path d="M24.1689 170.72C22.8474 167.204 20.445 163.917 21.8735 159.822L21.9329 159.844C23.6725 161.842 24.9887 164.224 27.2746 165.728C28.0244 167.395 26.8422 168.097 25.7305 168.835C24.9264 169.224 24.7691 170.157 24.1689 170.72Z" fill="#D5D782"/>
<path d="M32.8999 195.31C33.5748 193.046 34.9151 190.901 34.1576 188.378C35.1986 186.846 36.6675 186.98 37.8251 187.894C39.2219 188.996 37.7443 189.937 37.144 190.749C35.9256 192.397 35.7378 194.276 35.5962 196.196C34.5335 197.971 33.7512 196.583 32.9009 195.957C32.8745 195.741 32.8745 195.526 32.8999 195.31Z" fill="#B5B950"/>
<path d="M24.1693 170.72C23.9796 169.865 23.5275 168.996 24.3034 168.193C25.9527 168.907 26.7396 170.291 27.2153 171.92C27.5601 173.048 27.9433 174.17 27.9704 175.37C28.4014 176.898 28.8326 178.426 29.2634 179.955C26.8199 178.319 26.2973 175.511 25.2853 173.071C24.9505 172.264 24.7488 171.415 24.1693 170.72Z" fill="#D2D47E"/>
<path d="M27.3189 265.186C26.4427 264.315 26.0271 263.315 26.456 262.081L26.4744 262.059C29.7618 260.398 28.6715 257.616 28.2828 255.012C28.8175 253.835 28.9961 252.47 30.0927 251.591C31.9072 251.129 33.8806 251.683 35.6281 250.481C36.4212 249.936 37.7341 249.886 38.3349 251.069C38.893 252.167 37.9385 252.71 37.1963 253.2C35.4843 254.331 34.3593 255.575 36.0602 257.573C36.2534 257.888 36.3551 258.231 36.3774 258.599C36.0506 259.994 35.5316 261.34 35.2994 262.765C35.1429 263.105 34.9237 263.398 34.6408 263.644C32.7894 264.385 31.4332 266.16 29.26 266.233C28.613 265.884 27.966 265.535 27.3189 265.186Z" fill="#849428"/>
<path d="M39.0881 254.372C39.5293 255.759 40.5933 255.461 41.641 255.371C43.2998 255.227 44.1196 256.531 44.2798 257.719C44.4799 259.2 42.9883 258.929 42.0728 258.855C40.7143 258.745 40.0545 259.601 39.8572 260.596C39.0757 264.537 36.1789 265.955 32.7705 266.852C32.0137 264.736 34.1772 264.224 34.925 262.933L34.9294 262.926C35.4221 261.474 35.6983 259.963 36.1362 258.496L36.1455 258.482C37.0391 257.053 37.0055 254.97 39.0551 254.355L39.0881 254.372Z" fill="#AAB03A"/>
<path d="M34.9243 262.933C34.8486 264.592 33.3409 265.465 32.7697 266.852C31.2968 268.357 30.1226 268.176 29.2601 266.233C30.8111 264.555 32.6039 263.292 34.9243 262.933Z" fill="#919E3E"/>
<path d="M30.1742 251.969C29.9723 253.14 29.4005 254.108 28.549 254.922C28.4456 255.224 28.2964 255.355 28.1016 255.316C27.9091 255.277 27.8005 255.214 27.7757 255.128C28.0196 254.109 28.2338 253.082 28.5136 252.074C29.0078 250.294 30.1609 248.321 26.4791 249.311C25.2262 249.647 23.7668 248.231 23.3951 246.719C23.0274 245.223 23.5185 244.552 25.3015 243.808C26.5732 243.277 26.2151 240.009 27.9865 238.625C28.744 237.112 28.4706 235.453 27.9487 234.096C27.0613 231.788 28.3125 229.991 29.5557 228.912C30.821 227.813 33.2933 227.862 30.9459 225.534C29.9713 224.567 32.3987 221.619 28.8875 222.167C28.2054 222.273 28.3125 221.159 28.6499 221.026C33.094 219.271 31.9284 215.139 32.6448 211.811L32.6371 211.801C34.0196 209.753 37.5094 210.039 37.9664 206.977C38.2959 205.378 38.0391 203.725 38.4134 202.129C38.5508 201.764 38.7756 201.467 39.0824 201.228C41.6668 200.152 42.5061 202.098 43.5 203.777C43.7096 204.614 44.1495 205.461 43.4008 206.26L43.2214 206.176L43.388 206.283C43.0212 206.933 42.6543 207.583 42.2874 208.233C41.9489 209.282 41.1321 209.954 40.3698 210.672C38.2185 212.697 36.5396 214.715 37.6063 218.142C38.0731 219.641 37.7336 221.462 36.2237 223.119C34.4232 225.094 34.9331 228.277 34.1526 230.873C33.9385 231.586 36.433 232.463 37.9904 232.564C39.0993 234.188 38.0187 235.187 36.9091 236.101C35.8813 236.947 35.0436 237.851 35.0623 239.279C35.4034 241.615 33.7832 243.356 33.2246 245.419C32.2916 246.903 33.2382 248.863 32.0133 250.276C31.4829 250.93 30.5839 251.182 30.1742 251.969Z" fill="#A6AC3B"/>
<path d="M26.3587 155.27C27.6028 150.95 31.9327 150.783 35.0525 149.184C36.1685 148.612 37.608 148.155 38.8662 147.574C40.8825 146.642 41.5275 145.257 39.512 143.792C38.098 142.765 38.9293 141.377 38.454 140.244C38.3388 139.753 38.2241 139.263 38.1094 138.773C37.9255 134.51 37.3979 130.296 35.7292 126.335C35.0724 124.777 33.9621 123.39 34.7611 121.566C35.3344 120.925 35.5424 123.762 36.3768 121.698C36.8178 120.607 37.9141 119.979 39.1135 119.695C39.4789 119.645 39.8408 119.658 40.2009 119.734C42.5117 120.955 41.7249 122.097 40.3366 123.613C38.0374 126.123 39.5125 132.036 42.634 133.472C43.2118 134.032 43.4035 134.723 43.3302 135.504C42.4802 138.194 44.5094 140.611 43.5233 143.953C45.391 142.71 44.4915 141.264 45.2056 140.46C46.301 139.227 46.9598 136.886 49.2963 138.896C49.4426 139.238 49.5339 139.594 49.5839 139.961C49.6969 141.915 50.4225 143.839 49.8315 145.831C49.3564 147.433 48.5692 148.717 46.8323 149.184C45.5683 149.523 44.833 150.015 45.1351 151.668C45.6266 154.358 43.306 156.247 40.7918 154.937C38.6395 153.815 38.0154 154.339 36.4408 155.945C33.7786 158.662 34.4225 154.277 32.7317 153.758C31.1652 155.904 29.2674 157.965 26.3587 155.27Z" fill="#C9CC67"/>
<path d="M80.0891 81.5479C80.1183 84.5515 80.1473 87.5553 80.1763 90.559C78.3367 91.4943 76.5639 92.7748 74.3357 91.6946C73.3497 88.4551 75.6941 85.7852 75.8651 82.5639C74.9952 84.1339 74.2874 85.7959 72.1236 85.3803C71.4147 85.2488 70.72 85.0574 70.0304 84.8412C68.1376 83.5215 66.1129 85.0793 64.1842 84.5819C61.5207 82.9042 61.2098 81.4248 64.5128 80.1521C65.4461 79.7924 65.8401 78.4568 67.111 78.6206C69.0082 79.9879 70.282 80.1826 70.884 77.2848C71.4976 74.3319 73.8309 72.1314 74.8618 69.2304C75.6598 66.9853 77.3182 68.377 78.3651 69.712C79.258 70.5515 79.6045 71.5459 79.2259 72.7461C78.5306 74.1375 80.2247 75.4124 79.4727 76.7639C78.2506 77.556 77.6353 75.138 76.2181 76.4128C78.564 77.3762 82.069 77.5406 80.0891 81.5479Z" fill="#BDC150"/>
<path d="M78.3649 69.7116C76.7741 68.8708 75.3258 67.7959 75.1154 71.0248C74.8985 74.35 71.1153 76.188 71.2631 80.0771C71.3321 81.8917 68.4199 81.373 66.9413 78.7298C64.8575 76.7569 66.1351 75.0808 67.672 73.8262C69.706 72.1657 69.9036 70.6458 68.4889 68.467C67.2229 66.517 67.47 64.2223 67.9165 62.0091C69.9301 61.9272 71.9607 61.7358 73.7788 62.9145C74.1327 64.5456 75.0391 65.7891 76.4704 66.6254C77.6665 67.3243 78.4668 68.2322 78.3649 69.7116Z" fill="#C3C760"/>
<path d="M80.0895 81.5476C80.7365 78.5106 79.2564 77.4748 76.45 77.6664C75.6519 77.7207 74.4228 78.6025 74.2807 77.0946C74.1493 75.6964 76.2168 75.8281 76.6415 74.3366C76.9156 73.3741 77.7945 74.4829 78.1909 75.0829C78.4415 75.4627 78.3914 76.0908 79.0893 76.1066C79.39 74.9954 78.207 73.8195 79.2257 72.7457C79.8019 75.6019 81.5678 78.2273 80.8882 81.3268C80.6219 81.4003 80.3557 81.4738 80.0895 81.5476Z" fill="#C2C55C"/>
<path d="M74.4339 90.5534C76.3452 93.0808 78.2622 90.5148 80.1764 90.5586C79.3294 92.2221 77.5662 92.2304 76.1436 92.4624C73.4373 92.9038 72.2103 94.3331 72.1604 96.9644C71.8014 95.7092 71.4425 94.4541 71.0876 93.2133C68.2237 93.8393 65.9586 94.8857 65.4309 98.0372C65.3374 98.5948 64.5621 99.5545 64.3004 99.4924C58.2638 98.0617 62.6774 101.949 62.2327 103.576C63.8954 103.151 65.0236 99.8263 66.6857 101.992C68.2069 103.974 68.9703 106.784 67.9139 109.464C67.2146 111.239 65.9307 110.65 64.735 109.976C64.7727 109.669 64.7105 109.322 64.8468 109.203C65.8089 108.363 67.2419 107.698 66.8156 106.161C66.5723 105.284 65.4476 104.871 64.5002 105.068C62.8459 105.411 62.9757 107.075 62.6298 108.218C62.3104 109.273 62.0806 110.669 63.0808 111.551C65.1379 113.366 64.9308 115.715 63.2953 117.02C61.1208 118.757 59.7592 116.277 58.3828 114.872C58.0867 114.651 57.8995 114.362 57.8345 113.996C58.8845 111.136 56.9237 108.149 58.1822 105.294C58.4072 104.015 57.9891 102.829 57.6542 101.629C57.2295 99.9216 57.0078 98.2101 57.5293 96.482C57.8708 95.532 59.3637 95.6488 59.4817 94.7188C59.8969 91.4405 60.6122 88.7889 64.9612 89.8789C65.7985 90.0889 66.28 88.7695 66.7868 88.021C67.732 86.6244 68.5161 85.0759 70.2015 84.3705C70.8322 84.2066 71.4371 84.1798 71.9379 84.7002C73.344 86.2287 74.6422 87.736 73.2759 90.0304C73.0667 90.3832 74.0535 90.3131 74.4339 90.5534Z" fill="#BDC151"/>
<path d="M75.5275 105.86C74.2857 104.935 73.8197 108.379 72.5319 106.454C71.7158 105.235 71.6758 103.793 72.6477 102.5C74.3301 100.262 74.898 104.357 76.3965 103.157C76.7007 104.248 76.4088 105.148 75.5275 105.86Z" fill="#C1C55D"/>
<path d="M25.9259 110.18C24.995 109.097 24.0644 108.014 23.1329 106.931C22.7545 105.564 21.7357 104.851 20.5798 104.13C16.6888 101.703 15.0551 97.7183 13.6566 93.6243C13.2164 92.3356 14.0265 91.0302 14.0104 89.8634C13.9147 82.9435 16.9013 77.7246 22.144 73.5173C24.4387 71.6761 26.8554 70.6218 29.9167 70.9688C32.2584 71.2342 32.614 70.0541 32.4337 67.6537C31.9814 61.625 30.9503 55.8197 28.3848 50.3251C28.1693 49.5599 27.9536 48.7943 27.7383 48.0286C30.7692 48.1602 30.3353 51.5346 32.1919 52.767C33.3457 53.9968 33.477 55.5286 33.476 57.0999C33.411 58.2151 33.6434 59.3002 33.8443 60.3884C34.0988 62.4152 34.1818 64.3288 35.1845 66.3614C36.2023 68.4247 34.9388 70.8372 32.6743 72.2402C29.7073 74.0781 26.3215 75.1151 23.4505 77.1361C22.4914 77.811 19.5193 84.0159 19.7236 85.1157C20.1796 87.5726 22.4206 89.2761 24.8014 88.5938C27.2877 87.8817 28.8922 88.4279 29.7561 90.8988C29.9662 91.6426 29.8602 92.3735 29.6683 93.1018C28.0606 95.8372 27.9016 98.5162 29.9781 101.113C29.3985 102.899 27.449 103.074 26.333 104.221C25.0215 106.204 28.0129 108.028 26.549 110.01C26.3411 110.067 26.1337 110.124 25.9259 110.18Z" fill="#D3D578"/>
<path d="M26.5493 110.01C26.1254 108.669 25.9074 107.265 24.9443 106.12C24.1013 105.118 24.279 104.232 25.5676 103.704C25.715 103.815 25.8624 103.925 26.0129 104.031C26.4255 104.358 25.7944 104.146 26.2729 104.309C29.2115 105.312 32.3373 105.986 32.3486 110.164C32.3503 110.784 33.6635 110.768 34.1508 109.855C34.8376 108.567 35.9162 108.447 37.1711 108.777C37.8946 108.98 38.5977 109.226 39.1487 109.769C39.5343 110.337 39.8549 111.177 39.4296 111.587C36.3915 114.515 37.5616 117.395 39.3644 120.312C38.1261 120.75 37.3761 121.776 36.4623 122.63C34.7698 124.211 35.263 122.042 34.7621 121.567C33.089 116.958 30.818 112.775 26.5493 110.01Z" fill="#C8CB65"/>
<path d="M38.6143 206.818C39.423 208.614 38.3571 209.494 36.9321 210.116C35.5232 210.731 34.0705 211.244 32.6367 211.802C32.9438 211.242 33.1169 210.373 33.5801 210.171C36.5985 208.859 37.1333 207.409 34.2352 205.286C33.6427 204.851 33.6975 203.843 34.2707 203.125C36.5965 202.483 37.5615 200.001 39.7041 199.111C40.5634 200.385 39.0967 200.91 38.8314 201.822L38.8317 201.824C38.622 203.483 38.1433 205.13 38.6143 206.818Z" fill="#B6BA5E"/>
<path d="M67.9163 62.0087C69.2273 64.6969 68.2629 68.0742 70.7766 70.5316C71.4481 71.1879 70.7212 73.3119 69.0737 73.9881C66.8752 74.8901 66.2363 76.5132 66.9409 78.7297C65.9 80.2372 65.2747 82.2906 62.391 81.4546C63.2999 82.7472 63.8724 83.5608 64.4446 84.3746C64.5926 84.6055 64.7555 84.9178 64.6321 85.0729C62.4378 87.8295 60.1901 90.5394 57.3404 92.675C55.2749 90.2079 55.3853 87.2491 55.4406 84.3057C56.6338 82.1555 58.7652 80.8388 60.0898 78.5764C61.2839 76.5368 60.5918 73.8006 62.7601 72.3674C63.0117 72.0925 63.3001 71.8632 63.6165 71.6681C64.0925 71.431 64.598 71.3267 65.1292 71.2757C65.7854 71.2124 66.3767 71.7283 67.0445 71.4571C66.2903 71.2749 66.1375 70.5893 65.8286 70.022C64.9306 67.3935 62.7545 65.5292 61.6594 63.0373C60.324 59.9984 61.1496 58.5404 64.3155 58.1499C64.9297 59.3239 64.5079 61.0782 66.2596 61.615C66.8122 61.746 67.3642 61.8772 67.9163 62.0087Z" fill="#BBBE49"/>
<path d="M58.1542 114.12C58.2254 114.373 58.3015 114.623 58.383 114.873C58.5171 117.04 59.2173 119.189 58.5877 121.381C56.9157 119.387 54.7982 120.601 52.58 120.304C53.0529 122.594 55.249 123.176 55.9093 124.884C56.6476 126.795 54.8827 128.399 55.4211 130.44C57.083 129.885 56.614 127.245 58.5889 127.141C59.1857 128.939 59.5221 130.718 58.1303 132.337C57.2416 133.371 57.2407 134.479 57.8582 135.618C59.4903 138.627 58.7267 141.62 57.8294 144.617C52.1343 143.517 57.6302 148.513 55.3034 149.248C58.3044 152.929 54.3387 155.048 53.2239 157.705C52.6333 159.113 51.0943 160.192 52.2458 161.858C53.5784 163.787 54.5972 162.092 55.8036 161.459C57.8327 160.393 57.749 162.377 58.2925 163.408C58.4203 163.901 58.5478 164.394 58.6755 164.887C57.0606 166.943 58.5781 168.849 58.9563 170.814C58.8328 172.469 59.1969 174.391 56.7715 174.773C55.2494 173.856 56.2599 172.14 55.5736 170.917C53.6965 172.771 52.4612 174.743 52.1337 177.542C51.8646 179.843 51.0471 182.403 48.3854 183.485C48.1397 183.557 47.894 183.63 47.648 183.703C46.6077 183.005 46.8383 181.977 46.9271 180.982C45.5631 175.171 47.4476 169.597 47.9129 163.905C48.3136 159.005 48.852 153.93 48.0449 148.939C50.511 146.099 49.4481 142.884 49.0286 139.738L49.0356 139.736C49.4578 138.527 48.5327 137.116 49.5961 136.002C50.0685 135.637 50.5766 135.505 51.1423 135.774C53.2303 138.151 50.9784 141.226 52.7926 143.649C51.1204 141.215 55.2258 137.886 51.1935 135.817C50.3944 134.844 50.1582 133.343 50.4879 132.552C52.1322 128.609 50.6839 125.247 49.0094 121.848C48.966 121.101 48.9289 120.354 48.8504 119.607C48.766 118.623 48.7686 117.66 49.5457 116.899C50.1646 116.069 52.7551 116.779 51.4566 114.447C53.4623 113.268 55.8242 113.91 57.9209 113.18C58.2956 113.42 58.3578 113.737 58.1542 114.12Z" fill="#99A741"/>
<path d="M58.5882 127.141C57.5192 129.018 57.2205 131.362 55.0589 132.905C53.6901 131.258 53.7443 129.053 54.5457 127.878C56.2724 125.345 54.8413 124.282 53.1218 123.197C51.773 122.345 50.7708 121.474 51.3906 119.736C52.2707 117.269 53.6822 119.863 54.3029 119.517C56.7759 118.139 58.3166 118.065 58.5873 121.381C59.1371 123.301 58.8275 125.221 58.5882 127.141Z" fill="#8F9E31"/>
<path d="M69.8564 110.76C69.6199 110.011 70.0129 109.503 70.5645 109.116C71.0056 108.806 71.5975 108.638 71.8002 109.32C71.989 109.955 71.8047 110.636 71.1816 111.029C70.6974 111.333 70.2055 111.314 69.8564 110.76Z" fill="#C1C55D"/>
<path d="M60.5542 145.492C60.2624 146.394 59.9704 147.295 59.6783 148.197C58.1182 146.697 58.6586 145.875 60.5542 145.492Z" fill="#C2C558"/>
<path d="M56.5242 174.573C58.5169 173.961 57.6102 171.764 58.6734 170.644C59.4343 171.234 59.6617 172.451 60.8719 172.513L60.8742 172.514C61.4201 172.811 62.2899 172.81 62.069 173.812C62.1402 174.066 62.2114 174.319 62.2829 174.573C62.63 176.051 63.6041 176.018 65.5481 174.465C65.7298 174.139 65.9113 173.814 66.0929 173.489C66.9279 172.766 67.3614 171.35 68.9096 171.855C69.4873 171.966 70.0649 172.076 70.6427 172.186C70.7353 174.449 69.6253 176.617 70.1044 178.911C66.3578 176.521 65.9507 176.671 65.8442 181.18C65.7802 183.881 63.7331 184.519 61.614 185.922C61.7227 184.279 64.359 182.782 62.3818 181.906C59.4853 180.622 59.9692 184.667 57.7963 185.426C55.8767 182.658 57.7698 179.103 56.1642 176.298C55.4866 175.557 55.2518 174.908 56.5242 174.573Z" fill="#B7BC50"/>
<path d="M62.0699 173.812C61.6717 173.379 61.2732 172.946 60.8751 172.514C62.6816 169.818 65.6637 167.465 63.4308 163.601C63.0614 162.961 63.1486 162.294 63.8713 161.954C64.6778 161.575 65.4737 161.811 65.9399 162.529C68.1816 165.98 66.1497 171.845 62.0699 173.812Z" fill="#C2C558"/>
<path d="M58.8131 162.416C58.5075 160.45 56.912 159.51 55.3504 158.297C56.3465 157.768 57.1881 157.321 58.0296 156.873C59.9465 158.486 59.6861 160.408 58.8131 162.416Z" fill="#C2C558"/>
<path d="M60.8722 172.513C59.2897 172.889 59.0116 171.732 58.6741 170.644C57.6227 168.725 55.6995 166.806 58.6748 164.887C58.783 167.609 58.7139 170.382 60.8722 172.513Z" fill="#C2C558"/>
<path d="M65.548 174.465C65.6808 175.233 65.5473 176.647 65.0737 176.423C63.044 175.461 63.0257 177.619 61.9931 178.243C61.1288 176.841 61.6333 175.701 62.2827 174.573C63.3805 174.819 64.4725 174.896 65.548 174.465Z" fill="#C2C558"/>
<path d="M68.9095 171.855C67.9706 172.4 67.0316 172.944 66.0928 173.489C66.5002 172.028 67.0378 170.792 68.9095 171.855Z" fill="#C2C558"/>
<path d="M47.7386 181.202C47.7081 182.036 47.6774 182.869 47.6473 183.703C47.7063 183.954 47.7676 184.204 47.832 184.453C46.0338 184.933 47.5858 186.549 46.8436 187.377C45.8206 187.618 46.4007 188.008 46.7644 188.385C46.9177 189.358 46.4494 190.013 45.7023 190.532C42.6988 192.098 45.5649 193.431 45.8737 194.863C46.255 198.146 44.7972 200.94 43.4999 203.777C41.6435 203.842 41.2314 200.463 38.8317 201.823C38.3693 200.677 39.4621 200.031 39.7044 199.111C40.4685 196.493 42.5306 196.977 44.4021 197.437C45.0806 195.056 43.1273 194.58 42.1967 193.473C40.7504 192.202 39.3036 190.926 38.1993 193.803C38.0163 195.345 36.8869 195.859 35.5955 196.196C33.4443 192.956 35.5994 190.892 37.8337 188.795C36.5774 187.739 35.3747 187.998 34.1573 188.378L34.1597 188.376C32.3065 185.642 32.211 183.682 36.2669 183.432C36.9283 183.391 37.2821 182.704 37.7247 182.243C38.0093 181.979 38.3327 181.79 38.7013 181.673C40.2212 181.55 40.696 182.559 40.9869 183.768C41.177 184.509 40.7633 185.318 41.2293 186.035C43.937 184.026 43.937 184.026 42.0061 182.198C41.0375 180.487 39.5096 178.748 42.2209 177.2C42.5965 177.106 42.9803 177.087 43.3653 177.135C45.2448 178.032 46.4519 179.659 47.7386 181.202Z" fill="#AEB342"/>
<path d="M37.749 232.547C36.9626 232.764 35.8666 234.035 35.9332 233.843C36.8049 231.327 31.5713 233.616 33.2491 230.097C34.0696 228.377 33.9984 224.081 34.3416 223.798C37.6894 221.03 35.7771 217.776 36.1949 214.71C36.5825 211.866 39.4229 209.642 42.2879 208.233C45.3326 210.711 41.9962 212.711 41.7815 214.944C41.3905 217.952 40.0693 220.855 40.7707 223.983C40.5987 224.86 39.7413 225.332 39.4973 226.163C39.3956 227.481 40.5691 228.503 40.3721 229.813C40.1464 231.314 40.0058 232.965 37.749 232.547Z" fill="#AAB048"/>
<path d="M56.5251 174.574C56.4052 175.148 56.2853 175.723 56.1647 176.298C55.2875 177.645 56.4018 179.186 55.7475 180.554C53.589 181.482 51.0091 182.217 54.4147 185.795C51.5967 185.427 49.4716 185.943 48.3853 183.485C49.7872 180.925 51.618 178.576 51.4066 175.354C51.2133 172.404 54.8217 171.636 55.4598 168.99C55.5482 168.623 56.7983 169.508 56.8068 170.301C56.8218 171.724 56.6301 173.149 56.5251 174.574Z" fill="#859426"/>
<path d="M46.2327 187.378C46.9911 186.526 45.3534 184.365 47.8323 184.453C47.6314 186.398 48.7404 186.772 50.3921 186.766C51.0004 186.764 52.5429 186.051 51.9994 187.895C51.6949 188.927 51.6142 189.913 50.2085 188.453C49.3902 187.603 48.0623 188.467 48.1962 189.755C48.352 191.253 47.2874 191.058 46.546 191.397C45.7869 191.297 45.2057 191.033 45.3579 190.099C45.9874 189.6 46.3527 188.957 46.4153 188.15C46.0948 187.955 46.0207 187.7 46.2327 187.378Z" fill="#99A741"/>
<path d="M43.5135 215.286C43.9767 216.807 42.7748 217.581 42.1137 218.657C41.2658 220.037 41.3981 221.201 43.5029 221.032C43.6881 221.14 43.8731 221.249 44.0603 221.356C44.9404 222.569 45.7594 224.279 44.2244 225.024C41.9075 226.149 41.4567 223.569 40.4476 222.255C39.5863 219.452 40.3776 217.208 42.7469 215.501C43.0025 215.429 43.258 215.358 43.5135 215.286Z" fill="#83912E"/>
<path d="M45.3576 190.1C45.7537 190.532 46.1496 190.965 46.5457 191.398C47.02 192.688 46.0441 193.697 45.8739 194.863C44.726 193.776 42.4811 193.484 42.8329 191.319C43.0164 190.191 44.1836 189.838 45.3576 190.1Z" fill="#9FA52B"/>
<path d="M42.7469 215.501C41.7152 217.538 40.1164 219.376 40.4942 221.909C41.0366 222.771 42.1583 223.668 40.3461 224.39C39.1606 220.99 39.2141 217.777 41.7808 214.945C42.1033 215.13 42.4251 215.316 42.7469 215.501Z" fill="#A6AC3B"/>
<path d="M37.7492 232.548C41.9183 230.628 38.1273 228.032 38.3272 225.776C42.9527 223.697 42.9527 223.697 43.6856 230.814C42.9342 227.545 46.7707 224.373 43.5286 221.051L43.5036 221.032C43.9363 220.246 44.268 219.377 44.8276 218.696C45.5042 217.872 46.6718 217.539 46.6339 219.01C46.5591 221.922 48.36 221.675 50.2252 221.59C49.8723 222.236 49.5196 222.881 49.167 223.527C48.8166 226.967 48.144 230.342 46.2767 233.298C45.69 234.227 45.0589 234.977 45.3649 236.123C44.9488 237.43 43.5602 237.385 42.8511 238.048C42.1565 238.059 42.7569 238.738 42.6126 238.232C42.5738 238.096 42.6976 238.096 42.9253 238.029C43.7623 237.786 44.4258 237.863 44.7197 238.824C44.6456 241.396 43.8939 243.489 41.0283 244.105C39.5814 243.349 39.7833 241.361 38.4042 240.585C39.8041 243.214 38.4174 246.238 35.5879 246.408C33.5385 246.532 33.1125 245.183 33.745 243.541C34.2847 242.139 35.6659 240.879 33.9782 239.386C33.6467 237.593 34.3202 236.254 35.9726 235.568C37.4001 234.975 38.1061 234.114 37.7492 232.548Z" fill="#83912E"/>
<path d="M48.725 216.255C49.1898 216.947 49.6547 217.64 50.1195 218.332C49.2021 218.513 48.2566 218.546 47.7888 217.589C47.398 216.79 48.1642 216.533 48.725 216.255Z" fill="#83912E"/>
<path d="M33.9773 239.385C35.6522 240.319 35.4161 241.644 34.7666 243.088C34.3656 243.98 33.3454 245.246 34.8673 245.689C36.3189 246.112 36.96 244.099 38.3413 243.635C39.2565 243.327 39.0133 242.187 38.2258 241.782C36.373 240.829 37.1724 239.474 37.3807 237.656C39.2217 239.739 40.435 241.646 41.0201 243.938C41.7682 245.852 41.8077 247.766 41.014 249.68C41.0853 249.937 41.1568 250.195 41.2281 250.452C40.1388 251.551 39.4186 252.854 39.0542 254.355C38.1061 255.746 38.2295 257.892 36.1445 258.482C32.5007 255.929 32.8095 254.632 38.2309 251.147C35.2059 250.618 32.8999 254.16 30.1731 251.969C30.2331 251.151 30.6064 250.508 31.2596 250.021C34.6479 249.415 34.6479 249.415 32.4403 245.566C32.1031 243.295 34.8844 241.798 33.9773 239.385Z" fill="#919E3E"/>
<path d="M41.0146 249.68C41.4418 247.766 39.3895 245.851 41.0204 243.938C42.8632 242.701 43.669 240.761 44.4896 238.83C44.6095 238.612 44.7604 238.509 44.9431 238.521C45.1246 238.533 45.2236 238.568 45.2401 238.626C45.5042 242.949 42.9811 246.208 41.0146 249.68Z" fill="#879426"/>
<path d="M45.2404 238.626C44.9896 238.693 44.7397 238.761 44.4899 238.831C43.1871 237.372 40.9382 240.115 40.6806 238.689C40.3518 236.868 43.409 237.938 44.3023 236.49C44.4547 236.244 45.0004 236.24 45.3646 236.123C47.0823 237.044 45.8913 237.822 45.2404 238.626Z" fill="#919E3E"/>
<path d="M44.7209 245.356C45.1376 246.634 45.279 247.859 44.0518 248.82C43.8422 247.582 43.9183 246.399 44.7209 245.356Z" fill="#AAB03A"/>
<path d="M29.3678 91.1198C28.1823 89.5078 27.1769 88.0557 24.7768 89.8021C22.0299 91.801 20.5148 88.905 19.6303 87.3549C18.8583 86.0021 16.0125 83.4192 20.0088 81.9647C20.2199 81.8878 20.5479 81.5673 20.5133 81.4614C18.8019 76.2234 24.3773 76.4883 26.2215 73.946C27.3433 72.3992 29.4681 73.2325 31.1384 72.0116C33.8254 70.0479 35.4526 68.885 33.1243 65.4978C32.3303 64.3427 32.9712 62.2019 32.9566 60.5117C33.8096 59.3919 32.302 58.3604 32.8354 57.2525C32.2402 56.0534 32.959 54.4807 31.7545 53.4548C31.2704 53.1359 30.987 52.6233 31.1749 52.1234C33.8105 45.1103 28.9807 39.5173 27.6259 33.2679C26.5772 32.4588 26.1045 31.4886 26.7673 30.2002C29.9474 30.6676 28.4492 34.5662 30.7746 35.6609C35.4861 41.5435 36.8515 48.7995 38.9885 55.7332C39.8274 58.4548 42.8539 60.3174 42.0766 63.66C41.8605 66.6517 44.1823 69.9747 40.9141 72.5745C40.6331 72.8146 40.3207 73.0026 39.9863 73.1576C37.6256 72.869 35.9017 76.1008 32.939 73.7501C36.8764 81.0004 36.8539 81.3559 32.7525 82.76C31.3501 81.168 29.308 80.8469 27.4856 79.9278C27.263 83.9037 27.263 83.9037 24.3884 85.0117C25.8755 86.5824 26.67 85.1603 27.5007 84.3528C28.9806 82.9139 30.5483 81.8999 32.7144 82.7412C33.0477 82.9781 33.1472 83.2962 33.0467 83.6859C31.5719 84.4823 31.5614 84.5796 32.7892 86.1004C32.8749 88.6085 31.635 90.2147 29.3678 91.1198Z" fill="#C8CB64"/>
<path d="M63.4663 72.3266C63.3286 73.8172 61.2051 74.8806 62.742 76.831C63.277 77.5099 62.1393 78.3329 61.248 78.703C60.6813 78.9384 60.158 79.278 59.6151 79.5712C62.8761 85.0107 57.0795 82.0929 55.9792 83.5084C52.8391 81.903 53.1859 78.9132 53.0438 76.1177C54.5004 72.7791 52.9606 64.5448 50.1008 62.5296C48.7559 61.5818 48.0824 61.1273 49.0648 59.6198C49.999 58.1871 49.1162 57.1557 48.1633 56.178C48.6827 56.1132 49.2017 56.0482 49.7206 55.983C49.1552 52.9416 52.0876 50.0814 50.2211 46.9915C49.4285 45.6795 48.021 44.3676 49.5042 42.895C50.3341 42.071 51.2306 43.1875 51.715 43.8825C52.6892 45.2795 55.7181 45.7954 53.8338 48.5056C53.2466 49.3504 51.546 50.1875 53.3477 51.229C54.8234 52.0823 55.6179 50.6427 56.5473 49.7127C57.2985 48.961 56.7164 46.8949 58.4953 47.3592C59.6447 47.659 60.1157 48.9848 60.4139 50.1705C60.606 50.9346 60.8281 51.6914 61.0369 52.4514C60.0062 54.3363 58.0895 55.3772 56.7394 56.9651C54.2315 59.915 54.9303 62.8779 58.521 64.1799C61.0248 65.0879 63.118 66.2415 62.3368 69.5033C62.0553 70.6814 63.1347 71.3658 63.4663 72.3266Z" fill="#BEC250"/>
<path d="M32.9532 83.5194C32.878 83.2644 32.8027 83.0092 32.7271 82.7543L32.728 82.754C36.89 80.5882 34.5401 78.0258 32.828 75.9892C31.8745 74.8549 30.9822 74.0084 31.9791 72.7973C33.3024 71.1897 33.8003 73.0285 34.602 73.6647C34.9608 73.9495 35.5245 73.976 35.9956 74.1198C36.4781 71.0308 39.1187 73.3232 40.4442 72.3362C40.5174 73.9902 40.9435 75.5899 41.3284 77.0808C42.1317 75.2312 42.5386 72.7723 45.4257 72.5636C45.8949 73.2445 46.364 73.9253 46.8331 74.6062C46.8857 74.7763 46.9386 74.946 46.9935 75.1151C47.7357 77.3347 48.03 79.6257 48.085 81.9561C48.1161 82.3175 48.1176 82.6783 48.1136 83.0395C47.9253 84.403 48.8698 85.987 47.3496 87.0959C44.9931 88.4335 45.0355 90.7834 44.8455 93.0377C44.7823 93.7843 44.9798 94.7517 44.0858 95.0467C43.0496 95.3886 42.2103 94.5784 41.9527 93.7954C41.1524 91.3647 39.1663 90.6343 37.0679 89.9776C36.0998 89.486 35.2914 89.5852 34.7352 90.6227C34.5713 90.9121 34.3817 91.1772 34.1767 91.4361C32.7129 92.8064 30.9263 93.0102 29.0418 92.8569C29.1504 92.2781 29.2588 91.699 29.3673 91.1202C29.7251 89.1845 32.3717 88.5263 32.096 86.2372C32.381 85.331 32.0302 84.2243 32.9532 83.5194Z" fill="#BFC353"/>
<path d="M47.0832 86.8867C48.2603 85.5852 46.304 83.9639 47.5157 82.6656C51.9565 86.1158 51.414 91.705 53.5595 96.3419C55.4424 95.872 55.7141 94.1481 55.3071 92.7172C53.9912 88.0875 54.9118 82.8033 50.5411 78.9909C48.9335 77.5886 50.5215 75.6713 52.8122 75.3584C52.8892 75.6115 52.9665 75.8646 53.0439 76.1177C54.94 78.2168 54.0511 81.4217 55.9793 83.5084C56.6956 86.5934 56.5291 89.8526 57.8161 92.8249C58.333 93.9035 58.1325 95.0103 57.9426 96.1163C58.1832 97.9679 58.4235 99.8193 58.6642 101.671C57.8314 103.096 55.8468 104.63 59.0428 105.673C57.5557 108.364 60.666 111.536 58.1547 114.12C58.0753 113.863 57.9962 113.606 57.9168 113.35C56.6828 112.746 57.2464 111.195 56.122 110.18C54.5498 111.28 52.8451 113.016 50.6703 111.14C50.5379 111.002 50.4112 110.863 50.2795 110.725C50.0878 110.388 49.9754 110.027 49.9295 109.644C50.0417 107.93 49.9919 106.23 49.4876 104.566C49.2367 102.385 48.9455 100.212 48.6076 98.0433C49.2216 94.8976 49.6684 91.8051 47.1907 89.1133C46.6652 88.5423 46.6107 87.6547 47.0832 86.8867Z" fill="#A0AC4A"/>
<path d="M52.8125 75.3586C51.4332 76.8202 48.6079 78.1572 53.1591 79.4696C54.337 79.8092 54.3429 82.7343 54.7523 84.4199C55.6131 87.9628 56.7697 91.5287 56.2963 95.3288C55.8993 98.5181 53.4805 97.2667 51.7837 97.5975C51.6245 97.6286 51.1061 96.9971 51.168 96.8095C52.8846 91.6009 49.0605 87.8314 47.7348 83.4216C47.6593 83.1703 47.5889 82.9172 47.5162 82.6655L47.529 82.642C47.782 82.3165 48.0822 82.2475 48.4343 82.4731C48.9233 82.6217 49.3308 82.9265 49.7684 83.1795C50.1798 83.4173 50.7458 83.751 50.9385 83.0234C51.0753 82.5064 50.5968 82.1067 50.1639 81.8345C49.3614 81.3296 48.4375 83.4136 47.6677 81.7265C47.9116 79.2889 46.8063 77.0141 46.8378 74.6065L46.8336 74.6056C47.4862 73.5818 49.5337 72.6208 47.0782 71.4198C45.9345 70.8606 46.665 70.407 47.1099 70.1175C48.3827 69.2881 48.7044 67.2494 50.5417 67.2531C51.3446 67.2548 51.0821 68.2178 51.2851 68.7798C52.0562 70.9192 53.6194 72.8542 52.8125 75.3586Z" fill="#95A33B"/>
<path d="M35.2121 31.1287C36.4822 33.4868 38.5187 35.4461 38.9223 38.2553C39.2871 40.1727 38.2327 41.6262 36.6217 41.7108C35.1568 41.7877 35.4695 40.0365 35.529 38.8972C35.5737 38.041 35.2073 37.4525 34.5492 36.8867C31.8091 34.5317 31.9843 33.1825 35.2121 31.1287Z" fill="#93A331"/>
<path d="M45.4255 72.5633C42.7081 74.3179 42.1162 77.2903 41.0364 80.1511C42.1382 77.3612 37.3894 75.1999 40.4437 72.3362C41.7813 71.3085 43.0958 70.2 44.9696 71.0318C45.1215 71.5421 45.2735 72.0527 45.4255 72.5633Z" fill="#B9BD43"/>
<path d="M44.9702 71.0318C43.4617 71.4666 41.9532 71.9013 40.4443 72.3362C41.3581 70.3207 43.1549 68.4842 41.2407 66.0147C40.6587 65.2638 41.3353 64.2929 42.0761 63.6597C43.5132 65.9317 43.3052 68.8494 44.9702 71.0318Z" fill="#BFC353"/>
<path d="M63.4663 72.3267C61.7113 71.7034 59.9563 71.5593 61.4285 68.6241C62.5486 66.3912 59.9986 65.5169 58.1405 64.9604C56.9581 64.6063 55.5115 65.5714 54.9525 63.1875C54.3862 60.7734 53.346 58.7231 55.5233 56.6617C57.2162 55.0589 58.8856 53.4446 61.038 52.4518C61.1768 52.9536 61.316 53.4552 61.4545 53.9568C59.9861 54.684 60.2419 55.4018 61.4359 56.172C62.4141 56.8026 63.3571 57.4882 64.3154 58.1499C60.9557 58.9702 61.5606 61.018 62.8086 63.1798C64.2166 65.6181 66.7201 67.4185 67.0525 70.4836C66.3054 71.97 64.2793 70.9693 63.4663 72.3267Z" fill="#C3C760"/>
<path d="M52.5979 28.5948C50.9239 28.8898 49.3568 29.9083 47.1193 29.5494C48.0863 28.0083 49.2342 27.3543 50.4195 26.7417C50.6386 27.9547 51.9106 27.9318 52.5979 28.5948Z" fill="#C7CB5E"/>
<path d="M27.626 33.2677C29.3231 35.799 30.9401 38.363 31.1349 41.5335C31.1665 42.0468 31.0527 42.8564 31.3216 43.0244C36.2578 46.1078 32.7121 49.4328 31.6675 52.6892C31.5958 52.9119 31.7212 53.1978 31.7549 53.4544C29.4491 52.3611 29.7039 49.3739 27.7389 48.0283C27.1962 47.2193 25.9014 46.5668 26.7579 45.3833C28.7047 42.6942 29.2491 39.9898 28.3587 36.6619C28.0598 35.5453 27.867 34.4002 27.626 33.2677Z" fill="#CED16E"/>
<path d="M26.7669 30.2003C27.0531 31.2228 27.3393 32.2454 27.6255 33.268C26.6716 33.3696 24.8584 34.1489 24.9342 33.3946C25.1148 31.6027 24.0203 29.3403 26.1457 27.9602C26.3534 28.707 26.56 29.4536 26.7669 30.2003Z" fill="#CED16E"/>
<path d="M17.7404 13.0876C15.837 15.3674 15.8039 15.4573 15.5891 18.9423C14.962 19.2213 14.4499 18.8684 14.3978 18.3699C14.2111 16.5777 10.4719 16.5214 11.7253 15.3297C13.9115 13.2512 14.4174 10.4571 16.1683 8.33215C16.2183 8.27164 16.9846 8.80094 17.4171 9.05473C16.45 10.4856 17.5598 11.7494 17.7404 13.0876Z" fill="#D4D677"/>
<path d="M20.4535 8.19145C20.6356 7.86878 20.8178 7.54641 21 7.22405C21.8432 7.00963 22.6949 6.58418 23.4975 7.32838C22.5915 7.99934 21.863 9.29696 20.4535 8.19145Z" fill="#D4D677"/>
<path d="M27.7749 255.128C28.0326 255.06 28.29 254.991 28.5481 254.922C30.2493 257.996 30.6232 260.684 26.4746 262.059C28.7377 260.091 27.2718 257.425 27.7749 255.128Z" fill="#919E3E"/>
<path d="M49.0288 139.737C49.9707 142.892 51.2544 146.07 48.4111 148.973C48.1604 149.819 47.3656 150.767 48.0591 151.535C49.7874 153.449 49.6364 155.244 48.126 157.126C47.4396 157.981 47.8119 158.671 48.2078 159.596C49.8095 163.337 47.5384 168.184 43.8336 169.237C42.9993 169.475 42.2851 169.131 41.6817 168.596C40.8965 167.9 40.7243 167.05 41.3098 166.143C42.1493 164.844 43.1575 163.633 43.5295 161.703C40.7706 162.582 42.0264 166.907 38.6928 166.717C38.4767 166.55 38.3533 166.148 38.2265 166.128C34.6466 165.575 34.2847 161.766 31.9576 159.947C31.1937 159.35 30.6382 158.876 29.5416 159.325C25.4416 161.003 25.423 160.958 25.0813 156.487C25.5072 156.082 25.9328 155.676 26.3586 155.27C28.3752 155.283 31.0196 156.833 31.466 153.07C31.5692 152.199 32.3417 151.787 33.2524 151.979C34.0988 152.157 34.6251 152.698 34.7755 153.57C34.9229 154.425 34.3709 155.386 35.0862 156.218C36.4053 155.776 36.4959 154.727 36.5637 153.705C36.6614 152.235 37.4722 151.674 38.6063 152.546C40.5185 154.017 42.4691 154.613 44.9395 153.443C43.3119 150.958 42.3523 148.642 47.1303 148.121C49.2032 147.895 49.1444 145.34 49.1948 143.511C49.2294 142.256 48.0768 141.045 49.0288 139.737Z" fill="#C4C857"/>
<path d="M25.0812 156.487C25.4363 157.728 25.7914 158.97 26.1447 160.205C28.6165 160.433 30.0307 155.508 31.411 157.959C32.6571 160.172 38.3152 160.126 35.1818 164.517C37.2006 165.409 37.3219 162.083 38.8106 163.016C40.3247 163.964 38.5888 165.348 38.6434 166.563C38.9978 167.19 38.6943 167.646 38.2558 168.067C33.4641 170.475 32.8945 165.472 30.6619 164.073C34.0917 168.919 27.3492 169.382 26.3738 172.528C25.6837 171.083 24.9933 169.638 24.3034 168.192C25.444 167.693 27.2345 167.895 26.886 165.794C24.9453 163.884 23.9154 161.713 24.9197 158.956C24.7421 158.118 24.2768 157.262 25.0812 156.487Z" fill="#CCCF6D"/>
<path d="M24.9199 158.957C25.5755 161.236 26.2307 163.516 26.8862 165.795C23.5751 165.191 22.3993 162.812 21.9332 159.844C22.6961 158.764 23.9198 159.236 24.9199 158.957Z" fill="#D2D47E"/>
<path d="M38.1992 193.803C37.8638 192.144 39.0384 191.846 40.2192 191.628C41.6604 191.362 41.8744 192.494 42.1969 193.472C40.827 193.131 39.3975 192.063 38.1992 193.803Z" fill="#B5B950"/>
<path d="M26.3735 172.529C26.7954 170.765 26.5152 168.808 29.2418 168.246C30.9575 167.892 31.5186 166.104 29.875 164.637C29.0979 163.944 28.71 163.303 29.0101 162.279C29.2008 161.628 29.3877 160.985 30.1781 160.917C31.1157 160.837 30.9873 161.565 31.1824 162.192C32.4489 166.265 34.8373 168.072 38.0786 167.534C38.4901 169.222 37.2183 170.752 37.6231 172.453C37.7396 172.943 37.6211 173.491 38.2377 174.133C40.6513 172.637 43.2252 171.528 45.1782 174.997C46.438 177.234 45.6952 177.88 43.3945 177.501L43.3956 177.503C41.8638 177.123 40.637 177.333 40.187 179.118C39.8672 180.387 39.0451 181.35 38.1943 182.29L38.1847 182.291C34.8042 184.199 34.4569 183.887 33.5186 178.107C33.4139 177.591 32.7474 178.378 33.2115 178.128C33.3165 178.072 33.4629 178.167 33.4285 178.378C33.1167 180.289 36.1551 182.992 32.108 184.026C31.6397 180.705 32.6673 176.67 27.9702 175.371C26.6545 174.863 26.7537 173.561 26.3735 172.529Z" fill="#C1C45B"/>
<path d="M32.1085 184.025C35.1514 181.493 31.3148 178.953 32.4699 176.462C33.8446 177.07 35.0417 178.356 34.8648 180.145C34.5476 183.347 36.2093 182.931 38.1849 182.291C37.9343 183.386 38.0821 184.787 36.2311 184.541C32.228 184.01 33.6923 186.471 34.1597 188.375C32.4104 187.428 32.7712 185.486 32.1085 184.025Z" fill="#B5B950"/>
<path d="M36.1363 258.496C36.8208 260.268 36.2687 261.705 34.9295 262.926C34.2124 261.145 34.7975 259.718 36.1363 258.496Z" fill="#919E3E"/>
<path d="M32.4408 245.566C32.9513 245.928 33.4595 246.294 33.9732 246.652C35.1788 247.491 36.4587 248.474 35.2035 250.009C34.0731 251.392 32.5804 251.429 31.2598 250.022C32.9664 248.883 30.9475 246.76 32.4408 245.566Z" fill="#A1AB4D"/>
<path d="M38.614 206.818C36.588 205.062 38.291 203.468 38.8317 201.824C39.2489 203.51 39.3544 205.182 38.614 206.818Z" fill="#AEB342"/>
<path d="M43.3873 206.283C42.3434 206.5 41.4401 206.416 40.883 205.224C42.2486 204.662 42.9513 205.181 43.4002 206.26L43.3873 206.283Z" fill="#AEB342"/>
<path d="M42.3038 133.448C41.2321 134.485 38.9836 134.754 39.3482 133.475C40.4266 129.694 34.2963 125.029 40.7941 122.012C41.6799 121.6 40.4742 120.722 40.1195 120.102C40.1143 119.49 40.351 119.031 40.9478 118.803C43.6205 119.603 44.5061 121.861 45.4845 124.203C46.7815 123.956 47.2785 121.572 49.2229 122.452C49.8951 124.791 52.2379 127.05 49.5555 129.546C47.0382 130.657 44.556 131.839 42.3038 133.448Z" fill="#C1C456"/>
<path d="M40.6718 119.108C40.4879 119.439 40.304 119.771 40.1201 120.102C39.8686 120.173 39.6165 120.243 39.3645 120.312C38.3297 119.373 37.299 118.473 36.4996 117.264C35.4026 115.605 34.9249 114.426 37.2321 113.368C38.5903 112.745 39.1575 111.366 38.8175 109.785C39.8304 107.682 41.5305 107.698 43.4164 108.29C44.5813 110.574 43.8098 112.842 43.3086 115.231C44.6377 115.451 45.6547 114.983 46.1839 113.821C47.7957 110.282 49.15 112.009 50.5394 113.969C51.1601 115.198 50.9995 116.302 50.0067 117.268C49.2759 118.064 49.7071 118.925 49.8653 119.77C46.8839 118.401 43.85 117.758 40.6718 119.108Z" fill="#C0C455"/>
<path d="M49.6944 136.269C49.8843 137.502 49.8301 138.689 49.035 139.735C47.53 139.004 45.8607 139.899 45.6395 141.627C45.5765 142.12 45.8023 142.651 45.9027 143.163C46.0011 143.668 46.108 144.171 46.2795 145.007C43.7145 144.429 40.663 144.726 42.9568 140.714C43.4765 139.805 42.9704 139.131 42.1873 138.39C41.0348 137.298 41.6264 136.315 42.9519 135.727C43.6596 134.356 44.6299 133.315 46.2401 134.263C47.5295 135.022 48.7137 134.1 49.93 134.364C50.7287 135.107 50.0899 135.673 49.6944 136.269Z" fill="#C1C456"/>
<path d="M50.002 134.54C48.574 134.97 47.4365 137.916 45.5664 134.8C44.9879 133.836 43.9579 135.673 42.9526 135.727C42.7364 134.967 42.5202 134.208 42.304 133.449C43.305 129.91 46.5772 129.91 49.2575 128.987C50.5241 131.371 50.7444 133.014 50.002 134.54Z" fill="#C8CB6C"/>
<path d="M57.9424 96.1163C56.9317 95.0568 57.2679 93.9453 57.816 92.8253C58.017 88.4343 62.4741 87.3789 64.4445 84.3748C66.3634 83.6814 68.2822 81.783 70.2021 84.3716C68.9938 86.3387 67.7841 88.3046 66.5774 90.2725C65.9733 91.2577 65.0865 91.972 64.0072 91.3178C59.8175 88.7791 60.6523 92.5242 60.8134 94.1554C61.1057 97.1066 59.8305 96.8355 57.9424 96.1163Z" fill="#C3C760"/>
<path d="M74.4342 90.5534C73.6232 91.0935 72.8908 92.4768 71.8119 91.5067C70.5257 90.3498 72.0491 89.8549 72.7106 89.1589C74.4179 87.3619 71.1818 86.3687 71.9384 84.7007C72.9165 84.9179 73.8834 84.7529 74.2761 83.8114C75.2685 81.4309 75.2078 81.4046 77.8052 82.3674C77.9248 82.4117 78.0281 82.4993 78.4815 82.7751C74.9881 84.3415 76.6962 88.3671 74.4342 90.5534Z" fill="#C3C760"/>
<path d="M59.0426 105.673C58.0948 105.605 56.941 107.683 56.2776 105.715C55.6253 103.781 55.898 101.852 58.6643 101.671C58.9317 102.992 59.9656 104.24 59.0426 105.673Z" fill="#93A133"/>
<path d="M43.386 108.482C41.8725 108.949 40.1618 108.724 38.8176 109.785C38.189 109.95 37.5858 109.978 37.0838 109.463C36.3502 105.323 34.4311 102.302 29.8434 101.796C29.5179 101.537 29.4698 101.232 29.6961 100.884C29.3046 98.9031 27.3249 99.376 25.7589 98.6125C27.371 96.8091 28.2226 94.8407 29.0426 92.8563C30.5414 91.6419 32.8737 92.2885 34.147 90.5705C34.5171 90.6038 34.8684 90.703 35.2042 90.8611C37.0282 91.6332 37.9576 92.7988 37.0717 94.8657C36.7098 95.7107 36.5393 96.6303 36.5828 97.5652C36.6565 99.1462 36.4059 101.121 39.0635 99.6799C39.8659 100.697 40.179 102.144 42.2006 101.66C43.7741 101.284 45.5273 101.727 47.0306 102.617C48.7681 105.327 46.4993 106.449 44.9602 107.866C44.509 108.258 44.0334 108.593 43.386 108.482Z" fill="#C5C95E"/>
<path d="M29.6956 100.884C29.7709 101.139 29.8465 101.394 29.9218 101.649C29.3688 104.829 28.7806 105.111 25.5855 103.723L25.567 103.704C26.4157 101.992 28.7362 102.434 29.6956 100.884Z" fill="#C8CB65"/>
<path d="M32.835 57.2522C33.1618 58.3278 34.6024 59.3618 32.9559 60.5114C32.7559 59.4312 31.9681 58.3726 32.835 57.2522Z" fill="#CED16E"/>
<path d="M25.5854 103.723C27.5249 104.064 29.357 104.181 29.9216 101.649C32.2382 100.533 37.1082 102.731 36.5311 104.846C36.0157 106.734 40.5526 107.654 37.0835 109.463C36.2779 109.482 35.183 108.745 34.9293 110.236C34.7503 111.287 34.8317 113.272 33.3281 112.115C32.554 111.519 29.2619 111.98 30.7984 109.044C31.341 108.008 30.5971 106.79 30.1312 105.708C27.5832 107.89 26.5056 107.411 25.5854 103.723Z" fill="#C0C455"/>
<path d="M63.4667 72.3268C64.1687 70.753 65.8236 71.0323 67.0529 70.4834C67.3742 71.6613 67.8934 72.9073 65.6933 72.1364C65.0525 71.9119 64.2145 72.2479 63.4667 72.3268Z" fill="#BEC250"/>
<path d="M43.3944 177.502C44.0059 177.066 45.4922 177.478 44.9348 175.911C42.7762 176.723 43.6203 171.501 40.7996 173.829C40.0081 174.483 39.4748 175.437 38.3541 175.651C37.5936 175.797 36.3082 176.001 36.5158 175.058C37.067 172.556 35.3644 169.559 38.0777 167.534C38.2659 167.21 38.4537 166.887 38.6418 166.563C40.5726 165.944 40.4661 164.176 40.7783 162.685C41.1867 160.735 42.7301 159.797 44.2262 160.352C46.4148 161.162 44.3215 162.373 43.9834 163.406C43.6217 164.512 43.5036 165.744 42.2601 166.355C41.536 166.711 41.3253 167.362 41.9428 167.905C42.3952 168.304 43.0895 168.427 43.6763 168.673C44.1914 166.52 45.7079 165.576 47.768 165.289C47.4277 163.335 49.5007 161.31 47.4878 159.358C46.7571 158.649 47.1337 157.688 47.668 156.829C48.8134 154.987 49.8551 153.721 46.6641 152.101C44.3495 150.927 47.968 150.196 48.4097 148.973C49.1907 152.059 50.87 155.154 48.3174 158.207C51.4697 165.539 44.6782 172.806 48.1446 180.159C48.2539 180.391 47.8841 180.849 47.7377 181.202C45.4172 180.993 44.6938 178.909 43.3944 177.502Z" fill="#B7BB43"/>
<path d="M40.6717 119.108C41.8844 117.105 47.1885 116.629 48.6624 118.388C49.0548 118.856 49.4643 119.309 49.8654 119.77C50.0682 120.396 50.1105 120.997 49.6009 121.516C49.3892 121.827 49.4713 122.321 49.0065 122.476C48.424 122.972 47.7356 123.388 47.2831 123.983C46.5767 124.913 46.1167 126.239 44.6362 125.86C42.4816 125.308 44.4556 123.599 44.3181 123.475C42.8853 122.182 42.7321 119.817 40.6717 119.108Z" fill="#C9CC67"/>
<path d="M50.573 110.556C52.0407 110.608 54.1809 112.883 54.5564 109.304C54.6329 108.573 55.3527 108.333 56.0538 108.439C56.8941 108.567 57.5472 109.088 57.6815 109.899C57.869 111.031 57.8484 112.198 57.9162 113.35C56.1191 115.574 53.8492 114.762 51.6381 114.328C49.5862 113.55 48.8743 112.393 50.573 110.556Z" fill="#8F9E31"/>
<path d="M51.2033 135.827C52.3635 135.476 53.5774 135.151 54.4208 136.345C55.1516 137.38 54.6974 138.317 53.8734 139.135C53.4247 139.58 52.6458 140.286 53.1999 140.743C56.1334 143.163 53.0802 144.144 52.2691 145.872C50.4125 142.498 51.0992 139.134 51.2027 135.826L51.2033 135.827Z" fill="#8F9E2E"/>
<path d="M49.0066 122.476C49.2046 122.156 49.4027 121.836 49.6008 121.516C49.9242 122.782 50.2168 124.037 51.4485 124.829C52.5549 125.541 53.133 126.813 52.6014 127.884C51.3338 130.437 51.5929 133.172 51.2036 135.827L51.2028 135.827C50.7002 135.974 50.1976 136.122 49.6953 136.27C49.7978 135.693 49.9001 135.117 50.0023 134.54C49.754 132.689 49.5057 130.838 49.2575 128.987C51.1345 126.741 48.9003 124.654 49.0066 122.476Z" fill="#ACB656"/>
<path d="M50.5728 110.556C50.0278 112.067 50.4238 113.313 51.6383 114.328C53.1915 116.471 51.6855 116.918 50.0066 117.268C50.2457 116.171 50.3518 115.08 49.8831 114.01C49.3425 112.709 47.3595 111.139 50.5341 110.531L50.5728 110.556Z" fill="#A0AC4A"/>
<path d="M42.9552 181.76C43.3535 183.51 45.116 182.48 46.0641 182.951C45.7287 184.754 43.68 184.366 43.3069 185.823C42.9461 187.231 41.9072 188.436 40.5106 187.836C38.4572 186.954 40.3758 185.397 40.36 184.136C40.5632 182.621 40.6392 180.968 42.9552 181.76Z" fill="#B8BD58"/>
<path d="M42.9552 181.76C41.4328 181.834 40.9744 183.07 40.3597 184.136C40.0471 183.04 39.7577 181.918 38.1939 182.29C39.6529 180.396 38.063 175.191 43.3954 177.503C39.9579 178.583 41.7973 180.206 42.9552 181.76Z" fill="#B7BB43"/>
<path d="M46.2327 187.378C46.2938 187.635 46.3546 187.893 46.4154 188.151C45.63 188.333 44.8274 188.408 44.3093 187.669C44.186 187.493 44.4014 186.823 44.6271 186.709C45.3346 186.353 45.7934 186.909 46.2327 187.378Z" fill="#B8BD58"/>
<path d="M43.528 221.051C43.8962 221.177 44.3933 221.193 44.6115 221.448C46.0322 223.105 45.5617 230.714 44.0147 232.266C43.5711 232.711 43.2638 233.467 42.4874 233.119C41.7682 232.797 41.8647 232.056 41.9462 231.399C42.0587 230.492 42.2117 229.59 42.293 228.681C42.5746 225.539 41.4007 224.352 38.3257 225.776C38.6011 224.734 39.554 224.679 40.3461 224.39C41.1031 223.605 40.6661 222.749 40.4935 221.909C41.5633 222.852 42.6332 223.795 43.7711 224.798C44.6609 223.335 43.6316 222.231 43.528 221.051Z" fill="#8D9B45"/>
<path d="M32.7273 82.7541C31.2262 83.4226 29.5093 83.3484 28.2321 84.8957C27.4614 85.8296 26.8332 88.0019 24.8049 87.1146C22.825 86.2488 23.2302 84.3867 23.2354 82.6304C24.1762 82.1884 28.5615 86.4999 25.7953 80.8911C25.308 79.9033 26.0711 78.7602 26.9842 78.1994C27.8428 77.672 28.4075 78.575 28.8948 79.1404C30.0502 80.4807 33.0343 79.8816 32.7282 82.7538L32.7273 82.7541Z" fill="#D3D578"/>
<path d="M32.9533 83.5194C32.6675 84.4251 32.3814 85.331 32.0957 86.237C30.7469 84.8161 30.5032 83.7437 32.9533 83.5194Z" fill="#C5C95E"/>
<path d="M34.3708 91.3367C34.2961 91.0815 34.2218 90.8262 34.1471 90.5707L34.1476 90.5739C34.6044 89.1887 35.496 88.5575 36.975 88.9439C40.5407 89.1835 42.2757 91.7099 43.8827 94.6662C42.1677 91.7685 45.6322 89.5574 44.548 86.7354C44.2879 86.0581 46.1941 86.3659 47.0835 86.8862C49.0464 90.2496 51.9715 93.4112 49.3482 97.7322C47.1915 99.797 45.2689 98.0925 43.2848 97.3658C40.9834 94.3725 38.8486 91.1274 34.3708 91.3367Z" fill="#C3C761"/>
<path d="M46.8373 74.6068C47.9007 77.1042 47.917 79.7947 48.277 82.4216L48.273 82.4409C48.0245 82.5074 47.7762 82.5745 47.5282 82.6424C47.3995 79.955 45.8916 77.3868 46.8373 74.6068Z" fill="#A0AC4A"/>
<path d="M36.9748 88.944C35.833 89.1419 34.9491 89.7864 34.1475 90.574C34.0722 88.2662 35.3402 88.287 36.9748 88.944Z" fill="#C5C95E"/>
<path d="M43.3864 96.9762C45.4276 96.8038 47.2411 98.4225 49.348 97.7324C50.3893 99.9728 50.0984 102.439 50.5417 104.781C48.9876 104.517 47.7189 103.738 46.6368 102.621C44.2279 103.427 41.4601 101.096 39.3752 103.782C38.2511 102.241 39.2847 101.019 39.2438 99.7928C39.2644 99.6143 39.2851 99.4361 39.3041 99.2568C40.0094 97.7328 41.7458 97.9421 42.8765 97.1309C43.0458 97.0773 43.2159 97.0266 43.3864 96.9762Z" fill="#BBBF4A"/>
<path d="M50.5339 110.531C48.5982 111.37 49.7003 112.776 49.883 114.01C49.3021 113.528 48.7214 113.045 47.8399 112.313C47.2585 116.688 44.5186 117.04 40.4478 115.991C43.7535 114.082 42.5754 110.982 43.3857 108.482C43.5674 108.157 43.7488 107.832 43.9305 107.507C47.2351 104.959 48.6032 107.843 50.3098 109.777C50.3883 110.028 50.4628 110.279 50.5339 110.531Z" fill="#B9BD48"/>
<path d="M50.3102 109.778C49.3518 109.535 48.084 109.669 47.663 108.597C46.8381 106.497 45.4137 107.036 43.9309 107.507C44.8961 105.913 48.1708 105.597 46.6371 102.621C48.0155 103.202 49.514 103.567 50.5421 104.781C51.0837 106.475 51.4821 108.162 50.3102 109.778Z" fill="#C0C455"/>
<path d="M48.2771 82.4215C49.0405 81.8626 48.646 80.122 49.5764 80.2925C50.6898 80.4967 51.8694 81.3987 52.592 82.3305C53.1591 83.0618 52.3403 84.3126 51.7026 84.6633C49.4157 85.9209 49.1706 83.5934 48.2732 82.4404L48.2771 82.4215Z" fill="#879622"/>
<path d="M34.3699 91.3364C36.7494 90.1771 40.3915 91.2957 41.6124 93.5725C42.2168 94.6997 42.7954 95.8409 43.3859 96.9761L43.3844 96.9765C42.5461 98.7097 39.6091 97.3597 39.2459 99.7913L39.2433 99.7927C38.1407 99.8988 37.4913 100.734 36.6775 101.466C35.5991 99.4174 34.7472 97.1453 35.9514 95.2401C37.5111 92.7723 35.7644 92.2704 34.3699 91.3364Z" fill="#CACD70"/>
<path d="M39.2461 99.7915C39.2492 96.8307 42.006 97.9165 43.3846 96.9767C43.2692 99.7723 40.0615 98.0245 39.2461 99.7915Z" fill="#C3C761"/>
</svg>
