<svg width="156" height="214" viewBox="0 0 156 214" fill="none" xmlns="http://www.w3.org/2000/svg">
<path d="M68.0957 151.388C66.6758 143.633 67.1287 136.046 70.794 128.96C73.3145 124.086 75.4214 123.372 81.5322 124.5C83.0722 124.784 83.7386 123.731 84.2362 122.752C85.2389 120.779 86.0074 118.687 86.8726 116.644C88.3399 117.557 89.6951 122.583 88.5631 122.883C85.9269 123.583 88.0829 124.893 87.7666 125.789C87.5469 126.412 87.3485 126.994 86.7907 127.385C84.5159 127.145 82.8341 129.275 80.4913 128.937C79.7665 128.832 79.3243 129.511 79.6676 130.266C80.0116 131.024 80.6894 130.975 81.3132 130.627C83.0947 129.635 84.2501 127.654 86.4746 127.357C87.6138 127.796 87.6998 129.176 87.306 129.597C84.5802 132.512 86.4723 136.158 85.5659 139.322C85.8891 143.046 83.4757 145.262 81.0742 147.488C80.0464 148.692 78.8737 149.711 77.4303 150.394C76.0225 151.06 74.6394 151.344 73.6283 149.796C72.0524 147.383 70.8561 148.257 69.7368 150.175C69.6232 150.921 69.4607 151.64 68.7355 152.057C68.3062 152.041 68.0818 151.828 68.0957 151.388Z" fill="#C6C95E"/>
<path d="M13.7896 121.745C11.9254 116.703 14.5885 112.974 17.4244 109.309C18.036 108.519 18.8904 108.286 19.8937 108.476C23.8637 109.225 23.6072 106.38 23.2144 104.103C22.6149 100.627 21.5322 97.2352 20.6548 93.8076C20.7385 93.3996 20.9885 93.1934 21.4041 93.1861C24.9979 96.7485 29.1049 99.9454 29.9754 105.432C30.1595 106.591 30.4488 107.739 31.779 108.253C33.4324 108.891 33.527 110.538 32.8178 111.523C31.0779 113.939 32.5756 114.917 34.3092 115.946C35.5657 116.691 36.0368 117.849 36.1947 119.209C36.4313 120.459 37.0828 121.612 37.0846 122.92C36.811 124.088 37.6724 125.591 36.0838 126.381C35.4202 126.334 34.8517 126.036 34.2925 125.705C30.5169 123.464 30.1048 123.546 28.6618 127.598C28.1768 128.96 27.4839 129.492 26.5597 128.447C25.2893 127.01 23.7102 127.584 22.2676 127.284C21.1164 125.334 20.003 123.365 19.7112 121.056C21.7035 116.606 23.328 120.647 25.2804 121.162C24.0928 119.889 23.3175 118.123 21.0453 118.71C19.8185 118.709 18.6177 118.543 18.0037 117.321C17.574 116.466 18.2406 116.188 18.9428 116.058C19.2258 116.005 19.465 116.106 19.6603 116.305C19.6747 116.32 19.5561 116.061 19.256 116.076C16.3231 116.229 18.1131 117.989 18.2779 119.135C18.5602 121.098 18.9675 123.051 17.9137 124.919C17.388 125.852 16.7886 126.926 15.5702 126.675C14.5866 126.473 14.3287 125.4 14.2431 124.461C14.159 123.541 14.1046 122.623 13.7896 121.745Z" fill="#C1C558"/>
<path d="M33.8365 22.3268C34.6483 17.111 42.5322 9.24546 47.5118 8.69098C48.7922 8.54847 50.0749 8.42991 51.3566 8.30042C54.399 6.79601 57.7154 7.40234 60.5117 8.29631C63.2523 9.1728 64.1722 12.6173 65.0766 15.2206C65.8679 17.4977 65.7555 20.4212 64.6183 22.5289C63.2171 25.1263 63.1632 27.7726 62.8158 30.4701C60.8553 34.3375 58.4598 37.9238 55.7255 41.279C54.2191 43.1278 52.7975 44.9941 52.4519 47.4462L52.4525 47.4396C52.3285 49.2403 52.0736 51.0324 51.9596 52.8293C51.8328 54.8293 52.3643 56.6677 54.112 57.9382C54.1273 58.3316 54.0168 58.6821 53.7815 58.9973C53.1601 59.5617 52.4112 59.7193 51.6031 59.6996C49.8059 59.4913 48.5219 58.4242 48.6976 56.6907C49.0345 53.3639 47.923 49.9753 49.1791 46.7097C51.1154 43.2313 53.4437 39.8781 51.2949 35.5531C50.6775 34.3107 51.3979 32.973 52.3937 32.0413C54.5589 30.0148 55.1335 27.8977 53.0154 25.4932C52.7166 24.4931 52.9784 23.65 53.7267 22.9448C53.9981 22.7093 54.2993 22.5108 54.6095 22.3348C56.6391 20.3244 54.9251 17.3704 56.3928 15.2184C56.4955 14.8658 56.6454 14.5366 56.8281 14.2197C57.1905 13.6756 57.662 13.2526 58.2195 12.9126C59.6226 12.0569 59.4301 11.2583 57.937 10.9985C55.4403 10.5645 52.683 9.84419 51.9965 13.6475C51.9071 14.144 51.5487 14.566 51.211 14.9588C47.3726 17.1412 48.2562 13.3459 47.1298 11.5963C46.5843 13.3295 45.8861 14.5372 43.9162 13.2238C42.8512 12.5134 42.0327 13.6201 41.271 14.3055C40.1389 15.3429 39.335 16.6299 38.5105 17.9031C37.5401 19.1861 36.384 20.3167 35.4938 21.6651C35.0356 22.1219 34.5172 22.4296 33.8365 22.3268Z" fill="#D9DB82"/>
<path d="M107.252 89.8624C114.585 85.7013 119.228 78.1176 127.053 74.4828C129.694 73.2559 132.358 72.5296 135.108 71.8586C138.227 71.6248 138.379 74.5409 138.237 75.9754C137.856 79.8054 139.424 78.1989 140.895 77.2507C143.16 75.7904 145.388 74.3369 147.793 77.0003C148.029 77.4762 148.342 78.0507 148.041 78.4843C146.262 81.048 143.884 83.0451 141.502 85.001C140.804 85.5744 139.741 85.2671 138.879 84.8855C137.684 81.3721 137.235 81.2737 133.362 83.5975C132.573 84.0706 131.835 84.614 131.066 85.123C130.747 85.3581 130.416 85.5622 130.076 85.7613C126.353 88.967 122.703 92.2759 117.812 93.6484C116.752 93.5002 116.039 92.9284 116.295 91.8171C116.641 90.3167 116.031 89.2954 114.78 88.1834C114.22 89.3993 114.858 90.4701 114.856 91.5134C114.851 93.8 113.813 95.3421 111.501 95.61C110.171 95.7639 108.942 95.8998 107.823 96.7247C106.636 97.599 105.561 97.2094 104.794 96.0753C103.947 94.8231 104.498 93.7316 105.595 93.0609C106.862 92.2867 107.988 91.6036 107.252 89.8624Z" fill="#C8CB65"/>
<path d="M33.8362 22.3269C34.2775 21.9457 34.7186 21.5646 35.1597 21.1837C35.4016 19.3737 38.068 19.3175 37.9875 17.2745C38.3222 15.5628 39.6011 14.5262 40.7579 13.4022C42.1223 12.8377 43.7026 12.0296 43.5424 14.6265C43.4449 16.2033 44.3021 16.9783 45.3487 17.8103C48.1042 20.0014 48.9957 19.7875 50.4898 16.4784C50.8108 15.7676 51.0642 15.027 51.4212 14.3226C52.0676 12.8368 52.321 10.7635 54.593 11.1767C56.5686 11.536 57.037 13.205 56.9446 15.0311L56.9453 15.0304C56.6765 17.2365 54.301 19.0795 55.9062 21.6577C56.2119 22.1488 55.4684 22.7815 54.7193 22.8545C53.6823 22.7909 53.391 24.0993 52.3988 24.1201C49.7679 22.5882 48.3876 23.179 47.1288 26.1783C45.9604 28.9623 44.9223 32.0014 42.6244 34.2347C40.3601 34.1556 39.0564 33.5608 40.2935 30.8791C40.8307 29.7147 40.3792 28.3347 39.1653 26.5771C39.7267 29.832 39.2459 32.3755 38.8435 34.913C38.5302 36.89 37.4155 37.6592 35.4947 36.5695C35.2708 36.4426 35.1061 36.2101 34.8804 36.0818C33.3559 35.2155 30.6005 36.4982 30.1403 34.2085C29.6547 31.7926 30.9172 29.3641 31.9227 27.1127C32.5423 25.7258 34.0317 24.6981 33.5074 22.8835C33.571 22.6709 33.6806 22.4856 33.8362 22.3269Z" fill="#C6CA5C"/>
<path d="M84.8586 139.089C84.9688 137.179 85.3872 135.278 84.5182 133.389C84.1671 132.626 83.3209 131.587 85.3179 131.225C87.5967 130.81 86.1356 128.669 86.5474 127.354L86.5461 127.355C86.5109 126.394 88.5125 124.437 85.3807 124.983C84.8919 125.068 84.6153 124.668 84.7582 124.297C84.9823 123.716 85.4171 123.219 85.7156 122.661C86.3574 121.46 88.6329 123.456 87.8516 122.501C86.1699 120.445 89.8338 117.996 86.8736 116.645C86.6533 115.963 87.0876 115.55 87.4962 115.125C87.1996 112.461 90.4768 110.907 89.6771 107.999C89.5088 107.387 90.5248 106.74 91.289 106.486C93.2632 105.828 94.6723 104.677 95.3039 102.589C95.627 101.522 96.4827 100.748 97.702 101.172C98.9871 101.618 99.4685 102.788 99.2093 104.021C98.9353 105.324 99.6432 105.783 100.475 106.497C101.394 107.285 101.454 107.794 100.073 108.884C98.6249 110.025 101.566 110.108 101.794 111.239C98.8772 115.508 96.826 120.305 93.7478 124.477C92.5975 126.301 91.9947 128.359 91.2339 130.351C89.8481 132.38 88.276 134.276 87.5932 136.734C87.2391 138.007 86.4313 139.074 84.8586 139.089Z" fill="#BBBF4D"/>
<path d="M33.4824 160.348C32.7382 158.571 32.2859 156.727 32.1954 154.799C32.0505 150.698 28.3152 148.772 26.6252 145.609C26.7293 144.247 27.3532 143.11 28.2936 142.168C29.0798 141.38 30.3688 140.728 31.0314 141.719C32.9711 144.62 36.9384 143.836 38.973 146.395C42.4945 150.595 44.5894 155.126 42.2629 160.678C42.2068 161.411 42.0574 162.126 41.8529 162.83C41.6838 163.322 41.3574 164.16 41.0718 164.069C38.6998 163.311 36.927 164.92 34.8995 165.484C34.1687 163.844 33.7465 162.118 33.4824 160.348Z" fill="#AFB446"/>
<path d="M33.507 22.8834C34.249 24.4897 34.6592 25.9303 32.8555 27.2907C31.4274 28.3679 31.5091 30.3357 30.8629 31.8837C29.8899 34.2144 30.8808 34.9929 33.177 34.9014C34.2383 34.8591 35.417 34.1184 36.1468 36.0595C36.525 37.0645 37.7929 36.3426 37.9483 34.8865C38.2369 32.1778 39.0033 29.5036 38.137 26.7641C37.9529 26.1822 37.6799 25.3807 38.622 25.1937C39.085 25.1018 39.8893 25.2205 40.0836 25.5297C41.2889 27.4502 41.9297 29.6566 41.5764 31.8522C41.3715 33.1253 40.9485 33.0574 42.447 34.032C42.8603 34.1355 43.0945 34.3985 43.1534 34.8201C42.1905 39.1494 40.8453 43.3513 38.9128 47.3571C35.1757 49.8141 35.3272 46.4806 34.5972 44.4603C34.2796 42.749 35.1872 41.1881 35.3011 39.4033C32.7237 40.7101 34.331 42.4714 34.5928 44.0469C33.8335 46.3227 32.2965 45.7241 31.0152 44.8056C28.7515 43.183 28.8097 44.7857 28.7026 46.2967C28.7885 47.6349 28.6757 48.9201 27.7189 49.9792C27.4849 50.2778 27.2233 50.5509 26.949 50.8127C26.5361 51.2112 26.0811 51.5522 25.5698 51.8167C25.2121 51.9681 24.8393 52.0076 24.4556 51.9548C25.8501 47.5847 27.0978 43.1878 27.859 38.6448C28.7923 33.0727 30.1887 27.6226 33.507 22.8834Z" fill="#C9CC6A"/>
<path d="M101.607 111.1C98.8391 111.998 98.8318 109.253 97.6078 108.121C98.572 106.554 99.6683 108.854 100.66 108.014C100.59 107.717 100.613 107.34 100.462 107.247C99.1315 106.426 96.4792 106.447 98.4808 103.661C98.8472 103.151 98.3934 102.03 97.4907 101.79C96.4733 101.519 96.1624 102.244 96.0299 103.114C95.6466 105.626 94.1445 106.844 91.6522 107.312C90.0554 107.612 89.9814 107.972 91.2576 109.485C92.0131 110.381 91.5812 111.358 91.1255 111.341C88.3641 111.234 88.7688 113.955 87.4962 115.124C88.4284 108.086 90.122 101.378 93.8766 95.1446C95.9388 91.7216 98.1057 89.395 102.203 89.3362C103.326 88.7664 104.443 88.7305 105.555 89.3639C105.747 89.5234 105.95 89.6658 106.166 89.7909C106.243 90.4576 106.208 91.1614 105.788 91.6649C102.12 96.0689 102.034 101.047 103.369 106.265C103.602 107.173 103.585 108.069 103.322 108.967C102.975 109.859 102.699 110.809 101.607 111.1Z" fill="#C1C55B"/>
<path d="M102.735 108.892C102.751 105.33 101.426 102.039 101.846 98.1952C102.265 94.3661 104.459 92.4246 106.165 89.7917C106.527 89.8149 106.889 89.8388 107.252 89.8624C107.947 91.4932 109.74 88.1365 110.147 90.4467C110.418 91.9894 108.928 92.2371 107.897 92.7552C107.078 93.1668 106.246 93.5739 105.495 94.0921C105.053 94.3977 104.864 94.985 105.238 95.4764C105.538 95.8714 106.281 96.4805 106.327 96.4385C107.999 94.9364 109.864 94.8312 112.074 94.5506C114.974 94.1822 114.098 91.2449 113.321 89.0464C112.928 87.9339 113.274 86.813 114.348 86.3461C116.113 85.5795 115.463 87.6974 116.058 87.9954C118.686 89.3118 117.234 91.4063 117.293 93.2108C118.261 95.1283 117.315 96.2061 115.596 96.7846C114.004 97.3208 112.932 98.363 112.134 99.7751C111.374 100.758 110.74 101.821 110.075 102.869C107.786 105.071 106.287 108.237 102.735 108.892Z" fill="#BBBF4D"/>
<path d="M66.369 207.822C63.6014 210.299 58.0691 209.725 55.1422 206.407C53.3918 204.423 51.5829 202.588 49.2194 201.41C47.5808 200.593 47.2723 198.973 46.7401 197.561C44.9429 192.795 43.2952 187.973 41.59 183.172C46.0371 182.192 47.6746 183.971 47.6194 189.874C49.084 189.002 50.3363 189.36 51.4506 190.462C51.9953 190.99 52.4317 191.593 52.751 192.28C53.1863 193.65 53.756 194.924 54.8108 195.973C56.8661 198.017 58.3029 200.383 59.1637 203.227C59.9643 205.873 61.7124 207.776 64.9442 207.191C65.5252 207.163 66.0766 207.204 66.369 207.822Z" fill="#AFB446"/>
<path d="M50.7737 191.074C48.6495 188.272 48.1685 192.206 46.1795 192.323C46.7903 188.074 47.8729 183.51 41.5901 183.172C40.1954 178.267 36.8021 174.344 34.9498 169.659C34.614 168.81 34.141 168.039 34.3366 167.082C34.6415 166.529 34.1075 165.589 35.1278 165.366C35.5509 165.084 36.2942 164.851 36.3455 164.513C36.7036 162.155 36.6522 159.37 39.4263 163.402C40.3208 164.702 40.8817 163.405 41.268 162.576C43.4001 163.194 44.2667 164.943 44.9031 166.808C45.9897 169.994 44.8634 171.729 41.4894 172.243C41.8761 173.415 43.0358 173.511 43.9164 174.018C45.9808 175.204 47.9763 176.546 45.4905 179.069C44.3054 180.272 45.6455 180.761 46.0387 181.15C48.5136 183.6 48.9493 187.233 51.1965 189.798C51.5377 190.187 51.3467 190.788 50.7737 191.074Z" fill="#A8AD40"/>
<path d="M68.7582 151.936C68.9148 151.385 69.0714 150.833 69.2277 150.282C72.3844 148.167 72.3924 148.298 73.4164 151.42C73.919 152.953 74.3052 155.461 77.1574 154.617C77.4948 154.828 77.6935 155.128 77.7603 155.52C76.3439 159.063 76.3261 163.153 73.5967 166.182C73.2543 166.594 72.8722 166.971 72.4881 167.34C71.3563 168.233 71.0035 169.416 71.214 170.812C71.1939 171.166 71.1203 171.504 71.006 171.838C70.2455 173.645 69.369 174.797 66.9568 174.045C65.35 173.545 63.4967 174.418 61.731 174.458C61.3609 174.522 60.9952 174.507 60.6305 174.424C59.6905 173.628 59.2757 172.706 59.9424 171.53C61.6129 171.133 63.1164 170.532 63.4736 168.562C65.2138 166.462 66.7447 164.264 66.9496 161.42C67.1428 160.871 67.3362 160.323 67.5294 159.774C69.1209 157.346 67.8179 154.466 68.7582 151.936Z" fill="#ACB142"/>
<path d="M66.3686 207.822C65.9986 207.793 65.6288 207.764 65.2585 207.736C64.4743 208.026 63.7521 208.047 63.2109 207.269C62.7296 206.457 62.4037 205.535 62.5523 204.634C63.6806 197.784 63.0204 190.738 64.8639 183.963C65.218 182.662 65.7304 181.788 67.1978 181.826C68.5314 182.187 68.258 183.459 68.6443 184.358C69.1251 185.478 70.3763 185.875 71.0115 186.855C71.2324 187.149 71.4136 187.461 71.5811 187.786C72.0355 188.741 72.7325 189.832 72.322 190.775C70.0675 195.955 70.9732 201.961 68.009 206.935C67.7048 207.186 67.3618 207.364 66.9814 207.469C66.8097 207.643 66.6054 207.761 66.3686 207.822Z" fill="#7E8D17"/>
<path d="M128.991 118.399C130.185 120.111 130.658 121.037 128.403 122.99C123.849 126.936 118.453 128.082 113.027 129.227C108.728 130.133 106.404 133.166 103.839 136.098C102.984 137.076 102.255 138.167 101.504 139.231C100.135 141.17 98.9631 142.557 101.291 145.243C105.954 150.623 105.29 155.596 99.2153 159.114C93.5534 162.394 89.0062 166.593 84.9043 171.49C84.1894 171.124 84.2132 170.499 84.3202 169.843C86.2911 164.515 91.1403 162.051 95.3111 158.956C97.1419 157.597 98.8127 156.201 99.8482 154.151C100.848 151.278 101.173 148.158 98.8755 146.046C95.7244 143.15 96.7966 140.632 98.5586 137.823C103.575 134.09 106.839 127.965 113.678 126.714C115.011 126.527 116.278 126.101 117.521 125.592C118.061 125.411 118.618 125.328 119.183 125.304C122.651 124.364 125.914 123.154 127.467 119.473C127.729 118.852 128.264 118.448 128.991 118.399Z" fill="#F3F4DD"/>
<path d="M27.2708 145.259C27.457 147.34 29.5269 148.025 30.4404 149.548C31.401 151.15 33.1362 152.544 32.1967 154.799C27.9525 146.859 20.6281 141.073 16.8871 132.752C15.2924 129.205 13.1064 125.903 13.7907 121.746C15.3025 122.802 14.1893 125.12 15.9072 126.177C18.3657 124.137 18.0663 121.382 17.2662 119.01C16.1296 115.641 17.9062 115.484 20.3474 115.377C20.4788 116.967 18.816 116.013 18.5498 117.028C19.1161 117.922 20.1268 117.927 21.1609 117.872C22.7704 119.647 19.5653 119.822 20.0464 121.222C20.9768 123.011 22.4965 124.566 22.2755 126.815C23.0794 128.727 21.4434 129.602 20.3603 131.051C22.3816 131.868 26.143 132.281 21.953 135.282C21.2662 135.774 21.876 136.744 22.359 137.364C23.5559 138.901 24.404 140.68 25.7181 142.135C26.5055 143.044 27.2926 143.952 27.2708 145.259Z" fill="#CACD68"/>
<path d="M24.4555 51.9552C24.6901 51.7547 24.9247 51.5543 25.159 51.3535C25.6578 51.7149 25.8582 52.4002 25.4804 52.695C23.0642 54.5791 23.3241 57.5464 22.3915 60.0193C21.6314 61.787 23.3761 62.5525 23.9125 63.7951C24.5428 65.2556 24.6673 66.8478 23.3218 67.7271C21.6839 68.7974 21.1641 67.0182 20.4551 66.0097C19.3432 64.4282 18.2035 62.8692 16.7642 60.7537C14.5504 69.0156 16.0126 76.2705 18.8814 83.3975C20.1072 86.5875 21.3435 89.7761 21.1924 93.2873C21.0155 93.4637 20.8361 93.6372 20.6543 93.8083C16.8512 85.4386 14.0229 76.9029 12.9535 67.6023C12.2257 61.273 15.6971 57.896 19.0873 54.0719C20.3842 52.609 22.9967 53.558 24.4555 51.9552Z" fill="#C7CA6A"/>
<path d="M52.452 47.4458C51.6158 42.3555 56.2207 40.0231 58.1205 36.3201C59.233 34.1515 61.2651 32.541 62.0097 30.1274C62.9671 26.7485 64.9506 23.7165 65.4709 20.1991C66.2553 14.8988 62.8501 11.2216 60.3069 7.22141C69.4616 7.71123 70.1903 17.1138 67.0048 24.0264C63.1238 32.4479 58.5695 40.4261 52.452 47.4458Z" fill="#F3F4DB"/>
<path d="M128.991 118.399C127.293 123.09 123.983 125.705 118.999 126.168C119.085 124.749 120.318 124.304 121.246 123.705C124.563 121.563 125.138 118.053 125.941 114.643C125.638 111.918 124.247 109.528 122.649 107.58C120.936 105.491 120.937 103.964 122.416 102.035C123.905 100.093 124.474 97.3874 127.103 96.3905C128.44 96.219 129.472 95.418 130.543 94.6919C130.876 94.4921 131.224 94.3328 131.583 94.1917C133.533 93.5095 135.478 92.8311 137.364 91.9757C138.564 91.4308 139.892 90.918 140.37 92.9088C139.813 94.7272 138.108 94.9805 136.679 95.4154C134.062 96.2121 131.545 97.2366 129.029 98.2817C128.651 98.6474 128.273 99.0131 127.896 99.3788C127.23 101.399 124.496 102.111 124.435 104.362C124.373 106.632 126.898 107.393 127.943 109.19C129.737 112.279 130.18 115.146 128.993 118.395L128.991 118.399Z" fill="#DADC8E"/>
<path d="M60.3075 7.22185C67.962 14.0301 68.6176 21.3714 62.01 30.1276C60.7996 25.6212 64.2822 22.0318 64.4433 17.6793C64.5432 14.9821 62.5288 13.7683 62.0917 11.8239C61.4079 8.7829 59.9145 8.95931 57.3942 8.85136C55.4526 8.76811 53.432 8.04102 51.357 8.30072C54.1207 6.10994 57.1951 6.50931 60.3075 7.22185Z" fill="#E4E5A3"/>
<path d="M55.2719 55.8357C60.944 56.41 64.8645 59.9081 68.7334 63.6522C70.5532 65.4136 67.526 67.2434 68.9977 68.4597C70.886 70.0198 71.0591 69.8103 70.5498 71.3789C69.5213 74.5458 68.5797 77.7518 66.4473 80.4181C66.0268 80.3325 65.7416 80.0887 65.5891 79.6884C65.3453 78.7563 65.5777 77.8801 65.9009 77.0095C67.9562 71.4671 66.4504 65.0836 62.1559 61.0324C60.3339 59.3136 57.1802 60.0432 55.7832 57.5503C55.4304 57.0327 55.3135 56.4452 55.2719 55.8357Z" fill="#F6F7E5"/>
<path d="M60.4881 162.582C60.8291 164.08 61.1699 165.579 61.5107 167.078C59.5794 167.578 58.2647 166.053 56.6222 165.605C55.0569 165.074 53.8359 164.215 53.9371 162.348C54.0988 159.354 52.4289 157.612 49.9725 156.37C47.0384 154.784 49.1419 153.405 50.3007 152.298C52.0212 150.655 53.5215 151.121 54.4583 153.306C55.498 157.024 58.7489 159.312 60.4881 162.582Z" fill="#BEC271"/>
<path d="M54.7801 94.3821C54.3008 96.9276 53.8336 99.4757 53.339 102.018C52.6405 105.609 51.9047 109.196 53.0457 112.834C53.032 114.299 53.7941 115.376 54.7938 116.339C54.8639 116.704 54.7798 117.027 54.5434 117.314C54.2345 117.514 53.8985 117.63 53.5334 117.669C49.5969 117.949 49.8118 115.074 49.6029 112.513C48.9978 110.186 48.9137 107.854 49.5299 105.513C49.6646 104.803 49.863 104.112 50.1507 103.448C51.3646 101.434 51.9144 99.2604 51.7209 96.9037C52.1464 95.6087 52.7516 94.4431 53.9933 93.734C54.4194 93.7507 54.6818 93.9668 54.7801 94.3821Z" fill="#E5E7B6"/>
<path d="M78.6163 188.85C79.0153 193.955 78.1565 198.994 77.5845 204.023C77.1959 207.44 72.305 209.391 68.6128 207.992C68.6256 207.261 69.0583 206.554 69.634 206.475C74.453 205.824 74.8872 202.195 75.2065 198.462C75.2202 197.902 75.2594 197.346 75.3218 196.789C75.5751 195.02 76.1679 193.326 76.4327 191.556C76.6246 190.27 76.9722 189.01 78.6163 188.85Z" fill="#D1D38F"/>
<path d="M146.92 77.038C144.714 75.4421 143.028 76.7097 141.412 78.0931C140.218 79.1153 138.904 80.5176 137.383 79.4816C136.139 78.6353 135.998 77.0378 137.629 75.9649C136.275 74.9127 137.429 72.3188 135.108 71.8593C136.98 71.086 138.853 70.5847 140.719 71.8748C141.511 75.5601 145.42 73.2902 147.134 75.2256C147.374 75.5381 147.527 75.8883 147.613 76.272C147.598 76.5682 147.489 76.7797 147.289 76.9084C147.086 77.0382 146.963 77.0813 146.92 77.038Z" fill="#D4D77A"/>
<path d="M54.6809 116.641C53.5597 115.62 52.2661 114.673 53.0457 112.834C54.6557 116.366 58.7576 115.696 61.337 117.74C64.1048 119.933 67.1132 121.481 67.2883 125.762C67.3575 127.448 66.6504 128.087 65.8538 129.029C64.827 128.747 64.4625 127.846 63.9866 127.047C62.6711 121.982 58.989 119.032 54.6809 116.641Z" fill="#F4F5E0"/>
<path d="M78.6169 188.85C76.4913 191.249 77.4946 194.64 75.9542 197.225C73.1271 195.954 73.5248 193.673 74.0999 191.332C75.2616 187.755 75.9162 184.004 77.7688 180.656C78.3854 179.542 78.475 178.057 80.0373 177.666C80.9739 177.84 81.4538 178.431 81.5778 179.348C80.5908 182.515 79.6039 185.683 78.6169 188.85Z" fill="#AFB44B"/>
<path d="M147.475 76.4832C147.303 76.2918 147.125 76.1067 146.941 75.9275C147.041 74.9407 145.648 74.7182 145.803 73.7029C151.798 76.0347 152.901 78.6114 150.821 85.4217C150.721 87.8274 149.095 89.0513 147.195 90.0183C145.514 90.8741 144.055 92.1656 142.159 92.5956C141.332 89.8697 143.258 88.749 145.058 87.4571C149.277 84.4298 150.12 80.4416 147.475 76.4832Z" fill="#E5E7A8"/>
<path d="M81.5776 179.348C80.9943 178.783 80.411 178.218 79.8279 177.653C79.6868 177.536 79.5462 177.418 79.403 177.301C78.6509 176.465 78.1497 175.391 78.9382 174.511C80.5182 172.749 79.8254 170.9 79.5087 169.028C79.3217 167.92 78.6355 166.637 80.0583 165.932C81.6041 165.166 82.4107 166.338 83.1527 167.445C83.5837 168.089 83.9868 168.752 84.5019 169.336C84.7042 169.646 84.82 169.986 84.8414 170.357C84.8622 170.735 84.8827 171.113 84.9037 171.491C83.0916 173.812 83.244 176.964 81.5776 179.348Z" fill="#C4C77C"/>
<path d="M141.882 92.163C145.36 90.5763 149.057 89.2808 150.822 85.4218C151.887 86.7251 151.039 87.6567 150.097 88.383C143.807 93.2307 137.126 97.2737 129.028 98.2826C130.695 95.9838 133.438 95.8358 135.791 94.9263C137.34 94.3279 139.014 94.0107 140.235 92.7496C140.666 92.2218 141.206 92.0008 141.882 92.163Z" fill="#F3F4DD"/>
<path d="M64.7322 126.794C65.106 127.539 65.4799 128.284 65.8535 129.029C62.9845 137.45 59.0328 145.583 58.9822 154.756C58.3343 154.651 57.9189 154.251 57.6262 153.693C56.9574 149.231 57.5229 144.928 59.242 140.749C60.6734 137.27 62.4513 133.921 62.9539 130.093C63.1141 128.875 63.3494 127.463 64.7322 126.794Z" fill="#EDEDD3"/>
<path d="M128.992 118.395C129.144 113.707 128.268 109.408 124.57 106.08C123.349 104.981 123.682 103.728 124.694 102.639C125.73 101.524 126.826 100.464 127.896 99.3796C124.326 103.05 125.643 106.191 128.835 109.27C130.649 111.021 130.312 113.654 131.092 115.84C131.768 117.736 130.201 117.957 128.992 118.395Z" fill="#F3F4DD"/>
<path d="M54.7804 94.3821C54.5865 94.1999 54.3927 94.0173 54.1987 93.8349C53.8021 93.2561 53.7602 92.6385 53.9931 91.9892C55.3967 89.8674 56.9976 87.8859 58.468 85.808C60.7064 83.5377 62.8809 81.1855 65.873 79.8522C66.0646 80.0406 66.2559 80.2288 66.4478 80.4175C66.7591 84.0953 62.607 84.1578 61.2832 86.8025C59.838 89.6906 57.0072 91.8852 54.7804 94.3821Z" fill="#F2F3DA"/>
<path d="M58.1537 153.65C58.4307 154.019 58.7075 154.388 58.9834 154.757C58.6158 157.532 60.2969 159.913 60.4876 162.582C59.1598 162.483 57.4536 162.92 57.7504 160.576C57.928 159.174 57.0321 158.621 55.9296 157.991C54.5639 157.211 53.4341 156.063 54.1275 154.186C55.2724 153.743 56.6924 154.058 57.5905 152.926C57.945 153.04 58.1312 153.282 58.1537 153.65Z" fill="#CACE8B"/>
<path d="M75.9731 198.332C76.6895 203.966 73.772 206.832 68.613 207.992C68.0687 207.818 67.5246 207.644 66.9811 207.469C67.1702 207.215 67.359 206.961 67.5478 206.706C70.0601 204.736 72.7627 202.967 73.8103 199.651C74.0776 198.805 74.9036 198.202 75.9731 198.332Z" fill="#BABF57"/>
<path d="M56.92 164.825C58.7433 164.979 59.9476 166.394 61.5109 167.077C61.6372 167.262 61.776 167.437 61.9281 167.601C62.0486 168.409 62.8316 168.541 63.3278 168.964C63.4629 169.067 63.5958 169.173 63.7289 169.279C64.044 172.301 62.4763 172.405 60.2663 171.514C58.1777 169.772 57.745 167.2 56.92 164.825Z" fill="#B3B758"/>
<path d="M55.2722 55.8356C55.6486 56.2259 56.0248 56.616 56.4012 57.0059C56.1301 57.8384 55.4426 58.0376 54.6876 58.1366C54.5087 58.0978 54.3297 58.0566 54.1509 58.0156C50.6826 57.3526 51.3049 54.4055 51.2217 52.1816C51.1641 50.6365 51.3348 48.8326 52.4531 47.4397C53.7006 49.4258 52.7742 51.5174 52.7959 53.5712C52.8113 55.0292 52.4553 57.2777 55.2722 55.8356Z" fill="#F3F4DB"/>
<path d="M145.803 73.7028C146.366 74.35 147.164 74.8775 146.941 75.9274C144.479 73.3668 142.667 76.1175 140.235 77.2323C140.605 75.0971 142.564 73.5362 140.719 71.8758C142.414 72.484 144.108 73.0934 145.803 73.7028Z" fill="#D8DA80"/>
<path d="M66.9502 161.42C67.8877 164.864 66.0835 167.185 63.728 169.278C63.7289 169.278 63.5045 169.251 63.5045 169.251C63.0382 167.161 65.0123 165.999 65.414 164.24C65.9264 163.3 66.4384 162.36 66.9502 161.42Z" fill="#B3B758"/>
<path d="M68.7582 151.936C68.7386 154.61 69.9564 157.477 67.5299 159.775C67.7182 156.979 67.907 154.184 68.0956 151.388C68.3166 151.571 68.5377 151.753 68.7582 151.936Z" fill="#CCCE86"/>
<path d="M35.1281 165.366C34.8648 165.938 34.6014 166.51 34.3375 167.082C33.4687 164.912 32.9102 162.702 33.4824 160.347C34.5568 161.848 35.3197 163.45 35.1281 165.366Z" fill="#C7CA80"/>
<path d="M65.4134 164.24C65.6849 166.256 63.7025 167.414 63.5046 169.252C61.5558 170.06 62.055 168.532 61.9276 167.601C64.3218 167.758 63.7288 164.818 65.4134 164.24Z" fill="#E6E7C8"/>
<path d="M105.555 89.3639C104.437 89.3546 103.32 89.3457 102.202 89.3364C103.332 87.9595 104.451 87.8486 105.555 89.3639Z" fill="#E1E2AE"/>
<path d="M84.8591 139.089C87.6396 136.396 87.2196 131.643 90.9826 129.583C93.1872 128.37 93.7779 124.325 97.5432 125.84C97.7045 125.924 97.8618 126.012 98.0218 126.098C98.2849 126.371 98.3963 126.7 98.3809 127.076C97.1387 128.789 95.451 130.227 95.0573 132.466C94.3877 135.479 92.7848 138.068 91.3397 140.73C89.6062 143.765 88.1801 146.963 86.4481 149.998C85.4383 152.334 85.0375 154.978 83.0205 156.807C82.46 157.362 81.8496 157.849 81.1123 158.146C80.7431 158.261 80.3856 158.214 80.0457 158.036C79.1836 156.538 79.7959 155.034 80.2151 153.622C80.7777 151.727 79.6637 151.156 78.2903 150.63C77.9097 148.765 80.3399 148.514 80.4192 146.914C81.3682 145.889 81.4065 144.242 83.4465 143.84C84.1992 143.693 84.4043 140.754 84.8591 139.089Z" fill="#9CA943"/>
<path d="M80.4191 146.915C80.7944 148.634 78.2943 149.094 78.7048 150.828C79.289 152.625 79.1135 154.096 77.0231 154.747C75.6635 156.292 74.4434 157.315 74.3732 154.039C69.323 154.546 73.532 151.014 72.5616 149.794C71.2576 148.933 70.411 150.677 69.2276 150.282C68.5861 149.418 67.9367 148.554 69.0566 147.578C70.7589 149.693 72.7728 144.585 73.5816 147.324C75.2331 152.915 77.2914 149.04 79.2855 147.991C79.7297 147.758 80.0449 147.28 80.4191 146.915Z" fill="#BABF55"/>
<path d="M86.5472 127.354C85.1466 128.71 83.79 130.115 82.3297 131.403C81.4347 132.192 80.2568 132.892 79.1539 132.017C78.3973 131.417 78.1486 130.491 78.4221 129.244C78.8114 127.47 79.7432 127.52 80.8987 127.972C82.9265 128.765 84.4167 125.156 86.5456 127.355L86.5472 127.354Z" fill="#BBBF4D"/>
<path d="M21.1928 93.2869C19.5971 90.3124 19.3745 86.9277 18.3537 83.7813C20.3975 80.999 21.9209 78.1148 20.5849 74.4939C20.2383 73.5547 20.636 72.6723 21.572 72.1985C22.514 71.7213 23.3301 72.144 24.0893 72.7093C25.3252 73.6292 25.6621 74.9749 26.0514 76.3905C27.0712 80.0997 28.1093 80.6216 31.9814 79.7241C33.2246 79.8435 33.4794 80.8737 33.3081 81.7046C32.6097 85.0905 34.2121 88.3178 33.8584 91.6583C34.1507 93.2949 34.0862 94.9499 34.1208 96.6C33.9904 99.1182 34.1509 101.612 34.7445 104.072C35.5601 106.515 36.4723 108.875 35.5551 111.592C35.0528 113.081 35.9504 114.604 36.6193 116.037C37.3777 117.662 37.3271 119.091 35.1457 119.553C35.239 115.844 31.2829 115.97 29.7233 113.826C32.6808 111.98 32.4116 112.175 30.0692 108.941C28.8021 107.191 28.5811 104.658 28.022 102.444C27.8958 101.945 28.7302 101.019 27.8158 100.838C23.6228 100.005 23.7465 95.4859 21.1928 93.2869Z" fill="#BABF4A"/>
<path d="M24.5389 142.457C23.5592 140.927 22.7305 139.271 21.5672 137.897C19.4005 135.339 19.3822 133.74 23.2536 133.535C23.0365 133.116 22.981 132.843 22.8143 132.714C21.5465 131.73 19.2785 133.666 18.6244 131.681C17.9205 129.545 20.9602 130.076 21.5042 128.606C21.7297 127.997 22.0165 127.411 22.2755 126.814C24.2173 126.406 26.7286 124.014 27.3756 128.978C27.0765 125.705 28.1905 123.806 30.585 123.159C33.2282 122.445 34.48 124.973 36.2477 126.251C36.6808 127.362 36.6559 128.553 36.8716 129.704C37.0059 131.449 37.5562 133.164 37.2526 134.942C36.9981 136.37 36.3626 137.621 35.6615 138.889C34.675 140.671 33.4674 141.488 31.5987 140.324C30.0338 139.349 28.8937 138.989 28.0141 141.186C27.4315 142.64 25.7183 142.053 24.5389 142.457Z" fill="#C7CA5F"/>
<path d="M36.7924 134.635C36.6706 132.944 35.7168 131.349 36.2116 129.587C39.7531 127.383 36.399 125.126 36.2656 122.894C35.8923 121.78 35.5185 120.666 35.1453 119.553C35.5335 119.046 36.3378 118.187 36.2501 118.084C33.1301 114.399 36.0682 109.621 34.0115 105.758C33.7514 105.269 33.9826 104.519 33.9862 103.89C35.5687 104.585 37.1115 105.188 37.2417 102.49C37.5189 102.222 37.85 102.102 38.2344 102.126C41.2639 103.626 39.9554 107.213 41.7075 109.328C42.0747 109.963 42.3003 110.649 42.44 111.364C42.8212 112.898 42.5219 114.46 42.6291 116.004C42.7536 116.862 43.1993 117.603 43.5071 118.396C43.8339 122.729 44.1132 127.067 44.7039 131.374C44.9403 132.918 45.2534 134.445 45.8889 135.886C46.0225 136.202 46.1223 136.529 46.2027 136.861C46.3631 137.85 46.6282 138.828 46.5744 139.844C46.3236 140.929 45.7276 141.953 46.0019 143.132C46.0612 144.09 46.9352 145.136 45.7088 145.956C45.3425 145.941 45.0001 145.842 44.6748 145.677C42.9242 144.24 41.9386 142.306 41.3083 140.201C40.7029 138.178 39.6111 136.781 37.4003 136.508C36.5124 136.106 36.7185 135.349 36.7924 134.635Z" fill="#9AA83F"/>
<path d="M20.0455 121.221C18.5239 119.476 22.1242 119.432 21.1602 117.872C23.6562 116.933 24.8046 120.112 27.1034 119.868C27.148 119.863 27.5087 121.075 27.3475 121.188C26.3419 121.897 25.2824 122.601 24.1353 123.012C23.3267 123.302 23.179 122.45 23.0859 121.787C22.6371 118.606 21.3707 119.743 20.0455 121.221Z" fill="#C7CA5F"/>
<path d="M36.2656 122.893C36.4832 123.211 36.7788 123.5 36.9054 123.851C37.5399 125.607 40.2252 125.972 40.203 127.798C40.1699 130.529 36.7616 127.122 36.2116 129.588C35.9449 128.473 35.1729 127.353 36.2467 126.252C36.5278 125.133 35.5915 124.009 36.2656 122.893Z" fill="#B7BC51"/>
<path d="M49.6834 46.8867C48.9311 50.0191 50.4403 53.1706 49.487 56.3551C48.9685 58.0882 50.4469 58.7855 51.9176 59.1629C52.9213 59.9641 54.1026 59.4051 55.1914 59.5847C55.884 59.8603 56.3767 60.3619 56.7851 60.9647C57.3108 61.9968 58.1426 62.9198 58.0794 63.4151C57.9167 64.5002 57.7356 64.724 57.434 64.6963C54.0044 64.3817 54.005 64.3765 50.961 67.2281C45.921 67.0097 49.4269 64.128 49.4098 62.2319C49.0609 63.3041 48.9799 64.6216 47.589 64.6495C46.6021 64.6696 46.4761 63.656 46.3253 62.9224C45.7336 60.0454 41.7322 59.6785 41.6113 56.4721C41.2655 53.8339 41.7838 51.3885 42.8253 48.9216C44.5938 44.7325 44.6161 40.0366 46.3561 35.8127C47.763 33.2245 48.5181 30.2181 51.0977 28.3774C52.1437 28.4935 52.2282 29.2843 52.3004 30.0843C50.5908 33.1461 51.3193 36.9537 49.2835 39.9411C48.7795 40.6807 49.3826 41.4702 49.8173 42.0751C51.0173 43.7429 49.8688 45.2906 49.6834 46.8867Z" fill="#C6CA62"/>
<path d="M56.3896 61.4114C55.8296 60.8537 55.2699 60.2962 54.7099 59.7385C54.0145 59.6982 53.6221 59.3498 53.5889 58.6364C53.7759 58.4296 53.9634 58.2229 54.1506 58.0159L54.148 57.9787C59.603 58.1411 64.8821 63.0192 66.3427 68.3124C68.1283 74.7831 66.3881 79.7462 61.3363 83.8779C60.4684 84.5873 59.3814 85.262 59.1803 86.5677C57.5492 88.6345 56.3019 91.0137 54.1957 92.6941C54.0257 93.5362 53.4914 94.0803 52.7536 94.4578C50.7538 92.775 53.0601 91.4571 53.1304 89.9492C53.3018 89.6137 53.5319 89.3171 53.7959 89.05C55.0491 88.0776 56.3899 87.1793 56.9064 85.5524C56.9557 85.2914 57.0947 84.8926 56.9616 84.7873C53.4335 82.0036 54.9345 77.8488 54.0812 74.3388C55.7249 70.922 56.4867 70.8658 58.9741 73.9742C62.7154 66.0796 62.5042 65.0522 56.3896 61.4114Z" fill="#D4D67A"/>
<path d="M51.368 15.0312C51.689 17.9285 50.9557 20.3524 47.6859 20.6467C46.1077 20.7886 45.4053 18.6548 44.0391 17.9545C42.5412 17.1866 41.4135 16.7723 42.6066 14.5535C43.5829 12.7377 41.4013 13.8251 40.7582 13.4016C42.2363 11.8019 43.7425 10.8647 45.3022 13.1967C45.9833 13.2366 45.9963 12.78 45.9345 12.425C45.7209 11.1976 45.5462 9.88836 47.2895 9.89583C48.6981 9.90184 48.6193 11.2701 48.7424 12.24C48.9057 13.528 47.6387 16.0033 50.8086 14.4728C51.2627 14.3912 51.4485 14.5774 51.368 15.0312Z" fill="#D2D474"/>
<path d="M49.6826 46.8867C48.9131 44.9858 50.041 42.5245 47.9444 41.004C47.7738 40.8802 47.6127 40.4074 47.6511 40.3798C51.1918 37.8337 48.8361 32.8461 51.9088 30.1229C52.4021 28.8373 52.5887 27.5 52.5806 26.1266C52.6301 25.9533 52.6848 25.784 52.7372 25.6114C52.9276 25.2757 53.2203 25.1109 53.5996 25.0906C53.7584 25.2961 53.8808 25.5491 54.0811 25.6991C57.2907 28.1015 55.3372 30.082 53.5468 32.0437C52.3824 33.3195 51.3325 34.7628 52.3086 36.4334C54.894 40.8584 51.7279 43.7027 49.6826 46.8867Z" fill="#D1D374"/>
<path d="M51.3677 15.031C51.1813 14.8451 50.9946 14.6588 50.8081 14.4729C51.6159 11.0494 52.5729 8.22641 57.2845 10.0335C58.6386 10.553 59.9738 10.5907 60.3517 12.1255C60.8547 14.1691 58.4926 12.8432 58.0346 13.9302C57.8487 14.3714 57.3183 14.668 56.9443 15.0304C54.3792 10.6056 53.9558 10.6056 51.3677 15.031Z" fill="#CFD371"/>
<path d="M54.719 22.854C55.5659 20.2756 54.1997 17.0686 56.945 15.03C57.4496 17.2254 55.727 19.2976 56.7999 21.661C57.2726 22.7016 55.9692 23.354 54.719 22.854Z" fill="#CFD371"/>
<path d="M37.9879 17.2745C38.997 19.9889 35.9471 19.768 35.1601 21.1837C35.1446 19.1878 37.0157 18.5562 37.9879 17.2745Z" fill="#D2D474"/>
<path d="M53.5886 58.6368C53.9621 59.004 54.3359 59.3715 54.7096 59.7389C53.4383 61.1951 52.4536 61.2638 51.9169 59.1632C52.4739 58.9875 53.0316 58.812 53.5886 58.6368Z" fill="#CED06B"/>
<path d="M53.5998 25.091C53.3982 25.2787 53.1966 25.4663 52.9954 25.654C52.1228 25.3102 51.4935 24.891 52.4731 23.9715C53.1122 23.379 53.6547 22.5921 54.7188 22.8543C54.125 23.4894 53.3419 24.0298 53.5998 25.091Z" fill="#CFD371"/>
<path d="M141.881 92.163C141.413 92.5853 140.914 92.9205 140.234 92.7491C138.133 91.1569 137.12 93.9001 135.385 93.988C134 94.0583 132.638 94.6029 131.267 94.9371C130.328 91.6725 131.934 89.3827 134.298 87.5217C135.415 86.6416 136.757 86.0509 137.526 84.7625C137.798 84.4808 138.129 84.3245 138.522 84.3078C140.344 84.5508 141.896 84.6167 142.866 82.412C143.446 81.0951 144.802 80.0637 146.305 79.4584C147.511 78.9726 147.784 78.1163 146.921 77.0381C147.106 76.8531 147.291 76.6684 147.476 76.4834C149.757 77.6527 151.112 82.2516 149.346 84.3864C148.057 85.944 147.52 88.4183 144.767 88.718C143.045 88.9051 143.198 91.282 141.881 92.163Z" fill="#D8DA80"/>
<path d="M111.72 98.8609C112.477 97.4011 113.604 96.0941 115.197 95.9531C117.184 95.7774 116.923 94.3607 117.294 93.2112C120.678 91.112 124.56 89.7876 127.288 86.6622C128.04 85.8006 128.767 84.7544 130.15 84.7988C130.009 86.6841 128.803 88.2759 128.674 90.1684C127.186 91.5042 126.107 93.1677 124.976 94.7924C120.433 97.8179 117.254 102.403 112.767 105.483C110.825 104.649 110.678 104.562 112.318 101.791C113.16 100.368 113.412 99.5443 111.72 98.8609Z" fill="#A1AE4C"/>
<path d="M123.57 84.9487C118.705 80.983 120.319 78.9662 125.463 77.5158C126.551 77.2093 127.362 75.6603 128.976 75.4825C130.351 75.3312 131.103 75.554 130.939 76.9777C130.843 77.8184 131.812 79.0245 129.378 79.0429C126.272 79.0657 126.176 83.3782 123.57 84.9487Z" fill="#C3C657"/>
<path d="M138.522 84.3076C138.342 84.4926 138.168 84.6825 138 84.8775C136.951 86.6422 135.068 87.2507 133.422 88.1879C133.149 86.4518 132.694 84.8408 130.707 84.3007C133.086 82.678 135.165 80.3468 138.545 81.1683C139.323 81.3574 140.513 80.418 140.847 81.7417C141.271 83.426 139.712 82.9731 138.885 83.3355C138.665 83.4323 138.638 83.9718 138.522 84.3076Z" fill="#ACB74E"/>
<path d="M130.707 84.3006C131.984 84.1556 133.261 84.0104 134.754 83.8411C134.672 85.8568 133.487 86.6016 132.942 87.6639C132.813 87.7758 132.685 87.8876 132.559 88.0024C131.12 88.4499 130.144 89.918 128.475 89.8605C127.106 87.5365 128.74 86.2056 130.15 84.7996C130.332 84.6281 130.517 84.4622 130.707 84.3006Z" fill="#96A536"/>
<path d="M52.4734 23.9716C52.2786 24.6473 52.5587 25.1753 52.9962 25.654L53.007 25.637C52.8612 26.8094 52.3711 27.7795 51.3568 28.4412C49.8788 31.057 48.4003 33.6723 46.9223 36.2882C46.544 36.216 46.2492 36.0223 46.05 35.6902C45.2411 33.6793 46.8942 32.0818 47.4273 29.6396C45.2067 31.0301 45.4847 33.3061 44.0275 34.3438C43.6995 34.5385 43.344 34.6167 42.9656 34.5975C42.7889 34.4131 42.6163 34.2249 42.4476 34.0328C43.1141 30.2234 46.5046 27.58 46.8119 23.555C46.9659 21.5378 49.1435 22.4438 50.3326 21.9421C51.9513 21.2588 52.0038 23.005 52.4734 23.9716Z" fill="#A7B349"/>
<path d="M102.735 108.892C105.17 106.476 107.605 104.059 110.041 101.643C112.392 102.875 111.463 104.046 109.893 105.04C108.307 106.044 106.884 107.143 105.994 109.536C107.398 107.555 108.757 106.456 110.767 106.613C111.741 108.493 110.285 109.43 109.178 110.368C107.892 111.458 106.745 112.604 106.109 114.188C102.957 117.195 101.955 121.473 99.7253 125.029C99.2565 125.747 98.6192 126.188 97.7439 126.236L97.6558 126.209C96.4813 124.877 95.1317 123.893 93.2378 123.994C96.2476 119.839 97.1727 114.331 101.608 111.101C101.983 110.364 102.359 109.628 102.735 108.892Z" fill="#9CA943"/>
<path d="M93.2373 123.994C96.1428 121.877 97.4223 123.001 97.6561 126.209C96.0462 126.789 93.597 125.897 93.4857 129.038C93.4467 130.137 92.0701 130.458 90.9822 129.583C90.5132 127.228 91.9705 125.649 93.2373 123.994Z" fill="#909F32"/>
<path d="M45.167 145.256C45.3621 145.439 45.5573 145.621 45.7522 145.804C47.9898 146.655 48.2522 149.235 49.9501 150.611C50.7451 151.255 50.2154 152.262 49.646 153.049C48.9942 153.949 47.9241 154.767 48.8238 156.095C50.3654 158.962 51.4388 161.98 51.7817 165.234C52.3506 167.052 53.1691 168.771 53.8725 170.534C54.298 171.6 54.8168 172.672 53.7145 173.663C53.0913 173.77 52.6071 173.509 52.1822 173.09C50.0764 170.347 49.1509 167.046 47.8525 163.917C46.8143 161.417 45.1249 160.345 42.4475 161.56C42.0465 161.511 41.8158 161.294 41.7787 160.886C41.5515 160.421 40.9995 159.762 41.1445 159.52C44.2765 154.306 40.2819 150.561 38.5123 146.365C38.4796 146.181 38.4469 145.997 38.4115 145.813C38.5094 145.037 38.7976 144.38 39.5416 144.01C40.2028 143.831 41.1151 143.742 41.3408 144.335C42.2157 146.633 43.7175 145.707 45.167 145.256Z" fill="#8E9B3B"/>
<path d="M41.7785 160.886C41.9777 161.073 42.1772 161.259 42.3768 161.445C46.7921 164.768 47.6735 169.356 47.0481 174.485C49.0543 180.459 53.0927 185.771 52.9009 192.46C52.7315 192.56 52.5611 192.659 52.3905 192.758C51.8512 192.197 51.3124 191.636 50.7733 191.074C48.6815 187.542 46.5647 184.025 44.5319 180.46C44.2924 180.039 43.0388 179.857 44.2035 178.784C46.4957 176.672 46.0638 175.012 42.8454 174.73C39.9075 174.474 40.4275 172.444 40.0478 170.912C39.7104 169.549 40.6188 169.401 41.6918 169.997C42.3157 170.343 42.2644 172.316 43.4931 170.993C44.1697 170.264 44.7963 169.239 44.3543 167.81C43.7226 165.769 42.2308 164.353 41.2676 162.577C41.0497 161.896 41.3701 161.378 41.7785 160.886Z" fill="#99A232"/>
<path d="M36.7928 134.635C36.984 135.192 37.1752 135.749 37.3664 136.306C38.9622 136.969 38.9284 138.577 39.4414 139.869C39.6511 140.92 39.5837 141.962 39.3217 142.997C38.8469 144.071 38.5925 145.201 38.5104 146.373L38.5122 146.365C37.1857 148.721 36.9759 146.674 36.4132 145.85C35.7309 144.851 35.1582 142.991 33.8925 145.461C33.1166 146.975 32.4435 145.985 31.9433 145.251C29.4512 141.591 29.4671 141.58 27.2709 145.258C26.3596 144.324 25.4486 143.39 24.5381 142.457C25.36 140.804 28.4264 141.075 28.0435 138.237C27.9741 137.722 29.3734 137.711 30.081 138.137C31.3601 138.906 32.6008 141.131 34.0634 139.465C34.9888 138.411 36.407 137.095 36.3493 135.257C36.3436 135.055 36.6381 134.842 36.7928 134.635Z" fill="#B7BC51"/>
<path d="M34.5932 44.0979C35.2289 44.8925 36.1097 45.4232 36.3198 46.625C36.6636 48.5928 37.7026 47.3406 38.5148 46.9101C39.1821 49.1515 39.1071 51.4835 37.8019 53.3225C36.4471 55.2314 35.8757 57.2232 35.6752 59.4364C35.2024 62.4514 36.6521 65.7154 34.5082 68.5161C30.9171 70.5755 30.3645 70.2676 28.2212 67.0368C27.2782 65.6157 27.3683 62.043 23.8727 63.8324C23.3248 63.5983 22.9441 63.196 22.6835 62.6678C22.5146 61.2629 22.6673 59.9653 23.8918 59.0239C25.4604 59.0727 27.2778 59.7623 27.4336 57.0281C27.4991 55.8795 28.4572 55.0367 29.5313 54.3606C32.7952 52.3068 32.8236 51.1279 29.8764 48.6153C29.1033 47.9562 28.08 47.5027 27.8883 46.3327C27.5226 45.4148 27.7106 44.536 28.0631 43.6614C28.734 41.9976 29.3594 40.7947 30.7045 43.2996C31.5861 44.9413 32.9686 45.4362 34.5945 44.0961L34.5932 44.0979Z" fill="#BEC253"/>
<path d="M35.1156 59.1762C34.3672 56.5583 35.7915 54.7234 37.1279 52.6736C38.192 51.041 37.426 48.7014 38.515 46.9102C39.7864 42.7296 40.7657 38.4432 42.9656 34.5976C43.1632 34.4081 43.3608 34.2187 43.5586 34.029C44.679 34.2829 45.055 35.7575 46.3474 35.729C46.5387 35.9155 46.7303 36.1016 46.9221 36.288C45.4861 41.3336 45.2149 46.6675 42.8843 51.5147C42.2202 52.8962 42.5436 54.7525 42.4145 56.391C41.4956 58.1547 43.3199 61.3862 39.5998 61.653C38.7529 61.4141 38.2996 60.7529 38.1469 59.9805C37.6695 57.5676 36.3271 58.6731 35.1156 59.1762Z" fill="#A1AE4D"/>
<path d="M27.8885 46.3329C30.1028 48.2163 34.7119 48.4106 32.7304 53.2608C32.4488 53.9499 32.6613 54.9414 31.528 54.9557C28.5447 54.9936 27.899 56.53 28.2373 59.2897C28.4821 61.2868 27.8457 61.3203 23.9729 59.1877C23.3176 56.0388 26.521 54.2984 26.7769 51.4909C27.2517 50.8971 27.5837 50.2979 26.7695 49.6975C28.0335 48.8718 27.8641 47.5701 27.8885 46.3329Z" fill="#C4C863"/>
<path d="M27.328 51.3627C28.0885 54.7762 24.6837 56.405 23.9723 59.188C23.5078 60.2756 23.9113 61.6525 22.8531 62.5419C21.3788 62.161 20.8949 61.1854 21.1759 59.7496C21.2648 59.6553 21.4244 59.5661 21.4316 59.4656C21.6634 56.2959 23.0205 53.6462 25.1588 51.3536C25.5122 50.9926 25.865 50.6316 26.2177 50.2708C26.9116 50.3051 27.293 50.6578 27.328 51.3627Z" fill="#BABE49"/>
<path d="M34.5943 44.0964C31.7259 42.6073 31.7857 40.8788 34.0265 38.773C34.6531 38.1842 34.8236 36.9768 36.0219 37.8299C36.9272 38.4743 36.8636 39.2817 36.3658 40.2247C35.7035 41.4782 35.1775 42.8038 34.5929 44.0982L34.5943 44.0964Z" fill="#C2C455"/>
<path d="M27.3287 51.3624C26.9583 50.9983 26.5882 50.6344 26.2178 50.2703C26.4019 50.0795 26.5858 49.8885 26.7696 49.6974C27.6884 50.1843 28.4989 48.5599 29.4763 49.5607C29.2853 50.8007 27.851 50.5467 27.3287 51.3624Z" fill="#BEC253"/>
<path d="M93.6346 103.15C92.0033 100.844 92.3364 99.8164 94.4973 96.5303C95.7621 94.6068 96.8523 95.5474 98.1323 96.062C99.2587 96.5149 99.2531 96.5291 98.9256 100.681C95.9587 97.201 95.9587 97.201 93.6346 103.15Z" fill="#BBBF4D"/>
<path d="M110.633 106.674C109.055 107.748 107.477 108.822 105.813 109.955C104.972 106.767 106.876 105.159 109.225 104.339C111.215 103.645 111.025 102.922 110.04 101.642C109.805 100.236 111.015 99.7011 111.72 98.8611C112.543 99.5102 113.604 97.3383 114.367 99.1097C114.874 100.286 114.44 100.619 113.455 101.42C112.425 102.258 112.236 104.129 111.679 105.549C111.632 106.204 111.32 106.613 110.633 106.674Z" fill="#92A137"/>
<path d="M63.6238 207.277C64.1688 207.431 64.7138 207.584 65.2586 207.736C62.3227 208.778 58.5336 207.308 58.1057 204.121C57.6202 200.505 55.6803 198.225 53.3708 195.935C52.4573 195.029 51.9716 194.048 52.3905 192.758L52.4655 192.745C52.8461 192.732 53.3807 192.795 53.5343 192.481C55.396 188.683 55.8325 188.634 59.1961 191.962C60.4708 197.125 60.3604 202.689 63.6238 207.277Z" fill="#99A232"/>
<path d="M50.7565 165.345C51.0355 162.112 48.6958 159.546 48.4929 156.435C49.4157 156.441 49.8371 155.396 50.741 155.363C53.2145 157.319 55.8671 159.09 54.7982 163.037C54.4465 164.335 56.0613 164.38 56.9196 164.825C59.4138 166.365 59.4086 169.155 60.2659 171.514C60.453 172.444 60.6402 173.374 60.8272 174.305C62.1302 174.894 61.8655 176.001 61.4166 176.854C60.5918 178.422 62.3956 177.059 62.2919 177.724C62.9574 179.43 62.0251 180.804 61.3655 182.235C60.1478 183.12 58.7486 183.722 57.5445 184.643C56.4935 184.766 55.7938 184.338 55.4612 183.327C54.1501 180.971 54.0797 178.443 54.4361 175.854C54.6824 175.369 55.0278 174.917 55.592 174.917C56.2843 174.917 56.6459 175.466 56.6066 175.39C55.4797 174.447 54.8771 172.596 54.958 170.432C55.0656 167.552 52.9765 166.367 50.7565 165.345Z" fill="#A7AD41"/>
<path d="M68.0795 184.921C67.1297 184.143 67.7786 183.04 67.5112 182.123C66.6483 181.712 66.5631 180.951 66.6053 180.129C66.6345 176.429 70.3335 174.433 70.8645 170.962L70.8649 170.938C70.3962 169.543 70.9253 168.294 71.441 167.044C71.8146 166.667 72.1879 166.29 72.5617 165.913C75.3627 166.792 76.6654 168.842 76.0255 171.516C75.6994 172.88 74.9241 174.12 74.8713 175.567C74.536 177.166 74.4974 178.849 73.5524 180.278C70.6136 180.509 69.7298 183.167 68.0795 184.921Z" fill="#7E8D26"/>
<path d="M74.2188 175.417C73.8883 174.515 74.0185 173.691 74.532 172.871C76.4296 169.839 74.8979 167.756 72.5608 165.913C74.276 163.895 75.5463 161.643 75.5984 158.946C75.6299 157.319 76.5358 156.321 77.5443 155.301C79.4879 155.236 78.3372 158.258 80.3556 158.118L80.4202 158.075C81.3559 160.886 82.1761 163.654 79.3661 166.003C78.0457 167.106 78.2955 168.913 77.692 170.346C77.2649 171.561 77.1056 172.865 76.5015 174.026C76.0861 174.684 75.5509 175.198 74.7865 175.429C74.5982 175.427 74.4084 175.422 74.2188 175.417Z" fill="#8D9B39"/>
<path d="M70.8644 170.962C71.1225 174.758 68.0261 177.184 66.9859 180.449C65.9467 181.689 65.2686 180.671 64.6824 179.99C63.8854 179.063 63.5439 177.744 62.2698 177.225C61.3638 176.206 61.7422 174.876 61.4199 173.717C63.6144 173.613 65.5351 171.803 68.0796 173.372C69.7276 174.386 69.5981 171.45 70.8644 170.962Z" fill="#9EA531"/>
<path d="M80.3558 158.118C75.593 160.995 79.1889 155.535 77.545 155.301C77.3758 155.111 77.202 154.926 77.0227 154.747C77.5831 153.44 78.1438 152.134 78.7044 150.828C79.2946 150.376 79.7883 149.416 80.6456 149.908C81.5083 150.402 81.6156 151.45 81.4656 152.369C81.1516 154.294 80.7317 156.202 80.3558 158.118Z" fill="#839324"/>
<path d="M61.4204 173.717C62.4068 174.649 62.0739 175.992 62.4734 177.107C62.4882 177.354 62.4157 177.518 62.2559 177.6C62.0947 177.682 61.9933 177.703 61.9511 177.661C61.262 178.187 60.5347 178.514 60.6799 177.183C60.7853 176.22 61.289 175.296 60.8275 174.306C61.025 174.109 61.2228 173.913 61.4204 173.717Z" fill="#B3B758"/>
<path d="M71.4405 167.044C71.2489 168.342 71.0568 169.64 70.8647 170.938C69.5263 169.415 70.1924 168.187 71.4405 167.044Z" fill="#9EA531"/>
<path d="M61.9511 177.66C62.1217 177.472 62.296 177.288 62.4736 177.107C63.6968 176.098 64.2074 176.729 64.6591 177.94C65.0741 179.053 65.0729 180.679 66.9859 180.45C67.1612 181.008 67.3362 181.566 67.5113 182.123C64.0264 183.53 64.9878 187.369 64.8466 189.432C64.4399 195.365 63.2631 201.289 63.6243 207.278C58.4472 203.418 59.5233 197.471 58.5949 192.193C58.4313 191.134 57.9481 190.075 58.577 189.012C60.0183 186.945 59.4705 184.225 60.8258 182.129C61.2006 180.639 61.576 179.15 61.9511 177.66Z" fill="#9BA221"/>
<path d="M75.9738 198.332C75.4444 198.912 74.5634 199.429 74.4443 200.084C73.7304 204.009 71.0496 205.756 67.548 206.707C69.8266 201.977 68.5032 196.339 71.2767 191.763C72.2313 190.188 70.6408 189.099 70.8728 187.727C73.641 187.557 73.8404 189.959 74.7749 191.625C74.1779 193.701 74.6629 195.548 75.9543 197.225C75.9611 197.594 75.9674 197.963 75.9738 198.332Z" fill="#A4AA2C"/>
<path d="M74.7744 191.626C72.3943 191.406 73.0525 188.146 70.8723 187.727C70.696 187.539 70.5209 187.351 70.3471 187.162C70.4772 184.692 71.1883 182.454 72.9634 180.643C73.2673 180.387 73.6077 180.337 73.9797 180.464C74.5694 181.241 74.3573 182.193 74.5368 182.939C74.6425 179.899 76.7083 177.031 75.9297 173.74C76.3685 172.647 75.9769 171.281 77.0328 170.391C77.4941 169.913 77.7971 169.351 77.9232 168.697C78.0275 168.158 78.2717 167.661 78.8749 167.695C79.6547 167.74 79.9205 168.375 79.997 169.047C80.1592 170.477 80.3765 172.107 79.4666 173.195C77.9844 174.969 79.0235 176.232 79.828 177.653L79.8283 177.653C78.1433 182.311 76.4589 186.968 74.7744 191.626Z" fill="#A5AB3C"/>
<path d="M73.6555 180.451C72.5524 182.688 71.4491 184.925 70.3462 187.162C69.8446 186.158 68.2775 186.232 68.0785 184.921C68.2409 184.427 68.4978 183.943 68.5503 183.438C68.8398 180.631 69.7189 178.644 73.1291 179.904C73.487 179.91 73.6538 180.101 73.6555 180.451Z" fill="#899639"/>
<path d="M126.788 115.049C126.703 120.514 123.719 123.951 118.998 126.168C118.607 126.182 118.215 126.195 117.824 126.208C116.594 126.23 115.615 126.996 114.494 127.338C107.617 128.726 104.266 135.008 98.939 138.546C98.757 138.441 98.5753 138.335 98.3934 138.229C98.0476 136.743 99.1039 135.885 99.8731 134.894C100.142 134.56 100.442 134.257 100.758 133.97C103.555 131.402 105.8 128.182 109.432 126.605C114.578 126.438 114.07 121.372 116.244 118.637C116.78 117.963 116.968 116.99 117.753 116.437C120.85 116.536 123.985 116.877 126.788 115.049Z" fill="#D4D67A"/>
<path d="M84.8415 170.357L84.5747 170.093L84.3099 169.827C83.0589 166.36 85.6552 164.729 87.6522 162.807C88.3789 162.088 89.1604 161.439 90.0418 160.917C92.5561 159.802 94.6844 158.45 95.6111 155.521C96.1734 153.744 97.8919 152.813 99.8943 152.794C100.586 152.977 100.936 153.448 101.031 154.136C99.7667 158.499 95.6627 160.135 92.4445 162.266C89.1431 164.452 86.9413 167.257 84.8415 170.357Z" fill="#D0D27A"/>
<path d="M101.031 154.136C100.664 153.774 100.298 153.411 99.9312 153.048C98.5774 150.335 97.4971 147.52 95.7723 144.949C93.4051 141.421 94.3999 139.622 98.7667 138.513C98.7667 138.513 98.9374 138.546 98.9381 138.546C97.5627 141.165 97.2677 143.322 99.8974 145.734C102.241 147.884 101.836 151.16 101.031 154.136Z" fill="#D4D67A"/>
<path d="M114.493 127.338C115.391 126.337 116.395 125.645 117.823 126.209C116.863 127.028 115.769 127.452 114.493 127.338Z" fill="#DADC8E"/>
<path d="M21.176 59.7495C21.4941 60.825 21.9504 61.8178 22.8531 62.5419C23.2282 62.9152 23.6035 63.2887 23.9784 63.6622C24.5273 63.6997 25.0721 63.9051 25.2275 64.4192C26.3319 68.0774 28.7703 70.6482 31.822 72.7652C32.4594 73.2073 32.8524 73.9172 33.184 74.6305C33.8938 75.9711 34.2498 77.3652 33.8074 78.8768C33.4995 79.4687 33.0474 79.8544 32.3477 79.8771C31.1691 81.1759 29.5759 82.6915 28.0515 81.5082C26.5802 80.3661 24.6248 78.8318 24.7773 76.646C24.8702 75.3147 24.7869 74.4139 23.8209 73.5884C23.2437 73.0952 22.6962 72.3474 21.8226 72.8648C20.8857 73.4194 21.4785 74.0904 21.7031 74.847C23.0285 79.3189 22.1299 81.608 18.3539 83.7814C14.5482 76.3857 13.7333 68.643 15.7121 60.5898C15.858 59.9952 16.0405 59.1639 16.9046 59.3429C17.3191 59.4287 17.86 59.9269 17.9613 60.334C18.6681 63.1744 22.0397 64.3357 21.8125 68.425C23.9307 66.0758 23.8815 64.7614 22.501 63.2759C21.6149 62.322 19.8466 61.5809 21.176 59.7495Z" fill="#BFC357"/>
<path d="M126.788 115.049C124.633 117.184 122.667 120.052 119.198 116.872C119.019 116.707 118.3 117.129 117.832 117.278C115.735 114.383 116.62 111.067 118.221 108.879C119.748 106.793 119.613 105.366 118.592 103.704C116.884 100.922 118.362 98.5285 120.363 97.7895C122.67 96.9375 123.593 95.142 125.149 93.7905C126.93 90.7049 129.628 88.7931 132.942 87.664C135.021 87.4496 136.155 85.5182 137.999 84.8775C138.221 85.9048 137.578 87.0587 136.995 87.2009C132.854 88.2111 132.24 91.6783 131.267 94.9369L131.263 94.9335C129.839 95.2103 129.16 96.6186 127.902 97.1468C124.243 98.4102 124.147 102.47 121.876 104.822C123.626 106.453 124.544 108.63 125.737 110.633C126.56 112.018 127.309 113.367 126.788 115.049Z" fill="#C9CC65"/>
<path d="M127.901 97.147C128.52 95.6466 129.683 94.9735 131.263 94.9337C130.182 95.7325 129.621 97.3199 127.901 97.147Z" fill="#D8DA80"/>
<path d="M59.1807 86.5679C59.0464 84.9968 60.2484 84.1704 61.2294 83.442C71.6677 75.6934 63.8652 59.2687 54.1486 57.9795C54.8994 57.6541 55.6504 57.3294 56.4012 57.0053C57.1135 57.564 57.7541 58.4345 58.552 58.6169C60.4448 59.05 62.341 59.0856 63.6191 61.0102C65.9336 64.4952 68.0263 68.0921 68.6157 72.2639C69.0209 75.1331 66.3366 77.147 65.8736 79.8524C64.3349 82.7811 61.0999 84.0188 59.1807 86.5679Z" fill="#E1E29E"/>
<path d="M50.7412 155.362C50.0093 155.756 50.0428 157.755 48.4935 156.434C48.3661 156.212 48.0725 155.888 48.1369 155.782C50.6713 151.649 46.7766 149.068 45.7524 145.803C45.5631 144.877 45.3738 143.95 45.1845 143.023C45.9396 142.149 46.2277 140.927 47.2221 140.237C48.4425 139.391 50.4407 138.562 51.0581 139.719C52.5688 142.55 55.6689 143.605 57.2982 146.151C57.3391 146.515 57.306 146.879 57.2078 147.232C56.2831 148.233 55.1205 149.221 56.9861 150.428C57.3446 151.266 57.8771 152.073 57.447 153.048C57.5032 156.821 55.3248 154.071 54.1277 154.186C53.2956 153.643 53.4458 151.735 52.1644 152.182C51.0418 152.573 49.9315 153.65 49.3499 154.716C48.9681 155.415 50.3102 154.989 50.7412 155.362Z" fill="#B2B646"/>
<path d="M41.824 116.19C41.8196 114.699 41.8152 113.207 41.8105 111.716C44.1034 111.539 44.1034 111.539 45.8453 114.213C47.5448 110.109 47.5468 110.093 42.9656 109.537C41.6477 109.377 40.8744 108.667 40.4705 107.459C40.6393 106.526 40.4768 105.578 40.6032 104.642C42.0495 102.73 43.8038 103.198 45.4352 104.202C46.7982 105.041 48.0721 105.873 49.7617 105.445C49.9479 105.481 50.1328 105.521 50.3179 105.562C49.9235 107.795 49.8145 110.03 50.2614 112.27C49.8052 117.314 49.8683 117.395 54.1339 117.305C55.2753 117.359 56.0446 117.929 56.4641 118.981C56.5836 119.382 56.5193 119.756 56.2793 120.098C53.9961 121.562 51.1996 121.681 48.8022 122.969C47.7295 123.546 45.884 123.741 45.6348 121.514C45.6208 121.162 45.6236 120.806 45.6168 120.457C45.0415 118.419 42.2233 118.373 41.824 116.19Z" fill="#CACD69"/>
<path d="M56.3798 119.517C55.631 118.78 54.8826 118.042 54.1338 117.304C54.3163 117.084 54.4989 116.864 54.6805 116.642C60.6411 117.442 63.2034 121.607 64.7323 126.795C63.7697 132.297 61.717 137.377 59.5121 142.51C58.0949 145.81 58.5407 149.909 58.1525 153.649C57.9181 153.449 57.6828 153.249 57.4473 153.048C57.1085 152.311 56.7701 151.575 56.4315 150.839C55.6564 149.405 56.4194 148.183 56.9723 146.933L56.9756 146.928C56.396 142.882 57.4229 139.286 59.9967 136.125C60.4619 134.71 61.5205 133.368 60.0778 131.841C59.285 131.002 59.362 129.691 60.0017 128.924C63.2245 125.057 59.7871 123.177 57.7272 120.898C57.3003 120.426 56.7611 120.046 56.3798 119.517Z" fill="#D7D98C"/>
<path d="M54.1337 117.305C52.463 118.938 50.793 117.795 49.7213 116.787C48.2229 115.378 50.0369 113.799 50.2607 112.27C50.7081 114.597 50.6596 117.306 54.1337 117.305Z" fill="#D7D98C"/>
<path d="M51.9892 97.1858C53.8016 99.8202 51.9632 101.796 50.7762 103.889C49.8787 103.559 49.899 102.798 49.9013 102.042C50.3082 100.443 50.4462 98.7523 51.459 97.3528C51.6352 97.2964 51.8119 97.241 51.9892 97.1858Z" fill="#D4D788"/>
<path d="M52.4553 94.3888C53.0351 93.8237 53.615 93.2591 54.1955 92.6943C54.1965 93.0742 54.1972 93.4548 54.1985 93.835C53.7667 95.1529 52.9826 96.2388 51.9891 97.1857C51.99 97.1857 51.8867 97.184 51.8867 97.184C50.6886 95.9706 51.2591 95.1161 52.4553 94.3888Z" fill="#D4D788"/>
<path d="M50.2605 102.214C50.4327 102.773 50.6049 103.331 50.7768 103.889C50.6231 104.447 50.4699 105.004 50.3171 105.562C50.318 105.562 50.1533 105.568 50.1533 105.568C48.0858 104.794 47.8586 103.711 49.6052 102.295C49.8236 102.268 50.0419 102.241 50.2605 102.214Z" fill="#CACD69"/>
<path d="M88.1437 163.643C85.933 165.126 84.7784 167.264 84.31 169.827C82.293 169.834 82.7119 167.746 81.7506 166.832C81.018 166.134 79.764 166.508 79.9843 166.888C82.1198 170.569 79.6705 174.084 79.8279 177.653C78.1257 176.289 77.4362 174.835 78.772 172.69C79.546 171.447 80.0333 169.882 79.1014 168.32C77.8965 168.549 78.8835 170.903 77.0327 170.392C77.176 168.18 77.6424 166.464 79.5966 164.715C80.8485 163.594 80.2106 160.362 80.4203 158.076C80.975 157.521 81.5297 156.966 82.0842 156.412C82.6765 156.354 83.2262 156.09 83.8224 156.045C88.0882 156.968 86.6471 161.141 88.1437 163.643Z" fill="#AFB44B"/>
<path d="M98.7663 138.512C94.4354 141.802 94.2853 142.166 98.0792 146.587C99.7982 148.59 100.314 150.607 99.9311 153.048C97.9725 154.238 96.1819 155.227 95.6498 158.034C95.2552 160.116 92.7585 161.143 90.4488 161.445C89.4278 158.656 90.3739 157.117 93.3719 157.097C93.3139 154.665 90.813 155.398 90.0157 154.089C89.7903 153.791 89.6292 153.462 89.5239 153.104C89.5313 149.241 92.554 149.935 94.9044 149.607C91.0076 144.107 91.0075 144.107 90.5033 140.216C92.0453 137.537 93.4578 134.798 94.3935 131.838C96.1075 129.431 97.6282 129.937 98.9232 132.203C99.5606 133.318 100.03 134.529 100.514 135.725C99.8128 136.58 98.6432 137.141 98.7663 138.512Z" fill="#C9CC67"/>
<path d="M90.5028 140.217C91.0696 141.025 92.494 141.61 91.9518 142.731C90.8168 145.076 90.6715 146.276 93.9499 146.282C94.6635 146.284 95.527 148.511 97.0322 148.945C96.2551 150.66 94.9386 150.973 93.1964 150.612C91.2962 150.218 90.2941 151.273 89.9218 153.054C86.0019 155.196 86.5726 151.313 85.4397 149.715C87.1273 146.549 88.815 143.382 90.5028 140.217Z" fill="#BFC254"/>
<path d="M110.581 126.797C106.865 128.973 104.101 132.233 101.05 135.167C99.9373 134.529 100.286 133.636 100.712 132.814C101.231 131.811 101.291 131.158 99.9468 130.839C97.6223 130.287 97.8981 128.521 98.2045 126.785C98.0428 126.609 97.8889 126.426 97.7431 126.236C98.2994 125.676 98.8557 125.116 99.4122 124.557C101.473 123.154 102.459 125.098 103.794 125.952C104.282 126.428 104.366 127.592 105.414 127.151C106.644 126.633 106.093 125.393 106.28 124.456C106.351 124.105 106.515 123.806 106.767 123.553C109.526 122.884 109.814 125.121 110.581 126.797Z" fill="#C9CC67"/>
<path d="M98.2054 126.785C98.8197 128.339 98.2334 130.819 101.627 129.798C103.232 129.314 102.743 131.394 102.319 132.355C101.905 133.291 100.256 133.657 101.051 135.167C100.878 135.359 100.699 135.545 100.514 135.725C99.2127 135.453 98.663 134.699 98.4381 133.332C98.0053 130.699 96.2999 130.839 94.3929 131.838C94.7663 129.477 95.9576 127.732 98.2054 126.785Z" fill="#BFC355"/>
<path d="M85.4399 149.715C86.08 150.071 87.1829 150.044 87.0778 151.089C86.8278 153.577 88.6167 152.926 89.9216 153.055C90.088 153.248 90.2553 153.44 90.4236 153.632C90.3661 157.989 89.7325 158.381 85.8468 156.507C84.9897 156.094 84.0853 156.202 83.1911 156.411C82.822 156.411 82.4528 156.411 82.0838 156.412C84.292 154.725 84.4846 152.029 85.4399 149.715Z" fill="#B7BA42"/>
<path d="M32.3478 79.8768C32.7139 79.4972 33.0799 79.1174 33.4456 78.7378C35.2088 78.7338 36.9562 78.8771 38.6767 79.2995C40.5578 82.8225 39.1818 86.7441 40.0261 90.3972C38.8243 91.3487 37.4674 91.4856 36.0978 90.9421C34.9211 90.4753 34.5208 91.3361 33.944 91.9708C33.7773 92.0348 33.6109 92.0956 33.4446 92.1565C32.8467 89.1193 31.3393 86.1859 32.3698 82.9623C32.7021 81.9225 32.7058 80.9029 32.3478 79.8768Z" fill="#9EAB48"/>
<path d="M37.3746 102.776C37.675 104.258 38.0454 105.747 36.9396 107.339C35.8954 106.119 34.9414 105.004 33.9874 103.889C33.0641 101.52 32.8822 99.0979 33.4724 96.6206C36.8799 93.8578 39.2108 94.2589 40.087 97.7536C39.8609 99.2368 38.1708 99.6416 37.7212 100.962C37.537 101.553 37.3315 102.14 37.3746 102.776Z" fill="#8F9E31"/>
<path d="M39.5998 98.3039C38.8146 93.1707 35.3776 97.6781 33.4714 96.6209C33.0175 95.1357 33.0851 93.6471 33.444 92.1566L33.4853 92.1598C35.5195 92.5206 37.4881 92.3305 39.3769 91.4522C40.8618 91.9665 40.5145 93.4887 41.0725 94.5177C41.3515 95.7669 41.4177 97.0162 41.0519 98.2632C40.9536 98.4158 40.8514 98.5664 40.7508 98.7181C40.5921 98.8059 40.4323 98.8926 40.2732 98.98C39.8751 98.9285 39.6584 98.6948 39.5998 98.3039Z" fill="#9CAA44"/>
<path d="M60.8676 136.294C58.2959 139.373 57.9074 143.25 56.975 146.928C56.6456 145.389 55.5123 145.08 54.1489 144.723C53.2477 144.486 52.1221 143.607 51.8381 142.765C50.1702 137.823 48.4616 140.02 46.5802 142.563C46.3424 142.885 45.6606 142.878 45.1844 143.023C44.5862 141.588 45.302 140.581 46.2823 139.661C48.059 135.879 48.059 135.879 52.2364 136.614C51.157 132.781 48.28 130.234 46.5953 127.029C46.2888 124.959 47.3793 124.105 49.2681 124.163C51.1063 124.22 51.7369 125.354 51.4825 127.079C51.3667 127.866 51.4279 128.637 51.664 129.391C52.209 130.769 53.0644 131.564 54.6598 131.048C55.3959 130.811 56.2312 130.344 56.9056 130.8C58.3437 131.773 60.7912 132.273 60.6832 134.222C60.566 136.342 58.3397 136.615 56.5258 136.652C58.0247 137.638 59.2723 134.943 60.8676 136.294Z" fill="#BDC155"/>
<path d="M44.0675 131.84C42.824 127.438 42.721 122.938 42.9028 118.412C44.2518 118.838 45.7594 119.023 46.3091 120.659C44.6496 122.964 45.8952 125.121 46.6469 127.305C47.447 128.485 48.2989 129.621 49.0583 130.83C49.6872 131.832 51.728 132.501 50.3588 133.887C49.1189 135.142 48.4236 137.688 45.7542 136.869L45.7522 136.86C46.1692 134.858 45.2913 133.291 44.0675 131.84Z" fill="#BDC155"/>
<path d="M39.0189 140.218C38.4682 138.914 37.9175 137.61 37.3668 136.307C40.2895 134.651 41.5436 137.287 41.9281 138.889C42.5268 141.382 43.8048 143.283 45.1678 145.256C42.5922 147.997 42.2438 147.939 40.9707 144.784C40.8307 144.438 40.0586 144.349 39.5793 144.14C39.4974 143.993 39.4154 143.846 39.3329 143.7C39.3034 142.532 39.3542 141.358 39.0189 140.218Z" fill="#839324"/>
<path d="M45.7548 136.869C48.132 136.91 47.8413 133.918 49.8522 133.29C50.6811 133.031 49.7275 132.084 49.0858 131.656C47.5425 130.628 46.6576 129.163 46.3026 127.36C46.2899 127.093 46.3701 126.925 46.5427 126.856C46.713 126.786 46.8226 126.776 46.871 126.824C49.789 129.608 52.4355 132.572 53.1273 136.748C53.2865 137.708 52.6879 139.182 51.8942 138.339C48.9748 135.236 47.9763 138.603 46.2825 139.661C45.509 138.843 45.3034 137.918 45.7548 136.869Z" fill="#B2B646"/>
<path d="M40.7331 107.261C41.7064 107.785 41.9737 109.517 43.9308 108.344C45.0796 107.656 47.6622 108.167 47.9151 110.031C48.1671 111.889 47.8249 114.141 46.3691 115.668C45.8087 116.256 44.2664 116.9 44.5151 114.752C44.7445 112.775 43.6436 111.899 41.8111 111.716C41.6376 111.154 41.4648 110.592 41.2918 110.03C41.6869 108.99 39.0771 108.557 40.7331 107.261Z" fill="#C2C65B"/>
<path d="M40.7328 107.261C40.9192 108.184 41.1054 109.107 41.2915 110.03C38.6343 108.084 40.362 104.262 37.9483 102.212C37.9495 100.695 38.8048 99.8528 40.1629 99.4086C42.1416 101.183 42.18 101.547 40.7547 105.015C41.4436 105.77 41.4048 106.518 40.7328 107.261Z" fill="#ACB657"/>
<path d="M39.0395 114.982C38.0551 114.168 39.0741 113.479 38.9999 112.75C38.8945 111.718 37.016 110.907 38.5507 109.708C39.0127 109.348 39.7528 109.631 39.7007 110.218C39.5619 111.787 42.2275 113.85 39.0395 114.982Z" fill="#889924"/>
<path d="M44.0676 131.84C47.6021 132.514 47.7054 134.342 45.7519 136.86C44.1409 135.54 44.1841 133.663 44.0676 131.84Z" fill="#B2B646"/>
<path d="M46.3093 120.659C45.1743 119.91 44.0395 119.161 42.9038 118.412C42.3194 117.78 41.5918 117.219 41.8247 116.19C42.6888 116.94 43.4195 117.719 44.7062 118.026C45.4539 118.204 47.4047 118.816 46.3093 120.659Z" fill="#C6C95A"/>
<path d="M40.7191 99.4203C39.7955 100.351 38.8719 101.282 37.9484 102.213C37.7571 102.4 37.5656 102.588 37.3741 102.776C36.9199 102.308 36.5976 101.795 36.8133 101.102C37.3315 99.4644 38.865 99.3446 40.1573 98.8644L40.1921 98.8624C40.5604 98.867 40.7358 99.0527 40.7191 99.4203Z" fill="#9CAA44"/>
<path d="M39.588 61.4231C42.2038 60.685 40.2557 57.385 42.4147 56.3903C42.7545 57.5378 43.1779 58.9364 44.2783 59.2394C46.8642 59.9513 47.588 61.6309 47.1765 64.348C49.463 63.3627 47.8151 60.4949 50.039 59.945C50.9716 61.4289 50.042 62.6837 49.4036 63.8637C48.4466 65.6324 49.0241 66.5381 50.795 67.0061C52.717 68.5199 53.8231 70.511 54.2433 72.9022C53.5717 74.5766 52.214 75.0054 50.7949 74.2436C48.5377 73.0321 46.8694 73.6751 45.3318 75.3899C45.1165 75.6761 44.866 75.9303 44.5886 76.1566C43.2537 76.9194 42.6101 76.0868 42.5333 74.9895C42.34 72.2257 40.697 73.6278 39.4596 73.7987C38.8443 69.6666 38.0332 65.5331 39.588 61.4231Z" fill="#BFC354"/>
<path d="M53.5997 73.1517C53.0599 70.9228 51.0527 69.3641 50.7947 67.0063C51.9618 63.9934 53.3597 61.4716 57.1475 64.2425C57.4504 62.9924 55.9006 62.4954 56.3895 61.4116C61.9798 62.112 62.9588 63.5651 62.0819 69.1356C61.7429 71.288 59.7109 72.8074 60.1254 75.2181C60.2208 75.7737 59.2923 76.163 58.5845 76.1035C57.4688 76.0101 57.4858 75.263 57.6225 74.4007C57.7777 73.4227 57.6964 72.5058 56.3879 72.4329C55.1018 72.3613 55.0786 73.4776 54.7176 74.2692C54.0435 74.1981 53.6304 73.8658 53.5997 73.1517Z" fill="#CED06B"/>
<path d="M51.3564 28.4409C51.1457 27.0583 52.3613 26.5153 53.0068 25.637C53.4223 27.3231 54.2625 29.1128 51.9089 30.1231C51.7247 29.5621 51.5409 29.0016 51.3564 28.4409Z" fill="#CFD371"/>
<path d="M53.6001 73.1516C53.9725 73.524 54.3452 73.8967 54.7176 74.2691C55.1057 75.4905 54.8735 76.9407 56.0637 77.8682C56.2674 78.0271 56.4511 78.2358 56.5825 78.458C57.5651 80.1194 53.3628 79.2845 55.1737 81.3904C56.1174 82.4877 57.9916 82.415 58.4863 84.0003C58.764 84.8914 58.0041 85.421 57.4965 86.0057C56.5885 87.3368 55.7033 88.6911 54.142 89.3712C53.9604 89.5541 53.7782 89.7364 53.5952 89.918C53.3818 92.4596 51.1934 89.7104 50.5419 91.0829C50.0851 92.0853 50.776 92.6016 51.3768 93.1615C51.4565 94.2465 50.8434 94.8097 49.9091 95.1352C48.6656 95.1341 47.7885 94.3576 47.714 93.3033C47.4931 90.1812 45.255 88.9524 42.9467 87.6812C41.8526 87.0784 40.3036 86.7295 40.6041 84.9956C40.8811 83.3959 42.352 83.28 43.5947 82.9185C44.2994 82.7136 45.2052 82.9661 45.7267 81.9408C43.8123 79.8275 40.1487 81.814 38.5503 79.0204C37.2745 77.9354 37.2094 76.5674 37.6166 75.0843C38.0318 74.2774 38.6332 73.7366 39.5926 73.7145C40.2749 72.8294 40.957 71.9441 41.8066 70.842C43.1215 71.9288 43.2114 73.3755 43.2623 74.8542C43.3043 76.0707 43.8722 76.037 44.6556 75.3918C46.7032 75.9186 45.271 79.8132 48.5016 79.2557C48.6626 76.5311 48.0937 74.573 44.6556 75.3918C46.1403 72.9303 47.8139 71.0526 50.8182 73.4543C51.8608 74.2876 52.7399 73.8727 53.6001 73.1516Z" fill="#C4C85D"/>
<path d="M49.6587 94.9504C50.2619 94.3189 51.0438 93.7776 50.7899 92.7128C50.311 92.2563 50.1884 91.6798 50.2308 91.0479C49.683 90.3695 48.576 89.6804 49.4369 88.7607C50.541 87.5808 50.8588 88.894 51.3098 89.6328C51.9351 90.6573 52.7314 90.6332 53.5951 89.9179C54.6353 91.7694 52.2104 92.7392 52.4551 94.3883C52.2656 95.3199 52.0763 96.2517 51.8865 97.1836C51.4768 98.9034 51.4916 100.76 50.2598 102.214L50.2077 102.212C48.9681 102.192 48.5827 101.038 47.7989 100.412C47.3167 100.026 46.9175 99.5989 46.1213 100.104C42.8772 102.164 42.8534 102.126 40.7372 98.317C40.3247 97.2 40.3221 96.0777 40.6966 94.9508C42.628 92.6093 44.9751 93.2821 47.1956 94.2463C48.0199 94.6051 48.7327 95.0575 49.6587 94.9504Z" fill="#C8CB68"/>
<path d="M54.1422 89.3716C55.2806 88.27 55.9165 86.6673 57.4968 86.0063C57.2315 87.9783 56.0931 89.0799 54.1422 89.3716Z" fill="#C8CB68"/>
<path d="M110.582 126.797C108.533 126.902 109.229 123.176 106.669 123.994C103.996 123.382 103.678 120.651 102.386 118.894C101.466 117.642 103.172 117.016 104.359 116.963C106.212 116.879 107.813 117.881 109.526 118.392C111.691 118.601 111.862 116.771 112.564 115.469C109.277 114.184 111.75 118.557 109.62 118.401C107.69 117.428 105.385 116.802 105.533 113.933C105.452 112.095 106.168 110.88 107.93 110.049C109.257 109.422 110.584 108.476 110.633 106.673C110.982 106.299 111.331 105.923 111.68 105.548C115.918 101.59 119.765 97.2014 124.554 93.8497C124.989 93.747 125.177 93.9173 125.117 94.3605C123.58 95.53 124.648 99.8767 120.478 98.1342C120.178 98.0089 117.605 100.498 119.256 102.412C120.399 103.738 119.497 106.059 121.593 106.815C121.628 106.828 121.522 107.714 121.337 107.778C116.288 109.533 118.228 113.835 117.833 117.278C117.694 120.05 114.297 121.522 115.216 125.067C115.602 126.557 112.353 126.583 110.582 126.797Z" fill="#C2C559"/>
<path d="M125.118 94.3604C124.933 94.1863 124.746 94.0159 124.554 93.849C125.562 92.2254 126.205 90.2435 128.476 89.8606C129.803 88.7986 130.683 86.8273 132.943 87.6636C129.997 89.5015 127.036 91.3212 125.118 94.3604Z" fill="#ACB74E"/>
<path d="M46.3473 35.7283C44.934 37.0829 44.6659 36.9195 43.5581 34.0283C44.7378 32.9016 44.0915 30.9828 45.404 29.8745C46.1071 29.2804 46.3161 27.6275 47.6515 28.5346C48.6485 29.212 49.0751 30.6079 48.1057 31.5673C46.8872 32.7733 46.6412 34.2222 46.3473 35.7283Z" fill="#95A433"/>
<path d="M105.533 113.933C107.029 115.424 108.525 116.915 110.021 118.406C107.601 120.166 105.421 116.695 102.513 118.282C105.412 119.328 104.854 122.395 106.668 123.994L106.667 123.995C106.298 125.494 105.67 126.733 103.866 126.797C102.372 126.068 101.207 124.686 99.412 124.557C100.75 120.611 101.911 116.563 105.533 113.933Z" fill="#BCC04E"/>
<path d="M59.1454 189.396C58.9618 190.328 58.7779 191.26 58.5946 192.193C57.6413 191.047 56.2409 190.661 54.9564 190.012C53.5792 191.023 56.3771 192.709 54.3292 193.614C53.266 194.085 53.0399 193.124 52.4656 192.745C51.2517 186.399 48.9273 180.47 45.7662 174.854C47.4604 172.488 49.3466 170.701 52.4636 172.635C52.8228 173.002 53.1824 173.37 53.5417 173.737C53.5459 173.92 53.5505 174.102 53.5567 174.286C53.4885 176.036 50.6541 175.447 50.9121 177.101C51.1989 178.937 50.1457 182.103 54.1472 181.403C55.2292 181.213 56.0853 182.042 56.3178 183.242C56.0798 184.26 57.0358 184.029 57.4706 184.344C60.9546 185.057 59.6156 187.371 59.1454 189.396Z" fill="#83912D"/>
<path d="M52.4635 172.636C52.4036 172.749 52.3086 172.969 52.2886 172.963C49.6779 172.1 48.0007 174.448 45.7652 174.854C47.5929 169.636 44.7312 165.605 42.3768 161.445C42.6745 160.62 41.8793 159.498 42.9163 158.917C44.098 158.255 44.3031 159.712 44.956 159.997C50.541 162.438 49.7166 168.588 52.4635 172.636Z" fill="#7C8B23"/>
<path d="M50.7573 165.345C54.2654 163.931 56.1924 167.938 55.9556 168.813C55.0404 172.196 57.5185 174.226 58.0988 176.907C58.2253 177.492 58.8568 178.031 58.2406 178.598C55.8865 179.24 57.4051 174.817 54.6756 175.988C54.3202 176.465 53.9066 176.626 53.4049 176.202C52.3723 175.33 53.6119 174.579 53.542 173.758L53.5425 173.737C53.8851 170.517 51.1575 168.318 50.7573 165.345Z" fill="#ACB24C"/>
<path d="M38.5107 146.373C38.0839 145.252 38.0813 144.131 38.5058 143.009C39.2073 143.054 39.5404 143.451 39.5781 144.13L39.5795 144.14C39.2231 144.884 38.8669 145.628 38.5107 146.373Z" fill="#AFB446"/>
<path d="M39.5776 144.13C39.22 143.756 38.8624 143.383 38.5048 143.008C38.6764 142.078 38.8474 141.148 39.0186 140.218C40.1301 141.389 40.0094 142.737 39.5776 144.13Z" fill="#8E9B3B"/>
<path d="M39.5923 73.7147C39.0405 74.2746 38.4887 74.8345 37.9367 75.3946C37.6057 76.5965 37.1717 77.8138 38.4415 78.7756C38.4598 78.952 38.478 79.1287 38.4957 79.3053C36.6834 80.2579 34.9745 80.2973 33.4457 78.7379C33.0188 77.6492 33.3851 76.3081 32.3854 75.4018C32.4218 72.8596 32.2492 70.2693 34.0684 68.1396C35.8488 65.3184 33.4882 62.0154 35.1151 59.1762C35.5734 58.2903 36.0322 57.4048 36.4865 56.527C38.946 57.2974 38.8581 59.6161 39.5873 61.4233C39.6749 65.5203 40.236 69.6172 39.5923 73.7147Z" fill="#95A43B"/>
<path d="M34.069 68.1396C33.4463 70.5462 33.5361 73.1175 32.3858 75.4019C32.0261 74.7297 31.8333 73.7013 31.2797 73.4418C27.0682 71.4676 25.1502 67.8614 23.9792 63.6624C24.4146 62.7815 24.3766 61.335 25.8486 61.562C26.9403 61.7306 28.0411 62.7604 27.7849 63.717C27.1888 65.9476 31.2088 66.1468 29.673 68.5495C31.2174 69.2673 32.6901 69.2085 34.069 68.1396Z" fill="#BABE49"/>
<path d="M53.5419 173.758C54.1177 174.4 52.5626 176.127 54.6755 175.987C55.9705 178.236 54.6529 181.078 56.3184 183.242C55.4708 182.518 54.6948 181.23 53.4056 182.394C51.1563 184.424 50.4044 181.938 50.2378 180.948C49.9454 179.208 49.9422 177.404 49.5169 175.638C49.3069 174.767 49.8693 173.95 50.8205 174.75C52.4567 176.126 52.6596 174.124 53.5419 173.758Z" fill="#8E9B3B"/>
<path d="M59.1452 189.396C58.736 187.663 59.6312 185.496 57.4705 184.345C58.118 182.893 59.2711 182.208 60.8252 182.129C60.7446 184.662 61.2053 187.32 59.1452 189.396Z" fill="#9EA531"/>
<path d="M73.6565 180.451C73.484 180.265 73.3085 180.083 73.1295 179.904C73.4929 178.408 73.8564 176.912 74.2193 175.417L74.3093 175.479C76.5574 177.441 75.8706 179.039 73.69 180.451L73.6565 180.451Z" fill="#A5AB3C"/>
<path d="M73.6899 180.451C74.6256 178.883 75.1887 177.27 74.3086 175.478C74.8496 174.9 75.3895 174.32 75.9297 173.741C79.0907 178.233 74.217 181.408 75.0443 185.517C74.6599 185.464 74.2754 185.41 73.8908 185.357C73.8238 183.721 73.7569 182.086 73.6899 180.451Z" fill="#AFB44B"/>
<path d="M83.1912 156.411C85.1757 154.991 86.9905 154.425 87.8991 157.874C89.3912 156.451 89.9274 155.053 90.4238 153.631C91.1392 154.304 91.9811 154.296 92.9272 154.349C95.2089 154.479 93.8699 156.772 94.6672 157.944C95.0804 158.552 93.4883 158.326 92.6141 158.208C89.9295 157.843 92.3902 161.149 90.4489 161.445C89.681 162.178 88.9131 162.911 88.1445 163.643C86.9713 162.348 85.449 161.354 85.8769 159.106C86.2233 157.284 84.4856 156.928 83.1912 156.411Z" fill="#BFC254"/>
<path d="M129.532 92.4835C129.605 92.9201 129.793 93.3025 129.686 93.5622C129.444 94.1446 128.88 94.1501 128.491 93.7798C128.311 93.6088 128.313 93.0236 128.472 92.7888C128.613 92.5805 129.086 92.5967 129.532 92.4835Z" fill="#D8DA80"/>
<path d="M47.124 144.902C49.2463 144.171 50.7241 143.513 51.429 145.787C51.6615 146.536 52.224 147.512 51.2484 147.74C49.1588 148.228 48.6615 146.105 47.124 144.902Z" fill="#BDC155"/>
<path d="M56.9724 146.933C56.7917 148.235 56.6109 149.537 56.4309 150.839C53.7558 149.143 55.5027 148.057 56.9724 146.933Z" fill="#BDC155"/>
<path d="M60.8674 136.294C58.8927 135.884 56.4084 139.888 54.8359 135.561C55.5367 135.031 55.9183 135.863 56.4621 135.923C57.8103 136.073 59.0915 136.104 59.9373 134.79C60.2723 134.269 60.0823 133.483 59.5766 133.64C57.5612 134.265 57.7231 129.917 55.2346 131.861C52.2042 134.228 51.5332 131.785 50.77 129.597C52.5783 126.674 54.8535 124.407 58.3032 123.714C58.0419 123.329 57.061 123.23 56.5224 122.515C55.9653 121.776 55.3607 121.109 55.8105 120.097C56 119.904 56.1897 119.711 56.3794 119.518C60.5895 119.789 60.8295 124.132 63.2187 126.279C63.4803 126.514 63.8241 127.64 62.3685 127.783C60.2821 127.987 60.0648 130.848 60.6463 131.179C63.7879 132.967 61.1857 134.616 60.8674 136.294Z" fill="#CACD68"/>
<path d="M55.8104 120.097C56.3743 121.483 57.4047 122.509 58.7993 122.832C60.7415 123.281 60.622 124.561 60.7618 126.438C55.3406 122.124 54.1816 128.884 50.7699 129.597C50.5942 128.976 50.2235 128.336 50.2869 127.741C50.3907 126.77 51.9686 125.633 50.0131 124.989C48.435 124.47 47.21 125 46.87 126.824C46.6803 127.003 46.4905 127.181 46.3017 127.36C44.2222 125.125 43.1481 122.891 46.3091 120.659C46.3862 123.359 48.401 122.715 49.3207 121.871C51.2859 120.068 53.5866 120.419 55.8104 120.097Z" fill="#C6C95A"/>
<path d="M40.7364 98.3179C41.6748 99.2047 42.5743 100.139 43.5686 100.958C44.0685 101.37 44.781 101.534 45.259 100.856C47.3751 97.8532 47.6787 97.8978 49.7541 101.585C49.88 101.809 50.0556 102.004 50.2079 102.213C48.8871 103.312 48.8631 104.43 50.1538 105.569C48.7635 107.504 47.403 107.534 45.84 105.682C44.412 103.99 42.6726 103.54 40.7549 105.015C40.743 103.151 40.7313 101.286 40.7192 99.4209C40.5447 99.2338 40.369 99.0478 40.192 98.8632C40.3723 98.6798 40.5539 98.4982 40.7364 98.3179Z" fill="#C0C354"/>
<path d="M83.8712 162.002C83.4786 162.508 82.9685 162.713 82.6563 162.117C82.456 161.735 82.5095 161.104 82.6771 160.673C82.8904 160.125 83.548 159.967 83.9691 160.308C84.6201 160.835 83.9852 161.452 83.8712 162.002Z" fill="#BFC254"/>
<path d="M103.866 126.797C104.8 125.863 105.734 124.929 106.668 123.995C107.679 126.347 108.074 128.489 104.511 128.616C102.993 128.67 103.187 127.727 103.866 126.797Z" fill="#C2C559"/>
<path d="M49.6589 94.9502C48.656 95.4986 48.0432 98.0695 46.4805 94.9686C45.8526 93.7225 42.6889 94.1537 40.697 94.9513C39.4473 94.121 39.636 92.8254 39.6122 91.5983C39.3702 91.2229 39.365 90.85 39.6234 90.4794C37.8595 86.8953 39.2427 82.9923 38.4965 79.3052L38.4959 79.3059C38.437 78.9978 38.5005 78.8126 38.6859 78.7493C38.8711 78.6862 38.9943 78.685 39.0559 78.7467C40.6437 80.6927 42.9938 79.3535 44.9087 80.0781C46.2249 80.5763 47.5324 80.9674 47.5336 82.5037C47.5355 84.6451 45.8117 83.3144 44.878 83.5791C44.127 83.7921 43.3532 83.9401 42.5801 84.0546C41.8884 84.1571 41.2615 84.3559 41.1526 85.1226C41.0351 85.9507 41.5974 86.2642 42.329 86.3111C44.131 86.4262 44.8707 88.4442 46.7525 88.6307C48.1867 88.7727 48.2037 90.3315 48.23 91.469C48.262 92.8547 48.5466 94.0494 49.6589 94.9502Z" fill="#BCC151"/>
<path d="M39.6231 90.4795C39.6193 90.8525 39.6155 91.2254 39.6118 91.5984C37.7424 93.6805 35.7622 94.5458 33.4859 92.1596C34.0887 90.838 33.1304 86.983 36.6236 90.3212C37.1723 90.8461 38.6011 90.4498 39.6231 90.4795Z" fill="#909F33"/>
<path d="M40.157 98.8642C39.0421 99.6099 37.9275 100.356 36.813 101.102C36.6831 99.1141 38.2826 98.8495 39.6003 98.3039C39.7856 98.4906 39.9715 98.6774 40.157 98.8642Z" fill="#9AA83F"/>
<path d="M44.655 75.3914C46.1835 74.8199 47.712 74.2486 50.4243 73.2344C48.0751 75.5294 49.3055 76.9075 49.7114 78.3685C50.0061 79.4297 50.005 80.5918 49.0349 81.1981C48.2059 81.7161 47.7892 80.5989 47.2045 80.1835C46.0278 79.3467 44.7398 76.9115 44.655 75.3914Z" fill="#CCCF74"/>
<path d="M39.0551 78.7468C38.8686 78.9334 38.6816 79.1195 38.495 79.306C36.4436 78.2693 35.9714 77.0065 37.9367 75.3947C38.387 76.4861 38.0095 77.8542 39.0551 78.7468Z" fill="#9EAB48"/>
<path d="M50.2305 91.0481C50.6818 91.5138 50.9956 92.026 50.7896 92.713C50.4284 92.9876 49.9468 93.4875 49.6185 92.9616C49.1612 92.2291 49.7547 91.6064 50.2305 91.0481Z" fill="#BCC151"/>
<path d="M110.022 118.406C108.617 114.499 109.241 113.864 114.358 114.213C113.617 115.666 112.997 117.12 112.162 118.437C111.582 119.353 110.704 120.154 110.022 118.406Z" fill="#CACD6E"/>
</svg>
