<svg width="357" height="372" viewBox="0 0 357 372" fill="none" xmlns="http://www.w3.org/2000/svg">
<path d="M149.389 3.40789C160.439 0.713889 171.839 -0.255101 183.439 0.0558993C264.049 2.2219 330.339 63.2459 350.739 139.297C353.919 151.147 358.449 182.272 355.589 193.632C356.629 202.03 351.549 243.95 346.489 248.231C345.849 250.921 344.679 255.568 342.479 257.217C336.699 285.268 300.039 323.691 277.549 339.895C271.299 343.535 262.009 351.618 254.889 352.231C246.419 361.478 209.379 369.148 196.159 370.396C168.209 373.161 140.009 369.042 114.019 358.398C108.269 356.079 101.429 353.433 96.6293 349.46C95.9793 349.535 95.5494 349.599 94.9094 349.409C90.0194 347.963 85.2495 343.222 81.0395 340.435C59.2495 326.007 44.2893 308.327 29.8693 286.855C27.4093 283.2 24.3494 279.891 22.1994 276.053C18.7094 269.832 16.4993 262.747 13.1093 256.36C14.5893 255.399 15.6395 253.418 17.0295 252.213C17.1095 252.147 17.1795 252.084 17.2595 252.019C17.5695 250.117 17.9394 248.082 17.9594 246.15C17.9894 243.404 17.5393 241.193 15.5893 239.197C14.7193 239.227 13.7995 239.218 13.0095 239.629C11.2995 240.516 10.6595 243.919 10.0095 245.747C9.80946 245.517 8.88951 244.435 8.80951 244.181C-0.830488 213.889 -2.5407 177.528 3.5893 146.354C9.5093 116.233 34.6894 65.1199 61.1494 48.2649C61.3194 51.9519 56.3395 56.6769 57.5595 61.2139C58.7095 60.6949 61.2694 61.1779 61.6594 60.1899C65.5594 50.1299 77.5093 41.6059 87.0893 37.2369C87.9893 35.3229 88.4194 34.6819 88.4294 32.4929L84.2695 29.5529C96.3395 18.7279 133.129 4.61389 149.389 3.40789Z" fill="#7A54BA"/>
<path d="M195.779 15.3749C204.499 14.8119 261.049 33.7029 263.959 39.7329L262.929 40.6088C260.259 39.6358 252.649 36.2159 250.769 36.8179C248.379 47.7949 247.039 40.3379 241.749 45.1319L241.679 46.9649C246.869 52.1699 254.009 51.8869 258.929 55.1949L261.219 54.9629C265.099 51.9989 266.169 53.2099 269.189 51.5269C276.379 47.5249 279.179 56.7259 284.819 56.5579L286.959 53.8979C290.539 58.0609 291.969 62.5819 295.099 67.0159C297.449 74.7829 300.109 72.0899 296.089 80.3609C306.409 85.5829 303.409 96.2289 308.319 99.2309L308.469 99.6899C310.229 105.201 311.169 102.868 310.179 108.266C308.449 111.096 308.589 114.697 308.389 118.066L309.629 119.525L311.139 122.735C310.859 130.541 309.889 134.931 315.519 140.632C312.549 143.642 311.979 141.953 311.329 145.187C313.269 149.071 316.469 147.046 318.009 149.416C324.029 158.714 324.079 173.183 323.679 183.084C323.719 189.421 324.409 195.714 319.189 200.342C317.219 202.087 315.279 202.843 315.799 206.068C314.029 212.139 313.149 215.302 307.249 218.531C302.289 221.253 298.409 223.113 295.809 228.543C295.709 232.945 300.159 235.251 300.409 239.658L299.419 240.432L296.859 238.607L289.729 240.522C290.039 243.375 287.729 246.622 285.989 248.785C284.279 250.91 281.189 253.375 280.279 255.901L275.639 257.911L273.529 252.247C273.479 252.123 273.279 251.667 273.229 251.496C272.509 248.967 269.819 237.024 270.249 235.108C270.479 234.083 271.619 232.512 272.139 231.529C277.609 226.807 275.509 204.518 274.989 197.438C274.769 194.416 271.409 191.966 269.229 189.982L269.139 187.676L271.439 185.908C279.649 188.742 279.359 195.332 279.459 202.241L280.689 203.399C282.879 200.4 280.769 196.352 282.229 194.476C288.279 186.664 289.589 173.41 280.339 166.452C280.179 164.341 280.289 163.182 279.239 161.333L277.449 162.212C274.799 159.344 274.729 158.687 273.029 155.206L274.199 152.474L272.309 151.649C270.599 145.209 271.789 140.079 270.069 134.974C266.369 132.555 260.339 130.749 256.029 129.262L256.659 127.944L261.239 127.091C259.229 127.035 257.189 126.938 255.169 126.858C256.519 124.525 256.339 125.591 255.769 122.843C252.559 117.711 246.469 119.765 243.789 116.001L244.779 115.353C244.309 103.612 250.639 105.905 248.219 97.4699L249.219 96.1209C249.669 94.4189 249.589 93.9709 249.569 92.1919C243.979 88.5689 223.679 94.6399 216.739 93.2769C212.809 89.4539 218.719 89.0729 213.859 80.7739L210.349 80.5929C207.629 78.6669 209.909 78.6108 208.459 73.9838L206.029 72.9609L205.029 73.9408L205.129 78.9519L204.149 79.4319C201.679 76.9869 199.009 74.3739 196.329 72.1689C193.039 69.4479 194.039 73.0659 188.919 70.0969C188.109 67.0409 187.269 63.9929 186.399 60.9529C185.759 58.5349 183.169 56.6429 181.239 54.9049C181.909 53.3709 181.669 52.6799 181.509 50.9509C175.449 55.6079 171.859 53.5969 166.079 50.3869C162.449 45.9789 163.159 45.9599 165.539 41.1449L165.709 40.1569C167.599 40.3559 167.879 40.1989 169.649 39.4579L170.149 37.5599L168.899 35.9119L165.559 36.1088L165.099 34.0769L172.419 27.7379L176.429 28.3489L176.929 27.6999C174.619 27.4529 174.279 27.4389 172.519 25.9459L172.889 24.9389C174.749 24.7079 175.299 24.6939 177.049 24.0429C176.409 22.0969 175.969 22.1889 174.279 20.7189C176.729 18.8169 175.809 18.9359 178.399 19.1489L179.959 22.8349L181.099 22.8839C181.719 21.3589 181.779 20.9659 181.989 19.3179L182.049 18.8799C186.919 17.4559 190.819 16.4179 195.779 15.3749Z" fill="#251F67"/>
<path d="M270.897 111.604C270.597 105.936 270.087 102.965 272.427 97.7949L273.177 98.2609C272.707 124.097 282.947 116.533 287.327 127.179C285.837 129.659 280.227 138.478 277.937 139.327C277.507 137.587 277.477 137.177 277.467 135.383L276.677 134.606C274.557 142.576 273.527 144.318 274.197 152.474L272.307 151.649C270.597 145.209 271.787 140.079 270.067 134.974C266.367 132.555 260.337 130.749 256.027 129.262L256.657 127.944L261.237 127.091C262.957 124.269 262.557 125.334 261.637 121.373C264.597 118.792 263.747 119.554 268.087 118.622C270.727 115.776 270.067 115.775 270.897 111.604Z" fill="#3E2F86"/>
<path d="M271.967 119.778C273.927 121.877 275.647 124.217 277.417 126.484C277.577 130.505 275.607 132.14 273.337 135.327C271.707 134.557 269.807 131.434 268.647 129.953C268.397 125.886 270.297 123.463 271.967 119.778Z" fill="#EEE6E6"/>
<path d="M249.219 96.1208C252.609 104.582 254.809 99.0948 259.239 104.585C259.609 110.572 256.189 109.514 258.909 112.778C263.889 113.877 265.979 112.41 270.899 111.604C270.069 115.775 270.729 115.776 268.089 118.622C263.749 119.554 264.599 118.792 261.639 121.373C262.559 125.334 262.959 124.269 261.239 127.091C259.229 127.035 257.189 126.938 255.169 126.858C256.519 124.525 256.339 125.591 255.769 122.843C252.559 117.711 246.469 119.765 243.789 116.001L244.779 115.353C244.309 103.612 250.639 105.905 248.219 97.4698L249.219 96.1208Z" fill="#262B61"/>
<path d="M261.219 54.963C265.099 51.999 266.169 53.21 269.189 51.527C276.379 47.525 279.179 56.726 284.819 56.558L286.959 53.898C290.539 58.061 291.969 62.582 295.099 67.016C297.449 74.783 300.109 72.09 296.089 80.361C296.399 77.716 293.309 70.493 292.239 67.567C292.159 69.469 292.109 69.703 291.269 71.409C285.039 70.709 275.379 58.161 268.869 55.163C268.129 54.822 262.279 54.941 261.219 54.963Z" fill="#262B61"/>
<path d="M273.529 252.247C273.479 252.123 273.279 251.667 273.229 251.496C272.509 248.967 269.819 237.024 270.249 235.108C270.479 234.083 271.619 232.512 272.139 231.529C271.899 234.304 271.269 237.294 273.069 239.659C275.679 241.143 277.419 241.127 280.389 240.364C282.399 239.848 284.369 239.067 286.369 238.486L289.729 240.522C290.039 243.375 287.729 246.622 285.989 248.785C284.279 250.91 281.189 253.375 280.279 255.901L275.639 257.911L273.529 252.247Z" fill="#3E2F86"/>
<path d="M165.539 41.1448C177.329 42.9098 170.689 47.4988 181.509 50.9508C175.449 55.6078 171.859 53.5968 166.079 50.3868C162.449 45.9788 163.159 45.9598 165.539 41.1448Z" fill="#3F3296"/>
<path d="M231.809 55.5779C235.119 59.5939 235.469 61.7539 235.479 66.8029C235.489 70.0779 234.919 78.7999 232.809 80.9199L231.769 79.9799C231.289 78.9529 230.919 78.7489 229.979 78.2149L226.608 80.2879L225.148 79.3249C226.708 74.1909 229.589 58.9659 231.809 55.5779Z" fill="#262B61"/>
<path d="M207.277 36.5398L206.947 34.5628C209.127 31.4828 207.957 29.9968 209.797 26.3628L211.797 25.7798L213.637 27.1958L213.877 27.4128C218.777 31.8778 220.427 30.1728 223.557 32.6648L216.837 31.9998L215.837 33.2438C216.547 35.3008 219.027 41.9718 219.117 43.7298L217.927 44.2058C215.357 41.8118 214.507 40.0778 211.587 39.9908C210.457 41.5688 210.497 41.8878 210.447 43.8428C208.057 44.2368 207.787 44.1638 205.647 43.0358L205.617 41.6198L208.447 39.3678C208.237 37.3298 208.557 38.0698 207.277 36.5398Z" fill="#312375"/>
<path d="M207.279 36.5398L206.949 34.5628C209.129 31.4828 207.959 29.9968 209.799 26.3628L211.799 25.7798L213.639 27.1958C212.319 32.9618 212.169 33.4578 207.279 36.5398Z" fill="#5B4EBB"/>
<path d="M304.907 171.247C307.027 170.937 308.957 170.475 310.957 171.481C311.547 171.78 311.657 172.69 311.877 173.306C309.987 175.62 308.558 175.682 305.748 176.563L305.827 178.028L304.587 178.108C303.547 174.97 303.867 174.382 304.907 171.247Z" fill="#262B61"/>
<path d="M290.427 223.631C291.427 223.283 292.527 223.521 293.297 224.247C294.057 224.974 294.347 226.067 294.047 227.077C293.747 228.087 292.907 228.845 291.877 229.038C290.427 229.307 289.027 228.42 288.647 227.003C288.267 225.586 289.047 224.116 290.427 223.631Z" fill="#312375"/>
<path d="M225.048 54.875C225.568 55.208 226.078 55.554 226.548 55.965C228.698 57.866 228.497 58.863 228.617 61.597C227.247 60.471 225.957 59.292 224.688 58.059L225.048 54.875Z" fill="#CD88D7"/>
<path d="M194.819 37.2828L196.459 36.6958L196.049 38.4818L194.129 39.7208L194.819 37.2828Z" fill="#A586E6"/>
<path d="M62.8071 174.668L63.127 175.145C65.237 178.368 66.187 183.914 68.387 185.236C72.427 187.669 77.8269 187.284 79.5769 191.7L84.2471 196.68L84.457 197.15C86.717 202.086 90.3871 204.561 90.9971 209.681L88.7971 212.401C89.5371 213.91 90.4069 214.459 91.8369 215.284C98.5669 215.466 99.807 216.413 104.467 220.912C107.617 223.053 108.857 223.261 112.677 222.632C115.567 223.17 115.807 224.277 117.547 226.548L123.017 231.232L124.007 233.67C122.507 238.314 119.277 238.121 118.307 241.518L120.637 244.805L119.157 245.589C121.127 246.548 123.537 247.213 124.587 249.15C123.087 250.615 122.587 251.415 120.457 251.771L118.497 250.335C112.657 252.641 115.147 260.081 106.387 256.307C103.247 254.958 98.2671 250.169 95.2771 250.183C92.5471 251.953 91.4169 253.497 90.3169 256.551L91.1169 258.001C96.3469 257.98 99.657 254.71 105.127 257.268L106.557 259.525C103.627 267.262 88.967 271.029 88.177 280.23L89.0669 282.028C90.9769 282.304 92.8471 282.607 94.7271 283.046C99.9571 291.115 109.537 307.369 120.017 309.257C120.917 309.419 122.127 309.494 122.867 308.938C124.717 307.562 125.817 305.926 127.067 304.02C129.337 304.914 129.497 305.831 130.717 307.892L134.307 311.67C133.777 314.182 131.137 315.706 132.147 317.28C130.137 319.094 127.777 322.182 124.867 321.899C123.437 321.76 121.917 321.237 120.537 320.833C119.597 324.901 123.687 327.274 121.487 331.033C122.897 333.197 123.987 334.262 124.077 336.875C122.297 338.225 120.827 338.421 118.667 338.716C116.517 339.083 114.287 339.354 112.177 339.87L110.857 341.286L108.487 340.13L107.667 339.053C106.557 337.375 104.547 336.443 102.857 335.41L102.507 335.001C97.9571 329.818 89.687 322.554 82.457 322.308C79.527 322.208 77.7471 324.929 75.7671 326.852C71.3471 323.895 65.5969 319.478 63.1169 314.719L63.9771 313.543C67.6171 314.05 67.987 314.587 70.717 317.123L70.437 314.611L71.9771 314.038C62.6071 304.656 51.127 296.05 42.707 285.978C40.327 283.141 40.2371 281.43 40.5571 277.937C40.2671 274.481 34.6569 262.857 33.3469 258.212L32.0171 258.393C29.4571 251.931 22.377 249.448 19.707 240.941L21.8569 238.915C23.4269 235.477 22.9969 230.88 23.0669 227.145L19.7371 217.15C20.6771 216.892 21.5971 216.356 22.4771 215.936L23.5869 212.221L25.0271 214.044L25.7471 214.098C27.5971 214.249 28.9269 214.302 30.3269 215.676C31.0969 211.134 30.9569 206.286 28.3469 202.338C41.7169 197.199 32.537 196.75 38.437 191.908C45.697 191.591 40.767 193.27 45.197 194.183L45.8569 190.543L48.217 192.302C52.027 189.299 52.4769 189.102 56.5969 190.709L58.877 187.192L60.177 190.498C61.607 185.248 63.4171 180.056 62.8071 174.668Z" fill="#312375"/>
<path d="M62.8059 174.668L63.1257 175.145C65.2357 178.368 66.1857 183.914 68.3857 185.236C72.4257 187.669 77.8257 187.284 79.5757 191.7L84.2458 196.68L84.4558 197.15C86.7158 202.086 90.3858 204.561 90.9958 209.681L88.7959 212.401C89.5359 213.91 90.4057 214.459 91.8357 215.284C98.5657 215.466 99.8058 216.413 104.466 220.912C107.616 223.053 108.856 223.261 112.676 222.632C115.566 223.17 115.806 224.277 117.546 226.548L123.016 231.232L124.006 233.67C122.506 238.314 119.276 238.121 118.306 241.518L120.636 244.805L119.156 245.589C116.816 242.803 113.476 242.698 111.216 239.954L111.506 241.748C110.106 242.331 109.436 242.544 107.946 242.195C104.146 237.441 98.3957 237.456 94.6157 231.436C93.6457 230.63 92.8058 229.482 91.9558 228.535C86.4158 223.14 81.6958 216.929 76.4058 211.289C72.9558 207.618 69.1558 204.814 65.8958 200.87C65.7658 199.816 60.9758 191.886 60.1758 190.498C61.6058 185.248 63.4159 180.056 62.8059 174.668Z" fill="#3E2F86"/>
<path d="M88.7974 212.401C85.4674 201.804 78.3673 203.309 74.5273 197.304C77.1273 195.232 80.4673 196.286 84.2473 196.68L84.4573 197.15C86.7173 202.086 90.3873 204.561 90.9973 209.681L88.7974 212.401Z" fill="#3F3296"/>
<path d="M107.949 242.195C108.109 240.667 108.469 239.151 108.779 237.647C110.799 236.62 111.909 236.357 114.179 236.636L114.339 237.99L114.719 237.37L115.059 237.937L111.219 239.954L111.509 241.748C110.109 242.331 109.439 242.544 107.949 242.195Z" fill="#3F3296"/>
<path d="M69.3789 305.966C70.0389 303.175 70.0689 302.058 72.0889 299.954C75.7989 300.02 77.3189 303.149 80.8789 304.083C81.5789 303.334 82.269 302.556 83.229 302.146C85.189 301.313 86.6291 302.35 88.5291 303.039L90.2991 300.74C94.4191 301.326 99.849 308.698 102.489 312.224C103.869 314.058 106.389 316.489 106.079 318.952C105.979 319.76 105.589 320.623 105.289 321.378C101.339 322.144 97.029 320.605 93.189 319.671C83.349 318.872 76.2489 312.264 69.3789 305.966Z" fill="#724087"/>
<path d="M86.3984 309.629C87.9484 309.756 89.2885 310.121 90.7085 310.748C93.7485 312.091 96.4484 313.903 97.6384 316.975C95.8584 317.102 93.5084 316.785 91.8384 316.178C88.9884 315.142 87.6784 312.157 86.3984 309.629Z" fill="#B16CC3"/>
<path d="M23.0669 227.145C24.6769 228.187 26.0171 229.25 27.9971 229.305C30.1971 231.822 32.387 230.493 34.217 232.883C40.297 240.815 41.407 255.504 46.137 264.817C42.137 260.526 38.7069 260.107 33.3469 258.212L32.0171 258.393C29.4571 251.931 22.377 249.448 19.707 240.941L21.8569 238.915C23.4269 235.477 22.9969 230.88 23.0669 227.145Z" fill="#3E2F86"/>
<path d="M69.3784 305.966C66.5884 300.021 63.1386 289.297 62.5586 282.791C63.5886 280.69 64.6986 279.633 66.5186 278.2C68.7386 278.852 69.0585 278.907 70.4285 280.911C76.6385 282.739 83.6284 293.141 86.6584 298.643C87.4184 300.034 88.0086 301.542 88.5286 303.039C86.6286 302.35 85.1885 301.313 83.2285 302.146C82.2685 302.556 81.5784 303.334 80.8784 304.083C77.3184 303.149 75.7984 300.02 72.0884 299.954C70.0684 302.058 70.0384 303.175 69.3784 305.966Z" fill="#5D3781"/>
<path d="M66.5156 278.2C68.7356 278.852 69.0555 278.907 70.4255 280.911C69.1355 281.53 68.5255 281.504 67.1355 281.224L66.5156 278.2Z" fill="#CD88D7"/>
<path d="M65.8965 200.87C69.1565 204.814 72.9565 207.618 76.4065 211.289C81.6965 216.929 86.4165 223.14 91.9565 228.535C84.2465 225.467 76.3064 229.145 68.6364 231.668L65.8464 231.522C64.4164 230.558 64.1364 230.784 64.3264 229.026C64.8464 224.415 70.7666 216.497 70.0466 212.7C69.3166 208.908 66.9765 204.735 65.8965 200.87Z" fill="#322C86"/>
<path d="M33.3477 258.212C38.7077 260.107 42.1377 260.526 46.1377 264.817C48.9377 269.979 53.4978 276.656 53.4878 282.68L52.3276 284.332C47.5576 284.667 43.9879 280.808 40.5579 277.937C40.2679 274.481 34.6577 262.857 33.3477 258.212Z" fill="#724087"/>
<path d="M93.1875 319.671C97.0275 320.605 101.338 322.144 105.288 321.378C108.258 320.742 111.578 319.694 114.308 321.481C117.328 323.45 119.578 328.015 121.488 331.033C122.898 333.197 123.987 334.262 124.077 336.875C122.297 338.225 120.827 338.421 118.667 338.716C116.517 339.083 114.287 339.354 112.177 339.87L110.857 341.286L108.488 340.13L110.067 338.978C110.807 337.178 111.498 335.55 110.978 333.575C109.308 327.131 98.6775 322.492 93.1875 319.671Z" fill="#6342A4"/>
<path d="M68.6367 231.668C76.3067 229.145 84.2468 225.467 91.9568 228.535C92.8068 229.482 93.6467 230.63 94.6167 231.436C94.6067 233.53 94.7667 235.696 94.0867 237.698C89.1967 234.146 92.8769 234.486 89.7869 230.315C87.2369 230.382 83.6968 230.006 81.6968 231.751L82.4067 235.218L81.3667 236.546C79.0867 236.271 76.8667 235.967 74.5667 236.087C75.6767 238.598 78.5768 239.053 80.6768 240.822C82.1668 242.076 82.0668 242.363 82.2268 244.303L81.1067 244.884C77.2667 241.93 73.2067 239.992 71.8667 235.239C70.8467 235.533 70.2167 236.102 69.4067 236.763L69.0569 237.058L68.6367 231.668Z" fill="#262B61"/>
<path d="M23.5881 212.221L25.0283 214.044L25.7483 214.098C27.5983 214.249 28.9281 214.302 30.3281 215.676L32.6782 217.95C33.8282 219.99 34.0882 220.732 33.3582 223.007C32.5582 225.463 29.9983 227.761 27.9983 229.305C26.0183 229.25 24.6781 228.187 23.0681 227.145L19.7383 217.15C20.6783 216.892 21.5983 216.356 22.4783 215.936L23.5881 212.221Z" fill="#6342A4"/>
<path d="M28.3477 202.338C41.7177 197.199 32.5377 196.75 38.4377 191.908C40.3377 199.49 46.5077 196.804 44.1177 203.334L41.8079 205.055C41.6079 202.97 41.4577 202.017 40.1877 200.255C37.1577 199.624 38.2078 199.668 34.9978 201.534C33.1978 204.667 34.3877 205.942 35.4177 210.229C36.4977 211.318 37.5277 212.272 38.4177 213.527C36.0477 213.515 35.7377 213.51 33.8477 212.111C33.6977 213.807 33.5377 216.579 32.6777 217.95L30.3276 215.676C31.0976 211.134 30.9577 206.286 28.3477 202.338Z" fill="#3E2F86"/>
<path d="M90.3172 256.551C88.9772 253.817 87.4272 251.371 88.3172 248.248L90.5475 247.321C92.1575 248.22 93.7175 249.199 95.2775 250.183C92.5475 251.953 91.4172 253.497 90.3172 256.551Z" fill="#EEE6E6"/>
<path d="M56.9673 223.499C56.2473 222.468 56.3573 221.072 57.2273 220.167C58.0973 219.261 59.4974 219.099 60.5474 219.78C61.6074 220.462 62.0371 221.795 61.5671 222.964C62.2471 225.174 62.6374 225.752 61.7874 227.996C59.4374 228.902 57.3372 229.418 54.8772 228.236C54.4972 228.054 54.1972 227.799 53.8672 227.55L53.9873 225.33C54.9373 224.667 55.8673 223.892 56.9673 223.499Z" fill="#262B61"/>
<path d="M56.9665 223.499C56.2465 222.468 56.3565 221.072 57.2265 220.167C58.0965 219.261 59.4966 219.099 60.5466 219.78C61.6066 220.462 62.0363 221.795 61.5663 222.964C61.2163 223.865 60.3865 224.496 59.4265 224.608C58.4665 224.72 57.5165 224.294 56.9665 223.499Z" fill="#3F3296"/>
<path d="M111.767 311.512C112.847 311.206 113.987 311.76 114.417 312.8C114.847 313.84 114.427 315.036 113.437 315.581C112.697 315.994 111.777 315.942 111.087 315.448C110.387 314.954 110.037 314.105 110.187 313.265C110.327 312.426 110.947 311.744 111.767 311.512Z" fill="#5D3781"/>
<path d="M61.6265 271.408L63.5566 270.652L62.9065 272.741L61.3164 273.645L61.6265 271.408Z" fill="#6342A4"/>
<path d="M226.619 115.219L229.049 113.362L229.689 113.654C234.679 115.901 238.499 115.992 243.789 116.001C246.469 119.765 252.559 117.711 255.769 122.843C256.339 125.591 256.519 124.525 255.169 126.858C257.189 126.938 259.229 127.035 261.239 127.091L256.659 127.944L256.029 129.262C260.339 130.749 266.369 132.555 270.069 134.974C271.789 140.079 270.599 145.209 272.309 151.649L274.199 152.474L273.029 155.206C274.729 158.687 274.799 159.344 277.449 162.212L279.239 161.333C280.289 163.182 280.179 164.341 280.339 166.452C289.589 173.41 288.279 186.664 282.229 194.476C280.769 196.352 282.879 200.4 280.689 203.399L279.459 202.241C279.359 195.332 279.649 188.742 271.439 185.908L272.559 184.888C270.709 177.63 259.699 182.618 252.439 173.528L251.599 172.847C248.949 170.154 249.159 164.79 248.869 160.769L247.249 159.783L242.149 161.577C239.459 160.032 242.179 156.629 239.819 155.134C235.719 152.544 215.369 150.411 213.249 146.268C212.379 144.56 213.949 142.587 212.179 140.379L210.079 140.334C209.989 142.415 209.969 142.942 209.389 144.939L207.509 145.291C203.229 143.278 200.949 142.963 200.599 138.235L200.289 136.397C205.819 131.139 204.189 133.746 209.599 131.271C216.749 128 214.549 113.57 226.619 115.219Z" fill="#312375"/>
<path d="M277.448 162.212L279.238 161.333C280.288 163.182 280.178 164.341 280.338 166.452C277.548 167.755 276.498 168.213 273.828 166.887C274.378 163.716 274.208 164.671 277.448 162.212Z" fill="#262B61"/>
<path d="M259.408 154.363C256.388 153.175 256.988 153.917 255.508 151.492C256.878 148.348 256.238 149.339 259.548 147.438L261.998 147.616C262.858 150.029 262.148 151.644 260.558 153.833L259.408 154.363Z" fill="#262B61"/>
<path d="M260.558 153.833C262.478 155.437 262.048 154.598 262.258 156.928L260.427 158.009L258.938 156.891L259.407 154.363L260.558 153.833Z" fill="#322C86"/>
<path d="M228.518 141.532L229.778 141.228L230.508 142.493L229.178 145.845L227.008 142.654L228.518 141.532Z" fill="#C1B3B2"/>
<path d="M332.827 201.068C336.237 195.867 336.067 193.9 342.267 195.426C342.057 205.649 344.967 209.774 343.787 218.441L342.987 219.04L341.717 217.154L340.757 217.761L340.097 224.08L339.047 223.561L338.407 221.113L338.797 221.801L336.757 221.173C329.837 226.849 328.437 232.49 327.587 241.134C327.247 244.634 327.037 248.574 329.157 251.562L329.867 253.605C327.517 255.038 325.937 256.365 324.217 258.508L321.377 258.933L320.777 256.011C318.367 256.719 317.337 258.311 316.157 260.505C313.607 265.237 312.067 271.192 308.587 275.341C308.067 274.871 307.597 274.382 306.897 274.203C304.067 273.484 302.057 271.551 299.087 270.892L296.117 273.287L294.317 275.602L293.407 273.231C294.297 270.711 294.587 270.271 293.667 267.637L292.087 266.403C288.777 265.872 285.837 268.056 282.597 269.059C275.047 266.704 279.097 263.248 275.937 258.356C275.837 258.206 275.737 258.06 275.637 257.911L280.277 255.901C281.187 253.375 284.277 250.91 285.987 248.785C287.727 246.622 290.037 243.375 289.727 240.522L296.857 238.607L299.417 240.432L300.407 239.658C300.157 235.251 295.707 232.945 295.807 228.543C298.407 223.113 302.287 221.253 307.247 218.531C313.147 215.302 314.027 212.139 315.797 206.068L318.447 202.894L319.947 202.794C321.407 204.834 321.767 206.77 322.227 209.182C324.847 207.312 326.307 203.278 327.787 200.47L329.087 200.384L329.667 204.019L330.267 204.189C330.957 202.824 331.687 202.071 332.827 201.068Z" fill="#3F3296"/>
<path d="M315.796 206.068L318.446 202.894L319.946 202.794C321.406 204.834 321.766 206.77 322.226 209.182C320.666 211.505 320.246 212.222 320.026 215.018C320.656 216.047 321.236 217.179 321.996 218.117C320.716 227.532 310.475 251.953 303.075 257.689C302.045 258.482 300.906 259.103 299.736 259.648C299.106 260.127 291.286 262.639 289.296 263.598C286.166 265.1 283.595 265.418 280.365 264.284L279.516 262.184C280.276 258.747 282.955 259.044 285.135 256.199L282.236 257.095L280.276 255.901C281.186 253.375 284.276 250.91 285.986 248.785C287.726 246.622 290.036 243.375 289.726 240.522L296.855 238.607L299.416 240.432L300.406 239.658C300.156 235.251 295.706 232.945 295.806 228.543C298.406 223.113 302.286 221.253 307.246 218.531C313.146 215.302 314.026 212.139 315.796 206.068Z" fill="#322C86"/>
<path d="M285.135 256.199C288.115 251.681 290.555 246.982 296.365 245.947C297.625 245.722 298.926 245.879 300.176 246.07C302.256 247.661 302.535 248.302 303.345 250.795C302.995 254.07 301.276 256.806 299.736 259.648C299.106 260.127 291.286 262.639 289.296 263.598C286.166 265.1 283.595 265.418 280.365 264.284L279.516 262.184C280.276 258.747 282.955 259.044 285.135 256.199Z" fill="#3E2F86"/>
<path d="M302.188 233.488C304.178 233.717 304.857 233.641 306.397 235.023L306.548 239.802L303.817 240.151C301.797 238.137 302.307 236.231 302.188 233.488Z" fill="#EBD3C7"/>
<path d="M312.719 229.36L314.389 230.083C315.259 232.463 313.819 234.46 312.879 236.751L310.939 235.816C310.579 232.962 311.479 231.907 312.719 229.36Z" fill="#394B89"/>
<path d="M322.227 209.182C324.847 207.312 326.307 203.278 327.787 200.47L329.087 200.384L329.667 204.019C327.837 209.201 325.867 214.069 321.997 218.117C321.237 217.179 320.657 216.047 320.027 215.018C320.247 212.222 320.667 211.505 322.227 209.182Z" fill="#262B61"/>
<path d="M332.825 201.068L333.436 200.749C335.536 199.632 337.056 198.41 338.736 196.737L340.226 197.135C340.456 198.717 340.696 199.021 339.686 200.366C338.126 202.433 334.556 204.748 332.186 205.735C331.566 205.278 330.716 204.796 330.266 204.189C330.956 202.824 331.685 202.071 332.825 201.068Z" fill="#40508E"/>
<path d="M41.4995 111.907C45.4195 118.228 42.6093 138.248 48.0693 153.035C48.7893 154.174 49.2393 154.728 49.5793 156.061C51.9693 158.662 53.2195 160.22 55.2495 163.106L56.3894 164.605L60.3694 164.228L61.6594 165.676L62.2095 165.759L65.5496 169.778L62.0994 171.698C62.0894 173.772 61.7896 173.277 62.8096 174.668C63.4196 180.056 61.6094 185.248 60.1794 190.498L58.8794 187.192L56.5994 190.709C52.4794 189.102 52.0295 189.299 48.2195 192.302L45.8594 190.543L45.1995 194.183C40.7695 193.27 45.6995 191.591 38.4395 191.908C32.5395 196.75 41.7194 197.199 28.3494 202.338C28.1294 196.419 28.3594 187.89 24.3494 183.286L23.0496 182.943C23.0796 178.995 21.8094 176.479 20.3594 172.857C21.0194 164.427 19.5794 165.298 14.3594 161.609L16.5596 157.276C16.4296 153.35 17.0596 154.525 14.5496 152.155C14.4796 148.125 16.5494 142.962 19.1694 139.866C20.0294 142.423 19.5194 142.173 21.3694 143.565C25.6994 138.337 38.7195 121.155 40.2395 114.975L41.4995 111.907Z" fill="#322C86"/>
<path d="M41.3867 154.79C46.8367 154.985 46.9267 159.303 49.5767 156.061C51.9667 158.662 53.2168 160.22 55.2468 163.106L56.3867 164.605L60.3667 164.228L61.6567 165.676L62.2068 165.759L65.5469 169.778L62.0967 171.698C62.0867 173.772 61.7869 173.277 62.8069 174.668C63.4169 180.056 61.6068 185.248 60.1768 190.498L58.8767 187.192L56.5967 190.709C52.4767 189.102 52.0268 189.299 48.2168 192.302L45.8567 190.543L45.1968 194.183C40.7668 193.27 45.6968 191.591 38.4368 191.908C32.5368 196.75 41.7167 197.199 28.3467 202.338C28.1267 196.419 28.3567 187.89 24.3467 183.286L23.0469 182.943L26.3467 181.705C25.5867 179.123 26.9768 173.534 28.2268 171.102C29.6768 168.914 29.7268 168.258 30.2368 165.727L32.3069 163.703L35.6367 159.95L36.9768 159.48C38.2268 163.038 37.3667 168.904 41.3367 175.461L42.4868 175.536C44.1568 171.718 43.8967 173.264 43.0967 168.939C40.7367 163.749 40.9767 160.192 41.3867 154.79Z" fill="#312375"/>
<path d="M41.3889 154.79C46.8389 154.985 46.9288 159.303 49.5788 156.061C51.9688 158.662 53.219 160.22 55.249 163.106L56.3889 164.605L60.3689 164.228L61.6589 165.676L62.209 165.759L65.549 169.778L62.0988 171.698C62.0888 173.772 61.789 173.277 62.809 174.668C63.419 180.056 61.6089 185.248 60.1789 190.498L58.8789 187.192C60.0489 184.738 61.8688 176.983 60.3488 174.727C56.4488 177.363 55.669 179.811 51.709 180.649C49.479 177.981 50.9289 178.063 51.3589 173.106C48.5289 169.956 47.4888 170.364 43.0988 168.939C40.7388 163.749 40.9789 160.192 41.3889 154.79Z" fill="#3F3296"/>
<path d="M55.2466 163.106L56.3865 164.605L60.3665 164.228L61.6565 165.676C56.9465 165.961 53.7466 168.949 50.2866 166.725L49.9766 163.707C53.6666 164.519 52.4666 164.832 55.2466 163.106Z" fill="#322C86"/>
<path d="M31.0765 146.557L33.4266 145.557L36.7366 147.077L36.4966 146.24C39.0066 150.257 35.8965 155.546 32.3365 157.236L35.6365 159.95L32.3067 163.703L30.2366 165.727C27.4966 165.752 24.1365 163.43 21.6165 162.005C21.0865 158.93 22.5566 156.543 24.6766 154.542C27.3866 151.992 25.3467 152.03 27.5567 148.92L31.0765 146.557Z" fill="#3E2F86"/>
<path d="M32.3374 157.236L35.6375 159.95L32.3076 163.703L30.9375 161.063L32.3374 157.236Z" fill="#7A54BA"/>
<path d="M31.0784 146.557C32.1484 149.639 32.2385 148.43 30.9485 151.11L29.0586 151.283L27.5586 148.92L31.0784 146.557Z" fill="#CD9ADC"/>
<path d="M41.3867 154.79C41.4767 153.084 41.5268 153.037 42.4668 151.568L45.9968 153.647L48.0667 153.035C48.7867 154.174 49.2367 154.728 49.5767 156.061C46.9267 159.303 46.8367 154.985 41.3867 154.79Z" fill="#3E2F86"/>
<path d="M21.6172 162.005C24.1372 163.43 27.4973 165.752 30.2373 165.727C29.7273 168.258 29.6773 168.914 28.2273 171.102C26.5173 167.325 24.3072 165.095 21.6172 162.005Z" fill="#312375"/>
<path d="M79.5781 191.7C80.9681 190.161 82.4381 188.715 83.3281 186.846L81.3782 184.027C91.1082 172.161 100.568 190.123 110.218 193.175C115.758 194.928 117.228 197.852 121.058 200.272C124.278 200.566 126.458 200.196 128.918 202.464L130.228 206.786L133.118 206.678L135.588 207.096C136.938 213.399 138.378 217.778 143.508 222.158C143.558 222.203 143.628 222.223 143.688 222.256C144.938 224.073 146.338 225.904 147.388 227.843C144.318 225.935 141.628 223.447 138.588 221.446C135.148 221.9 132.968 225.577 130.608 228.134C130.008 229.563 129.638 230.664 129.628 232.222L127.398 234.198C126.268 234.117 125.048 234.155 124.008 233.67L123.018 231.232L117.548 226.548C115.808 224.277 115.568 223.17 112.678 222.632C108.858 223.261 107.618 223.053 104.468 220.912C99.8083 216.413 98.5681 215.466 91.8381 215.284C90.4081 214.459 89.5383 213.91 88.7983 212.401L90.9983 209.681C90.3883 204.561 86.7183 202.086 84.4583 197.15L84.2483 196.68L79.5781 191.7Z" fill="#5339B2"/>
<path d="M130.226 206.786L133.116 206.678L135.586 207.096C136.936 213.399 138.376 217.778 143.506 222.158C143.556 222.203 143.626 222.223 143.686 222.256C144.936 224.073 146.336 225.904 147.386 227.843C144.316 225.935 141.626 223.447 138.586 221.446C135.146 221.9 132.966 225.577 130.606 228.134C125.116 225.5 128.376 222.295 126.556 217.815C125.146 217.092 123.946 216.376 122.736 215.333C122.636 215.24 122.526 215.144 122.416 215.05C121.746 214.682 121.296 213.996 121.236 213.227C121.176 212.397 121.576 211.6 122.276 211.148C122.976 210.697 123.856 210.665 124.596 211.064C127.456 210.032 128.196 209.073 130.226 206.786Z" fill="#583CB5"/>
<path d="M121.236 213.227C121.176 212.397 121.576 211.6 122.276 211.148C122.976 210.697 123.856 210.665 124.596 211.064C125.686 211.664 126.096 213.041 125.496 214.141C124.896 215.241 123.516 215.648 122.416 215.05C121.746 214.682 121.296 213.996 121.236 213.227Z" fill="#B16CC3"/>
<path d="M121.057 200.272C124.277 200.566 126.457 200.196 128.917 202.464L130.227 206.786C128.197 209.073 127.457 210.032 124.597 211.064C123.857 210.665 122.977 210.697 122.277 211.148C121.577 211.6 121.177 212.397 121.237 213.227L117.217 210.085C116.717 206.675 120.217 204.462 120.947 200.853C120.987 200.66 121.017 200.466 121.057 200.272Z" fill="#583CB5"/>
<path d="M104.469 220.912L105.619 217.948C107.409 217.665 107.689 217.412 109.189 218.496C110.819 219.672 111.679 220.922 112.679 222.632C108.859 223.261 107.619 223.053 104.469 220.912Z" fill="#583CB5"/>
<path d="M117.547 226.548L119.177 223.888L120.797 223.977C122.487 226.395 123.437 228.155 123.017 231.232L117.547 226.548Z" fill="#5B4EBB"/>
<path d="M97.4666 202.952C98.4666 203.413 99.3466 204.066 100.267 204.67L99.3164 206.449C98.1064 206.949 98.0764 206.896 96.8164 206.52L97.4666 202.952Z" fill="#CD88D7"/>
<path d="M106.276 40.9048C109.426 37.7888 119.366 32.1458 123.786 30.1268C125.806 29.2088 127.596 30.7608 129.606 31.8578L128.106 33.7618C132.636 34.7418 130.946 31.1428 135.466 33.9798C136.956 37.5098 136.826 45.9348 135.106 49.1978L133.576 50.5098C137.526 51.5378 140.846 50.5378 143.156 52.4558L144.926 54.6288L143.316 59.1288L141.356 59.8788C141.176 65.2528 137.806 66.5938 138.876 70.7348L136.546 72.8678C131.346 72.3358 133.576 68.6728 129.706 70.0198L128.436 72.1248C127.826 69.5388 121.746 65.5608 118.336 58.7568L114.376 60.2908C110.066 63.1638 108.296 64.3578 103.506 66.3788C101.736 68.3018 101.766 68.9138 99.5564 69.4928C94.4164 67.7838 92.1063 72.0578 88.7163 75.7748C79.0763 70.1748 86.5763 67.1168 75.4062 64.1098C77.0163 63.1168 79.3863 63.5398 81.4363 63.6378L82.3462 62.2698L86.7463 59.6688C90.6263 55.1729 92.1064 53.1078 97.2964 50.2548C100.416 50.0658 103.246 47.9458 104.416 45.0538L103.396 42.9028L103.256 41.6678L106.276 40.9048Z" fill="#7E50CD"/>
<path d="M106.277 40.9048C109.427 37.7888 119.367 32.1458 123.787 30.1268C125.807 29.2088 127.597 30.7608 129.607 31.8578L128.107 33.7618C132.637 34.7418 130.947 31.1428 135.467 33.9798C136.957 37.5098 136.827 45.9348 135.107 49.1978C133.017 48.9288 131.337 50.1418 127.207 49.8298L130.027 48.8348C126.417 47.6328 126.497 49.0138 123.467 46.1378L122.017 45.6488C119.937 46.2308 119.097 46.1638 117.007 46.1648C115.347 43.4398 115.937 42.8079 115.967 39.2079C111.937 39.9829 110.457 41.2568 107.267 43.6408C106.757 42.6118 106.387 42.0638 106.277 40.9048Z" fill="#5B4EBB"/>
<path d="M115.966 39.2079C118.436 38.1759 119.306 37.5879 121.936 38.0819C124.466 40.6939 123.726 39.8119 124.346 43.9139L123.466 46.1379L122.016 45.6489C119.936 46.2309 119.096 46.1639 117.006 46.1649C115.346 43.4399 115.936 42.8079 115.966 39.2079Z" fill="#6D51BF"/>
<path d="M118.336 58.7568C129.036 52.8548 130.866 53.0758 143.156 52.4558L144.926 54.6288L143.316 59.1288L141.356 59.8788C141.176 65.2528 137.806 66.5938 138.876 70.7348L136.546 72.8678C131.346 72.3358 133.576 68.6728 129.706 70.0198L128.436 72.1248C127.826 69.5388 121.746 65.5608 118.336 58.7568Z" fill="#B2A8EE"/>
<path d="M86.7463 59.6689C96.1163 63.9309 101.506 55.3909 103.506 66.3789C101.736 68.3019 101.766 68.9139 99.5564 69.4929C94.4164 67.7839 92.1063 72.0579 88.7163 75.7749C79.0763 70.1749 86.5763 67.1169 75.4062 64.1099C77.0163 63.1169 79.3863 63.5399 81.4363 63.6379L82.3462 62.2699L86.7463 59.6689Z" fill="#A586E6"/>
<path d="M309.629 119.525L311.309 118.152C316.329 118.829 314.079 120.43 320.629 118.736C323.399 122.185 323.529 124.329 324.329 128.59C325.409 130.542 327.569 134.127 328.119 136.092C328.059 138.266 330.709 141.381 332.439 142.506L333.639 141.916L334.899 145.495C336.029 149.994 337.439 154.201 338.869 158.609C338.929 163.138 338.219 164.841 340.359 168.334L340.619 183.873C345.359 185.789 346.179 189.882 344.589 194.664C343.389 195.281 343.409 195.528 342.269 195.426C336.069 193.9 336.239 195.867 332.829 201.068C331.689 202.071 330.959 202.824 330.269 204.189L329.669 204.019L329.089 200.384L327.789 200.47C326.309 203.278 324.849 207.312 322.229 209.182C321.769 206.77 321.409 204.834 319.949 202.794L318.449 202.894L315.799 206.068C315.279 202.843 317.219 202.087 319.189 200.342C324.409 195.714 323.719 189.421 323.679 183.084C324.079 173.183 324.029 158.714 318.009 149.416C316.469 147.046 313.269 149.071 311.329 145.187C311.979 141.953 312.549 143.642 315.519 140.632C309.889 134.931 310.859 130.541 311.139 122.735L309.629 119.525Z" fill="#5D3781"/>
<path d="M333.047 166.889L333.786 160.841C335.946 158.462 335.136 159.153 338.866 158.609C338.926 163.138 338.216 164.841 340.356 168.334L340.616 183.873C345.356 185.789 346.176 189.882 344.586 194.664C343.386 195.281 343.406 195.528 342.266 195.426C336.066 193.9 336.236 195.867 332.826 201.068C331.686 202.071 330.956 202.824 330.266 204.189L329.666 204.019L329.086 200.384L327.786 200.47C326.306 203.278 324.846 207.312 322.226 209.182C321.766 206.77 321.406 204.834 319.946 202.794L318.446 202.894L315.797 206.068C315.277 202.843 317.216 202.087 319.186 200.342C324.406 195.714 323.716 189.421 323.676 183.084C325.526 186.174 325.576 193.873 325.816 197.821L326.776 198.291C330.426 190.003 334.147 175.942 333.047 166.889Z" fill="#312375"/>
<path d="M309.629 119.525L311.309 118.152C316.329 118.829 314.079 120.43 320.629 118.736C323.399 122.185 323.529 124.329 324.329 128.59C325.409 130.542 327.569 134.127 328.119 136.092C328.059 138.266 330.709 141.381 332.439 142.506L332.639 145.606L331.469 146.558L325.199 144.277C320.379 145.679 324.289 146.55 320.069 149.572C318.529 145.601 311.319 125.785 311.139 122.735L309.629 119.525Z" fill="#262B61"/>
<path d="M333.048 166.889L332.038 163.133C328.998 160.759 321.658 150.494 322.538 146.56L324.977 145.138C327.687 147.351 330.708 150.55 334.248 149.657L334.897 145.495C336.027 149.994 337.437 154.201 338.867 158.609C335.137 159.153 335.948 158.462 333.788 160.841L333.048 166.889Z" fill="#3E2F86"/>
<path d="M118.338 58.7568C121.748 65.5608 127.828 69.5388 128.438 72.1248L125.469 73.6628C126.159 90.4868 111.578 92.3548 103.678 104.728C94.8385 95.8798 95.8886 102.231 84.3086 85.4709L88.3684 81.2048L87.7185 78.6819L88.7185 75.7748C92.1085 72.0578 94.4186 67.7838 99.5586 69.4928C101.769 68.9138 101.739 68.3018 103.509 66.3788C108.299 64.3578 110.068 63.1638 114.378 60.2908L118.338 58.7568Z" fill="#F8F8F6"/>
<path d="M118.339 58.7568C121.749 65.5608 127.829 69.5388 128.439 72.1248L125.469 73.6628C120.859 68.4228 116.799 66.4948 114.379 60.2908L118.339 58.7568Z" fill="#A586E6"/>
<path d="M88.7188 75.7748C92.1088 72.0578 94.4188 67.7838 99.5588 69.4928C94.3688 74.0518 92.4987 75.7248 88.3687 81.2048L87.7188 78.6818L88.7188 75.7748Z" fill="#9360D5"/>
<path d="M245.469 259.065C247.369 259.992 248.599 262.603 249.739 264.346C253.019 262.02 253.658 255.991 256.948 253.385C259.488 251.374 263.428 254.021 268.448 250.378C268.948 250.857 269.578 251.196 269.628 251.913C269.938 256.513 265.968 260.445 263.078 263.595L263.229 264.929C265.109 264.6 266.888 264.569 268.448 263.408C271.788 260.925 272.909 256.142 273.529 252.247L275.638 257.911C275.738 258.06 275.838 258.206 275.938 258.356C279.098 263.248 275.048 266.704 282.598 269.059C285.838 268.056 288.778 265.872 292.088 266.403L293.668 267.637C291.058 270.091 287.928 271.818 285.418 274.172C281.938 277.435 278.159 284.237 273.519 285.516L270.999 284.182L270.519 281.905L267.469 281.911C266.249 285.648 269.228 287.906 266.338 291.625C263.758 292.512 261.368 292.487 258.878 291.248C256.108 289.866 254.249 287.898 252.479 285.407L250.598 284.903L252.458 282.993L250.858 282.794C248.898 280.478 249.198 277.992 248.918 275.038L248.999 273.701L247.529 272.31C245.529 273.278 245.749 274.77 243.299 275.266C242.059 273.795 240.828 272.528 239.378 271.268L234.618 272.867L233.898 270.215L240.299 265.311C241.279 262.923 243.679 260.907 245.469 259.065Z" fill="#5339B2"/>
<path d="M252.458 282.993C253.868 284.149 255.078 285.297 256.878 285.768C260.358 281.002 257.378 277.874 260.398 274.009L262.568 273.882C264.548 275.346 266.208 276.556 267.308 278.813C267.388 278.974 267.458 279.137 267.538 279.298C268.808 279.842 269.608 280.903 270.518 281.905L267.468 281.911C266.248 285.648 269.228 287.906 266.338 291.625C263.758 292.512 261.368 292.487 258.878 291.248C256.108 289.866 254.248 287.898 252.478 285.407L250.598 284.903L252.458 282.993Z" fill="#3F3296"/>
<path d="M133.117 206.678C134.897 204.599 135.367 203.598 138.047 202.826L140.827 206.048L142.247 206.145L142.807 201.923C145.117 201.326 146.037 202.091 148.107 203.302C150.287 204.572 152.297 206.489 154.207 208.132C156.047 209.478 157.887 210.792 159.817 212.009C163.197 217.495 168.697 221.54 170.237 227.95C171.577 231.138 173.047 233.167 171.557 236.702C171.467 236.92 171.367 237.135 171.277 237.352C169.237 240.688 170.817 241.784 170.157 245.005C169.317 249.06 157.497 254.716 153.957 256.609C152.877 254.857 152.157 253.15 150.127 252.421L152.067 250.036C152.137 249.904 152.217 249.775 152.287 249.642C156.387 241.889 152.817 239.286 150.717 232.056L150.577 231.565L149.097 229.563L147.387 227.843C146.337 225.904 144.937 224.073 143.687 222.256C143.627 222.223 143.557 222.203 143.507 222.158C138.377 217.778 136.937 213.399 135.587 207.096L133.117 206.678Z" fill="#6D51BF"/>
<path d="M170.239 227.95C171.579 231.138 173.049 233.167 171.559 236.702C171.469 236.92 171.369 237.135 171.279 237.352C169.239 240.688 170.819 241.784 170.159 245.005C169.319 249.06 157.499 254.716 153.959 256.609C152.879 254.857 152.159 253.15 150.129 252.421L152.069 250.036C154.119 249.714 155.379 249.444 157.029 248.058C158.769 245.505 157.699 241.472 157.349 238.55L158.129 238.217L159.839 235.711L162.899 236.226L163.799 231.666C164.789 232.541 165.529 232.809 166.799 233.136C167.819 231.262 168.949 229.636 170.239 227.95Z" fill="#7E50CD"/>
<path d="M158.129 238.217L159.839 235.711L162.899 236.226C162.039 238.244 161.419 241.073 159.419 241.944C158.599 240.651 158.279 239.738 158.129 238.217Z" fill="#5339B2"/>
<path d="M157.349 238.55C156.109 234.918 155.099 232.931 156.139 229.143L157.959 228.216C160.439 228.742 161.909 230.074 163.799 231.666L162.899 236.226L159.839 235.711L158.129 238.217L157.349 238.55Z" fill="#6342A4"/>
<path d="M143.688 222.256C146.017 221.248 146.778 221.115 149.288 221.48C151.638 223.251 152.047 223.897 153.167 226.605C152.867 229.105 152.137 229.65 150.577 231.565L149.097 229.563L147.387 227.843C146.337 225.904 144.938 224.073 143.688 222.256Z" fill="#CD88D7"/>
<path d="M128.438 72.125L129.708 70.02C133.578 68.673 131.348 72.336 136.548 72.868L138.878 70.735C141.738 69.911 142.318 69.629 145.168 70.404C142.168 73.416 135.328 78.164 134.728 80.254C137.708 85.024 139.488 86.225 138.428 92.754C137.038 101.244 113.978 121.725 106.238 119.738C102.268 117.381 102.218 116.65 100.988 112.92C102.798 111.085 104.388 109.682 105.568 107.385L102.838 107.231L103.678 104.728C111.578 92.355 126.158 90.487 125.468 73.663L128.438 72.125Z" fill="#C2A3EC"/>
<path d="M100.988 112.92L104.728 111.662C108.868 114.297 108.268 113.091 109.788 116.944C108.758 118.903 108.468 118.585 106.238 119.738C102.268 117.381 102.218 116.65 100.988 112.92Z" fill="#C5A1E0"/>
<path d="M198.869 114.19C205.409 110.405 212.689 102.525 214.649 102.131C216.389 103.512 217.289 104.463 219.529 104.814L220.379 103.533L218.489 99.9939C220.639 98.2159 220.989 98.7939 224.429 98.5989C222.249 101.04 221.609 101.58 221.179 104.761C223.039 111.331 227.199 107.697 226.619 115.219C214.549 113.57 216.749 128 209.599 131.271C204.189 133.746 205.819 131.139 200.289 136.397L200.599 138.235C193.179 138.509 187.159 146.452 182.149 143.743L182.489 140.719C178.599 136.774 179.579 137.011 181.509 132.018C183.919 130.717 184.619 130.68 187.279 130.228L186.169 127.503C188.149 120.277 190.249 123.207 195.269 119.914C194.089 120.014 192.999 119.689 191.829 119.442C197.449 117.064 192.799 118.265 195.639 111.751L197.299 111.447L197.009 114.079L198.869 114.19Z" fill="#3E2F86"/>
<path d="M195.268 119.914C200.418 119.301 201.348 121.377 204.058 125.77L203.438 127.071C199.058 127.065 193.298 125.034 191.148 126.204L189.488 129.531L187.278 130.228L186.168 127.503C188.148 120.277 190.248 123.207 195.268 119.914Z" fill="#5339B2"/>
<path d="M146.669 18.8409L147.409 17.0359L149.51 17.6129L150.919 20.6119C156.659 19.1949 156.529 18.0169 159.939 22.7259C161.529 24.9109 167.059 25.4089 168.449 29.0319L168.179 30.7559C163.389 32.1329 159.319 35.6729 156.459 39.6739L156.649 40.7889C159.109 40.5499 163.379 39.9959 165.709 40.1569L165.54 41.1449C163.16 45.9599 162.449 45.9789 166.079 50.3869C156.659 45.2869 154.299 52.4039 147.179 55.2899L144.929 54.6289L143.159 52.4559C140.849 50.5379 137.529 51.5379 133.579 50.5099L135.109 49.1979C136.829 45.9349 136.959 37.5099 135.469 33.9799C130.949 31.1429 132.639 34.7419 128.109 33.7619L129.609 31.8579C132.439 25.6669 143.409 24.3979 147.839 19.9619L146.669 18.8409Z" fill="#583CB5"/>
<path d="M96.6289 349.46C97.4389 349.135 98.5889 348.492 99.4189 348.334C102.809 347.687 136.679 358.971 142.419 361.068C161.699 368.219 186.889 367.991 206.869 364.032C208.819 363.166 211.359 362.873 213.449 362.437C219.419 361.194 221.419 359.486 224.689 354.489C228.539 354.37 239.269 355.916 241.589 355.418C244.289 354.837 247.009 352.163 249.979 351.442C252.339 350.87 252.849 350.959 254.889 352.231C246.419 361.478 209.379 369.148 196.159 370.396C168.209 373.161 140.009 369.042 114.019 358.398C108.269 356.079 101.429 353.433 96.6289 349.46Z" fill="#8859D5"/>
<path d="M171.278 237.352L172.698 239.816C174.778 238.491 176.547 234.289 177.107 231.897C177.697 229.379 176.908 226.754 175.488 224.669C172.848 220.816 169.797 221.186 170.117 216.233L171.278 215.108C174.948 216.294 179.847 220.649 181.567 224.096C184.767 230.484 183.517 238.501 181.147 244.966C178.207 252.986 170.738 262.841 162.528 266.068C161.698 266.394 160.717 266.436 159.837 266.429L159.478 267.326C157.088 268.589 154.667 270.032 152.067 270.817C149.217 269.588 141.818 268.704 138.758 269.549C138.588 269.596 138.418 269.647 138.248 269.696C139.258 267.871 140.448 266.105 141.548 264.33L141.097 262.802C138.517 261.576 136.557 261.04 133.688 260.923L134.667 261.21C138.137 260.035 141.548 259.729 144.478 257.315C144.648 257.176 144.808 257.033 144.978 256.892L150.127 252.421C152.157 253.15 152.878 254.857 153.958 256.609C157.498 254.716 169.317 249.06 170.157 245.005C170.817 241.784 169.238 240.688 171.278 237.352Z" fill="#9360D5"/>
<path d="M158.206 256.656C159.586 255.903 159.706 255.618 161.296 255.962L160.056 259.645C158.836 259.303 157.976 258.773 156.926 258.076L158.206 256.656Z" fill="#CD9ADC"/>
<path d="M14.7193 164.97L16.4093 164.425C18.6693 167.23 18.6694 169.289 18.3094 173.201L20.3592 172.857C21.8092 176.479 23.0794 178.995 23.0494 182.943L24.3492 183.286C28.3592 187.89 28.1292 196.419 28.3492 202.338C30.9592 206.286 31.0992 211.134 30.3292 215.676C28.9292 214.302 27.5993 214.249 25.7493 214.098L25.0294 214.044L23.5892 212.221L22.4793 215.936C21.5993 216.356 20.6793 216.892 19.7393 217.15L18.5094 217.22C17.2594 217.719 16.6094 218.216 15.2794 217.905C13.5694 206.032 5.4493 181.942 9.7093 171.159C12.5393 169.027 12.9393 168.098 14.7193 164.97Z" fill="#312375"/>
<path d="M24.3474 183.286C28.3574 187.89 28.1274 196.419 28.3474 202.338C30.9574 206.286 31.0974 211.134 30.3274 215.676C28.9274 214.302 27.5975 214.249 25.7475 214.098L25.0276 214.044L23.5874 212.221L22.4775 215.936C21.5975 216.356 20.6775 216.892 19.7375 217.15L18.5075 217.22C17.7475 212.408 18.1575 203.185 19.2175 198.414C19.5975 194.866 22.3074 186.215 24.3474 183.286Z" fill="#6342A4"/>
<path d="M24.3486 183.286C28.3586 187.89 28.1286 196.419 28.3486 202.338L26.3286 200.773C25.4986 198.685 25.2787 197.851 23.6487 196.202C23.6587 198.944 23.7688 199.901 22.9688 202.559C21.6688 200.506 22.6587 197.465 21.9087 193.99C21.3887 195.761 20.3288 196.923 19.2188 198.414C19.5987 194.866 22.3086 186.215 24.3486 183.286Z" fill="#5D3781"/>
<path d="M19.7377 217.15C19.4177 214.818 19.4077 212.661 19.5277 210.312L20.7877 209.914L23.5876 212.221L22.4777 215.936C21.5977 216.356 20.6777 216.892 19.7377 217.15Z" fill="#794C97"/>
<path d="M14.7167 164.97L16.4066 164.425C18.6666 167.23 18.6668 169.289 18.3068 173.201C19.8468 177.779 20.1867 176.619 19.0067 180.457L17.4467 180.325C13.4067 174.67 14.3267 171.978 14.7167 164.97Z" fill="#3F3296"/>
<path d="M57.8962 91.0409C58.2162 90.7019 58.5462 90.3659 58.8762 90.0319C63.6762 85.1579 63.9363 86.3699 71.1663 86.2959L72.7664 89.3649L72.0564 91.2519L68.4863 92.5409C68.0663 96.7679 67.4964 95.8069 69.5364 98.6199C72.2864 99.5089 72.7262 99.6629 75.6262 99.5739C75.6462 103.341 74.2163 105.744 71.1963 108.041C68.1263 107.369 67.6262 107.085 64.8662 105.531L63.9463 103.493C63.6263 108.287 68.5562 107.884 69.8162 114.131L68.9863 115.06L67.5564 115.066C66.6764 117.58 66.4262 117.062 67.0662 119.223L67.9062 119.699C67.1363 121.962 66.9863 122.365 65.6663 124.401L63.7363 120.971L61.9263 120.992C61.2963 121.704 60.5963 122.342 60.2263 123.175C59.1663 124.465 53.4663 131.932 52.9863 132.2C49.2963 131.077 50.0962 131.522 45.8462 132.613L45.1562 119.153C47.8363 116.073 47.9462 119.366 53.1362 116.973L56.4563 103.66C55.1663 102.42 54.6462 102.096 53.1262 101.146C53.4862 96.5289 57.0462 95.6069 57.8962 91.0409Z" fill="#5B4EBB"/>
<path d="M84.2656 29.5529C96.3356 18.7279 133.125 4.61396 149.385 3.40796L151.656 8.05997C148.526 9.64597 144.145 11.4329 142.105 14.1089L142.605 15.606C142.085 16.188 141.715 16.844 141.125 16.912C130.845 18.099 118.946 23.725 108.956 25.801L109.406 23.314C104.646 22.873 97.3356 28.414 93.7656 31.397C91.5056 33.303 89.2754 35.25 87.0854 37.237C87.9854 35.323 88.4155 34.682 88.4255 32.493L84.2656 29.5529Z" fill="#5339B2"/>
<path d="M207.436 333.103L209.516 332.935L210.216 335.879C214.206 337.508 217.906 335.171 221.286 336.722L222.806 337.32L225.826 339.458L226.456 341.593L224.796 343.673L225.846 345.562L228.286 345.957L231.606 348.78C228.946 349.551 226.436 350.223 223.666 350.447L219.776 349.371L216.536 350.46C206.126 345.231 193.506 352.173 182.926 353.917C178.996 354.563 174.596 354.178 170.626 354.057C168.186 353.983 165.046 354.247 162.906 353.054C164.176 352.39 165.016 352.263 166.436 352.222C167.766 352.304 168.636 352.036 169.876 351.578C169.926 349.628 170.156 348.347 170.966 346.571C171.036 346.41 171.116 346.251 171.186 346.091C172.216 346.541 173.256 346.717 174.356 346.882C185.186 348.501 195.086 343.531 203.436 337.267L206.516 336.142L207.436 333.103Z" fill="#7E50CD"/>
<path d="M221.287 336.722L222.807 337.32L225.827 339.458L226.457 341.593L224.797 343.673C222.327 343.933 219.277 344.669 217.137 343.168C217.307 340.589 219.637 338.563 221.287 336.722Z" fill="#8859D5"/>
<path d="M228.287 345.957L231.607 348.78C228.947 349.551 226.437 350.223 223.667 350.447L219.777 349.371L228.287 345.957Z" fill="#A586E6"/>
<path d="M81.036 90.8419C82.496 89.5749 83.4061 87.2799 84.3061 85.4709C95.8861 102.231 94.8359 95.8799 103.676 104.728L102.836 107.231C102.646 109.056 99.7459 114.7 98.1059 114.975C74.1659 119 75.106 105.689 81.036 90.8419Z" fill="#DEC8EE"/>
<path d="M122.887 339.948C130.157 339.847 141.697 344.519 143.547 344.147C142.847 342.156 142.397 340.486 142.257 338.364C144.697 336.351 149.577 336.156 152.647 336.433C157.157 336.839 162.557 338.792 166.937 338.46C171.377 338.123 175.507 329.959 180.027 335.698C180.387 336.154 180.677 336.68 180.967 337.185C180.797 338.038 180.797 339.465 180.067 339.939C176.677 342.123 169.637 339.493 168.397 342.316C169.297 343.611 170.177 344.879 171.187 346.091C171.117 346.251 171.037 346.41 170.967 346.571C170.157 348.347 169.927 349.628 169.877 351.578C168.637 352.036 167.767 352.304 166.437 352.222C165.977 351.391 165.137 350.854 164.407 350.272C157.907 350.911 151.417 351.64 144.937 352.457C141.847 351.16 142.657 348.889 140.747 346.372C138.127 342.91 131.207 342.088 127.107 341.491L122.887 339.948Z" fill="#583CB5"/>
<path d="M144.896 348.117C145.676 347.664 146.086 347.884 146.946 347.992L146.996 349.938C146.106 350.475 145.786 350.334 144.766 350.259L144.896 348.117Z" fill="#5339B2"/>
<path d="M329.156 251.562C327.036 248.574 327.246 244.634 327.586 241.134C328.436 232.49 329.836 226.849 336.756 221.173L338.797 221.801L338.406 221.113L339.047 223.561L340.096 224.08L340.756 217.761L341.716 217.154L342.986 219.04C342.456 224.357 341.696 229.181 340.076 234.283L340.856 238.028L341.066 238.391C341.746 239.542 342.436 240.449 343.376 241.396C343.726 243.414 343.927 245.531 345.037 247.297L346.486 248.231C345.846 250.921 344.676 255.568 342.476 257.217C340.456 255.516 340.587 253.969 340.037 251.434L338.606 251.726C337.876 253.364 335.096 261.571 333.836 262.352C333.236 262.723 332.766 262.389 332.186 262.206L330.956 258.353L329.866 253.605L329.156 251.562Z" fill="#6342A4"/>
<path d="M334.758 236.037C335.598 234.388 335.798 234.176 337.388 233.232L340.078 234.283L340.858 238.028L341.068 238.391C341.748 239.542 342.438 240.449 343.378 241.396C343.728 243.414 343.928 245.531 345.038 247.297L346.488 248.231C345.848 250.921 344.678 255.568 342.478 257.217C340.458 255.516 340.588 253.969 340.038 251.434L338.608 251.726C336.548 246.516 335.868 242.667 336.238 237.104L334.758 236.037Z" fill="#40508E"/>
<path d="M334.756 236.037L336.236 237.104C335.866 242.667 336.546 246.516 338.606 251.726C337.876 253.364 335.096 261.571 333.836 262.352C333.236 262.723 332.766 262.389 332.186 262.206L330.956 258.353L329.866 253.605L329.156 251.562C329.956 250.909 330.786 250.231 331.466 249.451C334.126 246.412 333.746 243.807 333.536 240.086C333.186 239.785 332.926 239.476 332.626 239.124L334.756 236.037Z" fill="#5B4EBB"/>
<path d="M259.547 335.974L260.637 338.301C266.027 337.684 275.047 332.366 279.307 333.383L279.987 334.873L277.547 339.895C271.297 343.535 262.007 351.618 254.887 352.231C252.847 350.959 252.337 350.87 249.977 351.442C247.007 352.163 244.287 354.837 241.587 355.418C239.267 355.916 228.537 354.37 224.687 354.489C222.217 354.56 220.237 354.461 217.867 353.752C218.717 351.903 221.757 351.228 223.667 350.447C226.437 350.223 228.947 349.551 231.607 348.78C231.857 348.317 231.797 348.37 232.217 347.899C233.597 346.339 235.477 346.269 237.397 346.07C240.737 345.314 243.787 346.212 247.217 345.765C251.117 345.257 254.257 344.346 256.727 341.114L255.857 338.199L259.547 335.974Z" fill="#5339B2"/>
<path d="M130.719 307.892C140.639 311.604 136.399 316.093 143.209 317.622C144.249 316.38 145.289 315.256 146.499 314.176L148.699 314.863C148.829 314.917 148.959 314.976 149.089 315.025C153.449 316.655 162.859 313.93 164.889 318.138C165.929 320.303 165.529 320.62 167.849 321.54L170.389 319.116C171.509 320.503 171.609 320.852 171.869 322.623C170.019 324.622 168.589 325.557 165.779 325.718C162.909 325.881 161.059 325.402 158.779 323.701C157.819 322.98 156.729 322.394 155.699 321.763C151.449 325.457 151.569 329.822 145.829 331.767L142.719 330.842L142.229 329.762C137.829 328.346 133.289 329.893 129.289 328.411L129.199 326.797L131.299 325.548C130.339 325.215 129.709 324.298 129.749 323.286C129.779 322.274 130.469 321.401 131.449 321.134C132.069 320.25 133.139 319.435 133.939 318.689L132.149 317.28C131.139 315.706 133.779 314.182 134.309 311.67L130.719 307.892Z" fill="#5339B2"/>
<path d="M131.448 321.134C132.408 320.871 133.428 321.251 133.978 322.077C134.538 322.903 134.498 323.991 133.888 324.778C133.278 325.566 132.238 325.876 131.298 325.548C130.338 325.215 129.708 324.298 129.748 323.286C129.778 322.274 130.468 321.401 131.448 321.134Z" fill="#CDAECE"/>
<path d="M147.177 55.2898C154.297 52.4038 156.657 45.2868 166.077 50.3868C171.857 53.5968 175.447 55.6078 181.507 50.9508C181.667 52.6798 181.907 53.3708 181.237 54.9048C171.617 57.0598 170.977 58.1158 163.927 65.2308L162.827 64.0838C159.557 63.2708 159.137 63.3478 155.897 64.3368L154.147 66.9598C151.137 68.4758 148.537 70.0278 145.167 70.4038C142.317 69.6288 141.737 69.9108 138.877 70.7348C137.807 66.5938 141.177 65.2528 141.357 59.8788L143.317 59.1288L144.927 54.6288L147.177 55.2898Z" fill="#6342A4"/>
<path d="M144.927 54.6289L147.177 55.2899L148.137 57.0319C150.037 56.8299 150.307 56.6339 151.957 55.6669L153.147 57.1049C152.317 58.7829 151.917 59.1259 150.617 60.4819C150.987 61.2949 151.417 62.4259 151.967 63.0639L155.897 64.3369L154.147 66.9599C151.137 68.4759 148.537 70.0279 145.167 70.4039C142.317 69.6289 141.737 69.9109 138.877 70.7349C137.807 66.5939 141.177 65.2529 141.357 59.8789L143.317 59.1289L144.927 54.6289Z" fill="#A586E6"/>
<path d="M144.929 54.6289L147.179 55.2899L148.139 57.0319C150.039 56.8299 150.309 56.6339 151.959 55.6669L153.149 57.1049C152.319 58.7829 151.919 59.1259 150.619 60.4819C150.989 61.2949 151.419 62.4259 151.969 63.0639C148.559 65.5799 147.829 65.8429 144.129 65.5519C142.269 62.7429 142.899 63.2989 143.319 59.1289L144.929 54.6289Z" fill="#9B96DD"/>
<path d="M130.608 228.134C132.968 225.577 135.148 221.9 138.588 221.446C141.628 223.447 144.318 225.935 147.388 227.843L149.098 229.563C148.468 233.355 145.578 234.261 144.958 237.419C140.988 241.57 136.279 246.048 131.469 249.158C129.509 249.504 123.138 245.81 120.638 244.805L118.309 241.518C119.279 238.121 122.509 238.314 124.009 233.67C125.049 234.155 126.268 234.117 127.398 234.198L129.628 232.222C129.638 230.664 130.008 229.563 130.608 228.134Z" fill="#3F3296"/>
<path d="M129.628 232.222C132.558 231.6 136.059 232.732 138.499 234.415C139.189 234.888 139.769 235.476 140.309 236.105C140.209 238.673 140.028 238.835 138.148 240.577C133.858 244.553 132.019 242.484 131.469 249.158C129.509 249.504 123.138 245.81 120.638 244.805L118.309 241.518C119.279 238.121 122.509 238.314 124.009 233.67C125.049 234.155 126.268 234.117 127.398 234.198L129.628 232.222Z" fill="#322C86"/>
<path d="M313.427 109.943C314.437 111.123 316.017 112.85 316.747 114.135C320.447 108.888 317.687 103.976 326.017 98.393L328.187 98.366C331.587 103.632 328.907 103.728 327.887 107.314C327.427 108.924 331.927 116.987 331.877 119.363C334.047 127.827 332.807 133.774 333.637 141.916L332.437 142.506C330.707 141.381 328.057 138.266 328.117 136.092C327.567 134.127 325.407 130.542 324.327 128.59C323.527 124.329 323.397 122.185 320.627 118.736C314.077 120.43 316.327 118.829 311.307 118.152L309.627 119.525L308.387 118.066C308.587 114.697 308.447 111.096 310.177 108.266L311.987 110.153L313.427 109.943Z" fill="#3E2F86"/>
<path d="M326.618 125.347L325.988 121.423L327.458 121.045C330.088 122.614 329.888 122.004 331.258 124.407C331.258 131.166 331.118 135.787 332.438 142.506C330.708 141.381 328.058 138.266 328.118 136.092C327.568 134.127 325.408 130.542 324.328 128.59L326.618 125.347Z" fill="#312375"/>
<path d="M326.618 125.347C328.158 127.83 328.908 128.999 329.988 131.715C329.448 133.01 328.738 134.896 328.118 136.092C327.568 134.127 325.408 130.542 324.328 128.59L326.618 125.347Z" fill="#3E2F86"/>
<path d="M310.177 108.266L311.987 110.153C313.537 113.874 316.547 117.804 320.627 118.736C314.077 120.43 316.327 118.829 311.307 118.152L309.627 119.525L308.387 118.066C308.587 114.697 308.447 111.096 310.177 108.266Z" fill="#262B61"/>
<path d="M295.098 67.0158C296.608 66.4038 297.308 65.9558 298.368 64.6958C306.318 72.0238 319.168 82.6738 322.698 93.2308L322.318 95.1058C318.778 95.8488 318.048 91.2988 309.698 97.7738L308.838 97.4828L308.318 99.2308C303.408 96.2288 306.408 85.5828 296.088 80.3608C300.108 72.0898 297.448 74.7828 295.098 67.0158Z" fill="#3E2F86"/>
<path d="M75.4084 64.1099C86.5784 67.1169 79.0785 70.1749 88.7185 75.7749L87.7185 78.6819L88.3684 81.2049L84.3086 85.4709C83.4086 87.2799 82.4986 89.5749 81.0386 90.8419C78.1986 89.6719 77.0384 88.1889 74.8784 85.9829C72.4184 85.3539 73.4085 85.2549 71.1685 86.2959C63.9385 86.3699 63.6784 85.1579 58.8784 90.0319C58.5484 90.3659 58.2184 90.7019 57.8984 91.0409C58.9984 87.9629 62.1185 82.7209 63.7585 79.2809L72.8684 68.1879L75.4084 64.1099Z" fill="#8859D5"/>
<path d="M75.4072 64.1099C86.5772 67.1169 79.0773 70.1749 88.7173 75.7749L87.7173 78.6819C77.1473 80.7599 82.3372 73.2079 72.8672 68.1879L75.4072 64.1099Z" fill="#9360D5"/>
<path d="M224.426 98.5988L225.996 97.1148C234.826 100.719 239.786 92.2018 248.216 97.4698C250.636 105.905 244.306 103.612 244.776 115.353L243.786 116.001C238.496 115.992 234.676 115.901 229.686 113.654L229.046 113.362L226.616 115.219C227.196 107.697 223.036 111.331 221.176 104.761C221.606 101.58 222.246 101.04 224.426 98.5988Z" fill="#322C86"/>
<path d="M179.146 117.525C179.536 116.552 180.256 115.449 180.816 114.523C188.656 111.272 200.666 99.6219 207.746 100.689C209.516 104.003 199.206 109.53 198.866 114.19L197.006 114.079L197.296 111.447L195.636 111.751C192.796 118.265 197.446 117.064 191.826 119.442C192.996 119.689 194.086 120.014 195.266 119.914C190.246 123.207 188.146 120.277 186.166 127.503L187.276 130.228C184.616 130.68 183.916 130.717 181.506 132.018C181.616 131.636 181.726 129.629 181.766 129.096L180.276 128.889C176.556 130.333 172.936 131.466 169.896 134.051C168.286 131.953 168.336 131.498 168.246 128.906C171.956 126.197 174.126 125.034 175.646 120.629L179.146 117.525Z" fill="#322C86"/>
<path d="M142.418 361.068C146.068 361.222 148.178 361.365 150.998 358.867C149.708 358.234 149.068 357.575 148.218 356.426C154.718 356.036 177.228 358.351 185.418 358.955C188.148 359.684 192.148 360.272 194.368 362.033L193.708 362.157C198.758 364.179 202.028 363.015 206.868 364.032C186.888 367.991 161.698 368.219 142.418 361.068Z" fill="#5339B2"/>
<path d="M185.488 80.3668C194.268 79.5368 197.718 77.8798 204.328 83.0078C195.148 88.3758 197.038 98.7568 182.768 96.1178C179.028 95.4258 168.398 96.5928 165.058 98.8128L164.258 97.6478C165.668 95.3688 167.928 94.4648 170.318 93.1798C177.158 92.4578 180.438 89.8658 183.458 83.9918L182.838 83.7938L182.598 83.0468L185.488 80.3668Z" fill="#583CB5"/>
<path d="M146.496 314.176C143.436 309.333 140.596 310.367 135.936 308.535L138.746 308.084L139.276 306.919C138.276 304.948 137.006 303.282 135.676 301.536C135.706 300.157 135.746 299.12 136.476 297.939C137.386 296.476 137.616 296.563 139.216 296.164C142.976 296.935 146.446 300.3 149.466 302.59C152.306 302.812 152.666 302.486 154.926 300.747C157.216 300.432 158.926 302.476 161.486 303.162L161.106 304.746C163.706 307.729 165.316 309.965 169.266 310.963L168.606 313.792C166.856 314.068 166.006 313.739 164.456 312.901C160.476 312.16 158.316 315.342 154.956 314.757C152.116 314.261 149.906 310.303 147.016 310.757C147.476 312.214 147.906 313.542 148.696 314.863L146.496 314.176Z" fill="#583CB5"/>
<path d="M164.457 312.901L163.857 311.033C161.777 310.475 160.017 309.584 158.117 308.595C158.477 306.27 159.297 306.101 161.107 304.746C163.707 307.729 165.317 309.965 169.267 310.963L168.607 313.792C166.857 314.068 166.007 313.739 164.457 312.901Z" fill="#5339B2"/>
<path d="M219.778 349.371L223.668 350.447C221.758 351.228 218.718 351.903 217.868 353.752C220.238 354.461 222.218 354.56 224.688 354.489C221.418 359.486 219.418 361.194 213.448 362.437C211.358 362.873 208.818 363.166 206.868 364.032C202.028 363.015 198.758 364.179 193.708 362.157L194.368 362.033C192.148 360.272 188.148 359.684 185.418 358.955C188.198 358.277 190.578 356.422 193.358 355.661C201.338 353.481 208.968 354.854 216.538 350.46L219.778 349.371Z" fill="#6342A4"/>
<path d="M179.259 66.833L180.389 67.018C180.999 77.874 183.739 73.24 185.489 80.367L182.599 83.047L182.839 83.794L183.459 83.992C180.439 89.866 177.159 92.458 170.319 93.18C173.039 87.027 166.369 82.831 167.639 75.81C173.309 78.72 172.209 72.243 175.349 70.028C176.659 69.104 177.999 67.862 179.259 66.833Z" fill="#6342A4"/>
<path d="M296.117 273.287L299.087 270.892C302.057 271.551 304.067 273.484 306.897 274.203C307.597 274.382 308.067 274.871 308.587 275.341V276.045C303.437 282.493 302.627 290.861 295.947 296.382C295.857 296.296 295.757 296.212 295.667 296.122C291.287 291.898 290.757 282.786 290.637 276.794C291.577 275.622 292.507 274.435 293.407 273.231L294.317 275.602L296.117 273.287Z" fill="#5339B2"/>
<path d="M296.117 273.287L299.087 270.892C302.057 271.551 304.067 273.484 306.897 274.203C307.597 274.382 308.067 274.871 308.587 275.341V276.045C306.087 276.391 303.868 275.546 301.268 276.16C299.478 276.579 297.548 276.53 296.248 277.854L295.438 276.762L296.117 273.287Z" fill="#322C86"/>
<path d="M225.827 339.458C227.997 337.564 230.087 335.681 232.027 333.547L233.397 334.287C238.577 332.267 251.797 325.544 256.937 327.13L257.347 329.042C253.497 334.686 236.867 338.167 236.827 345.207L237.397 346.07C235.477 346.269 233.597 346.339 232.217 347.899C231.797 348.37 231.857 348.317 231.607 348.78L228.287 345.957L225.847 345.562L224.797 343.673L226.457 341.593L225.827 339.458Z" fill="#8859D5"/>
<path d="M226.457 341.593L231.137 342.25L231.577 343.415L228.287 345.957L225.847 345.562L224.797 343.673L226.457 341.593Z" fill="#7E50CD"/>
<path d="M163.929 65.2308C170.979 58.1158 171.619 57.0598 181.239 54.9048C183.169 56.6428 185.759 58.5348 186.399 60.9528C184.359 61.3838 183.249 61.4008 181.179 61.0798C178.919 62.6428 178.439 63.9398 179.259 66.8328C177.999 67.8618 176.659 69.1038 175.349 70.0278C172.209 72.2428 173.309 78.7198 167.639 75.8098C166.089 75.5668 163.129 74.6108 161.489 74.1258C161.259 69.7898 161.399 69.5068 163.369 66.2898L163.929 65.2308Z" fill="#583CB5"/>
<path d="M163.369 66.2898L168.819 72.0328L168.699 73.4308C165.939 74.5988 164.509 74.3128 161.489 74.1258C161.259 69.7898 161.399 69.5068 163.369 66.2898Z" fill="#5339B2"/>
<path d="M222.028 310.231C221.478 308.431 221.458 307.229 221.768 305.376C223.818 305.806 224.988 305.98 226.998 305.079C228.168 303.176 228.527 302.552 228.617 300.241L226.147 298.287C226.697 296.566 227.447 295.942 228.907 294.923L231.417 296.468C231.587 293.976 231.358 292.234 232.768 290.141L235.048 290.484L236.278 292.685L237.927 292.815C240.607 295.42 240.037 298.76 242.597 301.058L245.028 299.199C245.128 301.075 244.438 301.388 243.208 302.759C240.678 305.587 237.008 307.143 235.288 310.613C230.428 314.073 226.908 309.577 222.028 310.231Z" fill="#5B4EBB"/>
<path d="M146.669 18.8408L147.839 19.9618C143.409 24.3978 132.439 25.6668 129.609 31.8578C127.599 30.7608 125.809 29.2088 123.789 30.1268C119.369 32.1458 109.429 37.7888 106.279 40.9048L103.259 41.6678C102.349 40.4358 101.439 39.1978 100.539 37.9548C102.989 27.0888 126.809 27.8638 134.529 22.1918C137.869 19.7318 142.539 19.0088 146.669 18.8408Z" fill="#CD9ADC"/>
<path d="M155.898 64.337C159.138 63.348 159.558 63.271 162.828 64.084L163.928 65.231L163.368 66.29C161.398 69.507 161.259 69.79 161.489 74.126C163.129 74.611 166.088 75.567 167.638 75.81C166.368 82.831 173.038 87.027 170.318 93.18L169.078 91.568L165.299 94.294L163.608 93.993L161.489 89.879L159.608 89.44L157.198 91.104C158.018 86.516 159.208 84.397 155.318 81.62C156.528 78.576 159.968 77.544 159.368 71.121C157.938 68.458 156.958 68.217 154.148 66.96L155.898 64.337Z" fill="#5B4EBB"/>
<path d="M234.618 272.867L239.378 271.268C240.828 272.528 242.058 273.795 243.298 275.266C245.748 274.77 245.528 273.278 247.528 272.31L248.998 273.701L248.918 275.038C249.198 277.992 248.898 280.478 250.858 282.794L252.458 282.993L250.598 284.903L249.478 285.484C246.858 284.324 246.428 283.588 244.798 281.223C243.848 282.478 242.778 283.729 241.968 285.083C240.078 286.359 238.188 287.654 236.228 288.846C235.008 287.548 234.138 286.937 232.408 286.427C232.258 286.382 232.098 286.341 231.938 286.298C231.088 284.987 230.088 283.591 229.468 282.156C228.318 279.465 230.268 276.674 231.358 274.212C232.458 274.001 233.248 273.618 234.238 273.077L234.618 272.867Z" fill="#583CB5"/>
<path d="M290.639 276.794C290.759 282.786 291.289 291.898 295.669 296.122C295.759 296.212 295.859 296.296 295.949 296.382L295.669 296.558C292.679 298.411 290.539 302.561 287.729 303.475C287.359 302.446 286.989 301.418 286.579 300.407C283.819 300.352 280.779 300.245 278.509 302.06L274.039 298.671C279.969 292.294 288.139 285.289 290.639 276.794Z" fill="#3F3296"/>
<path d="M274.037 298.671L278.507 302.06C281.447 302.451 283.236 302.196 285.406 304.372C285.276 307.736 283.337 309.986 280.957 312.191C277.287 315.594 272.726 318.97 267.836 320.261C265.786 319.648 265.396 319.611 264.066 317.975L264.517 316.238C265.637 315.376 272.256 304.274 272.136 302.871C272.006 301.473 271.546 301.537 271.896 299.745L274.037 298.671Z" fill="#5339B2"/>
<path d="M27.4377 111.424L24.7378 110.479C25.5378 105.67 30.5278 95.6679 35.2778 93.8369L36.4277 94.7619C36.4377 99.6019 38.1479 106.867 38.0579 109.203C34.8179 111.897 31.3279 114.031 31.3079 118.575C31.2879 120.328 30.4479 125.747 28.2979 125.739L27.8777 123.32C26.7677 123.198 25.6278 123.052 24.5078 122.999C25.8478 120.024 28.4377 114.454 27.4377 111.424Z" fill="#3E2F86"/>
<path d="M174.276 20.7188L172.206 23.5118C167.196 23.4128 160.316 22.5528 157.246 18.3778L158.336 16.6868C168.296 12.3538 184.916 12.7548 195.776 15.3748C190.816 16.4178 186.916 17.4558 182.046 18.8798L181.986 19.3178C181.776 20.9658 181.716 21.3588 181.096 22.8838L179.956 22.8348L178.396 19.1488C175.806 18.9358 176.726 18.8168 174.276 20.7188Z" fill="#322C86"/>
<path d="M355.589 193.632C356.629 202.03 351.55 243.95 346.49 248.231L345.04 247.297C343.93 245.531 343.729 243.414 343.379 241.396C342.439 240.449 341.749 239.542 341.069 238.391L340.859 238.028C341.879 238.27 342.269 238.089 343.349 237.936C349.989 229.901 352.909 197.383 355.589 193.632Z" fill="#5D3781"/>
<path d="M149.096 229.563L150.576 231.565L150.716 232.056C152.816 239.286 156.386 241.889 152.286 249.642C152.216 249.775 152.136 249.904 152.066 250.036L150.126 252.421L144.976 256.892C143.306 255.525 141.066 255.261 139.016 254.822C136.336 250.321 147.276 243.644 147.616 237.904L144.956 237.419C145.576 234.261 148.466 233.355 149.096 229.563Z" fill="#5339B2"/>
<path d="M19.7073 240.941C16.2073 236.238 10.2271 224.849 11.0971 218.988C11.3371 217.384 11.6472 217.111 12.8972 216.239L14.6172 218.838L15.2773 217.905C16.6073 218.216 17.2573 217.719 18.5073 217.22L19.7373 217.15L23.0671 227.145C22.9971 230.88 23.4272 235.477 21.8572 238.915L19.7073 240.941Z" fill="#3F3296"/>
<path d="M179.257 66.8329C178.437 63.9399 178.917 62.6429 181.177 61.0799C183.247 61.4009 184.357 61.3839 186.397 60.9529C187.267 63.9929 188.107 67.0409 188.917 70.0969C190.547 74.4349 189.957 75.0899 193.357 77.2689C196.387 77.2459 198.357 77.0519 201.217 78.0359C202.387 79.5819 203.867 81.1919 204.327 83.0079C197.717 77.8799 194.267 79.5369 185.487 80.3669C183.737 73.2399 180.997 77.8739 180.387 67.0179L179.257 66.8329Z" fill="#3F3296"/>
<path d="M329.866 253.605L330.956 258.353C330.126 262.248 327.886 266.966 325.446 270.137C324.276 271.666 323.896 272.206 321.986 272.476C321.376 271.573 320.926 270.783 320.536 269.762L320.426 269.463C317.506 270.692 315.776 273.674 314.156 276.272L313.906 276.67C314.036 269.215 316.976 264.975 321.376 258.933L324.216 258.508C325.936 256.365 327.516 255.038 329.866 253.605Z" fill="#40508E"/>
<path d="M153.318 151.246C151.908 146.385 150.458 142.884 152.548 138.369C157.438 134.518 156.978 136.463 160.928 134.21L161.768 137.017C159.948 137.263 158.118 137.468 156.298 137.632C158.028 143.81 165.608 149.84 163.538 155.727C161.098 156.626 161.228 156.137 158.198 155.382C155.988 153.302 156.468 155.787 153.318 151.246Z" fill="#7E50CD"/>
<path d="M85.5391 50.7009C90.3691 49.4869 91.9489 47.8389 95.8489 48.8379L97.2991 50.255C92.1091 53.108 90.629 55.173 86.749 59.669L82.3489 62.2699C80.2789 62.0579 78.1989 61.8339 76.1289 61.5979L74.6289 59.6959C78.4989 55.5599 80.8891 53.9829 85.5391 50.7009Z" fill="#EEE6E6"/>
<path d="M156.968 160.754C163.898 165.066 170.677 164.305 173.387 167.79L172.438 168.974C168.198 170.836 161.538 172.444 157.018 171.07C154.828 168.11 155.478 169.037 155.988 164.431L153.938 162.294L156.968 160.754Z" fill="#B16CC3"/>
<path d="M151.659 8.05997C155.839 4.69497 168.479 4.39396 172.599 6.59296C167.379 11.196 150.239 11.522 142.609 15.606L142.109 14.109C144.149 11.433 148.529 9.64597 151.659 8.05997Z" fill="#C5A1E0"/>
<path d="M107.667 339.053C105.227 338.61 104.557 337.691 101.947 338.24C102.307 339.159 102.627 339.955 102.537 340.96C102.517 341.189 102.487 341.418 102.467 341.647L102.947 341.636C102.377 341.486 101.807 341.309 101.257 341.103C98.6166 340.141 89.8566 335.401 88.7566 333.118L91.0466 332.209C91.0266 329.729 84.8564 328.376 82.5664 325.484C87.1964 324.391 98.4164 332.962 102.856 335.41C104.546 336.443 106.557 337.375 107.667 339.053Z" fill="#6342A4"/>
<path d="M233.526 265.143C234.256 261.968 233.566 259.9 232.496 256.884C234.896 254.657 238.736 251.187 241.706 249.931L243.636 251.314C243.376 253.579 243.136 255.824 242.636 258.051L242.536 258.492L245.466 259.065C243.676 260.907 241.276 262.923 240.296 265.311L237.776 263.7L233.526 265.143Z" fill="#7E50CD"/>
<path d="M112.176 339.87C114.286 339.354 116.516 339.083 118.666 338.716L122.886 339.948L127.106 341.491L128.836 343.648C128.506 345.85 128.606 346.429 126.896 347.994C125.136 348.387 123.636 348.513 121.866 348.063C116.776 346.774 114.656 344.2 112.176 339.87Z" fill="#8859D5"/>
<path d="M60.2284 123.175L61.8983 124.698C61.8583 128.294 56.7883 140.238 54.1983 143.325L52.9784 143.491C50.2584 139.732 51.6484 136.147 52.9884 132.2C53.4684 131.932 59.1684 124.465 60.2284 123.175Z" fill="#DEC8EE"/>
<path d="M62.2077 165.759C62.0577 162.259 63.0077 155.374 62.4377 153.875C65.4777 154.657 68.0676 156.631 69.6376 159.35C70.5976 161.017 70.6876 161.987 70.6176 163.902C69.0276 166.734 68.6177 167.315 66.4077 169.695L65.6777 169.89L65.5478 169.778L62.2077 165.759Z" fill="#5B4EBB"/>
<path d="M222.027 310.231C226.907 309.577 230.427 314.073 235.287 310.613C236.987 311.48 238.647 312.417 240.307 313.355C238.327 314.713 236.117 315.62 233.857 316.41C230.557 317.569 226.947 318.286 223.667 316.726C222.077 314.905 222.197 312.526 222.027 310.231Z" fill="#7E50CD"/>
<path d="M160.926 134.21C162.736 131.177 162.176 129.922 164.956 126.6L166.976 127.062L166.666 126.684L167.426 126.602L168.246 128.906C168.336 131.498 168.286 131.953 169.896 134.051C169.556 136.181 169.236 136.552 168.066 138.385L168.646 142.99L167.636 143.192C165.216 140.807 164.876 140.407 163.316 137.399L161.766 137.017L160.926 134.21Z" fill="#5339B2"/>
<path d="M63.7594 79.2808C61.3794 74.6528 71.0392 61.5738 74.6292 59.6958L76.1292 61.5978C78.1992 61.8338 80.2792 62.0578 82.3492 62.2698L81.4393 63.6378C79.3893 63.5398 77.0193 63.1168 75.4093 64.1098L72.8692 68.1878L63.7594 79.2808Z" fill="#EADBEA"/>
<path d="M241.967 285.083C242.777 283.729 243.847 282.478 244.797 281.223C246.427 283.588 246.857 284.324 249.477 285.484C248.757 288.042 246.307 291.195 243.967 292.437C243.377 292.755 242.736 292.974 242.086 293.164L240.277 291.275L237.927 292.815L236.277 292.685L236.227 288.846C238.187 287.654 240.077 286.359 241.967 285.083Z" fill="#3F3296"/>
<path d="M241.967 285.083C242.787 287.337 243.267 287.766 242.237 290.053L240.277 291.275L237.927 292.815L236.277 292.685L236.227 288.846C238.187 287.654 240.077 286.359 241.967 285.083Z" fill="#5339B2"/>
<path d="M209.516 332.935L213.026 333.75C212.856 331.045 213.896 330.313 215.416 328.132L217.036 327.774C218.106 329.434 218.926 331.027 219.686 332.846C221.666 332.66 222.305 331.985 223.865 330.825C224.775 332.134 224.806 332.451 224.546 334.005C224.336 335.266 223.536 336.303 222.806 337.32L221.286 336.722C217.906 335.171 214.206 337.508 210.216 335.879L209.516 332.935Z" fill="#6D51BF"/>
<path d="M255.857 338.199C253.517 339.017 250.897 339.477 248.477 340.083L248.027 339.355C248.947 338.44 249.907 337.572 250.967 336.811C254.357 334.361 263.987 327.916 268.267 328.585C266.457 332.248 262.937 333.95 259.547 335.974L255.857 338.199Z" fill="#EADBEA"/>
<path d="M154.207 208.132L155.747 206.744L155.557 206.344C156.547 206.182 157.077 205.918 158.007 206.35C161.927 208.165 167.877 205.817 172.347 207.654L172.097 209.746C168.257 212.205 163.457 209.953 159.817 212.009C157.887 210.792 156.047 209.478 154.207 208.132Z" fill="#B16CC3"/>
<path d="M203.438 337.267C200.648 337.24 197.118 340.702 194.868 342.322C192.428 342.114 192.428 342.205 190.848 340.35L191.408 338.705C197.018 337.487 201.258 332.554 207.438 333.103L206.518 336.142L203.438 337.267Z" fill="#CD88D7"/>
<path d="M161.49 303.162L163.979 301.917C166.749 303.237 170.839 304.686 171.849 307.865C172.079 308.572 172.099 309.317 172.079 310.051L169.27 310.963C165.32 309.965 163.709 307.729 161.109 304.746L161.49 303.162Z" fill="#583CB5"/>
<path d="M153.318 151.246C156.468 155.787 155.988 153.302 158.198 155.382L156.968 160.754L153.938 162.294C152.008 161.144 151.148 159.887 149.758 158.172L149.988 155.939C151.498 154.339 152.328 153.221 153.318 151.246Z" fill="#8859D5"/>
<path d="M340.359 168.334C344.099 168.604 343.249 167.971 345.479 170.203C346.239 174.639 344.279 181.078 340.619 183.873L340.359 168.334Z" fill="#AB6E99"/>
<path d="M103.399 42.9028L104.419 45.0538C103.249 47.9458 100.419 50.0659 97.2991 50.2549L95.8489 48.8378C91.9489 47.8388 90.3691 49.4868 85.5391 50.7008C88.1691 44.7008 96.4689 51.0428 103.399 42.9028Z" fill="#A586E6"/>
<path d="M159.477 267.326L161.537 268.766C160.627 270.962 159.416 272.638 157.066 273.531C156.226 273.851 155.307 274.018 154.417 274.176L152.427 273.078L152.066 270.817C154.666 270.032 157.087 268.589 159.477 267.326Z" fill="#EADBEA"/>
<path d="M308.316 99.2309L308.836 97.4829L309.697 97.7739C312.867 102.262 315.047 104.282 313.427 109.943L311.987 110.153L310.177 108.266C311.167 102.868 310.227 105.201 308.467 99.6899L308.316 99.2309Z" fill="#C2A3EC"/>
<path d="M233.527 265.143L237.777 263.7L240.297 265.311L233.896 270.215C232.956 270.379 231.826 270.28 230.866 270.285L230.566 269.187L233.527 265.143Z" fill="#CD88D7"/>
<path d="M38.0589 109.203L40.5489 107.512C41.9189 108.856 41.4389 109.421 41.4989 111.907L40.2389 114.975C37.6989 116.409 38.5688 116.417 36.1288 115.934C35.5088 113.523 36.9089 111.523 38.0589 109.203Z" fill="#DEC8EE"/>
<path d="M155.319 81.6199C159.209 84.3969 158.019 86.5159 157.199 91.1039C155.649 90.9469 155.519 90.6599 154.299 89.5659C153.349 87.0299 154.529 84.2759 155.319 81.6199Z" fill="#5339B2"/>
<path d="M258.559 316.939L262.618 313.425L264.029 313.787L264.519 316.238L260.848 319.278C259.398 318.523 259.299 318.399 258.559 316.939Z" fill="#DEC8EE"/>
<path d="M142.719 330.842L145.829 331.767L147.699 333.954L147.079 335.26C145.039 335.21 144.829 335.035 143.159 333.823L142.719 330.842Z" fill="#DEC8EE"/>
<path d="M175.648 120.629C174.918 118.971 175.048 118.585 175.068 116.727L176.779 116.15L179.148 117.525L175.648 120.629Z" fill="#C2A3EC"/>
<path d="M252.438 173.528L251.907 175.231L250.058 175.735L249.688 174.487L251.597 172.847L252.438 173.528Z" fill="#C2A3EC"/>
<path d="M103.999 152.315L106.419 149.069C105.909 143.824 107.789 135.378 109.469 130.33C111.019 130.858 110.709 131.084 111.839 132.91C110.229 136.57 110.399 138.03 110.449 141.968C111.609 145.43 112.449 147.282 114.069 150.561C112.239 152.253 111.699 152.702 110.299 154.823C111.769 158.531 113.259 158.452 117.029 158.94C117.729 160.196 118.489 161.647 119.219 162.858C121.519 167.158 121.029 169.305 123.109 173.722C125.379 178.547 127.229 184.132 129.089 189.166L127.239 190.256C120.979 188.482 118.319 185.332 111.459 184.442L110.069 183.161C108.289 181.28 106.619 179.932 104.639 178.282C100.029 173.467 101.829 168.317 103.039 162.59L100.989 161.482C99.689 160.071 98.7191 158.875 97.5391 157.391C99.7591 155.776 101.869 154.037 103.999 152.315Z" fill="#9360D5"/>
<path d="M119.217 162.858C121.517 167.158 121.026 169.305 123.106 173.722C125.376 178.547 127.226 184.132 129.086 189.166L127.237 190.256C120.977 188.482 118.317 185.332 111.457 184.442L110.066 183.161L112.957 181.464L110.326 177.991L114.537 176.016L115.906 176.357C119.826 172.405 119.287 168.044 119.217 162.858Z" fill="#9F68CA"/>
<path d="M110.328 177.991L114.538 176.016C114.448 179.763 114.998 178.739 112.958 181.464L110.328 177.991Z" fill="#C5A1E0"/>
<path d="M103.999 152.315L106.419 149.069C105.909 143.824 107.789 135.378 109.469 130.33C111.019 130.858 110.709 131.084 111.839 132.91C110.229 136.57 110.399 138.03 110.449 141.968C110.909 153.506 106.929 155.69 106.289 167.542L105.569 167.743C102.889 164.715 106.089 166.606 103.039 162.59L100.989 161.482C99.689 160.071 98.7191 158.875 97.5391 157.391C99.7591 155.776 101.869 154.037 103.999 152.315Z" fill="#8859D5"/>
<path d="M104.639 178.282C104.439 175.237 103.779 173.078 105.049 170.683C107.389 172.089 108.929 175.511 110.329 177.991L112.959 181.464L110.069 183.161C108.289 181.28 106.619 179.932 104.639 178.282Z" fill="#8859D5"/>
<path d="M217.228 179.818C224.078 175.448 227.878 181.43 229.418 187.992L227.998 190.127L231.338 191.654C232.828 188.887 230.088 189.491 232.328 185.126L233.718 185.17C236.338 190.771 240.578 194.478 240.888 198.319C239.248 199.934 239.008 200.037 236.738 200.366C236.728 202.998 236.898 205.788 236.478 208.382C237.438 208.732 238.098 209.618 238.158 210.639C238.218 211.659 237.668 212.618 236.758 213.077C235.848 213.537 234.748 213.41 233.958 212.754L231.988 214.583C229.728 215.01 228.288 215.602 226.138 214.386C221.768 211.911 219.318 202.942 218.048 198.372C216.838 191.744 209.478 181.115 214.328 178.171L217.228 179.818Z" fill="#7E50CD"/>
<path d="M218.047 198.372C218.167 198.395 218.297 198.412 218.417 198.44C223.997 199.692 225.757 205.083 232.637 203.762C234.567 202.457 235.007 202.161 235.927 199.905L236.737 200.366C236.727 202.998 236.897 205.788 236.477 208.382C237.437 208.732 238.097 209.618 238.157 210.639C238.217 211.659 237.667 212.618 236.757 213.077C235.847 213.537 234.747 213.41 233.957 212.754L231.987 214.583C229.727 215.01 228.287 215.602 226.137 214.386C221.767 211.911 219.317 202.942 218.047 198.372Z" fill="#8859D5"/>
<path d="M233.96 212.754C233.01 211.956 232.769 210.589 233.389 209.511C234.009 208.434 235.31 207.958 236.48 208.382C237.44 208.732 238.099 209.618 238.159 210.639C238.219 211.659 237.67 212.618 236.76 213.077C235.85 213.537 234.75 213.41 233.96 212.754Z" fill="#CD9ADC"/>
<path d="M227.996 190.127L231.336 191.654C232.826 188.887 230.086 189.491 232.326 185.126L233.716 185.17C236.336 190.771 240.576 194.478 240.886 198.319C239.246 199.934 239.006 200.037 236.736 200.366L235.926 199.905C233.266 195.969 230.226 199.237 227.996 190.127Z" fill="#8859D5"/>
<path d="M217.227 179.818C224.077 175.448 227.877 181.43 229.417 187.992L226.927 188.344C222.177 186.529 220.267 183.892 217.227 179.818Z" fill="#8859D5"/>
<path d="M181.959 249.886C182.889 247.3 183.939 245.081 185.409 242.752C191.139 240.722 193.369 240.659 196.769 235.233C199.109 235.459 199.599 235.583 201.069 237.401C203.709 240.646 203.489 246.36 202.949 250.322C202.389 254.428 198.559 259.208 199.229 263.076L197.599 264.456L196.139 266.233C189.919 266.614 184.729 270.239 178.579 270.41L177.879 269.543C181.089 264.669 181.169 259.223 184.199 254.195C184.279 254.077 184.349 253.962 184.419 253.845L182.329 251.326L181.959 249.886Z" fill="#CD88D7"/>
<path d="M186.569 251.22L189.259 248.574C190.839 251.942 190.399 255.916 191.599 259.391C192.249 261.267 193.829 262.373 194.509 264.368L197.599 264.456L196.139 266.233C189.919 266.614 184.729 270.239 178.579 270.41L177.879 269.543C181.089 264.669 181.169 259.223 184.199 254.195C184.279 254.077 184.349 253.962 184.419 253.845L182.329 251.326L186.569 251.22Z" fill="#CD9ADC"/>
<path d="M181.957 249.886L185.547 247.588C186.507 249.067 186.507 249.44 186.567 251.22L182.327 251.326L181.957 249.886Z" fill="#EEE6E6"/>
<path d="M236.546 183.446C233.536 181.859 229.196 181.528 226.996 179.133C227.986 178.086 230.886 177.291 232.296 176.727C238.356 180.668 243.156 179.387 248.376 185.959C256.956 196.763 257.356 204.859 259.646 217.67C260.346 221.564 262.006 225.891 261.576 229.846L260.196 231.304L259.436 231.428C257.646 230.319 256.486 230.237 254.456 230.277C251.876 232.25 251.356 234.034 250.076 236.926C248.316 236.257 249.466 231.805 248.106 229.982C247.946 229.768 247.586 229.331 247.476 229.083C245.296 224.32 249.806 221.807 250.546 218.053C250.896 216.254 248.976 214.644 247.926 213.302C247.506 210.515 247.906 210.076 249.086 207.615C251.256 208.128 252.716 208.214 254.916 207.805L255.966 206.086C255.616 203.574 255.696 202.573 254.076 200.562C252.526 200.512 250.906 200.47 249.396 200.105C243.806 198.757 239.346 188.093 236.546 183.446Z" fill="#5339B2"/>
<path d="M181.119 307.231C181.459 305.396 181.709 303.328 182.679 301.704C183.779 299.844 185.559 299.962 187.569 299.481C191.179 300.775 194.049 301.16 196.609 304.068L196.279 304.675L197.789 306.789L196.279 308.985C195.459 310.24 194.619 311.483 193.889 312.793C194.499 314.206 194.919 314.722 194.669 316.27L191.959 317.116C189.559 319.815 187.649 322.573 185.749 325.623C182.809 326.149 178.709 327.58 175.829 326.584C174.199 326.021 174.179 325.258 173.449 323.751C174.499 320.533 175.249 319.116 177.549 316.762C178.919 315.352 180.409 314.152 180.409 312.167L177.349 313.326L175.989 312.684C177.189 309.744 178.659 309.054 181.119 307.231Z" fill="#583CB5"/>
<path d="M185.748 325.623C185.658 325.427 185.548 325.238 185.478 325.036C184.408 322.157 184.678 320.989 186.098 318.491C188.608 317.2 189.118 316.547 191.958 317.116C189.558 319.815 187.648 322.573 185.748 325.623Z" fill="#5339B2"/>
<path d="M181.118 307.231C181.668 309.706 181.468 310.002 180.408 312.167L177.348 313.326L175.988 312.684C177.188 309.744 178.658 309.054 181.118 307.231Z" fill="#A586E6"/>
<path d="M196.279 304.675L197.789 306.789L196.279 308.985L194.259 308.217L193.809 306.766L196.279 304.675Z" fill="#A586E6"/>
<path d="M162.759 278.04C167.859 278.474 168.969 281.357 172.559 281.47L173.799 278.356L175.828 278.048L177.668 280.745L181.009 281.07L181.578 282.054C181.208 282.106 180.839 282.164 180.469 282.226C175.169 283.133 178.519 285.021 176.259 288.204C174.919 287.367 173.859 286.499 172.749 285.387L172.378 285.02C171.988 285.076 171.528 285.152 171.168 285.312C169.098 286.216 165.088 290.332 164.148 292.399C164.098 292.502 164.059 292.608 164.019 292.712C164.009 295.799 163.859 298.912 162.049 301.394C159.279 300.302 156.359 294.884 153.259 292.743C150.549 290.873 150.529 289.612 149.969 286.556L146.999 287.533L146.648 286.129C149.408 281.436 157.899 279.556 162.759 278.04Z" fill="#8859D5"/>
<path d="M163.757 181.269C168.857 181.611 177.016 187.002 181.386 189.712C183.666 191.128 184.506 192.101 185.146 194.668C183.306 198.644 177.267 202.308 173.987 205.51C172.477 205.553 171.676 204.851 170.406 204.12C168.176 199.5 166.987 197.69 167.307 192.444C165.057 194.085 163.756 195.526 160.906 195.736C160.626 193.616 160.936 192.898 161.686 190.965L165.676 189.323C166.486 186.122 164.977 184.244 163.757 181.269Z" fill="#F0BEBF"/>
<path d="M168.297 193.632C170.337 193.534 171.897 193.921 173.837 194.483C175.977 196.15 176.467 197.497 177.187 200.052C175.597 200.067 173.987 199.906 172.407 199.813C169.837 197.835 169.517 196.645 168.297 193.632Z" fill="#F8F8F6"/>
<path d="M211.479 158.072C210.999 160.193 210.779 161.224 209.939 163.303C203.209 157.305 195.829 162.142 187.179 159.417C180.649 157.361 181.239 152.916 177.859 146.439L178.979 145.328L185.359 147.827L190.01 145.72C189.94 146.567 189.809 147.364 189.679 148.202C193.739 149.436 195.65 153.521 199.24 154.451C201.12 154.939 203.349 151.507 207.419 151.814L208.599 153.761L211.479 158.072Z" fill="#5339B2"/>
<path d="M96.0459 147.815C98.5359 147.12 100.596 146.498 103.036 145.637C104.866 149.091 103.256 148.75 103.996 152.315C101.866 154.037 99.7559 155.776 97.5359 157.391C98.7159 158.875 99.6858 160.071 100.986 161.482C99.0658 164.127 94.3557 170.342 95.1257 174.07C95.2857 174.858 95.1458 175.078 94.9558 175.809L93.8657 173.694L91.5258 173.079C88.2158 173.624 89.4258 173.661 86.2058 172.25C83.3358 166.711 86.0856 163.878 90.5656 160.686L91.3557 158.058C91.3957 155.226 91.5858 154.92 93.2758 152.669L92.3059 152.209L92.0258 151.214L94.9157 148.277L94.7358 147.152L96.0459 147.815Z" fill="#B16CC3"/>
<path d="M91.5258 173.079C88.2158 173.624 89.4258 173.661 86.2058 172.25C83.3358 166.711 86.0856 163.878 90.5656 160.686C91.7456 164.002 93.4956 167.691 92.8156 171.036L91.5258 173.079Z" fill="#CD88D7"/>
<path d="M96.0469 147.815C98.5369 147.12 100.597 146.498 103.037 145.637C104.867 149.091 103.257 148.75 103.997 152.315C101.867 154.037 99.7569 155.776 97.5369 157.391C96.7969 154.702 96.9669 151.473 96.0469 147.815Z" fill="#9360D5"/>
<path d="M91.3594 158.058C91.3994 155.226 91.5895 154.92 93.2795 152.669C94.9395 156.294 95.0395 155.253 94.7395 158.887L93.1394 159.233L91.3594 158.058Z" fill="#E8B4DC"/>
<path d="M195.188 177.668L194.438 178.172L194.308 179.808C195.628 181.924 200.508 182.921 203.768 185.206L203.388 186.714C190.668 194.331 187.858 172.414 177.848 170.545L178.188 169.537L185.478 168.829C187.918 166.518 185.138 167.891 186.168 163.608C193.678 162.753 190.158 164.849 193.938 169.307C194.708 170.22 197.768 169.307 199.408 169.179C201.648 171.363 201.398 170.452 201.438 173.026L199.708 173.569C198.508 174.672 196.388 176.745 195.188 177.668Z" fill="#B16CC3"/>
<path d="M195.186 177.668C193.396 174.47 193.266 175.355 193.606 172.227L195.066 171.132C197.496 171.378 197.956 171.989 199.706 173.569C198.506 174.672 196.386 176.745 195.186 177.668Z" fill="#DEC8EE"/>
<path d="M248.898 316.181C246.128 316.229 244.078 316.683 241.648 315.182C241.868 312.67 244.879 310.269 246.749 308.712C251.589 304.691 260.208 299.874 266.678 300.5C266.808 300.512 266.929 300.532 267.049 300.548C266.879 301.566 266.769 304.01 266.309 304.81C263.689 309.29 256.198 315.106 252.388 319.08L248.898 316.181Z" fill="#EEE6E6"/>
<path d="M196.607 304.068C201.257 302.281 207.417 297.356 212.567 299.622C213.317 299.951 214.007 300.38 214.687 300.832C213.557 302.592 210.887 303.124 208.987 303.814C209.847 306.862 210.717 308.445 208.987 311.446C207.407 314.174 205.317 316.091 202.757 317.861L200.857 318.074L197.927 315.69C196.877 315.86 195.687 315.954 194.667 316.27C194.917 314.722 194.497 314.206 193.887 312.793C194.617 311.483 195.457 310.24 196.277 308.985L197.787 306.789L196.277 304.675L196.607 304.068Z" fill="#5339B2"/>
<path d="M208.598 153.761C212.538 152.145 216.558 150.586 220.538 152.039C221.568 154.457 221.648 154.934 221.988 157.518L224.178 158.531C225.808 157.583 226.538 157.017 228.428 156.659C229.868 162.938 227.728 165.199 233.508 168.624L232.028 168.382L232.008 167.915C228.518 168.494 219.778 166.919 216.618 164.898C212.798 162.45 216.788 158.493 211.478 158.072L208.598 153.761Z" fill="#5339B2"/>
<path d="M145.778 187.344C141.418 182.508 130.708 176.997 127.418 171.674C129.738 171.215 130.168 171.138 132.328 169.988L133.098 167.026L134.338 170.492C138.888 171.802 151.988 178.174 155.618 182.372C152.358 183.933 148.878 185.502 145.778 187.344Z" fill="#E8B4DC"/>
<path d="M195.666 284.721C197.536 284.642 199.876 284.947 201.486 285.988C203.176 287.083 204.446 289.275 204.746 291.251C205.146 293.892 204.126 295.286 202.736 297.361C199.496 298.8 198.886 299.052 195.406 298.548C194.026 299.433 193.036 299.394 191.426 299.385C189.516 296.773 187.936 297.278 185.996 295.303C187.176 291.367 192.626 287.371 195.666 284.721Z" fill="#7E50CD"/>
<path d="M203.979 263.689C205.609 265.499 206.219 266.63 206.209 269.111C206.189 272.445 204.438 275.191 202.118 277.474C198.688 280.851 194.899 282.714 190.159 282.602L188.899 283.718L186.789 280.762C185.959 272.686 196.469 273.36 200.729 269.278C201.899 268.163 203.109 265.176 203.979 263.689Z" fill="#8859D5"/>
<path d="M117.446 264.568C119.376 265.82 118.946 268.388 121.056 269.913C123.116 268.519 125.236 266.937 127.456 265.835C129.446 264.854 130.326 264.214 132.456 264.91C132.716 265.939 132.976 266.961 133.276 267.98C131.346 269.414 130.156 270.653 128.936 272.744L128.595 273.345C123.005 274.123 117.226 277.08 111.476 278.327L110.766 277.697C112.636 272.925 116.116 269.183 117.446 264.568Z" fill="#5339B2"/>
<path d="M196.846 222.145L192.956 222.408C191.256 220.832 191.316 220.204 190.946 218.005C192.586 216.267 194.156 216.672 196.486 216.495L196.996 215.72C194.456 212.623 191.986 212.187 188.436 210.556C187.666 207.91 188.076 206.931 188.696 204.295C189.886 203.62 190.666 203.092 191.436 201.933C191.496 201.84 191.546 201.744 191.606 201.649L192.676 201.665C194.786 203.244 197.896 205.109 199.496 207.186C201.826 210.229 200.826 215.552 200.386 219.096C199.166 220.029 197.786 220.925 196.846 222.145Z" fill="#CD9ADC"/>
<path d="M128.498 140.166C131.698 139.793 131.958 139.673 134.558 142.012C134.098 147.156 136.538 157.704 130.768 161.894C123.408 159.881 126.908 145.262 128.498 140.166Z" fill="#B66AD4"/>
<path d="M297.486 304.477C297.676 305.157 298.156 305.854 298.496 306.479L301.246 305.979L301.896 306.573C297.346 313.636 289.156 320.007 282.536 325.055C281.586 324.193 279.846 322.42 278.926 321.185C284.276 316.246 291.086 307.111 297.486 304.477Z" fill="#6D51BF"/>
<path d="M123.506 113.297L126.306 113.892C127.566 114.846 128.986 115.879 129.796 117.263C132.296 121.551 130.026 127.507 128.876 131.913C127.746 131.723 126.766 131.191 125.746 130.708C124.146 125.464 122.336 118.732 123.506 113.297Z" fill="#CD88D7"/>
<path d="M75.8085 111.697L79.5783 113.999C80.2883 116.185 80.8985 118.277 81.2185 120.558C81.9085 125.387 81.1984 126.401 78.3684 130.166C77.8184 131.02 77.2483 131.136 76.3583 131.572L75.1484 130.82C74.6784 124.169 74.5185 118.275 75.8085 111.697Z" fill="#8859D5"/>
<path d="M155.617 182.372C157.847 182.961 159.307 183.267 161.367 184.337C159.377 186.613 158.197 183.901 156.017 187.81C157.257 188.553 158.037 189.067 159.187 189.939L157.437 192.162C156.657 194.618 155.397 195.771 153.037 196.296L151.437 194.928C151.447 193.2 151.507 192.925 152.027 191.277L145.777 187.344C148.877 185.502 152.357 183.933 155.617 182.372Z" fill="#E5A0C8"/>
<path d="M152.028 191.277C153.478 191.558 156.067 192.152 157.438 192.162C156.658 194.618 155.398 195.771 153.038 196.296L151.438 194.928C151.447 193.2 151.508 192.925 152.028 191.277Z" fill="#CD9ADC"/>
<path d="M311.546 280.102L312.566 280.649L314.986 279.53L316.026 280.508C315.916 286.193 308.296 292.564 304.496 296.512L303.136 297.79L302.196 297.048C301.676 290.363 307.676 285.051 311.546 280.102Z" fill="#5B4EBB"/>
<path d="M194.356 318.113C195.466 319.133 196.536 320.117 197.476 321.309C198.756 322.943 206.386 322.372 208.986 325.067L207.256 326.467C203.576 328.148 198.556 330.429 194.616 329.02C193.086 325.378 194.486 322.113 194.356 318.113Z" fill="#5339B2"/>
<path d="M220.377 238.001L221.897 238.245L222.607 239.519C221.037 244.203 218.147 249.389 214.167 252.411C213.037 251.579 211.477 250.6 210.847 249.319C209.897 247.413 210.387 246.683 210.927 244.79C212.517 243.238 214.417 241.03 216.517 240.242C217.837 239.746 218.747 239.167 219.887 238.352L220.377 238.001Z" fill="#B16CC3"/>
<path d="M108.099 260.773C109.649 264.793 110.519 267.895 109.349 272.176C108.469 275.404 106.989 276.268 104.269 277.781C102.919 277.333 102.179 276.82 101.179 275.812C100.349 269.319 104.439 265.614 108.099 260.773Z" fill="#5339B2"/>
<path d="M79.8958 155.035C80.8058 156.767 81.3057 161.718 80.6357 163.608C79.1357 167.807 74.8957 174.852 70.8757 176.853L70.4258 174.114C74.2858 170.137 72.5758 162.478 76.9758 158.414C78.1258 157.352 78.9658 156.286 79.8958 155.035Z" fill="#8859D5"/>
<path d="M196.848 222.145C197.788 220.925 199.168 220.029 200.388 219.096C203.618 221.828 205.068 225.909 205.408 230.239C205.478 231.154 205.338 232.113 205.168 233.011C203.098 232.943 201.948 232.836 200.528 231.164C198.628 228.921 197.308 225.269 197.328 222.321L196.848 222.145Z" fill="#CD88D7"/>
<path d="M264.648 231.605C266.388 231.951 266.719 231.949 267.699 233.464C269.329 235.994 268.909 239.038 268.279 241.838C267.639 244.696 266.109 247.472 264.979 250.176L263.219 250.455L262.398 249.186L263.719 245.354C263.269 244.965 262.739 244.512 262.459 243.986C260.639 240.664 264.648 240.001 265.878 236.842L264.229 233.33L264.648 231.605Z" fill="#322C86"/>
<path d="M263.719 245.354L264.979 250.176L263.219 250.455L262.398 249.186L263.719 245.354Z" fill="#A586E6"/>
<path d="M178.918 291.484C180.378 292.095 181.698 292.861 183.058 293.659L182.718 295.136C179.798 296.699 176.898 298.278 174.008 299.873L172.428 301.346L171.418 299.297C171.628 298.12 171.868 296.84 172.378 295.754C173.428 293.538 176.788 292.417 178.918 291.484Z" fill="#5339B2"/>
<path d="M128.496 140.166C130.366 134.729 130.956 133.171 137.246 133.299C139.366 135.162 138.796 134.193 139.386 136.964C137.926 139.608 136.976 140.163 134.556 142.012C131.956 139.673 131.696 139.793 128.496 140.166Z" fill="#8859D5"/>
<path d="M148.447 127.565C150.247 129.109 150.376 129.184 150.816 131.501C149.636 134.608 147.747 136.588 145.507 138.946C144.147 137.292 143.417 136.288 143.227 134.059C144.037 130.974 146.067 129.526 148.447 127.565Z" fill="#F0BEBF"/>
<path d="M116.749 118.145L119.148 118.187L119.938 119.367C117.248 122.283 114.529 125.17 111.779 128.025L111.328 129.137L110.398 127.687C110.558 126.594 110.729 125.507 111.019 124.44C111.909 121.19 113.959 119.755 116.749 118.145Z" fill="#DEC8EE"/>
<path d="M156.668 99.708L158.509 101.234C158.519 102.35 158.489 103.472 158.279 104.572C157.609 108.099 155.079 110.503 152.299 112.493L150.559 111.182C151.249 107.297 154.598 103.08 156.668 99.708Z" fill="#7E50CD"/>
<path d="M177.158 4.47778C178.558 4.67278 180.038 4.85778 181.368 5.37578C183.908 6.36778 185.138 9.84779 186.188 12.1248C183.618 11.9828 181.278 11.2608 178.818 10.5498C176.678 8.14677 177.108 7.59078 177.158 4.47778Z" fill="#583CB5"/>
<path d="M193.569 223.601C194.059 223.696 194.749 224.355 195.179 224.659C194.139 228.933 194.369 231.777 190.549 234.241C189.649 232.81 189.289 231.422 188.879 229.813C189.789 226.335 190.779 225.883 193.569 223.601Z" fill="#CD88D7"/>
<path d="M203.006 210.63C203.596 210.881 204.176 211.154 204.716 211.51C206.656 212.793 208.726 215.745 209.146 218.05L208.066 216.698C206.316 217.019 204.536 217.722 202.836 218.251L201.156 217.222C201.086 214.713 201.996 212.866 203.006 210.63Z" fill="#CD88D7"/>
<path d="M248.898 316.181L252.388 319.08C250.758 321.173 249.348 323.275 246.898 324.443L245.578 323.89C245.308 321.038 247.428 318.486 248.898 316.181Z" fill="#DEC8EE"/>
<path d="M208.878 252.044C209.748 252.26 210.378 252.717 211.138 253.181C210.888 255.92 210.328 256.432 208.718 258.581L207.738 257.656C206.258 256.384 205.928 256.32 203.988 256.033L208.878 252.044Z" fill="#B16CC3"/>
<path d="M141.426 171.794C146.586 172.264 147.946 170.805 152.636 173.853C150.946 174.609 148.176 175.464 146.336 175.238C143.676 174.911 142.986 173.756 141.426 171.794Z" fill="#CD88D7"/>
<path d="M179.688 327.322C181.828 327.345 184.108 327.271 186.218 327.604C189.088 328.057 189.497 328.648 191.127 330.922C187.677 330.74 184.307 330.494 180.897 329.985L179.688 327.322Z" fill="#CD88D7"/>
<path d="M218.836 286.295C221.086 287.217 223.046 288.121 225.026 289.547L224.056 291.604C222.346 292.482 221.346 292.906 219.386 292.551C218.176 290.144 218.596 288.939 218.836 286.295Z" fill="#5339B2"/>
<path d="M205.477 172.302C206.317 172.46 207.356 172.629 208.106 173.064C210.606 174.514 210.886 176.982 211.646 179.532C210.916 179.424 210.036 179.327 209.356 179.006C206.986 177.873 206.367 174.61 205.477 172.302Z" fill="#E8B4DC"/>
<path d="M153.638 123.258C154.638 122.265 156.258 122.271 157.248 123.27C158.238 124.27 158.238 125.885 157.238 126.878C156.238 127.871 154.618 127.865 153.628 126.866C152.638 125.866 152.638 124.251 153.638 123.258Z" fill="#E8B4DC"/>
<path d="M129.229 285.628C129.849 284.881 130.869 284.582 131.799 284.868C132.729 285.155 133.399 285.972 133.499 286.941C133.599 287.911 133.099 288.845 132.249 289.313C131.229 289.873 129.949 289.625 129.209 288.723C128.469 287.822 128.479 286.521 129.229 285.628Z" fill="#F0BEBF"/>
<path d="M69.207 323.714C69.957 324.067 70.727 324.428 71.427 324.88C73.927 326.502 74.1871 328.319 74.8071 331.02C71.4471 328.873 70.197 327.548 69.207 323.714Z" fill="#6342A4"/>
<path d="M171.266 150.677C171.746 149.902 172.646 149.484 173.546 149.61C174.456 149.736 175.206 150.382 175.456 151.261C175.716 152.139 175.436 153.086 174.736 153.679C173.866 154.422 172.576 154.417 171.716 153.668C170.846 152.918 170.656 151.649 171.266 150.677Z" fill="#CD9ADC"/>
<path d="M261.579 229.846L264.649 231.605L264.229 233.33L261.639 233.682L260.199 231.304L261.579 229.846Z" fill="#C5A1E0"/>
<path d="M217.108 265.468C217.908 266.146 218.448 267.126 219.028 267.992L217.098 268.793L215.568 268.984L214.738 268.315L217.108 265.468Z" fill="#CD9ADC"/>
<path d="M160.316 158.159L161.517 157.727L162.586 159.115L160.707 160.169L160.316 158.159Z" fill="#CD9ADC"/>
<path d="M61.1458 48.2647C63.6258 43.2687 79.0759 31.6817 84.2659 29.5527L88.4258 32.4927C88.4158 34.6817 87.9857 35.3228 87.0857 37.2368C77.5057 41.6058 65.5558 50.1298 61.6558 60.1898C61.2658 61.1778 58.7059 60.6947 57.5559 61.2137C56.3359 56.6767 61.3158 51.9517 61.1458 48.2647Z" fill="#583CB5" fill-opacity="0.988235"/>
<path d="M10.008 245.747C10.658 243.919 11.298 240.516 13.008 239.629C13.798 239.218 14.7178 239.227 15.5878 239.197C17.5378 241.193 17.988 243.404 17.958 246.15C17.938 248.082 17.568 250.117 17.258 252.019C17.178 252.084 17.108 252.147 17.028 252.213C15.638 253.418 14.5879 255.399 13.1079 256.36C11.6279 253.08 9.41801 249.43 10.008 245.747Z" fill="#794C97" fill-opacity="0.988235"/>
</svg>
