<svg width="327" height="255" viewBox="0 0 327 255" fill="none" xmlns="http://www.w3.org/2000/svg">
<g filter="url(#filter0_d_50_35242)">
<path d="M280.95 4L283.843 4.13426C283.23 6.36559 273.604 14.7568 271.311 17.2269C249.455 40.7705 230.268 67.9531 248.148 99.6137C248.423 100.1 248.701 100.583 248.983 101.065L249.991 101.55C273.964 88.4436 285.81 86.544 313.006 83.4391L312.457 83.6817C304.354 87.2009 297.194 88.8732 289.636 94.2065C287.173 95.945 281.882 100.285 279.787 101.448L275.071 107.579L270.941 113.802L268.707 119.03L267.059 125.084L265.703 130.752L265.328 138.469L265.25 144.539L266.736 154.562L267.966 160.006L272.515 168.865L276.629 174.059L284.114 180.685L293.069 186.458C301.409 190.341 305.905 191.973 314.705 194.724L312.731 197.348C290.267 198.933 271.492 197.642 250.764 187.899C240.738 209.762 241.112 220.303 252.77 241.336L251.901 242.287L248.422 242.308C233.283 243.521 221.246 242.884 206.109 242.322C199.127 241.574 194.298 240.891 187.355 239.574C160.331 236.942 120.031 221.856 100.094 204.428C72.0285 179.895 54.4126 170.242 17.1319 165.194C11.4112 164.42 6.40525 158.63 8.47709 152.188C9.16706 151.184 10.4044 149.581 11.4581 149.091C24.5963 142.973 43.0917 147.893 56.2605 138.48C62.4942 134.024 71.8764 117.371 77.132 110.654C92.7842 90.6519 134.789 51.932 157.912 43.2675C169.936 35.0306 187.712 27.9195 201.252 22.7568C208.949 20.8199 218.34 16.9162 226.432 14.5736C244.293 9.59222 262.524 6.05586 280.95 4Z" fill="#C4A777"/>
<path d="M157.912 43.2675C155.242 50.4639 146.139 59.6174 142.795 67.7479C129.34 100.455 127.089 148.349 140.271 181.203C140.434 181.609 140.603 182.014 140.78 182.415C149.25 180.362 154.572 179.294 163.195 178.165C170.007 178.603 173.779 178.561 179.489 182.625C179.735 182.887 180.497 183.594 180.558 183.865C184.801 185.826 185.793 187.377 188.865 190.89L190.408 192.859C191.15 194.736 191.626 195.527 191.907 197.524L193.298 199.375L192.245 204.059L191.489 204.988C184.699 214.071 178.891 208.554 169.32 208.363C172.083 209.604 173.975 210.435 176.851 211.361L177.093 212.324L180.405 211.886C184.724 215.55 199.123 235.171 206.109 242.322C199.127 241.574 194.298 240.891 187.355 239.574C160.331 236.942 120.031 221.856 100.094 204.428C72.0285 179.895 54.4126 170.242 17.1319 165.194C11.4112 164.42 6.40525 158.63 8.47709 152.188C9.16706 151.184 10.4044 149.581 11.4581 149.091C24.5963 142.973 43.0917 147.893 56.2605 138.48C62.4942 134.024 71.8764 117.371 77.132 110.654C92.7842 90.6519 134.789 51.932 157.912 43.2675Z" fill="#E8B339"/>
<path d="M163.196 178.165C170.007 178.603 173.78 178.561 179.489 182.625C179.736 182.887 180.498 183.594 180.558 183.865C184.801 185.826 185.793 187.377 188.865 190.89L190.408 192.859C191.151 194.736 191.626 195.527 191.908 197.524L193.298 199.375L192.245 204.059L191.489 204.988C184.7 214.071 178.891 208.554 169.32 208.363C172.083 209.604 173.975 210.435 176.852 211.361L177.094 212.324C167.862 213.121 164.602 212.557 155.603 210.156C146.985 206.972 138.618 202.55 132.029 196.062C128.165 193.638 125.505 191.484 121.948 188.652C127.807 186.858 130.987 186.102 137.027 185.086L140.78 182.415C149.251 180.362 154.572 179.294 163.196 178.165Z" fill="#875201"/>
<path d="M138.935 198.728C138.146 196.756 137.429 196.47 135.798 194.903L137.247 196.197L138.151 194.224L137.655 196.706L139.12 194.432C141.738 194.904 143.283 195.141 145.935 195.291C148.237 195.911 155.698 197.758 157.383 198.658C167.258 200.751 182.129 203.983 192.245 204.059L191.489 204.988C184.699 214.07 178.89 208.554 169.32 208.363C172.082 209.604 173.974 210.435 176.851 211.361L177.093 212.324C167.861 213.121 164.602 212.557 155.602 210.156C146.985 206.972 138.617 202.55 132.028 196.062L138.935 198.728Z" fill="#875201"/>
<path d="M132.028 196.062L138.935 198.728C141.279 199.871 142.945 200.766 145.432 201.537C149.338 201.042 166.953 206.818 169.32 208.363C172.082 209.604 173.974 210.435 176.851 211.361L177.093 212.324C167.861 213.121 164.602 212.557 155.602 210.156C146.985 206.972 138.617 202.55 132.028 196.062Z" fill="#875201"/>
<path d="M145.432 201.537C149.338 201.042 166.953 206.818 169.32 208.363C164.948 209.423 150.239 203.322 145.432 201.537Z" fill="#201400"/>
<path d="M157.384 198.658C167.259 200.752 182.129 203.983 192.245 204.059L191.489 204.988C187.077 204.982 182.667 204.74 178.279 204.262C173.292 203.676 160.17 202.185 157.384 198.658Z" fill="#201400"/>
<path d="M137.027 185.086C141.367 184.402 145.516 183.454 149.839 184.107C147.339 184.677 140.224 186.112 138.368 187.129L141.485 187.931L141.516 189.145C140.548 189.41 139.072 189.881 138.13 189.978C142.908 191.486 185.482 197.01 191.908 197.524L193.298 199.375L192.245 204.059C182.129 203.983 167.259 200.751 157.384 198.658C155.699 197.758 148.238 195.911 145.936 195.291C143.284 195.141 141.738 194.904 139.121 194.432L137.656 196.706L138.152 194.224L137.247 196.197L135.798 194.903C137.43 196.47 138.147 196.756 138.935 198.728L132.029 196.062C128.165 193.637 125.505 191.484 121.948 188.652C127.807 186.858 130.987 186.102 137.027 185.086Z" fill="#201400"/>
<path d="M145.936 195.291L147.222 193.79C159.377 193.695 181.321 199.399 193.298 199.374L192.245 204.059C182.129 203.983 167.259 200.751 157.384 198.658C155.699 197.758 148.238 195.911 145.936 195.291Z" fill="#875201"/>
<path d="M190.408 192.859C171.997 189.262 159.572 190.983 143.225 188.544L143.671 188.034C156.197 186.903 176.565 188.421 188.865 190.89L190.408 192.859Z" fill="#201400"/>
<path d="M180.557 183.865C171.017 183.649 162.61 184.201 152.832 183.579C157.813 182.448 173.973 182.443 179.488 182.625C179.735 182.887 180.497 183.594 180.557 183.865Z" fill="#201400"/>
<path d="M155.603 210.156C164.602 212.557 167.861 213.121 177.093 212.324L180.405 211.886C184.724 215.55 199.123 235.171 206.109 242.322C199.127 241.574 194.298 240.891 187.355 239.574C172.254 225.966 170.933 228.141 155.603 210.156Z" fill="#FFFCCA"/>
<path d="M99.8705 122.751C109.938 119.568 120.689 125.079 124.005 135.121C127.32 145.164 121.97 156.012 111.994 159.472C105.417 161.754 98.124 160.311 92.9066 155.696C87.6892 151.081 85.3542 144.009 86.7964 137.188C88.2385 130.365 93.2339 124.85 99.8705 122.751Z" fill="#393980"/>
<path d="M100.161 126.661C105.386 124.684 111.27 125.673 115.563 129.253C119.858 132.831 121.901 138.447 120.914 143.956C119.926 149.463 116.06 154.015 110.791 155.873C102.772 158.698 93.9761 154.534 91.065 146.532C88.153 138.53 92.2086 129.67 100.161 126.661Z" fill="white"/>
<path d="M104.269 129.527C107.744 128.346 111.584 129.135 114.315 131.59C117.046 134.045 118.245 137.786 117.448 141.375C116.652 144.964 113.986 147.844 110.474 148.909C105.168 150.519 99.552 147.567 97.8582 142.277C96.1644 136.985 99.0181 131.312 104.269 129.527Z" fill="#232323"/>
<path d="M109.799 132.431C112.143 132.236 114.217 133.943 114.481 136.285C114.745 138.625 113.105 140.753 110.776 141.088C109.208 141.313 107.641 140.666 106.686 139.398C105.732 138.13 105.542 136.443 106.19 134.994C106.836 133.544 108.219 132.562 109.799 132.431Z" fill="#FDFDFD"/>
<path d="M280.95 4L283.843 4.13426C283.229 6.36559 273.603 14.7568 271.31 17.2269C249.454 40.7705 230.268 67.9531 248.148 99.6137C248.423 100.1 248.7 100.583 248.982 101.065L249.99 101.55C273.963 88.4436 285.809 86.544 313.006 83.4391L312.456 83.6817C304.354 87.2009 297.194 88.8732 289.635 94.2065C287.172 95.945 281.882 100.285 279.786 101.448L275.07 107.579L270.941 113.802L268.707 119.03L267.059 125.084L265.703 130.752L265.327 138.469L265.25 144.539L266.735 154.562L267.966 160.006L272.514 168.865L276.628 174.059L284.114 180.685L293.069 186.458C301.409 190.341 305.905 191.973 314.704 194.724L312.731 197.348C290.267 198.933 271.491 197.642 250.763 187.899C240.737 209.762 241.111 220.303 252.769 241.336L251.9 242.287L248.422 242.308C242.779 240.199 235.458 237.627 230.6 234.434C220.108 227.536 205.471 207.423 205.085 194.589C204.84 186.443 206.079 174.377 203.72 166.542C202.75 163.324 196.371 155.263 194.196 152.133C186.572 141.162 205.007 134.792 206.116 124.164C207.267 113.134 197.436 106.809 191.768 98.5704L191.218 97.763C211.004 83.699 218.426 77.5209 229.516 55.383C241.364 31.7301 257.449 16.409 280.95 4Z" fill="#F7C873"/>
<path d="M313.006 83.4391L312.457 83.6817C304.354 87.2009 297.194 88.8732 289.636 94.2065C287.173 95.945 281.883 100.285 279.787 101.448L275.071 107.579L270.942 113.802L268.707 119.03L267.059 125.084L265.703 130.752L265.328 138.469L265.251 144.539L266.736 154.562L267.967 160.006L272.515 168.865L276.629 174.059L284.114 180.685L293.07 186.458C301.41 190.341 305.906 191.973 314.705 194.724L312.732 197.349C290.268 198.933 271.492 197.642 250.764 187.899C225.882 170.582 217.13 136.409 238.691 111.766C241.992 107.993 246.248 105.346 248.983 101.065L249.991 101.55C273.964 88.4436 285.81 86.544 313.006 83.4391Z" fill="#201400"/>
<path d="M265.703 130.752C262.029 130.347 259.072 130.501 256.378 128.196L256.263 126.359C259.568 123.89 263.194 124.154 267.059 125.084L265.703 130.752Z" fill="#FFFCCA"/>
<path d="M276.628 174.059C273.192 175.328 265.49 175.804 264.339 171.364C266.73 168.989 269.024 169.229 272.514 168.865L276.628 174.059Z" fill="#FFFCCA"/>
<path d="M268.707 119.03C265.296 118.553 262.266 118.594 260.063 116.153L260.412 114.547C263.857 112.349 267.182 112.268 270.941 113.802L268.707 119.03Z" fill="#FFFCCA"/>
<path d="M265.25 144.539C261.893 144.444 257.934 144.136 255.368 142.012L255.473 140.47C258.655 138.225 261.342 138.595 265.327 138.469L265.25 144.539Z" fill="#FFFCCA"/>
<path d="M284.114 180.685L293.069 186.458C292.258 186.525 291.445 186.57 290.631 186.597C286.679 186.751 281.592 187.158 278.601 184.379C280.206 181.716 280.842 182.104 284.114 180.685Z" fill="#FFFCCA"/>
<path d="M267.966 160.006C264.454 160.914 260.822 161.117 257.958 158.602L258.139 156.813C261.016 154.611 263.068 154.853 266.735 154.562L267.966 160.006Z" fill="#FFFCCA"/>
<path d="M275.071 107.579C272.211 106.709 270.426 106.554 268.719 104.187L269.493 102.623C273.574 100.854 275.351 101.229 279.787 101.448L275.071 107.579Z" fill="#FFFCCA"/>
<path d="M157.912 43.2674C169.936 35.0305 187.712 27.9194 201.252 22.7567C161.026 70.7405 138.705 115.351 163.195 178.165C154.572 179.294 149.25 180.362 140.78 182.415C140.603 182.014 140.434 181.609 140.271 181.203C127.089 148.349 129.339 100.455 142.794 67.7478C146.139 59.6174 155.242 50.4638 157.912 43.2674Z" fill="#FFFCCA"/>
<path d="M223.813 22.845C228.31 22.4576 231.674 21.9561 235.314 24.9776C235.879 28.2378 236.128 26.8752 234.035 29.9935C229.535 30.7616 227.897 31.5105 224.353 29.0768C223.274 26.2164 223.263 25.8569 223.813 22.845Z" fill="#FFFCCA"/>
<path d="M201.157 32.7858C204.757 33.3832 205.892 33.4282 208.429 35.8341C209.181 39.3283 209.27 37.8497 207.555 41.5836C204.175 41.3679 201.27 41.6737 198.882 39.5603C198.72 35.8753 199.199 36.2838 201.157 32.7858Z" fill="#FFFCCA"/>
<path d="M214.324 46.1413C219.985 47.7254 222.567 50.8427 221.922 56.8405C217.791 57.0975 216.249 57.2106 213.616 54.031C212.949 50.6384 213.507 49.4494 214.324 46.1413Z" fill="#FFFCCA"/>
<path d="M221.412 33.6344C225.255 34.2155 224.827 33.5663 227.414 35.6788C228.151 38.7232 226.86 40.5087 225.516 43.4841C221.847 42.7209 220.83 42.6738 218.621 40.2843C218.789 36.6233 219.286 36.9454 221.412 33.6344Z" fill="#FFFCCA"/>
<path d="M180.94 55.4107C184.64 55.1087 185.527 55.0204 189.162 55.6418C191.651 57.9566 190.951 56.7503 191.458 60.465C188.401 61.259 187.656 61.4373 184.512 61.492C181.598 59.2108 182.272 59.2338 180.94 55.4107Z" fill="#FFFCCA"/>
<path d="M201.907 47.3676C202.909 46.6551 204.22 46.5496 205.324 47.0924C206.426 47.6351 207.145 48.7397 207.194 49.97C207.244 51.2012 206.618 52.3596 205.561 52.9905C204.017 53.913 202.019 53.4488 201.039 51.9386C200.057 50.4283 200.44 48.4108 201.907 47.3676Z" fill="#FFFCCA"/>
<path d="M314.705 194.724L318.926 195.935L319 196.723C316.401 197.152 315.349 197.318 312.731 197.348L314.705 194.724Z" fill="#201400"/>
<path d="M173.988 140.364C154.695 134.323 152.816 112.696 166.37 101.448C169.791 100.655 168.523 100.45 171.453 101.732C158.275 106.877 156.507 132.498 171.595 137.476C187.779 142.815 198.41 126.472 191.566 112.445C183.565 99.8887 170.001 103.358 168.209 118.052C167.423 124.493 167.564 130.831 174.423 133.222C179.478 132.228 181.492 129.151 183.792 124.963C183.293 120.105 183.358 117.208 178.728 115.015C175.403 116.129 176.543 115.577 174.058 118.626C173.407 122.139 173.209 120.752 174.704 123.875C177.97 125.314 177.089 124.795 181.448 123.697C180.382 125.784 179.896 126.008 178.118 127.441C170.382 128.654 166.885 115.645 178.525 113.028C189.887 115.244 187.364 135.554 175.022 133.693C171.784 133.193 168.898 131.376 167.049 128.672C160.435 119.181 167.587 109.436 175.572 104.094C201.581 98.4229 203.331 137.459 179.718 140.084C178.694 140.193 177.669 140.283 176.642 140.352L173.988 140.364Z" fill="#FFFCCA"/>
<path d="M218.604 91.8119V88.8119C218.604 88.5467 218.709 88.2923 218.896 88.1048C219.084 87.9172 219.338 87.8119 219.604 87.8119C219.869 87.8119 220.123 87.9172 220.311 88.1048C220.498 88.2923 220.604 88.5467 220.604 88.8119V91.8119C220.604 92.0771 220.498 92.3315 220.311 92.519C220.123 92.7065 219.869 92.8119 219.604 92.8119C219.338 92.8119 219.084 92.7065 218.896 92.519C218.709 92.3315 218.604 92.0771 218.604 91.8119ZM219.604 94.8119C218.021 94.8119 216.475 95.2811 215.159 96.1601C213.843 97.0392 212.818 98.2886 212.212 99.7504C211.607 101.212 211.449 102.821 211.757 104.373C212.066 105.924 212.828 107.35 213.947 108.469C215.065 109.588 216.491 110.349 218.043 110.658C219.595 110.967 221.203 110.808 222.665 110.203C224.127 109.597 225.376 108.572 226.255 107.256C227.134 105.941 227.604 104.394 227.604 102.812C227.601 100.691 226.758 98.6574 225.258 97.1576C223.758 95.6578 221.725 94.8142 219.604 94.8119ZM210.896 95.5194C211.084 95.707 211.338 95.8124 211.604 95.8124C211.869 95.8124 212.123 95.707 212.311 95.5194C212.499 95.3317 212.604 95.0773 212.604 94.8119C212.604 94.5465 212.499 94.292 212.311 94.1044L210.311 92.1044C210.123 91.9167 209.869 91.8113 209.604 91.8113C209.338 91.8113 209.084 91.9167 208.896 92.1044C208.708 92.292 208.603 92.5465 208.603 92.8119C208.603 93.0773 208.708 93.3317 208.896 93.5194L210.896 95.5194ZM210.896 110.104L208.896 112.104C208.708 112.292 208.603 112.547 208.603 112.812C208.603 113.077 208.708 113.332 208.896 113.519C209.084 113.707 209.338 113.812 209.604 113.812C209.869 113.812 210.123 113.707 210.311 113.519L212.311 111.519C212.404 111.426 212.478 111.316 212.528 111.195C212.578 111.073 212.604 110.943 212.604 110.812C212.604 110.68 212.578 110.55 212.528 110.429C212.478 110.308 212.404 110.197 212.311 110.104C212.218 110.011 212.108 109.938 211.986 109.887C211.865 109.837 211.735 109.811 211.604 109.811C211.472 109.811 211.342 109.837 211.221 109.887C211.099 109.938 210.989 110.011 210.896 110.104ZM227.604 95.8119C227.735 95.812 227.865 95.7862 227.986 95.736C228.108 95.6858 228.218 95.6122 228.311 95.5194L230.311 93.5194C230.499 93.3317 230.604 93.0773 230.604 92.8119C230.604 92.5465 230.499 92.292 230.311 92.1044C230.123 91.9167 229.869 91.8113 229.604 91.8113C229.338 91.8113 229.084 91.9167 228.896 92.1044L226.896 94.1044C226.756 94.2442 226.661 94.4225 226.622 94.6166C226.583 94.8107 226.603 95.0119 226.679 95.1947C226.755 95.3775 226.883 95.5337 227.048 95.6436C227.212 95.7535 227.406 95.812 227.604 95.8119ZM228.311 110.104C228.123 109.917 227.869 109.811 227.604 109.811C227.338 109.811 227.084 109.917 226.896 110.104C226.708 110.292 226.603 110.547 226.603 110.812C226.603 111.077 226.708 111.332 226.896 111.519L228.896 113.519C228.989 113.612 229.099 113.686 229.221 113.736C229.342 113.787 229.472 113.812 229.604 113.812C229.735 113.812 229.865 113.787 229.986 113.736C230.108 113.686 230.218 113.612 230.311 113.519C230.404 113.426 230.478 113.316 230.528 113.195C230.578 113.073 230.604 112.943 230.604 112.812C230.604 112.68 230.578 112.55 230.528 112.429C230.478 112.308 230.404 112.197 230.311 112.104L228.311 110.104ZM209.604 102.812C209.604 102.547 209.498 102.292 209.311 102.105C209.123 101.917 208.869 101.812 208.604 101.812H205.604C205.338 101.812 205.084 101.917 204.896 102.105C204.709 102.292 204.604 102.547 204.604 102.812C204.604 103.077 204.709 103.331 204.896 103.519C205.084 103.707 205.338 103.812 205.604 103.812H208.604C208.869 103.812 209.123 103.707 209.311 103.519C209.498 103.331 209.604 103.077 209.604 102.812ZM219.604 112.812C219.338 112.812 219.084 112.917 218.896 113.105C218.709 113.292 218.604 113.547 218.604 113.812V116.812C218.604 117.077 218.709 117.331 218.896 117.519C219.084 117.707 219.338 117.812 219.604 117.812C219.869 117.812 220.123 117.707 220.311 117.519C220.498 117.331 220.604 117.077 220.604 116.812V113.812C220.604 113.547 220.498 113.292 220.311 113.105C220.123 112.917 219.869 112.812 219.604 112.812ZM233.604 101.812H230.604C230.338 101.812 230.084 101.917 229.896 102.105C229.709 102.292 229.604 102.547 229.604 102.812C229.604 103.077 229.709 103.331 229.896 103.519C230.084 103.707 230.338 103.812 230.604 103.812H233.604C233.869 103.812 234.123 103.707 234.311 103.519C234.498 103.331 234.604 103.077 234.604 102.812C234.604 102.547 234.498 102.292 234.311 102.105C234.123 101.917 233.869 101.812 233.604 101.812Z" fill="#FFFCCA"/>
</g>
<defs>
<filter id="filter0_d_50_35242" x="0" y="0" width="327" height="255" filterUnits="userSpaceOnUse" color-interpolation-filters="sRGB">
<feFlood flood-opacity="0" result="BackgroundImageFix"/>
<feColorMatrix in="SourceAlpha" type="matrix" values="0 0 0 0 0 0 0 0 0 0 0 0 0 0 0 0 0 0 127 0" result="hardAlpha"/>
<feOffset dy="4"/>
<feGaussianBlur stdDeviation="4"/>
<feComposite in2="hardAlpha" operator="out"/>
<feColorMatrix type="matrix" values="0 0 0 0 0 0 0 0 0 0 0 0 0 0 0 0 0 0 0.15 0"/>
<feBlend mode="normal" in2="BackgroundImageFix" result="effect1_dropShadow_50_35242"/>
<feBlend mode="normal" in="SourceGraphic" in2="effect1_dropShadow_50_35242" result="shape"/>
</filter>
</defs>
</svg>
