<svg width="37" height="26" viewBox="0 0 37 26" fill="none" xmlns="http://www.w3.org/2000/svg">
<path d="M21.7771 8.34052C21.6298 8.34052 21.4787 8.30652 21.339 8.22719C20.897 7.98544 20.7346 7.43394 20.9763 6.99202L23.2956 2.74245C23.4467 2.45914 23.3334 2.2136 23.2768 2.12296C23.2239 2.03607 23.069 1.82832 22.763 1.82832H17.452C14.6189 1.82832 12.0012 3.26753 10.4448 5.67754L9.74979 6.74281C9.47026 7.16588 8.90364 7.2792 8.48811 7.00345C8.06882 6.72769 7.95172 6.16109 8.22747 5.74178L8.91874 4.68405C10.8074 1.75282 13.9956 0 17.4519 0H22.763C23.6205 0 24.3986 0.441956 24.8405 1.18237C25.2863 1.93031 25.3127 2.83685 24.8972 3.60747L22.5779 7.86458C22.4117 8.17055 22.0982 8.34052 21.7771 8.34052Z" fill="#5A3A10"/>
<path d="M20.787 25.9055C20.685 25.9055 20.5868 25.8979 20.4848 25.8828C18.0974 25.5466 13.7723 24.4587 11.6041 20.9118C11.3434 20.4811 11.4756 19.9221 11.9063 19.6576C12.3331 19.397 12.8959 19.5292 13.1604 19.9598C14.9395 22.8647 18.6716 23.7825 20.7379 24.0734C20.9003 24.0848 21.0061 24.0168 21.0627 23.9714C21.1572 23.8883 21.2138 23.7675 21.2138 23.6466V18.192C21.2138 17.6896 21.6218 17.2779 22.128 17.2779C22.6304 17.2779 23.0421 17.6858 23.0421 18.192V23.6466C23.0421 24.2963 22.7588 24.9196 22.2639 25.3464C21.8484 25.7128 21.3233 25.9055 20.787 25.9055Z" fill="#5A3A10"/>
<path d="M14.1469 21.494C12.5868 21.494 10.921 21.2409 9.17203 20.6289C6.28228 19.6015 3.4757 17.6977 0.82771 14.9628C-0.275273 13.8107 -0.275273 12.0088 0.823933 10.8605C3.62674 7.9745 6.57316 6.02915 9.59132 5.0659C16.606 2.80327 22.2873 6.32003 25.052 8.61293C25.4789 8.97556 26.0946 8.95668 26.5177 8.5676C28.0475 7.1397 30.62 5.45882 34.1631 5.56075C35.1717 5.59474 36.0745 6.1387 36.5882 7.01128C37.1057 7.89519 37.1359 8.9604 36.6675 9.85944L35.3454 12.3979C35.1717 12.719 35.1717 13.1043 35.3341 13.414L36.6675 15.9638V15.9675C37.1284 16.8703 37.0981 17.9356 36.5806 18.8119C36.0669 19.6883 35.1565 20.2323 34.148 20.2662C30.6388 20.406 28.0475 18.6911 26.4987 17.2594C26.0869 16.8741 25.4788 16.8552 25.0519 17.214C22.9063 19.0046 19.0382 21.494 14.1469 21.494ZM14.1242 6.16862C12.8663 6.16862 11.5329 6.35749 10.1466 6.80323C7.4155 7.67581 4.72215 9.46253 2.13847 12.1256C1.72295 12.5638 1.72295 13.2589 2.14225 13.7008C4.58997 16.2279 7.16244 17.9844 9.78016 18.9136C16.1526 21.1348 21.3506 17.9277 23.8812 15.8161C24.9993 14.8756 26.6614 14.9209 27.738 15.9257C29.0336 17.1232 31.1717 18.5434 34.0879 18.4453C34.4732 18.4339 34.8093 18.2299 35.0058 17.8938C35.206 17.5538 35.2173 17.1609 35.0398 16.8134L33.7101 14.2637C33.2644 13.41 33.2719 12.3938 33.729 11.5477L35.0436 9.02435C35.2211 8.68438 35.206 8.27642 35.0096 7.94022C34.8132 7.59648 34.4807 7.39627 34.103 7.38494C31.1868 7.26406 29.0412 8.70705 27.7532 9.90451C26.6615 10.9056 24.9994 10.9508 23.8813 10.0103C21.9661 8.42002 18.4798 6.16862 14.1242 6.16862Z" fill="#5A3A10"/>
<path d="M9.47537 20.6817C9.34316 20.6817 9.21095 20.6514 9.0863 20.5948C8.63301 20.3795 8.43658 19.8355 8.6519 19.3785C11.4547 13.4441 10.4197 9.01683 9.05608 6.34592C8.82566 5.89641 9.0032 5.34873 9.45271 5.11829C9.90222 4.89165 10.4499 5.06541 10.6803 5.51492C12.2291 8.54817 13.4227 13.5495 10.3026 20.1566C10.1477 20.489 9.81912 20.6817 9.47537 20.6817Z" fill="#5A3A10"/>
<path d="M7.93613 10.6188C7.93613 11.7143 6.29297 11.7143 6.29297 10.6188C6.29297 9.52338 7.93613 9.52338 7.93613 10.6188Z" fill="#C8A860"/>
</svg>
