<svg width="97" height="185" viewBox="0 0 97 185" fill="none" xmlns="http://www.w3.org/2000/svg">
<path d="M36.0232 174.692C31.135 167 24.9426 160.161 21.0598 151.812C19.5537 148.774 17.6272 145.985 15.87 143.094C15.6763 142.544 15.6271 141.98 15.7074 141.404C16.5011 138.656 18.2561 137.351 21.1938 137.43C22.7513 137.472 24.1857 137.029 25.1826 135.46C27.8183 131.314 28.6609 131.13 33.0484 133.163C34.4847 134.335 34.1298 135.846 33.4862 137.121C31.8639 140.334 32.6071 144.034 31.1512 147.301C30.4775 148.812 31.4185 149.445 33.2945 149.246C35.8718 148.974 36.3689 150.693 35.6108 152.481C34.0688 156.118 35.5314 157.648 38.9627 158.211C40.24 158.421 41.1063 159.144 41.521 160.388C41.7226 161.141 41.6889 161.898 41.5734 162.656C41.3464 165.461 42.0556 168.328 40.7241 171.074C40.1669 172.224 41.0603 173.303 41.9324 174.149C43.0528 175.237 44.1373 176.354 45.0021 177.673C45.6907 179.295 45.3088 180.529 43.5306 180.93C41.4892 181.391 39.6491 180.906 38.4786 179.019C37.6061 177.611 37.3445 175.852 36.0232 174.692Z" fill="#FACF62"/>
<path d="M89.8404 119.324C85.796 123.066 84.7274 128.721 81.1796 132.782C80.7011 133.222 80.1636 133.191 79.6033 132.979C78.9518 131.678 80.0059 130.921 80.5433 129.998C82.2539 127.867 82.2057 125.05 83.3695 122.704C83.6016 120.88 84.8376 119.743 86.1297 118.643C87.6044 116.923 88.5908 114.921 89.2292 112.785C90.1909 109.568 88.4327 106.066 85.1661 105.109C82.9232 104.452 82.2993 103.137 83.2657 101.36C84.1582 99.7203 83.7188 99.166 82.2565 98.4766C80.5583 97.6758 80.1916 96.1492 80.9119 94.4894C81.4374 93.2784 81.512 91.8898 82.1965 90.7955C84.0877 87.7718 82.8136 86.505 79.7792 86.0764C78.4251 85.4844 76.673 86.5247 75.5313 85.0536C75.9161 82.7224 77.4597 82.27 79.5573 82.354C83.3762 82.5076 86.4561 83.514 88.0447 87.505C88.7067 89.1681 90.6246 90.3908 92.1323 90.9853C94.8254 92.0481 94.8248 93.7873 95.0829 96.1258C96.0084 104.513 92.8012 111.871 89.8404 119.324Z" fill="#FCECB0"/>
<path d="M32.1644 17.4152C35.1458 23.9948 35.0836 31.1491 36.0693 38.1049C36.2259 39.209 35.5947 40.0647 35.1731 41.0307C34.4483 42.6916 33.0092 44.2619 34.8404 46.3726C35.922 47.6191 34.521 50.5284 34.1105 50.5626C31.4669 50.7828 32.1777 52.8193 31.9961 54.0883C30.3843 65.3439 28.66 76.5902 29.7233 88.0434C29.9992 91.0142 30.0141 94.0504 29.0448 97.0081C27.3028 102.323 28.7102 107.677 29.054 113.015C26.3583 112.488 26.8317 110.104 26.2897 108.314C25.2973 104.312 25.0424 100.323 26.4799 96.3597C27.5288 94.0866 27.006 91.6681 27.1183 89.3093C27.1218 86.4873 27.3072 83.6543 26.552 80.8837C26.3624 79.6064 26.3348 78.3263 26.5104 77.0465C27.3349 74.3914 28.0517 71.7185 27.6095 68.8873C27.9181 67.5291 27.9857 66.149 27.9644 64.7607C27.9701 63.7604 28.047 62.7678 28.2673 61.791C28.854 60.1228 28.7572 58.3846 28.7648 56.6603C28.7454 56.1108 28.7416 55.5594 28.7251 55.0102C28.1806 52.7726 30.5055 51.6606 30.7824 49.7409C31.1272 48.3729 31.5345 47.2486 29.1864 47.5005C27.0603 47.7282 26.5231 46.3723 27.4276 44.4882C27.6479 44.1975 27.9111 43.9482 28.2048 43.7324C29.594 42.7715 31.6897 42.7585 32.2606 40.697C32.8514 35.507 33.1958 30.3249 32.3091 25.1438C31.9208 23.7495 31.1291 22.4963 30.7725 21.1048C30.2919 19.2295 29.5169 18.4209 27.4495 19.2822C26.0427 19.8682 24.2391 19.569 23.6524 18.1389C22.9972 16.5415 24.8544 16.0988 25.9126 15.4976C26.7139 15.0421 27.4273 14.471 28.2191 14.01C30.823 13.6512 30.7189 16.4292 32.1644 17.4152Z" fill="#FCE7A1"/>
<path d="M27.3954 108.282C27.4935 110.019 27.7624 111.695 29.0536 113.015C30.0086 119.86 33.1465 125.904 36.0385 132.038C36.5775 132.486 36.5121 133.038 36.3115 133.613C35.9886 133.832 35.6302 133.943 35.2397 133.949C34.9813 133.923 34.7041 133.905 34.486 133.774C29.5698 130.821 29.5587 130.806 24.6867 135.285C23.2441 136.611 21.7611 137.214 20.3538 135.446C19.3096 134.135 20.2344 133.038 21.1671 132.037C21.7751 131.385 22.8266 131.244 23.1971 130.215C21.9065 129.35 20.3566 128.947 19.1289 127.982C18.8162 127.773 18.5441 127.52 18.3073 127.228C17.5406 125.662 16.6843 124.029 18.5 122.636C19.975 121.504 21.3633 121.88 22.7809 123.025C25.534 125.25 25.8201 121.932 28.2688 120.78C24.2664 120.223 23.6704 118.775 25.7026 116.441C27.6281 114.23 24.7959 111.898 25.8245 109.647C26.1023 108.908 26.2966 108.072 27.3954 108.282Z" fill="#FBDC84"/>
<path d="M20.3344 151.725C16.1125 149.785 15.055 145.379 13.4216 141.806C11.598 137.817 9.09215 134.314 7.09616 130.487C4.88556 126.249 1.9095 121.944 1.82251 117.278C1.7206 111.8 -0.111553 106.628 0.00559686 101.169C0.0370273 99.7006 0.183384 98.2479 0.591027 96.9928C2.40923 91.3945 1.07867 85.5149 2.48637 79.7824C3.24704 76.6841 3.17371 72.8944 2.91687 69.4046C2.80099 67.8304 2.8029 66.2429 3.70231 64.8273C4.07662 64.3038 4.35886 63.5957 5.22939 64.0611C5.40019 64.2626 5.66783 64.4983 5.63608 64.7065C4.60014 71.5074 4.69697 78.4122 4.13662 85.2452C3.44642 93.6639 0.91358 102.218 3.63374 110.748C5.06652 113.727 4.86777 117.118 6.06118 120.177C7.90192 124.896 9.92204 129.532 12.2044 134.049C13.7813 137.17 15.2757 140.319 16.4564 143.611C17.6425 146.366 20.9176 148.125 20.3344 151.725Z" fill="#FDF5E0"/>
<path d="M79.5564 132.758C80.0974 132.766 80.6384 132.774 81.1797 132.782C78.9783 134.862 77.2861 136.917 76.9763 140.37C76.6642 143.846 74.1964 146.919 71.8214 149.499C66.8379 154.913 62.6053 161.004 57.0704 165.909C55.4309 167.362 54.9001 168.805 55.5277 171.103C56.7034 175.41 51.4373 183.706 47.1727 184.791C46.2339 185.03 45.2335 184.974 44.6023 184.207C43.195 182.497 40.9164 182.284 39.3071 180.955C41.3431 179.903 43.402 180.964 45.4214 181.035C48.5486 181.145 50.3681 179.849 51.5199 177.159C51.8815 176.314 52.3501 175.467 52.3564 174.558C52.3945 169.218 54.1778 164.69 58.3441 161.215C60.1058 159.321 61.6424 157.24 63.2609 155.228C66.9427 151.313 70.3483 147.2 72.5859 142.249C72.9608 141.435 73.23 140.58 73.5583 139.746C75.1565 137.328 75.7308 134.199 78.5084 132.594C78.885 132.473 79.2348 132.529 79.5564 132.758Z" fill="#FCEAB4"/>
<path d="M89.841 119.324C89.9734 116.794 91.0335 114.509 91.9018 112.207C93.9559 106.763 94.6042 101.132 94.6108 95.3758C94.6124 94.0231 94.3804 93.1684 92.98 92.2608C89.895 90.2617 86.5929 88.2789 85.2547 84.4556C85.1373 84.1203 84.7728 83.8246 84.4544 83.6145C83.1121 82.73 76.8251 84.0359 75.6894 85.4083C75.597 85.5397 75.5047 85.671 75.4167 85.8052C74.4217 86.466 74.0922 87.5422 73.6998 88.5799C73.1328 89.6025 72.2169 90.3744 71.687 91.4216C71.2028 92.3194 70.9527 93.3077 70.5863 94.2515C69.8761 96.4891 67.9509 97.8929 66.7851 99.818C66.1067 101.084 65.8536 102.548 64.9622 103.715C64.4062 104.247 63.8341 104.733 62.9874 104.33C65.9038 96.1056 71.0542 89.038 74.9243 81.3078C75.5447 80.0686 76.9311 79.2964 77.8229 79.9373C81.3329 82.4598 87.5565 80.8494 88.6756 87.1948C88.8845 88.3785 90.7716 89.8727 92.1005 90.1373C95.7608 90.8658 94.9998 93.4923 95.5569 95.9736C97.5383 104.793 93.4994 111.978 89.841 119.324Z" fill="#FDF5D8"/>
<path d="M59.0918 161.252C58.7616 161.943 58.6184 162.947 58.0708 163.274C54.2029 165.588 54.0363 169.457 53.4959 173.28C52.6048 179.586 50.39 184.16 42.0207 181.237C41.1851 180.946 40.2145 181.04 39.3068 180.955C36.4562 179.787 36.8562 176.917 36.0232 174.692C37.9918 175.374 38.4868 177.261 39.4094 178.807C40.5231 180.673 42.348 180.426 43.9423 179.95C45.1072 179.602 44.8707 178.574 44.0198 177.818C42.7591 175.456 43.6633 173.601 45.8567 172.785C49.5424 171.414 51.8165 168.961 53.0921 165.344C53.3848 164.514 54.2058 163.931 54.8163 163.262C55.6999 162.199 56.5272 161.06 58.0292 160.807C58.4438 160.81 58.7981 160.959 59.0918 161.252Z" fill="#FBDC7E"/>
<path d="M32.165 17.4151C30.3691 16.9599 30.2221 14.4402 28.2083 14.2575C28.0261 14.2276 27.8441 14.1975 27.6606 14.1712C24.3795 12.6087 22.3686 8.92407 18.0264 8.9374C16.4644 8.94216 15.3301 7.09064 16.6448 5.06148C14.8101 5.09289 13.4636 6.1887 11.9578 6.84193C10.2215 7.49421 8.98467 8.67121 8.24843 10.3787C8.06747 10.7086 7.85666 11.0142 7.63347 11.315C5.42287 13.7924 4.78315 17.0211 5.72765 19.7888C6.902 23.2298 5.78479 26.81 7.18074 30.1075C7.57187 31.0317 7.182 31.9035 6.36577 32.532C5.98003 32.7522 5.6178 32.7185 5.27874 32.4346L5.27841 32.4327C4.29168 31.3214 3.86659 30.0453 3.6542 28.545C2.79224 22.4597 2.9586 16.3688 3.34021 10.2759C3.53641 7.1449 7.49982 1.58785 10.2451 1.4527C14.1535 1.26044 18.3633 0.793441 21.3523 4.61541C23.1683 6.93741 24.9913 9.31718 27.4149 11.1008C28.9429 13.2473 31.7177 14.4571 32.165 17.4151Z" fill="#FDF1C7"/>
<path d="M27.415 11.1007C24.3358 10.542 23.4885 7.51948 21.588 5.68574C18.8765 3.06934 13.4679 1.02723 10.675 2.10431C7.39357 3.37016 3.80225 8.89992 3.68256 12.6064C3.46699 19.2808 4.28418 25.8613 5.27884 32.4326C3.43175 31.4713 1.1148 25.7468 1.43767 23.6288C2.04088 19.6717 2.71013 15.6879 2.806 11.7022C2.8749 8.83866 3.96734 6.21782 4.00258 3.31462C4.02988 1.05703 6.42813 -0.25071 9.01304 0.0402126C11.8554 0.360006 14.6851 0.813709 17.5332 1.06022C21.6547 1.41713 22.0935 5.8596 24.9758 7.64543C26.0791 8.32911 26.6188 9.92209 27.415 11.1007Z" fill="#FEF8E7"/>
<path d="M36.0952 133.575C36.0768 133.062 36.0584 132.55 36.0394 132.037C36.9854 132.456 37.1899 133.431 37.6252 134.214C38.7468 136.231 40.118 135.826 40.7247 134.126C43.1017 127.46 48.342 123.008 52.9095 118.065C54.1969 116.672 54.2658 114.191 56.6539 113.801C57.5377 114.581 57.5123 115.585 57.3618 116.622C56.7977 121.486 52.5755 123.959 50.1668 127.622C47.2155 130.451 45.6291 134.317 42.8455 137.27C41.8054 138.373 41.0365 139.947 39.096 139.662C38.723 139.566 38.3912 139.389 38.0903 139.15C36.8391 137.503 35.4174 135.913 36.0952 133.575Z" fill="#FDEECB"/>
<path d="M56.6536 116.967C56.6539 115.911 56.6542 114.857 56.6542 113.801C58.0918 110.194 61.4132 107.845 62.9876 104.33C63.4968 104.059 64.0064 103.789 64.5159 103.519C66.1814 102.66 65.4503 100.822 66.1351 99.5625C66.6303 97.1336 69.18 96.1714 70.0845 94.0347C71.4106 95.3871 71.0976 96.8884 70.2067 98.212C69.441 99.3496 69.4159 100.602 69.1384 101.826C68.0384 105.59 65.1198 108.193 63.0622 111.347C61.1345 113.456 60.5897 117.149 56.6536 116.967Z" fill="#FCE4A6"/>
<path d="M5.27875 32.4348C5.54067 32.4342 5.80292 32.4348 6.06484 32.4364C7.32078 33.4326 7.75636 34.845 7.57794 36.3063C6.64106 43.9807 7.72588 51.7582 6.3312 59.4094C6.02292 61.102 5.93753 62.8196 4.49205 64.0328C4.22854 64.2974 3.96504 64.5619 3.70153 64.8268C3.71836 59.7352 4.77968 54.7146 4.63967 49.5919C4.5984 48.0796 5.107 46.4461 4.46347 45.033C2.4659 40.6466 5.85784 36.68 5.27875 32.4348Z" fill="#FEF8E7"/>
<path d="M20.3343 151.725C19.9438 148.624 16.9287 146.848 16.3484 143.842C16.0023 143.547 16.0182 143.271 16.396 143.017C18.5269 145.643 21.362 147.896 21.0597 151.811C20.8175 151.787 20.5756 151.758 20.3343 151.725Z" fill="#FBD775"/>
<path d="M40.8556 162.802C40.8559 162.013 40.8562 161.224 40.8565 160.435C41.6531 159.02 43.1881 158.518 44.6174 157.33C40.8143 159.107 41.2667 155.855 39.8711 154.284C36.4255 150.405 36.8372 145.86 36.3429 141.42C36.1944 140.086 36.0715 138.269 38.5034 139.087L38.5107 139.067C39.0361 139.801 39.9444 140.006 40.6013 140.56C41.8737 141.522 43.4964 141.845 44.098 143.848C44.8876 146.476 46.9172 143.073 48.2462 144.265C48.4732 144.469 48.8379 144.409 48.8576 144.235C48.9164 143.715 48.5674 143.284 48.4385 142.799C47.8445 140.557 49.218 139.469 50.8993 138.55C52.8582 137.843 54.8338 137.183 56.8635 136.69C57.5537 137.319 57.9042 138.201 58.5172 138.89C59.6833 140.2 62.0136 141.214 60.9085 143.34C59.87 145.339 57.7327 146.606 55.3986 146.599C53.303 146.593 51.4819 147.262 49.7793 148.177C47.2823 149.519 44.8806 149.936 42.6652 148.602C42.9503 152.938 48.0169 150.764 49.7094 153.572C49.8231 154.211 49.1814 154.824 49.6443 155.479C49.9215 156.237 49.7894 157.019 49.7882 157.799C49.3846 158.783 48.6617 159.516 47.9119 160.235C45.8086 161.774 43.8738 163.782 40.8556 162.802Z" fill="#FAD066"/>
<path d="M38.5028 139.088C35.0192 140.239 37.2564 143.93 37.5174 144.528C38.8216 147.517 36.7285 152.165 41.4478 153.554C40.9668 157.362 42.5932 157.424 45.3547 155.851C45.8683 155.559 46.6084 156.219 46.8065 156.884C47.0414 157.672 46.4211 158.046 45.8144 158.312C44.1682 159.035 42.5097 159.73 40.856 160.435C40.3591 159.39 39.6045 158.988 38.379 158.932C34.4798 158.752 32.8717 156.015 34.7134 152.728C35.4192 151.47 35.4166 150.551 34.167 149.646C32.6139 149.937 34.6096 152.588 32.586 152.32C30.7726 152.08 31.5739 149.29 29.4671 148.782C28.5905 148.571 29.2417 147.151 30.0236 146.571C30.8018 145.994 31.6545 145.321 31.3107 144.361C30.15 141.123 32.4498 138.646 33.0606 135.812C33.2406 134.976 33.2591 134.308 32.9457 133.574C33.7372 133.028 34.5306 133.031 35.3255 133.566C35.5824 133.568 35.8389 133.571 36.0954 133.575C36.8977 135.413 37.7003 137.25 38.5028 139.088Z" fill="#FBD772"/>
<path d="M40.8547 162.802C43.5133 162.396 45.5439 160.576 47.9694 159.645C48.7463 162.14 49.5527 163.998 52.5938 161.513C55.0035 159.544 55.5178 161.709 55.874 163.592C55.1638 164.332 53.9755 164.984 53.8228 165.825C52.9824 170.455 49.787 172.572 45.7541 173.92C43.7321 174.595 44.0556 176.278 44.0194 177.818C42.8742 176.78 42.2104 175.305 40.7817 174.494C39.8401 173.96 39.007 172.605 39.4124 171.889C41.057 168.984 40.2763 165.803 40.8547 162.802Z" fill="#FBD772"/>
<path d="M35.3252 133.566C34.5318 133.569 33.7388 133.571 32.9454 133.574C30.544 133.2 26.785 131.962 26.458 134.806C26.0389 138.453 23.2582 138.567 21.9212 138.387C18.9001 137.98 17.5413 139.254 16.3457 141.472C13.8262 139.209 13.7417 138.676 15.3161 136.096C16.2089 134.633 14.9573 134.115 14.0449 134.175C11.3022 134.354 10.8285 132.582 10.4977 130.547C10.8959 129.48 12.0645 128.273 12.7163 128.861C15.9517 131.78 17.4632 128.6 19.5094 127.249C19.9808 127.448 20.4428 127.675 20.9253 127.841C24.7008 129.141 27.013 130.539 21.4682 132.899C20.6694 133.239 20.0634 134.249 20.9196 135.196C21.7746 136.14 22.8191 136.122 23.661 135.193C25.6132 133.039 28.0229 131.558 30.6024 130.326C31.9482 129.683 34.0616 127.606 33.2492 131.627C32.9524 133.098 34.9757 132.535 35.3252 133.566Z" fill="#FBD775"/>
<path d="M10.8018 130.424C11.5473 131.943 11.6838 133.821 14.4928 132.949C16.7961 132.235 17.2781 135.28 17.4082 136.349C17.6917 138.682 15.43 136.418 14.4658 137.218C15.0468 138.705 15.2627 140.269 16.3456 141.472C16.3618 141.987 16.378 142.503 16.3948 143.017C16.3796 143.292 16.3637 143.567 16.3479 143.842C13.1426 139.087 11.0418 133.764 8.51185 128.661C5.79994 123.191 4.00333 117.433 2.91406 111.441C2.17941 110.302 2.64008 109.05 2.56992 107.849C2.74072 107.41 3.05472 107.254 3.50871 107.38C4.73926 108.252 4.75354 109.752 5.35834 110.947C5.91043 112.808 7.0124 112.988 8.629 112.159C9.61731 111.653 10.7142 111.612 11.246 112.894C11.6835 113.948 11.3961 114.859 10.5856 115.72C6.78 119.762 6.78158 119.786 9.57539 124.419C10.7037 126.289 10.8418 128.331 10.8018 130.424Z" fill="#FBD985"/>
<path d="M32.2569 161.774C29.0653 161.705 26.3712 159.082 25.5435 155.66C25.2873 154.6 24.5257 153.444 23.6507 152.8C21.9801 151.57 21.5023 150.435 23.3904 149.212C24.927 148.218 26.8696 147.933 27.8325 149.798C29.6511 153.321 31.842 156.595 33.8564 159.986C34.6866 161.384 32.9922 161.383 32.2569 161.774Z" fill="#F9C958"/>
<path d="M68.514 101.959C67.2024 98.9544 71.0893 96.9796 70.0842 94.0354C69.9645 92.8933 70.3385 91.8895 70.9477 90.9513C73.1457 90.0836 74.0797 88.1779 74.8813 86.1637C75.1397 85.9077 75.4061 85.6593 75.6775 85.4166C75.6775 85.4166 75.688 85.4076 75.6887 85.408C76.9941 85.5526 78.2761 83.6615 79.5984 85.3648C80.4038 86.1995 81.582 86.6205 82.0839 87.8077C82.9637 89.8898 82.2389 90.6944 79.1584 90.4983C81.2055 92.2819 81.4937 94.1287 79.9406 96.1163C78.6866 97.7213 77.049 99.0566 76.2446 101.248C77.8659 100.519 78.7418 98.2945 80.7223 99.3155C82.544 100.254 82.1582 102.277 82.3862 103.887C83.0586 108.64 82.1179 112.762 77.4049 115.183C76.4347 115.348 75.6274 114.989 74.8619 114.429C73.9654 113.774 73.026 112.5 71.9405 113.987C71.1671 115.047 70.6788 116.455 71.7853 117.584C73.2003 119.028 73.3612 120.511 73.225 122.518C73.0133 125.635 75.7556 125.968 78.1097 126.369C78.3459 128.194 77.4507 129.283 75.8198 129.894C73.7324 129.248 71.6446 128.582 69.8715 127.238C69.2857 126.795 68.9946 126.143 67.9901 126.858C66.2446 128.099 64.9163 126.643 63.5607 125.74C63.1876 124.972 63.3895 124.271 63.8083 123.596C66.2837 119.915 69.2505 116.433 68.6679 111.521C72.7974 108.414 71.2814 103.051 73.5876 99.2301C74.7162 97.3602 75.468 95.2721 77.2059 93.8083C73.493 93.4218 71.9402 95.1223 71.4503 98.4205C71.2271 99.9233 70.7874 101.867 68.514 101.959Z" fill="#FBDE84"/>
<path d="M77.2221 114.606C81.3538 111.288 83.1024 105.202 81.0366 100.754C80.0769 98.6876 78.745 99.7126 78.2599 101.019C77.6453 102.675 76.3386 103.302 75.282 102.593C73.6022 101.465 75.4776 100.466 76.0497 99.5029C76.5808 98.6092 77.1278 97.6435 77.9053 96.9931C80.3254 94.9675 81.3071 93.0141 78.2561 90.7032C77.4907 90.1235 76.9237 89.227 77.9399 88.4062C78.6301 87.8488 79.0771 88.5246 79.4705 89.0645C79.9464 89.7178 80.1658 91.1473 81.3944 90.0626C82.3322 89.2346 81.4712 88.3447 81.0055 87.6154C80.5296 86.8695 79.5499 86.4453 79.5984 85.3647C84.5298 85.5329 85.0305 86.55 83.0002 91.0059C82.384 92.3583 82.1424 93.9179 81.5055 95.3659C80.6975 97.2031 82.2157 97.6806 83.791 98.1019C85.1419 98.4629 87.8414 98.8639 84.5393 100.859C83.318 101.597 82.8526 103.259 84.4143 104.068C92.7846 108.405 91.6124 110.496 88.3554 117.284C87.9421 118.145 87.6192 118.943 86.7172 119.358C85.8921 119.257 85.3356 118.673 84.6768 118.257C82.2062 116.695 80.2016 117.087 78.9222 119.825C78.2961 121.165 77.6085 122.408 76.1436 122.949C75.2521 123.279 74.3 123.326 73.5536 122.634C72.7431 121.883 73.5533 121.209 73.8235 120.545C74.6905 118.417 74.8229 115.861 77.2221 114.606Z" fill="#FCE497"/>
<path d="M77.222 114.607C75.6146 116.845 75.9584 119.963 73.5027 122.091C75.8394 122.905 77.5299 121.935 77.6934 120.283C77.9769 117.423 79.483 116.598 81.9092 116.188C84.5979 115.734 85.6104 117.556 86.7168 119.358C85.5647 120.455 83.9176 121.253 84.3335 123.298C81.6787 124.518 81.6787 124.518 81.4628 127.112C80.1183 127.926 79.1157 126.924 78.0115 126.459C73.4335 127.185 72.1014 125.832 72.7404 120.929C72.889 119.79 72.1287 118.897 71.5893 118.655C70.0235 117.951 69.805 116.831 70.2425 115.545C70.6864 114.239 70.5486 112.392 72.0718 111.848C73.7234 111.259 74.511 112.84 75.4866 113.868C75.8835 114.286 76.6327 114.37 77.222 114.607Z" fill="#FCE18E"/>
<path d="M81.1703 127.253C81.1592 126.872 81.104 126.487 81.1446 126.112C81.291 124.765 78.8219 123.919 80.2934 122.424C81.977 120.714 82.297 123.762 83.6136 123.544C83.8606 123.503 84.0943 123.382 84.334 123.298C82.7514 125.434 83.4193 128.568 81.1748 130.41C80.6814 130 80.4922 129.454 80.4588 128.835C80.4852 128.214 80.715 127.683 81.1703 127.253Z" fill="#FCE497"/>
<path d="M81.1716 128.825C81.1726 129.354 81.1739 129.882 81.1748 130.409C80.6357 131.192 80.0966 131.975 79.5573 132.758C79.3017 132.758 79.0464 132.757 78.7912 132.755C78.0432 130.513 78.948 129.27 81.1716 128.825Z" fill="#FCE18E"/>
<path d="M3.70493 107.499C3.45857 107.496 3.21221 107.495 2.96584 107.495C1.94642 105.003 1.68069 102.281 2.22834 99.7996C3.63319 93.4294 3.27251 86.9111 4.24558 80.4886C4.96912 75.7132 4.68022 70.7177 5.65806 65.8942C6.48858 64.6017 7.10671 63.2765 9.00968 62.9171C10.3615 62.6617 11.3358 61.4393 9.21731 60.4507C8.71474 60.2163 7.98772 59.8311 8.19599 59.4536C9.98149 56.2147 6.51303 52.8316 8.52267 49.6559C9.18017 48.6165 8.81283 47.8281 8.34963 46.7812C6.97495 43.6737 7.02513 40.4456 8.23408 37.2524C8.65665 36.8974 9.33922 36.5579 9.64972 36.9085C11.906 39.4541 15.2675 41.1766 15.8564 44.9897C16.0694 46.3678 17.2883 47.0077 18.0423 48.0182C17.8162 44.679 17.8629 41.2952 14.2214 39.3822C13.0271 38.755 12.3191 37.3045 12.6277 36.0009C13.1639 33.7369 12.4219 31.5879 12.4686 29.3848C12.6004 28.6291 12.928 27.948 13.2556 27.2662C14.1487 25.3145 13.4925 22.4214 16.5612 21.7812C16.9267 21.6733 17.3025 21.6276 17.6835 21.6298C18.4194 21.5524 19.5001 23.0689 19.7544 20.87C20.071 18.1318 21.9038 17.6413 24.3353 18.6162C25.49 19.0791 26.5996 19.9703 28.0197 19.1743C29.207 18.509 30.5319 17.8817 30.9452 20.0353C31.2802 21.7789 30.5557 22.6818 28.8026 23.0644C25.504 23.7843 23.5181 26.1443 21.8936 28.8816C24.8604 25.5841 28.239 23.3823 32.9565 24.5222C34.6905 30.3156 33.9873 36.1042 32.9241 41.8922C31.5738 43.1276 29.3007 42.5439 28.2067 44.2837C26.0916 45.5083 24.8233 44.4747 24.4623 42.4998C24.0436 40.2099 25.1817 38.4964 27.6247 38.4913C30.7766 38.4846 30.6817 37.2731 29.2969 35.1554C30.3042 38.0932 28.4778 38.2264 26.3418 38.6747C22.8873 39.3996 20.9866 44.9655 22.9517 47.8795C23.4962 48.6872 24.2188 48.7072 25.0287 48.5153C26.3218 48.2088 27.6104 47.9125 28.8454 48.7079C29.9077 50.2158 27.1945 50.9058 28.0612 52.3668C28.2787 53.3779 28.9054 54.0663 29.7804 54.5631C29.7813 55.0862 29.7823 55.6094 29.7833 56.1322C28.727 57.8657 30.0185 59.9295 29.0026 61.6683C28.9931 62.715 28.9832 63.7613 28.9737 64.8079C28.6435 65.0554 28.3146 65.0538 27.9876 64.8076C26.9517 63.2933 27.1466 61.5415 27.2637 59.8943C27.4444 57.3528 26.0148 57.5691 24.3636 57.9248C23.1813 57.053 22.5546 55.7192 21.6517 54.6168C20.8761 53.6698 20.0763 53.2125 18.9826 53.8883C16.772 55.2538 14.9996 54.9851 13.589 52.6149C16.186 54.8236 17.6327 58.4762 21.8053 58.3118C22.5892 58.2807 23.3175 58.689 23.6534 59.5215C20.6589 61.7515 18.0829 64.4018 16.6355 67.8602C15.4586 70.6721 16.659 74.0664 14.737 76.7741C14.5271 77.2595 14.3138 77.9163 13.8677 78.0476C9.12302 79.4439 9.63162 84.1745 7.85374 87.439C7.45594 88.1697 7.68484 89.0119 8.05724 89.7182C10.2107 93.8022 9.58845 97.5033 6.55081 100.868C5.73298 101.774 5.71108 102.743 6.1292 103.79C6.90194 105.724 5.93363 106.759 4.26973 107.449C4.08146 107.468 3.8932 107.484 3.70493 107.499Z" fill="#FBDF85"/>
<path d="M13.9803 76.6833C16.2264 73.3861 13.9266 69.2141 16.7239 65.5711C18.7329 62.955 20.3866 60.5369 23.4656 59.2999C23.4303 58.6232 23.6678 58.0823 24.2551 57.7158C25.5127 57.3326 26.1794 55.2631 27.4366 55.8088C29.0017 56.4881 28.0626 58.379 28.1731 59.7289C28.3115 61.418 28.2074 63.1266 28.2077 64.8271C28.8055 66.1437 28.7951 67.4607 28.2087 68.7779C29.4113 71.5577 28.6995 74.1418 27.4023 76.6665C26.3556 77.9913 26.3245 79.3134 27.414 80.6319C28.8573 83.4148 27.961 86.4056 28.1839 89.2971C27.969 89.4823 27.7518 89.5467 27.5325 89.4896C27.3124 89.4325 27.2023 89.3738 27.2016 89.3167C25.6663 84.8453 24.3504 84.5915 20.7225 88.1337C19.9057 88.9313 19.3599 90.1479 17.8729 89.529C16.5483 87.7504 16.7576 85.8082 17.5957 84.0001C18.3224 82.4323 17.4881 82.2073 16.3404 81.9979C14.2749 79.1001 14.5838 78.6839 19.7412 77.346C17.7513 77.6674 15.7302 78.222 13.9803 76.6833Z" fill="#FBDC7B"/>
<path d="M16.3453 81.424C17.4558 81.385 18.7448 80.4745 19.6242 81.6575C20.7839 83.2178 18.7095 83.4072 18.2949 84.3174C17.5638 85.9221 18.0692 87.6482 17.9333 89.3148C17.9 90.0797 17.2034 90.968 17.8415 91.5695C18.6514 92.3325 19.175 91.2637 19.7753 90.8947C24.1975 88.1774 25.0689 88.1844 27.8031 91.0092C27.604 92.8154 28.2171 94.6732 27.4253 96.433C26.2341 100.38 26.2506 104.329 27.3958 108.282C26.7754 108.633 26.6411 109.22 26.6259 109.865C25.3842 110.383 24.1387 110.924 23.2149 109.364C23.3133 109.121 23.3787 108.893 23.4092 108.699C23.1022 108.945 22.899 109.279 22.6586 109.6C21.536 110.228 21.0195 112.031 19.2397 111.339C18.0666 109.269 19.3794 107.908 20.595 106.489C21.857 105.016 21.2487 103.546 20.4636 102.12C19.629 100.603 18.3927 100.788 17.0802 101.385C14.8995 101.3 12.1965 101.857 13.1041 98.0444C13.213 97.5863 13.4997 97.9188 13.1368 97.6945C7.89463 94.4508 12.8629 91.9486 14.0305 89.6016C15.0404 87.5715 16.5866 86.0823 15.3081 83.6273C14.8258 82.7013 15.3525 81.8583 16.3453 81.424Z" fill="#FBD875"/>
<path d="M32.957 24.5216C27.8063 24.6193 24.1118 27.836 20.3357 30.9394C22.1155 26.4423 24.0032 22.3402 29.4143 22.0166C30.401 21.9576 30.6074 21.0556 30.4671 20.2231C30.267 19.0366 29.5191 19.1556 28.7597 19.6892C26.9891 20.9325 25.6093 19.679 24.0762 19.0728C21.8446 18.1908 20.4585 18.9074 20.4779 21.4493C20.4852 22.3988 21.7129 23.5692 20.3544 24.2285C18.6438 25.0584 19.0035 22.6387 17.9041 22.3459C17.6511 22.2783 17.3955 22.2209 17.1409 22.159C15.8132 21.0566 14.202 20.4592 12.7054 19.6556C9.17312 17.7587 9.03787 16.8637 11.9739 14.3761C13.274 13.2746 14.5096 12.1004 15.8227 11.0192C17.098 9.96879 18.6375 9.18137 20.1217 10.3184C22.5729 12.1959 25.7293 12.5129 28.2082 14.2575C28.3241 17.0997 24.8667 15.7549 24.227 17.9027C24.4883 18.6051 25.7487 18.6959 25.9985 18.582C32.6602 15.549 31.2585 21.8487 32.957 24.5216Z" fill="#FCE394"/>
<path d="M28.9948 49.0202C27.7029 49.1233 26.3187 48.6931 25.1431 49.4837C22.1191 51.5167 22.1464 48.6011 21.3829 47.1265C21.2096 46.7918 21.7531 46.1513 21.7613 45.6481C21.8763 38.4575 21.8677 38.4575 28.4433 37.6346C29.0694 36.2053 25.6796 36.1606 27.2648 34.3269C27.8899 33.6038 28.3585 33.529 29.2516 33.6949C32.367 34.2733 30.905 37.113 32.0362 38.7869C29.8691 40.3119 25.7076 37.1834 25.1288 41.7173C24.8574 43.8451 26.4067 44.3471 28.2061 44.283C27.7921 45.4746 26.427 47.2322 29.3735 46.5999C30.1869 46.4254 31.0393 45.4492 31.7127 46.3822C32.4975 47.4701 32.4743 48.7693 31.3743 49.8178C31.2254 49.7414 31.0765 49.6649 30.9234 49.5951C30.3567 49.1471 29.7011 48.9996 28.9948 49.0202Z" fill="#FCE394"/>
<path d="M29.7799 54.5628C28.6462 54.551 27.8585 54.0244 27.4198 52.9787C28.1459 51.1935 29.0951 49.6847 31.3587 49.8062L31.3746 49.818C32.3588 51.9087 28.8564 52.493 29.7799 54.5628Z" fill="#FCE394"/>
<path d="M28.2071 44.283C28.6998 41.3573 31.0736 42.1399 32.9248 41.8918C31.9527 43.8728 29.8945 43.7126 28.2071 44.283Z" fill="#FCE394"/>
<path d="M27.4258 96.4332C27.4194 94.326 27.4131 92.2184 27.4064 90.1112C27.174 89.8457 27.1712 89.5884 27.4337 89.3403C27.6845 89.3334 27.935 89.3191 28.1849 89.2969C27.8757 91.6696 28.9779 94.1924 27.4258 96.4332Z" fill="#FCE394"/>
<path d="M27.415 80.6316C24.8933 79.3172 24.9349 77.9955 27.4033 76.6665C27.4071 77.9879 27.4109 79.3096 27.415 80.6316Z" fill="#FCE394"/>
<path d="M29.0019 61.6682C29.2988 59.8281 28.2771 57.8021 29.7826 56.1321C29.4839 57.9718 30.5017 59.9972 29.0019 61.6682Z" fill="#FCE394"/>
<path d="M28.2088 68.7779C28.2085 67.461 28.2082 66.144 28.2079 64.8271C28.4635 64.8255 28.7187 64.8195 28.9733 64.8081C28.8124 66.1491 29.5194 67.6574 28.2088 68.7779Z" fill="#FCE394"/>
<path d="M10.8022 130.424C9.28655 127.68 8.63666 124.593 6.94831 121.849C5.34885 119.249 6.57211 116.679 9.4618 115.388C10.5282 114.912 11.0044 114.287 10.6441 113.312C10.0685 111.756 9.2167 112.836 8.53126 113.283C6.1924 114.806 5.06662 113.753 4.49833 111.442C7.43374 111.106 10.4038 110.837 11.7918 107.579C11.9985 107.276 12.2372 107.002 12.5001 106.747C15.679 105.028 16.3631 105.379 16.1517 108.844C16.0596 110.35 15.6406 111.797 17.8423 111.949C18.3779 111.968 18.9014 112.08 19.4322 112.132C21.0923 111.626 22.3143 111.693 22.1479 113.967C21.9517 116.646 20.8164 119.048 19.8602 121.466C19.2239 123.076 18.3039 122.986 15.331 121.054C17.5337 123.256 16.3701 126.041 18.7226 127.241C18.9849 127.244 19.2474 127.247 19.51 127.249C19.3636 129.837 16.9568 130.314 15.4012 131.547C14.6056 132.177 13.47 132.124 13.3087 130.874C12.9106 127.791 11.6587 130.39 10.8022 130.424Z" fill="#FBD46C"/>
<path d="M18.7224 127.241C16.8131 128.554 15.6426 128.771 16.5045 125.796C16.9242 124.347 15.5997 123.457 15.1838 122.272C14.8616 121.354 13.5758 120.609 15.0263 119.747C16.2769 119.004 16.8931 119.684 17.175 121.002C17.5497 122.755 18.9513 122.492 19.1037 121.271C19.4472 118.516 21.4712 116.293 21.2908 113.452C21.1591 111.376 20.0971 113.176 19.5044 113.022C19.0371 112.495 19.0901 111.97 19.5095 111.446C20.5765 110.669 20.9086 108.911 22.6789 109.072C22.8544 108.832 23.029 108.753 23.203 108.834C23.3764 108.914 23.4633 108.995 23.4633 109.075C24.2523 110.4 25.7501 108.889 26.6257 109.866C26.6264 110.129 26.6127 110.393 26.6299 110.655C26.8264 113.677 26.214 117.282 25.1399 119.251C26.341 120.148 27.7956 117.33 28.7798 119.387C29.5513 120.999 27.748 121.518 27.1731 122.574C25.572 125.513 24.011 126.818 21.6943 123.259C21.1476 122.42 20.3698 122.534 19.612 122.892C18.7745 123.287 17.9144 123.657 18.3415 124.928C18.5875 125.659 18.6034 126.467 18.7224 127.241Z" fill="#FBD775"/>
<path d="M6.85053 65.613C5.82539 69.7011 4.18784 73.7002 5.21742 78.0735C5.3914 78.8127 5.28504 79.6525 5.15995 80.4218C3.70177 89.3884 2.65472 98.3861 2.96521 107.495C2.9487 108.81 2.93157 110.126 2.91442 111.441C1.00289 105.482 1.73118 99.5368 2.24391 93.4112C2.74299 87.4468 4.42087 81.5535 3.72686 75.4714C3.28969 71.6386 5.37203 67.9264 4.49261 64.0328C5.09678 58.3834 6.41971 52.6915 6.08921 47.097C5.7984 42.1735 7.34515 37.2989 6.0654 32.4357C5.74887 29.0601 5.93554 25.5354 4.99168 22.3451C3.73097 18.084 4.4361 13.0845 7.65533 10.3101C8.07567 13.363 9.09001 16.4483 7.91344 19.486C6.8248 22.2959 10.8339 24.4707 8.1195 27.149C10.4282 27.813 11.4282 24.3115 13.4509 26.4444C13.8128 27.6509 13.0268 28.7232 12.314 29.1112C8.74333 31.0541 8.62395 34.5344 8.049 37.8557C8.02487 43.8204 8.46776 49.7756 8.49507 55.715C8.50999 58.9522 7.9271 62.4002 6.85053 65.613Z" fill="#FDEBB0"/>
<path d="M63.7785 125.669C65.0421 124.607 67.327 128.71 68.0769 124.833C68.088 124.776 69.0185 124.756 69.0522 124.864C70.0649 128.114 74.1464 127.085 75.6446 129.616C75.6846 133.135 76.1732 136.723 74.074 139.916C74.0509 140.779 74.1769 141.69 73.3095 142.279C67.8219 144.078 66.4428 148.957 64.8106 153.634C64.5519 154.376 64.2332 155.068 63.7912 155.71C62.3696 157.681 61.3473 159.989 59.0909 161.252C58.8084 161.241 58.5255 161.23 58.2426 161.218C57.4518 159.451 59.1605 158.04 58.862 155.829C56.1286 159.925 52.8179 158.371 49.552 157.275C48.6742 156.749 49.484 156.221 49.5507 155.695C49.4701 155.168 49.4726 154.641 49.5548 154.114C46.6813 152.307 42.4398 152.788 41.155 148.449C41.4325 148.117 42.5649 147.458 43.1846 147.895C45.9902 149.874 48.4773 147.986 50.2552 146.743C52.9801 144.838 56.287 146.4 58.9871 144.159C60.9314 142.544 60.8895 141.921 59.1798 140.809C57.6334 139.803 56.4711 138.727 56.6629 136.727C56.3387 135.805 57.1162 135.515 57.6058 135.056C58.6001 132.883 59.9412 131.934 61.8822 134.05C63.1591 135.442 64.1389 135.258 65.3726 133.95C66.6047 132.644 67.8289 131.348 66.6885 129.551C65.7761 128.113 64.4932 128.645 63.3007 129.487C62.0559 130.367 60.7149 130 60.6222 128.595C60.4996 126.742 61.6054 125.439 63.7785 125.669Z" fill="#FBD772"/>
<path d="M63.7909 155.71C63.0147 151.1 66.5206 147.979 67.9305 144.137C68.7652 141.863 71.1834 141.983 73.3086 142.279C71.4548 147.689 67.8416 151.855 63.7909 155.71Z" fill="#FBDB80"/>
<path d="M74.0733 139.916C73.2508 137.412 76.9649 134.766 73.6959 132.155C73.0365 131.628 75.4191 130.855 75.6439 129.616C76.4332 128.563 77.2221 127.511 78.0114 126.459C79.3854 125.447 80.1594 126.819 81.1696 127.253C81.1699 127.777 81.1706 128.302 81.1709 128.826C80.1531 130 78.9908 131.088 78.7904 132.756C77.218 135.142 75.6455 137.529 74.0733 139.916Z" fill="#FBDC7C"/>
<path d="M75.6426 86.161C74.6552 88.3238 74.3517 91.1559 70.9471 90.9506C71.3296 89.7876 72.1897 89.0706 73.225 88.5179C74.2358 87.9424 72.8707 84.932 75.6426 86.161Z" fill="#FCE7AD"/>
<path d="M66.1348 99.5627C65.8764 100.996 67.9485 103.382 64.5163 103.519C64.9461 102.155 65.083 100.672 66.1348 99.5627Z" fill="#FCE7AD"/>
<path d="M75.6425 86.161C73.9119 85.9992 74.3157 88.0236 73.2252 88.5179C73.2382 86.8491 73.1093 85.068 75.6768 85.4157C75.6691 85.6648 75.6574 85.9129 75.6425 86.161Z" fill="#FCECB0"/>
<path d="M49.5526 157.275C51.2597 157.394 52.8988 156.218 54.7316 157.674C56.1552 158.804 56.5279 156.999 56.9701 155.966C57.4632 154.813 58.1645 153.746 59.6008 154.306C61.3745 154.998 60.2294 156.284 59.9062 157.264C59.4598 158.617 58.8074 159.903 58.2432 161.218C57.1825 161.739 56.3895 162.526 55.8748 163.592C54.9621 162.237 54.2563 160.322 52.3404 162.736C51.4546 163.853 50.406 164.935 48.6646 163.837C46.7683 162.642 47.7417 161.114 47.9703 159.645C47.8442 158.419 49.0691 158.094 49.5526 157.275Z" fill="#FACF62"/>
<path d="M13.1821 26.1135C11.7763 26.0989 11.1642 27.0786 10.5321 28.1242C9.52852 29.7857 8.09415 28.9111 7.096 28.3146C5.52607 27.3762 6.88519 26.6725 7.62555 26.0757C8.35638 25.4862 8.56751 24.7785 8.08494 24.0228C5.21399 19.5269 7.8008 14.8785 7.65508 10.3104L7.65572 10.3104C9.14882 9.16763 9.8587 7.24473 11.6026 6.35198C12.6979 5.68225 13.7542 4.93416 14.8999 4.36596C16.0022 3.81965 17.3541 3.63154 18.0979 4.76795C19.3043 6.61184 16.8924 5.29015 16.7759 6.09979C16.5607 7.5985 17.8049 8.66413 18.6757 8.48361C23.7703 7.42906 25.2028 12.0899 28.208 14.257C25.3853 13.778 22.3975 13.666 20.2517 11.4116C18.8408 9.92903 17.4042 10.5404 16.4921 11.5899C14.6872 13.6657 12.3182 15.0651 10.0349 17.2535C12.1598 18.25 13.9961 19.1227 15.8432 19.9723C16.7931 20.4092 17.9452 20.6954 17.1404 22.1589L17.1401 22.1589C14.8685 22.2883 13.7389 23.5441 13.5862 25.7626C13.4529 25.8807 13.3176 25.9971 13.1821 26.1135Z" fill="#FCE7A1"/>
<path d="M11.6025 6.35205C10.1644 7.54938 10.571 10.5843 7.65564 10.3105C7.91344 7.93739 9.23478 6.62363 11.6025 6.35205Z" fill="#FDEBB0"/>
<path d="M40.0734 140.691C39.0362 140.646 38.4812 140.138 38.5095 139.068C41.6747 138.968 42.3849 136.019 44.0482 134.218C46.0553 132.045 46.8611 128.908 49.5409 127.245C51.0016 126.911 51.2108 125.054 52.6512 124.692C55.0244 126.954 55.0307 129.88 54.9482 132.832C54.8768 133.18 54.7469 133.51 54.5644 133.815C53.6132 134.84 51.8467 135.116 51.7112 136.906C51.3575 137.515 50.9854 138.109 50.399 138.53C50.0435 138.637 49.6907 138.625 49.3377 138.514C48.0738 138.102 47.3646 135.602 45.4959 137.511C45.2791 137.795 45.033 138.043 44.7708 138.28C43.4513 139.199 42.2192 140.267 40.6159 140.696C40.4356 140.696 40.2546 140.693 40.0734 140.691Z" fill="#FAD57D"/>
<path d="M52.6947 124.873C51.7664 125.827 51.5908 127.78 49.5415 127.244C51.4 123.465 55.5653 121.279 56.6536 116.967C59.4398 115.69 60.8355 113.189 62.2073 110.667C64.7925 112.95 65.4643 115.346 62.7353 118.035C61.5123 119.24 61.766 120.972 61.3618 122.464C61.2434 122.815 61.0552 123.132 60.8202 123.418C58.9052 124.565 56.8054 122.329 54.9043 123.743C54.1916 124.167 53.5808 124.793 52.6947 124.873Z" fill="#FBD982"/>
<path d="M60.6259 123.3C60.5424 120.659 60.5243 118.229 63.0175 116.254C65.4446 114.331 61.6005 112.691 62.2072 110.667C64.3096 107.765 66.4122 104.862 68.5143 101.959C69.0257 101.212 69.5204 100.454 70.0528 99.722C71.3341 97.9603 70.3922 95.4832 71.9618 93.8224C73.5822 92.1076 76.075 93.9937 78.3174 91.7605C77.4154 95.6123 75.5242 98.0701 73.8216 100.562C73.051 101.689 72.2646 102.191 73.3384 103.826C74.3181 105.317 73.7063 108.016 72.2164 108.672C69.3883 109.919 69.5051 111.986 69.5696 114.23C69.6902 118.445 66.4094 120.885 64.5636 124.075C62.8581 122.14 65.4519 120.154 64.4966 118.261C62.2317 119.168 63.3841 122.718 60.6259 123.3Z" fill="#FBD772"/>
<path d="M49.5555 138.307C49.813 138.302 50.0708 138.294 50.3283 138.284C50.7775 138.382 51.0483 138.656 51.1436 139.105C48.2488 140.772 48.7079 142.888 50.9194 145.439C48.399 145.249 46.2557 144.286 44.7552 146.483C44.3848 147.026 43.0224 146.676 43.1771 146.264C44.3752 143.075 40.969 142.598 40.0737 140.691L40.0721 140.689C42.0719 140.263 43.7784 139.397 44.814 137.527L44.8149 137.528C46.6262 136.383 48.0672 137.488 49.5555 138.307Z" fill="#FAC954"/>
<path d="M51.144 139.105C50.8723 138.832 50.6008 138.558 50.3288 138.285C50.3551 137.641 50.4989 137.058 51.1317 136.727C52.374 135.862 53.4569 134.838 54.2966 133.57L54.2969 133.57C54.6255 133.159 54.8312 132.673 55.1144 132.235C55.7208 131.299 56.5488 130.564 57.7054 130.96C58.9089 131.373 58.3784 132.481 58.3184 133.332C58.2575 134.2 59.0651 135.094 58.2419 135.934C57.5933 135.955 57.0034 136.093 56.6634 136.727C55.7078 139.57 52.9451 138.223 51.144 139.105Z" fill="#FACA56"/>
<path d="M49.5545 154.114C50.3603 154.643 50.3574 155.17 49.5504 155.694C48.8487 155.627 47.7226 155.884 47.6452 155.079C47.5147 153.726 48.8243 154.298 49.5545 154.114Z" fill="#FACF62"/>
<path d="M35.293 137.446C34.9895 136.994 34.6806 136.73 34.6634 136.447C34.6498 136.223 34.9927 135.976 35.1774 135.74C35.4108 135.994 35.7632 136.219 35.8365 136.513C35.8876 136.719 35.5571 137.019 35.293 137.446Z" fill="#FACF62"/>
<path d="M12.3936 107.499C10.9306 111.628 8.35618 112.914 4.49881 111.442C3.72448 110.23 3.60544 108.887 3.70545 107.499L3.72798 107.509C4.3331 107.002 5.15155 106.872 5.76524 106.41C9.51688 103.583 9.5099 103.573 12.3936 107.499Z" fill="#FACE5F"/>
<path d="M58.2414 135.933C58.1411 134.43 56.955 133.114 57.8941 131.429C56.0229 131.588 55.5581 133.192 54.2965 133.57C54.2133 130.588 53.4024 127.74 52.6948 124.872C53.2272 124.345 53.7596 123.818 54.2923 123.29C58.5218 122.523 58.7513 122.663 59.5022 126.545C60.072 125.483 59.5914 124.122 60.6241 123.306L60.6254 123.299C62.0185 121.09 61.8083 117.829 64.8707 116.769C67.3905 119.319 64.2377 121.611 64.5634 124.074C63.9373 124.426 63.7983 125.018 63.7783 125.668C62.9887 126.344 62.1782 126.997 61.4172 127.704C60.9737 128.115 60.9616 128.627 61.4305 129.05C61.8871 129.462 62.4544 129.505 62.75 128.943C64.5555 125.515 66.7534 127.536 67.9626 129.047C69.4853 130.949 67.9725 133.155 66.3854 134.251C65.2599 135.028 64.7901 136.26 63.4103 137.089C62.8109 135.096 60.6136 134.879 59.7301 133.285C58.3005 133.841 60.4559 135.965 58.2414 135.933Z" fill="#FAD066"/>
<path d="M12.3932 107.499C9.7051 108.781 10.748 103.795 8.35296 105.015C6.80207 105.806 5.91282 107.834 3.72698 107.508C4.72037 106.196 6.44872 105.129 4.63402 103.102C4.12573 102.535 4.24892 101.085 4.98833 100.533C9.29937 97.3106 9.19777 93.533 6.59667 89.3763C5.92584 88.304 6.11156 87.4081 6.91002 86.5327C7.26306 86.1457 7.91993 85.7098 7.88691 85.3462C7.4634 80.701 10.6379 78.6436 13.9799 76.6833C16.6979 77.0976 19.3558 76.3435 22.3125 75.8901C21.4528 77.8796 20.4987 78.5963 18.5878 78.6198C17.6535 78.6312 14.4914 78.4665 16.3449 81.424C16.2115 82.0417 15.7473 82.9209 15.9966 83.2356C18.1538 85.9573 17.1941 87.8605 14.794 89.8259C13.0037 91.2919 13.3513 94.1691 11.3058 95.414C12.5335 97.2452 13.939 95.5238 15.1143 96.1009C15.6127 97.7484 13.5596 98.0977 13.4898 99.604C14.2539 100.925 16.1109 100.191 17.1408 101.174C17.2614 101.305 17.3821 101.437 17.5043 101.567C18.0119 103.119 17.3671 104.463 15.907 104.473C13.6431 104.488 13.2974 106.191 12.3986 107.491L12.3932 107.499Z" fill="#FBD46C"/>
<path d="M13.1854 29.2703C13.0889 31.4774 15.129 33.571 13.3858 35.9602C13.074 36.3875 13.848 38.0471 14.5382 38.6915C18.3006 42.2035 18.38 42.3783 19.201 46.737C19.4798 48.2167 19.3642 49.7602 18.114 50.1054C16.2751 50.6127 17.0412 48.146 16.6301 47.9185C14.242 46.5978 16.1926 42.1708 12.052 41.8913C11.3431 41.8434 11.1634 37.7575 8.44738 37.1756C8.33531 37.0154 8.22325 36.8552 8.11055 36.695C8.00419 32.993 9.74714 30.5526 13.1854 29.2703Z" fill="#FCE28E"/>
<path d="M24.2557 57.7157C24.2357 58.3648 24.0991 58.9559 23.4661 59.2998C18.7963 60.9771 16.8149 56.4251 13.5061 54.954C12.0531 54.3078 12.3096 52.7544 12.5356 51.4699C12.6112 51.0403 13.1512 50.3475 13.4496 50.362C14.7621 50.4268 15.0129 51.6901 15.2866 52.6006C15.6859 53.9303 16.1549 54.2193 17.4734 53.6549C18.7703 53.1 20.7875 51.3141 21.0383 51.8731C21.959 53.9242 24.5465 55.0787 24.2557 57.7157Z" fill="#FCE394"/>
<path d="M6.85033 65.6131C7.97071 56.1554 7.58783 46.6553 7.6507 37.1681C7.82594 36.9114 8.00119 36.826 8.17644 36.9114C8.35169 36.9964 8.43931 37.0818 8.43931 37.1681L8.44757 37.1757C8.45392 39.7835 7.57895 42.8777 8.68473 44.8783C10.1347 47.5017 10.8115 49.2602 8.61264 51.5445C8.35136 51.8157 8.55011 52.9544 8.9114 53.3284C10.9455 55.435 9.91526 57.3592 8.56788 59.1142C9.49397 60.3341 10.0629 59.4911 10.6613 59.1167C11.5227 58.5777 12.4757 59.5301 12.2192 59.636C10.2232 60.4603 13.1875 65.5824 8.48059 63.8813C7.25575 63.4384 7.88531 65.4697 6.85033 65.6131Z" fill="#FCE28E"/>
<path d="M8.43941 37.168C8.17653 37.168 7.91366 37.168 7.65079 37.168C7.68031 33.8866 6.82947 30.2829 11.4043 28.9574C12.4003 28.6687 13.2009 27.4498 13.1819 26.1135L13.1908 26.1059C14.6452 26.0421 14.4699 26.7874 13.9781 27.69C13.7143 28.2166 13.4502 28.7436 13.186 29.2702C11.3094 31.7258 8.24511 33.4688 8.43941 37.168Z" fill="#FCE7A1"/>
<path d="M31.3584 49.8062C30.0453 50.8636 28.7325 51.921 27.4194 52.9787C25.1288 50.54 27.8687 50.1009 28.9944 49.0203C29.3827 48.3557 29.7574 47.4937 30.6904 47.7954C31.6406 48.1022 31.2682 49.0831 31.3584 49.8062Z" fill="#FBDC7B"/>
<path d="M13.9776 27.6901C13.9582 27.0413 13.821 26.4509 13.1902 26.106C12.8238 23.1086 14.1436 21.7961 17.1396 22.1591C14.1417 22.8926 15.3735 26.0417 13.9776 27.6901Z" fill="#FCE394"/>
<path d="M27.4337 89.3403C27.4273 89.5973 27.4181 89.8542 27.4067 90.1112C24.1081 89.8181 20.9584 89.7911 18.9592 93.2105C18.3757 94.2086 17.1816 94.0176 16.7753 93.0078C16.2133 91.6122 15.5327 89.9021 17.9334 89.3152C20.0697 88.082 21.1028 85.6043 23.7347 84.7677C26.585 83.8616 27.8991 84.0919 27.4305 87.405C27.341 88.037 27.4283 88.6944 27.4337 89.3403Z" fill="#FBD46C"/>
<path d="M19.5099 111.446C19.5083 111.971 19.5067 112.497 19.5048 113.022C18.9803 113.022 18.4562 113.022 17.9317 113.022C15.5182 111.562 14.4134 107.592 16.5723 105.709C18.573 103.964 17.6666 102.758 17.1402 101.174C17.7815 98.7916 20.0588 99.125 20.6014 100.248C21.5925 102.299 24.4226 104.762 21.4551 107.145C19.8804 108.409 19.3788 109.658 19.5099 111.446Z" fill="#FBDC84"/>
<path d="M23.4634 109.075C23.2018 109.073 22.9405 109.072 22.6789 109.072C23.2316 108.089 23.8148 107.142 25.3184 106.944C25.5965 108.524 24.1523 108.502 23.4634 109.075Z" fill="#FBDC84"/>
<path d="M17.1409 101.174C18.3584 102.826 20.3179 103.963 17.1961 106.256C15.0976 107.798 15.4316 110.982 17.932 113.022C15.3376 113.099 14.3064 111.912 15.0582 109.382C15.3522 108.393 16.0402 107.211 15.077 106.519C14.0985 105.815 13.5359 107.743 12.3993 107.491C12.3701 105.261 11.9152 102.895 15.7161 103.776C17.2365 104.128 17.0491 102.285 17.1409 101.174Z" fill="#FBD875"/>
<path d="M49.5557 138.307C47.8857 138.592 46.3964 137.781 44.8151 137.528C45.4342 136.932 44.7684 135.342 45.8777 135.435C47.5568 135.574 49.0487 136.432 49.5557 138.307Z" fill="#FAD066"/>
<path d="M44.8145 137.527C44.4147 140.35 42.9747 141.615 40.0726 140.689C41.4403 139.316 43.0629 138.325 44.8145 137.527Z" fill="#FAD066"/>
<path d="M54.2959 133.57C54.0619 135.444 53.0184 136.508 51.131 136.727C50.6824 134.169 52.846 134.227 54.2959 133.57Z" fill="#FAD066"/>
<path d="M60.6242 123.306C60.4887 124.411 60.9341 125.584 60.1452 126.815C58.2365 125.546 57.5133 122.194 54.2924 123.291C56.4094 120.76 58.5136 123.293 60.6242 123.306Z" fill="#FBD772"/>
</svg>
