<svg width="33" height="17" viewBox="0 0 33 17" fill="none" xmlns="http://www.w3.org/2000/svg">
<path d="M3.32211 4.50802C7.5642 0.714279 13.262 -1.15339 18.7847 0.758586C21.9233 1.84538 24.0338 3.78699 26.1842 6.21095L26.8957 4.95992L27.033 4.70262C27.7938 3.34802 29.6299 1.03231 31.1422 1.24611C32.69 2.19392 29.749 6.44723 29.2785 7.7549L29.2974 7.7884C30.2289 9.40622 32.9848 11.3996 32.9369 13.6628C32.9347 13.7849 32.7612 14.0223 32.6421 14.0413C30.3407 14.4062 27.5295 11.7524 26.4906 10.1707L26.3955 10.021C25.6528 11.3889 24.754 11.915 23.6214 12.8694C17.4627 18.0597 9.66529 16.9042 3.58421 12.2771C3.27638 12.0424 2.96128 11.825 2.64619 11.6056C2.62078 11.5708 2.59319 11.5367 2.56124 11.5051C2.52422 11.468 2.48429 11.434 2.44146 11.4039L1.5216 10.7559C1.46642 10.7086 1.40979 10.6619 1.35534 10.6126C1.35244 10.6194 1.34881 10.6258 1.3459 10.6326L0.871816 10.299C-0.169286 9.56615 -0.299974 8.06607 0.59883 7.16256C0.764361 6.99636 0.896505 6.80518 0.994517 6.59942C1.00904 6.62037 1.02356 6.64117 1.03808 6.66219C1.83524 5.95788 2.55399 5.19452 3.32211 4.50802ZM25.3878 7.73424C21.7549 2.76524 15.1249 -0.295871 9.25072 2.63684C6.66611 3.92758 9.19556 4.42371 9.24057 5.58511L9.00244 5.73547C8.01724 5.83985 6.78229 5.12948 5.99674 4.58715C4.86344 5.24372 3.91744 6.12985 2.94894 7.00577C2.58957 7.33125 2.27157 7.833 1.89622 8.04935C1.65373 8.42045 1.63776 8.3203 1.67189 8.68374C1.97463 9.06418 2.38264 9.28702 2.5627 9.59118C4.26084 10.7802 4.92587 11.5212 6.9725 12.5116C7.73554 12.1046 9.07286 11.3983 9.88527 11.9057L9.91285 12.1737C9.73571 12.6269 9.24056 12.9724 8.85722 13.2986C9.88018 13.9752 10.596 14.2124 11.799 14.4704C17.2456 15.6381 22.6086 12.7365 25.8176 8.37081C25.6847 8.15242 25.5388 7.94176 25.3878 7.73424Z" fill="#D8B991"/>
<path d="M30.6471 2.2207C29.8916 4.24715 29.5082 5.16382 28.453 7.02959C28.8731 8.36857 29.7662 9.35556 30.4565 10.5653C30.9167 11.3707 31.3453 12.1593 31.8277 12.9531C29.4315 11.7375 28.9656 11.4184 27.0166 9.54594C27.0954 9.22945 27.5671 8.21803 27.714 7.89119C27.2625 7.06705 26.8747 6.81491 27.4667 6.0316C28.7326 4.6121 28.7011 3.72145 30.6471 2.2207Z" fill="#F7E5B5"/>
</svg>
