<svg width="333" height="214" viewBox="0 0 333 214" fill="none" xmlns="http://www.w3.org/2000/svg">
<g filter="url(#filter0_d_62_1408)">
<path d="M132.922 180.107C141.696 171.316 150.927 171.485 160.944 175.609C164.058 176.891 165.883 178.907 169.194 179.294L168.356 180.406C171.241 185.896 176.331 189.805 175.834 194.982C172.027 200.485 163.299 201.133 158.176 201.205C145.955 201.376 138.019 197.723 132 182.65L132.922 180.107Z" fill="#8B3A2E"/>
<path d="M106.757 38.5044C121.915 19.9555 155.621 -6.52797 184.03 8.36998C185.969 9.392 185.742 10.765 186.008 12.7281C180.555 24.6317 163.455 32.6435 151.903 38.9681C149.875 38.6126 144.626 38.505 142.321 38.3937C136.954 37.9726 130.348 38.114 124.861 38.0859C121.105 37.8729 114.947 38.7324 111.014 39.1581L106.757 38.5044Z" fill="#8B3A2E"/>
<path d="M185.998 52.1867C113.06 9.53199 40.8906 45.499 7.99985 117.72C16.8254 130.378 32.7689 152.553 46.1312 160.596C62.2571 174.754 82.0464 184.114 103.217 187.595C148.793 195.221 186.963 178.508 223.035 153.035C234.233 145.813 241.768 137.418 250.607 127.719C266.824 146.921 284.136 151.966 308.579 145.474C314.654 143.858 320.86 142.02 324.288 136.349L323.402 133.677C320.794 132.907 317.613 130.756 315.176 129.283C311.265 127.08 307.901 125.464 303.886 123.573L302.843 123.247C302.061 122.374 292.245 116.664 288.855 113.887L289.168 112.062C291.423 110.146 294.2 107.33 296.403 105.244L298.15 104.254C306.441 95.9625 315.306 87.6714 323.78 79.5237C287.056 62.6809 266.237 74.3352 247.647 107.304C224.847 85.8984 214.717 68.9253 185.998 52.1867Z" fill="#D4735E"/>
<path d="M223.034 153.035C208.29 134.954 182.765 128.983 160.225 126.311C132.809 123.065 101.509 128.879 77.027 141.694C66.8065 147.052 56.0253 155.551 46.1307 160.596C62.2567 174.754 82.0459 184.114 103.217 187.594C148.792 195.221 186.963 178.508 223.034 153.035Z" fill="#8B3A2E"/>
<path d="M114.351 148.328C114.823 151.851 117.868 154.455 121.424 154.391C124.98 154.319 127.921 151.595 128.257 148.056C128.592 144.518 126.219 141.29 122.742 140.547C119.266 139.804 115.782 141.794 114.647 145.165C114.311 146.179 114.207 147.265 114.351 148.328Z" fill="#FFE9D5"/>
<path d="M162.266 172.715C168.582 175.116 173.31 170.824 170.418 164.704C168.249 163.064 169.291 163.426 166.42 163.426C163.528 164.724 163.259 165.059 161.288 167.467C161.515 169.323 161.621 170.949 162.266 172.715Z" fill="#FFE9D5"/>
<path d="M81.5275 156.173C80.7819 158.149 81.907 159.438 83.1252 160.764C86.5669 162.084 89.0965 161.395 90.2881 158.023C89.1497 153.646 86.5269 153.021 82.3862 153.552L81.5275 156.173Z" fill="#FFE9D5"/>
<path d="M108.347 173.079C108.673 174.957 110.28 176.342 112.181 176.391C114.089 176.44 115.763 175.141 116.187 173.282C116.612 171.43 115.664 169.527 113.929 168.746C112.193 167.964 110.144 168.512 109.036 170.063C108.415 170.937 108.163 172.02 108.347 173.079Z" fill="#FFE9D5"/>
<path d="M186.347 154.079C186.673 155.957 188.28 157.342 190.181 157.391C192.089 157.44 193.763 156.141 194.187 154.282C194.612 152.43 193.664 150.527 191.929 149.746C190.193 148.964 188.144 149.512 187.036 151.063C186.415 151.937 186.163 153.02 186.347 154.079Z" fill="#FFE9D5"/>
<path d="M164.424 146.013C163.169 145.218 161.584 145.187 160.298 145.919C159.011 146.659 158.241 148.043 158.29 149.522C158.334 151.006 159.198 152.335 160.534 152.987C162.442 153.919 164.747 153.192 165.779 151.341C166.817 149.484 166.22 147.143 164.424 146.013Z" fill="#FFE9D5"/>
<path d="M143.465 157.392C139.815 157.82 138.202 158.381 137.288 162.029C137.853 164.498 138.283 164.631 140.239 166.392C143.573 165.473 145.038 165.165 146.288 161.769C145.576 158.893 145.932 159.911 143.465 157.392Z" fill="#FFE9D5"/>
<path d="M185.998 52.1866C181.592 56.3191 178.333 58.3397 173.157 61.4815L173.405 62.3679C174.37 66.0441 174.435 66.2397 174.148 69.929C171.932 73.4618 170.355 73.8529 166.535 75.9256C165.779 79.4194 169.976 83.4214 167.63 86.4719C164.384 90.6827 160.682 89.4312 161.138 95.5061L163.693 99.4431C161.19 103.758 160.864 103.08 155.884 105.896L154.398 106.196C158.517 106.822 159 106.769 162.793 105.075C165.805 101.698 165.192 103.224 166.078 99.0128C165.427 97.0574 163.719 93.7592 164.892 92.6903C173.405 85.0249 172.597 72.3667 177.081 62.5373C178.033 60.4515 183.977 60.934 185.998 52.1866Z" fill="#FFE9D5"/>
<path d="M303.886 123.573L302.843 123.247C298.762 125.438 295.842 126.637 292.661 130.026L293.913 129.062L293.509 130.861C297.746 129.674 301.396 127.21 303.886 123.573Z" fill="#FFE9D5"/>
<path d="M298.149 104.254C296.207 100.564 294.656 96.3927 291.279 94.3982C291.41 98.3873 294.147 101.698 296.403 105.244L298.149 104.254Z" fill="#FFE9D5"/>
<path d="M289.168 112.062C286.795 106.887 283.849 102.181 279.339 98.5566C281.763 103.941 283.836 108.868 289.168 112.062Z" fill="#FFE9D5"/>
<path d="M315.175 129.283C310.038 130.808 305.606 131.76 301.474 135.306C307.666 134.472 310.625 134.159 315.175 129.283Z" fill="#FFE9D5"/>
<path d="M60.7881 94.0662C60.7881 94.0662 44.9411 94.1425 42.43 97.8922C37.5094 105.24 40.4928 116.288 52.2317 122.296C69.5663 120.243 72.5586 104.369 60.7881 94.0662Z" fill="white"/>
<path d="M60.7832 93.0662H60.7344C60.703 93.0664 60.6564 93.0674 60.5967 93.0681C60.4773 93.0696 60.303 93.0721 60.0811 93.0769C59.6367 93.0864 59.0001 93.1042 58.2295 93.1375C56.69 93.2038 54.6059 93.3324 52.4375 93.5798C50.2761 93.8264 47.9963 94.1955 46.0791 94.7527C45.1204 95.0313 44.2239 95.3651 43.4678 95.7703C42.7217 96.17 42.0402 96.6763 41.5986 97.3357C36.2465 105.328 39.676 116.994 51.7764 123.186L52.0469 123.325L52.3496 123.289C61.3187 122.226 66.8191 117.533 68.3916 111.528C69.9532 105.565 67.545 98.6516 61.4463 93.3132L61.1621 93.0642L60.7832 93.0662Z" stroke="#0E2F4F" stroke-opacity="0.58" stroke-width="2"/>
<path d="M57.0155 99.6777C53.0263 99.0519 49.2458 101.646 48.3854 105.583C47.538 109.533 49.8976 113.457 53.7825 114.539C56.5071 115.308 59.4271 114.487 61.3696 112.44C63.312 110.381 63.9638 107.421 63.0383 104.736C62.1257 102.063 59.8052 100.108 57.0155 99.6777Z" fill="#232323"/>
<path d="M102.775 39.1242L102.044 39.5674C101.719 43.739 100.48 45.6554 98.7072 49.3838C104.587 53.425 104.574 52.3169 107.233 57.8182C106.62 64.0104 106.399 62.5896 101.901 68.1691L102.357 69.4856C105.994 71.2064 106.36 71.2456 109.019 74.1527C110.27 78.5198 110.544 78.7935 109.032 82.8478C106.737 85.0379 104.678 86.3547 104.13 89.353C109.58 93.0423 110.935 93.29 109.931 99.6256C107.024 101.946 105.29 102.754 104.326 106.118L107.298 110.289C105.89 114.813 105.773 113.809 101.784 117.551L99.4763 117.85L100.271 118.919L104.587 118.228C115.694 109.572 109.866 83.8126 109.684 71.376C109.514 59.6433 102.814 49.6184 102.775 39.1242Z" fill="#FFE9D5"/>
<path d="M163.889 44.2215L162.376 43.9476C161.021 49.0187 157.775 51.4566 154.007 55.2893C155.454 59.8259 158.022 61.638 157.983 65.5619C157.905 71.2978 151.178 72.7447 147.541 76.3428C149.94 79.1195 150.539 79.4585 151.296 82.9C150.148 86.9283 146.329 89.2227 142.874 92.0515C143.187 96.4317 143.096 95.0499 146.759 99.1173C145.951 103.68 143.448 105.075 139.732 108.816L143.865 112.114L142.952 113.835L137.177 117.094L137.477 118.267C142.04 118.281 140.384 118.841 144.217 116.625C145.221 114.357 149.64 99.2866 149.301 98.8434C141.401 92.3252 161.047 70.5808 159.652 65.979C154.868 50.2703 162.311 56.606 163.889 44.2215Z" fill="#FFE9D5"/>
<path d="M135.481 37.8468C134.673 38.3422 129.524 45.8772 128.859 47.4676C132.313 50.2182 135.194 51.6913 136.211 55.7847C135.507 61.8988 135.377 59.852 130.293 65.4576C140.461 82.2222 130.945 77.1251 126.812 86.0941C129.198 89.2098 129.198 89.1575 130.606 92.8076C128.937 98.8825 127.751 98.296 121.858 103.119C123.514 110.107 123.566 109.403 118.899 114.396L116.513 114.656L117.165 115.569L121.48 115.374C127.907 110.85 141.569 61.2599 135.833 51.1829C130.136 41.158 136.772 46.7115 135.481 37.8468Z" fill="#FFE9D5"/>
<path d="M78.5264 46.594L77.7181 47.0894C80.3776 55.1067 77.3531 56.658 78.9565 62.394C90.5589 71.1022 84.6664 74.5437 81.0423 85.1422C84.8229 86.8109 85.3704 86.876 88.2384 89.6919C90.6371 99.9645 84.9793 97.8136 81.5899 105.935C83.9104 107.121 86.2439 108.282 88.6035 109.403L89.4639 112.206C88.1081 117.003 86.1786 118.15 82.5154 121.579L80.6383 122.517L83.4411 122.583C87.6649 120.458 89.2683 120.092 91.8625 116.103C92.1102 110.55 90.0636 108.764 87.0261 103.393C88.9425 100.16 90.0896 97.9309 91.68 94.5285C90.8978 87.9842 90.7022 89.4442 86.2438 83.5518C85.9831 76.1342 82.7111 51.7955 78.5264 46.594Z" fill="#FFE9D5"/>
<path d="M199.829 66.735C196.492 68.3124 193.128 69.2771 191.59 72.471C193.246 75.4302 193.689 76.395 194.927 79.5498C192.829 91.4389 188.07 84.8424 183.325 90.6827L186.271 96.549C185.776 102.298 184.876 105.244 180.796 109.077C171.214 118.033 173.77 116.677 162.102 116.716C169.533 126.845 181.044 113.157 185.632 107.382C189.7 102.298 188.996 100.76 188.096 94.6979L187.849 93.0814C190.104 88.2189 191.356 90.07 196.674 85.5334C198.161 80.4492 195.879 78.8457 194.849 72.9272L199.829 66.735Z" fill="#FFE9D5"/>
<path d="M214.678 74.8567C214.169 75.1435 208.081 79.2367 208.068 79.2628C203.362 91.4908 202.358 104.697 196.036 116.599C193.924 120.575 190.73 120.445 186.232 121.735L185.711 122.687L188.801 123.508C203.128 120.81 197.835 115.204 202.906 104.436C207.821 93.9808 207.638 83.8126 214.678 74.8567Z" fill="#FFE9D5"/>
<path d="M219.775 98.0482C217.455 98.4393 217.494 98.7131 215.591 100.186L217.82 104.449C214.47 114.174 209.672 104.488 208.512 120.445C206.035 123.313 202.176 123.469 198.187 124.303L199.582 125.933C202.502 126.35 205.748 126.884 207.808 124.173C214.613 115.217 219.58 109.103 219.775 98.0482Z" fill="#FFE9D5"/>
<path d="M239.434 102.076L234.571 104.449C232.407 114.018 226.997 112.74 225.576 123.704L226.684 123.951C232.12 116.169 235.001 108.542 239.434 102.076Z" fill="#FFE9D5"/>
<path d="M224.742 123.938C217.989 124.773 218.198 126.141 214.522 131.643C219.463 130.613 221.392 127.654 224.742 123.938Z" fill="#FFE9D5"/>
<path d="M50.3397 105.548C51.8803 105.032 53.55 105.839 54.1062 107.367C54.6619 108.889 53.9029 110.584 52.3929 111.181C51.3784 111.584 50.2251 111.401 49.3822 110.707C48.5393 110.013 48.1391 108.916 48.3386 107.845C48.5377 106.769 49.3037 105.892 50.3397 105.548Z" fill="white"/>
</g>
<defs>
<filter id="filter0_d_62_1408" x="0" y="0" width="332.288" height="213.211" filterUnits="userSpaceOnUse" color-interpolation-filters="sRGB">
<feFlood flood-opacity="0" result="BackgroundImageFix"/>
<feColorMatrix in="SourceAlpha" type="matrix" values="0 0 0 0 0 0 0 0 0 0 0 0 0 0 0 0 0 0 127 0" result="hardAlpha"/>
<feOffset dy="4"/>
<feGaussianBlur stdDeviation="4"/>
<feComposite in2="hardAlpha" operator="out"/>
<feColorMatrix type="matrix" values="0 0 0 0 0 0 0 0 0 0 0 0 0 0 0 0 0 0 0.15 0"/>
<feBlend mode="normal" in2="BackgroundImageFix" result="effect1_dropShadow_62_1408"/>
<feBlend mode="normal" in="SourceGraphic" in2="effect1_dropShadow_62_1408" result="shape"/>
</filter>
</defs>
</svg>
