<svg width="491" height="148" viewBox="0 0 491 148" fill="none" xmlns="http://www.w3.org/2000/svg">
<g filter="url(#filter0_d_50_34846)">
<path d="M395.214 41.902C414.94 31.2563 444.705 1.93957 469.973 4.11485C472.407 4.32908 474.131 8.72897 475.487 11.0031C476.184 13.2773 478.285 20.7261 479.076 22.4729L480.067 28.9657C482.702 37.3043 482.624 39.7927 483 48.5762L481.561 59.7328L479.048 67.0001C477.17 71.2847 475.291 77.7941 471.136 79.1949C458.025 83.5949 428.842 75.5036 414.281 72.9163L405.573 72.7514C395.723 79.7222 385.216 87.4675 375.166 93.9933C352.13 107.325 338.063 113.538 312.902 122.239L311.216 122.569L297.584 125.963C284.711 129.309 256.516 135.587 243.777 134.104C233.217 135.67 229.237 136.098 218.646 135.802C216.439 135.752 213.29 135.357 211.004 135.143C174.83 134.335 149.328 130.808 114.456 119.981L104.372 116.537L101.043 116.373C81.7672 104.145 18.4299 89.8077 8.76307 64.8414C0.824894 44.3245 57.1271 31.5859 70.7985 27.6473C96.078 21.4675 137.977 14.1507 163.791 14.299L165.648 14.0683C174.311 13.4915 183.724 13.3104 192.463 12.9808C218.746 11.992 269.216 15.5844 294.761 19.8526L305.201 21.6652L312.192 23.1484C340.617 27.911 367.353 34.8159 395.214 41.902Z" fill="#FFD23F"/>
<path d="M395.214 41.902C414.94 31.2563 444.705 1.93957 469.973 4.11485C472.407 4.32908 474.131 8.72897 475.487 11.0031C476.184 13.2773 478.285 20.7261 479.076 22.4729L480.067 28.9657C482.702 37.3043 482.624 39.7927 483 48.5762L481.561 59.7328L479.048 67.0001C477.17 71.2847 475.291 77.7941 471.136 79.1949C458.025 83.5949 428.842 75.5036 414.28 72.9163L405.573 72.7514C395.723 79.7222 385.216 87.4675 375.166 93.9933C352.13 107.325 338.063 113.538 312.902 122.239L311.216 122.569L297.584 125.963C292.861 112.895 308.194 97.4705 321.293 96.1027C320.524 86.5941 320.365 83.4631 321.461 74.0698C312.002 65.2039 306.06 60.5732 292.978 66.7036L291.184 63.5065C306.821 48.5267 311.562 46.7965 308.876 24.6811L312.192 23.1484C340.617 27.911 367.353 34.8159 395.214 41.902Z" fill="#FF6B35"/>
<path d="M475.487 11.0032C476.184 13.2773 478.285 20.7261 479.076 22.473L480.067 28.9657C482.702 37.3043 482.624 39.7927 483 48.5763L481.562 59.7328L479.049 67.0001C477.17 71.2848 475.291 77.7942 471.137 79.1949C458.026 83.5949 428.842 75.5036 414.281 72.9164C413.599 66.3576 411.581 63.9021 408.195 58.4144L406.348 56.7335C400.834 24.8953 453.624 21.1215 474.1 11.6624L475.487 11.0032Z" fill="#3F6CD4"/>
<path d="M481.561 59.7329C467.921 61.3809 420.282 66.7367 420.531 45.5112C423.867 39.0018 425.037 38.2767 430.645 33.9261C434.135 37.4692 436.622 39.5786 435.531 45.2805C447.035 53.4707 468.824 49.8123 483 48.5764L481.561 59.7329Z" fill="#FF6B35"/>
<path d="M408.194 58.4145C432.312 68.3021 453.089 70.4279 479.048 67.0002C477.169 71.2848 475.291 77.7942 471.136 79.195C458.025 83.595 428.841 75.5037 414.28 72.9164C413.598 66.3576 411.581 63.9021 408.194 58.4145Z" fill="#FFD23F"/>
<path d="M480.067 28.9658C482.702 37.3044 482.625 39.7928 483 48.5763C468.825 49.8123 447.036 53.4707 435.531 45.2804C445.401 28.7022 466.302 35.574 480.067 28.9658Z" fill="#06BCC1"/>
<path d="M430.645 33.926C442.953 27.2354 465.098 23.9066 479.076 22.4729L480.067 28.9657C466.301 35.5739 445.4 28.702 435.531 45.2803C436.622 39.5784 434.135 37.4691 430.645 33.926Z" fill="#FF6B35"/>
<path d="M395.214 41.902C414.94 31.2563 444.705 1.93957 469.973 4.11485C472.407 4.32908 474.131 8.72897 475.487 11.0031L474.099 11.6623C453.624 21.1215 400.833 24.8953 406.347 56.7334C374.641 44.4563 380.381 67.3628 362.777 63.2264C343.124 58.6122 340.428 48.7575 321.461 74.0698C312.002 65.2039 306.06 60.5732 292.978 66.7036L291.184 63.5065C306.821 48.5267 311.562 46.7965 308.876 24.6811L312.192 23.1484C340.617 27.911 367.353 34.8159 395.214 41.902Z" fill="#FFD23F"/>
<path d="M391.333 70.2795C397.877 67.8241 399.423 68.5162 405.573 72.7514C395.723 79.7222 385.216 87.4675 375.166 93.9934L373.497 90.5328C376.874 86.7754 377.907 85.0945 380.646 80.7934C386.115 77.2997 387.422 75.2233 391.333 70.2795Z" fill="#F6AD78"/>
<path d="M323.441 98.4429C344.789 96.5642 333.467 84.0893 344.136 74.0863C357.155 61.8751 368.13 73.8392 376.062 82.4085L380.646 80.7933C377.907 85.0945 376.874 86.7754 373.497 90.5327C371.639 80.0848 365.284 70.0653 353.753 70.3619C342.406 77.1185 341.54 92.9881 337.257 98.9537C337.421 98.7229 321.449 101.739 319.415 102.151L323.441 98.4429Z" fill="#3F6CD4"/>
<path d="M311.216 122.569C309.215 113.176 309.1 108.578 316.956 103.222C312.539 111.643 312.656 112.648 312.902 122.239L311.216 122.569Z" fill="#3F6CD4"/>
<path d="M380.646 80.7933C383.424 73.9874 384.825 73.7896 391.332 70.2795C387.422 75.2233 386.115 77.2997 380.646 80.7933Z" fill="#3F6CD4"/>
<path d="M192.463 12.9808C218.746 11.9921 269.217 15.5844 294.761 19.8526L305.201 21.6653L312.192 23.1485L308.876 24.6812C311.562 46.7965 306.821 48.5267 291.184 63.5065L292.978 66.7036L290.775 68.4503C286.701 75.3222 287.408 76.8879 281.209 79.4916C266.448 78.3051 269.011 72.1417 250.183 73.4271L248.846 72.6856C236.485 77.7119 227.715 75.174 215.779 71.2355C211.929 71.3014 213.536 71.9276 210.759 69.4228C199.69 58.4145 201.511 56.1403 194.655 42.9403L188.078 41.7538L188.538 39.0346L189.841 37.8317L193.36 32.7231C194.261 23.4947 194.355 22.0115 192.463 12.9808Z" fill="#FF6B35"/>
<path d="M294.761 19.8526L305.201 21.6653L312.192 23.1485L308.876 24.6812C311.562 46.7965 306.821 48.5268 291.184 63.5065L292.978 66.7037L290.775 68.4504C286.701 75.3223 287.408 76.8879 281.209 79.4917C266.448 78.3052 269.011 72.1418 250.183 73.4272L248.846 72.6857C236.485 77.7119 227.715 75.1741 215.779 71.2355C211.929 71.3014 213.536 71.9277 210.759 69.4228C199.69 58.4146 201.511 56.1403 194.655 42.9403L188.078 41.7538L188.538 39.0347L189.841 37.8317L193.36 32.7232C197.155 36.7606 201.83 34.1403 205.042 37.4032C208.918 41.2759 210.149 53.7344 213.796 57.0797C230.157 72.043 239.937 58.0025 254.148 53.1082C263.22 49.9935 284.002 61.0676 290.473 47.4556C295.086 37.7493 294.966 29.7073 294.761 19.8526Z" fill="#FFD23F"/>
<path d="M256.672 62.7321C265.127 66.1104 266.566 66.2422 275.699 66.8519L276.205 69.0273L272.916 70.9388C281.343 70.8729 284.425 68.9777 290.774 68.4504C286.701 75.3223 287.408 76.888 281.208 79.4917C266.447 78.3052 269.01 72.1418 250.182 73.4272L248.846 72.6857C253.061 68.5823 253.859 67.8407 256.672 62.7321Z" fill="#FFD23F"/>
<path d="M189.841 37.8316L199.675 39.4795C201.168 46.4503 200.741 54.3604 205.014 58.4308C208.753 61.9739 212.168 63.8854 213.213 68.0547L210.759 69.4226C199.69 58.4144 201.511 56.1401 194.655 42.9401L188.078 41.7537L188.538 39.0345L189.841 37.8316Z" fill="#3F6CD4"/>
<path d="M305.201 21.6652L312.191 23.1484L308.876 24.681C311.562 46.7964 306.821 48.5266 291.183 63.5064L288.936 62.4682C303.746 49.3012 309.561 42.0996 305.201 21.6652Z" fill="#3F6CD4"/>
<path d="M215.778 71.2354L216.289 69.5215C234.408 69.5874 239.271 81.0901 254.362 61.562L256.672 62.732C253.859 67.8406 253.061 68.5823 248.846 72.6856C236.485 77.7118 227.714 75.174 215.778 71.2354Z" fill="#3F6CD4"/>
<path d="M275.7 66.8518L283.319 64.7094L285.207 65.7806C281.262 68.3349 280.946 68.2692 276.206 69.0272L275.7 66.8518Z" fill="#3F6CD4"/>
<path d="M292.978 66.7036C306.06 60.5733 312.002 65.2039 321.461 74.0699C320.365 83.4631 320.524 86.5942 321.293 96.1028C308.194 97.4706 292.861 112.895 297.584 125.963C284.71 129.309 256.516 135.588 243.777 134.104C235.873 121.629 230.668 120.624 217.659 115.104C215.867 114.346 212.901 101.327 211.792 98.2122L214.905 95.3283C221.431 94.5043 227.747 97.2398 234.052 99.3162C238.396 86.2975 239.832 82.2766 250.183 73.4271C269.01 72.1417 266.448 78.3051 281.209 79.4916C287.408 76.8879 286.701 75.3222 290.775 68.4503L292.978 66.7036Z" fill="#06BCC1"/>
<path d="M154.292 86.9239C163.37 95.4602 181.091 82.8206 193.698 78.9149C199.268 84.2378 208.361 91.3568 208.386 99.613L211.792 98.2123C212.901 101.327 215.868 114.346 217.659 115.104C230.668 120.624 235.874 121.63 243.777 134.104C233.217 135.67 229.237 136.098 218.646 135.802C216.439 135.752 213.29 135.357 211.004 135.143C174.83 134.335 149.328 130.808 114.456 119.981C115.593 97.4706 117.928 93.2026 138.361 83.4303C142.676 83.8258 146.987 84.2541 151.293 84.732L154.292 86.9239Z" fill="#FF6B35"/>
<path d="M211.004 135.143C218.687 132.44 217.174 129.21 215.322 123.656C210.754 120.08 208.6 117.872 202.563 117.098L202.135 115.301L204.562 112.895C210.363 115.598 214.677 116.801 218.049 122.041C219.45 127.842 219.087 129.803 218.646 135.802C216.439 135.752 213.29 135.357 211.004 135.143Z" fill="#3F6CD4"/>
<path d="M165.648 14.0682C174.311 13.4914 183.725 13.3103 192.464 12.9807C194.355 22.0114 194.262 23.4945 193.36 32.723L189.842 37.8316L188.538 39.0345L188.078 41.7537L186.515 43.3026C173.545 57.409 166.935 57.508 149.942 49.4496C113.848 78.7994 112.826 47.7851 95.0401 42.7589L93.2274 44.4563C97.2896 51.0481 99.1551 53.1244 99.0892 60.6225L95.5329 61.6277C96.2794 57.8539 95.4703 53.9319 93.2901 50.7514C91.1098 47.5873 87.7431 45.4285 83.9495 44.7693L76.888 40.633C73.2477 35.4749 72.7648 33.5139 70.7988 27.6472C96.0784 21.4674 137.977 14.1506 163.791 14.2989L165.648 14.0682Z" fill="#06BCC1"/>
<path d="M165.647 14.0682C174.311 13.4914 183.724 13.3103 192.463 12.9807C194.355 22.0114 194.261 23.4945 193.359 32.723L189.841 37.8316L188.537 39.0345C172.969 35.3267 169.779 28.0757 165.647 14.0682Z" fill="#06BCC1"/>
<path d="M163.79 14.2991L165.647 14.0683C169.779 28.0758 172.969 35.3268 188.537 39.0347L188.078 41.7538L186.514 43.3028C186.042 42.9238 171.209 34.2721 169.149 32.9867C165.723 26.4773 162.379 21.4182 163.79 14.2991Z" fill="#3F6CD4"/>
<path d="M95.5325 61.6278C94.0098 69.3402 86.5561 74.3665 78.8371 72.9163C71.1181 71.4497 66.0259 64.0338 67.43 56.305C68.8341 48.5761 76.2087 43.4181 83.9491 44.7694C87.7426 45.4286 91.1094 47.5874 93.2896 50.7514C95.4699 53.932 96.279 57.854 95.5325 61.6278Z" fill="#F2EAEE"/>
<path d="M76.2852 48.9631C81.005 47.3811 86.1202 49.853 87.8242 54.5332C89.5265 59.1968 87.2013 64.3878 82.5755 66.217C79.4675 67.453 75.9342 66.8927 73.3519 64.7668C70.7696 62.641 69.5435 59.2793 70.1549 55.9999C70.7646 52.704 73.1113 50.0178 76.2852 48.9631Z" fill="#232323"/>
<path d="M75.0774 49.7193C77.3883 48.9446 79.8929 50.1551 80.7272 52.4469C81.5607 54.7306 80.4222 57.2726 78.1573 58.1683C76.6355 58.7735 74.9056 58.4991 73.6412 57.4582C72.3768 56.4172 71.7765 54.771 72.0758 53.1651C72.3744 51.5512 73.5234 50.2358 75.0774 49.7193Z" fill="white"/>
<path d="M104.372 116.537C107.956 97.273 116.295 82.8206 138.361 83.4304C117.928 93.2027 115.593 97.4707 114.456 119.982L104.372 116.537Z" fill="#FFD23F"/>
<path d="M154.292 86.9239C164.631 85.9516 176.192 63.7539 193.698 78.9149C181.091 82.8205 163.371 95.4602 154.292 86.9239Z" fill="#3F6CD4"/>
<path d="M76.8875 40.6331L83.949 44.7694C76.2085 43.4181 68.8339 48.5762 67.4299 56.305C66.0258 64.0338 71.118 71.4497 78.837 72.9164C86.556 74.3666 94.0097 69.3402 95.5324 61.6278L99.0886 60.6226C90.7797 96.1027 39.7048 63.5559 76.8875 40.6331Z" fill="#4D5872"/>
<path d="M98.94 63.598L91.8271 67.6453C96.8676 61.6175 96.0879 52.6519 90.0966 47.5715C84.1052 42.4912 75.1368 43.1932 70.0072 49.1447C64.8918 55.1045 65.5179 64.0727 71.4356 69.2476L70.528 72.83C43.9558 47.8942 97.6796 19.9355 98.94 63.598Z" fill="#4D5872"/>
<path d="M101.043 116.373C106.915 94.2408 125.744 66.3081 151.292 84.7321C146.986 84.2542 142.675 83.8258 138.361 83.4303C116.295 82.8206 107.956 97.273 104.372 116.537L101.043 116.373Z" fill="#3F6CD4"/>
</g>
<defs>
<filter id="filter0_d_50_34846" x="0" y="0" width="491" height="147.889" filterUnits="userSpaceOnUse" color-interpolation-filters="sRGB">
<feFlood flood-opacity="0" result="BackgroundImageFix"/>
<feColorMatrix in="SourceAlpha" type="matrix" values="0 0 0 0 0 0 0 0 0 0 0 0 0 0 0 0 0 0 127 0" result="hardAlpha"/>
<feOffset dy="4"/>
<feGaussianBlur stdDeviation="4"/>
<feComposite in2="hardAlpha" operator="out"/>
<feColorMatrix type="matrix" values="0 0 0 0 0 0 0 0 0 0 0 0 0 0 0 0 0 0 0.15 0"/>
<feBlend mode="normal" in2="BackgroundImageFix" result="effect1_dropShadow_50_34846"/>
<feBlend mode="normal" in="SourceGraphic" in2="effect1_dropShadow_50_34846" result="shape"/>
</filter>
</defs>
</svg>
