<svg width="317" height="209" viewBox="0 0 317 209" fill="none" xmlns="http://www.w3.org/2000/svg">
<g filter="url(#filter0_d_79_18575)">
<path d="M231.814 75.2185C190.476 33.2348 135.798 -15.3585 71.9941 11.9259C57.8702 17.9679 42.0541 32.5704 34.0605 45.5953C29.7871 51.8447 27.4694 56.2273 24.5656 63.2906C24.1508 64.2987 21.3194 71.2671 20.9046 71.992C8.94045 66.4373 10.2047 75.788 13.5431 83.5275C3.4424 89.1072 8.72978 97.4861 16.8222 96.8691C17.2107 111.008 18.5473 122.833 24.1574 135.932C40.4278 173.945 82.5096 197.418 123.163 196.143C164.922 194.833 199.069 161.238 219 127.092C222.365 121.326 225.098 113.1 228.785 107.846L230.444 103.969C233.638 96.1046 234.81 92.387 234.481 83.7612C234.105 81.4995 233.658 79.2884 233.21 77.0397L231.814 75.2185Z" fill="#79C3C6"/>
<path d="M90.4702 130.379C90.3517 129.945 84.5441 122.184 83.9318 121.5C67.3782 103.043 78.9144 83.058 71.0656 63.0897C66.733 52.0797 55.4339 40.1525 42.5875 42.432C39.8154 42.9232 36.7338 44.3929 34.0605 45.5953C29.7871 51.8446 27.4694 56.2273 24.5656 63.2905C24.1508 64.2986 21.3194 71.2671 20.9046 71.992C8.94045 66.4373 10.2047 75.788 13.5431 83.5275C3.4424 89.1072 8.72978 97.486 16.8222 96.8691C17.2107 111.008 18.5473 122.833 24.1574 135.932C40.4278 173.945 82.5096 197.418 123.163 196.143C164.922 194.833 199.069 161.238 219 127.092C222.365 121.326 225.098 113.1 228.785 107.846L230.444 103.969C233.638 96.1046 234.81 92.387 234.481 83.7612C234.105 81.4994 233.658 79.2883 233.21 77.0397L231.814 75.2184C225.651 106.899 203.283 127.608 174.601 140.796C171.862 142.055 166.324 143.933 164.105 145.324C161.182 145.902 158.284 146.569 155.4 147.324C149.902 148.448 142.291 149.655 136.707 149.779C133.145 149.66 129.352 149.108 125.79 148.683C112.772 147.128 102.856 140.601 93.3213 132.173L90.4702 130.379Z" fill="#FFDA80"/>
<path d="M93.3211 132.173L90.4701 130.379C89.8577 147.777 100.162 166.489 120.008 166.996C131.689 167.295 124.492 156.071 121.384 151.167C131.4 161.609 139.584 170.754 156.045 171.234C173.238 171.736 177.781 160.123 165.461 147.86C165.191 147.664 164.915 147.467 164.645 147.27L164.105 145.324C161.181 145.902 158.284 146.569 155.4 147.324C149.902 148.448 142.29 149.655 136.707 149.779C133.144 149.66 129.352 149.108 125.79 148.684C112.772 147.128 102.856 140.601 93.3211 132.173Z" fill="#FF8C42"/>
<path d="M93.3207 132.173C92.5173 136.281 93.0375 140.319 93.9133 144.39L95.4343 143.832C95.2961 141.551 94.9734 140.26 96.0204 138.248L97.1529 138.395C100.05 142.288 100.518 144.497 101.788 149.223C106.398 152.736 108.729 154.483 112.442 159.11C110.822 155.457 108.808 151.621 108.261 147.741L108.775 146.467C113.219 146.352 114.734 151.273 116.235 154.779C118.329 159.664 119.962 160.652 124.63 162.906C122.266 159.634 115.188 152.258 119.468 149.16C122.391 149.049 122.589 149.252 125.374 150.43L125.789 148.683C112.771 147.128 102.855 140.601 93.3207 132.173Z" fill="#1D5087"/>
<path d="M164.105 145.324C161.181 145.901 158.284 146.569 155.4 147.324C149.902 148.448 142.29 149.655 136.707 149.779C136.18 150.029 134.784 150.65 134.349 150.935C140.644 156.127 149.349 162.7 157.817 163.827C158.712 158.877 146.788 158.859 144.595 152.73L145.155 151.693C150.258 149.814 165.165 158.352 168.49 162.68C168.444 154.211 160.483 155.566 156.697 148.782C160.345 148.586 161.471 148.886 164.645 147.27L164.105 145.324Z" fill="#1D5087"/>
<path d="M136.707 149.779C133.144 149.66 129.352 149.108 125.789 148.684L125.375 150.43C131.143 155.188 136.555 161.939 142.066 165.843L141.507 165.015C138.814 161.024 132.064 155.09 132.084 152.193C133.256 151.395 133.046 151.444 134.349 150.935C134.784 150.65 136.18 150.029 136.707 149.779Z" fill="#1D5087"/>
<path d="M95.4341 143.832L93.9131 144.39C94.6835 146.632 103.098 157.819 104.527 158.371C101.637 152.669 97.8902 148.712 95.4341 143.832Z" fill="#1D5087"/>
<path d="M20.9043 71.9921C8.94019 66.4373 10.2045 75.7881 13.5428 83.5275C3.44214 89.1073 8.72951 97.4861 16.8219 96.8691C17.8623 86.8053 19.4294 81.2578 20.9043 71.9921Z" fill="#FF8C42"/>
<path d="M142.646 55.2377C140.664 54.5806 138.511 55.5715 137.721 57.5061C136.924 59.4406 137.767 61.6583 139.644 62.5821C140.974 63.2386 142.561 63.0964 143.759 62.214C144.957 61.3317 145.563 59.8554 145.326 58.3877C145.096 56.9201 144.062 55.7052 142.646 55.2377Z" fill="#F0E3C4"/>
<path d="M111.026 102.023C109.769 101.242 108.182 101.226 106.904 101.983C105.634 102.741 104.89 104.144 104.975 105.623C105.061 107.101 105.963 108.409 107.313 109.014C109.216 109.866 111.461 109.096 112.435 107.254C113.416 105.411 112.798 103.124 111.026 102.023Z" fill="#F0E3C4"/>
<path d="M189.627 71.1024C187.664 70.3471 185.452 71.2591 184.59 73.1785C183.734 75.0972 184.524 77.3537 186.394 78.3157C187.697 78.986 189.265 78.882 190.463 78.0451C191.668 77.2082 192.307 75.7754 192.129 74.3209C191.958 72.867 190.99 71.6285 189.627 71.1024Z" fill="#F0E3C4"/>
<path d="M84.518 55.2752C82.5031 54.5811 80.2973 55.6123 79.5401 57.6041C78.7829 59.5966 79.7377 61.8314 81.7064 62.6551C83.0365 63.2122 84.5641 63.0001 85.69 62.102C86.8226 61.2039 87.3691 59.7619 87.1255 58.3409C86.8819 56.9193 85.881 55.744 84.518 55.2752Z" fill="#F0E3C4"/>
<path d="M98.3445 67.878C96.2638 67.606 94.3346 69.0125 93.9593 71.0761C93.584 73.1403 94.8877 75.1381 96.9289 75.6188C98.3446 75.9519 99.8327 75.4778 100.794 74.3848C101.755 73.2924 102.032 71.7589 101.518 70.3972C101.011 69.0355 99.7866 68.0669 98.3445 67.878Z" fill="#F0E3C4"/>
<path d="M85.2949 102.031C84.0438 101.263 82.4635 101.256 81.2059 102.014C79.9482 102.771 79.2173 104.167 79.3095 105.633C79.4017 107.099 80.3037 108.392 81.647 108.986C83.5433 109.823 85.7624 109.048 86.7237 107.214C87.6851 105.38 87.0595 103.113 85.2949 102.031Z" fill="#F0E3C4"/>
<path d="M176.648 34.2264C174.705 33.2973 172.381 34.0987 171.426 36.0253C170.472 37.9513 171.235 40.2888 173.151 41.2712C174.409 41.9198 175.924 41.8388 177.109 41.0592C178.294 40.2796 178.966 38.9225 178.873 37.5075C178.775 36.0925 177.925 34.8388 176.648 34.2264Z" fill="#F0E3C4"/>
<path d="M176.971 52.6117C175.153 51.5187 172.796 52.0645 171.644 53.845C170.491 55.6254 170.959 57.9985 172.704 59.2087C173.883 60.0279 175.41 60.1398 176.701 59.5004C177.985 58.8604 178.821 57.5712 178.874 56.1371C178.933 54.7023 178.202 53.3511 176.971 52.6117Z" fill="#F0E3C4"/>
<path d="M154.083 100.182C152.009 99.8077 150.014 101.134 149.553 103.189C149.092 105.244 150.337 107.296 152.371 107.84C153.76 108.213 155.249 107.793 156.236 106.745C157.231 105.698 157.566 104.192 157.119 102.823C156.664 101.453 155.505 100.439 154.083 100.182Z" fill="#F0E3C4"/>
<path d="M153.253 134.325C151.35 133.284 148.967 133.98 147.926 135.881C146.879 137.781 147.577 140.166 149.48 141.209C151.377 142.254 153.767 141.558 154.807 139.656C155.854 137.755 155.156 135.368 153.253 134.325Z" fill="#F0E3C4"/>
<path d="M194.328 55.3008C192.398 54.6325 190.278 55.557 189.455 57.4263C188.632 59.2957 189.376 61.485 191.174 62.4595C192.471 63.1654 194.058 63.0805 195.276 62.2396C196.494 61.3988 197.133 59.9456 196.935 58.4798C196.738 57.0141 195.73 55.7848 194.328 55.3008Z" fill="#F0E3C4"/>
<path d="M152.976 23.5521C150.935 23.2953 149.039 24.6616 148.637 26.6824C148.236 28.7025 149.467 30.6891 151.449 31.2323C152.871 31.6195 154.385 31.1836 155.373 30.1024C156.367 29.0205 156.677 27.4752 156.17 26.0964C155.67 24.7175 154.432 23.7358 152.976 23.5521Z" fill="#F0E3C4"/>
<path d="M97.4959 7.82704C96.225 7.18439 94.7106 7.28185 93.5319 8.08187C92.3533 8.88123 91.7015 10.2581 91.8266 11.677C91.9517 13.0953 92.8405 14.3332 94.1443 14.9087C96.0867 15.768 98.365 14.9225 99.2736 13.0018C100.182 11.0811 99.3922 8.78641 97.4959 7.82704Z" fill="#F0E3C4"/>
<path d="M155.262 40.8201C153.958 40.1109 152.378 40.1932 151.16 41.0328C149.942 41.8723 149.303 43.3255 149.5 44.7899C149.705 46.2549 150.712 47.481 152.108 47.961C154.037 48.6214 156.144 47.6983 156.967 45.8368C157.784 43.9754 157.046 41.7952 155.262 40.8201Z" fill="#F0E3C4"/>
<path d="M190.68 90.0981C189.35 89.5681 187.842 89.8038 186.736 90.7124C185.636 91.6211 185.116 93.0585 185.386 94.4623C185.65 95.8662 186.664 97.0125 188.02 97.453C190.028 98.1036 192.188 97.0448 192.906 95.0609C193.623 93.0763 192.636 90.881 190.68 90.0981Z" fill="#F0E3C4"/>
<path d="M129.233 36.8101C127.298 35.8619 124.96 36.6541 124.005 38.582C123.051 40.5106 123.827 42.8495 125.75 43.8167C127.686 44.7899 130.05 44.0024 131.011 42.0606C131.979 40.1195 131.176 37.7642 129.233 36.8101Z" fill="#F0E3C4"/>
<path d="M168.852 115.188C166.745 114.768 164.697 116.122 164.256 118.223C163.821 120.323 165.151 122.385 167.252 122.844C169.372 123.311 171.472 121.954 171.914 119.825C172.361 117.697 170.985 115.613 168.852 115.188Z" fill="#F0E3C4"/>
<path d="M214.147 71.0939C212.138 70.4065 209.946 71.4449 209.208 73.434C208.471 75.4232 209.458 77.6383 211.427 78.4258C212.744 78.9526 214.245 78.7234 215.345 77.8259C216.451 76.9285 216.978 75.5042 216.728 74.1057C216.478 72.7071 215.49 71.5542 214.147 71.0939Z" fill="#F0E3C4"/>
<path d="M94.0583 84.2695C92.8928 83.4398 91.3587 83.3173 90.0747 83.9514C88.7841 84.5849 87.9478 85.8728 87.8886 87.3063C87.8359 88.7397 88.5668 90.0889 89.8047 90.8211C91.6089 91.8924 93.9332 91.3492 95.0789 89.5898C96.2181 87.8304 95.7703 85.4823 94.0583 84.2695Z" fill="#F0E3C4"/>
<path d="M129.186 95.4599C127.25 94.5421 124.939 95.3546 123.998 97.2819C123.063 99.2085 123.846 101.532 125.762 102.491C127.02 103.121 128.521 103.026 129.693 102.243C130.859 101.459 131.517 100.108 131.412 98.7048C131.313 97.3016 130.457 96.0624 129.186 95.4599Z" fill="#F0E3C4"/>
<path d="M106.458 46.01C105.141 45.4931 103.653 45.7242 102.56 46.6144C101.467 47.5046 100.933 48.9157 101.17 50.3064C101.414 51.697 102.382 52.8513 103.712 53.3267C105.72 54.0451 107.933 53.0185 108.683 51.0208C109.434 49.0224 108.44 46.7922 106.458 46.01Z" fill="#F0E3C4"/>
<path d="M125.829 77.6363C124.103 76.4221 121.726 76.7974 120.462 78.4844C119.191 80.1714 119.494 82.5602 121.14 83.8798C122.253 84.7707 123.761 84.986 125.078 84.4408C126.395 83.8962 127.31 82.6774 127.468 81.2611C127.626 79.8454 126.994 78.4561 125.829 77.6363Z" fill="#F0E3C4"/>
<path d="M196.244 109.948C194.256 109.827 192.498 111.218 192.155 113.178C191.819 115.137 193.005 117.039 194.914 117.595C196.356 118.013 197.903 117.571 198.911 116.457C199.912 115.343 200.188 113.752 199.615 112.365C199.049 110.978 197.739 110.039 196.244 109.948Z" fill="#F0E3C4"/>
<path d="M122.069 58.6214C120.376 57.3071 117.94 57.6041 116.61 59.2864C115.286 60.9694 115.563 63.4083 117.236 64.749C118.928 66.1054 121.397 65.8242 122.74 64.1221C124.083 62.4207 123.781 59.9501 122.069 58.6214Z" fill="#F0E3C4"/>
<path d="M175.99 128.313C174.008 127.761 171.94 128.838 171.262 130.776C170.577 132.713 171.519 134.848 173.402 135.657C174.745 136.231 176.286 136.012 177.412 135.089C178.538 134.167 179.058 132.693 178.762 131.268C178.459 129.843 177.392 128.704 175.99 128.313Z" fill="#F0E3C4"/>
<path d="M88.7243 34.2225C87.4403 33.6365 85.9391 33.7925 84.7999 34.6301C83.6608 35.467 83.0616 36.855 83.2394 38.2575C83.4172 39.66 84.3325 40.8584 85.6428 41.3891C87.6116 42.1858 89.8568 41.264 90.6931 39.3137C91.5293 37.364 90.6602 35.1015 88.7243 34.2225Z" fill="#F0E3C4"/>
<path d="M209.848 94.1628C207.951 93.1179 205.568 93.8139 204.534 95.7148C203.507 97.6151 204.218 99.9928 206.121 101.013C208.011 102.023 210.361 101.319 211.388 99.4364C212.409 97.5539 211.724 95.1979 209.848 94.1628Z" fill="#F0E3C4"/>
<path d="M139.59 110.545C138.372 109.785 136.845 109.75 135.6 110.453C134.356 111.157 133.592 112.486 133.618 113.916C133.645 115.347 134.454 116.648 135.719 117.307C137.575 118.27 139.86 117.597 140.901 115.781C141.941 113.966 141.362 111.655 139.59 110.545Z" fill="#F0E3C4"/>
<path d="M117.229 119.097C115.168 118.84 113.265 120.251 112.91 122.301C112.554 124.352 113.878 126.318 115.906 126.768C117.308 127.078 118.77 126.593 119.705 125.504C120.64 124.416 120.903 122.9 120.383 121.561C119.87 120.222 118.658 119.275 117.229 119.097Z" fill="#F0E3C4"/>
<path d="M74.5421 18.4703C73.3503 17.6874 71.8359 17.6143 70.5782 18.2806C69.3206 18.9463 68.5238 20.2441 68.5041 21.6671C68.4843 23.09 69.2416 24.4102 70.4795 25.1121C72.3034 26.1492 74.6277 25.5493 75.7207 23.757C76.8203 21.9653 76.2936 19.6259 74.5421 18.4703Z" fill="#F0E3C4"/>
<path d="M135.528 135.612C134.323 134.913 132.828 134.918 131.616 135.626C130.411 136.333 129.681 137.635 129.7 139.033C129.72 140.432 130.49 141.712 131.715 142.386C133.579 143.413 135.929 142.745 136.976 140.888C138.017 139.031 137.378 136.678 135.528 135.612Z" fill="#F0E3C4"/>
<path d="M166.377 84.28C164.606 83.046 162.176 83.4852 160.951 85.2584C159.727 87.0323 160.181 89.4627 161.959 90.6762C163.73 91.8805 166.133 91.4321 167.345 89.6727C168.563 87.9133 168.129 85.5034 166.377 84.28Z" fill="#F0E3C4"/>
<path d="M66.3832 36.8398C65.0531 36.1801 63.4596 36.3381 62.2875 37.2474C61.1089 38.1568 60.5559 39.6574 60.8587 41.1126C61.1616 42.5677 62.2678 43.7227 63.7098 44.0868C65.6325 44.5741 67.6144 43.5297 68.3058 41.667C68.9906 39.8035 68.1676 37.7215 66.3832 36.8398Z" fill="#F0E3C4"/>
<path d="M148.697 78.9103C147.314 78.4797 145.806 78.8524 144.785 79.8769C143.765 80.9021 143.403 82.4087 143.837 83.7875C144.272 85.1663 145.444 86.1875 146.866 86.4384C148.881 86.7933 150.823 85.5212 151.311 83.532C151.791 81.5428 150.646 79.52 148.697 78.9103Z" fill="#F0E3C4"/>
<path d="M131.228 17.0387C129.898 16.4994 128.384 16.7351 127.284 17.6524C126.184 18.5702 125.677 20.0195 125.974 21.4213C126.263 22.8232 127.31 23.9498 128.68 24.3502C130.662 24.9276 132.749 23.8524 133.427 21.9033C134.106 19.9543 133.138 17.8157 131.228 17.0387Z" fill="#F0E3C4"/>
<path d="M109.473 17.0525C108.183 16.5257 106.701 16.7371 105.608 17.6049C104.515 18.4728 103.975 19.8628 104.193 21.2422C104.41 22.6217 105.358 23.776 106.668 24.2626C108.644 25 110.856 24.0104 111.62 22.0403C112.39 20.0708 111.429 17.8499 109.473 17.0525Z" fill="#F0E3C4"/>
<path d="M165.784 64.4395C164.526 63.8495 163.045 63.9845 161.912 64.7931C160.786 65.6023 160.174 66.9594 160.326 68.3422C160.477 69.7249 161.366 70.9187 162.643 71.4645C164.573 72.2883 166.811 71.4125 167.667 69.4964C168.523 67.5803 167.687 65.331 165.784 64.4395Z" fill="#F0E3C4"/>
<path d="M228.785 107.845C241.467 101.61 244.74 118.346 249.731 126.21C259.212 141.164 276.108 152.564 294.11 153.14C300.879 153.357 305.159 148.461 304.079 141.741C300.293 120.46 283.075 104.135 262.834 97.935C259.436 96.869 247.479 94.1647 245.516 92.6391L245.747 91.5842C249.039 89.7702 254.096 89.8472 257.81 89.2731C267.265 87.8119 277.149 85.8359 285.564 81.0457C296.534 74.8029 305.107 62.5286 308.149 50.4019C309.097 46.6177 309.709 42.2654 307.431 38.8177C305.864 36.4374 302.934 34.8696 300.175 34.3784C295.73 33.5883 290.449 34.894 286.11 35.9389C254.834 43.471 250.857 72.0044 240.841 77.0752C238.418 78.3006 236.463 77.8206 233.961 77.2253L233.21 77.0396C233.658 79.2883 234.105 81.4994 234.481 83.7611C234.81 92.3869 233.638 96.1045 230.444 103.969L228.785 107.845Z" fill="#FF8C42"/>
<path d="M292.839 39.3024C270.689 44.6201 273.889 53.3367 261.036 69.1396C253.062 78.9499 246.866 82.4746 234.48 83.7613C234.81 92.387 233.638 96.1046 230.444 103.969C232.367 104.146 233.651 104.422 235.514 103.902C237.496 100.203 234.724 101.875 235.824 98.2716C236.475 98.1663 237.127 98.0616 237.779 97.9569C241.796 100.667 245.648 105.012 250.013 107.003C254.787 109.075 259.982 109.318 265.046 110.253C281.184 113.235 288.164 127.232 296.191 139.448C295.947 138.554 295.69 137.663 295.42 136.775C290.831 121.621 280.493 107.782 264.512 103.499C258.435 101.871 239.735 101.54 238.471 91.7825C237.72 86.0355 246.155 86.2864 250.566 87.5783C259.587 90.2227 273.52 83.3965 279.808 76.9568C287.644 66.787 288.948 62.7276 299.983 55.4853C284.477 57.6279 279.874 67.3677 270.327 77.6719C263.419 85.1229 257.776 85.5029 248.525 85.6991C276.062 76.8185 266.527 63.9312 282.528 46.0753C284.2 44.2053 290.416 40.7148 292.839 39.3024Z" fill="#1D5087"/>
<path d="M239.459 105.622L238.939 106.004C241.553 109.211 248.144 112.302 251.015 115.162C254.939 119.086 255.953 124.514 261.596 127.338C272.256 132.675 276.661 130.535 286.183 138.796C286.459 138.675 286.472 138.266 286.591 137.988C278.4 123.92 273.968 129.516 262.004 123.209C260.76 122.555 258.146 117.62 256.611 116.135C251.989 111.655 245.168 108.562 239.459 105.622Z" fill="#1D5087"/>
<path d="M45.2051 57.1664C53.1311 55.8892 60.5921 61.2797 61.8694 69.206C63.1463 77.1322 57.7562 84.593 49.8304 85.8704C41.9045 87.1477 34.4438 81.7578 33.1663 73.8317C31.8891 65.9053 37.2791 58.4437 45.2051 57.1664Z" fill="white" stroke="#0E2F4F" stroke-width="2"/>
<path d="M54.1458 71.8227C54.5239 67.6798 51.2216 63.992 46.7698 63.5856C42.318 63.1792 38.4026 66.2083 38.0245 70.3512C37.6464 74.494 40.9487 78.1819 45.4005 78.5882C49.8523 78.9946 53.7677 75.9656 54.1458 71.8227Z" fill="black"/>
<path d="M52.4859 76.8578C52.3675 78.1562 51.3023 79.1205 50.107 79.0112C48.9116 78.902 48.0388 77.7609 48.1572 76.4625C48.2757 75.1642 49.3409 74.1999 50.5362 74.3092C51.7316 74.4184 52.6047 75.5595 52.4859 76.8578Z" fill="white"/>
<path d="M59.0489 89.927C59.3483 89.0057 60.6517 89.0057 60.9511 89.9271L62.9187 95.9828C63.0526 96.3948 63.4365 96.6738 63.8697 96.6738H70.2371C71.2058 96.6738 71.6086 97.9134 70.8249 98.4828L65.6736 102.225C65.3231 102.48 65.1764 102.931 65.3103 103.343L67.2779 109.399C67.5773 110.32 66.5228 111.087 65.7391 110.517L60.5878 106.775C60.2373 106.52 59.7627 106.52 59.4122 106.775L54.2609 110.517C53.4772 111.087 52.4227 110.32 52.7221 109.399L54.6897 103.343C54.8236 102.931 54.6769 102.48 54.3264 102.225L49.1751 98.4828C48.3914 97.9134 48.7942 96.6738 49.7629 96.6738H56.1303C56.5635 96.6738 56.9474 96.3948 57.0813 95.9828L59.0489 89.927Z" fill="#F68238"/>
</g>
<defs>
<filter id="filter0_d_79_18575" x="0" y="0" width="317" height="208.192" filterUnits="userSpaceOnUse" color-interpolation-filters="sRGB">
<feFlood flood-opacity="0" result="BackgroundImageFix"/>
<feColorMatrix in="SourceAlpha" type="matrix" values="0 0 0 0 0 0 0 0 0 0 0 0 0 0 0 0 0 0 127 0" result="hardAlpha"/>
<feOffset dy="4"/>
<feGaussianBlur stdDeviation="4"/>
<feComposite in2="hardAlpha" operator="out"/>
<feColorMatrix type="matrix" values="0 0 0 0 0 0 0 0 0 0 0 0 0 0 0 0 0 0 0.15 0"/>
<feBlend mode="normal" in2="BackgroundImageFix" result="effect1_dropShadow_79_18575"/>
<feBlend mode="normal" in="SourceGraphic" in2="effect1_dropShadow_79_18575" result="shape"/>
</filter>
</defs>
</svg>
