<svg width="301" height="304" viewBox="0 0 301 304" fill="none" xmlns="http://www.w3.org/2000/svg">
<g filter="url(#filter0_d_50_34716)">
<path d="M264.392 140.466C263.897 139.507 263.621 138.583 263.621 137.696C263.621 133.658 265.401 130.854 267.92 128.321C272.676 123.541 280.069 119.731 283.118 110.425C287.781 96.1888 271.837 84.9646 267.004 76.2879C260.998 65.503 249.484 65.9408 236.554 84.7019C233.167 89.6158 229.762 96.9474 226.9 103.958C222.645 114.38 219.592 124.093 219.592 124.093C219.592 124.093 210.282 126.752 202.225 127.671C200.544 127.863 198.917 127.978 197.441 127.978C191.761 123.121 187.98 116.768 185.743 109.441C176.347 78.6639 194.225 30.6834 213.374 4C201.259 5.80371 186.784 12.0562 171.205 21.1115C168.276 22.8106 165.31 24.6126 162.314 26.502C162.312 26.502 162.312 26.504 162.312 26.504C154.44 31.4606 146.358 37.0263 138.215 42.999C136.516 44.2454 134.813 45.5086 133.11 46.7893V46.7913C121.182 55.7551 109.194 65.5012 97.6159 75.4125C93.1388 79.2446 88.7229 83.1015 84.3963 86.9472C72.0513 97.916 60.4283 108.791 50.1595 118.742C26.8045 141.373 10.4567 159.219 8.56568 162.494C2.93371 172.25 41.2115 165.678 41.2115 165.678C41.2115 165.678 25.6668 169.953 13.2308 169.953C0.793154 169.953 13.4629 172.828 31.1862 190.551C35.8226 195.188 42.4355 200.127 50.1481 205.167C63.0907 213.626 79.1308 222.368 94.1302 230.446C95.5591 231.216 96.9766 231.979 98.3827 232.737C107.042 237.395 115.208 241.792 122.046 245.74C126.865 248.522 131.601 251.23 136.122 253.798L140.321 256.177C158.672 266.551 172.567 274.11 172.567 274.11C172.567 274.11 175.92 275.731 180.791 277.988L180.798 277.992C183.652 279.314 187.027 280.853 190.555 282.412C200.776 286.927 212.278 291.6 216.095 291.6C223.479 291.6 212.598 269.447 209.487 259.731C206.378 250.016 203.659 236.801 200.16 220.865C197.904 210.586 199.205 205.321 200.413 201.018C201.078 198.652 201.714 196.576 201.714 194.118C201.714 187.192 207.774 176.751 212.598 168.398C213.641 166.589 214.598 165.419 215.578 164.694C215.578 164.692 215.577 164.691 215.577 164.69C215.139 161.468 214.484 158.329 213.658 155.253C214.484 158.329 215.139 161.468 215.577 164.69C215.577 164.691 215.577 164.692 215.578 164.694C219.123 162.07 222.979 165.289 232.418 165.289C234.325 165.289 235.894 165.764 237.233 166.598C244.346 171.029 244.907 185.627 254.721 193.309C266.378 202.435 272.906 193.168 285.445 184.722C309.031 168.832 270.405 152.113 264.392 140.466Z" fill="#4A6FA5"/>
<path d="M249.618 152.46C253.424 149.415 256.468 146.181 260.463 143.326C261.793 142.385 263.09 141.411 264.392 140.466C263.897 139.507 263.622 138.583 263.622 137.696C263.622 133.658 265.401 130.854 267.92 128.321C259.545 126.389 251.437 123.277 243.72 119.161C237.061 115.546 230.972 110.979 226.977 104.129C226.948 104.072 226.925 104.015 226.901 103.958C222.646 114.38 219.592 124.093 219.592 124.093C219.592 124.093 210.282 126.752 202.226 127.671C208.258 139.441 213.766 151.361 215.577 164.69C215.578 164.692 215.578 164.693 215.578 164.694C219.124 162.07 222.979 165.29 232.418 165.29C234.325 165.29 235.894 165.765 237.233 166.598C240.378 161.314 244.464 156.514 249.618 152.46Z" fill="#0E2A4F"/>
<path d="M264.392 140.466C263.09 141.411 261.793 142.385 260.464 143.326C256.468 146.181 253.424 149.415 249.619 152.46C244.465 156.514 240.378 161.314 237.233 166.598C244.347 171.029 244.908 185.628 254.721 193.31C266.379 202.435 272.907 193.169 285.446 184.723C309.031 168.832 270.405 152.113 264.392 140.466Z" fill="#315281"/>
<path d="M243.72 119.161C251.437 123.277 259.544 126.389 267.92 128.321C272.676 123.541 280.069 119.73 283.118 110.425C287.782 96.1885 271.837 84.9643 267.005 76.2876C260.998 65.5027 249.485 65.9405 236.554 84.7016C233.168 89.6155 229.762 96.9472 226.9 103.957C226.925 104.015 226.948 104.072 226.976 104.129C230.972 110.979 237.061 115.546 243.72 119.161Z" fill="#315281"/>
<path d="M170.864 205.219C139.089 206.551 107.505 205.409 75.921 205.79C75.3503 205.79 74.7794 205.219 74.2086 205.219C66.2739 204.96 58.1826 205.327 50.1475 205.167C63.09 213.626 79.1302 222.368 94.1296 230.446C95.5585 231.216 96.976 231.979 98.3821 232.737C107.041 237.395 115.207 241.792 122.045 245.74C126.865 248.522 131.601 251.23 136.121 253.798L140.32 256.177C158.671 266.551 172.567 274.11 172.567 274.11C172.567 274.11 175.919 275.731 180.79 277.988L180.798 277.992C183.651 279.314 187.027 280.854 190.555 282.412C200.776 286.927 212.277 291.6 216.094 291.6C223.478 291.6 212.597 269.447 209.486 259.731C206.377 250.016 203.658 236.801 200.159 220.865C197.903 210.586 199.205 205.321 200.413 201.018C191.112 202.442 182.225 202.142 173.337 205.219C172.576 205.409 171.625 205.219 170.864 205.219Z" fill="#4A6FA5"/>
<path d="M213.373 4C201.259 5.80371 186.783 12.0562 171.205 21.1115C168.276 22.8106 165.31 24.6126 162.313 26.502C162.311 26.502 162.312 26.504 162.312 26.504C154.44 31.4606 146.358 37.0263 138.214 42.999C136.515 44.2454 134.813 45.5086 133.11 46.7893V46.7913C121.182 55.7551 109.193 65.5012 97.6155 75.4126C93.1384 79.2446 88.7225 83.1017 84.396 86.9472C72.051 97.916 60.428 108.791 50.1592 118.742C50.7555 118.547 51.3516 118.348 51.9479 118.263C70.4036 115.218 87.9083 113.315 106.174 111.603C132.82 109.041 159.16 108.779 185.743 109.441C176.346 78.6639 194.224 30.6834 213.373 4Z" fill="#4A6FA5"/>
<path d="M202.225 127.671C200.543 127.862 198.917 127.978 197.44 127.978C191.761 123.121 187.98 116.768 185.743 109.441C159.159 108.78 132.82 109.041 106.173 111.603C87.908 113.315 70.4033 115.218 51.9475 118.263C51.3512 118.348 50.7552 118.547 50.1589 118.742C26.8038 141.373 10.4561 159.219 8.56504 162.494C2.93307 172.25 41.9993 171.918 41.9993 171.918C41.9993 171.918 25.6661 169.953 13.2302 169.953C0.792515 169.953 13.4623 172.828 31.1856 190.551C35.8219 195.188 42.4348 200.127 50.1474 205.167C58.1823 205.327 66.2739 204.96 74.2086 205.219C74.7794 205.219 75.3503 205.79 75.921 205.79C107.505 205.409 139.089 206.551 170.864 205.219C171.625 205.219 172.576 205.409 173.337 205.219C182.225 202.143 191.112 202.443 200.413 201.019C201.077 198.652 201.714 196.576 201.714 194.118C201.714 187.192 207.774 176.752 212.597 168.398C213.641 166.589 214.597 165.419 215.577 164.694L215.577 164.69C213.765 151.361 208.257 139.44 202.225 127.671Z" fill="#4A6FA5"/>
<path d="M48.3209 158.683C54.438 158.683 59.3968 153.071 59.3968 146.149C59.3968 139.226 54.438 133.615 48.3209 133.615C42.2039 133.615 37.2451 139.226 37.2451 146.149C37.2451 153.071 42.2039 158.683 48.3209 158.683Z" fill="white"/>
<path d="M53.8444 155.842C57.4505 153.614 58.5673 148.883 56.3389 145.277C54.1104 141.671 49.3806 140.554 45.7745 142.783C42.1684 145.011 41.0516 149.741 43.28 153.347C45.5085 156.954 50.2383 158.071 53.8444 155.842Z" fill="black"/>
<path d="M57.4193 147.196C58.2287 146.387 58.2287 145.074 57.4193 144.265C56.6099 143.455 55.2975 143.455 54.4881 144.265C53.6786 145.074 53.6786 146.387 54.4881 147.196C55.2975 148.006 56.6099 148.006 57.4193 147.196Z" fill="white"/>
<path d="M98.3819 232.737C96.9758 231.98 95.5583 231.216 94.1294 230.446C96.1842 227.909 97.7426 225.282 97.6475 220.753C97.5314 215.273 95.1111 212.678 92.3087 209.672C89.2796 206.424 85.8473 202.742 85.693 195.446C85.537 188.153 88.8115 184.329 91.6997 180.955C94.3729 177.834 96.6809 175.138 96.5649 169.658C96.4488 164.18 94.0286 161.585 91.2259 158.578C88.1968 155.33 84.7645 151.649 84.6105 144.353C84.4545 137.06 87.7289 133.235 90.6171 129.862C93.2883 126.741 95.5983 124.045 95.4803 118.565C95.3643 113.087 92.944 110.492 90.1413 107.485C87.1143 104.237 83.6817 100.555 83.5256 93.2621C83.4742 90.7999 83.8129 88.7336 84.3953 86.9467C88.722 83.1013 93.138 79.2444 97.6149 75.4121C96.4277 78.0283 94.7285 80.0149 93.1475 81.8644C90.4742 84.985 88.1662 87.6813 88.2823 93.1612C88.3983 98.6392 90.8186 101.235 93.6211 104.241C96.6501 107.489 100.082 111.171 100.237 118.464C100.391 125.759 97.1182 129.582 94.23 132.956C91.5568 136.078 89.2488 138.774 89.3649 144.253C89.4809 149.733 91.9012 152.328 94.7036 155.334C97.7327 158.582 101.165 162.264 101.319 169.557C101.473 176.853 98.2008 180.675 95.3126 184.049C92.6394 187.171 90.3314 189.868 90.4474 195.348C90.5635 200.826 92.9838 203.421 95.7862 206.428C98.8153 209.676 102.248 213.357 102.402 220.653C102.522 226.288 100.597 229.852 98.3819 232.737Z" fill="#C5D0DF"/>
<path d="M140.946 255.435C140.735 255.684 140.528 255.932 140.32 256.177L136.121 253.799C136.517 253.308 136.917 252.834 137.31 252.368C139.908 249.289 142.151 246.631 141.926 241.356C141.7 236.08 139.24 233.623 136.39 230.777C133.284 227.677 129.766 224.165 129.462 217.037C129.157 209.909 132.363 206.108 135.193 202.755C137.79 199.678 140.033 197.02 139.809 191.746C139.582 186.469 137.122 184.013 134.272 181.168C131.167 178.069 127.647 174.554 127.342 167.427C127.038 160.299 130.246 156.499 133.075 153.146C135.672 150.068 137.915 147.409 137.689 142.135C137.464 136.86 135.002 134.404 132.152 131.557C129.049 128.458 125.529 124.945 125.224 117.817C124.92 110.69 128.128 106.89 130.957 103.535C133.554 100.459 135.796 97.8005 135.571 92.526C135.347 87.2516 132.885 84.7931 130.034 81.9486C126.929 78.849 123.411 75.3365 123.107 68.2087C122.802 61.0808 126.009 57.2811 128.838 53.9284C130.71 51.7097 132.398 49.7079 133.109 46.7911V46.7891C134.812 45.5084 136.515 44.2451 138.214 42.9988C138.423 49.9438 135.265 53.6886 132.474 56.9956C129.876 60.0722 127.633 62.7305 127.86 68.0049C128.084 73.2794 130.546 75.7378 133.394 78.5824C136.5 81.6819 140.02 85.1944 140.324 92.3223C140.628 99.4502 137.42 103.25 134.591 106.604C131.994 109.681 129.751 112.339 129.977 117.614C130.202 122.888 132.664 125.347 135.514 128.191C138.617 131.291 142.137 134.803 142.442 141.931C142.746 149.059 139.54 152.86 136.711 156.213C134.112 159.29 131.87 161.948 132.095 167.222C132.319 172.499 134.781 174.955 137.632 177.8C140.737 180.899 144.255 184.414 144.559 191.542C144.863 198.669 141.657 202.469 138.828 205.822C136.231 208.901 133.988 211.559 134.212 216.833C134.439 222.108 136.899 224.566 139.749 227.411C142.854 230.51 146.374 234.025 146.677 241.153C146.982 248.281 143.776 252.082 140.946 255.435Z" fill="#C5D0DF"/>
<path d="M188.991 280.713C189.507 281.263 190.032 281.824 190.555 282.412L180.798 277.992L180.79 277.988C179.413 275.602 178.353 272.649 178.029 268.684C177.379 260.7 180.337 256.285 182.948 252.39C185.44 248.672 187.592 245.46 187.077 239.132C186.561 232.803 183.916 229.983 180.857 226.716C177.651 223.297 174.017 219.419 173.366 211.435C172.715 203.451 175.674 199.037 178.284 195.142C180.777 191.424 182.929 188.212 182.413 181.883C181.897 175.556 179.253 172.735 176.193 169.47C172.987 166.049 169.353 162.171 168.702 154.187C168.052 146.205 171.01 141.79 173.621 137.895C176.111 134.177 178.265 130.965 177.75 124.637C177.234 118.308 174.589 115.488 171.53 112.221C168.324 108.802 164.69 104.924 164.039 96.94C163.388 88.9561 166.347 84.5417 168.957 80.6468C171.448 76.9288 173.602 73.7187 173.086 67.3902C172.571 61.0617 169.926 58.2397 166.866 54.9747C163.66 51.5536 160.026 47.6756 159.376 39.6918C158.889 33.7285 160.418 29.7556 162.311 26.5038C162.311 26.5038 162.311 26.5018 162.313 26.5018C165.31 24.6123 168.276 22.8104 171.204 21.1113C170.319 22.9532 169.256 24.54 168.243 26.049C165.753 29.767 163.601 32.9789 164.117 39.3056C164.632 45.6341 167.275 48.4561 170.337 51.7211C173.543 55.1422 177.175 59.0202 177.826 67.0041C178.476 74.9862 175.518 79.4007 172.909 83.2956C170.417 87.0135 168.265 90.2254 168.78 96.5539C169.296 102.882 171.939 105.702 175 108.969C178.206 112.391 181.84 116.266 182.489 124.251C183.14 132.234 180.181 136.649 177.573 140.544C175.08 144.262 172.929 147.474 173.444 153.8C173.96 160.129 176.602 162.951 179.664 166.216C182.87 169.637 186.504 173.515 187.153 181.497C187.803 189.481 184.845 193.895 182.236 197.791C179.744 201.509 177.592 204.72 178.108 211.049C178.623 217.377 181.266 220.197 184.328 223.464C187.533 226.886 191.167 230.761 191.816 238.746C192.467 246.729 189.51 251.144 186.9 255.039C184.407 258.757 182.256 261.969 182.771 268.297C183.287 274.626 185.93 277.448 188.991 280.713Z" fill="#C5D0DF"/>
<path d="M39.0175 176.661C37.9278 176.8 38.0965 176.596 37.6035 177.226C37.7851 181.176 46.8826 188.17 50.5417 189.535L51.3178 189.661L51.6035 189.412C50.2855 186.233 41.8133 178.697 39.0175 176.661Z" fill="white"/>
<path d="M51.8589 176.663C51.1665 176.653 51.346 176.67 50.6529 176.885C49.831 180.313 59.498 187.293 62.5045 188.643C63.1483 188.679 62.9587 188.672 63.6035 188.513C62.58 185.553 54.5323 178.552 51.8589 176.663Z" fill="white"/>
<path d="M63.7399 177.661C63.5166 177.664 62.9273 177.797 62.6759 177.847C61.6972 180.967 70.9135 187.501 73.8574 188.661L74.6035 188.631C74.5251 186.544 65.678 179.107 63.7399 177.661Z" fill="white"/>
</g>
<defs>
<filter id="filter0_d_50_34716" x="0" y="0" width="301.001" height="303.6" filterUnits="userSpaceOnUse" color-interpolation-filters="sRGB">
<feFlood flood-opacity="0" result="BackgroundImageFix"/>
<feColorMatrix in="SourceAlpha" type="matrix" values="0 0 0 0 0 0 0 0 0 0 0 0 0 0 0 0 0 0 127 0" result="hardAlpha"/>
<feOffset dy="4"/>
<feGaussianBlur stdDeviation="4"/>
<feComposite in2="hardAlpha" operator="out"/>
<feColorMatrix type="matrix" values="0 0 0 0 0 0 0 0 0 0 0 0 0 0 0 0 0 0 0.15 0"/>
<feBlend mode="normal" in2="BackgroundImageFix" result="effect1_dropShadow_50_34716"/>
<feBlend mode="normal" in="SourceGraphic" in2="effect1_dropShadow_50_34716" result="shape"/>
</filter>
</defs>
</svg>
