<svg width="307" height="240" viewBox="0 0 307 240" fill="none" xmlns="http://www.w3.org/2000/svg">
<g filter="url(#filter0_d_79_19316)">
<path d="M248.142 33.0487C237.084 2.55725 182.274 1.35096 155.741 6.0671C127.893 12.3529 106.315 25.0771 87.3959 46.7466C84.1773 50.1984 82.1357 52.4002 79.3023 56.1935C69.2906 68.5034 61.0735 82.1649 54.9053 96.7784C51.3089 105.244 49.5506 112.424 46.4919 120.09C31.9685 141.498 12.7372 139.115 8.00015 144.521L8.46514 145.43C13.1077 146.919 16.5587 146.2 21.1649 146.999C38.6744 150.037 40.4763 157.55 49.6233 167.949L57.063 174.664C64.1613 180.455 71.7826 185.6 80.1305 189.43C86.1825 192.293 93.0047 195.381 99.4709 197.198C121.34 203.397 131.962 200.766 156.184 212.836C176.425 223.17 184.032 231.715 209.076 226.345C213.58 225.64 218.368 223.845 222.727 222.407C232.492 217.996 237.127 214.689 244.531 207.154C248.97 201.238 250.953 196.726 251.033 189.256L249.072 181.676L244.531 168.16C243.92 166.307 243.463 164.541 242.954 162.659L240.695 154.331C239.038 148.867 237.549 142.283 237.164 136.586L236.001 133.018L235.376 126.616C234.555 116.297 234.33 109.975 235.18 99.6706C235.347 96.4005 235.217 95.7029 236.466 92.7817L236.067 92.2149L237.89 83.4729C238.428 80.6825 239.423 77.1944 240.135 74.3749C241.552 68.8884 243.514 62.8716 245.17 57.3997L247.313 49.4135C247.742 46.6666 248.062 43.8544 248.41 41.0931L248.142 33.0487Z" fill="#4A6FA5"/>
<path d="M235.18 99.6708C214.837 101.953 194.93 110.811 178.118 110.506C176.919 115.956 175.692 121.398 174.435 126.834L173.338 132.735C172.873 135.874 172.444 139.275 171.899 142.378L171.398 151.854L171.202 173.087L171.216 178.93C170.809 182.875 170.555 186.233 169.567 190.106L168.23 194.931L164.772 202.031L160.383 208.207L156.184 212.836C176.425 223.17 184.032 231.715 209.076 226.345C213.58 225.64 218.368 223.846 222.727 222.407C232.492 217.996 237.127 214.689 244.531 207.154C248.97 201.239 250.953 196.726 251.033 189.256L249.072 181.676L244.531 168.16C243.92 166.307 243.463 164.541 242.954 162.659L240.695 154.332C239.038 148.867 237.549 142.283 237.164 136.586L236.001 133.018L235.376 126.616C234.555 116.297 234.33 109.975 235.18 99.6708Z" fill="#B0ADA3"/>
<path d="M235.181 99.6708C214.838 101.953 194.931 110.811 178.119 110.506C176.92 115.956 175.692 121.398 174.435 126.834L173.338 132.735C172.873 135.874 172.445 139.275 171.9 142.378C185.762 142.639 199.748 142.908 213.574 145.219C218.674 146.076 237.273 155.145 240.695 154.332C239.039 148.867 237.549 142.283 237.164 136.586L236.002 133.018L235.377 126.616C234.556 116.297 234.331 109.975 235.181 99.6708Z" fill="#B0ADA3"/>
<path d="M235.181 99.6708C214.838 101.953 194.931 110.811 178.119 110.506C176.92 115.956 175.692 121.398 174.435 126.834C181.693 129.356 200.932 121.166 208.008 121.173C214.62 121.173 228.344 124.923 235.377 126.616C234.556 116.297 234.331 109.975 235.181 99.6708Z" fill="#B0ADA3"/>
<path d="M235.377 126.616C228.344 124.923 214.62 121.173 208.009 121.173C200.932 121.166 181.694 129.356 174.435 126.834L173.338 132.735C177.916 132.873 184.65 131.826 189.177 131.041C211.903 127.096 214.744 125.679 236.002 133.018L235.377 126.616Z" fill="#C5D0DF"/>
<path d="M240.695 154.331C237.273 155.145 218.674 146.076 213.574 145.219C199.748 142.908 185.762 142.639 171.9 142.378L171.398 151.853L171.202 173.087C187.862 172.2 197.009 167.07 213.733 173.596C220.141 176.095 238.21 171.823 244.531 168.16C243.921 166.307 243.463 164.541 242.955 162.659L240.695 154.331Z" fill="#B0ADA3"/>
<path d="M240.695 154.331C237.273 155.145 218.673 146.076 213.573 145.219C199.747 142.908 185.761 142.639 171.899 142.378L171.398 151.853C180.022 151.599 190.346 151.388 198.81 150.262C217.431 147.777 225.357 158.997 242.954 162.659L240.695 154.331Z" fill="#C5D0DF"/>
<path d="M164.773 202.031L160.385 208.207L156.185 212.836C176.426 223.17 184.033 231.715 209.077 226.345C213.581 225.64 218.369 223.845 222.729 222.407C208.757 216.957 195.04 211.506 180.473 207.829C174.734 206.376 169.909 205.068 164.773 202.031Z" fill="#C5D0DF"/>
<path d="M160.384 208.207L156.185 212.836C176.426 223.17 184.033 231.715 209.076 226.345C191.283 215.663 176.985 215.707 160.384 208.207Z" fill="#B0ADA3"/>
<path d="M168.231 194.931L164.772 202.031C169.909 205.068 174.733 206.376 180.473 207.829C195.04 211.506 208.757 216.957 222.728 222.407C232.493 217.996 237.128 214.689 244.531 207.154C227.363 201.413 222.009 208.999 209.687 207.248C199.442 205.795 179.623 198.07 168.231 194.931Z" fill="#B0ADA3"/>
<path d="M249.071 181.676L244.53 168.16C238.21 171.823 220.141 176.096 213.733 173.596C197.008 167.07 187.861 172.201 171.201 173.087L171.216 178.93C178.539 179.184 186.241 179.809 193.47 181.088C212.243 184.402 230.189 184.125 249.071 181.676Z" fill="#C5D0DF"/>
<path d="M251.033 189.256C247.124 191.937 229.768 200.447 225.321 201.544C202.726 195.44 193.143 189.328 169.567 190.106L168.23 194.931C179.622 198.07 199.442 205.795 209.686 207.248C222.008 209 227.363 201.413 244.531 207.154C248.97 201.239 250.953 196.726 251.033 189.256Z" fill="#C5D0DF"/>
<path d="M248.142 33.0487C237.084 2.55725 182.275 1.35096 155.742 6.0671L155.313 18.2899L155.567 30.9123C156.41 34.8945 157.369 40.1702 158.423 43.9925L159.803 48.0401C162.586 55.3286 165.826 62.4356 169.517 69.3027C172.074 75.3632 174.69 81.6345 176.143 88.0728C176.884 91.917 177.516 95.3687 178.083 99.2491C178.337 103.711 178.446 106.015 178.119 110.505C194.931 110.811 214.838 101.952 235.181 99.6706C235.348 96.4005 235.217 95.7029 236.467 92.7817L236.067 92.2149L237.891 83.4729C238.429 80.6825 239.424 77.1944 240.136 74.3749C241.553 68.8884 243.514 62.8716 245.171 57.3997L247.314 49.4135C247.743 46.6666 248.062 43.8544 248.411 41.0931L248.142 33.0487Z" fill="#B0ADA3"/>
<path d="M245.171 57.3998C239.94 53.3958 217.01 59.6598 210.951 59.1657C190.063 57.4725 183.793 41.3838 159.803 48.0402C162.586 55.3287 165.826 62.4357 169.517 69.3028C172.074 75.3633 174.69 81.6346 176.143 88.0729C176.884 91.9171 177.516 95.3688 178.083 99.2493C178.337 103.711 178.446 106.015 178.119 110.505C194.931 110.811 214.838 101.952 235.181 99.6707C235.348 96.4006 235.217 95.703 236.467 92.7818L236.067 92.215L237.891 83.473C238.429 80.6826 239.424 77.1945 240.136 74.375C241.553 68.8886 243.514 62.8717 245.171 57.3998Z" fill="#B0ADA3"/>
<path d="M237.891 83.473C222.452 80.4283 210.653 79.3383 194.981 83.0807C189.075 84.4977 181.889 87.0774 176.142 88.073C176.884 91.9171 177.516 95.3688 178.082 99.2493C178.337 103.711 178.446 106.015 178.119 110.506C194.931 110.811 214.838 101.953 235.181 99.6707C235.348 96.4007 235.217 95.7031 236.467 92.7818L236.067 92.215L237.891 83.473Z" fill="#B0ADA3"/>
<path d="M236.067 92.2152C209.309 91.2559 202.102 94.635 178.082 99.2494C178.337 103.711 178.446 106.015 178.119 110.506C194.931 110.811 214.838 101.953 235.181 99.6709C235.348 96.4008 235.217 95.7032 236.467 92.782L236.067 92.2152Z" fill="#C5D0DF"/>
<path d="M240.136 74.3752C236.503 73.2779 232.936 72.028 229.303 70.9307C209.578 64.9647 189.852 69.5791 169.517 69.303C172.074 75.3635 174.69 81.6348 176.143 88.0731C181.89 87.0776 189.075 84.4979 194.982 83.0808C210.653 79.3385 222.452 80.4284 237.891 83.4732C238.428 80.6827 239.424 77.1947 240.136 74.3752Z" fill="#C5D0DF"/>
<path d="M248.142 33.0487C237.084 2.55725 182.274 1.35096 155.741 6.0671L155.312 18.2899C168.622 15.8119 175.597 15.1215 188.973 18.7186C207.332 23.66 217.881 38.0628 238.639 34.7854C241.487 34.3422 245.555 34.0806 248.142 33.0487Z" fill="#B0ADA3"/>
<path d="M248.142 33.0488C245.556 34.0807 241.487 34.3423 238.639 34.7856C217.882 38.0629 207.333 23.6601 188.973 18.7187C175.598 15.1216 168.623 15.812 155.313 18.29L155.567 30.9124C155.829 29.6988 155.763 28.0638 156.868 27.6351C181.868 17.9048 200.591 33.9136 222.67 41.9797C226.208 43.2732 241.248 40.2429 248.411 41.0932L248.142 33.0488Z" fill="#C5D0DF"/>
<path d="M247.313 49.4138C236.931 49.2684 220.722 54.3552 211.444 52.7929C189.641 49.1231 182.187 40.0469 158.422 43.9928L159.802 48.0404C183.793 41.384 190.063 57.4727 210.95 59.1658C217.01 59.66 239.939 53.396 245.17 57.4L247.313 49.4138Z" fill="#C5D0DF"/>
<path d="M79.3026 56.1936C69.291 68.5035 61.0739 82.1651 54.9056 96.7786C51.3093 105.244 49.551 112.424 46.4923 120.09C31.9688 141.498 12.7375 139.115 8.00049 144.521L8.46548 145.43C13.108 146.919 16.5591 146.2 21.1653 146.999C38.6748 150.037 40.4766 157.551 49.6237 167.949L57.0634 174.664C64.1616 180.456 71.783 185.6 80.1309 189.43C66.5592 155.908 72.2335 145.611 75.6337 111.632C77.5517 92.5347 75.4883 76.6714 79.3026 56.1936Z" fill="#4A6FA5"/>
<path d="M57.0626 174.664C57.702 169.49 54.28 156.962 55.8493 149.543C57.5857 141.353 63.5361 140.219 62.9113 132.647C62.4826 127.466 56.1472 123.288 55.0574 118.077C53.5753 111.021 55.1591 104.249 54.9048 96.7786C51.3085 105.244 49.5502 112.424 46.4915 120.09C31.9681 141.498 12.7367 139.115 7.99973 144.521L8.46473 145.43C13.1073 146.919 16.5583 146.2 21.1645 146.999C38.674 150.037 40.4759 157.551 49.6229 167.949L57.0626 174.664Z" fill="#0E2A4F"/>
<path d="M46.4926 120.09C31.9692 141.498 12.7378 139.115 8.00083 144.521L8.46582 145.429C13.1084 146.919 16.5594 146.2 21.1656 146.999C38.6751 150.037 40.477 157.55 49.624 167.949C48.2436 157.732 47.3063 147.355 45.8533 137.131C45.0686 131.594 46.5144 126.841 46.4999 121.158L46.4926 120.09Z" fill="#4A6FA5"/>
<path d="M55.8866 127.016C53.8959 126.122 51.5856 126.369 49.8273 127.662C48.0764 128.956 47.1536 131.092 47.4152 133.258C47.6695 135.423 49.079 137.276 51.0915 138.119C54.1429 139.391 57.6521 137.967 58.9671 134.929C60.2749 131.892 58.909 128.367 55.8866 127.016Z" fill="#FFFEFE"/>
<path d="M55.0873 129.886C54.1428 129.29 52.944 129.247 51.9486 129.777C50.9605 130.315 50.3357 131.34 50.3139 132.459C50.2921 133.585 50.8806 134.631 51.8469 135.205C53.3072 136.063 55.1963 135.591 56.0826 134.144C56.969 132.691 56.5258 130.802 55.0873 129.886Z" fill="#0E2A4F"/>
<path d="M87.3967 46.7467C84.1781 50.1984 82.1366 52.4003 79.3031 56.1935C75.4888 76.6713 77.5522 92.5346 75.6341 111.632C72.2339 145.611 66.5597 155.908 80.1313 189.43C86.1834 192.293 93.0055 195.381 99.4717 197.198C86.6338 168.073 80.6835 148.569 84.8611 116.573C87.8471 93.7046 84.7594 70.3783 87.3967 46.7467Z" fill="#0E2A4F"/>
<path d="M143.993 50.4602C134.105 49.1595 119.327 53.2216 110.689 58.1776C98.9045 64.9357 93.5136 73.5032 89.9608 86.1547C90.8399 85.646 91.1087 85.4934 91.6754 84.6214C102.653 67.4209 125.336 57.9523 143.993 50.4602Z" fill="#0E2A4F"/>
<path d="M293.005 61.5493C287.702 61.5493 282.478 64.5941 277.792 66.9994L268.979 72.0789C265.782 74.0046 262.011 76.1483 258.996 78.2702C253.605 81.7364 241.494 90.115 236.466 92.7819C235.217 95.7032 235.348 96.4008 235.18 99.6708C234.33 109.975 234.556 116.297 235.377 126.616L236.001 133.018L237.164 136.586C243.724 143.475 249.609 149.485 256.846 155.778L259.926 158.35L262.505 160.421L267.519 163.168C289.634 167.579 276.709 122.074 279.39 116.784C285.987 103.769 310.057 77.5653 293.005 61.5493Z" fill="#0E2A4F"/>
<path d="M258.996 78.2701C253.605 81.7364 241.494 90.115 236.467 92.7819C235.217 95.7031 235.348 96.4007 235.181 99.6708C234.331 109.975 234.556 116.297 235.377 126.616L236.002 133.018L237.164 136.586C243.725 143.475 249.61 149.485 256.846 155.778C261.641 148.554 262.578 143.744 262.527 135.431C259.948 130.649 255.989 127.626 253.787 121.864C249.937 111.799 256.395 106.015 259.846 97.2945C262.694 90.1149 261.844 85.0501 258.996 78.2701Z" fill="#0E2A4F"/>
<path d="M293.005 61.5493C287.702 61.5493 282.478 64.5941 277.792 66.9994C283.183 74.4479 283.8 75.2326 283.437 84.4033C283.059 93.901 269.059 113.797 268.376 117.714C265.121 136.47 286.852 139.1 262.505 160.421L267.519 163.168C289.634 167.579 276.709 122.074 279.39 116.784C285.987 103.769 310.057 77.5653 293.005 61.5493Z" fill="#4A6FA5"/>
<path d="M293.005 61.5493C295.047 87.3609 282.245 94.01 276.985 116.028C273.461 130.765 287.513 149.623 267.519 163.168C289.634 167.579 276.709 122.074 279.39 116.784C285.987 103.769 310.057 77.5653 293.005 61.5493Z" fill="#0E2A4F"/>
<path d="M268.978 72.0786C265.781 74.0043 262.011 76.148 258.995 78.2699C261.843 85.0498 262.694 90.1147 259.845 97.2943C256.394 106.014 249.936 111.799 253.786 121.863C255.988 127.626 259.947 130.649 262.526 135.43C262.577 143.744 261.64 148.554 256.845 155.777L259.925 158.35C278.975 137.894 261.052 132.059 261.182 116.152C261.313 98.7913 273.751 94.8818 268.978 72.0786Z" fill="#4A6FA5"/>
<path d="M111.53 171.997C110.536 172.124 110.69 171.938 110.24 172.513C110.405 176.12 118.71 182.505 122.05 183.752L122.759 183.867L123.02 183.64C121.816 180.737 114.083 173.857 111.53 171.997Z" fill="white"/>
<path d="M123.253 171.999C122.621 171.99 122.784 172.005 122.152 172.202C121.401 175.331 130.226 181.705 132.97 182.937C133.558 182.97 133.385 182.964 133.974 182.819C133.039 180.116 125.693 173.724 123.253 171.999Z" fill="white"/>
<path d="M134.098 172.91C133.894 172.913 133.356 173.035 133.127 173.081C132.233 175.93 140.646 181.895 143.334 182.954L144.015 182.926C143.943 181.021 135.867 174.231 134.098 172.91Z" fill="white"/>
</g>
<defs>
<filter id="filter0_d_79_19316" x="0" y="0" width="307" height="240" filterUnits="userSpaceOnUse" color-interpolation-filters="sRGB">
<feFlood flood-opacity="0" result="BackgroundImageFix"/>
<feColorMatrix in="SourceAlpha" type="matrix" values="0 0 0 0 0 0 0 0 0 0 0 0 0 0 0 0 0 0 127 0" result="hardAlpha"/>
<feOffset dy="4"/>
<feGaussianBlur stdDeviation="4"/>
<feComposite in2="hardAlpha" operator="out"/>
<feColorMatrix type="matrix" values="0 0 0 0 0 0 0 0 0 0 0 0 0 0 0 0 0 0 0.15 0"/>
<feBlend mode="normal" in2="BackgroundImageFix" result="effect1_dropShadow_79_19316"/>
<feBlend mode="normal" in="SourceGraphic" in2="effect1_dropShadow_79_19316" result="shape"/>
</filter>
</defs>
</svg>
