<svg width="316" height="185" viewBox="0 0 316 185" fill="none" xmlns="http://www.w3.org/2000/svg">
<g filter="url(#filter0_d_50_34788)">
<path d="M121.378 4.21189L133.633 4L137.608 4.65624C142.686 4.80859 150.303 5.86812 155.215 7.27436L156.778 7.64349C158.594 8.21478 159.59 8.41107 161.28 9.31927L162.432 9.55464L167.813 10.7558L173.165 13.1738C175.831 14.4316 179.512 16.0302 181.993 17.4218L186.504 19.6561L187.637 21.0263L188.829 21.578L193.809 24.4354L198.467 28.2293C200.899 30.1815 205.372 33.5877 207.462 35.5945L213.975 42.1892L215.479 43.9939C220.294 48.5378 226.378 56.9919 230.333 62.5582C232.901 66.7604 237.794 74.2447 239.483 78.5474C243.975 86.6245 246.124 91.5981 249.61 100.191C250.899 99.8686 254.766 95.5209 256.055 94.2397C256.436 93.7904 256.827 93.351 257.227 92.9213C269.268 80.1275 288.077 71.7701 305.684 70.9762L307.725 71.8131C307.12 82.7769 291.739 104.063 283.087 111.811C281.817 112.948 280.538 114.07 279.239 115.178C290.899 120.286 308.438 142.483 307.842 154.123C286.026 160.916 268.243 150.939 255.02 133.852C252.276 131.416 252.989 129.714 249.004 128.357L245.489 130.193C232.588 141.392 220.714 147.705 205.518 155.163C157.471 176.103 112.198 177.301 62.9303 161.122C43.0182 152.364 31.0846 145.737 15.6158 130.065C10.7428 125.884 7.61777 123.016 8.03769 116.279C12.5299 86.2105 24.2194 53.4001 47.7545 33.0135C55.401 26.2176 60.8503 22.4129 69.6296 17.4774L72.6373 16.1278L77.569 13.5429L83.0182 11.4873L92.11 8.67083L96.0553 7.5908L98.2721 6.86911L100.958 6.5156L103.379 6.12692L110.137 5.00195L121.378 4.21189Z" fill="#FFD3CF"/>
<path d="M121.377 4.21189L133.633 4L137.607 4.65624C142.686 4.80859 150.303 5.86812 155.215 7.27436L156.777 7.64349C158.594 8.21478 159.59 8.41107 161.279 9.31927L162.432 9.55464L167.812 10.7558L173.164 13.1738C175.83 14.4316 179.512 16.0302 181.992 17.4218L186.504 19.6561L187.637 21.0263L188.828 21.578L193.809 24.4354L198.467 28.2293C200.898 30.1815 205.371 33.5877 207.461 35.5945L213.975 42.1892L215.479 43.9939C220.293 48.5378 226.377 56.9919 230.332 62.5582C232.9 66.7604 237.793 74.2447 239.482 78.5474C243.975 86.6245 246.123 91.5981 249.609 100.191C241.299 96.5073 225.752 83.8442 217.188 78.187C152.422 35.3757 72.9688 28.7244 22.6855 97.6566C19.5996 101.899 11.7773 113.406 8.03711 116.279C12.5293 86.2105 24.2188 53.4001 47.7539 33.0135C55.4004 26.2176 60.8497 22.4129 69.629 17.4774L72.6367 16.1278L77.5684 13.5429L83.0176 11.4873L92.1095 8.67083L96.0547 7.5908L98.2715 6.86911L100.957 6.5156L103.379 6.12692L110.137 5.00195L121.377 4.21189Z" fill="#FFA69E"/>
<path d="M121.377 4.21189L133.633 4L133.672 4.54687C129.121 11.3232 133.682 26.075 121.025 29.9305C106.494 34.3582 105.645 16.2987 103.379 6.12692L110.137 5.00195L121.377 4.21189Z" fill="#FFD97D"/>
<path d="M110.137 5.00197L121.377 4.21191C121.221 8.35251 121.533 11.5595 119.521 15.08L117.773 16.12C115.664 14.0673 114.951 8.97262 114.014 5.63377C110.986 7.08103 113.838 9.73335 110.684 8.64254C110.469 7.4111 110.312 6.23927 110.137 5.00197Z" fill="#FFD97D"/>
<path d="M133.633 4L137.607 4.65624C142.686 4.80859 150.303 5.86812 155.215 7.27436L156.777 7.64349C158.594 8.21478 159.59 8.41107 161.279 9.31927C160.283 12.4911 159.375 14.9833 158.945 18.3007C157.139 22.7557 153.945 29.1443 149.17 30.7176C127.842 37.7537 137.285 12.7763 133.672 4.54687L133.633 4Z" fill="#FFD97D"/>
<path d="M137.607 4.65625C142.686 4.80859 150.303 5.86813 155.215 7.27437C153.897 11.8876 152.598 16.3085 151.563 20.995C146.729 22.3084 146.436 25.0311 140.674 22.4911C137.969 16.7968 142.725 11.1747 138.047 5.70308L137.607 4.65625Z" fill="#FFD97D"/>
<path d="M149.502 7.8877C151.816 12.6318 147.109 16.0234 143.242 17.7421L142.9 14.8076C148.32 12.3515 147.666 12.498 149.502 7.8877Z" fill="#FFD97D"/>
<path d="M138.047 5.70312C142.725 11.1748 137.969 16.7968 140.674 22.4912C146.436 25.0312 146.729 22.3085 151.563 20.995C149.688 26.0067 143.262 26.8993 139.121 23.2412C136.788 18.2695 137.764 11.3066 138.047 5.70312Z" fill="#FFD97D"/>
<path d="M155.215 7.27441L156.777 7.64354C155.918 11.7314 154.688 17.9911 151.562 20.995C152.598 16.3085 153.896 11.8877 155.215 7.27441Z" fill="#FFD97D"/>
<path d="M188.829 21.5781L193.81 24.4355L198.468 28.2294C200.899 30.1816 205.372 33.5878 207.462 35.5946L213.975 42.1893C202.198 49.2791 184.376 52.1463 187.003 32.2196C187.872 28.3486 188.302 25.4853 188.829 21.5781Z" fill="#FFD97D"/>
<path d="M198.467 28.2294C200.898 30.1815 205.371 33.5877 207.461 35.5946C204.297 38.0223 203.154 38.5135 199.297 38.3934C196.123 36.6952 196.943 37.7186 195.781 34.7508C196.533 31.366 196.475 30.952 198.467 28.2294Z" fill="#FFD97D"/>
<path d="M188.828 21.5781L193.809 24.4355C192.461 27.9755 191.475 31.8143 188.828 34.3134C187.227 33.3026 187.822 33.9667 187.002 32.2196C187.871 28.3486 188.301 25.4853 188.828 21.5781Z" fill="#FFD97D"/>
<path d="M69.6289 17.4775C69.043 24.541 69.1308 37.3573 64.3164 42.163C56.6699 44.7235 52.5879 38.2616 47.7539 33.0136C55.4004 26.2177 60.8496 22.4131 69.6289 17.4775Z" fill="#FFD97D"/>
<path d="M167.813 10.7559L173.164 13.1738C175.83 14.4316 179.512 16.0302 181.992 17.4218L186.504 19.6562L187.637 21.0263L185.391 24.3456C182.109 27.5751 177.119 33.3094 172.295 33.2167C170.362 33.1952 168.526 32.3612 167.246 30.9189C165.693 23.6718 166.904 18.039 167.813 10.7559Z" fill="#FFD97D"/>
<path d="M173.165 13.1738C175.831 14.4316 179.513 16.0302 181.993 17.4218C180.177 19.58 178.39 21.7636 176.632 23.9736C174.317 24.4033 174.161 24.6396 171.964 23.7109C171.026 20.5546 172.638 18.5088 173.097 13.916L173.165 13.1738Z" fill="#FFD97D"/>
<path d="M167.246 30.9189C182.49 31.7734 177.646 26.4658 186.504 19.6562L187.637 21.0264L185.391 24.3457C182.109 27.5752 177.119 33.3095 172.295 33.2167C170.361 33.1952 168.525 32.3613 167.246 30.9189Z" fill="#FFD97D"/>
<path d="M173.164 13.1738L173.096 13.916C172.637 18.5088 171.025 20.5546 171.963 23.7109C174.16 24.6396 174.316 24.4033 176.631 23.9736L176.885 24.622L175.547 25.9687L172.598 25.9667C170.166 23.8417 170.938 24.7831 169.912 21.3945C170.488 17.5546 171.309 16.4512 173.164 13.1738Z" fill="#FFD97D"/>
<path d="M215.48 43.9939C220.294 48.5378 226.378 56.9919 230.333 62.5583C215.548 63.1256 202.657 61.5416 215.48 43.9939Z" fill="#FFD97D"/>
<path d="M92.1094 8.67085L96.0546 7.59082C95.3417 14.6855 93.8574 25.5614 84.7167 25.078C80.2636 22.4921 79.2188 18.3036 77.5684 13.5429L83.0175 11.4873L92.1094 8.67085Z" fill="#FFD97D"/>
<path d="M83.0176 11.4873L92.1094 8.6709C91.1817 12.2041 91.0058 14.2129 88.6035 16.9482C83.6035 17.2255 84.9805 14.7842 83.0176 11.4873Z" fill="#FFD97D"/>
<path d="M230.333 62.5583C232.901 66.7605 237.794 74.2448 239.483 78.5475C222.921 84.776 216.485 71.2604 230.333 62.5583Z" fill="#FFD97D"/>
<path d="M96.0547 7.59083L98.2715 6.86914C96.6406 15.8749 94.9609 25.1248 85.5664 29.3826L84.9512 32.0253C76.8066 28.4413 75.3223 24.0292 72.6367 16.1278L77.5684 13.5429C79.2188 18.3036 80.2637 22.4921 84.7168 25.078C93.8574 25.5614 95.3418 14.6855 96.0547 7.59083Z" fill="#FFD97D"/>
<path d="M161.279 9.31934L162.432 9.55471L167.812 10.7559C166.904 18.039 165.693 23.6718 167.246 30.9189L164.287 27.8153L163.535 28.3524L164.111 34.9715C161.025 29.87 161.26 26.3876 161.074 20.5468L158.945 18.3007C159.375 14.9834 160.283 12.4912 161.279 9.31934Z" fill="#FFD97D"/>
<path d="M161.279 9.31934L162.432 9.55471L161.074 20.5468L158.945 18.3007C159.375 14.9834 160.283 12.4912 161.279 9.31934Z" fill="#FFA69E"/>
<path d="M98.2715 6.86914L100.957 6.51562C100.752 15.7685 99.3652 36.0018 84.9512 32.0252L85.5664 29.3826C94.9609 25.1248 96.6406 15.8749 98.2715 6.86914Z" fill="#FFD97D"/>
<path d="M167.246 30.9189C168.525 32.3613 170.361 33.1952 172.295 33.2167C177.119 33.3095 182.109 27.5752 185.391 24.3457C181.504 32.6748 173.76 41.8358 164.111 34.9716L163.535 28.3525L164.287 27.8154L167.246 30.9189Z" fill="#FFD97D"/>
<path d="M84.9023 152.243C111.65 139.768 157.549 137.18 186.113 146.565C193.555 148.805 198.965 150.824 205.518 155.163C157.471 176.103 112.197 177.301 62.9297 161.122C68.0957 157.534 78.7012 154.323 84.9023 152.243Z" fill="#F05187"/>
<path d="M305.684 70.9762L307.725 71.8131C307.119 82.7769 291.738 104.063 283.086 111.811C281.816 112.948 280.537 114.07 279.238 115.178C290.898 120.286 308.437 142.483 307.842 154.123C286.025 160.916 268.242 150.939 255.02 133.852C264.268 133.333 269.355 141.072 282.705 139.098C263.389 121.432 262.764 106.98 280.391 87.8423C272.715 85.6001 265.889 93.9584 256.055 94.2397C256.436 93.7905 256.826 93.3511 257.227 92.9214C269.268 80.1275 288.076 71.7701 305.684 70.9762Z" fill="#F05187"/>
<path d="M255.02 133.852C264.268 133.333 269.355 141.071 282.705 139.098C290.752 144.641 299.15 149.659 307.842 154.123C286.025 160.916 268.242 150.939 255.02 133.852Z" fill="#FFA69E"/>
<path d="M256.055 94.2397C256.436 93.7905 256.826 93.3511 257.227 92.9214C269.268 80.1275 288.076 71.7701 305.684 70.9762C295.771 77.3394 289.863 80.2925 280.391 87.8423C272.715 85.6001 265.889 93.9584 256.055 94.2397Z" fill="#FFA69E"/>
<path d="M15.6152 130.065C20.498 129.878 36.7481 137.675 42.3048 140.206C56.6016 146.719 70.1563 148.316 84.9024 152.243C78.7012 154.323 68.0958 157.534 62.9298 161.122C43.0176 152.364 31.084 145.738 15.6152 130.065Z" fill="#FFA69E"/>
<path d="M186.113 146.565C195.557 144.587 241.416 129.45 245.488 130.193C232.588 141.392 220.713 147.705 205.518 155.163C198.965 150.824 193.555 148.805 186.113 146.565Z" fill="#FFA69E"/>
<path d="M52.8321 89.2495C60.8595 86.7895 69.3556 91.3325 71.7677 99.3754C74.1798 107.417 69.59 115.887 61.5333 118.253C53.5353 120.6 45.1564 116.053 42.7638 108.077C40.3713 100.1 44.8634 91.688 52.8321 89.2495Z" fill="#393980"/>
<path d="M55.0667 92.2499C60.8382 91.1327 66.5901 94.3104 68.719 99.7967C70.8382 105.283 68.7386 111.505 63.719 114.573C58.6995 117.642 52.1955 116.677 48.2893 112.283C44.3733 107.888 44.1683 101.323 47.7914 96.6912C49.6078 94.3836 52.1858 92.8055 55.0667 92.2499Z" fill="white"/>
<path d="M47.6855 96.225C49.502 93.9174 52.08 92.3394 54.9609 91.7837L56.914 94.52C60.4101 95.0766 63.1152 97.8921 63.5254 101.412C63.9355 104.931 61.9628 108.295 58.6815 109.647C55.41 110.998 51.6406 110.006 49.4433 107.22C47.2558 104.433 47.1875 100.531 49.2773 97.6684L47.6855 96.225Z" fill="#232323"/>
<path d="M47.6855 96.225C49.502 93.9174 52.08 92.3394 54.9609 91.7837L56.914 94.52C53.9746 94.0542 51.0352 95.27 49.2773 97.6684L47.6855 96.225Z" fill="#FDFDFD"/>
<path d="M101.201 80.6304C104.922 81.1167 103.848 80.4995 106.66 82.5512L106.23 84.4897C102.666 87.6743 100.85 87.7339 96.1718 88.7417L92.9101 88.9409L92.5879 87.7182C95.1855 84.3286 97.6562 82.9839 101.201 80.6304Z" fill="#F05187"/>
<path d="M125.557 108.844C128.047 108.938 128.066 109.116 130.195 110.23L130.215 112.036C127.129 115.138 124.844 115.485 120.732 116.723L118.281 116.549L117.783 115.231C119.932 112.113 122.363 110.911 125.557 108.844Z" fill="#F05187"/>
<path d="M118.965 94.1802C121.445 94.5972 121.309 94.5454 123.252 96.1421L123.184 97.812C120.361 100.685 117.881 101.088 114.072 102.243L111.416 102.064L110.879 100.823C112.998 97.7388 115.801 96.2788 118.965 94.1802Z" fill="#F05187"/>
<path d="M128.955 73.4762C130.488 74.0865 131.055 74.8746 132.236 76.0406L132.031 77.8551C129.248 80.4049 126.123 80.7769 122.461 81.6187L120.147 81.6763L119.854 80.3219C122.871 76.8688 125.039 75.8229 128.955 73.4762Z" fill="#F05187"/>
<path d="M152.217 73.7203C154.795 73.9518 154.746 74.069 156.885 75.3346L157.08 76.8024C154.072 79.568 155.283 78.6783 150.478 79.688C148.076 79.7574 147.686 79.8863 145.41 78.8746C146.719 76.3063 149.336 75.4479 152.217 73.7203Z" fill="#F05187"/>
<path d="M138.428 93.5806C142.031 93.0542 142.461 92.7818 145.684 94.0913L146.152 95.729L144.033 98.0991C140.537 98.3501 138.359 98.6684 134.863 97.9497L134.805 96.5483L138.428 93.5806Z" fill="#F05187"/>
<path d="M106.104 113.681C108.086 116.151 107.676 114.791 107.5 117.855C105 120.649 101.855 121.423 98.2715 122.814L97.4316 121.93C98.1641 118.015 102.842 115.488 106.104 113.681Z" fill="#F05187"/>
<path d="M149.121 108.939C153.203 109.247 152.148 108.605 155.068 110.727L154.727 112.537L151.65 114.342C148.496 114.396 146.846 114.64 143.809 113.597C144.521 111.212 146.553 110.616 149.121 108.939Z" fill="#F05187"/>
<path d="M171.504 80.3375C175.322 79.5358 176.035 79.3863 179.902 79.6666C182.773 81.6139 181.846 80.3258 182.803 83.6666C178.75 83.9459 173.379 84.3902 171.504 80.3375Z" fill="#F05187"/>
<path d="M165.898 112.246C170.107 111.894 172.471 111.199 175.488 114.179L175.313 117.101C171.465 116.529 168.369 116.475 165.254 114.287L165.898 112.246Z" fill="#F05187"/>
<path d="M164.531 93.5786C168.242 94.6997 167.402 93.9097 169.795 96.4302L169.17 97.7984L165.879 98.8657C162.764 98.0766 162.178 97.936 159.336 96.5171C160.264 94.6177 162.051 94.52 164.531 93.5786Z" fill="#F05187"/>
<path d="M178.672 100.556C184.688 100.261 186.406 99.3246 190.02 104.498C184.258 105.59 182.852 104.151 178.672 100.556Z" fill="#F05187"/>
<path d="M194.795 90.4243C201.133 91.6548 201.846 91.5776 204.756 97.4106C198.955 97.354 198.145 94.8598 194.795 90.4243Z" fill="#F05187"/>
<path d="M202.369 106.582C205.57 102.455 211.143 107.408 215.59 110.031C223.131 114.478 215.59 129 215.59 129C215.59 129 209.978 120.989 205.53 118.366C197.989 113.918 199.448 110.346 202.369 106.582Z" fill="#F05187"/>
<path d="M229.288 106.582C226.087 102.455 220.515 107.408 216.067 110.031C208.526 114.478 216.067 129 216.067 129C216.067 129 221.68 120.989 226.127 118.366C233.668 113.918 232.209 110.346 229.288 106.582Z" fill="#F05187"/>
<path d="M82.369 42.5817C85.5703 38.4554 91.1427 43.4079 95.5901 46.0307C103.131 50.4781 95.5901 65 95.5901 65C95.5901 65 89.9776 56.9885 85.5302 54.3657C77.9891 49.9184 79.4485 46.3463 82.369 42.5817Z" fill="#F05187"/>
<path d="M109.288 42.5817C106.087 38.4554 100.515 43.4079 96.0672 46.0307C88.526 50.4781 96.0672 65 96.0672 65C96.0672 65 101.68 56.9885 106.127 54.3657C113.668 49.9184 112.209 46.3463 109.288 42.5817Z" fill="#F05187"/>
<path d="M52.2844 94.2613C54.5954 93.4866 57.0999 94.6971 57.9342 96.9889C58.7677 99.2726 57.6292 101.815 55.3643 102.71C53.8425 103.315 52.1126 103.041 50.8482 102C49.5838 100.959 48.9835 99.3129 49.2829 97.7071C49.5814 96.0931 50.7304 94.7778 52.2844 94.2613Z" fill="white"/>
</g>
<defs>
<filter id="filter0_d_50_34788" x="0" y="0" width="315.857" height="184.192" filterUnits="userSpaceOnUse" color-interpolation-filters="sRGB">
<feFlood flood-opacity="0" result="BackgroundImageFix"/>
<feColorMatrix in="SourceAlpha" type="matrix" values="0 0 0 0 0 0 0 0 0 0 0 0 0 0 0 0 0 0 127 0" result="hardAlpha"/>
<feOffset dy="4"/>
<feGaussianBlur stdDeviation="4"/>
<feComposite in2="hardAlpha" operator="out"/>
<feColorMatrix type="matrix" values="0 0 0 0 0 0 0 0 0 0 0 0 0 0 0 0 0 0 0.15 0"/>
<feBlend mode="normal" in2="BackgroundImageFix" result="effect1_dropShadow_50_34788"/>
<feBlend mode="normal" in="SourceGraphic" in2="effect1_dropShadow_50_34788" result="shape"/>
</filter>
</defs>
</svg>
