<svg width="318" height="426" viewBox="0 0 318 426" fill="none" xmlns="http://www.w3.org/2000/svg">
<path d="M219.442 96.2302C212.68 116.518 226.97 129.277 217.956 139.781C208.938 150.33 215.7 164.576 204.431 175.849C193.161 187.119 144.29 161.603 127.023 162.324C109.756 163.089 83.0224 138.25 101.463 130.767C119.947 123.283 146.545 103.717 160.07 92.447C171.567 82.8885 183.558 73.8738 200.284 63.0533C203.26 61.1587 206.37 59.1755 209.662 57.1479C231.483 43.623 262.275 0.0275037 262.275 0.0275037C272.96 -1.23455 240.365 53.0012 225.578 82.4836C222.735 88.1584 220.524 92.9376 219.442 96.2302Z" fill="#A099A9"/>
<path d="M253.256 405.767C236.71 408.022 208.174 371.954 202.177 374.209C198.391 375.608 192.934 367.131 187.931 361.406C184.866 357.98 182.025 355.545 179.814 356.943C173.998 360.685 172.106 341.163 162.323 334.4C152.584 327.638 137.797 300.003 137.797 300.003C131.259 274.667 199.922 217.951 212.95 226.561C225.978 235.218 232.2 271.283 235.221 285.576C238.241 299.822 229.945 310.371 232.966 319.389C235.986 328.406 231.479 344.183 230.71 362.94C230.666 362.984 230.666 362.984 230.71 362.984C229.995 381.785 253.256 405.767 253.256 405.767Z" fill="#A099A9"/>
<path d="M311.095 254.74C316.37 272.773 316.37 275.793 297.57 268.265C295.542 267.452 293.243 266.371 290.763 265.064C270.115 254.38 235.986 229.224 235.986 229.224C213.444 208.171 230.35 181.166 236.303 179.632C242.255 178.098 287.065 149.561 304.332 142.033C305.506 141.537 306.632 141.088 307.625 140.771C321.51 136.084 320.204 146.496 311.095 155.558C301.356 165.341 307.353 175.846 308.84 185.629C310.374 195.412 304.332 205.151 308.118 217.952C311.863 230.711 305.866 236.708 311.095 254.74Z" fill="#A099A9"/>
<path d="M86.07 287.09C86.07 287.09 108.991 347.174 127.023 365.96C145.055 384.746 160.836 421.562 176.616 425.318C176.616 425.318 140.548 381.738 138.296 365.96C138.296 365.96 183.378 420.06 208.176 421.562C208.176 421.562 159.709 380.236 147.124 359.949C134.539 339.661 113.374 320.157 119.448 294.219C125.522 268.28 80.5105 273.31 86.07 287.09Z" fill="#EDF5FB"/>
<path d="M235.988 195.412C236.71 199.154 235.988 208.171 235.988 214.165C235.988 220.206 235.988 229.224 235.988 229.224C235.988 229.224 228.461 225.438 216.422 225.438C204.428 225.438 204.428 258.529 197.669 278.051C190.998 297.301 162.414 307.85 148.665 304.468C148.44 304.424 148.26 304.38 148.079 304.333C134.554 300.591 134.554 293.828 110.481 293.828C86.4516 293.828 63.9091 272.054 63.1435 266.013C62.6027 261.414 36.4099 244.463 19.0988 232.741C13.8703 229.135 9.40728 226.068 6.79155 223.951C-4.47825 214.934 5.3049 217.189 5.3049 217.189C5.3049 217.189 -1.45764 214.168 0.7975 211.192C3.05264 208.171 27.0819 202.174 35.3754 186.397C43.6245 170.617 72.164 145.822 72.164 145.822C89.1589 129.773 118.78 128.511 145.83 133.019C172.88 137.526 197.675 164.576 204.437 175.848C211.2 187.118 230.722 181.124 236.311 179.635C241.894 178.101 235.223 191.623 235.988 195.412Z" fill="#D6DBF5"/>
<path d="M148.434 304.686C148.209 304.642 148.029 304.598 147.848 304.55C134.323 300.808 134.323 294.046 110.25 294.046C86.2206 294.046 63.6781 272.272 62.9126 266.231C62.3717 261.632 36.1789 244.681 18.8678 232.959C22.1574 232.599 25.3613 232.238 27.2529 230.299C30.0933 227.323 28.11 222.635 30.5455 220.155C33.5218 217.179 38.0734 220.064 41.5906 219.162C43.2576 218.757 44.6556 217.628 45.8733 216.413C53.2683 209.379 58.1362 199.732 59.3983 189.588C59.8505 185.666 59.9391 181.428 62.3273 178.318C64.7627 175.209 70.6681 174.713 72.0188 178.407C72.604 179.985 72.1548 181.744 72.5154 183.367C73.2809 186.884 77.4306 188.775 78.5567 192.204C79.2779 194.368 78.5566 196.803 78.8256 199.058C79.4581 203.973 84.1901 207.263 86.0847 211.817C87.663 215.784 87.0777 220.563 89.5102 224.08C91.4491 226.829 95.0549 228.319 96.4973 231.428C98.2115 235.081 96.2726 239.453 97.0825 243.419C99.2017 253.471 116.016 253.338 119.581 262.985C120.258 264.88 120.346 266.999 121.067 268.846C124.088 276.735 136.035 277.095 140.545 284.266C142.664 287.691 142.664 292.021 144.151 295.807C145.144 298.107 146.675 300.179 147.668 302.478C147.981 303.2 148.253 303.921 148.434 304.686Z" fill="#9695CF"/>
<path d="M172.362 125.124C171.937 135.218 175.176 145.373 177.496 155.118C179.793 164.771 185.45 173.07 187.309 182.599C189.789 195.32 188.808 210.604 188.299 223.437C187.702 238.499 188.701 252.97 189.75 267.961C190.546 279.307 187.888 292.197 186.73 303.351C186.023 310.146 180.733 327.159 182.423 332.249C182.787 333.345 181.135 333.744 180.724 332.716C173.435 314.426 175.563 294.402 175.753 275.125C175.832 267.068 175.206 259.2 175.98 251.164C177.121 239.312 175.8 232.006 173.521 220.496C170.246 203.948 171.103 189.625 165.839 173.458C160.88 158.221 158.338 139.367 163.711 123.954C165.266 119.5 172.581 119.89 172.362 125.124Z" fill="#2E1628"/>
<path d="M118.222 291.414C124.601 269.108 118.444 254.797 115.081 233.362C112.97 219.906 114.209 206.732 114.61 193.252C115.036 178.938 109.169 168.079 107.842 154.725C106.902 145.282 109.568 138.886 116.57 132.989C118.618 131.266 121.154 132.951 120.808 135.457C118.68 150.88 123.303 162.723 125.011 177.469C126.749 192.486 123.696 207.211 125.7 222.365C128.7 245.034 132.158 271.112 124.337 293.099C122.984 296.894 117.084 295.389 118.222 291.414Z" fill="#2E1628"/>
<path d="M70.1703 274.912C66.9013 260.938 57.2808 250.886 52.1321 238.109C48.8247 229.901 50.2848 222.728 51.006 214.16C52.7882 192.959 54.7183 170.094 68.9496 153.315C71.923 149.81 77.1544 154.955 74.0303 158.396C62.4177 171.191 62.8019 183.456 61.9182 199.464C61.2857 210.911 58.6581 223.02 60.931 234.4C63.8895 249.216 75.8539 259.05 74.3229 274.351C74.1012 276.565 70.7555 277.407 70.1703 274.912Z" fill="#2E1628"/>
<path d="M239.429 181.34C241.223 183.607 241.132 183.785 240.972 186.699C240.721 191.319 240.044 195.522 240.535 200.31C241.359 208.331 241.463 218.744 237.744 226.065C236.946 227.634 234.133 227.368 233.816 225.551C232.469 217.76 235.191 209.815 234.603 201.847C234.337 198.255 233.169 194.511 233.843 190.887C234.411 187.837 236.089 184.843 237.133 181.949C237.443 181.086 238.729 180.457 239.429 181.34Z" fill="#2E1628"/>
<path d="M108.639 294.26C107.525 306.597 118.259 323.772 122.923 334.731C127.215 344.816 132.352 354.747 135.898 365.077C136.194 365.937 135.012 366.259 134.548 365.647C124.481 352.441 116.725 335.562 109.954 320.399C105.964 311.465 100.49 302.737 104.832 293.228C105.662 291.411 108.819 292.283 108.639 294.26Z" fill="#2E1628"/>
<path d="M129.051 139.971C129.385 135.49 129.669 130.666 131.823 126.614C134.38 121.805 139.449 118.362 143.456 114.866C147.051 111.73 150.577 109.353 155.063 107.692C160.567 105.656 164.805 102.159 170.066 99.9839C170.796 99.6824 171.715 100.596 171.408 101.326C168.39 108.529 160.073 110.166 153.81 113.547C143.675 119.015 135.577 129.463 133.688 140.594C133.245 143.204 128.853 142.622 129.051 139.971Z" fill="#2E1628"/>
<path d="M225.576 82.4777C221.474 85.2264 217.191 87.7535 212.772 89.9614C213.81 88.0668 214.892 86.1752 215.929 84.2363C211.33 86.716 207.092 89.781 203.261 93.3425C204.163 92.577 204.254 91.0874 203.486 90.186C193.117 103.667 180.899 115.702 167.33 125.937C172.065 119.083 176.752 112.232 181.44 105.378C180.042 105.198 178.599 105.017 177.157 104.837C177.157 102.493 177.113 100.102 177.113 97.7583C172.786 99.1563 168.952 101.905 166.248 105.514C177.249 90.8628 188.519 76.933 200.285 63.0474C203.261 61.1529 206.371 59.1696 209.663 57.1421C231.485 43.6171 262.276 0.0216443 262.276 0.0216443C272.958 -1.24041 240.363 52.9953 225.576 82.4777Z" fill="#2E1628"/>
<path d="M253.256 405.767C236.71 408.022 208.174 371.955 202.177 374.21C198.391 375.608 192.934 367.131 187.931 361.406C186.216 356.402 184.505 351.351 182.835 346.347C177.471 330.659 170.753 313.752 174.855 297.071C179.049 313.12 183.332 329.125 190.815 344.047C193.972 350.718 199.336 358.249 206.595 357.212C211.78 366.679 218.767 375.111 227.155 381.918C225.576 373.669 225.668 365.103 227.379 356.851C227.92 359.151 229.094 361.178 230.716 362.937C230.672 362.981 230.672 362.981 230.716 362.981C229.995 381.785 253.256 405.767 253.256 405.767Z" fill="#2E1628"/>
<path d="M69.932 250.883C74.6166 247.135 79.0413 244.135 82.2363 238.854C83.7585 236.335 84.917 233.66 85.6471 230.805C86.2914 228.284 86.2264 225.784 87.719 223.605C88.4579 222.524 90.113 222.367 90.8194 223.605C93.7692 228.772 89.7554 237.077 86.9298 241.596C83.5811 246.949 78.0718 252.491 71.7822 254.063C70.0857 254.486 68.3625 252.139 69.932 250.883Z" fill="#7973A9"/>
<path d="M63.7771 223.405C68.2372 220.082 71.3908 216.341 72.7799 210.852C74.0361 205.893 72.5258 200.587 74.1307 195.882C74.4913 194.824 76.0134 194.487 76.6104 195.56C79.5158 200.785 77.8606 209.359 75.706 214.662C73.6696 219.68 70.0933 224.176 64.8205 225.884C63.251 226.393 62.6304 224.259 63.7771 223.405Z" fill="#7973A9"/>
<path d="M41.903 223.724C43.8242 224.324 45.8576 224.448 46.5729 226.538C46.7709 227.117 46.4369 227.758 45.9492 228.069C44.2291 229.162 42.6094 228.027 40.9011 227.356C38.6962 226.496 39.5385 222.988 41.903 223.724Z" fill="#7973A9"/>
<g filter="url(#filter0_d_147_1064)">
<path d="M86.3772 249.899C86.3654 249.713 86.3535 249.524 86.3417 249.337C86.2353 247.694 88.2214 246.719 89.5515 247.496C90.982 248.332 90.8786 250.319 89.5515 251.179C89.4037 251.276 89.2559 251.371 89.1081 251.465C87.8786 252.26 86.46 251.193 86.3772 249.899Z" fill="#7973A9"/>
</g>
<g filter="url(#filter1_d_147_1064)">
<path d="M82.504 259.416C79.6489 259.416 79.643 254.98 82.504 254.98C85.3592 254.98 85.3621 259.416 82.504 259.416Z" fill="#7973A9"/>
</g>
<g filter="url(#filter2_d_147_1064)">
<path d="M83.838 273.5C83.8114 273.63 83.7848 273.757 83.7552 273.884C83.6666 274.301 83.2617 274.706 82.8449 274.794C82.7178 274.821 82.5878 274.848 82.4607 274.877C80.5898 275.273 79.0943 273.027 80.5425 271.582C81.9908 270.136 84.237 271.623 83.838 273.5Z" fill="#7973A9"/>
</g>
<g filter="url(#filter3_d_147_1064)">
<path d="M87.0114 284.935C84.6764 284.935 84.6735 281.308 87.0114 281.308C89.3463 281.305 89.3493 284.935 87.0114 284.935Z" fill="#7973A9"/>
</g>
<g filter="url(#filter4_d_147_1064)">
<path d="M92.0831 266.725C89.2517 266.725 89.2457 262.321 92.0831 262.321C94.9146 262.321 94.9206 266.725 92.0831 266.725Z" fill="#7973A9"/>
</g>
<g filter="url(#filter5_d_147_1064)">
<path d="M96.5916 278.261C93.4202 278.261 93.4143 273.331 96.5916 273.331C99.766 273.328 99.7719 278.261 96.5916 278.261Z" fill="#7973A9"/>
</g>
<g filter="url(#filter6_d_147_1064)">
<path d="M99.9713 286.573C96.9802 286.573 96.9743 281.923 99.9713 281.923C102.962 281.923 102.968 286.573 99.9713 286.573Z" fill="#7973A9"/>
</g>
<g filter="url(#filter7_d_147_1064)">
<path d="M102.79 263.553C102.979 263.536 103.165 263.518 103.355 263.5C104.156 263.426 105.013 264.289 104.939 265.084C104.921 265.273 104.903 265.46 104.886 265.649C104.723 267.39 102.681 268.504 101.309 267.13C99.9409 265.764 101.046 263.719 102.79 263.553Z" fill="#7973A9"/>
</g>
<g filter="url(#filter8_d_147_1064)">
<path d="M112.37 284.211C109.515 284.211 109.509 279.774 112.37 279.774C115.225 279.774 115.231 284.211 112.37 284.211Z" fill="#7973A9"/>
</g>
<g filter="url(#filter9_d_147_1064)">
<path d="M134.35 218.876C132.174 218.876 132.172 215.495 134.35 215.495C136.525 215.495 136.528 218.876 134.35 218.876Z" fill="#7973A9"/>
</g>
<g filter="url(#filter10_d_147_1064)">
<path d="M140.549 222.699C138.534 222.699 138.528 219.563 140.549 219.563C142.568 219.563 142.571 222.699 140.549 222.699Z" fill="#7973A9"/>
</g>
<g filter="url(#filter11_d_147_1064)">
<path d="M133.813 231.095C133.994 230.986 134.171 230.879 134.351 230.77C137.091 229.109 139.246 233.622 136.11 234.943C135.918 235.023 135.729 235.103 135.537 235.186C133.145 236.191 131.721 232.366 133.813 231.095Z" fill="#7973A9"/>
</g>
<g filter="url(#filter12_d_147_1064)">
<path d="M142.238 235.289C139.971 235.289 139.968 231.766 142.238 231.766C144.505 231.769 144.508 235.289 142.238 235.289Z" fill="#7973A9"/>
</g>
<g filter="url(#filter13_d_147_1064)">
<path d="M150.124 237.633C147.745 237.633 147.742 233.936 150.124 233.936C152.507 233.933 152.51 237.633 150.124 237.633Z" fill="#7973A9"/>
</g>
<g filter="url(#filter14_d_147_1064)">
<path d="M135.122 244.916C135.308 244.818 135.495 244.721 135.678 244.623C137.711 243.556 139.511 246.704 137.466 247.685C137.277 247.777 137.088 247.865 136.899 247.957C134.877 248.926 133.098 245.98 135.122 244.916Z" fill="#7973A9"/>
</g>
<g filter="url(#filter15_d_147_1064)">
<path d="M143.926 244.975C144.955 244.993 145.295 245.025 146.122 245.622C146.764 246.083 146.764 246.893 146.122 247.354C145.292 247.951 144.952 247.984 143.926 248.002C141.979 248.04 141.973 244.939 143.926 244.975Z" fill="#7973A9"/>
</g>
<g filter="url(#filter16_d_147_1064)">
<path d="M151.817 249.784C149.754 249.784 149.751 246.577 151.817 246.577C153.88 246.58 153.883 249.784 151.817 249.784Z" fill="#7973A9"/>
</g>
<g filter="url(#filter17_d_147_1064)">
<path d="M138.301 260.11C138.786 262.007 136.114 263.216 135.083 261.467C133.776 259.253 137.66 257.604 138.301 260.11Z" fill="#7973A9"/>
</g>
<g filter="url(#filter18_d_147_1064)">
<path d="M147.813 265.765C148.052 267.541 145.782 268.845 144.724 267.068C143.373 264.801 147.502 263.439 147.813 265.765Z" fill="#7973A9"/>
</g>
<g filter="url(#filter19_d_147_1064)">
<path d="M153.509 267.678C150.903 267.678 150.9 263.628 153.509 263.628C156.116 263.625 156.122 267.678 153.509 267.678Z" fill="#7973A9"/>
</g>
<g filter="url(#filter20_d_147_1064)">
<path d="M159.71 249.801C157.626 249.801 157.62 246.562 159.71 246.562C161.793 246.562 161.796 249.801 159.71 249.801Z" fill="#7973A9"/>
</g>
<g filter="url(#filter21_d_147_1064)">
<path d="M164.473 247.253C164.55 247.197 164.627 247.141 164.703 247.085C165.034 246.845 165.652 246.845 165.983 247.085C166.06 247.141 166.137 247.197 166.214 247.253C167.529 248.211 167.171 250.469 165.342 250.469C163.515 250.469 163.155 248.214 164.473 247.253Z" fill="#7973A9"/>
</g>
<g filter="url(#filter22_d_147_1064)">
<path d="M145.62 273.239C145.809 273.239 145.996 273.239 146.185 273.239C146.959 273.239 147.991 273.851 148.103 274.699C148.153 275.078 148.153 275.379 148.103 275.758C147.988 276.606 146.971 277.218 146.185 277.218C145.996 277.218 145.809 277.218 145.62 277.218C143.061 277.221 143.055 273.239 145.62 273.239Z" fill="#7973A9"/>
</g>
<g filter="url(#filter23_d_147_1064)">
<path d="M155.197 278.893C152.658 278.893 152.655 274.947 155.197 274.947C157.736 274.947 157.742 278.893 155.197 278.893Z" fill="#7973A9"/>
</g>
<g filter="url(#filter24_d_147_1064)">
<path d="M163.089 277.079C160.71 277.079 160.707 273.382 163.089 273.382C165.469 273.382 165.472 277.079 163.089 277.079Z" fill="#7973A9"/>
</g>
<path d="M150.128 286.661C150.317 286.641 150.504 286.62 150.693 286.599C153.468 286.292 153.471 291.225 150.693 290.917C150.504 290.897 150.317 290.876 150.128 290.855C147.439 290.551 147.436 286.96 150.128 286.661Z" fill="#7973A9"/>
<path d="M161.405 289.037C162.46 288.738 163.711 288.73 164.234 289.894C164.789 291.13 163.814 291.999 162.936 292.672C160.776 294.331 158.408 289.885 161.405 289.037Z" fill="#7973A9"/>
<g filter="url(#filter25_d_147_1064)">
<path d="M164.78 262.637C162.853 262.637 162.85 259.643 164.78 259.643C166.707 259.646 166.71 262.637 164.78 262.637Z" fill="#7973A9"/>
</g>
<g filter="url(#filter26_d_147_1064)">
<path d="M192.952 242.078C193.055 241.375 193.262 241.023 193.729 240.497C194.178 239.992 195.124 239.992 195.573 240.497C196.04 241.02 196.247 241.372 196.351 242.078C196.762 244.916 192.532 244.936 192.952 242.078Z" fill="#7973A9"/>
</g>
<g filter="url(#filter27_d_147_1064)">
<path d="M194.646 253.94C192.311 253.94 192.308 250.313 194.646 250.313C196.981 250.313 196.984 253.94 194.646 253.94Z" fill="#7973A9"/>
</g>
<g filter="url(#filter28_d_147_1064)">
<path d="M193.519 263.731C191.639 263.731 191.636 260.808 193.519 260.808C195.399 260.808 195.401 263.731 193.519 263.731Z" fill="#7973A9"/>
</g>
<g filter="url(#filter29_d_147_1064)">
<path d="M159.144 235.079C159.33 235.094 159.519 235.108 159.708 235.123C162.005 235.309 162.008 238.51 159.708 238.694C159.519 238.708 159.333 238.723 159.144 238.738C156.788 238.933 156.785 234.887 159.144 235.079Z" fill="#7973A9"/>
</g>
<g filter="url(#filter30_d_147_1064)">
<path d="M165.038 236.604C166.841 234.39 169.028 236.134 168.422 238.576C167.683 241.573 162.792 239.365 165.038 236.604Z" fill="#7973A9"/>
</g>
<g filter="url(#filter31_d_147_1064)">
<path d="M150.69 224.407C147.926 224.407 147.92 220.109 150.69 220.109C153.456 220.109 153.459 224.407 150.69 224.407Z" fill="#7973A9"/>
</g>
<g filter="url(#filter32_d_147_1064)">
<path d="M158.446 220.712C159.09 220.875 159.445 221.022 159.882 221.522C160.27 221.965 160.272 222.544 159.882 222.991C159.445 223.493 159.09 223.638 158.446 223.801C155.866 224.457 155.851 220.056 158.446 220.712Z" fill="#7973A9"/>
</g>
<g filter="url(#filter33_d_147_1064)">
<path d="M164.78 224.477C162.649 224.477 162.646 221.167 164.78 221.167C166.911 221.167 166.914 224.477 164.78 224.477Z" fill="#7973A9"/>
</g>
<g filter="url(#filter34_d_147_1064)">
<path d="M96.5855 219.076C96.7658 219.047 96.9461 219.017 97.1234 218.985C100.712 218.382 100.732 223.882 97.1234 223.276C96.9431 223.247 96.7628 223.217 96.5855 223.185C94.552 222.842 94.552 219.416 96.5855 219.076Z" fill="#7973A9"/>
</g>
<g filter="url(#filter35_d_147_1064)">
<path d="M106.737 225.919C104.198 225.919 104.195 221.974 106.737 221.974C109.276 221.977 109.279 225.919 106.737 225.919Z" fill="#7973A9"/>
</g>
<g filter="url(#filter36_d_147_1064)">
<path d="M105.301 230.457C105.399 230.549 105.493 230.64 105.591 230.732C106.194 231.302 106.194 232.378 105.591 232.949C105.493 233.04 105.399 233.132 105.301 233.224C104.08 234.379 101.964 233.569 101.964 231.84C101.964 230.117 104.08 229.301 105.301 230.457Z" fill="#7973A9"/>
</g>
<g filter="url(#filter37_d_147_1064)">
<path d="M110.115 233.776C108.347 233.776 108.344 231.027 110.115 231.027C111.882 231.027 111.885 233.776 110.115 233.776Z" fill="#7973A9"/>
</g>
<g filter="url(#filter38_d_147_1064)">
<path d="M103.353 242.105C101.018 242.105 101.015 238.478 103.353 238.478C105.688 238.478 105.691 242.105 103.353 242.105Z" fill="#7973A9"/>
</g>
<g filter="url(#filter39_d_147_1064)">
<path d="M107.861 247.159C108.824 247.259 109.342 247.377 109.9 248.211C110.098 248.504 110.098 248.982 109.9 249.278C109.345 250.105 108.839 250.227 107.861 250.33C105.822 250.543 105.819 246.943 107.861 247.159Z" fill="#7973A9"/>
</g>
<g filter="url(#filter40_d_147_1064)">
<path d="M110.68 243.724C108.436 243.724 108.433 240.236 110.68 240.236C112.923 240.239 112.926 243.724 110.68 243.724Z" fill="#7973A9"/>
</g>
<g filter="url(#filter41_d_147_1064)">
<path d="M92.1374 208.056C92.9886 207.704 93.5826 207.698 94.3688 208.174C94.7117 208.381 95.022 208.815 94.9807 209.238C94.8654 210.349 94.499 210.793 93.5384 211.369C91.3512 212.687 89.6399 209.087 92.1374 208.056Z" fill="#7973A9"/>
</g>
<g filter="url(#filter42_d_147_1064)">
<path d="M103.356 213.119C101.34 213.119 101.334 209.983 103.356 209.983C105.375 209.983 105.378 213.119 103.356 213.119Z" fill="#7973A9"/>
</g>
<g filter="url(#filter43_d_147_1064)">
<path d="M110.116 215.655C107.736 215.655 107.733 211.958 110.116 211.958C112.495 211.955 112.501 215.655 110.116 215.655Z" fill="#7973A9"/>
</g>
<g filter="url(#filter44_d_147_1064)">
<path d="M88.7019 191.07C88.891 191.05 89.0773 191.026 89.2664 191.005C91.7728 190.713 91.7787 195.199 89.2664 194.907C89.0773 194.886 88.891 194.863 88.7019 194.842C86.2842 194.558 86.2783 191.354 88.7019 191.07Z" fill="#7973A9"/>
</g>
<g filter="url(#filter45_d_147_1064)">
<path d="M95.187 198.837C95.7131 199.502 96.0265 199.94 96.0708 200.791C96.0944 201.202 95.8313 201.565 95.5033 201.778C94.9269 202.151 94.4836 202.198 93.8038 202.171C89.7132 202.015 93.0767 196.174 95.187 198.837Z" fill="#7973A9"/>
</g>
<g filter="url(#filter46_d_147_1064)">
<path d="M103.354 201.9C101.267 201.9 101.264 198.661 103.354 198.661C105.44 198.661 105.443 201.9 103.354 201.9Z" fill="#7973A9"/>
</g>
<g filter="url(#filter47_d_147_1064)">
<path d="M131.533 199.736C128.61 199.736 128.604 195.193 131.533 195.193C134.456 195.19 134.459 199.736 131.533 199.736Z" fill="#7973A9"/>
</g>
<g filter="url(#filter48_d_147_1064)">
<path d="M135.475 202.939C136.627 203.051 137.156 203.184 138.025 203.929C138.498 204.334 138.495 205.245 138.025 205.646C137.133 206.412 136.645 206.521 135.475 206.637C133.098 206.867 133.092 202.706 135.475 202.939Z" fill="#7973A9"/>
</g>
<g filter="url(#filter49_d_147_1064)">
<path d="M147.31 210.299C145.294 210.299 145.289 207.167 147.31 207.167C149.326 207.167 149.332 210.299 147.31 210.299Z" fill="#7973A9"/>
</g>
<g filter="url(#filter50_d_147_1064)">
<path d="M156.889 211.637C153.874 211.637 153.871 206.953 156.889 206.953C159.904 206.953 159.91 211.637 156.889 211.637Z" fill="#7973A9"/>
</g>
<path d="M74.9514 163.692C75.2055 162.404 75.5484 161.774 76.7543 161.239C77.4696 160.923 78.4508 160.985 78.8498 161.789C79.5385 163.175 79.4321 163.902 78.6843 165.268C77.5228 167.387 74.5169 165.876 74.9514 163.692Z" fill="#946A6F"/>
<path d="M89.2654 156.941C90.1965 156.829 90.6427 157.068 91.3521 157.621C91.8841 158.035 91.8812 159.125 91.3521 159.539C90.6221 160.11 90.2053 160.331 89.2654 160.219C87.164 159.965 87.1581 157.192 89.2654 156.941Z" fill="#946A6F"/>
<path d="M96.7411 155.771C96.9303 155.676 97.1165 155.582 97.3057 155.487C99.4662 154.402 101.378 157.651 99.209 158.741C99.0228 158.836 98.8337 158.931 98.6475 159.025C96.4811 160.11 94.5717 156.862 96.7411 155.771Z" fill="#946A6F"/>
<path d="M85.3193 151.568C82.7361 151.568 82.7302 147.555 85.3193 147.555C87.9025 147.555 87.9055 151.568 85.3193 151.568Z" fill="#946A6F"/>
<path d="M95.4643 139.928C98.3608 140.194 98.3608 143.15 95.4643 143.416C93.221 143.62 93.2181 139.721 95.4643 139.928Z" fill="#946A6F"/>
<path d="M128.713 162.084C126.378 162.084 126.375 158.458 128.713 158.458C131.047 158.455 131.05 162.084 128.713 162.084Z" fill="#946A6F"/>
<path d="M138.855 164.954C136.452 164.954 136.449 161.221 138.855 161.221C141.258 161.221 141.261 164.954 138.855 164.954Z" fill="#946A6F"/>
<path d="M149.564 167.947C146.937 167.947 146.931 163.862 149.564 163.862C152.192 163.859 152.198 167.947 149.564 167.947Z" fill="#946A6F"/>
<path d="M134.348 155.126C132.264 155.126 132.259 151.887 134.348 151.887C136.432 151.887 136.435 155.126 134.348 155.126Z" fill="#946A6F"/>
<path d="M144.491 156.288C143.087 156.288 143.084 154.104 144.491 154.104C145.895 154.104 145.898 156.288 144.491 156.288Z" fill="#946A6F"/>
<path d="M151.252 160.745C149.189 160.745 149.186 157.542 151.252 157.542C153.315 157.539 153.318 160.745 151.252 160.745Z" fill="#946A6F"/>
<path d="M144.672 141.492C144.77 141.584 144.864 141.676 144.962 141.767C145.523 142.299 145.523 143.301 144.962 143.833C144.864 143.925 144.77 144.017 144.672 144.108C143.516 145.202 141.515 144.436 141.515 142.802C141.515 141.17 143.519 140.402 144.672 141.492Z" fill="#946A6F"/>
<path d="M156.325 145.565C153.494 145.565 153.488 141.161 156.325 141.161C159.157 141.161 159.163 145.565 156.325 145.565Z" fill="#946A6F"/>
<path d="M178.574 133.507C185.005 125.89 191.679 118.484 198.766 111.473C201.763 108.508 207.687 99.5173 212.563 101.9C213.347 102.281 213.172 103.629 212.315 103.797C208.866 104.486 204.988 109.525 202.535 111.86C199.937 114.331 197.377 116.843 194.838 119.376C189.761 124.439 184.851 129.659 180.069 135.003C179.153 136.025 177.705 134.536 178.574 133.507Z" fill="#887062"/>
<path d="M186.235 137.192C191.043 131.213 196.127 125.47 201.56 120.046C203.883 117.729 208.018 112.01 211.514 115.134C212.04 115.604 211.709 116.402 211.124 116.606C206.079 118.376 202.077 123.117 198.344 126.835C194.587 130.577 190.999 134.476 187.529 138.486C186.749 139.388 185.51 138.093 186.235 137.192Z" fill="#887062"/>
<path d="M190.107 145.004C193.76 140.846 197.602 136.873 201.699 133.149C204.923 130.217 208.553 126.035 212.797 124.741C213.518 124.522 214.254 125.405 213.811 126.059C211.207 129.904 206.369 132.366 202.872 135.434C198.909 138.91 195.17 142.619 191.602 146.497C190.674 147.505 189.214 146.021 190.107 145.004Z" fill="#887062"/>
<path d="M192.744 152.157C195.36 148.802 198.12 145.571 201.07 142.506C203.505 139.973 206.136 136.672 209.417 135.298C210.404 134.884 211.285 136.235 210.77 137.056C208.864 140.104 205.211 142.373 202.636 144.892C199.74 147.726 197.012 150.717 194.411 153.824C193.427 155.006 191.831 153.327 192.744 152.157Z" fill="#887062"/>
<path d="M198.057 158.502C199.446 156.324 200.992 154.249 202.727 152.331C204.101 150.811 205.845 148.296 208.074 148.364C208.819 148.388 209.235 149.029 209.108 149.724C208.762 151.615 206.416 152.854 205.097 154.151C203.33 155.892 201.74 157.793 200.306 159.817C199.355 161.165 197.141 159.938 198.057 158.502Z" fill="#887062"/>
<path d="M149.082 126.646C151.908 124.143 154.112 120.895 156.536 118.013C158.759 115.374 161.179 111.369 164.386 109.956C165.196 109.598 166.295 110.196 165.991 111.189C164.909 114.721 161.197 117.567 158.72 120.197C156.072 123.008 153.533 126.094 150.105 127.974C149.295 128.42 148.34 127.306 149.082 126.646Z" fill="#887062"/>
<path d="M159.418 100.247C161.088 98.3256 162.758 96.4015 164.431 94.4804C165.956 92.7247 167.381 90.8006 169.34 89.512C170.245 88.9149 171.176 90.0587 170.738 90.9099C169.668 92.9848 167.854 94.6311 166.278 96.3276C164.549 98.1897 162.817 100.055 161.088 101.917C160.045 103.037 158.431 101.385 159.418 100.247Z" fill="#887062"/>
<path d="M175.927 125.21C178.436 122.151 181.055 119.192 183.819 116.361C186.156 113.967 188.468 111.177 191.604 109.876C192.292 109.589 192.886 110.523 192.538 111.091C190.75 114.02 187.59 116.077 185.125 118.43C182.397 121.034 179.799 123.759 177.295 126.578C176.459 127.524 175.15 126.159 175.927 125.21Z" fill="#887062"/>
<path d="M247.358 183.01C259.166 176.637 272.729 169.686 285.607 165.846C286.934 165.45 287.664 167.327 286.529 168.036C275.147 175.159 260.963 180.734 248.363 185.395C246.971 185.906 246.072 183.704 247.358 183.01Z" fill="#6C7291"/>
<path d="M247.332 193.094C260.399 188.247 275.789 182.129 289.893 181.999C290.901 181.99 291.02 183.385 290.124 183.693C276.457 188.422 261.62 190.074 247.773 194.688C246.753 195.03 246.348 193.458 247.332 193.094Z" fill="#6C7291"/>
<path d="M247.336 203.17C260.249 200.883 274.971 198.512 287.958 201.134C289.318 201.409 288.88 203.318 287.648 203.416C274.291 204.489 261.015 203.374 247.605 205.174C246.476 205.328 246.204 203.371 247.336 203.17Z" fill="#6C7291"/>
<path d="M246.752 211.118C261.025 214.011 278.481 216.367 291.347 223.472C292.219 223.954 291.565 225.065 290.723 224.953C275.96 222.961 260.88 216.216 246.362 212.542C245.431 212.309 245.827 210.932 246.752 211.118Z" fill="#6C7291"/>
<path d="M248.78 221.809C262.657 229.094 279.022 236.853 290.753 247.316C291.885 248.327 290.443 249.763 289.261 249.252C281.91 246.08 275.183 240.852 268.447 236.525C261.596 232.124 254.718 227.753 248 223.148C247.178 222.586 247.888 221.339 248.78 221.809Z" fill="#6C7291"/>
<path d="M216.643 241.579C218.469 242.873 221.244 245.093 221.005 247.581C220.946 248.205 220.248 248.811 219.628 248.374C217.854 247.126 217.036 244.712 215.407 243.184C214.577 242.403 215.682 240.896 216.643 241.579Z" fill="#887062"/>
<path d="M213.316 250.362C215.704 252.904 218.001 255.529 220.17 258.26C221.973 260.53 224.039 262.797 224.988 265.566C225.204 266.193 224.388 266.532 223.956 266.166C221.796 264.313 220.362 261.691 218.645 259.436C216.576 256.723 214.377 254.116 212.092 251.583C211.354 250.761 212.551 249.549 213.316 250.362Z" fill="#887062"/>
<path d="M210.676 267.091C214.415 270.86 217.979 274.782 221.319 278.908C223.778 281.952 227.284 285.322 227.766 289.312C227.857 290.083 226.87 290.503 226.282 290.163C222.942 288.224 221.101 283.864 218.887 280.785C215.851 276.561 212.577 272.53 209.133 268.634C208.208 267.591 209.677 266.083 210.676 267.091Z" fill="#887062"/>
<path d="M204.031 283.312C208.19 287.843 212.059 292.604 215.552 297.67C218.57 302.045 222.607 307.049 223.293 312.431C223.414 313.382 222.108 313.722 221.52 313.167C217.914 309.756 215.954 304.288 213.264 300.109C209.904 294.889 206.124 289.98 202.042 285.307C200.854 283.947 202.796 281.964 204.031 283.312Z" fill="#887062"/>
<path d="M200.143 301.708C208.12 313.442 217.832 326.157 222.609 339.602C223.179 341.21 220.9 341.896 220.034 340.687C211.661 329.021 205.791 315.118 198.045 302.935C197.196 301.602 199.271 300.425 200.143 301.708Z" fill="#887062"/>
<path d="M194.878 309.795C196.672 315.928 198.759 321.94 201.28 327.815C203.503 332.997 206.792 337.918 208.341 343.323C208.649 344.396 207.177 345.348 206.399 344.455C198.851 335.793 195.277 321.372 192.363 310.489C191.929 308.867 194.408 308.187 194.878 309.795Z" fill="#887062"/>
<path d="M163.902 310.359C165.778 314.932 168.539 319.868 169.115 324.818C169.239 325.877 167.833 325.942 167.342 325.297C164.324 321.348 162.867 315.715 161.047 311.143C160.343 309.372 163.189 308.627 163.902 310.359Z" fill="#887062"/>
<path d="M248.676 215.782C261.169 221.888 275.179 226.576 287.096 233.625C288.192 234.275 287.459 235.939 286.242 235.653C272.868 232.508 259.443 224.38 247.7 217.455C246.613 216.814 247.564 215.238 248.676 215.782Z" fill="#887062"/>
<path d="M246.379 227.944C256.046 235.504 265.54 242.823 275.831 249.431C276.966 250.161 276.225 251.805 274.936 251.556C269.891 250.575 265.714 246.789 261.845 243.588C256.174 238.898 250.59 234.104 244.981 229.342C244.002 228.506 245.4 227.181 246.379 227.944Z" fill="#887062"/>
<path d="M248.18 208.47C261.25 208.195 275.227 207.994 287.966 211.31C289.098 211.606 288.894 213.45 287.685 213.385C274.468 212.676 261.472 210.403 248.18 210.196C247.072 210.178 247.069 208.494 248.18 208.47Z" fill="#887062"/>
<path d="M247.878 198.593C261.905 195.025 277.124 190.134 291.636 189.572C292.697 189.531 292.842 191.071 291.878 191.372C277.946 195.743 262.677 197.177 248.41 200.532C247.157 200.824 246.622 198.912 247.878 198.593Z" fill="#887062"/>
<path d="M246.256 188.712C259.048 184.473 272.466 179.348 285.758 177.069C286.618 176.922 287.36 178.204 286.408 178.615C273.941 183.983 259.849 187.039 246.741 190.479C245.597 190.781 245.142 189.081 246.256 188.712Z" fill="#887062"/>
<g filter="url(#filter51_d_147_1064)">
<path d="M195.408 227.132C195.635 227.091 195.866 227.052 196.093 227.011C196.812 226.884 197.347 227.419 197.22 228.137C197.178 228.365 197.14 228.595 197.098 228.823C196.56 231.843 192.387 227.67 195.408 227.132Z" fill="#7973A9"/>
</g>
<g filter="url(#filter52_d_147_1064)">
<path d="M196.828 211.475C198.682 212.138 198.54 215.072 196.341 215.072C193.58 215.072 194.343 210.589 196.828 211.475Z" fill="#7973A9"/>
</g>
<g filter="url(#filter53_d_147_1064)">
<path d="M202.535 224.371C199.816 224.371 199.81 220.144 202.535 220.144C205.258 220.144 205.261 224.371 202.535 224.371Z" fill="#7973A9"/>
</g>
<g filter="url(#filter54_d_147_1064)">
<path d="M202.535 235.342C200.2 235.342 200.197 231.715 202.535 231.715C204.87 231.715 204.873 235.342 202.535 235.342Z" fill="#7973A9"/>
</g>
<path d="M210.264 218.365C210.414 217.668 210.648 217.275 211.094 216.728C211.552 216.163 212.678 216.166 213.137 216.728C213.583 217.275 213.816 217.668 213.967 218.365C214.629 221.46 209.599 221.481 210.264 218.365Z" fill="#7973A9"/>
<g filter="url(#filter55_d_147_1064)">
<path d="M197.464 203.892C198.442 203.794 198.572 203.812 199.491 204.131C200.691 204.548 200.694 206.159 199.491 206.575C198.572 206.894 198.439 206.912 197.464 206.815C195.587 206.625 195.584 204.078 197.464 203.892Z" fill="#7973A9"/>
</g>
<path d="M208.73 205C209.558 205.086 209.974 205.201 210.604 205.733C211.015 206.079 211.015 206.883 210.604 207.229C209.957 207.773 209.567 207.873 208.73 207.962C206.827 208.157 206.824 204.802 208.73 205Z" fill="#7973A9"/>
<path d="M220.57 205.228C220.759 205.219 220.946 205.213 221.135 205.207C223.496 205.116 223.502 208.97 221.135 208.878C220.949 208.872 220.759 208.863 220.57 208.857C218.235 208.766 218.232 205.319 220.57 205.228Z" fill="#7973A9"/>
<path d="M228.462 208.591C226.467 208.591 226.464 205.49 228.462 205.49C230.457 205.493 230.46 208.591 228.462 208.591Z" fill="#7973A9"/>
<g filter="url(#filter56_d_147_1064)">
<path d="M135.475 186.861C133.164 186.861 133.161 183.27 135.475 183.27C137.787 183.267 137.792 186.861 135.475 186.861Z" fill="#7973A9"/>
</g>
<g filter="url(#filter57_d_147_1064)">
<path d="M142.235 187.849C142.424 187.846 142.61 187.84 142.799 187.837C145.037 187.787 145.04 191.366 142.799 191.316C142.61 191.313 142.424 191.307 142.235 191.304C140.015 191.248 140.012 187.899 142.235 187.849Z" fill="#7973A9"/>
</g>
<g filter="url(#filter58_d_147_1064)">
<path d="M154.639 193.802C152.1 193.802 152.097 189.856 154.639 189.856C157.175 189.856 157.181 193.802 154.639 193.802Z" fill="#7973A9"/>
</g>
<g filter="url(#filter59_d_147_1064)">
<path d="M88.2161 174.246C88.4053 174.155 88.5944 174.066 88.7866 173.974C91.0949 172.872 93.1343 176.227 90.8171 177.45C90.6309 177.548 90.4447 177.645 90.2615 177.743C87.9384 178.969 85.8812 175.361 88.2161 174.246Z" fill="#7973A9"/>
</g>
<g filter="url(#filter60_d_147_1064)">
<path d="M103.852 183.802C104.038 183.897 104.228 183.994 104.414 184.089C106.758 185.283 104.692 188.809 102.351 187.618C102.164 187.523 101.975 187.426 101.789 187.331C99.4483 186.137 101.511 182.611 103.852 183.802Z" fill="#7973A9"/>
</g>
<g filter="url(#filter61_d_147_1064)">
<path d="M110.116 187.511C107.693 187.511 107.687 183.743 110.116 183.743C112.543 183.743 112.546 187.511 110.116 187.511Z" fill="#7973A9"/>
</g>
<g filter="url(#filter62_d_147_1064)">
<path d="M100.51 169.639C101.406 169.08 101.997 168.876 103.023 169.133C103.427 169.234 103.782 169.589 103.883 169.994C104.149 171.058 103.945 171.592 103.377 172.506C101.562 175.417 97.5783 171.468 100.51 169.639Z" fill="#7973A9"/>
</g>
<g filter="url(#filter63_d_147_1064)">
<path d="M135.476 174.395C136.611 174.433 137.08 174.563 137.926 175.29C138.342 175.648 138.342 176.452 137.926 176.81C137.054 177.557 136.631 177.667 135.476 177.705C133.345 177.776 133.342 174.321 135.476 174.395Z" fill="#7973A9"/>
</g>
<g filter="url(#filter64_d_147_1064)">
<path d="M149.565 181.931C147.07 181.931 147.067 178.056 149.565 178.056C152.056 178.056 152.062 181.931 149.565 181.931Z" fill="#7973A9"/>
</g>
<g filter="url(#filter65_d_147_1064)">
<path d="M159.144 182.528C156.605 182.528 156.602 178.583 159.144 178.583C161.682 178.585 161.685 182.528 159.144 182.528Z" fill="#7973A9"/>
</g>
<g filter="url(#filter66_d_147_1064)">
<path d="M194.797 184.319C195.595 185.762 193.713 187.328 192.474 186.113C190.937 184.6 193.745 182.419 194.797 184.319Z" fill="#7973A9"/>
</g>
<g filter="url(#filter67_d_147_1064)">
<path d="M194.649 196.706C192.722 196.706 192.719 193.712 194.649 193.712C196.576 193.712 196.579 196.706 194.649 196.706Z" fill="#7973A9"/>
</g>
<g filter="url(#filter68_d_147_1064)">
<path d="M158.58 196.653C158.769 196.632 158.955 196.609 159.144 196.588C161.719 196.29 161.722 200.892 159.144 200.593C158.955 200.572 158.769 200.549 158.58 200.528C156.094 200.238 156.091 196.94 158.58 196.653Z" fill="#7973A9"/>
</g>
<path d="M75.3662 152.402C75.4637 152.718 75.5583 153.031 75.6558 153.345C74.4174 153.678 73.1791 154.015 71.9436 154.349C72.0146 152.759 72.0855 151.169 72.1564 149.576C72.2214 148.107 73.8323 146.999 75.18 147.841C76.0579 148.388 76.9357 148.935 77.8135 149.484C76.7997 150.067 75.7859 150.649 74.7722 151.231C74.4411 147.933 75.7061 144.859 77.8696 142.394C79.7553 140.245 83.5681 137.195 86.5267 137.485C87.2951 137.558 87.6852 138.241 87.3631 138.942C86.3936 141.061 83.7868 142.101 82.1198 143.706C79.9031 145.837 78.5169 148.069 78.8154 151.234C78.9602 152.765 76.9918 153.752 75.7741 152.981C74.8992 152.428 74.0273 151.873 73.1525 151.32C74.1603 150.741 75.1681 150.161 76.176 149.585C76.0933 151.175 76.0105 152.765 75.9278 154.358C75.8243 156.356 73.315 157.039 72.2155 155.363C71.4766 154.237 71.3731 153.211 71.7692 151.92C72.3514 150.013 75.5022 150.262 75.3662 152.402Z" fill="#2E1628"/>
<path d="M85.6757 137.884C102.659 128.547 120.443 123.508 134.429 109.672C139.903 104.258 145.923 100.847 152.396 96.7149C159.312 92.3021 164.86 86.2253 171.732 81.7623C172.896 81.0057 173.969 82.8618 172.816 83.6185C165.948 88.114 160.444 94.2617 153.614 98.7985C144.93 104.568 137.913 110.704 130.134 117.54C118.737 127.554 100.297 133.914 86.2609 139.27C85.451 139.577 84.9338 138.292 85.6757 137.884Z" fill="#2E1628"/>
<path d="M1.69027 211.384C3.66168 212.513 5.29911 214.068 7.36214 215.088C8.92567 215.859 11.03 215.992 11.6773 217.771C11.8133 218.147 11.5769 218.516 11.2902 218.726C9.62618 219.926 7.13158 218.209 5.60056 217.352C3.60847 216.234 1.44496 214.837 0.174038 212.901C-0.455511 211.949 0.765164 210.855 1.69027 211.384Z" fill="#C1C0B2"/>
<path d="M33.8104 203.055C33.8636 198.625 36.2487 194.623 39.4024 191.617C41.3561 189.755 46.9008 185.121 49.5225 187.621C49.7796 187.866 49.889 188.274 49.7855 188.614C49.3599 190.009 48.5974 190.139 47.3058 190.648C45.4023 191.398 43.6408 192.377 42.095 193.727C39.1098 196.334 37.4487 199.736 35.9916 203.351C35.5512 204.436 33.7926 204.403 33.8104 203.055Z" fill="#C1C0B2"/>
<path d="M11.1446 209.466C12.7998 209.079 14.3633 208.828 15.9061 208.047C17.1445 207.421 18.0519 206.51 19.4884 206.555C20.3159 206.578 20.7209 207.273 20.6085 208.027C20.0972 211.529 13.9377 212.543 11.1446 212.049C9.82938 211.813 9.90623 209.756 11.1446 209.466Z" fill="#C1C0B2"/>
<path d="M119.343 127.234C122.629 123.419 126.436 120.014 130.341 116.842C133.426 114.339 137.02 110.831 140.919 109.897C141.587 109.737 142.414 110.538 141.912 111.191C139.453 114.392 135.291 116.387 132.105 118.855C128.139 121.926 124.486 125.313 120.708 128.603C119.768 129.427 118.53 128.183 119.343 127.234Z" fill="#DFCD71"/>
<path d="M122.897 129.972C124.792 126.992 127.342 123.475 130.685 122.068C131.74 121.625 132.284 123.112 131.696 123.806C130.591 125.104 129.057 126.064 127.824 127.258C126.58 128.464 125.409 129.726 124.334 131.083C123.689 131.899 122.344 130.841 122.897 129.972Z" fill="#DFCD71"/>
<path d="M145.663 105.844C147.697 104.52 149.727 103.202 151.802 101.943C153.691 100.796 155.526 99.4009 157.705 98.8955C158.745 98.6531 159.451 99.8768 158.733 100.663C157.223 102.309 155.11 103.223 153.183 104.304C151.066 105.492 148.921 106.613 146.766 107.733C145.516 108.38 144.484 106.613 145.663 105.844Z" fill="#DFCD71"/>
<path d="M68.3184 206.956C68.3184 215.12 61.7007 221.737 53.5373 221.737C45.3738 221.737 38.7591 215.12 38.7591 206.956C38.7591 198.793 45.3768 192.178 53.5373 192.178C61.7007 192.178 68.3184 198.796 68.3184 206.956Z" fill="#BBAC45"/>
<path d="M58.9223 201.734C58.6711 202.177 58.5735 202.234 58.8277 201.728C58.3548 202.662 58.1154 203.552 57.4977 204.421C57.1253 204.941 56.744 205.372 56.2977 205.813C56.1647 205.943 55.0622 206.915 55.8248 206.176C56.1026 205.905 56.1469 205.464 55.8602 206.212C56.076 205.65 55.8603 205.293 55.9667 206.085C55.6859 204.045 53.9421 202.916 51.8909 203.25C54.944 202.754 57.3942 203.643 59.1617 206.209C59.1676 206.218 59.1764 206.23 59.1823 206.239C57.3321 205.485 55.4819 204.734 53.6317 203.98C54.1637 203.862 54.2021 203.892 53.747 204.072C56.0523 202.955 58.8779 203.827 59.6168 206.46C59.7705 206.948 59.8562 207.447 59.871 207.965C59.9153 208.57 59.8946 208.5 59.8089 207.749C61.1271 211.056 58.34 214.727 55.3134 215.667C48.4978 217.783 41.9747 211.836 42.2909 204.953C42.4417 201.687 44.0229 198.604 46.4436 196.438C48.3647 194.72 50.5963 193.689 53.2061 193.982C54.6692 194.147 55.8543 194.658 57.2139 195.232C59.6109 196.243 60.0543 199.727 58.9223 201.734Z" fill="#2E1628"/>
<path d="M52.6048 218.552C54.5555 216.025 58.0638 216.19 59.9761 213.796C63.0381 209.963 62.3199 204.395 60.8155 200.121C60.2983 198.655 62.7397 197.591 63.3574 199.048C65.1337 203.239 65.3731 208.048 63.6292 212.316C63.0056 213.838 62.1603 215.292 60.8569 216.329C58.7407 218.011 55.7378 217.659 53.6866 219.386C53.1368 219.844 52.0935 219.217 52.6048 218.552Z" fill="#DFCD71"/>
<path d="M155.914 311.149C157.779 313.546 159.62 315.952 161.414 318.402C162.886 320.412 165.694 322.912 165.428 325.557C165.372 326.128 164.899 326.592 164.29 326.423C161.834 325.741 160.725 322.758 159.451 320.746C157.702 317.976 156.002 315.186 154.335 312.366C153.777 311.415 155.198 310.226 155.914 311.149Z" fill="#DFCD71"/>
<path d="M169.388 308.335C170.094 309.919 170.804 311.503 171.504 313.091C172.098 314.432 172.565 315.163 172.184 316.596C172.004 317.267 171.179 317.616 170.579 317.249C169.35 316.496 169.137 315.629 168.658 314.291C168.07 312.656 167.491 311.016 166.908 309.381C166.4 307.951 168.762 306.928 169.388 308.335Z" fill="#DFCD71"/>
<path d="M105.807 287.993C107.956 287.665 110.095 287.562 112.268 287.503C113.988 287.456 115.628 287.21 116.618 288.812C116.802 289.111 116.802 289.527 116.618 289.826C115.628 291.428 113.988 291.18 112.268 291.132C110.095 291.073 107.956 290.97 105.807 290.642C104.494 290.444 104.494 288.194 105.807 287.993Z" fill="#DFCD71"/>
<path d="M248.743 176.097C255.642 170.588 262.579 167.118 270.804 164.162C278.923 161.248 285.035 155.088 293.421 152.561C295.294 151.997 295.986 154.778 294.216 155.449C286.957 158.192 281.43 163.293 274.425 166.252C265.865 169.867 258.246 173.15 250.322 178.142C249.098 178.917 247.573 177.034 248.743 176.097Z" fill="#887062"/>
<path d="M311.095 254.74C316.37 272.772 316.37 275.793 297.57 268.265C295.542 267.452 293.243 266.37 290.763 265.064C295.947 265.2 301.223 265.155 306.451 264.883C302.438 251.811 302.169 237.878 301.944 224.173C301.719 209.838 301.447 195.5 301.223 181.118C301.087 172.733 300.998 164.032 304.648 156.456C307.084 151.408 311.275 146.177 307.625 140.768C321.51 136.08 320.204 146.493 311.095 155.555C301.356 165.338 307.353 175.842 308.84 185.625C310.374 195.409 304.332 205.147 308.118 217.948C311.863 230.71 305.866 236.707 311.095 254.74Z" fill="#686075"/>
<defs>
<filter id="filter0_d_147_1064" x="80.3379" y="245.224" width="16.248" height="16.5146" filterUnits="userSpaceOnUse" color-interpolation-filters="sRGB">
<feFlood flood-opacity="0" result="BackgroundImageFix"/>
<feColorMatrix in="SourceAlpha" type="matrix" values="0 0 0 0 0 0 0 0 0 0 0 0 0 0 0 0 0 0 127 0" result="hardAlpha"/>
<feOffset dy="4"/>
<feGaussianBlur stdDeviation="3"/>
<feComposite in2="hardAlpha" operator="out"/>
<feColorMatrix type="matrix" values="0 0 0 0 1 0 0 0 0 0.8 0 0 0 0 0.372549 0 0 0 0.25 0"/>
<feBlend mode="normal" in2="BackgroundImageFix" result="effect1_dropShadow_147_1064"/>
<feBlend mode="normal" in="SourceGraphic" in2="effect1_dropShadow_147_1064" result="shape"/>
</filter>
<filter id="filter1_d_147_1064" x="74.3613" y="252.98" width="16.2852" height="16.4365" filterUnits="userSpaceOnUse" color-interpolation-filters="sRGB">
<feFlood flood-opacity="0" result="BackgroundImageFix"/>
<feColorMatrix in="SourceAlpha" type="matrix" values="0 0 0 0 0 0 0 0 0 0 0 0 0 0 0 0 0 0 127 0" result="hardAlpha"/>
<feOffset dy="4"/>
<feGaussianBlur stdDeviation="3"/>
<feComposite in2="hardAlpha" operator="out"/>
<feColorMatrix type="matrix" values="0 0 0 0 1 0 0 0 0 0.8 0 0 0 0 0.372549 0 0 0 0.25 0"/>
<feBlend mode="normal" in2="BackgroundImageFix" result="effect1_dropShadow_147_1064"/>
<feBlend mode="normal" in="SourceGraphic" in2="effect1_dropShadow_147_1064" result="shape"/>
</filter>
<filter id="filter2_d_147_1064" x="73.9629" y="269.001" width="15.9219" height="15.9219" filterUnits="userSpaceOnUse" color-interpolation-filters="sRGB">
<feFlood flood-opacity="0" result="BackgroundImageFix"/>
<feColorMatrix in="SourceAlpha" type="matrix" values="0 0 0 0 0 0 0 0 0 0 0 0 0 0 0 0 0 0 127 0" result="hardAlpha"/>
<feOffset dy="4"/>
<feGaussianBlur stdDeviation="3"/>
<feComposite in2="hardAlpha" operator="out"/>
<feColorMatrix type="matrix" values="0 0 0 0 1 0 0 0 0 0.8 0 0 0 0 0.372549 0 0 0 0.25 0"/>
<feBlend mode="normal" in2="BackgroundImageFix" result="effect1_dropShadow_147_1064"/>
<feBlend mode="normal" in="SourceGraphic" in2="effect1_dropShadow_147_1064" result="shape"/>
</filter>
<filter id="filter3_d_147_1064" x="79.2598" y="279.308" width="15.5039" height="15.6265" filterUnits="userSpaceOnUse" color-interpolation-filters="sRGB">
<feFlood flood-opacity="0" result="BackgroundImageFix"/>
<feColorMatrix in="SourceAlpha" type="matrix" values="0 0 0 0 0 0 0 0 0 0 0 0 0 0 0 0 0 0 127 0" result="hardAlpha"/>
<feOffset dy="4"/>
<feGaussianBlur stdDeviation="3"/>
<feComposite in2="hardAlpha" operator="out"/>
<feColorMatrix type="matrix" values="0 0 0 0 1 0 0 0 0 0.8 0 0 0 0 0.372549 0 0 0 0.25 0"/>
<feBlend mode="normal" in2="BackgroundImageFix" result="effect1_dropShadow_147_1064"/>
<feBlend mode="normal" in="SourceGraphic" in2="effect1_dropShadow_147_1064" result="shape"/>
</filter>
<filter id="filter4_d_147_1064" x="83.957" y="260.321" width="16.252" height="16.4038" filterUnits="userSpaceOnUse" color-interpolation-filters="sRGB">
<feFlood flood-opacity="0" result="BackgroundImageFix"/>
<feColorMatrix in="SourceAlpha" type="matrix" values="0 0 0 0 0 0 0 0 0 0 0 0 0 0 0 0 0 0 127 0" result="hardAlpha"/>
<feOffset dy="4"/>
<feGaussianBlur stdDeviation="3"/>
<feComposite in2="hardAlpha" operator="out"/>
<feColorMatrix type="matrix" values="0 0 0 0 1 0 0 0 0 0.8 0 0 0 0 0.372549 0 0 0 0.25 0"/>
<feBlend mode="normal" in2="BackgroundImageFix" result="effect1_dropShadow_147_1064"/>
<feBlend mode="normal" in="SourceGraphic" in2="effect1_dropShadow_147_1064" result="shape"/>
</filter>
<filter id="filter5_d_147_1064" x="88.2109" y="271.331" width="16.7637" height="16.9302" filterUnits="userSpaceOnUse" color-interpolation-filters="sRGB">
<feFlood flood-opacity="0" result="BackgroundImageFix"/>
<feColorMatrix in="SourceAlpha" type="matrix" values="0 0 0 0 0 0 0 0 0 0 0 0 0 0 0 0 0 0 127 0" result="hardAlpha"/>
<feOffset dy="4"/>
<feGaussianBlur stdDeviation="3"/>
<feComposite in2="hardAlpha" operator="out"/>
<feColorMatrix type="matrix" values="0 0 0 0 1 0 0 0 0 0.8 0 0 0 0 0.372549 0 0 0 0.25 0"/>
<feBlend mode="normal" in2="BackgroundImageFix" result="effect1_dropShadow_147_1064"/>
<feBlend mode="normal" in="SourceGraphic" in2="effect1_dropShadow_147_1064" result="shape"/>
</filter>
<filter id="filter6_d_147_1064" x="91.7266" y="279.923" width="16.4902" height="16.6494" filterUnits="userSpaceOnUse" color-interpolation-filters="sRGB">
<feFlood flood-opacity="0" result="BackgroundImageFix"/>
<feColorMatrix in="SourceAlpha" type="matrix" values="0 0 0 0 0 0 0 0 0 0 0 0 0 0 0 0 0 0 127 0" result="hardAlpha"/>
<feOffset dy="4"/>
<feGaussianBlur stdDeviation="3"/>
<feComposite in2="hardAlpha" operator="out"/>
<feColorMatrix type="matrix" values="0 0 0 0 1 0 0 0 0 0.8 0 0 0 0 0.372549 0 0 0 0.25 0"/>
<feBlend mode="normal" in2="BackgroundImageFix" result="effect1_dropShadow_147_1064"/>
<feBlend mode="normal" in="SourceGraphic" in2="effect1_dropShadow_147_1064" result="shape"/>
</filter>
<filter id="filter7_d_147_1064" x="94.6953" y="261.496" width="16.248" height="16.25" filterUnits="userSpaceOnUse" color-interpolation-filters="sRGB">
<feFlood flood-opacity="0" result="BackgroundImageFix"/>
<feColorMatrix in="SourceAlpha" type="matrix" values="0 0 0 0 0 0 0 0 0 0 0 0 0 0 0 0 0 0 127 0" result="hardAlpha"/>
<feOffset dy="4"/>
<feGaussianBlur stdDeviation="3"/>
<feComposite in2="hardAlpha" operator="out"/>
<feColorMatrix type="matrix" values="0 0 0 0 1 0 0 0 0 0.8 0 0 0 0 0.372549 0 0 0 0.25 0"/>
<feBlend mode="normal" in2="BackgroundImageFix" result="effect1_dropShadow_147_1064"/>
<feBlend mode="normal" in="SourceGraphic" in2="effect1_dropShadow_147_1064" result="shape"/>
</filter>
<filter id="filter8_d_147_1064" x="104.227" y="277.774" width="16.2871" height="16.4365" filterUnits="userSpaceOnUse" color-interpolation-filters="sRGB">
<feFlood flood-opacity="0" result="BackgroundImageFix"/>
<feColorMatrix in="SourceAlpha" type="matrix" values="0 0 0 0 0 0 0 0 0 0 0 0 0 0 0 0 0 0 127 0" result="hardAlpha"/>
<feOffset dy="4"/>
<feGaussianBlur stdDeviation="3"/>
<feComposite in2="hardAlpha" operator="out"/>
<feColorMatrix type="matrix" values="0 0 0 0 1 0 0 0 0 0.8 0 0 0 0 0.372549 0 0 0 0.25 0"/>
<feBlend mode="normal" in2="BackgroundImageFix" result="effect1_dropShadow_147_1064"/>
<feBlend mode="normal" in="SourceGraphic" in2="effect1_dropShadow_147_1064" result="shape"/>
</filter>
<filter id="filter9_d_147_1064" x="126.717" y="213.495" width="15.2656" height="15.3813" filterUnits="userSpaceOnUse" color-interpolation-filters="sRGB">
<feFlood flood-opacity="0" result="BackgroundImageFix"/>
<feColorMatrix in="SourceAlpha" type="matrix" values="0 0 0 0 0 0 0 0 0 0 0 0 0 0 0 0 0 0 127 0" result="hardAlpha"/>
<feOffset dy="4"/>
<feGaussianBlur stdDeviation="3"/>
<feComposite in2="hardAlpha" operator="out"/>
<feColorMatrix type="matrix" values="0 0 0 0 1 0 0 0 0 0.8 0 0 0 0 0.372549 0 0 0 0.25 0"/>
<feBlend mode="normal" in2="BackgroundImageFix" result="effect1_dropShadow_147_1064"/>
<feBlend mode="normal" in="SourceGraphic" in2="effect1_dropShadow_147_1064" result="shape"/>
</filter>
<filter id="filter10_d_147_1064" x="133.035" y="217.563" width="15.0293" height="15.1357" filterUnits="userSpaceOnUse" color-interpolation-filters="sRGB">
<feFlood flood-opacity="0" result="BackgroundImageFix"/>
<feColorMatrix in="SourceAlpha" type="matrix" values="0 0 0 0 0 0 0 0 0 0 0 0 0 0 0 0 0 0 127 0" result="hardAlpha"/>
<feOffset dy="4"/>
<feGaussianBlur stdDeviation="3"/>
<feComposite in2="hardAlpha" operator="out"/>
<feColorMatrix type="matrix" values="0 0 0 0 1 0 0 0 0 0.8 0 0 0 0 0.372549 0 0 0 0.25 0"/>
<feBlend mode="normal" in2="BackgroundImageFix" result="effect1_dropShadow_147_1064"/>
<feBlend mode="normal" in="SourceGraphic" in2="effect1_dropShadow_147_1064" result="shape"/>
</filter>
<filter id="filter11_d_147_1064" x="126.799" y="228.408" width="16.8613" height="16.9443" filterUnits="userSpaceOnUse" color-interpolation-filters="sRGB">
<feFlood flood-opacity="0" result="BackgroundImageFix"/>
<feColorMatrix in="SourceAlpha" type="matrix" values="0 0 0 0 0 0 0 0 0 0 0 0 0 0 0 0 0 0 127 0" result="hardAlpha"/>
<feOffset dy="4"/>
<feGaussianBlur stdDeviation="3"/>
<feComposite in2="hardAlpha" operator="out"/>
<feColorMatrix type="matrix" values="0 0 0 0 1 0 0 0 0 0.8 0 0 0 0 0.372549 0 0 0 0.25 0"/>
<feBlend mode="normal" in2="BackgroundImageFix" result="effect1_dropShadow_147_1064"/>
<feBlend mode="normal" in="SourceGraphic" in2="effect1_dropShadow_147_1064" result="shape"/>
</filter>
<filter id="filter12_d_147_1064" x="134.537" y="229.766" width="15.4023" height="15.5229" filterUnits="userSpaceOnUse" color-interpolation-filters="sRGB">
<feFlood flood-opacity="0" result="BackgroundImageFix"/>
<feColorMatrix in="SourceAlpha" type="matrix" values="0 0 0 0 0 0 0 0 0 0 0 0 0 0 0 0 0 0 127 0" result="hardAlpha"/>
<feOffset dy="4"/>
<feGaussianBlur stdDeviation="3"/>
<feComposite in2="hardAlpha" operator="out"/>
<feColorMatrix type="matrix" values="0 0 0 0 1 0 0 0 0 0.8 0 0 0 0 0.372549 0 0 0 0.25 0"/>
<feBlend mode="normal" in2="BackgroundImageFix" result="effect1_dropShadow_147_1064"/>
<feBlend mode="normal" in="SourceGraphic" in2="effect1_dropShadow_147_1064" result="shape"/>
</filter>
<filter id="filter13_d_147_1064" x="142.338" y="231.936" width="15.5742" height="15.6973" filterUnits="userSpaceOnUse" color-interpolation-filters="sRGB">
<feFlood flood-opacity="0" result="BackgroundImageFix"/>
<feColorMatrix in="SourceAlpha" type="matrix" values="0 0 0 0 0 0 0 0 0 0 0 0 0 0 0 0 0 0 127 0" result="hardAlpha"/>
<feOffset dy="4"/>
<feGaussianBlur stdDeviation="3"/>
<feComposite in2="hardAlpha" operator="out"/>
<feColorMatrix type="matrix" values="0 0 0 0 1 0 0 0 0 0.8 0 0 0 0 0.372549 0 0 0 0.25 0"/>
<feBlend mode="normal" in2="BackgroundImageFix" result="effect1_dropShadow_147_1064"/>
<feBlend mode="normal" in="SourceGraphic" in2="effect1_dropShadow_147_1064" result="shape"/>
</filter>
<filter id="filter14_d_147_1064" x="128.23" y="242.405" width="16.1367" height="15.7446" filterUnits="userSpaceOnUse" color-interpolation-filters="sRGB">
<feFlood flood-opacity="0" result="BackgroundImageFix"/>
<feColorMatrix in="SourceAlpha" type="matrix" values="0 0 0 0 0 0 0 0 0 0 0 0 0 0 0 0 0 0 127 0" result="hardAlpha"/>
<feOffset dy="4"/>
<feGaussianBlur stdDeviation="3"/>
<feComposite in2="hardAlpha" operator="out"/>
<feColorMatrix type="matrix" values="0 0 0 0 1 0 0 0 0 0.8 0 0 0 0 0.372549 0 0 0 0.25 0"/>
<feBlend mode="normal" in2="BackgroundImageFix" result="effect1_dropShadow_147_1064"/>
<feBlend mode="normal" in="SourceGraphic" in2="effect1_dropShadow_147_1064" result="shape"/>
</filter>
<filter id="filter15_d_147_1064" x="136.463" y="242.975" width="16.1406" height="15.0273" filterUnits="userSpaceOnUse" color-interpolation-filters="sRGB">
<feFlood flood-opacity="0" result="BackgroundImageFix"/>
<feColorMatrix in="SourceAlpha" type="matrix" values="0 0 0 0 0 0 0 0 0 0 0 0 0 0 0 0 0 0 127 0" result="hardAlpha"/>
<feOffset dy="4"/>
<feGaussianBlur stdDeviation="3"/>
<feComposite in2="hardAlpha" operator="out"/>
<feColorMatrix type="matrix" values="0 0 0 0 1 0 0 0 0 0.8 0 0 0 0 0.372549 0 0 0 0.25 0"/>
<feBlend mode="normal" in2="BackgroundImageFix" result="effect1_dropShadow_147_1064"/>
<feBlend mode="normal" in="SourceGraphic" in2="effect1_dropShadow_147_1064" result="shape"/>
</filter>
<filter id="filter16_d_147_1064" x="144.268" y="244.577" width="15.0977" height="15.207" filterUnits="userSpaceOnUse" color-interpolation-filters="sRGB">
<feFlood flood-opacity="0" result="BackgroundImageFix"/>
<feColorMatrix in="SourceAlpha" type="matrix" values="0 0 0 0 0 0 0 0 0 0 0 0 0 0 0 0 0 0 127 0" result="hardAlpha"/>
<feOffset dy="4"/>
<feGaussianBlur stdDeviation="3"/>
<feComposite in2="hardAlpha" operator="out"/>
<feColorMatrix type="matrix" values="0 0 0 0 1 0 0 0 0 0.8 0 0 0 0 0.372549 0 0 0 0.25 0"/>
<feBlend mode="normal" in2="BackgroundImageFix" result="effect1_dropShadow_147_1064"/>
<feBlend mode="normal" in="SourceGraphic" in2="effect1_dropShadow_147_1064" result="shape"/>
</filter>
<filter id="filter17_d_147_1064" x="128.816" y="256.851" width="15.543" height="15.4634" filterUnits="userSpaceOnUse" color-interpolation-filters="sRGB">
<feFlood flood-opacity="0" result="BackgroundImageFix"/>
<feColorMatrix in="SourceAlpha" type="matrix" values="0 0 0 0 0 0 0 0 0 0 0 0 0 0 0 0 0 0 127 0" result="hardAlpha"/>
<feOffset dy="4"/>
<feGaussianBlur stdDeviation="3"/>
<feComposite in2="hardAlpha" operator="out"/>
<feColorMatrix type="matrix" values="0 0 0 0 1 0 0 0 0 0.8 0 0 0 0 0.372549 0 0 0 0.25 0"/>
<feBlend mode="normal" in2="BackgroundImageFix" result="effect1_dropShadow_147_1064"/>
<feBlend mode="normal" in="SourceGraphic" in2="effect1_dropShadow_147_1064" result="shape"/>
</filter>
<filter id="filter18_d_147_1064" x="138.453" y="262.557" width="15.377" height="15.3579" filterUnits="userSpaceOnUse" color-interpolation-filters="sRGB">
<feFlood flood-opacity="0" result="BackgroundImageFix"/>
<feColorMatrix in="SourceAlpha" type="matrix" values="0 0 0 0 0 0 0 0 0 0 0 0 0 0 0 0 0 0 127 0" result="hardAlpha"/>
<feOffset dy="4"/>
<feGaussianBlur stdDeviation="3"/>
<feComposite in2="hardAlpha" operator="out"/>
<feColorMatrix type="matrix" values="0 0 0 0 1 0 0 0 0 0.8 0 0 0 0 0.372549 0 0 0 0.25 0"/>
<feBlend mode="normal" in2="BackgroundImageFix" result="effect1_dropShadow_147_1064"/>
<feBlend mode="normal" in="SourceGraphic" in2="effect1_dropShadow_147_1064" result="shape"/>
</filter>
<filter id="filter19_d_147_1064" x="145.553" y="261.628" width="15.9141" height="16.0493" filterUnits="userSpaceOnUse" color-interpolation-filters="sRGB">
<feFlood flood-opacity="0" result="BackgroundImageFix"/>
<feColorMatrix in="SourceAlpha" type="matrix" values="0 0 0 0 0 0 0 0 0 0 0 0 0 0 0 0 0 0 127 0" result="hardAlpha"/>
<feOffset dy="4"/>
<feGaussianBlur stdDeviation="3"/>
<feComposite in2="hardAlpha" operator="out"/>
<feColorMatrix type="matrix" values="0 0 0 0 1 0 0 0 0 0.8 0 0 0 0 0.372549 0 0 0 0.25 0"/>
<feBlend mode="normal" in2="BackgroundImageFix" result="effect1_dropShadow_147_1064"/>
<feBlend mode="normal" in="SourceGraphic" in2="effect1_dropShadow_147_1064" result="shape"/>
</filter>
<filter id="filter20_d_147_1064" x="152.145" y="244.562" width="15.1289" height="15.2393" filterUnits="userSpaceOnUse" color-interpolation-filters="sRGB">
<feFlood flood-opacity="0" result="BackgroundImageFix"/>
<feColorMatrix in="SourceAlpha" type="matrix" values="0 0 0 0 0 0 0 0 0 0 0 0 0 0 0 0 0 0 127 0" result="hardAlpha"/>
<feOffset dy="4"/>
<feGaussianBlur stdDeviation="3"/>
<feComposite in2="hardAlpha" operator="out"/>
<feColorMatrix type="matrix" values="0 0 0 0 1 0 0 0 0 0.8 0 0 0 0 0.372549 0 0 0 0.25 0"/>
<feBlend mode="normal" in2="BackgroundImageFix" result="effect1_dropShadow_147_1064"/>
<feBlend mode="normal" in="SourceGraphic" in2="effect1_dropShadow_147_1064" result="shape"/>
</filter>
<filter id="filter21_d_147_1064" x="157.684" y="244.905" width="15.3184" height="15.564" filterUnits="userSpaceOnUse" color-interpolation-filters="sRGB">
<feFlood flood-opacity="0" result="BackgroundImageFix"/>
<feColorMatrix in="SourceAlpha" type="matrix" values="0 0 0 0 0 0 0 0 0 0 0 0 0 0 0 0 0 0 127 0" result="hardAlpha"/>
<feOffset dy="4"/>
<feGaussianBlur stdDeviation="3"/>
<feComposite in2="hardAlpha" operator="out"/>
<feColorMatrix type="matrix" values="0 0 0 0 1 0 0 0 0 0.8 0 0 0 0 0.372549 0 0 0 0.25 0"/>
<feBlend mode="normal" in2="BackgroundImageFix" result="effect1_dropShadow_147_1064"/>
<feBlend mode="normal" in="SourceGraphic" in2="effect1_dropShadow_147_1064" result="shape"/>
</filter>
<filter id="filter22_d_147_1064" x="137.699" y="271.239" width="16.4414" height="15.9785" filterUnits="userSpaceOnUse" color-interpolation-filters="sRGB">
<feFlood flood-opacity="0" result="BackgroundImageFix"/>
<feColorMatrix in="SourceAlpha" type="matrix" values="0 0 0 0 0 0 0 0 0 0 0 0 0 0 0 0 0 0 127 0" result="hardAlpha"/>
<feOffset dy="4"/>
<feGaussianBlur stdDeviation="3"/>
<feComposite in2="hardAlpha" operator="out"/>
<feColorMatrix type="matrix" values="0 0 0 0 1 0 0 0 0 0.8 0 0 0 0 0.372549 0 0 0 0.25 0"/>
<feBlend mode="normal" in2="BackgroundImageFix" result="effect1_dropShadow_147_1064"/>
<feBlend mode="normal" in="SourceGraphic" in2="effect1_dropShadow_147_1064" result="shape"/>
</filter>
<filter id="filter23_d_147_1064" x="147.291" y="272.947" width="15.8125" height="15.9458" filterUnits="userSpaceOnUse" color-interpolation-filters="sRGB">
<feFlood flood-opacity="0" result="BackgroundImageFix"/>
<feColorMatrix in="SourceAlpha" type="matrix" values="0 0 0 0 0 0 0 0 0 0 0 0 0 0 0 0 0 0 127 0" result="hardAlpha"/>
<feOffset dy="4"/>
<feGaussianBlur stdDeviation="3"/>
<feComposite in2="hardAlpha" operator="out"/>
<feColorMatrix type="matrix" values="0 0 0 0 1 0 0 0 0 0.8 0 0 0 0 0.372549 0 0 0 0.25 0"/>
<feBlend mode="normal" in2="BackgroundImageFix" result="effect1_dropShadow_147_1064"/>
<feBlend mode="normal" in="SourceGraphic" in2="effect1_dropShadow_147_1064" result="shape"/>
</filter>
<filter id="filter24_d_147_1064" x="155.305" y="271.382" width="15.5703" height="15.6973" filterUnits="userSpaceOnUse" color-interpolation-filters="sRGB">
<feFlood flood-opacity="0" result="BackgroundImageFix"/>
<feColorMatrix in="SourceAlpha" type="matrix" values="0 0 0 0 0 0 0 0 0 0 0 0 0 0 0 0 0 0 127 0" result="hardAlpha"/>
<feOffset dy="4"/>
<feGaussianBlur stdDeviation="3"/>
<feComposite in2="hardAlpha" operator="out"/>
<feColorMatrix type="matrix" values="0 0 0 0 1 0 0 0 0 0.8 0 0 0 0 0.372549 0 0 0 0.25 0"/>
<feBlend mode="normal" in2="BackgroundImageFix" result="effect1_dropShadow_147_1064"/>
<feBlend mode="normal" in="SourceGraphic" in2="effect1_dropShadow_147_1064" result="shape"/>
</filter>
<filter id="filter25_d_147_1064" x="157.334" y="257.643" width="14.8926" height="14.9941" filterUnits="userSpaceOnUse" color-interpolation-filters="sRGB">
<feFlood flood-opacity="0" result="BackgroundImageFix"/>
<feColorMatrix in="SourceAlpha" type="matrix" values="0 0 0 0 0 0 0 0 0 0 0 0 0 0 0 0 0 0 127 0" result="hardAlpha"/>
<feOffset dy="4"/>
<feGaussianBlur stdDeviation="3"/>
<feComposite in2="hardAlpha" operator="out"/>
<feColorMatrix type="matrix" values="0 0 0 0 1 0 0 0 0 0.8 0 0 0 0 0.372549 0 0 0 0.25 0"/>
<feBlend mode="normal" in2="BackgroundImageFix" result="effect1_dropShadow_147_1064"/>
<feBlend mode="normal" in="SourceGraphic" in2="effect1_dropShadow_147_1064" result="shape"/>
</filter>
<filter id="filter26_d_147_1064" x="186.922" y="238.118" width="15.457" height="16.0962" filterUnits="userSpaceOnUse" color-interpolation-filters="sRGB">
<feFlood flood-opacity="0" result="BackgroundImageFix"/>
<feColorMatrix in="SourceAlpha" type="matrix" values="0 0 0 0 0 0 0 0 0 0 0 0 0 0 0 0 0 0 127 0" result="hardAlpha"/>
<feOffset dy="4"/>
<feGaussianBlur stdDeviation="3"/>
<feComposite in2="hardAlpha" operator="out"/>
<feColorMatrix type="matrix" values="0 0 0 0 1 0 0 0 0 0.8 0 0 0 0 0.372549 0 0 0 0.25 0"/>
<feBlend mode="normal" in2="BackgroundImageFix" result="effect1_dropShadow_147_1064"/>
<feBlend mode="normal" in="SourceGraphic" in2="effect1_dropShadow_147_1064" result="shape"/>
</filter>
<filter id="filter27_d_147_1064" x="186.895" y="248.313" width="15.5039" height="15.6265" filterUnits="userSpaceOnUse" color-interpolation-filters="sRGB">
<feFlood flood-opacity="0" result="BackgroundImageFix"/>
<feColorMatrix in="SourceAlpha" type="matrix" values="0 0 0 0 0 0 0 0 0 0 0 0 0 0 0 0 0 0 127 0" result="hardAlpha"/>
<feOffset dy="4"/>
<feGaussianBlur stdDeviation="3"/>
<feComposite in2="hardAlpha" operator="out"/>
<feColorMatrix type="matrix" values="0 0 0 0 1 0 0 0 0 0.8 0 0 0 0 0.372549 0 0 0 0.25 0"/>
<feBlend mode="normal" in2="BackgroundImageFix" result="effect1_dropShadow_147_1064"/>
<feBlend mode="normal" in="SourceGraphic" in2="effect1_dropShadow_147_1064" result="shape"/>
</filter>
<filter id="filter28_d_147_1064" x="186.107" y="258.808" width="14.8223" height="14.9233" filterUnits="userSpaceOnUse" color-interpolation-filters="sRGB">
<feFlood flood-opacity="0" result="BackgroundImageFix"/>
<feColorMatrix in="SourceAlpha" type="matrix" values="0 0 0 0 0 0 0 0 0 0 0 0 0 0 0 0 0 0 127 0" result="hardAlpha"/>
<feOffset dy="4"/>
<feGaussianBlur stdDeviation="3"/>
<feComposite in2="hardAlpha" operator="out"/>
<feColorMatrix type="matrix" values="0 0 0 0 1 0 0 0 0 0.8 0 0 0 0 0.372549 0 0 0 0.25 0"/>
<feBlend mode="normal" in2="BackgroundImageFix" result="effect1_dropShadow_147_1064"/>
<feBlend mode="normal" in="SourceGraphic" in2="effect1_dropShadow_147_1064" result="shape"/>
</filter>
<filter id="filter29_d_147_1064" x="151.375" y="233.072" width="16.0566" height="15.6724" filterUnits="userSpaceOnUse" color-interpolation-filters="sRGB">
<feFlood flood-opacity="0" result="BackgroundImageFix"/>
<feColorMatrix in="SourceAlpha" type="matrix" values="0 0 0 0 0 0 0 0 0 0 0 0 0 0 0 0 0 0 127 0" result="hardAlpha"/>
<feOffset dy="4"/>
<feGaussianBlur stdDeviation="3"/>
<feComposite in2="hardAlpha" operator="out"/>
<feColorMatrix type="matrix" values="0 0 0 0 1 0 0 0 0 0.8 0 0 0 0 0.372549 0 0 0 0.25 0"/>
<feBlend mode="normal" in2="BackgroundImageFix" result="effect1_dropShadow_147_1064"/>
<feBlend mode="normal" in="SourceGraphic" in2="effect1_dropShadow_147_1064" result="shape"/>
</filter>
<filter id="filter30_d_147_1064" x="158.453" y="233.588" width="16.0723" height="16.4224" filterUnits="userSpaceOnUse" color-interpolation-filters="sRGB">
<feFlood flood-opacity="0" result="BackgroundImageFix"/>
<feColorMatrix in="SourceAlpha" type="matrix" values="0 0 0 0 0 0 0 0 0 0 0 0 0 0 0 0 0 0 127 0" result="hardAlpha"/>
<feOffset dy="4"/>
<feGaussianBlur stdDeviation="3"/>
<feComposite in2="hardAlpha" operator="out"/>
<feColorMatrix type="matrix" values="0 0 0 0 1 0 0 0 0 0.8 0 0 0 0 0.372549 0 0 0 0.25 0"/>
<feBlend mode="normal" in2="BackgroundImageFix" result="effect1_dropShadow_147_1064"/>
<feBlend mode="normal" in="SourceGraphic" in2="effect1_dropShadow_147_1064" result="shape"/>
</filter>
<filter id="filter31_d_147_1064" x="142.615" y="218.109" width="16.1504" height="16.2974" filterUnits="userSpaceOnUse" color-interpolation-filters="sRGB">
<feFlood flood-opacity="0" result="BackgroundImageFix"/>
<feColorMatrix in="SourceAlpha" type="matrix" values="0 0 0 0 0 0 0 0 0 0 0 0 0 0 0 0 0 0 127 0" result="hardAlpha"/>
<feOffset dy="4"/>
<feGaussianBlur stdDeviation="3"/>
<feComposite in2="hardAlpha" operator="out"/>
<feColorMatrix type="matrix" values="0 0 0 0 1 0 0 0 0 0.8 0 0 0 0 0.372549 0 0 0 0.25 0"/>
<feBlend mode="normal" in2="BackgroundImageFix" result="effect1_dropShadow_147_1064"/>
<feBlend mode="normal" in="SourceGraphic" in2="effect1_dropShadow_147_1064" result="shape"/>
</filter>
<filter id="filter32_d_147_1064" x="150.506" y="218.645" width="15.668" height="15.2227" filterUnits="userSpaceOnUse" color-interpolation-filters="sRGB">
<feFlood flood-opacity="0" result="BackgroundImageFix"/>
<feColorMatrix in="SourceAlpha" type="matrix" values="0 0 0 0 0 0 0 0 0 0 0 0 0 0 0 0 0 0 127 0" result="hardAlpha"/>
<feOffset dy="4"/>
<feGaussianBlur stdDeviation="3"/>
<feComposite in2="hardAlpha" operator="out"/>
<feColorMatrix type="matrix" values="0 0 0 0 1 0 0 0 0 0.8 0 0 0 0 0.372549 0 0 0 0.25 0"/>
<feBlend mode="normal" in2="BackgroundImageFix" result="effect1_dropShadow_147_1064"/>
<feBlend mode="normal" in="SourceGraphic" in2="effect1_dropShadow_147_1064" result="shape"/>
</filter>
<filter id="filter33_d_147_1064" x="157.18" y="219.167" width="15.1992" height="15.3101" filterUnits="userSpaceOnUse" color-interpolation-filters="sRGB">
<feFlood flood-opacity="0" result="BackgroundImageFix"/>
<feColorMatrix in="SourceAlpha" type="matrix" values="0 0 0 0 0 0 0 0 0 0 0 0 0 0 0 0 0 0 127 0" result="hardAlpha"/>
<feOffset dy="4"/>
<feGaussianBlur stdDeviation="3"/>
<feComposite in2="hardAlpha" operator="out"/>
<feColorMatrix type="matrix" values="0 0 0 0 1 0 0 0 0 0.8 0 0 0 0 0.372549 0 0 0 0.25 0"/>
<feBlend mode="normal" in2="BackgroundImageFix" result="effect1_dropShadow_147_1064"/>
<feBlend mode="normal" in="SourceGraphic" in2="effect1_dropShadow_147_1064" result="shape"/>
</filter>
<filter id="filter34_d_147_1064" x="89.0605" y="216.938" width="16.7617" height="16.3848" filterUnits="userSpaceOnUse" color-interpolation-filters="sRGB">
<feFlood flood-opacity="0" result="BackgroundImageFix"/>
<feColorMatrix in="SourceAlpha" type="matrix" values="0 0 0 0 0 0 0 0 0 0 0 0 0 0 0 0 0 0 127 0" result="hardAlpha"/>
<feOffset dy="4"/>
<feGaussianBlur stdDeviation="3"/>
<feComposite in2="hardAlpha" operator="out"/>
<feColorMatrix type="matrix" values="0 0 0 0 1 0 0 0 0 0.8 0 0 0 0 0.372549 0 0 0 0.25 0"/>
<feBlend mode="normal" in2="BackgroundImageFix" result="effect1_dropShadow_147_1064"/>
<feBlend mode="normal" in="SourceGraphic" in2="effect1_dropShadow_147_1064" result="shape"/>
</filter>
<filter id="filter35_d_147_1064" x="98.832" y="219.974" width="15.8105" height="15.9458" filterUnits="userSpaceOnUse" color-interpolation-filters="sRGB">
<feFlood flood-opacity="0" result="BackgroundImageFix"/>
<feColorMatrix in="SourceAlpha" type="matrix" values="0 0 0 0 0 0 0 0 0 0 0 0 0 0 0 0 0 0 127 0" result="hardAlpha"/>
<feOffset dy="4"/>
<feGaussianBlur stdDeviation="3"/>
<feComposite in2="hardAlpha" operator="out"/>
<feColorMatrix type="matrix" values="0 0 0 0 1 0 0 0 0 0.8 0 0 0 0 0.372549 0 0 0 0.25 0"/>
<feBlend mode="normal" in2="BackgroundImageFix" result="effect1_dropShadow_147_1064"/>
<feBlend mode="normal" in="SourceGraphic" in2="effect1_dropShadow_147_1064" result="shape"/>
</filter>
<filter id="filter36_d_147_1064" x="95.9648" y="227.918" width="16.0781" height="15.8452" filterUnits="userSpaceOnUse" color-interpolation-filters="sRGB">
<feFlood flood-opacity="0" result="BackgroundImageFix"/>
<feColorMatrix in="SourceAlpha" type="matrix" values="0 0 0 0 0 0 0 0 0 0 0 0 0 0 0 0 0 0 127 0" result="hardAlpha"/>
<feOffset dy="4"/>
<feGaussianBlur stdDeviation="3"/>
<feComposite in2="hardAlpha" operator="out"/>
<feColorMatrix type="matrix" values="0 0 0 0 1 0 0 0 0 0.8 0 0 0 0 0.372549 0 0 0 0.25 0"/>
<feBlend mode="normal" in2="BackgroundImageFix" result="effect1_dropShadow_147_1064"/>
<feBlend mode="normal" in="SourceGraphic" in2="effect1_dropShadow_147_1064" result="shape"/>
</filter>
<filter id="filter37_d_147_1064" x="102.787" y="229.027" width="14.6543" height="14.7485" filterUnits="userSpaceOnUse" color-interpolation-filters="sRGB">
<feFlood flood-opacity="0" result="BackgroundImageFix"/>
<feColorMatrix in="SourceAlpha" type="matrix" values="0 0 0 0 0 0 0 0 0 0 0 0 0 0 0 0 0 0 127 0" result="hardAlpha"/>
<feOffset dy="4"/>
<feGaussianBlur stdDeviation="3"/>
<feComposite in2="hardAlpha" operator="out"/>
<feColorMatrix type="matrix" values="0 0 0 0 1 0 0 0 0 0.8 0 0 0 0 0.372549 0 0 0 0.25 0"/>
<feBlend mode="normal" in2="BackgroundImageFix" result="effect1_dropShadow_147_1064"/>
<feBlend mode="normal" in="SourceGraphic" in2="effect1_dropShadow_147_1064" result="shape"/>
</filter>
<filter id="filter38_d_147_1064" x="95.6016" y="236.478" width="15.5039" height="15.6265" filterUnits="userSpaceOnUse" color-interpolation-filters="sRGB">
<feFlood flood-opacity="0" result="BackgroundImageFix"/>
<feColorMatrix in="SourceAlpha" type="matrix" values="0 0 0 0 0 0 0 0 0 0 0 0 0 0 0 0 0 0 127 0" result="hardAlpha"/>
<feOffset dy="4"/>
<feGaussianBlur stdDeviation="3"/>
<feComposite in2="hardAlpha" operator="out"/>
<feColorMatrix type="matrix" values="0 0 0 0 1 0 0 0 0 0.8 0 0 0 0 0.372549 0 0 0 0.25 0"/>
<feBlend mode="normal" in2="BackgroundImageFix" result="effect1_dropShadow_147_1064"/>
<feBlend mode="normal" in="SourceGraphic" in2="effect1_dropShadow_147_1064" result="shape"/>
</filter>
<filter id="filter39_d_147_1064" x="100.33" y="245.149" width="15.7188" height="15.1899" filterUnits="userSpaceOnUse" color-interpolation-filters="sRGB">
<feFlood flood-opacity="0" result="BackgroundImageFix"/>
<feColorMatrix in="SourceAlpha" type="matrix" values="0 0 0 0 0 0 0 0 0 0 0 0 0 0 0 0 0 0 127 0" result="hardAlpha"/>
<feOffset dy="4"/>
<feGaussianBlur stdDeviation="3"/>
<feComposite in2="hardAlpha" operator="out"/>
<feColorMatrix type="matrix" values="0 0 0 0 1 0 0 0 0 0.8 0 0 0 0 0.372549 0 0 0 0.25 0"/>
<feBlend mode="normal" in2="BackgroundImageFix" result="effect1_dropShadow_147_1064"/>
<feBlend mode="normal" in="SourceGraphic" in2="effect1_dropShadow_147_1064" result="shape"/>
</filter>
<filter id="filter40_d_147_1064" x="102.996" y="238.236" width="15.3672" height="15.4878" filterUnits="userSpaceOnUse" color-interpolation-filters="sRGB">
<feFlood flood-opacity="0" result="BackgroundImageFix"/>
<feColorMatrix in="SourceAlpha" type="matrix" values="0 0 0 0 0 0 0 0 0 0 0 0 0 0 0 0 0 0 127 0" result="hardAlpha"/>
<feOffset dy="4"/>
<feGaussianBlur stdDeviation="3"/>
<feComposite in2="hardAlpha" operator="out"/>
<feColorMatrix type="matrix" values="0 0 0 0 1 0 0 0 0 0.8 0 0 0 0 0.372549 0 0 0 0.25 0"/>
<feBlend mode="normal" in2="BackgroundImageFix" result="effect1_dropShadow_147_1064"/>
<feBlend mode="normal" in="SourceGraphic" in2="effect1_dropShadow_147_1064" result="shape"/>
</filter>
<filter id="filter41_d_147_1064" x="84.9023" y="205.803" width="16.082" height="15.8525" filterUnits="userSpaceOnUse" color-interpolation-filters="sRGB">
<feFlood flood-opacity="0" result="BackgroundImageFix"/>
<feColorMatrix in="SourceAlpha" type="matrix" values="0 0 0 0 0 0 0 0 0 0 0 0 0 0 0 0 0 0 127 0" result="hardAlpha"/>
<feOffset dy="4"/>
<feGaussianBlur stdDeviation="3"/>
<feComposite in2="hardAlpha" operator="out"/>
<feColorMatrix type="matrix" values="0 0 0 0 1 0 0 0 0 0.8 0 0 0 0 0.372549 0 0 0 0.25 0"/>
<feBlend mode="normal" in2="BackgroundImageFix" result="effect1_dropShadow_147_1064"/>
<feBlend mode="normal" in="SourceGraphic" in2="effect1_dropShadow_147_1064" result="shape"/>
</filter>
<filter id="filter42_d_147_1064" x="95.8418" y="207.983" width="15.0293" height="15.1357" filterUnits="userSpaceOnUse" color-interpolation-filters="sRGB">
<feFlood flood-opacity="0" result="BackgroundImageFix"/>
<feColorMatrix in="SourceAlpha" type="matrix" values="0 0 0 0 0 0 0 0 0 0 0 0 0 0 0 0 0 0 127 0" result="hardAlpha"/>
<feOffset dy="4"/>
<feGaussianBlur stdDeviation="3"/>
<feComposite in2="hardAlpha" operator="out"/>
<feColorMatrix type="matrix" values="0 0 0 0 1 0 0 0 0 0.8 0 0 0 0 0.372549 0 0 0 0.25 0"/>
<feBlend mode="normal" in2="BackgroundImageFix" result="effect1_dropShadow_147_1064"/>
<feBlend mode="normal" in="SourceGraphic" in2="effect1_dropShadow_147_1064" result="shape"/>
</filter>
<filter id="filter43_d_147_1064" x="102.33" y="209.958" width="15.5723" height="15.6978" filterUnits="userSpaceOnUse" color-interpolation-filters="sRGB">
<feFlood flood-opacity="0" result="BackgroundImageFix"/>
<feColorMatrix in="SourceAlpha" type="matrix" values="0 0 0 0 0 0 0 0 0 0 0 0 0 0 0 0 0 0 127 0" result="hardAlpha"/>
<feOffset dy="4"/>
<feGaussianBlur stdDeviation="3"/>
<feComposite in2="hardAlpha" operator="out"/>
<feColorMatrix type="matrix" values="0 0 0 0 1 0 0 0 0 0.8 0 0 0 0 0.372549 0 0 0 0.25 0"/>
<feBlend mode="normal" in2="BackgroundImageFix" result="effect1_dropShadow_147_1064"/>
<feBlend mode="normal" in="SourceGraphic" in2="effect1_dropShadow_147_1064" result="shape"/>
</filter>
<filter id="filter44_d_147_1064" x="80.8867" y="188.992" width="16.2617" height="15.9287" filterUnits="userSpaceOnUse" color-interpolation-filters="sRGB">
<feFlood flood-opacity="0" result="BackgroundImageFix"/>
<feColorMatrix in="SourceAlpha" type="matrix" values="0 0 0 0 0 0 0 0 0 0 0 0 0 0 0 0 0 0 127 0" result="hardAlpha"/>
<feOffset dy="4"/>
<feGaussianBlur stdDeviation="3"/>
<feComposite in2="hardAlpha" operator="out"/>
<feColorMatrix type="matrix" values="0 0 0 0 1 0 0 0 0 0.8 0 0 0 0 0.372549 0 0 0 0.25 0"/>
<feBlend mode="normal" in2="BackgroundImageFix" result="effect1_dropShadow_147_1064"/>
<feBlend mode="normal" in="SourceGraphic" in2="effect1_dropShadow_147_1064" result="shape"/>
</filter>
<filter id="filter45_d_147_1064" x="85.875" y="196.143" width="16.1973" height="16.0347" filterUnits="userSpaceOnUse" color-interpolation-filters="sRGB">
<feFlood flood-opacity="0" result="BackgroundImageFix"/>
<feColorMatrix in="SourceAlpha" type="matrix" values="0 0 0 0 0 0 0 0 0 0 0 0 0 0 0 0 0 0 127 0" result="hardAlpha"/>
<feOffset dy="4"/>
<feGaussianBlur stdDeviation="3"/>
<feComposite in2="hardAlpha" operator="out"/>
<feColorMatrix type="matrix" values="0 0 0 0 1 0 0 0 0 0.8 0 0 0 0 0.372549 0 0 0 0.25 0"/>
<feBlend mode="normal" in2="BackgroundImageFix" result="effect1_dropShadow_147_1064"/>
<feBlend mode="normal" in="SourceGraphic" in2="effect1_dropShadow_147_1064" result="shape"/>
</filter>
<filter id="filter46_d_147_1064" x="95.7871" y="196.661" width="15.1328" height="15.2393" filterUnits="userSpaceOnUse" color-interpolation-filters="sRGB">
<feFlood flood-opacity="0" result="BackgroundImageFix"/>
<feColorMatrix in="SourceAlpha" type="matrix" values="0 0 0 0 0 0 0 0 0 0 0 0 0 0 0 0 0 0 127 0" result="hardAlpha"/>
<feOffset dy="4"/>
<feGaussianBlur stdDeviation="3"/>
<feComposite in2="hardAlpha" operator="out"/>
<feColorMatrix type="matrix" values="0 0 0 0 1 0 0 0 0 0.8 0 0 0 0 0.372549 0 0 0 0.25 0"/>
<feBlend mode="normal" in2="BackgroundImageFix" result="effect1_dropShadow_147_1064"/>
<feBlend mode="normal" in="SourceGraphic" in2="effect1_dropShadow_147_1064" result="shape"/>
</filter>
<filter id="filter47_d_147_1064" x="123.338" y="193.193" width="16.3887" height="16.543" filterUnits="userSpaceOnUse" color-interpolation-filters="sRGB">
<feFlood flood-opacity="0" result="BackgroundImageFix"/>
<feColorMatrix in="SourceAlpha" type="matrix" values="0 0 0 0 0 0 0 0 0 0 0 0 0 0 0 0 0 0 127 0" result="hardAlpha"/>
<feOffset dy="4"/>
<feGaussianBlur stdDeviation="3"/>
<feComposite in2="hardAlpha" operator="out"/>
<feColorMatrix type="matrix" values="0 0 0 0 1 0 0 0 0 0.8 0 0 0 0 0.372549 0 0 0 0.25 0"/>
<feBlend mode="normal" in2="BackgroundImageFix" result="effect1_dropShadow_147_1064"/>
<feBlend mode="normal" in="SourceGraphic" in2="effect1_dropShadow_147_1064" result="shape"/>
</filter>
<filter id="filter48_d_147_1064" x="127.689" y="200.93" width="16.6895" height="15.7163" filterUnits="userSpaceOnUse" color-interpolation-filters="sRGB">
<feFlood flood-opacity="0" result="BackgroundImageFix"/>
<feColorMatrix in="SourceAlpha" type="matrix" values="0 0 0 0 0 0 0 0 0 0 0 0 0 0 0 0 0 0 127 0" result="hardAlpha"/>
<feOffset dy="4"/>
<feGaussianBlur stdDeviation="3"/>
<feComposite in2="hardAlpha" operator="out"/>
<feColorMatrix type="matrix" values="0 0 0 0 1 0 0 0 0 0.8 0 0 0 0 0.372549 0 0 0 0.25 0"/>
<feBlend mode="normal" in2="BackgroundImageFix" result="effect1_dropShadow_147_1064"/>
<feBlend mode="normal" in="SourceGraphic" in2="effect1_dropShadow_147_1064" result="shape"/>
</filter>
<filter id="filter49_d_147_1064" x="139.797" y="205.167" width="15.0273" height="15.1328" filterUnits="userSpaceOnUse" color-interpolation-filters="sRGB">
<feFlood flood-opacity="0" result="BackgroundImageFix"/>
<feColorMatrix in="SourceAlpha" type="matrix" values="0 0 0 0 0 0 0 0 0 0 0 0 0 0 0 0 0 0 127 0" result="hardAlpha"/>
<feOffset dy="4"/>
<feGaussianBlur stdDeviation="3"/>
<feComposite in2="hardAlpha" operator="out"/>
<feColorMatrix type="matrix" values="0 0 0 0 1 0 0 0 0 0.8 0 0 0 0 0.372549 0 0 0 0.25 0"/>
<feBlend mode="normal" in2="BackgroundImageFix" result="effect1_dropShadow_147_1064"/>
<feBlend mode="normal" in="SourceGraphic" in2="effect1_dropShadow_147_1064" result="shape"/>
</filter>
<filter id="filter50_d_147_1064" x="148.627" y="204.953" width="16.5254" height="16.6846" filterUnits="userSpaceOnUse" color-interpolation-filters="sRGB">
<feFlood flood-opacity="0" result="BackgroundImageFix"/>
<feColorMatrix in="SourceAlpha" type="matrix" values="0 0 0 0 0 0 0 0 0 0 0 0 0 0 0 0 0 0 127 0" result="hardAlpha"/>
<feOffset dy="4"/>
<feGaussianBlur stdDeviation="3"/>
<feComposite in2="hardAlpha" operator="out"/>
<feColorMatrix type="matrix" values="0 0 0 0 1 0 0 0 0 0.8 0 0 0 0 0.372549 0 0 0 0.25 0"/>
<feBlend mode="normal" in2="BackgroundImageFix" result="effect1_dropShadow_147_1064"/>
<feBlend mode="normal" in="SourceGraphic" in2="effect1_dropShadow_147_1064" result="shape"/>
</filter>
<filter id="filter51_d_147_1064" x="188.32" y="224.992" width="14.918" height="14.918" filterUnits="userSpaceOnUse" color-interpolation-filters="sRGB">
<feFlood flood-opacity="0" result="BackgroundImageFix"/>
<feColorMatrix in="SourceAlpha" type="matrix" values="0 0 0 0 0 0 0 0 0 0 0 0 0 0 0 0 0 0 127 0" result="hardAlpha"/>
<feOffset dy="4"/>
<feGaussianBlur stdDeviation="3"/>
<feComposite in2="hardAlpha" operator="out"/>
<feColorMatrix type="matrix" values="0 0 0 0 1 0 0 0 0 0.8 0 0 0 0 0.372549 0 0 0 0.25 0"/>
<feBlend mode="normal" in2="BackgroundImageFix" result="effect1_dropShadow_147_1064"/>
<feBlend mode="normal" in="SourceGraphic" in2="effect1_dropShadow_147_1064" result="shape"/>
</filter>
<filter id="filter52_d_147_1064" x="188.59" y="209.359" width="15.5234" height="15.7129" filterUnits="userSpaceOnUse" color-interpolation-filters="sRGB">
<feFlood flood-opacity="0" result="BackgroundImageFix"/>
<feColorMatrix in="SourceAlpha" type="matrix" values="0 0 0 0 0 0 0 0 0 0 0 0 0 0 0 0 0 0 127 0" result="hardAlpha"/>
<feOffset dy="4"/>
<feGaussianBlur stdDeviation="3"/>
<feComposite in2="hardAlpha" operator="out"/>
<feColorMatrix type="matrix" values="0 0 0 0 1 0 0 0 0 0.8 0 0 0 0 0.372549 0 0 0 0.25 0"/>
<feBlend mode="normal" in2="BackgroundImageFix" result="effect1_dropShadow_147_1064"/>
<feBlend mode="normal" in="SourceGraphic" in2="effect1_dropShadow_147_1064" result="shape"/>
</filter>
<filter id="filter53_d_147_1064" x="194.494" y="218.144" width="16.084" height="16.2266" filterUnits="userSpaceOnUse" color-interpolation-filters="sRGB">
<feFlood flood-opacity="0" result="BackgroundImageFix"/>
<feColorMatrix in="SourceAlpha" type="matrix" values="0 0 0 0 0 0 0 0 0 0 0 0 0 0 0 0 0 0 127 0" result="hardAlpha"/>
<feOffset dy="4"/>
<feGaussianBlur stdDeviation="3"/>
<feComposite in2="hardAlpha" operator="out"/>
<feColorMatrix type="matrix" values="0 0 0 0 1 0 0 0 0 0.8 0 0 0 0 0.372549 0 0 0 0.25 0"/>
<feBlend mode="normal" in2="BackgroundImageFix" result="effect1_dropShadow_147_1064"/>
<feBlend mode="normal" in="SourceGraphic" in2="effect1_dropShadow_147_1064" result="shape"/>
</filter>
<filter id="filter54_d_147_1064" x="194.783" y="229.715" width="15.5039" height="15.6265" filterUnits="userSpaceOnUse" color-interpolation-filters="sRGB">
<feFlood flood-opacity="0" result="BackgroundImageFix"/>
<feColorMatrix in="SourceAlpha" type="matrix" values="0 0 0 0 0 0 0 0 0 0 0 0 0 0 0 0 0 0 127 0" result="hardAlpha"/>
<feOffset dy="4"/>
<feGaussianBlur stdDeviation="3"/>
<feComposite in2="hardAlpha" operator="out"/>
<feColorMatrix type="matrix" values="0 0 0 0 1 0 0 0 0 0.8 0 0 0 0 0.372549 0 0 0 0.25 0"/>
<feBlend mode="normal" in2="BackgroundImageFix" result="effect1_dropShadow_147_1064"/>
<feBlend mode="normal" in="SourceGraphic" in2="effect1_dropShadow_147_1064" result="shape"/>
</filter>
<filter id="filter55_d_147_1064" x="190.055" y="201.839" width="16.3379" height="15.0273" filterUnits="userSpaceOnUse" color-interpolation-filters="sRGB">
<feFlood flood-opacity="0" result="BackgroundImageFix"/>
<feColorMatrix in="SourceAlpha" type="matrix" values="0 0 0 0 0 0 0 0 0 0 0 0 0 0 0 0 0 0 127 0" result="hardAlpha"/>
<feOffset dy="4"/>
<feGaussianBlur stdDeviation="3"/>
<feComposite in2="hardAlpha" operator="out"/>
<feColorMatrix type="matrix" values="0 0 0 0 1 0 0 0 0 0.8 0 0 0 0 0.372549 0 0 0 0.25 0"/>
<feBlend mode="normal" in2="BackgroundImageFix" result="effect1_dropShadow_147_1064"/>
<feBlend mode="normal" in="SourceGraphic" in2="effect1_dropShadow_147_1064" result="shape"/>
</filter>
<filter id="filter56_d_147_1064" x="127.74" y="181.27" width="15.4707" height="15.5913" filterUnits="userSpaceOnUse" color-interpolation-filters="sRGB">
<feFlood flood-opacity="0" result="BackgroundImageFix"/>
<feColorMatrix in="SourceAlpha" type="matrix" values="0 0 0 0 0 0 0 0 0 0 0 0 0 0 0 0 0 0 127 0" result="hardAlpha"/>
<feOffset dy="4"/>
<feGaussianBlur stdDeviation="3"/>
<feComposite in2="hardAlpha" operator="out"/>
<feColorMatrix type="matrix" values="0 0 0 0 1 0 0 0 0 0.8 0 0 0 0 0.372549 0 0 0 0.25 0"/>
<feBlend mode="normal" in2="BackgroundImageFix" result="effect1_dropShadow_147_1064"/>
<feBlend mode="normal" in="SourceGraphic" in2="effect1_dropShadow_147_1064" result="shape"/>
</filter>
<filter id="filter57_d_147_1064" x="134.568" y="185.836" width="15.9102" height="15.48" filterUnits="userSpaceOnUse" color-interpolation-filters="sRGB">
<feFlood flood-opacity="0" result="BackgroundImageFix"/>
<feColorMatrix in="SourceAlpha" type="matrix" values="0 0 0 0 0 0 0 0 0 0 0 0 0 0 0 0 0 0 127 0" result="hardAlpha"/>
<feOffset dy="4"/>
<feGaussianBlur stdDeviation="3"/>
<feComposite in2="hardAlpha" operator="out"/>
<feColorMatrix type="matrix" values="0 0 0 0 1 0 0 0 0 0.8 0 0 0 0 0.372549 0 0 0 0.25 0"/>
<feBlend mode="normal" in2="BackgroundImageFix" result="effect1_dropShadow_147_1064"/>
<feBlend mode="normal" in="SourceGraphic" in2="effect1_dropShadow_147_1064" result="shape"/>
</filter>
<filter id="filter58_d_147_1064" x="146.734" y="187.856" width="15.8086" height="15.9458" filterUnits="userSpaceOnUse" color-interpolation-filters="sRGB">
<feFlood flood-opacity="0" result="BackgroundImageFix"/>
<feColorMatrix in="SourceAlpha" type="matrix" values="0 0 0 0 0 0 0 0 0 0 0 0 0 0 0 0 0 0 127 0" result="hardAlpha"/>
<feOffset dy="4"/>
<feGaussianBlur stdDeviation="3"/>
<feComposite in2="hardAlpha" operator="out"/>
<feColorMatrix type="matrix" values="0 0 0 0 1 0 0 0 0 0.8 0 0 0 0 0.372549 0 0 0 0.25 0"/>
<feBlend mode="normal" in2="BackgroundImageFix" result="effect1_dropShadow_147_1064"/>
<feBlend mode="normal" in="SourceGraphic" in2="effect1_dropShadow_147_1064" result="shape"/>
</filter>
<filter id="filter59_d_147_1064" x="81.1875" y="171.755" width="16.6504" height="16.2383" filterUnits="userSpaceOnUse" color-interpolation-filters="sRGB">
<feFlood flood-opacity="0" result="BackgroundImageFix"/>
<feColorMatrix in="SourceAlpha" type="matrix" values="0 0 0 0 0 0 0 0 0 0 0 0 0 0 0 0 0 0 127 0" result="hardAlpha"/>
<feOffset dy="4"/>
<feGaussianBlur stdDeviation="3"/>
<feComposite in2="hardAlpha" operator="out"/>
<feColorMatrix type="matrix" values="0 0 0 0 1 0 0 0 0 0.8 0 0 0 0 0.372549 0 0 0 0.25 0"/>
<feBlend mode="normal" in2="BackgroundImageFix" result="effect1_dropShadow_147_1064"/>
<feBlend mode="normal" in="SourceGraphic" in2="effect1_dropShadow_147_1064" result="shape"/>
</filter>
<filter id="filter60_d_147_1064" x="94.7598" y="181.56" width="16.6855" height="16.3003" filterUnits="userSpaceOnUse" color-interpolation-filters="sRGB">
<feFlood flood-opacity="0" result="BackgroundImageFix"/>
<feColorMatrix in="SourceAlpha" type="matrix" values="0 0 0 0 0 0 0 0 0 0 0 0 0 0 0 0 0 0 127 0" result="hardAlpha"/>
<feOffset dy="4"/>
<feGaussianBlur stdDeviation="3"/>
<feComposite in2="hardAlpha" operator="out"/>
<feColorMatrix type="matrix" values="0 0 0 0 1 0 0 0 0 0.8 0 0 0 0 0.372549 0 0 0 0.25 0"/>
<feBlend mode="normal" in2="BackgroundImageFix" result="effect1_dropShadow_147_1064"/>
<feBlend mode="normal" in="SourceGraphic" in2="effect1_dropShadow_147_1064" result="shape"/>
</filter>
<filter id="filter61_d_147_1064" x="102.297" y="181.743" width="15.6406" height="15.7686" filterUnits="userSpaceOnUse" color-interpolation-filters="sRGB">
<feFlood flood-opacity="0" result="BackgroundImageFix"/>
<feColorMatrix in="SourceAlpha" type="matrix" values="0 0 0 0 0 0 0 0 0 0 0 0 0 0 0 0 0 0 127 0" result="hardAlpha"/>
<feOffset dy="4"/>
<feGaussianBlur stdDeviation="3"/>
<feComposite in2="hardAlpha" operator="out"/>
<feColorMatrix type="matrix" values="0 0 0 0 1 0 0 0 0 0.8 0 0 0 0 0.372549 0 0 0 0.25 0"/>
<feBlend mode="normal" in2="BackgroundImageFix" result="effect1_dropShadow_147_1064"/>
<feBlend mode="normal" in="SourceGraphic" in2="effect1_dropShadow_147_1064" result="shape"/>
</filter>
<filter id="filter62_d_147_1064" x="93.4648" y="167.023" width="16.5332" height="16.52" filterUnits="userSpaceOnUse" color-interpolation-filters="sRGB">
<feFlood flood-opacity="0" result="BackgroundImageFix"/>
<feColorMatrix in="SourceAlpha" type="matrix" values="0 0 0 0 0 0 0 0 0 0 0 0 0 0 0 0 0 0 127 0" result="hardAlpha"/>
<feOffset dy="4"/>
<feGaussianBlur stdDeviation="3"/>
<feComposite in2="hardAlpha" operator="out"/>
<feColorMatrix type="matrix" values="0 0 0 0 1 0 0 0 0 0.8 0 0 0 0 0.372549 0 0 0 0.25 0"/>
<feBlend mode="normal" in2="BackgroundImageFix" result="effect1_dropShadow_147_1064"/>
<feBlend mode="normal" in="SourceGraphic" in2="effect1_dropShadow_147_1064" result="shape"/>
</filter>
<filter id="filter63_d_147_1064" x="127.877" y="172.394" width="16.3613" height="15.3125" filterUnits="userSpaceOnUse" color-interpolation-filters="sRGB">
<feFlood flood-opacity="0" result="BackgroundImageFix"/>
<feColorMatrix in="SourceAlpha" type="matrix" values="0 0 0 0 0 0 0 0 0 0 0 0 0 0 0 0 0 0 127 0" result="hardAlpha"/>
<feOffset dy="4"/>
<feGaussianBlur stdDeviation="3"/>
<feComposite in2="hardAlpha" operator="out"/>
<feColorMatrix type="matrix" values="0 0 0 0 1 0 0 0 0 0.8 0 0 0 0 0.372549 0 0 0 0.25 0"/>
<feBlend mode="normal" in2="BackgroundImageFix" result="effect1_dropShadow_147_1064"/>
<feBlend mode="normal" in="SourceGraphic" in2="effect1_dropShadow_147_1064" result="shape"/>
</filter>
<filter id="filter64_d_147_1064" x="141.693" y="176.056" width="15.7422" height="15.875" filterUnits="userSpaceOnUse" color-interpolation-filters="sRGB">
<feFlood flood-opacity="0" result="BackgroundImageFix"/>
<feColorMatrix in="SourceAlpha" type="matrix" values="0 0 0 0 0 0 0 0 0 0 0 0 0 0 0 0 0 0 127 0" result="hardAlpha"/>
<feOffset dy="4"/>
<feGaussianBlur stdDeviation="3"/>
<feComposite in2="hardAlpha" operator="out"/>
<feColorMatrix type="matrix" values="0 0 0 0 1 0 0 0 0 0.8 0 0 0 0 0.372549 0 0 0 0.25 0"/>
<feBlend mode="normal" in2="BackgroundImageFix" result="effect1_dropShadow_147_1064"/>
<feBlend mode="normal" in="SourceGraphic" in2="effect1_dropShadow_147_1064" result="shape"/>
</filter>
<filter id="filter65_d_147_1064" x="151.238" y="176.583" width="15.8105" height="15.9458" filterUnits="userSpaceOnUse" color-interpolation-filters="sRGB">
<feFlood flood-opacity="0" result="BackgroundImageFix"/>
<feColorMatrix in="SourceAlpha" type="matrix" values="0 0 0 0 0 0 0 0 0 0 0 0 0 0 0 0 0 0 127 0" result="hardAlpha"/>
<feOffset dy="4"/>
<feGaussianBlur stdDeviation="3"/>
<feComposite in2="hardAlpha" operator="out"/>
<feColorMatrix type="matrix" values="0 0 0 0 1 0 0 0 0 0.8 0 0 0 0 0.372549 0 0 0 0.25 0"/>
<feBlend mode="normal" in2="BackgroundImageFix" result="effect1_dropShadow_147_1064"/>
<feBlend mode="normal" in="SourceGraphic" in2="effect1_dropShadow_147_1064" result="shape"/>
</filter>
<filter id="filter66_d_147_1064" x="186.023" y="181.579" width="14.9648" height="14.9697" filterUnits="userSpaceOnUse" color-interpolation-filters="sRGB">
<feFlood flood-opacity="0" result="BackgroundImageFix"/>
<feColorMatrix in="SourceAlpha" type="matrix" values="0 0 0 0 0 0 0 0 0 0 0 0 0 0 0 0 0 0 127 0" result="hardAlpha"/>
<feOffset dy="4"/>
<feGaussianBlur stdDeviation="3"/>
<feComposite in2="hardAlpha" operator="out"/>
<feColorMatrix type="matrix" values="0 0 0 0 1 0 0 0 0 0.8 0 0 0 0 0.372549 0 0 0 0.25 0"/>
<feBlend mode="normal" in2="BackgroundImageFix" result="effect1_dropShadow_147_1064"/>
<feBlend mode="normal" in="SourceGraphic" in2="effect1_dropShadow_147_1064" result="shape"/>
</filter>
<filter id="filter67_d_147_1064" x="187.203" y="191.712" width="14.8926" height="14.9941" filterUnits="userSpaceOnUse" color-interpolation-filters="sRGB">
<feFlood flood-opacity="0" result="BackgroundImageFix"/>
<feColorMatrix in="SourceAlpha" type="matrix" values="0 0 0 0 0 0 0 0 0 0 0 0 0 0 0 0 0 0 127 0" result="hardAlpha"/>
<feOffset dy="4"/>
<feGaussianBlur stdDeviation="3"/>
<feComposite in2="hardAlpha" operator="out"/>
<feColorMatrix type="matrix" values="0 0 0 0 1 0 0 0 0 0.8 0 0 0 0 0.372549 0 0 0 0.25 0"/>
<feBlend mode="normal" in2="BackgroundImageFix" result="effect1_dropShadow_147_1064"/>
<feBlend mode="normal" in="SourceGraphic" in2="effect1_dropShadow_147_1064" result="shape"/>
</filter>
<filter id="filter68_d_147_1064" x="150.715" y="194.574" width="16.3613" height="16.0327" filterUnits="userSpaceOnUse" color-interpolation-filters="sRGB">
<feFlood flood-opacity="0" result="BackgroundImageFix"/>
<feColorMatrix in="SourceAlpha" type="matrix" values="0 0 0 0 0 0 0 0 0 0 0 0 0 0 0 0 0 0 127 0" result="hardAlpha"/>
<feOffset dy="4"/>
<feGaussianBlur stdDeviation="3"/>
<feComposite in2="hardAlpha" operator="out"/>
<feColorMatrix type="matrix" values="0 0 0 0 1 0 0 0 0 0.8 0 0 0 0 0.372549 0 0 0 0.25 0"/>
<feBlend mode="normal" in2="BackgroundImageFix" result="effect1_dropShadow_147_1064"/>
<feBlend mode="normal" in="SourceGraphic" in2="effect1_dropShadow_147_1064" result="shape"/>
</filter>
</defs>
</svg>
