<svg width="317" height="226" viewBox="0 0 317 226" fill="none" xmlns="http://www.w3.org/2000/svg">
<g filter="url(#filter0_d_50_35079)">
<path d="M134.882 11.3447C150.773 5.6328 181.695 4.12793 198.39 4C219.783 4.3623 246.439 6.94334 267.073 12.7236C264.627 13.3554 256.765 15.2089 254.973 16.1572L251.423 16.6415C233.928 27.1581 226.766 34.743 213.737 50.0984L211.458 53.2653C204.215 65.7321 198.321 74.8482 201.436 89.9673L202.988 94.1362C211.598 109.931 218.501 111.213 235.844 113.863C233.684 121.83 224.94 125.134 217.669 126.915C223.729 129.947 231.445 133.645 233.344 140.853C216.639 140.635 200.559 146.858 196.496 164.934L195.016 167.274C192.763 181.797 196.33 191.032 204.889 202.699C205.79 203.925 206.711 205.135 207.653 206.33L210.701 209.678L213.257 211.458L213.323 212.924C206.654 215.19 181.488 211.775 173.247 210.798C150.738 207.427 128.859 203.701 107.072 196.983C98.5316 194.435 90.0775 191.606 81.7249 188.5C74.3021 185.616 69.4857 183.424 62.3763 179.837L53.0091 174.993C41.8724 169.076 32.0052 161.055 23.3919 151.9C7.83334 134.355 3.52572 118.894 12.973 97.0873C24.9554 69.1061 49.3958 48.9245 75.4779 34.4402C78.1527 32.6971 85.3206 29.329 88.4837 27.7421C94.9417 24.0341 105.968 20.0517 112.956 17.581C120.291 15.7187 126.392 13.3105 134.882 11.3447Z" fill="#A0E8AF"/>
<path d="M198.39 4C219.782 4.3623 246.439 6.94334 267.072 12.7236C264.627 13.3554 256.765 15.2089 254.973 16.1572L251.423 16.6415C233.928 27.1581 226.766 34.743 213.736 50.0984L211.458 53.2653C204.215 65.7321 198.32 74.8482 201.436 89.9673L202.987 94.1362C211.598 109.931 218.501 111.213 235.844 113.863C233.684 121.83 224.94 125.134 217.669 126.915C223.729 129.947 231.444 133.645 233.344 140.853C216.639 140.635 200.559 146.858 196.496 164.934L195.016 167.274C192.763 181.797 196.33 191.032 204.889 202.699C205.79 203.925 206.711 205.135 207.652 206.33L210.7 209.678L213.257 211.458L213.322 212.924C206.653 215.19 181.487 211.775 173.247 210.798C148.162 175.314 142.054 144.132 148.266 100.865C153.736 62.7565 166.64 27.6356 198.39 4Z" fill="#FFF8B5"/>
<path d="M220.668 126.225C207.32 123.068 161.413 122.738 159.373 105.071C162.723 89.2729 191.399 93.0365 202.988 94.1361C211.598 109.931 218.501 111.213 235.844 113.863C233.684 121.83 224.94 125.134 217.669 126.915C223.729 129.946 231.445 133.645 233.344 140.853C216.639 140.635 200.559 146.858 196.497 164.934C179.735 163.166 146.253 157.4 157.548 132.485C162.676 121.172 207.963 127.475 220.668 126.225Z" fill="#FFF8B5"/>
<path d="M213.737 50.0984C204.634 44.7108 175.831 27.8007 195.745 17.3564C212.643 8.49322 234.038 11.7178 251.424 16.6416C233.928 27.1581 226.766 34.743 213.737 50.0984Z" fill="#FFF8B5"/>
<path d="M201.436 89.9673C150.878 82.2027 151.125 41.3358 211.459 53.2654C204.215 65.7321 198.321 74.8483 201.436 89.9673Z" fill="#FFF8B5"/>
<path d="M202.459 47.9949C156.758 6.3008 227.332 4.31254 254.973 16.1572L251.424 16.6416C234.038 11.7178 212.643 8.49317 195.745 17.3564C175.831 27.8007 204.633 44.7107 213.737 50.0984L211.459 53.2654C151.125 41.3358 150.878 82.2027 201.436 89.9673L202.988 94.1362C191.399 93.0366 162.723 89.273 159.373 105.071C161.413 122.738 207.32 123.068 220.669 126.225C207.964 127.475 162.676 121.172 157.549 132.485C146.254 157.4 179.735 163.166 196.497 164.934L195.016 167.274C191.385 168.411 186.391 170.9 182.91 170.743C185.096 169.481 185.606 169.738 186.239 167.931C176.77 164.871 141.937 151.821 154.556 131.953C158.243 126.15 171.626 123.436 178.683 122.88C170.552 120.036 149.554 111.022 160.943 99.1606C168.805 90.9732 182.311 91.1323 192.928 90.7349C180.755 86.8404 154.582 73.1871 163.963 57.1843C168.845 48.8552 193.341 48.6843 202.459 47.9949Z" fill="#E888B4"/>
<path d="M171.245 195.935L172.027 194.175C180.152 201.458 196.549 210.322 207.652 206.33L210.7 209.679C194.919 208.539 183.096 207.15 171.245 195.935Z" fill="#E888B4"/>
<path d="M171.245 195.935C167.395 188.174 170.053 171.947 179.933 172.688C180.693 176.703 167.123 176.8 172.027 194.175L171.245 195.935Z" fill="#E888B4"/>
<path d="M12.973 97.0874C24.9554 69.1061 49.3958 48.9246 75.4779 34.4403L75.6898 35.538C77.4779 44.3651 83.6224 55.197 84.4808 61.5446C88.2406 89.3414 88.0345 114.809 71.3372 138.759C63.9398 149.37 56.6361 162.723 53.0091 174.993C41.8724 169.076 32.0052 161.055 23.3919 151.9C7.83334 134.355 3.52572 118.894 12.973 97.0874Z" fill="#FFF8B5"/>
<path d="M23.3919 151.899C7.83334 134.355 3.52572 118.894 12.973 97.0873C31.3851 109.914 39.345 129.201 25.5648 149.013C24.8861 150.009 24.1615 150.972 23.3919 151.899Z" fill="#E888B4"/>
<path d="M50.6782 101.411C57.2827 98.8608 64.7056 102.146 67.2593 108.75C69.812 115.354 66.5308 122.778 59.9272 125.334C53.3198 127.893 45.8901 124.609 43.3354 118C40.7798 111.391 44.0679 103.963 50.6782 101.411Z" fill="#F2EAEE"/>
<path d="M49.9577 99.5447C57.5923 96.5973 66.1728 100.395 69.1247 108.029C72.0295 115.543 68.3989 123.976 61.0036 127.056L60.6491 127.199C53.0113 130.157 44.4226 126.361 41.4694 118.721C38.5154 111.081 42.3169 102.495 49.9577 99.5447ZM67.2585 108.751C64.7048 102.146 57.2819 98.8611 50.6774 101.411L50.3708 101.534C43.9664 104.195 40.8189 111.495 43.3347 118.001C45.8495 124.506 53.0888 127.79 59.6169 125.45L59.9265 125.335C66.4268 122.818 69.7087 115.584 67.3747 109.06L67.2585 108.751Z" fill="#4D5872"/>
<path d="M49.4809 106.322C52.2485 104.992 55.5229 105.29 58.0063 107.095C60.4897 108.901 61.7817 111.924 61.3696 114.967C60.9585 118.01 58.9096 120.581 56.0356 121.662C51.853 123.236 47.1743 121.237 45.4184 117.128C43.6626 113.019 45.4536 108.256 49.4809 106.322Z" fill="#232323"/>
<path d="M48.2007 111.144C49.8082 110.164 51.898 110.58 53.0064 112.102C54.1158 113.622 53.8726 115.74 52.4478 116.97C51.4156 117.862 49.9703 118.097 48.7095 117.578C47.4478 117.06 46.5845 115.877 46.4781 114.518C46.3707 113.158 47.0367 111.854 48.2007 111.144Z" fill="#FDFDFD"/>
<path d="M75.4775 34.4402C78.1523 32.6971 85.3203 29.329 88.4834 27.7421C88.9072 33.7889 89.2246 40.8592 89.9697 46.7927C103.292 60.8356 99.9365 68.8824 96.8408 86.8755C96.2627 90.2348 92.1055 108.533 93.5918 110.284L95.6348 109.074C100.835 115.849 93.8975 148.781 87.3701 154.945L85.4238 155.539C82.0205 149.247 91.6133 131.616 88.0879 126.124C79.1123 133.174 72.1084 164.873 62.376 179.837L53.0088 174.993C56.6357 162.723 63.9395 149.37 71.3369 138.759C88.0342 114.809 88.2403 89.3413 84.4805 61.5446C83.6221 55.197 77.4775 44.365 75.6895 35.5379L75.4775 34.4402Z" fill="#E888B4"/>
<path d="M134.882 11.3447C135.374 11.8975 135.867 12.4492 136.36 13.0019C136.203 25.5019 138.614 44.4207 138.003 56.2907C137.505 65.9528 128.05 73.7672 125.143 80.7984C118.722 96.3276 114.461 115.891 108.367 130.985C102.916 110.906 104.819 97.7807 116.148 80.2721C122.891 69.8512 136.559 42.0594 128.485 30.4257C123.889 34.0917 120.395 81.981 106.527 84.6812C105.629 82.2564 109.868 68.6989 110.823 64.8483C114.879 48.4783 114.564 34.2674 112.956 17.581C120.291 15.7187 126.392 13.3105 134.882 11.3447Z" fill="#E888B4"/>
<path d="M107.034 149.793C106.033 155.6 103.563 164.058 106.741 168.661C117.43 163.248 126.406 99.2426 140.975 89.2993L142.207 90.0288C141.951 94.6509 135.783 108.437 133.305 115.054C126.797 132.432 125.987 158.275 113.615 172.404C108.499 178.247 98.3428 180.114 95.374 188.854L96.5283 189.918C100.926 189.377 107.368 187.096 110.241 188.174C111.354 191.692 109.23 194.207 107.071 196.983C98.5313 194.435 90.0771 191.606 81.7246 188.5C89.0938 172.647 94.7998 162.665 107.034 149.793Z" fill="#E888B4"/>
<path d="M308.993 88.9272C302.49 108.172 293.224 122.225 274.498 131.81C286.531 143.727 292.419 150.988 296.752 167.859C271.817 152.277 263.569 146.156 233.344 140.853C231.444 133.645 223.729 129.947 217.669 126.915C224.939 125.134 233.684 121.83 235.844 113.863C273.695 113.865 277.403 102.964 308.993 88.9272Z" fill="#E888B4"/>
</g>
<defs>
<filter id="filter0_d_50_35079" x="0" y="0" width="316.993" height="225.686" filterUnits="userSpaceOnUse" color-interpolation-filters="sRGB">
<feFlood flood-opacity="0" result="BackgroundImageFix"/>
<feColorMatrix in="SourceAlpha" type="matrix" values="0 0 0 0 0 0 0 0 0 0 0 0 0 0 0 0 0 0 127 0" result="hardAlpha"/>
<feOffset dy="4"/>
<feGaussianBlur stdDeviation="4"/>
<feComposite in2="hardAlpha" operator="out"/>
<feColorMatrix type="matrix" values="0 0 0 0 0 0 0 0 0 0 0 0 0 0 0 0 0 0 0.15 0"/>
<feBlend mode="normal" in2="BackgroundImageFix" result="effect1_dropShadow_50_35079"/>
<feBlend mode="normal" in="SourceGraphic" in2="effect1_dropShadow_50_35079" result="shape"/>
</filter>
</defs>
</svg>
