<svg width="290" height="304" viewBox="0 0 290 304" fill="none" xmlns="http://www.w3.org/2000/svg">
<path d="M217.992 0.0354895C209.11 6.47654 200.6 13.0216 192.446 19.6707C181.562 28.5478 172.723 38.1183 163.191 48.9025C157.689 55.1268 150.826 64.2206 142.585 76.1838L143.98 76.8513C146.172 74.2333 148.304 71.4592 150.392 68.5378C153.157 64.6627 155.228 61.8713 156.606 60.1635C162.749 52.5955 166.814 47.6975 168.798 45.4696C177.507 35.691 188.2 26.1291 197.888 17.5295C201.727 14.1226 209.439 8.60043 221.008 0.963059C219.769 0.200189 218.763 -0.111883 217.992 0.0354895Z" fill="#1C1B1C"/>
<path d="M188.386 13.7047C187.771 14.6843 186.783 15.5945 185.422 16.4354C185.084 16.6521 184.781 16.9122 184.521 17.2243C183.516 18.4553 181.497 20.8392 180.076 22.2263C172.996 29.1355 166.852 35.9059 161.644 42.5377C156.41 49.1868 150.89 56.3214 145.526 64.5743C143.108 68.2933 140.621 72.0036 138.056 75.7052C139.738 76.3294 141.245 76.4854 142.589 76.182C150.83 64.2188 157.693 55.1251 163.195 48.9007C172.727 38.1165 181.566 28.546 192.45 19.6689C200.604 13.0198 209.114 6.47474 217.996 0.0336914C212.389 0.961272 207.13 2.74707 202.233 5.39111C197.424 7.97447 192.814 10.7485 188.386 13.7047Z" fill="#4F61DB"/>
<path d="M221.008 0.961914C209.439 8.59929 201.727 14.1214 197.888 17.5283C188.2 26.128 177.507 35.6899 168.798 45.4685C166.814 47.6964 162.749 52.5944 156.606 60.1624C155.228 61.8702 153.157 64.6616 150.392 68.5366C148.304 71.4581 146.172 74.2321 143.98 76.8502L152.463 79.6329L152.706 77.9684C152.793 77.3616 152.957 76.7722 153.2 76.2173C155.514 70.7559 158.867 66.17 163.243 62.4683C165.037 60.9512 167.94 58.8967 170.141 56.0966C178.512 45.4511 190.956 34.5369 200.592 26.232C201.692 24.4028 202.672 23.0245 203.529 22.0796C205.774 19.6262 207.983 17.1469 210.159 14.6329C211.086 13.5579 212.273 12.9164 213.737 12.6997C218.027 9.14542 220.445 5.23572 221.008 0.961914Z" fill="#4F61DB"/>
<path d="M200.593 26.2378C200.879 26.0038 201.191 25.9691 201.537 26.1512L213.738 12.7056C212.274 12.9223 211.087 13.5638 210.159 14.6388C207.984 17.1528 205.775 19.6321 203.53 22.0854C202.672 23.0303 201.693 24.4087 200.593 26.2378Z" fill="#173568"/>
<path d="M178.447 19.2735C178.621 19.967 178.413 20.6345 177.815 21.276C173.092 26.3474 168.465 31.4881 163.924 36.7155C158.907 42.4804 154.582 47.8985 150.969 52.9525C145.804 60.1911 140.943 67.6984 136.393 75.4918L138.057 75.7086C140.622 72.0069 143.109 68.2966 145.527 64.5776C150.891 56.3247 156.411 49.1902 161.645 42.541C166.853 35.9093 172.997 29.1388 180.076 22.2296C181.498 20.8426 183.517 18.4586 184.522 17.2276C184.782 16.9155 185.085 16.6555 185.423 16.4387C186.784 15.5979 187.771 14.6876 188.387 13.708L178.447 19.2735Z" fill="#1C1B1C"/>
<path d="M153.111 39.4129C148.128 45.9493 143.258 52.4598 138.518 58.9355C136.915 61.1287 135.156 63.7814 133.241 66.9023C131.577 69.633 129.852 72.3204 128.076 74.9731L136.395 75.4932C140.944 67.6998 145.806 60.1925 150.97 52.9539C154.584 47.8999 158.908 42.4817 163.925 36.7169C168.466 31.4895 173.094 26.3488 177.816 21.2774C178.414 20.6359 178.622 19.9684 178.449 19.2749C169.879 25.1265 163.873 29.3222 160.442 31.8536C157.539 33.9948 155.095 36.5175 153.111 39.4129Z" fill="#4F61DB"/>
<path d="M200.598 26.2364C190.962 34.5413 178.518 45.4555 170.147 56.1011C167.946 58.9011 165.043 60.9557 163.25 62.4727C158.874 66.1744 155.52 70.7603 153.206 76.2217C152.964 76.7765 152.799 77.366 152.712 77.9729L152.47 79.6373C153.128 81.4491 151.777 85.2288 151.049 87.8468C149.454 93.5163 149.593 99.5586 151.378 104.145C154.116 111.175 155.511 115.657 155.546 122.835C155.572 127.039 154.168 132.388 154.653 136.445C154.905 138.482 155.546 141.993 156.577 146.995C157.461 151.26 155.945 158.915 156.543 163.709C156.976 167.185 157.47 169.717 158.033 171.286C161.785 181.836 165.113 190.6 164.645 201.072C164.463 205.182 163.172 209.048 161.785 214.388C160.355 219.936 160.745 225.961 161.846 231.717C161.907 232.012 161.768 232.307 161.517 232.463C160.901 232.836 160.433 233.243 160.104 233.685C165.035 243.212 170.321 252.497 175.953 261.547C178.544 265.717 180.745 268.283 183.024 271.759C184.324 273.744 186.196 276.215 188.64 279.171C191.387 282.483 194.186 285.855 197.037 289.297C198.128 290.155 199.636 290.788 201.56 291.212L190.26 277.949C190.174 277.845 190.182 277.698 190.269 277.602C190.364 277.507 190.511 277.498 190.615 277.576C191.421 278.192 192.245 278.859 193.085 279.587C193.388 279.847 193.865 279.761 194.108 279.397C194.298 279.119 194.359 278.859 194.281 278.608C192.245 271.543 182.141 264.659 180.39 255.765C179.758 252.566 179.298 249.385 179.004 246.22C178.978 245.978 179.298 245.874 179.42 246.082C185.979 257.109 193.25 267.026 202.522 276.943C211.109 286.132 220.165 294.81 229.688 302.976C231.04 302.647 231.422 302.075 230.841 301.26C230.018 300.098 229.394 299.223 228.952 298.633C225.416 296.275 221.915 293.414 218.449 290.051C210.408 282.257 204.376 276.076 200.364 271.517C192.626 262.726 184.914 252.757 179.324 241.869C175.988 235.393 174.931 228.596 176.144 221.497C176.17 221.358 176.361 221.332 176.421 221.462C183.475 235.679 192.184 249.116 202.539 261.773C206.395 266.48 210.486 271.17 214.818 275.851C213.969 272.765 212.791 270.216 211.291 268.214C197.643 253.52 186.387 237.265 177.522 219.433C176.985 218.35 177.071 217.301 177.773 216.286C178.406 215.385 179.099 214.509 179.836 213.66C178.726 209.299 178.241 204.973 178.38 200.665C178.518 196.452 179.775 192.395 180.641 188.164C181.933 181.897 181.031 176.175 178.934 169.448C177.08 163.492 175.858 157.806 176.551 151.824C177.028 147.689 178.588 142.253 178.397 137.884C178.059 130.507 175.711 123.927 173.059 116.767C171.127 111.539 170.659 106.173 171.664 100.686C171.967 99.0298 172.392 97.218 172.938 95.2588L170.407 86.165C170.017 84.6566 169.931 83.495 170.165 82.6801C170.13 82.3421 170.035 82.1166 169.87 81.9866C168.908 76.5685 169.723 71.5492 172.331 66.9199C172.877 65.949 174.524 63.5043 177.253 59.5946C179.082 56.9766 180.174 54.3326 180.529 51.6712C180.615 51.0644 179.914 50.6569 179.428 51.0297L172.452 56.4391C172.374 56.4998 172.253 56.4911 172.184 56.4218C172.115 56.3437 172.106 56.231 172.175 56.153C178.995 48.1255 186.69 40.8089 195.278 34.2119L201.543 26.1497C201.196 25.9677 200.884 26.0023 200.598 26.2364ZM176.126 179.879C177.487 179.825 178.648 181.229 178.724 183.02C178.795 184.81 177.747 186.301 176.387 186.359C175.026 186.413 173.865 185.009 173.789 183.218C173.717 181.429 174.766 179.938 176.126 179.879ZM172.042 191.585C173.102 191.346 174.194 192.187 174.476 193.457C174.758 194.727 174.134 195.949 173.071 196.187C172.011 196.426 170.919 195.585 170.637 194.315C170.355 193.045 170.979 191.823 172.042 191.585ZM162.659 234.466C162.582 234.266 162.678 234.049 162.876 233.973L162.957 233.941C163.154 233.867 163.371 233.963 163.45 234.159L166.076 240.932C166.153 241.132 166.057 241.349 165.859 241.425L165.778 241.457C165.581 241.531 165.364 241.435 165.285 241.239L162.659 234.466Z" fill="#1C1B1C"/>
<path d="M169.868 81.9832L188.447 60.9349C188.664 60.6922 188.811 60.3888 188.889 60.068L189.721 56.4184C188.75 48.5037 190.605 41.1003 195.275 34.2085C186.688 40.8056 178.993 48.1222 172.173 56.1497C172.104 56.2277 172.112 56.3404 172.182 56.4184C172.251 56.4878 172.372 56.4964 172.45 56.4357L179.426 51.0263C179.911 50.6536 180.613 51.061 180.527 51.6678C180.171 54.3292 179.079 56.9732 177.251 59.5913C174.521 63.501 172.875 65.9456 172.329 66.9165C169.721 71.5458 168.906 76.5651 169.868 81.9832Z" fill="#4F61DB"/>
<path d="M148.575 41.8315L141.842 49.9977L128.506 70.0144L126.201 74.7563L128.073 74.973C129.849 72.3203 131.574 69.6329 133.237 66.9022C135.152 63.7814 136.912 61.1287 138.515 58.9354C143.255 52.4597 148.125 45.9493 153.107 39.4129C151.574 39.3522 150.066 40.1584 148.575 41.8315Z" fill="#E5D081"/>
<path d="M148.578 41.8276C146.585 42.8246 144.722 43.7955 142.98 44.7317C141.793 45.3646 138.821 46.5696 134.055 48.338L131.247 53.5134C128.829 59.7464 125.554 65.3813 121.42 70.4093C120.406 71.2155 119.583 72.7585 118.959 75.0212L126.204 74.7524L128.509 70.0105C131.793 62.5118 136.238 55.8454 141.845 49.9938L148.578 41.8276Z" fill="#4F61DB"/>
<path d="M131.12 48.9501C130.349 50.7793 129.326 52.2443 128.061 53.3279L119.595 67.7878L116.432 75.1218L118.953 75.0264C119.577 72.7638 120.401 71.2207 121.414 70.4145C124.023 64.3982 127.298 58.7634 131.241 53.5186L134.049 48.3433L131.12 48.9501Z" fill="#E5D081"/>
<path d="M131.125 48.9458C126.749 50.3675 123.04 52.0753 120.007 54.0778C117.312 58.2389 113.768 62.9809 109.366 68.3036C107.061 71.0864 106.402 74.2419 107.39 77.7702C107.338 76.4005 108.17 75.6809 109.886 75.6029C112.251 75.4989 114.435 75.3342 116.437 75.1175L119.6 67.7835C121.29 62.2527 124.115 57.4327 128.066 53.3236C129.331 52.24 130.354 50.775 131.125 48.9458Z" fill="#4F61DB"/>
<path d="M128.506 70.0123L141.842 49.9956C136.235 55.8472 131.79 62.5136 128.506 70.0123Z" fill="#173568"/>
<path d="M119.598 67.7875L128.064 53.3276C124.113 57.4367 121.288 62.2567 119.598 67.7875Z" fill="#173568"/>
<path d="M121.421 70.413C125.555 65.3849 128.83 59.7501 131.248 53.5171C127.305 58.7618 124.03 64.3967 121.421 70.413Z" fill="#173568"/>
<path d="M120.007 54.0796C114.755 56.3942 109.799 58.7175 105.137 61.0321C104.599 61.3009 103.95 61.691 103.187 62.2024C102.511 62.6619 101.852 63.0433 101.203 63.3641C101.263 64.7598 100.865 66.0168 99.9894 67.1524C96.6791 71.4609 93.8368 75.6827 91.4538 79.8351C89.6254 85.1059 87.199 90.628 84.1748 96.4015C78.4555 107.316 78.8888 117.918 82.6496 129.994C82.745 130.297 84.1747 135.109 86.9477 144.428C88.4815 149.586 88.3169 154.752 86.4711 159.928C86.2805 160.457 86.2198 161.011 86.2805 161.558C86.8958 167.106 88.7329 174.162 84.9634 179.112C84.6168 179.563 84.478 180.144 84.5733 180.707C85.8905 188.033 85.1453 193.043 84.5733 201.678C84.4087 204.183 84.5994 207.061 85.1453 210.303C85.8819 214.638 86.4884 217.447 86.9564 218.738C89.2874 225.153 91.1072 228.656 91.1765 233.857C91.7398 234.602 92.5543 235.279 93.6202 235.877C93.8975 236.033 94.0968 236.302 94.1748 236.614C96.4365 245.881 99.5648 254.845 103.56 263.514C106.402 269.66 109.92 275.563 114.123 281.224L113.04 274.844C112.866 274.749 112.702 274.723 112.554 274.775C112.45 274.809 112.338 274.775 112.26 274.697C108.49 270.769 105.951 264.138 101.861 255.243C99.3221 249.747 98.2043 244.32 96.1766 237.411C96.1246 237.229 96.2979 237.073 96.4712 237.134L98.7935 237.992C99.1575 238.131 99.4521 238.425 99.5821 238.798C103.066 248.759 107.667 257.861 113.378 266.097L117.572 269.044L106.298 250.779L104.426 246.6L102.19 239.925C102.13 239.734 102.32 239.552 102.502 239.63L107.979 241.876C108.057 241.902 108.144 241.902 108.222 241.867C108.343 241.815 108.412 241.763 108.43 241.702L107.771 236.128C107.728 235.703 107.632 235.279 107.485 234.871C106.775 232.86 105.336 229.02 103.161 223.35C101.445 218.868 100.986 213.762 102.442 209.228C103.69 205.336 104.244 202.423 103.811 198.531C103.482 195.505 103.62 192.48 103.794 189.394C99.3482 186.732 95.2753 183.56 91.5838 179.858C91.1939 179.468 91.2285 178.835 91.6445 178.488L91.6792 178.462C92.1384 178.072 92.8143 178.063 93.2822 178.445C99.5561 183.516 106.671 187.461 114.626 190.261C115.951 190.729 117.32 191.119 118.733 191.431C120.102 191.734 121.506 192.029 122.953 192.315L126.497 191.752C121.896 190.607 117.372 189.212 112.918 187.573C105.951 185.007 99.5128 181.531 93.6115 177.153C93.2042 176.85 93.2823 176.226 93.7502 176.026C93.9322 175.948 94.0448 175.896 94.0881 175.887C94.1575 175.861 94.2702 175.879 94.4348 175.957C106.575 181.886 119.418 185.9 132.97 187.998L134.097 186.464C130.778 185.761 127.572 185.085 124.496 184.418C114.279 182.216 104.504 178.982 95.1713 174.726C94.8767 174.596 94.7381 174.258 94.8334 173.954C94.9374 173.651 95.2493 173.469 95.5613 173.538C108.88 176.321 122.346 178.358 135.96 179.641L136.35 178.887C136.48 178.202 136.35 177.829 135.96 177.777C129.227 176.798 118.326 175.315 103.256 173.339C101.168 173.07 98.3169 172.472 95.8733 171.917C95.6739 171.874 95.5439 171.692 95.5699 171.492L95.5787 171.458C95.6047 171.215 95.8213 171.033 96.0726 171.05C110.509 172.012 124.981 172.29 139.478 171.9L140.535 169.967C125.631 169.906 110.856 169.897 96.2112 169.932C95.8906 169.932 95.7173 169.75 95.7086 169.394C95.7086 169.256 95.7433 169.143 95.8213 169.065C95.8992 168.987 96.0119 168.935 96.1766 168.918C105.544 167.973 113.352 166.889 119.599 165.675C124.019 164.808 131.948 163.109 143.395 160.578C143.456 159.633 143.395 159.044 143.222 158.792C141.792 158.94 139.747 159.321 137.087 159.919C123.178 163.049 109.92 165.485 97.3031 167.21C96.5058 167.322 95.9599 167.383 95.6566 167.401C95.414 167.418 95.2147 167.192 95.2667 166.95L95.2753 166.889C95.336 166.594 95.5439 166.36 95.8299 166.282C97.4677 165.857 98.5596 165.537 99.1228 165.32C112.52 160.335 125.917 155.013 139.314 149.352C138.742 148.91 138.282 148.424 137.944 147.887C123.473 153.886 109.071 159.572 94.7381 164.939C94.3914 165.069 94.0188 164.887 93.9408 164.548C93.8888 164.34 93.9408 164.176 94.1054 164.046C96.8264 161.887 100.856 159.191 106.194 155.949C113.334 151.614 118.594 148.424 121.983 146.378C123.17 145.667 123.456 145.217 122.84 145.017L119.669 145.624L93.3342 162.398C92.8576 162.702 92.2337 162.598 91.8784 162.164C91.5145 161.731 91.5405 161.098 91.9218 160.691C95.1367 157.266 98.9409 154.137 103.334 151.311C100.743 145.719 99.5128 141.194 99.6428 137.735C99.8941 130.921 99.6514 124.368 98.9235 118.065C98.0137 110.211 97.641 102.912 100.015 97.3291C101.047 94.9018 102.684 91.6163 104.911 87.4638C106.151 85.1665 106.974 81.9417 107.39 77.7719C106.402 74.2437 107.06 71.0881 109.365 68.3054C113.768 62.9826 117.312 58.2407 120.007 54.0796ZM87.5265 104.186C89.2442 104.186 90.6306 105.929 90.6306 108.075C90.6306 110.222 89.2268 111.954 87.5129 111.954C85.7991 111.954 84.4087 110.211 84.4087 108.065C84.4087 105.918 85.8126 104.186 87.5265 104.186ZM93.9461 112.757C95.0676 112.682 96.0468 113.757 96.1377 115.157C96.2287 116.557 95.3969 117.753 94.2827 117.826C93.1612 117.901 92.1819 116.826 92.091 115.426C91.9999 114.026 92.8319 112.829 93.9461 112.757ZM85.9 119.673C87.1037 119.322 88.4123 120.224 88.8348 121.686C89.2528 123.145 88.6202 124.61 87.4236 124.953C86.2199 125.304 84.9113 124.402 84.4888 122.94C84.0708 121.481 84.7034 120.016 85.9 119.673ZM89.4612 129.527C90.2755 129.101 91.3327 129.526 91.8293 130.474C92.3206 131.424 92.0606 132.534 91.2459 132.957C90.4315 133.383 89.3743 132.959 88.8776 132.011C88.3864 131.06 88.6464 129.951 89.4612 129.527ZM91.3803 187.275C92.6239 187.001 93.8977 187.963 94.2234 189.428C94.5476 190.893 93.8109 192.306 92.5674 192.588C91.3238 192.861 90.05 191.899 89.7243 190.434C89.4001 188.969 90.1368 187.556 91.3803 187.275ZM90.5304 196.204C91.6704 196.13 92.6583 197.152 92.7492 198.489C92.8403 199.831 91.991 200.975 90.852 201.048C89.712 201.123 88.7241 200.1 88.6333 198.763C88.5422 197.421 89.3914 196.277 90.5304 196.204ZM98.7127 199.395C100.016 199.198 101.272 200.308 101.505 201.866C101.74 203.429 100.873 204.851 99.5679 205.052C98.2649 205.249 97.0084 204.14 96.7754 202.582C96.5407 201.019 97.4073 199.597 98.7127 199.395ZM90.4611 208.566C91.4885 208.292 92.5803 209.029 92.8967 210.205C93.2131 211.387 92.6323 212.566 91.5975 212.838C90.5699 213.112 89.4781 212.375 89.1619 211.199C88.8455 210.017 89.4263 208.838 90.4611 208.566ZM90.8349 217.015C91.6966 216.45 92.9183 216.805 93.5694 217.798C94.2183 218.79 94.045 220.056 93.1821 220.617C92.3204 221.183 91.0988 220.827 90.4479 219.834C89.7989 218.842 89.9722 217.576 90.8349 217.015Z" fill="#1C1B1C"/>
<path d="M189.716 56.4229L188.884 60.0725C188.806 60.3932 188.659 60.6966 188.442 60.9394L169.864 81.9876C170.028 82.1177 170.123 82.3431 170.158 82.6812L189.872 60.7834C189.976 60.662 190.046 60.5146 190.063 60.3499L190.158 59.2923L189.716 56.4229Z" fill="#173568"/>
<path d="M190.162 59.2876L190.066 60.3452C190.049 60.5099 189.98 60.6573 189.876 60.7787L170.162 82.6765C169.928 83.4914 170.014 84.653 170.404 86.1614L183.428 71.1468L191.02 62.8072C190.378 61.949 190.092 60.77 190.162 59.2876Z" fill="#E5D081"/>
<path d="M191.022 62.8091L183.431 71.1487C186.1 69.5709 188.223 67.4383 189.809 64.7509C190.034 64.3695 190.606 64.4302 190.753 64.855L193.63 73.2206L194.41 72.9605L191.022 62.8091Z" fill="#173568"/>
<path d="M101.201 63.3647C94.0433 67.8206 88.5494 73.8629 84.7106 81.4916L91.4523 79.8358C93.8353 75.6834 96.6776 71.4616 99.9878 67.1531C100.863 66.0175 101.262 64.7605 101.201 63.3647Z" fill="#4F61DB"/>
<path d="M183.428 71.1468L170.404 86.1614L172.934 95.2552L175.603 98.298C179.728 92.2904 183.601 86.1961 188.125 80.5266C189.936 78.2466 191.747 75.9667 193.541 73.6868C193.818 73.34 193.844 73.184 193.627 73.2187L190.75 64.8531C190.603 64.4283 190.031 64.3676 189.806 64.7491C188.22 67.4364 186.097 69.569 183.428 71.1468Z" fill="#4F61DB"/>
<path d="M194.406 72.9614L193.626 73.2215C193.842 73.1868 193.816 73.3428 193.539 73.6896C191.745 75.9695 189.934 78.2495 188.123 80.5294C183.6 86.1989 179.726 92.2932 175.601 98.3008L176.875 99.9393C182.222 91.1836 188.392 83.0348 195.385 75.4927C195.367 74.5998 195.038 73.759 194.406 72.9614Z" fill="#1C1B1C"/>
<path d="M118.953 75.0251L116.431 75.1204C114.429 75.3371 112.246 75.5019 109.88 75.6059C108.164 75.6839 107.332 76.4034 107.384 77.7731C106.968 81.9429 106.145 85.1678 104.906 87.4651C102.679 91.6175 101.041 94.903 100.01 97.3304C97.6356 102.913 98.0082 110.212 98.9181 118.067C99.646 124.369 99.8886 130.923 99.6373 137.737C99.5074 141.195 100.738 145.721 103.329 151.312C106.162 150.003 109.117 148.789 112.202 147.662C115.322 146.527 117.809 145.842 119.663 145.625L122.835 145.018C128.91 143.172 133.944 144.126 137.939 147.888C138.277 148.425 138.736 148.911 139.308 149.353C140.946 151.65 142.237 154.286 143.19 157.242C143.372 157.814 143.381 158.334 143.216 158.793C143.39 159.045 143.45 159.634 143.39 160.579C143.39 164.064 142.436 167.194 140.53 169.968L139.473 171.901L136.691 177.44C136.561 177.692 136.483 177.961 136.44 178.238L136.345 178.888L135.955 179.642C135.747 182.182 135.123 184.462 134.092 186.465L132.965 187.999C131.327 189.993 129.169 191.241 126.492 191.753L122.948 192.316C119.603 193.175 116.206 193.175 112.766 192.299C110.27 191.666 107.28 190.695 103.788 189.395C103.615 192.481 103.476 195.507 103.805 198.532C104.239 202.424 103.684 205.337 102.436 209.23C100.98 213.763 101.44 218.869 103.156 223.351C105.331 229.021 106.769 232.861 107.48 234.872C107.627 235.28 107.722 235.705 107.766 236.129L108.424 241.704C108.97 242.033 109.299 242.154 109.403 242.059C117.332 244.287 125.218 245.986 133.06 247.139L143.736 244.304C144.005 244.235 144.291 244.33 144.456 244.556C144.698 244.876 144.802 245.284 144.776 245.761C144.863 245.102 145.01 244.59 145.209 244.218C145.331 243.992 145.504 243.871 145.738 243.862C145.937 243.853 146.154 243.88 146.405 243.958C146.258 243.238 146.917 242.605 148.372 242.042L154.404 238.271C154.958 238.106 155.513 237.612 156.059 236.797C157.116 235.609 158.459 234.578 160.097 233.685C160.426 233.243 160.894 232.835 161.509 232.462C161.761 232.306 161.899 232.012 161.839 231.717C160.738 225.961 160.348 219.936 161.778 214.388C163.164 209.048 164.456 205.181 164.638 201.072C165.105 190.6 161.778 181.836 158.026 171.285C157.462 169.716 156.969 167.185 156.535 163.709C155.937 158.915 157.454 151.26 156.57 146.995C155.539 141.993 154.897 138.482 154.646 136.445C154.161 132.388 155.565 127.039 155.539 122.835C155.504 115.657 154.109 111.175 151.371 104.144C149.585 99.5583 149.447 93.516 151.041 87.8465C151.769 85.2285 153.121 81.4488 152.462 79.637L143.979 76.8542L142.584 76.1867C141.241 76.4902 139.733 76.3341 138.052 75.7099L136.388 75.4932L128.069 74.9731L126.197 74.7563L118.953 75.0251ZM127.645 89.2006C129.958 89.1382 131.89 91.4441 131.967 94.3426C132.046 97.2437 130.235 99.645 127.92 99.7039C125.608 99.7664 123.675 97.4604 123.599 94.5619C123.519 91.6609 125.33 89.2596 127.645 89.2006ZM110.776 97.7563C112.263 97.6424 113.58 99.0466 113.72 100.886C113.857 102.731 112.774 104.318 111.289 104.429C109.802 104.543 108.485 103.139 108.346 101.3C108.208 99.4543 109.291 97.8679 110.776 97.7565V97.7563ZM146.342 105.607C147.714 105.748 148.693 107.144 148.533 108.731C148.372 110.316 147.133 111.487 145.758 111.351C144.386 111.21 143.407 109.814 143.567 108.227C143.728 106.641 144.967 105.471 146.342 105.607ZM132.046 106.427C133.468 106.225 134.802 107.343 135.027 108.927C135.253 110.507 134.282 111.955 132.861 112.16C131.44 112.362 130.105 111.244 129.88 109.66C129.655 108.08 130.625 106.632 132.046 106.427ZM113.08 113.007C115.391 112.64 117.627 114.582 118.068 117.353C118.511 120.121 116.994 122.67 114.686 123.039C112.376 123.406 110.14 121.465 109.699 118.693C109.256 115.925 110.773 113.377 113.08 113.007ZM134.024 115.498C136.215 115.249 138.251 117.286 138.563 120.05C138.875 122.817 137.358 125.253 135.164 125.507C132.974 125.756 130.937 123.719 130.625 120.955C130.314 118.188 131.83 115.752 134.024 115.498ZM108.549 132.858C110.313 132.301 112.298 133.636 112.992 135.829C113.684 138.023 112.818 140.259 111.055 140.812C109.291 141.369 107.306 140.034 106.612 137.841C105.92 135.647 106.786 133.411 108.549 132.858ZM143.404 134.188C144.949 133.827 146.587 135.179 147.065 137.206C147.549 139.236 146.682 141.178 145.143 141.545C143.597 141.906 141.96 140.554 141.482 138.527C140.998 136.497 141.864 134.555 143.404 134.188ZM146.209 185.581C147.844 185.121 149.646 186.456 150.242 188.562C150.834 190.669 149.984 192.75 148.352 193.209C146.717 193.669 144.915 192.334 144.319 190.228C143.728 188.12 144.577 186.04 146.209 185.581ZM150.861 202.83C152.662 202.58 154.386 204.358 154.72 206.798C155.053 209.238 153.866 211.414 152.07 211.659C150.27 211.908 148.546 210.131 148.212 207.69C147.878 205.251 149.066 203.075 150.861 202.83ZM128.8 205.11C131.163 204.739 133.468 206.872 133.943 209.886C134.421 212.897 132.887 215.645 130.527 216.019C128.164 216.39 125.859 214.258 125.384 211.243C124.906 208.233 126.44 205.485 128.8 205.11ZM114.729 220.311C117.046 219.806 119.412 221.635 120.008 224.393C120.608 227.148 119.204 229.792 116.886 230.293C114.568 230.798 112.202 228.969 111.606 226.21C111.006 223.455 112.41 220.811 114.729 220.311ZM137.904 233.66C139.759 233.243 141.657 234.664 142.137 236.826C142.618 238.99 141.509 241.079 139.655 241.494C137.8 241.912 135.903 240.49 135.422 238.328C134.941 236.164 136.05 234.075 137.904 233.66Z" fill="url(#paint0_linear_147_1065)"/>
<path d="M195.39 75.4946C188.397 83.0366 182.227 91.1855 176.881 99.9411L183.232 109.876C189.186 102.126 195.356 96.1008 201.803 89.3997C200.026 85.9061 198.172 82.4472 196.239 79.0402C195.373 77.5058 195.382 76.7689 196.265 76.8123C196.101 76.3702 195.815 75.9367 195.39 75.4946Z" fill="#4F61DB"/>
<path d="M201.802 89.3978C202.053 89.1637 202.313 89.0337 202.582 89.0163L196.265 76.8104C195.381 76.7671 195.372 77.504 196.239 79.0384C198.171 82.4453 200.026 85.9042 201.802 89.3978Z" fill="#173568"/>
<path d="M84.7096 81.4917C74.181 86.5024 64.6575 92.7527 56.1393 100.243C54.5362 101.656 51.0786 104.768 45.7666 109.579C38.0369 116.575 30.1165 122.305 22.0144 126.778C16.5291 129.813 11.0785 132.881 5.64521 135.985C3.14106 137.415 1.50304 139.114 0.740475 141.065C0.333195 142.105 0.523878 143.744 1.31244 145.972C2.29165 147.125 3.26218 148.399 4.24139 149.777C5.89651 152.135 10.238 154.077 11.9797 157.649C12.1272 157.943 11.789 158.23 11.5204 158.047C7.33495 155.143 3.51341 151.849 0.0558637 148.182C0.419816 151.225 1.60702 153.99 3.61742 156.478C7.90687 161.792 12.153 165.711 18.1063 170.253C26.5205 176.668 34.6141 183.162 42.3698 189.733C47.4651 189.889 52.2832 189.325 56.8239 188.051C62.8638 186.352 65.6369 183.448 68.0111 177.986C69.1809 175.299 70.0821 173.418 70.7147 172.343C71.0787 171.718 71.5293 171.155 72.0492 170.661C74.051 168.78 75.6454 167.237 76.8326 166.032C83.0198 159.721 85.5675 149.743 80.1082 142.149C78.6611 140.129 77.7338 138.898 77.3265 138.438C73.0457 133.523 68.9036 128.564 64.9002 123.554C64.6662 123.268 64.5362 123.051 64.5102 122.903C64.4322 122.444 64.935 122.115 65.3334 122.357C69.8222 125.123 73.8256 130.168 79.5969 136.583C83.1411 140.536 85.9227 144.307 86.0527 149.431C86.1827 154.849 85.0042 159.686 82.5085 163.925C80.5328 167.28 76.382 170.912 74.259 174.016C73.9557 174.449 73.6957 174.9 73.4704 175.377C70.4634 181.809 67.7857 187.054 60.706 189.793C56.1393 191.553 50.784 192.195 44.64 191.718C52.7596 201.618 59.4148 209.264 64.6055 214.656C69.9348 220.178 76.3819 225.223 83.947 229.783L88.6351 232.939L90.7494 233.988C91.0787 233.745 91.2174 233.702 91.1741 233.858C91.1047 228.656 89.285 225.154 86.9539 218.739C86.486 217.447 85.8795 214.639 85.1429 210.304C84.5972 207.062 84.4063 204.184 84.5709 201.678C85.1429 193.044 85.8881 188.034 84.5709 180.708C84.4756 180.145 84.6142 179.564 84.9609 179.113C88.7304 174.163 86.8932 167.107 86.278 161.558C86.2173 161.012 86.278 160.457 86.4687 159.929C88.3144 154.753 88.4791 149.587 86.9453 144.429C84.1723 135.109 82.7425 130.298 82.6471 129.995C78.8863 117.919 78.4531 107.317 84.1722 96.4024C87.1966 90.6288 89.6227 85.1067 91.4512 79.8359L84.7093 81.4917H84.7096ZM72.3471 98.6391C74.4671 98.4136 76.3993 100.286 76.6722 102.824C76.9452 105.357 75.4461 107.603 73.3287 107.828C71.2087 108.053 69.2763 106.181 69.0036 103.643C68.7305 101.11 70.2295 98.8643 72.3471 98.6391ZM59.3403 105.444C59.2242 104.326 60.0301 103.32 61.1526 103.204L61.4628 103.172C62.5778 103.051 63.583 103.866 63.701 104.985L63.8568 106.468C63.973 107.585 63.167 108.591 62.0444 108.707L61.7342 108.74C60.6194 108.86 59.6142 108.045 59.4961 106.926L59.3403 105.444ZM65.2589 111.35C67.0838 111.278 68.6176 112.795 68.6931 114.741C68.765 116.679 67.3525 118.318 65.5291 118.384C63.7042 118.456 62.1705 116.939 62.0951 114.994C62.0232 113.056 63.4355 111.417 65.2589 111.35ZM59.6228 114.417L58.7909 117.078C58.687 117.416 58.323 117.607 57.985 117.503L57.7337 117.425C56.3904 117 55.5673 115.83 55.8879 114.807L55.9399 114.625C56.2606 113.602 57.6124 113.116 58.9556 113.532L59.2069 113.61C59.5449 113.714 59.7266 114.078 59.6228 114.417ZM49.4582 176.365C48.7563 176.452 48.3664 175.576 48.9037 175.117C60.4982 165.035 59.6577 145.746 55.8795 132.049C55.7582 131.607 56.0268 131.156 56.4688 131.052L56.7201 130.992C57.3007 130.853 57.8899 131.182 58.0806 131.746C61.3215 141.169 62.0494 150.748 60.2643 160.466C59.1291 166.638 56.2521 171.58 51.6421 175.299C50.8622 175.932 50.1341 176.287 49.4582 176.365ZM26.3986 139.527C28.4616 133.8 34.9434 130.888 40.8781 133.022C46.8152 135.162 49.9521 141.533 47.8905 147.268C45.8273 152.994 39.3455 155.906 33.4108 153.772C27.4737 151.633 24.3368 145.261 26.3986 139.527ZM10.1513 146.908C13.6781 148.65 16.0698 154.805 16.6071 158.334C16.6764 158.802 16.3558 159.253 15.8879 159.331L15.8445 159.339C15.3852 159.417 14.9433 159.114 14.8567 158.654C14.0768 154.554 12.335 150.861 9.62265 147.567C9.32803 147.211 9.73533 146.7 10.1513 146.908ZM73.0944 192.013C75.2988 191.648 77.4652 193.608 77.9297 196.39C78.3924 199.173 76.9886 201.73 74.7821 202.102C72.5778 202.467 70.4115 200.508 69.947 197.726C69.4842 194.943 70.888 192.385 73.0944 192.013ZM77.4908 212.401C79.2156 212.012 80.992 213.39 81.4598 215.47C81.9279 217.551 80.9143 219.554 79.19 219.945C77.4652 220.334 75.6887 218.956 75.221 216.876C74.7526 214.795 75.7667 212.792 77.4908 212.401Z" fill="url(#paint1_linear_147_1065)"/>
<path d="M222.338 128.197L226.099 132.991C229.34 129.61 232.598 125.536 235.431 122.484C241.757 115.688 246.099 111.136 248.447 108.83C255.241 102.155 263.386 96.1911 272.893 90.9377C272.13 89.1085 271.445 87.7995 270.83 87.0019C268.066 83.4043 258.811 88.1636 255.891 90.0881C248.603 94.882 242.182 100.872 236.636 108.076C231.818 114.335 227.676 121.817 222.338 128.197Z" fill="#4F61DB"/>
<path d="M202.578 89.0127C202.309 89.03 202.049 89.1601 201.798 89.3941C195.35 96.0952 189.181 102.12 183.227 109.87L184.042 111.249L203.357 90.4171C203.123 89.7496 202.863 89.2814 202.578 89.0127Z" fill="#1C1B1C"/>
<path d="M123.6 94.5594C123.524 91.659 125.336 89.2587 127.646 89.1982C129.957 89.1377 131.892 91.4398 131.968 94.3402C132.044 97.2406 130.232 99.6409 127.921 99.7014C125.611 99.7619 123.676 97.4598 123.6 94.5594Z" fill="#4F61DB"/>
<path d="M203.359 90.4214L184.043 111.253L188.185 117.313C190.022 115.171 192.067 113.299 194.329 111.695C199 108.375 203.367 104.942 207.414 101.405L203.359 90.4214Z" fill="#4F61DB"/>
<path d="M272.89 90.9429C263.384 96.1963 255.239 102.161 248.445 108.836C246.097 111.142 241.755 115.693 235.429 122.489C232.596 125.541 229.337 129.615 226.097 132.996C226.019 133.794 226.287 134.522 226.902 135.189C229.493 132.077 232.544 129.294 235.013 126.278C241.937 117.799 249.641 110.084 258.124 103.14C263.012 99.135 268.272 95.6155 273.904 92.5813L272.89 90.9429Z" fill="#1C1B1C"/>
<path d="M273.906 92.5752C268.274 95.6093 263.014 99.129 258.126 103.134C249.643 110.078 241.939 117.793 235.015 126.272C232.546 129.288 229.495 132.071 226.904 135.183L227.623 136.822C229.435 135.556 231.211 134.247 232.953 132.886C235.249 131.109 237.008 129.817 238.247 129.02C248.013 122.717 254.469 118.643 257.624 116.805C259.634 115.635 262.728 114.022 266.896 111.985C272.338 109.324 277.866 106.723 283.49 104.2L273.906 92.5752Z" fill="#4F61DB"/>
<path d="M172.935 95.2573C172.389 97.2165 171.965 99.0283 171.661 100.684C170.656 106.172 171.124 111.538 173.056 116.765C175.708 123.926 178.056 130.505 178.394 137.883C178.585 142.252 177.025 147.687 176.549 151.822C175.855 157.804 177.077 163.491 178.932 169.446C181.029 176.174 181.93 181.895 180.639 188.163C179.772 192.393 178.516 196.45 178.377 200.663C178.238 204.972 178.724 209.298 179.833 213.658L182.207 209.792C182.77 209.445 183.29 208.882 183.758 208.101L189.824 199.441L191.505 197.196L195.743 190.287C195.977 189.663 196.393 189.047 196.973 188.432L199.556 183.473C199.408 183.291 199.738 182.641 200.543 181.522C201.679 178.818 203.282 176.208 205.353 173.703C206.245 172.533 207.242 171.596 208.342 170.903C208.68 165.771 208.55 162.243 207.935 160.327C206.557 156.027 204.902 150.401 206.843 147.202C208.585 144.341 209.547 142.625 209.738 142.044C210.734 139.027 210.336 135.88 208.542 132.612C202.935 132.621 198.212 130.471 194.382 126.154L189.226 118.863C189.105 118.69 189.027 118.482 189.01 118.273L188.984 117.918C188.724 117.875 188.455 117.675 188.186 117.311L184.044 111.252L183.23 109.873L176.878 99.9386L175.604 98.3001L172.935 95.2573ZM180.768 120.173C182.372 119.791 184.079 121.16 184.569 123.233C185.067 125.304 184.157 127.298 182.555 127.678C180.951 128.061 179.243 126.691 178.753 124.619C178.256 122.547 179.165 120.553 180.768 120.173ZM200.42 135.327C202.528 135.265 204.296 137.345 204.372 139.961C204.443 142.581 202.797 144.749 200.684 144.807C198.576 144.87 196.809 142.789 196.732 140.174C196.661 137.553 198.308 135.386 200.42 135.327ZM188.387 139.036C190.561 139.07 192.294 141.142 192.25 143.647C192.207 146.153 190.405 148.156 188.229 148.12C186.055 148.086 184.322 146.014 184.366 143.509C184.408 141.004 186.211 139.001 188.387 139.036ZM185.877 154.481C187.675 154.163 189.478 155.81 189.894 158.16C190.309 160.509 189.192 162.676 187.394 162.999C185.595 163.318 183.793 161.671 183.376 159.321C182.961 156.972 184.079 154.805 185.877 154.481ZM199.351 161.906C200.769 161.792 202.034 163.075 202.173 164.775C202.311 166.473 201.271 167.947 199.846 168.058C198.429 168.172 197.164 166.889 197.025 165.189C196.886 163.491 197.926 162.017 199.351 161.906ZM190.292 173.28C191.687 172.923 193.195 174.11 193.66 175.936C194.122 177.76 193.368 179.528 191.974 179.882C190.578 180.239 189.07 179.052 188.605 177.226C188.143 175.402 188.897 173.634 190.292 173.28Z" fill="url(#paint2_linear_147_1065)"/>
<path d="M108.352 101.301C108.21 99.4588 109.298 97.8725 110.782 97.7582C112.266 97.644 113.584 99.0451 113.726 100.888C113.868 102.73 112.779 104.317 111.295 104.431C109.811 104.545 108.493 103.144 108.352 101.301Z" fill="#4F61DB"/>
<path d="M69.0007 103.639C68.7296 101.102 70.2265 98.8615 72.3442 98.6351C74.4618 98.4087 76.3983 100.282 76.6693 102.82C76.9404 105.357 75.4434 107.598 73.3258 107.824C71.2082 108.05 69.2717 106.177 69.0007 103.639Z" fill="#4F61DB"/>
<path d="M207.417 101.407C203.37 104.944 199.003 108.377 194.332 111.697C192.07 113.301 190.025 115.173 188.188 117.314C188.457 117.678 188.725 117.878 188.985 117.921C190.311 117.401 191.36 116.838 192.131 116.239C197.252 112.269 202.469 108.359 207.798 104.502C207.876 103.375 207.746 102.343 207.417 101.407Z" fill="#E5D081"/>
<path d="M63.7075 104.984L63.8633 106.467C63.9809 107.586 63.1694 108.588 62.0509 108.706L61.7407 108.738C60.6222 108.856 59.6201 108.044 59.5026 106.925L59.3468 105.442C59.2292 104.323 60.0407 103.321 61.1592 103.203L61.4694 103.171C62.5879 103.053 63.59 103.865 63.7075 104.984Z" fill="#4F61DB"/>
<path d="M283.492 104.204C277.868 106.726 272.339 109.327 266.897 111.988C262.729 114.026 259.635 115.638 257.625 116.808C254.471 118.646 248.015 122.721 238.249 129.023C237.01 129.82 235.25 131.112 232.954 132.889C231.212 134.25 229.436 135.559 227.625 136.825C227.555 137.371 227.737 137.987 228.162 138.654C234.861 134.086 241.984 128.763 248.188 124.888C257.677 118.976 267.53 113.748 277.764 109.214C280.06 108.2 282.382 107.168 284.748 106.137C284.28 105.131 283.864 104.49 283.492 104.204Z" fill="#1C1B1C"/>
<path d="M87.5083 111.953C85.7902 111.95 84.4004 110.209 84.4042 108.064C84.4079 105.919 85.8037 104.182 87.5218 104.185C89.24 104.188 90.6298 105.93 90.626 108.075C90.6223 110.22 89.2264 111.956 87.5083 111.953Z" fill="url(#paint3_linear_147_1065)"/>
<path d="M188.982 117.915L189.008 118.27C189.025 118.478 189.103 118.686 189.225 118.86L194.381 126.15C204.199 122.648 208.67 115.427 207.795 104.495C202.466 108.353 197.249 112.263 192.128 116.233C191.356 116.831 190.308 117.395 188.982 117.915Z" fill="#4F61DB"/>
<path d="M145.762 111.347C144.391 111.208 143.41 109.809 143.571 108.223C143.732 106.637 144.974 105.464 146.345 105.603C147.717 105.743 148.698 107.141 148.537 108.727C148.375 110.314 147.133 111.487 145.762 111.347Z" fill="#4F61DB"/>
<path d="M284.747 106.134C282.381 107.165 280.059 108.197 277.763 109.211C267.529 113.745 257.676 118.973 248.187 124.885C241.983 128.76 234.86 134.083 228.161 138.651L228.768 141.789C228.603 141.208 228.984 140.723 229.912 140.324C244.27 134.161 258.906 128.777 273.837 124.165C278.317 122.778 283.932 121.469 288.924 119.961C288.621 114.629 287.234 110.026 284.747 106.134Z" fill="#4F61DB"/>
<g filter="url(#filter0_d_147_1065)">
<path d="M129.88 109.655C129.655 108.072 130.625 106.625 132.046 106.422C133.468 106.22 134.803 107.339 135.028 108.923C135.253 110.506 134.283 111.953 132.862 112.156C131.44 112.358 130.106 111.239 129.88 109.655Z" fill="#FFF9E2"/>
</g>
<g filter="url(#filter1_d_147_1065)">
<path d="M62.0928 114.993C62.0182 113.051 63.4349 111.42 65.2569 111.35C67.079 111.28 68.6165 112.797 68.6911 114.74C68.7657 116.682 67.3491 118.314 65.527 118.384C63.705 118.454 62.1674 116.936 62.0928 114.993Z" fill="#FFF9E2"/>
</g>
<path d="M92.0898 115.422C91.9969 114.023 92.8274 112.828 93.9449 112.754C95.0623 112.679 96.0435 113.754 96.1364 115.154C96.2293 116.553 95.3988 117.748 94.2814 117.822C93.164 117.897 92.1828 116.822 92.0898 115.422Z" fill="url(#paint4_linear_147_1065)"/>
<g filter="url(#filter2_d_147_1065)">
<path d="M109.708 118.692C109.264 115.922 110.778 113.376 113.089 113.006C115.399 112.636 117.632 114.581 118.076 117.352C118.519 120.122 117.006 122.668 114.695 123.038C112.384 123.408 110.151 121.463 109.708 118.692Z" fill="#FFF9E2"/>
</g>
<path d="M59.6251 114.414C59.7291 114.076 59.5471 113.712 59.2091 113.608L58.9578 113.53C57.6146 113.114 56.2629 113.599 55.9423 114.622L55.8903 114.804C55.5696 115.827 56.3927 116.997 57.736 117.422L57.9872 117.5C58.3252 117.604 58.6892 117.413 58.7932 117.075L59.6251 114.414Z" fill="#E5D081"/>
<path d="M130.63 120.95C130.316 118.187 131.838 115.743 134.03 115.494C136.222 115.244 138.254 117.282 138.569 120.045C138.883 122.809 137.362 125.252 135.17 125.502C132.977 125.752 130.945 123.714 130.63 120.95Z" fill="#4F61DB"/>
<path d="M84.4918 122.94C84.0711 121.482 84.703 120.019 85.9031 119.672C87.1032 119.326 88.4171 120.227 88.8378 121.685C89.2585 123.143 88.6267 124.606 87.4266 124.953C86.2265 125.299 84.9125 124.398 84.4918 122.94Z" fill="url(#paint5_linear_147_1065)"/>
<path d="M228.763 141.792L229.249 143.11C231.285 141.931 233.365 140.943 235.488 140.137C247.758 135.507 260.167 130.445 272.533 126.864C277.949 125.295 283.426 123.787 288.954 122.339C289.249 121.663 289.24 120.874 288.92 119.964C283.928 121.472 278.313 122.781 273.833 124.168C258.902 128.78 244.266 134.164 229.907 140.327C228.98 140.726 228.599 141.212 228.763 141.792Z" fill="#1C1B1C"/>
<path d="M178.751 124.621C178.257 122.548 179.159 120.558 180.765 120.175C182.372 119.792 184.074 121.162 184.567 123.235C185.061 125.307 184.159 127.298 182.553 127.68C180.947 128.063 179.244 126.693 178.751 124.621Z" fill="#4F61DB"/>
<path d="M42.3699 189.73C42.8725 190.909 43.6264 191.568 44.6403 191.716C50.7841 192.192 56.1394 191.551 60.7061 189.791C67.7859 187.052 70.4635 181.807 73.4705 175.375C73.6958 174.898 73.9558 174.447 74.2591 174.013C76.3821 170.91 80.5329 167.278 82.5087 163.923C85.0043 159.684 86.1828 154.846 86.0528 149.428C85.9228 144.305 83.1412 140.534 79.597 136.581C73.8258 130.166 69.8223 125.12 65.3336 122.355C64.9349 122.112 64.4324 122.442 64.5104 122.901C64.5364 123.049 64.6663 123.265 64.9003 123.551C68.9038 128.562 73.0459 133.521 77.3266 138.436C77.7339 138.895 78.6612 140.126 80.1083 142.146C85.5676 149.74 83.0199 159.718 76.8327 166.029C75.6455 167.234 74.0511 168.777 72.0494 170.659C71.5294 171.153 71.0788 171.716 70.7148 172.34C70.0822 173.415 69.181 175.296 68.0112 177.984C65.6368 183.445 62.8639 186.349 56.824 188.049C52.2833 189.323 47.4652 189.886 42.3699 189.73Z" fill="#1C1B1C"/>
<path d="M229.254 143.112C229.141 143.979 229.219 144.915 229.497 145.92C235.762 145.487 241.992 144.828 248.197 143.944C257.807 142.574 267.408 141.196 277.01 139.817C279.566 139.453 282.027 138.916 284.384 138.214C287.487 133.645 289.012 128.348 288.96 122.341C283.431 123.789 277.954 125.297 272.538 126.866C260.173 130.446 247.764 135.509 235.493 140.138C233.37 140.944 231.291 141.933 229.254 143.112Z" fill="#4F61DB"/>
<path d="M215.991 131.554C217.594 134.909 218.34 138.732 217.048 142.26C216.572 143.561 216.113 144.878 215.671 146.205C215.575 146.499 215.515 146.803 215.489 147.115C215.376 148.58 215.532 149.811 215.939 150.808C218.643 157.405 218.695 164.115 216.095 170.937C217.352 172.359 218.496 173.087 219.527 173.113L222.698 169.498C222.95 168.727 223.322 168.241 223.825 168.042L225.454 165.051C225.558 164.453 225.87 163.872 226.39 163.3L227.213 161.956C227.083 161.635 227.222 160.985 227.629 160.006L227.863 158.185L228.227 156.607C228.149 155.775 228.34 155.021 228.816 154.336C228.678 153.816 228.747 153.227 229.016 152.568L229.38 148.181C229.267 147.106 229.302 146.352 229.492 145.919C229.215 144.913 229.137 143.977 229.25 143.11L228.764 141.792L228.158 138.654C227.733 137.987 227.551 137.371 227.62 136.825L226.901 135.186C226.286 134.519 226.017 133.791 226.095 132.993L222.334 128.199L215.991 131.554ZM221.914 139.838C223.236 139.616 224.527 140.726 224.788 142.31C225.055 143.899 224.198 145.364 222.876 145.584C221.555 145.806 220.263 144.696 220.002 143.112C219.735 141.523 220.592 140.058 221.914 139.838ZM222.454 155.326C223.851 155.142 225.177 156.408 225.406 158.163C225.636 159.919 224.692 161.488 223.289 161.669C221.893 161.852 220.567 160.587 220.337 158.831C220.107 157.076 221.052 155.507 222.454 155.326Z" fill="url(#paint6_linear_147_1065)"/>
<path d="M88.8749 132.01C88.3821 131.063 88.6434 129.952 89.4584 129.527C90.2735 129.103 91.3336 129.526 91.8264 130.473C92.3192 131.42 92.058 132.532 91.243 132.957C90.4279 133.381 89.3677 132.957 88.8749 132.01Z" fill="url(#paint7_linear_147_1065)"/>
<path d="M49.4617 176.361C50.1377 176.283 50.8656 175.927 51.6455 175.294C56.2556 171.575 59.1325 166.634 60.2677 160.462C62.0528 150.744 61.3249 141.165 58.084 131.741C57.8934 131.178 57.304 130.848 56.7235 130.987L56.4722 131.048C56.0303 131.152 55.7616 131.603 55.8829 132.045C59.6611 145.742 60.5017 165.03 48.9072 175.112C48.3699 175.572 48.7598 176.447 49.4617 176.361Z" fill="#1C1B1C"/>
<path d="M208.544 132.609C210.338 135.878 210.736 139.024 209.74 142.041C209.549 142.622 208.587 144.338 206.845 147.199C204.904 150.398 206.559 156.024 207.937 160.324C208.553 162.24 208.683 165.768 208.345 170.9C211.213 170.085 213.795 170.094 216.1 170.935C218.7 164.112 218.648 157.403 215.944 150.806C215.537 149.809 215.381 148.578 215.494 147.113C215.52 146.8 215.58 146.497 215.676 146.202C216.118 144.876 216.577 143.558 217.053 142.258C218.345 138.73 217.599 134.907 215.996 131.552L208.544 132.609ZM211.715 162.899C211.715 161.763 212.634 160.844 213.769 160.844C214.904 160.844 215.823 161.763 215.823 162.899C215.823 164.034 214.904 164.953 213.769 164.953C212.634 164.953 211.715 164.034 211.715 162.899Z" fill="#1C1B1C"/>
<g filter="url(#filter3_d_147_1065)">
<path d="M106.614 137.836C105.922 135.64 106.789 133.409 108.551 132.853C110.313 132.298 112.302 133.628 112.995 135.824C113.687 138.02 112.82 140.251 111.058 140.807C109.296 141.363 107.307 140.033 106.614 137.836Z" fill="#FFF9E2"/>
</g>
<path d="M141.489 138.526C141.009 136.495 141.87 134.552 143.412 134.188C144.953 133.823 146.592 135.174 147.072 137.206C147.552 139.237 146.692 141.18 145.15 141.544C143.608 141.909 141.97 140.558 141.489 138.526Z" fill="#4F61DB"/>
<path d="M196.731 140.171C196.658 137.553 198.309 135.383 200.419 135.324C202.529 135.265 204.298 137.34 204.372 139.958C204.445 142.576 202.794 144.746 200.684 144.805C198.574 144.863 196.805 142.789 196.731 140.171Z" fill="#4F61DB"/>
<path d="M229.493 145.916C229.303 146.349 229.268 147.103 229.381 148.178C242.249 146.739 251.244 145.664 256.365 144.962C261.928 144.199 270.655 142.812 282.552 140.81C283.272 140.194 283.887 139.327 284.381 138.209C282.024 138.911 279.563 139.449 277.006 139.813C267.405 141.191 257.804 142.57 248.194 143.939C241.989 144.823 235.759 145.482 229.493 145.916Z" fill="#1C1B1C"/>
<g filter="url(#filter4_d_147_1065)">
<path d="M188.225 148.123C186.048 148.085 184.319 146.021 184.362 143.513C184.406 141.004 186.207 139.002 188.384 139.04C190.561 139.078 192.291 141.142 192.247 143.65C192.203 146.159 190.403 148.161 188.225 148.123Z" fill="#FFF9E2"/>
</g>
<path d="M220.009 143.113C219.743 141.527 220.6 140.061 221.921 139.84C223.243 139.619 224.529 140.726 224.795 142.312C225.06 143.899 224.204 145.364 222.882 145.586C221.561 145.807 220.274 144.7 220.009 143.113Z" fill="#4F61DB"/>
<path d="M229.383 148.179L229.019 152.565C242.511 154.351 253.638 155.712 262.381 156.64C266.22 157.047 271.064 157.376 276.913 157.637C276.497 150.58 278.803 146.774 282.555 140.81C270.657 142.813 261.931 144.2 256.367 144.963C251.246 145.665 242.251 146.74 229.383 148.179Z" fill="#4F61DB"/>
<path d="M122.837 145.014C123.453 145.214 123.167 145.665 121.979 146.376C118.591 148.421 113.331 151.612 106.191 155.946C100.853 159.188 96.8234 161.884 94.1024 164.043C93.9378 164.173 93.8858 164.338 93.9378 164.546C94.0158 164.884 94.3883 165.066 94.735 164.936C109.068 159.57 123.47 153.883 137.941 147.884C133.947 144.122 128.912 143.168 122.837 145.014Z" fill="#4F61DB"/>
<path d="M103.335 151.312C98.942 154.138 95.1378 157.267 91.9228 160.692C91.5416 161.099 91.5155 161.732 91.8795 162.165C92.2348 162.599 92.8587 162.703 93.3353 162.399L119.67 145.625C117.815 145.842 115.328 146.527 112.209 147.662C109.124 148.789 106.169 150.003 103.335 151.312Z" fill="#4F61DB"/>
<path d="M1.30865 145.971C0.26012 146.378 -0.155901 147.115 0.0520718 148.181C3.50962 151.848 7.33116 155.142 11.5166 158.047C11.7852 158.229 12.1232 157.943 11.9759 157.648C10.2342 154.076 5.89271 152.134 4.2376 149.776C3.25839 148.398 2.28786 147.124 1.30865 145.971Z" fill="#1C1B1C"/>
<path d="M10.1499 146.906C9.73397 146.698 9.32676 147.21 9.62139 147.565C12.3337 150.859 14.0754 154.552 14.8553 158.653C14.942 159.112 15.384 159.415 15.8433 159.337L15.8865 159.329C16.3544 159.251 16.6751 158.8 16.6058 158.332C16.0686 154.804 13.6768 148.649 10.1499 146.906Z" fill="#1C1B1C"/>
<path d="M139.312 149.35C125.915 155.011 112.519 160.334 99.1216 165.318C98.5584 165.535 97.4666 165.856 95.8288 166.281C95.5428 166.359 95.3348 166.593 95.2741 166.887L95.2655 166.948C95.2135 167.191 95.4128 167.416 95.6555 167.399C95.9588 167.382 96.5047 167.321 97.3019 167.208C109.919 165.483 123.177 163.047 137.085 159.918C139.746 159.319 141.791 158.938 143.221 158.791C143.385 158.331 143.377 157.811 143.195 157.239C142.241 154.283 140.95 151.647 139.312 149.35Z" fill="#4F61DB"/>
<path d="M229.018 152.567C228.749 153.226 228.68 153.816 228.819 154.336C244.893 156.98 261.029 158.826 277.224 159.875C277.346 158.757 277.242 158.011 276.912 157.639C271.063 157.379 266.219 157.049 262.38 156.642C253.637 155.714 242.51 154.353 229.018 152.567Z" fill="#1C1B1C"/>
<path d="M228.814 154.335C228.337 155.02 228.147 155.774 228.225 156.606C236.11 159.554 244.057 162.319 252.072 164.911C262.168 168.162 272.427 170.667 282.852 172.427C282.913 171.968 282.887 171.664 282.791 171.517C280.252 167.876 278.398 163.992 277.22 159.874C261.024 158.826 244.888 156.979 228.814 154.335Z" fill="#4F61DB"/>
<path d="M183.376 159.324C182.957 156.972 184.077 154.805 185.877 154.485C187.677 154.164 189.475 155.811 189.894 158.163C190.313 160.515 189.193 162.681 187.393 163.002C185.594 163.323 183.795 161.676 183.376 159.324Z" fill="#4F61DB"/>
<path d="M220.336 158.834C220.105 157.082 221.053 155.513 222.453 155.329C223.853 155.144 225.174 156.415 225.405 158.166C225.635 159.918 224.688 161.487 223.288 161.672C221.888 161.856 220.566 160.586 220.336 158.834Z" fill="#4F61DB"/>
<path d="M228.231 156.61L227.867 158.188C243.508 165.097 260.545 170.368 278.976 173.983C281.221 174.425 282.902 174.486 284.037 174.165C283.474 172.752 283.075 172.171 282.859 172.431C272.434 170.671 262.174 168.166 252.079 164.915C244.063 162.323 236.117 159.558 228.231 156.61Z" fill="#1C1B1C"/>
<path d="M227.629 160.009C238.703 166.996 249.795 172.778 260.896 177.356C266.953 179.852 275.289 183.051 285.922 186.952C286.407 182.106 285.775 177.841 284.033 174.165C282.898 174.486 281.217 174.425 278.972 173.983C260.541 170.368 243.504 165.098 227.863 158.188L227.629 160.009Z" fill="#4F61DB"/>
<path d="M227.634 160.003C227.227 160.983 227.088 161.633 227.218 161.954C232.625 165.552 237.53 168.49 241.932 170.762C251.906 175.911 262.79 180.688 273.934 184.658C277.877 186.062 281.776 187.501 285.641 188.984C285.944 188.247 286.04 187.571 285.927 186.947C275.294 183.046 266.958 179.847 260.901 177.35C249.8 172.773 238.708 166.991 227.634 160.003Z" fill="#1C1B1C"/>
<path d="M140.531 169.968C142.437 167.194 143.391 164.064 143.391 160.579C131.943 163.11 124.014 164.81 119.595 165.676C113.347 166.89 105.54 167.974 96.1721 168.919C96.0075 168.936 95.8948 168.988 95.8168 169.066C95.7388 169.144 95.7042 169.257 95.7042 169.395C95.7128 169.751 95.8861 169.933 96.2067 169.933C110.851 169.898 125.626 169.907 140.531 169.968Z" fill="#4F61DB"/>
<path d="M213.771 164.952C212.636 164.952 211.717 164.033 211.717 162.898C211.717 161.763 212.636 160.843 213.771 160.843C214.905 160.843 215.824 161.763 215.824 162.898C215.824 164.033 214.905 164.952 213.771 164.952Z" fill="#E5D081"/>
<path d="M197.025 165.191C196.888 163.492 197.93 162.022 199.351 161.908C200.773 161.793 202.036 163.078 202.173 164.777C202.309 166.476 201.268 167.946 199.846 168.06C198.424 168.175 197.161 166.89 197.025 165.191Z" fill="#4F61DB"/>
<path d="M227.218 161.954L226.394 163.298C234.011 169.678 239.774 174.333 243.665 177.264C251.906 183.479 261.403 189.651 272.148 195.789C275.311 197.592 278.639 199.291 282.148 200.886C283.96 197.185 285.129 193.214 285.641 188.984C281.776 187.502 277.876 186.063 273.933 184.658C262.79 180.688 251.906 175.911 241.932 170.762C237.529 168.491 232.625 165.552 227.218 161.954Z" fill="#4F61DB"/>
<path d="M226.394 163.302C225.874 163.874 225.562 164.455 225.458 165.053C231.559 170.497 235.684 173.982 237.824 175.516C243.855 179.825 249.895 184.116 255.935 188.398C260.727 191.797 267.651 195.836 276.724 200.526C277.504 200.934 278.864 201.853 280.797 203.3L282.148 200.89C278.639 199.295 275.311 197.596 272.148 195.793C261.403 189.655 251.906 183.483 243.665 177.267C239.774 174.337 234.011 169.682 226.394 163.302Z" fill="#1C1B1C"/>
<path d="M225.457 165.049L223.828 168.04C229.105 175.521 233.897 181.937 238.195 187.277C247.086 198.312 257.641 207.9 269.859 216.04L272.138 211.792C272.199 211.688 272.268 211.593 272.355 211.515L280.795 203.297C278.863 201.849 277.502 200.93 276.722 200.523C267.649 195.833 260.726 191.793 255.933 188.395C249.894 184.112 243.854 179.821 237.823 175.513C235.682 173.978 231.557 170.493 225.457 165.049Z" fill="#4F61DB"/>
<path d="M222.701 169.499C227.883 177.856 234.157 185.276 240.483 192.81C243.889 196.876 247.121 200.3 250.163 203.1C256.116 208.57 262.424 213.581 269.105 218.115C269.773 217.551 270.024 216.858 269.859 216.043C257.641 207.902 247.086 198.315 238.195 187.279C233.897 181.939 229.105 175.524 223.828 168.042C223.325 168.242 222.953 168.727 222.701 169.499Z" fill="#1C1B1C"/>
<path d="M219.526 173.114C222.048 177.11 225.063 182.286 228.59 188.657C235.141 200.525 244.257 211.57 256.008 217.569C258.608 218.895 268.244 222.987 269.102 218.115C262.42 213.581 256.112 208.57 250.159 203.1C247.117 200.3 243.885 196.876 240.479 192.81C234.153 185.277 227.88 177.856 222.698 169.499L219.526 173.114Z" fill="#4F61DB"/>
<path d="M136.352 178.888L136.448 178.238C136.491 177.96 136.569 177.691 136.699 177.44L139.48 171.901C124.983 172.291 110.512 172.013 96.0748 171.051C95.8235 171.034 95.6068 171.216 95.5808 171.458L95.5722 171.493C95.5462 171.692 95.6761 171.875 95.8754 171.918C98.3191 172.473 101.17 173.071 103.258 173.34C118.328 175.316 129.229 176.799 135.962 177.778C136.352 177.83 136.482 178.203 136.352 178.888Z" fill="#4F61DB"/>
<path d="M188.6 177.225C188.135 175.402 188.89 173.636 190.286 173.28C191.682 172.924 193.19 174.113 193.655 175.936C194.119 177.76 193.365 179.526 191.969 179.882C190.573 180.238 189.064 179.049 188.6 177.225Z" fill="#4F61DB"/>
<path d="M134.096 186.462C135.127 184.46 135.751 182.18 135.959 179.64C122.345 178.357 108.879 176.319 95.5602 173.537C95.2483 173.467 94.9364 173.649 94.8324 173.953C94.737 174.256 94.8757 174.594 95.1703 174.724C104.503 178.981 114.278 182.214 124.494 184.416C127.571 185.084 130.777 185.76 134.096 186.462Z" fill="#4F61DB"/>
<path d="M200.547 181.524C205.157 188.329 210.235 194.796 215.789 200.943C215.833 196.79 215.035 193.002 213.406 189.56C210.954 184.393 208.276 179.105 205.356 173.705C203.285 176.21 201.682 178.819 200.547 181.524Z" fill="#4F61DB"/>
<path d="M126.492 191.754C129.169 191.242 131.327 189.994 132.965 188C119.412 185.902 106.57 181.889 94.4292 175.959C94.2645 175.881 94.1519 175.864 94.0826 175.89C94.0393 175.898 93.9266 175.95 93.7447 176.028C93.2767 176.228 93.1987 176.852 93.606 177.155C99.5072 181.533 105.946 185.009 112.913 187.575C117.367 189.214 121.89 190.61 126.492 191.754Z" fill="#4F61DB"/>
<path d="M103.792 189.391C107.284 190.691 110.273 191.662 112.769 192.295C116.209 193.17 119.606 193.17 122.951 192.312C121.504 192.026 120.1 191.731 118.731 191.428C117.319 191.116 115.949 190.726 114.624 190.258C106.669 187.458 99.5542 183.513 93.2804 178.442C92.8125 178.06 92.1365 178.069 91.6772 178.459L91.6426 178.485C91.2267 178.832 91.192 179.465 91.582 179.855C95.2735 183.557 99.3463 186.729 103.792 189.391Z" fill="#4F61DB"/>
<path d="M173.788 183.213C173.716 181.424 174.763 179.929 176.126 179.874C177.489 179.82 178.652 181.226 178.723 183.015C178.795 184.804 177.749 186.299 176.386 186.354C175.023 186.408 173.86 185.002 173.788 183.213Z" fill="url(#paint8_linear_147_1065)"/>
<path d="M200.545 181.52C199.739 182.638 199.41 183.288 199.557 183.471C204.315 190.744 209.679 197.393 215.667 203.418C216.022 202.057 216.057 201.233 215.788 200.939C210.233 194.792 205.155 188.325 200.545 181.52Z" fill="#1C1B1C"/>
<path d="M199.559 183.471L196.976 188.429C201.907 197.332 207.462 205.811 213.64 213.882C214.879 210.137 215.555 206.652 215.668 203.418C209.68 197.393 204.316 190.744 199.559 183.471Z" fill="#4F61DB"/>
<path d="M144.326 190.229C143.734 188.122 144.58 186.042 146.216 185.582C147.851 185.122 149.657 186.457 150.249 188.563C150.841 190.669 149.994 192.75 148.359 193.21C146.723 193.67 144.918 192.335 144.326 190.229Z" fill="#4F61DB"/>
<path d="M89.7238 190.435C89.396 188.968 90.1374 187.553 91.3798 187.276C92.6222 186.998 93.895 187.962 94.2228 189.429C94.5507 190.896 93.8093 192.311 92.5669 192.588C91.3245 192.866 90.0516 191.902 89.7238 190.435Z" fill="url(#paint9_linear_147_1065)"/>
<path d="M196.976 188.428C196.395 189.044 195.979 189.659 195.745 190.283C197.106 193.014 198.64 195.684 200.338 198.294C204.333 204.457 208.562 210.551 213.016 216.585C213.839 215.328 214.047 214.426 213.64 213.88C207.461 205.81 201.906 197.331 196.976 188.428Z" fill="#1C1B1C"/>
<path d="M191.506 197.193C196.922 207.275 203.144 216.725 210.189 225.55L213.014 216.586C208.56 210.552 204.331 204.458 200.336 198.294C198.638 195.685 197.104 193.015 195.743 190.284L191.506 197.193Z" fill="#4F61DB"/>
<path d="M170.635 194.314C170.351 193.043 170.98 191.82 172.04 191.583C173.1 191.346 174.19 192.184 174.474 193.455C174.758 194.726 174.129 195.949 173.069 196.186C172.008 196.423 170.919 195.585 170.635 194.314Z" fill="url(#paint10_linear_147_1065)"/>
<path d="M69.947 197.724C69.481 194.938 70.8901 192.38 73.0945 192.011C75.2988 191.642 77.4636 193.601 77.9296 196.388C78.3956 199.174 76.9865 201.731 74.7821 202.1C72.5778 202.469 70.4131 200.51 69.947 197.724Z" fill="#4F61DB"/>
<path d="M88.6317 198.762C88.5429 197.424 89.3922 196.278 90.5287 196.203C91.6653 196.127 92.6586 197.151 92.7474 198.488C92.8362 199.826 91.9869 200.971 90.8503 201.047C89.7138 201.122 88.7205 200.099 88.6317 198.762Z" fill="#A67FE2"/>
<path d="M191.502 197.199L189.821 199.444C190.211 199.314 190.453 199.349 190.566 199.539C196.225 209.327 202.542 218.923 209.509 228.329C210.245 226.656 210.471 225.728 210.185 225.555C203.14 216.73 196.918 207.281 191.502 197.199Z" fill="#1C1B1C"/>
<path d="M96.7744 202.583C96.5382 201.021 97.4056 199.594 98.7116 199.397C100.018 199.199 101.268 200.305 101.504 201.868C101.74 203.43 100.873 204.856 99.5669 205.054C98.2608 205.252 97.0106 204.145 96.7744 202.583Z" fill="url(#paint11_linear_147_1065)"/>
<path d="M189.826 199.444L183.76 208.104C189.522 217.735 195.605 226.994 201.992 235.862C203.439 237.865 205.051 239.85 206.845 241.826L209.514 228.329C202.547 218.923 196.229 209.326 190.571 199.539C190.458 199.348 190.216 199.314 189.826 199.444Z" fill="#4F61DB"/>
<path d="M148.216 207.689C147.882 205.25 149.068 203.074 150.865 202.828C152.662 202.582 154.39 204.359 154.724 206.797C155.057 209.235 153.871 211.411 152.074 211.657C150.277 211.904 148.55 210.127 148.216 207.689Z" fill="#4F61DB"/>
<path d="M125.384 211.238C124.907 208.226 126.437 205.48 128.8 205.106C131.164 204.731 133.466 206.87 133.943 209.882C134.42 212.894 132.891 215.64 130.527 216.014C128.164 216.388 125.861 214.25 125.384 211.238Z" fill="#4F61DB"/>
<path d="M183.755 208.103C183.287 208.883 182.767 209.446 182.204 209.793C182.663 210.079 183.062 210.521 183.382 211.119C189.699 222.649 197.394 233.91 206.476 244.911L206.84 241.825C205.046 239.848 203.434 237.863 201.987 235.861C195.601 226.992 189.517 217.734 183.755 208.103Z" fill="#E5D081"/>
<path d="M89.1598 211.2C88.846 210.02 89.4277 208.841 90.4591 208.567C91.4904 208.292 92.5809 209.026 92.8947 210.206C93.2085 211.386 92.6268 212.565 91.5955 212.839C90.5641 213.114 89.4737 212.38 89.1598 211.2Z" fill="url(#paint12_linear_147_1065)"/>
<path d="M182.206 209.789L179.831 213.655C179.095 214.505 178.401 215.381 177.769 216.282C177.067 217.296 176.98 218.345 177.517 219.429C186.382 237.261 197.639 253.515 211.287 268.209C210.923 266.536 210.048 263.641 208.661 259.523C207.353 255.605 206.625 250.733 206.478 244.907C197.396 233.906 189.701 222.645 183.384 211.115C183.063 210.517 182.665 210.075 182.206 209.789Z" fill="#4F61DB"/>
<path d="M75.2222 216.879C74.7529 214.796 75.7691 212.792 77.4919 212.404C79.2146 212.015 80.9916 213.389 81.4609 215.472C81.9301 217.555 80.914 219.559 79.1912 219.947C77.4684 220.336 75.6914 218.962 75.2222 216.879Z" fill="#4F61DB"/>
<path d="M90.4491 219.83C89.8009 218.836 89.9742 217.574 90.8362 217.011C91.6982 216.449 92.9224 216.8 93.5705 217.795C94.2187 218.789 94.0454 220.051 93.1834 220.614C92.3214 221.176 91.0972 220.825 90.4491 219.83Z" fill="#E5D081"/>
<g filter="url(#filter5_d_147_1065)">
<path d="M111.609 226.209C111.013 223.453 112.411 220.811 114.732 220.31C117.052 219.808 119.416 221.635 120.011 224.392C120.607 227.148 119.209 229.789 116.889 230.291C114.569 230.793 112.205 228.965 111.609 226.209Z" fill="#FFF9E2"/>
</g>
<path d="M228.951 298.633C223.284 291.126 218.57 283.532 214.818 275.851C210.485 271.17 206.395 266.48 202.539 261.772C192.183 249.116 183.474 235.679 176.421 221.462C176.36 221.332 176.169 221.358 176.143 221.496C174.93 228.596 175.987 235.393 179.324 241.868C184.913 252.757 192.625 262.726 200.364 271.516C204.376 276.076 210.407 282.257 218.449 290.051C221.915 293.414 225.416 296.275 228.951 298.633Z" fill="#4F61DB"/>
<path d="M83.9459 229.782C83.296 240.679 84.2232 251.697 88.2267 261.658C93.4694 274.688 101.762 286.295 112.022 295.953C112.898 296.776 113.807 297.322 114.752 297.582C111.52 293.569 107.984 288.289 104.137 281.753C100.982 276.395 98.6687 271.844 97.2042 268.099C92.9841 257.35 90.1332 245.629 88.634 232.938L83.9459 229.782Z" fill="#4F61DB"/>
<path d="M88.6364 232.938C90.1356 245.629 92.9865 257.35 97.2067 268.099C98.6711 271.844 100.985 276.396 104.139 281.753C107.987 288.289 111.522 293.569 114.754 297.583C115.76 298.978 116.938 299.256 118.281 298.406C106.505 284.501 98.3505 268.732 93.8357 251.1C92.8652 247.311 91.834 241.607 90.7508 233.987L88.6364 232.938Z" fill="#1C1B1C"/>
<g filter="url(#filter6_d_147_1065)">
<path d="M135.428 238.325C134.944 236.161 136.056 234.071 137.91 233.657C139.764 233.242 141.659 234.66 142.142 236.823C142.626 238.987 141.514 241.076 139.66 241.491C137.806 241.906 135.911 240.488 135.428 238.325Z" fill="#FFF9E2"/>
</g>
<path d="M156.066 236.795C160.027 245.924 162.748 251.923 164.221 254.801C168.129 262.481 173.458 271.124 180.191 280.721C185.217 284.111 190.833 286.963 197.037 289.295C194.186 285.853 191.387 282.481 188.64 279.169C186.196 276.213 184.325 273.742 183.025 271.757C180.746 268.281 178.545 265.715 175.954 261.545C170.321 252.495 165.035 243.21 160.105 233.683C158.467 234.576 157.124 235.608 156.066 236.795Z" fill="#4F61DB"/>
<path d="M90.7501 233.986C91.8333 241.606 92.8645 247.31 93.835 251.099C98.3497 268.732 106.504 284.5 118.28 298.405C119.199 297.539 119.32 296.178 118.644 294.314C116.998 289.788 115.49 285.428 114.121 281.224C109.918 275.563 106.4 269.659 103.558 263.513C99.5629 254.844 96.4346 245.88 94.1729 236.613C94.0949 236.301 93.8957 236.032 93.6184 235.876C92.5525 235.278 91.738 234.602 91.1747 233.856C91.218 233.7 91.0794 233.744 90.7501 233.986Z" fill="#4F61DB"/>
<path d="M163.447 234.154L166.073 240.927C166.149 241.123 166.052 241.344 165.855 241.42L165.775 241.452C165.578 241.528 165.357 241.43 165.281 241.234L162.655 234.461C162.579 234.264 162.677 234.043 162.873 233.967L162.954 233.936C163.15 233.86 163.371 233.957 163.447 234.154Z" fill="#173568"/>
<path d="M154.408 238.272C160.101 252.437 167.094 265.597 175.369 277.759C177.016 279.484 178.619 280.473 180.188 280.724C173.454 271.128 168.125 262.485 164.217 254.804C162.744 251.926 160.023 245.927 156.063 236.798C155.517 237.613 154.962 238.107 154.408 238.272Z" fill="#E5D081"/>
<path d="M113.037 274.847C112.517 271.388 112.63 268.475 113.375 266.1C107.664 257.864 103.063 248.762 99.5795 238.801C99.4495 238.429 99.1548 238.134 98.7909 237.995L96.4685 237.137C96.2952 237.076 96.1219 237.232 96.1739 237.414C98.2016 244.323 99.3195 249.75 101.859 255.246C105.949 264.141 108.488 270.772 112.257 274.7C112.335 274.778 112.448 274.812 112.552 274.778C112.699 274.726 112.864 274.752 113.037 274.847Z" fill="#4F61DB"/>
<path d="M148.38 242.04C148.943 243.418 149.437 244.805 149.879 246.201C150.468 248.047 150.98 249.426 151.404 250.336C153.441 254.662 155.373 259.039 157.219 263.452C157.297 263.643 157.158 263.859 156.95 263.859C156.855 263.868 156.733 263.842 156.603 263.781L175.373 277.756C167.097 265.593 160.104 252.434 154.411 238.269L148.38 242.04Z" fill="#4F61DB"/>
<path d="M104.424 246.598L106.738 246.286C107.006 246.251 107.266 246.372 107.414 246.598C108.532 248.34 108.159 249.736 106.296 250.776L117.57 269.042C119.034 270.385 120.759 271.599 122.76 272.691C123.705 273.203 125.117 273.61 126.98 273.905C127.899 274.052 128.618 273.134 128.263 272.267C127.934 271.478 127.076 270.273 125.681 268.634C118.896 260.685 113.774 252.423 110.308 243.85C110.091 243.304 109.788 242.705 109.407 242.055C109.303 242.151 108.973 242.029 108.428 241.7C108.41 241.76 108.341 241.812 108.22 241.865C108.142 241.899 108.055 241.899 107.977 241.873L102.5 239.628C102.318 239.55 102.128 239.732 102.188 239.923L104.424 246.598Z" fill="#4F61DB"/>
<path d="M148.373 242.041C146.918 242.604 146.259 243.237 146.406 243.956C146.614 244.503 146.796 244.789 146.952 244.815C149.439 248.274 151.042 252.114 151.753 256.318L155.228 262.751L156.597 263.782C156.727 263.843 156.848 263.869 156.944 263.86C157.152 263.86 157.29 263.644 157.212 263.453C155.367 259.04 153.434 254.663 151.398 250.337C150.973 249.427 150.462 248.048 149.873 246.202C149.431 244.806 148.937 243.419 148.373 242.041Z" fill="#1C1B1C"/>
<path d="M144.78 245.762L150.612 259.615C151.782 261.115 153.324 262.155 155.23 262.754L151.756 256.321C149.563 252.758 147.96 248.918 146.955 244.817C146.799 244.791 146.617 244.505 146.409 243.959C146.158 243.881 145.941 243.855 145.742 243.864C145.508 243.873 145.334 243.994 145.213 244.219C145.014 244.592 144.867 245.104 144.78 245.762Z" fill="#E5D081"/>
<path d="M133.068 247.139C138.527 251.673 144.376 255.826 150.615 259.614L144.783 245.761C144.809 245.284 144.705 244.877 144.463 244.556C144.298 244.33 144.012 244.235 143.743 244.304L133.068 247.139Z" fill="#4F61DB"/>
<path d="M146.959 244.817C147.964 248.918 149.567 252.758 151.76 256.321C151.049 252.117 149.446 248.276 146.959 244.817Z" fill="#4F61DB"/>
<path d="M201.561 291.211C204.637 293.162 208.052 295.129 211.821 297.106C217.185 299.915 222.402 301.935 227.471 303.157C228.225 303.339 228.962 303.278 229.689 302.975C220.166 294.809 211.111 286.131 202.523 276.942C193.251 267.025 185.98 257.107 179.421 246.08C179.299 245.872 178.979 245.976 179.005 246.219C179.299 249.383 179.759 252.565 180.391 255.764C182.142 264.658 192.246 271.541 194.282 278.606C194.36 278.858 194.299 279.118 194.109 279.395C193.866 279.759 193.39 279.846 193.086 279.586C192.246 278.858 191.422 278.19 190.617 277.575C190.513 277.497 190.365 277.505 190.27 277.601C190.183 277.696 190.175 277.843 190.261 277.947L201.561 291.211Z" fill="#4F61DB"/>
<path d="M104.428 246.598L106.3 250.777C108.163 249.736 108.536 248.341 107.418 246.598C107.271 246.373 107.011 246.251 106.742 246.286L104.428 246.598Z" fill="#A67FE2"/>
<path d="M53.4141 140.517C53.4141 148.364 47.0527 154.725 39.2054 154.725C31.3582 154.725 24.9997 148.364 24.9997 140.517C24.9997 132.67 31.361 126.311 39.2054 126.311C47.0527 126.311 53.4141 132.672 53.4141 140.517Z" fill="#BBAC45"/>
<path d="M44.3817 135.496C44.1402 135.923 44.0464 135.977 44.2908 135.491C43.8362 136.389 43.6061 137.244 43.0123 138.079C42.6543 138.579 42.2878 138.994 41.8588 139.417C41.7309 139.542 40.6712 140.477 41.4042 139.767C41.6713 139.505 41.7139 139.082 41.4383 139.801C41.6457 139.261 41.4383 138.917 41.5406 139.679C41.2707 137.718 39.5944 136.633 37.6226 136.954C40.5575 136.477 42.9128 137.332 44.6118 139.798C44.6175 139.806 44.626 139.818 44.6317 139.826C42.8531 139.102 41.0746 138.38 39.296 137.656C39.8074 137.542 39.8444 137.57 39.4069 137.744C41.6229 136.67 44.3391 137.508 45.0494 140.039C45.1971 140.508 45.2795 140.988 45.2937 141.486C45.3363 142.068 45.3164 142 45.234 141.278C46.5012 144.457 43.822 147.986 40.9127 148.89C34.361 150.924 28.0905 145.207 28.3945 138.59C28.5394 135.451 30.0594 132.488 32.3863 130.405C34.2331 128.754 36.3782 127.763 38.887 128.044C40.2933 128.203 41.4326 128.695 42.7395 129.246C45.0437 130.218 45.4699 133.567 44.3817 135.496Z" fill="#2E1628"/>
<path d="M38.3104 151.663C40.1855 149.234 43.5579 149.393 45.3962 147.092C48.3396 143.407 47.6492 138.054 46.203 133.946C45.7058 132.537 48.0527 131.514 48.6465 132.914C50.354 136.943 50.5841 141.566 48.9078 145.668C48.3083 147.132 47.4958 148.529 46.2428 149.527C44.2086 151.143 41.322 150.805 39.3502 152.464C38.8218 152.905 37.8188 152.302 38.3104 151.663Z" fill="#DFCD71"/>
<defs>
<filter id="filter0_d_147_1065" x="123.848" y="100.399" width="17.2129" height="17.7803" filterUnits="userSpaceOnUse" color-interpolation-filters="sRGB">
<feFlood flood-opacity="0" result="BackgroundImageFix"/>
<feColorMatrix in="SourceAlpha" type="matrix" values="0 0 0 0 0 0 0 0 0 0 0 0 0 0 0 0 0 0 127 0" result="hardAlpha"/>
<feOffset/>
<feGaussianBlur stdDeviation="3"/>
<feComposite in2="hardAlpha" operator="out"/>
<feColorMatrix type="matrix" values="0 0 0 0 1 0 0 0 0 0.8 0 0 0 0 0.372549 0 0 0 0.66 0"/>
<feBlend mode="normal" in2="BackgroundImageFix" result="effect1_dropShadow_147_1065"/>
<feBlend mode="normal" in="SourceGraphic" in2="effect1_dropShadow_147_1065" result="shape"/>
</filter>
<filter id="filter1_d_147_1065" x="56.0898" y="105.347" width="18.6035" height="19.0386" filterUnits="userSpaceOnUse" color-interpolation-filters="sRGB">
<feFlood flood-opacity="0" result="BackgroundImageFix"/>
<feColorMatrix in="SourceAlpha" type="matrix" values="0 0 0 0 0 0 0 0 0 0 0 0 0 0 0 0 0 0 127 0" result="hardAlpha"/>
<feOffset/>
<feGaussianBlur stdDeviation="3"/>
<feComposite in2="hardAlpha" operator="out"/>
<feColorMatrix type="matrix" values="0 0 0 0 1 0 0 0 0 0.8 0 0 0 0 0.372549 0 0 0 0.66 0"/>
<feBlend mode="normal" in2="BackgroundImageFix" result="effect1_dropShadow_147_1065"/>
<feBlend mode="normal" in="SourceGraphic" in2="effect1_dropShadow_147_1065" result="shape"/>
</filter>
<filter id="filter2_d_147_1065" x="103.631" y="106.961" width="20.5215" height="22.1226" filterUnits="userSpaceOnUse" color-interpolation-filters="sRGB">
<feFlood flood-opacity="0" result="BackgroundImageFix"/>
<feColorMatrix in="SourceAlpha" type="matrix" values="0 0 0 0 0 0 0 0 0 0 0 0 0 0 0 0 0 0 127 0" result="hardAlpha"/>
<feOffset/>
<feGaussianBlur stdDeviation="3"/>
<feComposite in2="hardAlpha" operator="out"/>
<feColorMatrix type="matrix" values="0 0 0 0 1 0 0 0 0 0.8 0 0 0 0 0.372549 0 0 0 0.66 0"/>
<feBlend mode="normal" in2="BackgroundImageFix" result="effect1_dropShadow_147_1065"/>
<feBlend mode="normal" in="SourceGraphic" in2="effect1_dropShadow_147_1065" result="shape"/>
</filter>
<filter id="filter3_d_147_1065" x="100.377" y="126.727" width="18.8555" height="20.2061" filterUnits="userSpaceOnUse" color-interpolation-filters="sRGB">
<feFlood flood-opacity="0" result="BackgroundImageFix"/>
<feColorMatrix in="SourceAlpha" type="matrix" values="0 0 0 0 0 0 0 0 0 0 0 0 0 0 0 0 0 0 127 0" result="hardAlpha"/>
<feOffset/>
<feGaussianBlur stdDeviation="3"/>
<feComposite in2="hardAlpha" operator="out"/>
<feColorMatrix type="matrix" values="0 0 0 0 1 0 0 0 0 0.8 0 0 0 0 0.372549 0 0 0 0.66 0"/>
<feBlend mode="normal" in2="BackgroundImageFix" result="effect1_dropShadow_147_1065"/>
<feBlend mode="normal" in="SourceGraphic" in2="effect1_dropShadow_147_1065" result="shape"/>
</filter>
<filter id="filter4_d_147_1065" x="178.361" y="133.039" width="19.8867" height="21.085" filterUnits="userSpaceOnUse" color-interpolation-filters="sRGB">
<feFlood flood-opacity="0" result="BackgroundImageFix"/>
<feColorMatrix in="SourceAlpha" type="matrix" values="0 0 0 0 0 0 0 0 0 0 0 0 0 0 0 0 0 0 127 0" result="hardAlpha"/>
<feOffset/>
<feGaussianBlur stdDeviation="3"/>
<feComposite in2="hardAlpha" operator="out"/>
<feColorMatrix type="matrix" values="0 0 0 0 1 0 0 0 0 0.8 0 0 0 0 0.372549 0 0 0 0.66 0"/>
<feBlend mode="normal" in2="BackgroundImageFix" result="effect1_dropShadow_147_1065"/>
<feBlend mode="normal" in="SourceGraphic" in2="effect1_dropShadow_147_1065" result="shape"/>
</filter>
<filter id="filter5_d_147_1065" x="105.473" y="214.227" width="20.6758" height="22.1475" filterUnits="userSpaceOnUse" color-interpolation-filters="sRGB">
<feFlood flood-opacity="0" result="BackgroundImageFix"/>
<feColorMatrix in="SourceAlpha" type="matrix" values="0 0 0 0 0 0 0 0 0 0 0 0 0 0 0 0 0 0 127 0" result="hardAlpha"/>
<feOffset/>
<feGaussianBlur stdDeviation="3"/>
<feComposite in2="hardAlpha" operator="out"/>
<feColorMatrix type="matrix" values="0 0 0 0 1 0 0 0 0 0.8 0 0 0 0 0.372549 0 0 0 0.66 0"/>
<feBlend mode="normal" in2="BackgroundImageFix" result="effect1_dropShadow_147_1065"/>
<feBlend mode="normal" in="SourceGraphic" in2="effect1_dropShadow_147_1065" result="shape"/>
</filter>
<filter id="filter6_d_147_1065" x="129.314" y="227.585" width="18.9414" height="19.978" filterUnits="userSpaceOnUse" color-interpolation-filters="sRGB">
<feFlood flood-opacity="0" result="BackgroundImageFix"/>
<feColorMatrix in="SourceAlpha" type="matrix" values="0 0 0 0 0 0 0 0 0 0 0 0 0 0 0 0 0 0 127 0" result="hardAlpha"/>
<feOffset/>
<feGaussianBlur stdDeviation="3"/>
<feComposite in2="hardAlpha" operator="out"/>
<feColorMatrix type="matrix" values="0 0 0 0 1 0 0 0 0 0.8 0 0 0 0 0.372549 0 0 0 0.66 0"/>
<feBlend mode="normal" in2="BackgroundImageFix" result="effect1_dropShadow_147_1065"/>
<feBlend mode="normal" in="SourceGraphic" in2="effect1_dropShadow_147_1065" result="shape"/>
</filter>
<linearGradient id="paint0_linear_147_1065" x1="131.449" y1="74.7563" x2="131.449" y2="247.139" gradientUnits="userSpaceOnUse">
<stop stop-color="#ABCCFC"/>
<stop offset="1" stop-color="#7EA8E6"/>
</linearGradient>
<linearGradient id="paint1_linear_147_1065" x1="45.7535" y1="79.8359" x2="45.7535" y2="233.988" gradientUnits="userSpaceOnUse">
<stop stop-color="#ABCCFC"/>
<stop offset="1" stop-color="#7EA8E6"/>
</linearGradient>
<linearGradient id="paint2_linear_147_1065" x1="190.709" y1="95.2573" x2="190.709" y2="213.658" gradientUnits="userSpaceOnUse">
<stop stop-color="#ABCCFC"/>
<stop offset="1" stop-color="#7EA8E6"/>
</linearGradient>
<linearGradient id="paint3_linear_147_1065" x1="87.5219" y1="104.185" x2="87.5083" y2="111.953" gradientUnits="userSpaceOnUse">
<stop stop-color="#ABCCFC"/>
<stop offset="1" stop-color="#7EA8E6"/>
</linearGradient>
<linearGradient id="paint4_linear_147_1065" x1="96.1364" y1="115.154" x2="92.0898" y2="115.422" gradientUnits="userSpaceOnUse">
<stop stop-color="#ABCCFC"/>
<stop offset="1" stop-color="#7EA8E6"/>
</linearGradient>
<linearGradient id="paint5_linear_147_1065" x1="88.8378" y1="121.685" x2="84.4916" y2="122.939" gradientUnits="userSpaceOnUse">
<stop stop-color="#ABCCFC"/>
<stop offset="1" stop-color="#7EA8E6"/>
</linearGradient>
<linearGradient id="paint6_linear_147_1065" x1="222.473" y1="128.199" x2="222.473" y2="173.113" gradientUnits="userSpaceOnUse">
<stop stop-color="#ABCCFC"/>
<stop offset="1" stop-color="#7EA8E6"/>
</linearGradient>
<linearGradient id="paint7_linear_147_1065" x1="91.8265" y1="130.473" x2="88.8744" y2="132.009" gradientUnits="userSpaceOnUse">
<stop stop-color="#ABCCFC"/>
<stop offset="1" stop-color="#7EA8E6"/>
</linearGradient>
<linearGradient id="paint8_linear_147_1065" x1="178.723" y1="183.015" x2="173.788" y2="183.213" gradientUnits="userSpaceOnUse">
<stop stop-color="#ABCCFC"/>
<stop offset="1" stop-color="#7EA8E6"/>
</linearGradient>
<linearGradient id="paint9_linear_147_1065" x1="94.2228" y1="189.429" x2="89.7236" y2="190.434" gradientUnits="userSpaceOnUse">
<stop stop-color="#ABCCFC"/>
<stop offset="1" stop-color="#7EA8E6"/>
</linearGradient>
<linearGradient id="paint10_linear_147_1065" x1="174.474" y1="193.455" x2="170.635" y2="194.313" gradientUnits="userSpaceOnUse">
<stop stop-color="#ABCCFC"/>
<stop offset="1" stop-color="#7EA8E6"/>
</linearGradient>
<linearGradient id="paint11_linear_147_1065" x1="101.504" y1="201.868" x2="96.7743" y2="202.583" gradientUnits="userSpaceOnUse">
<stop stop-color="#ABCCFC"/>
<stop offset="1" stop-color="#7EA8E6"/>
</linearGradient>
<linearGradient id="paint12_linear_147_1065" x1="92.8947" y1="210.206" x2="89.1597" y2="211.199" gradientUnits="userSpaceOnUse">
<stop stop-color="#ABCCFC"/>
<stop offset="1" stop-color="#7EA8E6"/>
</linearGradient>
</defs>
</svg>
