<svg width="356" height="251" viewBox="0 0 356 251" fill="none" xmlns="http://www.w3.org/2000/svg">
<g filter="url(#filter0_d_50_35019)">
<path d="M229.076 4.74599C247.252 2.80573 261.119 4.69455 278.405 9.89632C281.376 10.7489 282.029 10.3757 283.67 12.4801C283.449 15.0066 281.662 16.5231 279.931 18.5727C275.124 27.9809 268.758 37.7621 264.285 47.1605C251.545 73.8749 240.07 106.867 249.088 136.446C251.284 143.66 254.263 148.148 257.797 154.447C260.866 157.556 266.024 163.127 269.419 165.45L269.158 165.826L276.463 169.222C274.896 170.848 271.753 174.335 269.999 175.386C241.588 187.786 250.019 217.697 261.225 238.937C255.234 239.067 251.676 239.019 245.652 238.569C242.698 238.137 239.564 237.843 236.585 237.516C231.794 236.316 227.419 235.205 222.538 234.331L218.89 233.213C215.772 232.331 213.405 231.473 210.149 231.416L208.296 230.371C204.493 229.17 200.714 227.888 196.968 226.524L195.67 226.067C176.106 219.338 157.343 210.462 139.722 199.601C121.676 188.507 113.408 180.896 92.8082 173.206C79.1945 168.082 64.9768 164.732 50.5143 163.238C42.5566 162.381 11.0688 161.684 8 154.619C9.26506 147.93 20.0221 145.662 25.5966 143.871C35.2845 140.757 45.3316 139.315 55.0032 136.326C81.8144 128.04 94.3753 111.942 110.862 91.6344L113.049 88.3598C116.787 78.9558 139.583 49.8006 149.124 42.6169L151.621 40.1009C155.294 36.1894 161.032 32.3162 165.627 29.6042L169.022 27.2761C172.597 24.8614 175.094 23.5091 178.939 21.5035L183.917 18.7728C187.769 16.5386 192.944 14.5485 197.131 12.7928L200.804 11.3466C207.619 8.91313 214.662 7.19335 221.828 6.21342C223.861 5.62057 226.913 5.15184 229.076 4.74599Z" fill="#B0ADA3"/>
<path d="M278.406 9.89633C281.376 10.7489 282.029 10.3757 283.67 12.4801C283.45 15.0066 281.662 16.5231 279.932 18.5728C275.125 27.9809 268.758 37.7622 264.286 47.1605C251.545 73.8749 240.07 106.867 249.089 136.446C251.284 143.66 254.263 148.148 257.797 154.447C260.866 157.556 266.024 163.127 269.419 165.45L269.158 165.826C254.647 163.295 244.094 163.949 229.794 163.097C223.787 162.739 213.92 159.166 210.549 153.865C204.591 144.488 212.957 146.947 213.969 139.775C210.859 133.935 207.366 135.489 202.061 133.053C189.125 127.106 204.322 114.231 207.48 107.107C206.942 100.151 201.335 102.266 196.095 96.4777C190.888 85.1114 211.48 79.8296 215.038 70.2214C215.218 66.5818 213.079 64.5607 210.974 61.0411C210.916 53.0302 221.616 51.4272 227.166 46.8069C229.876 44.5506 231.231 42.4887 233.19 39.6118C218.744 14.524 263.804 18.0902 277.647 10.3292L278.406 9.89633Z" fill="white"/>
<path d="M231.337 142.823C233.141 132.753 235.491 129.472 227.313 120.764C217.25 110.046 237.018 98.7838 228.432 89.6901C218.482 79.1527 235.981 73.9958 237.948 66.2822C237.548 60.6639 231.419 60.2679 233.353 54.1793C235.981 45.8842 249.448 48.0457 251.407 39.5873C252.713 33.9283 245.228 34.2778 247.081 27.9295C253.023 20.9075 269.509 20.954 279.932 18.5728C275.125 27.9809 268.759 37.7622 264.286 47.1605C251.546 73.8749 240.07 106.867 249.089 136.446C251.284 143.66 254.263 148.148 257.797 154.447C247.807 153.928 238.601 149.603 231.337 142.823Z" fill="#7D8491"/>
<path d="M221.828 6.21341C223.861 5.62055 226.913 5.15182 229.076 4.74597C217.641 16.9836 211.071 28.4038 206.093 44.1839C204.877 48.0375 201.31 60.623 199.506 63.4158C186.26 83.9403 180.163 104.144 173.699 127.515C172.173 133.053 168.883 143.13 162.795 145.087C149.499 138.583 165.26 101.658 171.569 91.8597C191.279 61.2297 199.767 50.1574 197.131 12.7928L200.804 11.3466C207.619 8.91311 214.662 7.19333 221.828 6.21341Z" fill="#9A9086"/>
<path d="M200.804 11.3466C207.619 8.91313 214.662 7.19335 221.828 6.21342C205.815 24.9374 204.819 36.2294 198.127 58.7309C195.376 67.9643 185.827 79.6328 182.375 89.0899C176.694 99.9621 170.14 136.329 162.893 139.314C161.203 137.666 161.179 136.368 161.138 133.707C160.55 98.1101 192.169 77.0147 199.359 43.694C201.808 32.3456 201.089 22.7097 200.804 11.3466Z" fill="#B0ADA3"/>
<path d="M222.539 234.331C209.055 215.386 212.916 185.483 230.79 171.122C231.402 170.63 232.047 170.706 232.839 170.593C233.949 173.622 233.451 178.791 233.124 182.055C230.978 203.055 228.529 216.635 239.833 236.414C238.397 237.426 238.364 237.287 236.585 237.516C231.794 236.316 227.419 235.205 222.539 234.331Z" fill="#B0ADA3"/>
<path d="M178.939 21.5035C176.376 33.6072 175.29 44.5824 173.119 56.2027C170.157 72.0514 160.061 89.646 151.475 103.015C148.814 107.171 141.338 120.112 137.951 123.384L136.93 122.718C135.763 116.872 139.689 104.307 142.187 98.9871C154.364 73.0672 170.206 58.1961 169.022 27.2761C172.597 24.8614 175.095 23.5091 178.939 21.5035Z" fill="#B0ADA3"/>
<path d="M113.049 88.3598C116.787 78.9558 139.583 49.8005 149.124 42.6169C143.558 65.4728 130.107 82.3136 122.444 104.214C121.35 107.33 119.007 114.177 115.914 115.536C108.422 109.984 113.825 95.3075 113.049 88.3598Z" fill="#B0ADA3"/>
<path d="M178.939 21.5036L183.917 18.7729C180.032 30.8203 178.775 42.2731 176.066 54.3507C171.552 74.4931 161.497 93.8377 149.973 110.802C146.594 115.77 143.06 123.895 137.893 126.88L136.147 126.679C124.769 110.63 165.529 62.0064 165.863 43.4842C165.929 39.5555 167.912 33.3607 165.627 29.6043L169.022 27.2762C170.205 58.1961 154.364 73.0673 142.186 98.9872C139.689 104.307 135.763 116.872 136.93 122.718L137.95 123.384C141.338 120.112 148.814 107.171 151.474 103.015C160.06 89.646 170.157 72.0515 173.119 56.2028C175.29 44.5825 176.376 33.6073 178.939 21.5036Z" fill="#9A9086"/>
<path d="M218.89 233.213C217.38 230.485 215.046 226.435 214.213 223.291C209.382 205.015 213.862 179.36 230.431 168.19C231.271 167.627 232.455 167.573 233.418 167.545C234.944 168.582 236.095 169.599 236.103 171.614C236.233 197.902 226.807 214.561 245.652 238.569C242.697 238.137 239.563 237.843 236.584 237.516C238.364 237.287 238.396 237.426 239.833 236.414C228.529 216.635 230.977 203.055 233.124 182.055C233.45 178.791 233.948 173.622 232.838 170.593C232.047 170.706 231.402 170.63 230.79 171.122C212.915 185.483 209.055 215.386 222.538 234.331L218.89 233.213Z" fill="#9A9086"/>
<path d="M196.967 226.524C195.817 216.619 194.086 194.783 203.423 188.365L204.754 188.56C205.619 191.522 205.268 204.149 205.464 208.494C205.839 215.851 206.786 223.16 208.296 230.371C204.493 229.17 200.714 227.888 196.967 226.524Z" fill="#B0ADA3"/>
<path d="M149.124 42.6169L151.621 40.1009C151.27 43.952 150.487 47.2772 149.075 50.8825C147.385 55.1656 118.958 115.033 118.15 115.809C116.999 116.912 116.338 116.539 114.861 116.406C107.874 111.6 111.678 98.1575 110.862 91.6344L113.049 88.3598C113.824 95.3075 108.421 109.984 115.914 115.536C119.007 114.177 121.349 107.33 122.443 104.214C130.107 82.3137 143.557 65.4729 149.124 42.6169Z" fill="#9A9086"/>
<path d="M195.671 226.067C193.744 212.25 193.059 199.609 201.498 187.182C202.543 185.652 202.388 185.99 204.061 185.266C209.178 189.816 206.24 204.264 206.787 210.74C207.374 217.795 208.786 224.491 210.149 231.416L208.297 230.371C206.787 223.16 205.84 215.851 205.465 208.494C205.269 204.15 205.62 191.522 204.754 188.56L203.424 188.365C194.087 194.783 195.818 216.619 196.968 226.524L195.671 226.067Z" fill="#9A9086"/>
<path d="M145.32 162.187C154.004 162.344 182.285 162.628 186.308 170.403C186.129 174.109 181.909 179.165 179.681 182.217C173.38 190.875 185.084 199.193 179.346 207.391C160.02 201.961 142.774 185.203 133.004 167.993C132.156 166.488 132.833 164.847 133.527 163.561C136.587 162.295 141.844 162.34 145.32 162.187Z" fill="#684336"/>
<path d="M138.072 165.455C145.173 164.922 165.479 165.004 170.287 170.014C170.221 172.561 166.116 177.037 164.255 179.484C164.867 182.913 165.904 186.793 166.745 190.218L166.026 192.251C157.995 194.588 135.991 173.992 136.611 166.445L138.072 165.455Z" fill="white"/>
<path d="M94.4569 132.224C100.048 130.263 106.161 133.182 108.16 138.759C110.152 144.336 107.271 150.477 101.713 152.507C96.0974 154.555 89.8945 151.643 87.8868 146.017C85.8708 140.391 88.8253 134.202 94.4569 132.224Z" fill="white"/>
<path d="M95.0283 134.552C98.848 133.867 102.512 136.392 103.231 140.209C103.941 144.027 101.451 147.709 97.64 148.458C93.7877 149.216 90.0578 146.685 89.3314 142.822C88.605 138.96 91.1596 135.246 95.0283 134.552Z" fill="#232323"/>
<path d="M92.2458 137.779C93.5598 136.75 95.4533 136.975 96.4898 138.282C97.5182 139.589 97.2978 141.486 96.0001 142.525C94.6861 143.57 92.7844 143.35 91.7397 142.036C90.7032 140.722 90.9317 138.814 92.2458 137.779Z" fill="#FDFDFD"/>
<path d="M269.419 165.45C270.897 164.073 272.88 161.705 274.284 160.148C289.334 143.479 311.55 134.023 333.905 139.579C337.774 140.541 345.658 141.708 348 144.871L346.205 145.638C335.317 153.505 312.75 165.046 300.262 171.585C309.991 176.238 335.872 188.483 343.919 194.094L345.968 194.719L346.025 195.472C340.149 198.376 323.597 199.764 316.782 199.225C296.059 197.59 283.311 190.515 269.999 175.386C271.754 174.335 274.896 170.848 276.463 169.223L269.158 165.826L269.419 165.45Z" fill="#7D8491"/>
<path d="M290.501 171.302C300.883 158.623 329.636 145.506 346.205 145.638C335.317 153.504 312.75 165.046 300.262 171.585C309.991 176.238 335.872 188.483 343.919 194.094C343.16 194.127 342.05 194.195 341.308 194.071C322.234 190.894 303.143 186.779 290.501 171.302Z" fill="#684336"/>
</g>
<defs>
<filter id="filter0_d_50_35019" x="0" y="0" width="356" height="251" filterUnits="userSpaceOnUse" color-interpolation-filters="sRGB">
<feFlood flood-opacity="0" result="BackgroundImageFix"/>
<feColorMatrix in="SourceAlpha" type="matrix" values="0 0 0 0 0 0 0 0 0 0 0 0 0 0 0 0 0 0 127 0" result="hardAlpha"/>
<feOffset dy="4"/>
<feGaussianBlur stdDeviation="4"/>
<feComposite in2="hardAlpha" operator="out"/>
<feColorMatrix type="matrix" values="0 0 0 0 0 0 0 0 0 0 0 0 0 0 0 0 0 0 0.15 0"/>
<feBlend mode="normal" in2="BackgroundImageFix" result="effect1_dropShadow_50_35019"/>
<feBlend mode="normal" in="SourceGraphic" in2="effect1_dropShadow_50_35019" result="shape"/>
</filter>
</defs>
</svg>
