<svg width="351" height="214" viewBox="0 0 351 214" fill="none" xmlns="http://www.w3.org/2000/svg">
<path d="M86.8193 155.136C84.0959 159.887 94.1488 173.01 105.663 179.832C119.994 188.323 129.416 182.805 148.328 193.158C157.208 198.019 161.673 202.818 162.905 201.686C164.855 199.893 156.577 185.173 145.128 174.502C123.728 154.555 90.748 148.282 86.8193 155.136Z" fill="#F57E85"/>
<path d="M98.9973 154.143C97.5894 156.632 107.389 164.67 115.77 171.544C124.983 179.101 127.645 179.479 148.328 193.157C159.112 200.288 161.967 202.552 162.905 201.685C164.899 199.844 156.65 185.325 145.128 174.501C126.588 157.086 101.008 150.589 98.9973 154.143Z" fill="#EC6068"/>
<path d="M170.646 202.965C164.968 197.456 158.735 193.221 152.121 190.378C148.491 188.817 145.937 188.163 143.466 187.53C141.414 187.005 139.537 186.517 137.267 185.573C136 184.938 134.664 184.29 133.242 183.614C128.686 181.094 125.373 178.332 118.792 172.846C116.307 170.773 114.641 169.273 113.172 167.949C112.238 167.108 111.389 166.346 110.485 165.577C110.318 165.374 110.15 165.17 109.992 164.973C104.647 158.341 100.63 151.449 98.1587 152.343C96.918 152.793 96.554 155.027 96.4471 156.349C95.6849 155.959 94.9233 155.565 94.1499 155.201C94.1335 155.193 94.116 155.195 94.0992 155.189C94.0426 155.166 93.9848 155.157 93.9245 155.146C93.8705 155.136 93.8183 155.124 93.7643 155.125C93.7118 155.126 93.6611 155.139 93.6082 155.149C93.5471 155.161 93.4886 155.173 93.4316 155.198C93.4156 155.204 93.3984 155.203 93.3824 155.211C93.3489 155.228 93.328 155.257 93.2975 155.277C93.2464 155.311 93.198 155.344 93.1544 155.389C93.1115 155.433 93.0795 155.482 93.0471 155.533C93.0274 155.564 92.9987 155.586 92.9826 155.62C92.9752 155.636 92.9771 155.654 92.9704 155.67C92.9469 155.727 92.9368 155.786 92.9264 155.848C92.9174 155.901 92.9055 155.951 92.9063 156.003C92.9067 156.058 92.9201 156.109 92.9309 156.163C92.9428 156.223 92.9543 156.281 92.9782 156.337C92.9853 156.353 92.9838 156.371 92.992 156.387C96.3313 163.038 100.792 168.496 106.25 172.608C109.412 174.991 111.551 175.889 115.812 177.679C118.331 178.737 121.782 180.186 126.714 182.486C128.853 183.482 130.76 184.375 132.507 185.208C133.967 186.01 135.253 186.622 136.441 187.122C140.897 189.351 144.239 191.282 147.809 193.867C153.037 197.651 157.78 202.141 161.905 207.213C162.078 207.426 162.331 207.536 162.586 207.536C162.78 207.536 162.975 207.472 163.138 207.34C163.514 207.035 163.57 206.483 163.266 206.108C159.043 200.917 154.189 196.322 148.837 192.448C147.442 191.438 146.066 190.522 144.664 189.654C146.597 190.172 148.704 190.816 151.428 191.988C157.845 194.747 163.9 198.863 169.426 204.222C169.596 204.388 169.816 204.47 170.036 204.47C170.265 204.47 170.493 204.381 170.665 204.204C171.002 203.857 170.994 203.302 170.646 202.965ZM96.6174 159.273C96.3611 158.854 96.0992 158.442 95.8529 158.011C96.0559 158.115 96.2634 158.21 96.4657 158.317C96.4996 158.647 96.5529 158.963 96.6174 159.273Z" fill="#FCB4B6"/>
<path d="M252.956 108.547C254.745 104.454 260.146 103.294 263.9 101.743C269.093 99.5968 274.183 97.1976 279.103 94.4797C289.52 88.7245 299.333 81.8525 308.24 73.957C313.38 69.3996 319.566 62.0124 327.089 62.2369C338.492 62.5773 342.168 74.3152 344.785 83.6206C348.41 96.4968 352.956 115.412 346.532 139.648C344.355 147.861 338.401 170.32 325.42 172.526C316.749 173.999 312.768 165.644 286.141 142.592C279.409 136.764 272.586 131.034 265.752 125.326C262.229 122.384 257.621 120.414 254.659 116.855C252.903 114.745 251.876 111.825 252.707 109.21C252.779 108.981 252.862 108.76 252.956 108.547Z" fill="#FFABDE"/>
<path d="M282.157 101.967C281.824 101.967 281.505 101.776 281.358 101.454C281.158 101.014 281.352 100.494 281.793 100.293C297.907 92.9571 313.171 83.7951 327.159 73.0618C330.872 70.2177 333.554 67.9057 335.859 65.5643C336.199 65.2198 336.754 65.2147 337.099 65.5543C337.444 65.8935 337.449 66.4483 337.109 66.7931C334.744 69.1948 332.005 71.5568 328.226 74.4519C314.133 85.2656 298.755 94.4965 282.519 101.887C282.402 101.942 282.278 101.967 282.157 101.967Z" fill="#701C39"/>
<path d="M349.506 122.905C349.451 122.905 349.396 122.9 349.339 122.889C324.964 118.189 300.005 114.925 275.156 113.187C274.672 113.153 274.308 112.734 274.342 112.252C274.376 111.769 274.807 111.403 275.277 111.439C300.198 113.182 325.227 116.455 349.671 121.168C350.146 121.26 350.458 121.719 350.365 122.195C350.285 122.614 349.918 122.905 349.506 122.905Z" fill="#701C39"/>
<path d="M333.995 168.374C333.806 168.374 333.616 168.313 333.456 168.188C314.113 153.05 293.39 139.375 271.865 127.545C271.44 127.312 271.285 126.779 271.519 126.355C271.752 125.931 272.286 125.777 272.709 126.01C294.318 137.886 315.119 151.612 334.536 166.808C334.918 167.106 334.985 167.657 334.686 168.038C334.513 168.258 334.255 168.374 333.995 168.374Z" fill="#701C39"/>
<path d="M342.56 153.332C342.401 153.332 342.239 153.289 342.094 153.197C321.984 140.553 300.574 129.716 278.461 120.987C278.011 120.809 277.79 120.3 277.968 119.85C278.145 119.401 278.655 119.179 279.105 119.357C301.319 128.126 322.825 139.013 343.027 151.714C343.437 151.972 343.561 152.513 343.303 152.922C343.136 153.187 342.851 153.332 342.56 153.332Z" fill="#701C39"/>
<path d="M346.317 111.682C324.849 111.682 303.135 110.642 281.716 108.586C281.234 108.54 280.882 108.112 280.928 107.63C280.974 107.148 281.401 106.796 281.884 106.842C304.352 108.999 327.165 110.035 349.642 109.922C350.128 109.922 350.52 110.311 350.522 110.793C350.525 111.277 350.135 111.671 349.65 111.674C348.541 111.679 347.428 111.682 346.317 111.682Z" fill="#701C39"/>
<path d="M281.773 104.867C281.374 104.867 281.013 104.593 280.919 104.187C280.81 103.716 281.105 103.245 281.577 103.137C303.061 98.1984 324.572 92.5582 345.514 86.3736C345.981 86.2362 346.465 86.5018 346.603 86.9657C346.74 87.4297 346.475 87.9171 346.01 88.0542C325.035 94.2488 303.489 99.8978 281.97 104.845C281.903 104.86 281.837 104.867 281.773 104.867Z" fill="#701C39"/>
<path d="M282.237 97.3677C281.885 97.3677 281.552 97.1543 281.418 96.8058C281.244 96.3545 281.469 95.8473 281.921 95.6734C300.243 88.6287 316.751 77.0226 329.662 62.1098C329.979 61.7431 330.533 61.7051 330.898 62.0205C331.264 62.337 331.304 62.8903 330.987 63.2563C317.889 78.3861 301.14 90.1614 282.551 97.3089C282.448 97.3487 282.341 97.3677 282.237 97.3677Z" fill="#701C39"/>
<path d="M346.762 139.63C346.642 139.63 346.52 139.605 346.403 139.552C323.478 129.215 299.375 121.442 274.763 116.449C274.289 116.352 273.982 115.89 274.078 115.416C274.175 114.942 274.634 114.634 275.112 114.731C299.852 119.75 324.079 127.564 347.124 137.955C347.566 138.154 347.761 138.673 347.562 139.114C347.415 139.438 347.097 139.63 346.762 139.63Z" fill="#701C39"/>
<path d="M300.084 106.876C293.532 106.876 286.981 106.579 280.44 105.985C279.958 105.941 279.603 105.515 279.646 105.033C279.691 104.551 280.115 104.197 280.599 104.24C303.259 106.299 326.075 104.755 348.406 99.65C348.869 99.5428 349.348 99.8366 349.456 100.309C349.563 100.781 349.269 101.25 348.797 101.358C332.731 105.031 316.413 106.876 300.084 106.876Z" fill="#701C39"/>
<path d="M339.351 160.56C339.19 160.56 339.025 160.515 338.879 160.421C317.622 146.787 295.338 134.325 272.642 123.379C272.206 123.169 272.023 122.645 272.234 122.21C272.444 121.774 272.97 121.591 273.404 121.801C296.163 132.777 318.51 145.274 339.826 158.946C340.233 159.208 340.351 159.75 340.09 160.157C339.922 160.418 339.64 160.56 339.351 160.56Z" fill="#701C39"/>
<path d="M279.098 104.49C278.724 104.49 278.378 104.249 278.26 103.874C278.117 103.412 278.375 102.92 278.837 102.777C300.794 95.9472 321.85 86.2755 341.42 74.03C341.829 73.7738 342.372 73.8971 342.628 74.3078C342.885 74.7181 342.761 75.2584 342.35 75.5153C322.652 87.8405 301.459 97.5759 279.358 104.45C279.272 104.477 279.183 104.49 279.098 104.49Z" fill="#701C39"/>
<path d="M348.796 129.512C348.71 129.512 348.624 129.5 348.538 129.473C326.513 122.694 303.761 117.972 280.915 115.437C280.434 115.383 280.087 114.95 280.14 114.469C280.194 113.989 280.624 113.641 281.108 113.695C304.064 116.242 326.924 120.987 349.054 127.798C349.517 127.94 349.776 128.431 349.634 128.893C349.518 129.27 349.171 129.512 348.796 129.512Z" fill="#701C39"/>
<path d="M326.556 173.158C326.345 173.158 326.133 173.082 325.965 172.928C309.02 157.439 290.692 143.16 271.49 130.488C271.086 130.221 270.974 129.678 271.24 129.274C271.507 128.87 272.051 128.759 272.455 129.025C291.734 141.748 310.135 156.084 327.147 171.635C327.504 171.962 327.529 172.516 327.203 172.873C327.031 173.062 326.794 173.158 326.556 173.158Z" fill="#701C39"/>
<path d="M44.0839 112.168C65.7787 100.38 62.6801 78.5703 84.8357 50.8282C101.397 30.0899 120.511 19.4384 130.676 15.0587C183.457 -7.67957 231.377 0.977839 245.635 5.09467C263.827 10.348 282.839 15.3913 289.576 31.1992C295.803 45.814 289.342 64.1867 283.684 80.2709C277.419 98.0817 274.379 95.9388 271.409 106.77C261.826 141.723 293.394 164.388 281.229 191.664C280.828 192.563 275.401 204.289 263.063 210.311C247.863 217.729 231.296 212.042 216.91 206.876C194.604 198.865 196.417 193.115 176.159 184.794C153.402 175.447 145.009 180.194 115.768 171.544C99.258 166.661 86.4746 160.574 78.453 156.332C75.0738 155.866 70.0442 154.785 64.7053 151.915C58.2116 148.425 56.4978 145.105 51.343 141.47C44.3719 136.556 40.2115 137.483 28.8636 134.249C17.5369 131.022 0.301369 124.012 0.877353 120.018C1.53418 115.467 24.1574 122.995 44.0839 112.168Z" fill="#F57E85"/>
<path d="M99.6233 50.5716C106.203 43.8612 123.723 26.4726 153.124 19.9466C160.722 18.2602 188.552 12.9846 218.714 26.8253C261.81 46.6011 274.611 89.3155 276.464 95.894C274.19 99.6515 270.9 106.22 269.853 114.994C269.171 120.71 269.652 125.592 270.297 129.13C257.7 148.355 243.408 157.74 234.93 162.253C218.971 170.748 197.388 170.484 154.554 170.595C152.022 170.601 137.006 170.585 117.446 167.967C101.286 165.803 93.0781 164.631 86.7918 160.209C70.8546 148.999 69.6207 125.969 69.2608 119.252C67.3589 83.7558 92.4362 57.9019 99.6233 50.5716Z" fill="url(#paint0_linear_147_1068)"/>
<path d="M87.0669 160.631C82.3781 149.468 75.2845 128.514 76.2711 101.511C77.2498 74.7244 85.723 54.4754 91.1725 43.6899C76.8467 57.3906 68.3086 71.3002 63.1225 83.99C58.8515 94.4399 59.4997 97.6638 55.0841 103.044C38.6738 123.04 1.77581 113.884 0.875697 120.02C0.185709 124.723 21.5854 132.036 24.554 133.05C38.5527 137.834 40.2479 135.298 48.2211 140.059C55.5919 144.46 57.9175 148.881 67.5054 153.2C71.7552 155.115 75.4958 156.137 78.024 156.705C79.23 157.467 80.6926 158.279 82.4068 159.023C84.1102 159.761 85.6925 160.272 87.0669 160.631Z" fill="#FCB4B6"/>
<path d="M121.303 39.638C127.461 30.851 134.004 24.7785 138.396 21.1309C133.313 21.2794 126.268 22.0473 118.344 24.7447C112.186 26.8411 107.238 29.5097 103.555 31.8656C99.1411 37.7743 96.1252 42.9941 94.199 46.6421C87.9877 58.4061 78.2902 76.7736 85.4844 91.1207C87.3301 94.8015 87.9068 93.9552 89.2123 96.9005C94.0415 107.797 85.4244 115.292 84.7061 130.422C84.5735 133.214 83.8794 148.053 93.8004 158.457C100.7 165.691 109.666 167.53 113.961 168.094C109.369 155.002 107.048 143.807 105.78 135.825C103.075 118.802 96.4288 75.1304 121.303 39.638Z" fill="#FCB4B6"/>
<path d="M150.016 21.1308C118.773 34.9019 115.3 96.3978 114.686 107.317C114.317 113.872 113.3 138.554 125.362 157.581C127.71 161.284 130.378 164.495 134.128 167.218C146.342 176.085 161.303 173.419 165.684 172.474C156.737 143.857 155.072 119.573 155.166 103.263C155.293 81.077 155.737 61.951 167.438 41.9376C175.543 28.0731 186.16 19.1725 193.734 13.9028C186.756 13.9617 176.716 14.55 164.918 17.0787C157.703 18.6248 153.806 19.46 150.016 21.1308Z" fill="#FCB4B6"/>
<path d="M200.306 27.4827C175.214 55.8262 173.571 101.95 173.571 101.95C172.829 122.763 171.607 157.067 195.485 179.921C202.98 187.095 210.884 191.166 216.522 193.5C214.118 169.838 213.108 140.349 216.522 106.768C220.149 71.1031 227.745 40.8665 235.418 17.3131C231.143 16.5807 224.452 15.9514 216.522 17.4078C216.521 17.4081 208.054 18.7303 200.306 27.4827Z" fill="#FCB4B6"/>
<path d="M249.829 140.059C251.057 119.045 264.925 112.757 263.854 90.9987C263.736 88.604 263.328 80.3018 260.348 79.6096C258.305 79.1348 255.875 82.4295 254.212 84.8663C249.199 92.2111 242.89 101.454 240.187 113.777C236.624 130.025 238.1 157.231 248.077 189.12C249.212 185.558 250.711 180.11 251.583 173.35C253.784 156.289 249.091 152.695 249.829 140.059Z" fill="#FCB4B6"/>
<path d="M78.4534 157.209C78.1539 157.209 77.8618 157.055 77.6986 156.779C77.452 156.362 77.5898 155.825 78.006 155.579C82.4667 152.94 87.1002 150.294 91.7767 147.714C94.2624 146.343 96.4497 145.162 98.3807 144.12C107.631 139.127 110.747 137.445 112.51 133.409C113.049 132.173 113.07 131.468 113.321 122.835L113.419 119.503C113.614 112.922 113.794 107.607 113.91 104.286C113.927 103.803 114.309 103.428 114.816 103.441C115.3 103.457 115.678 103.863 115.661 104.347C115.546 107.666 115.366 112.978 115.172 119.554L115.073 122.886C114.808 132.016 114.793 132.563 114.117 134.11C112.112 138.7 108.601 140.595 99.2141 145.662C97.2872 146.701 95.1044 147.88 92.6246 149.248C87.9627 151.819 83.3455 154.457 78.9001 157.087C78.7589 157.169 78.605 157.209 78.4534 157.209Z" fill="#FFF9E2"/>
<path d="M241.592 207.238C236.481 207.238 231.401 206.401 226.764 204.843C226.305 204.689 226.057 204.192 226.211 203.734C226.366 203.275 226.865 203.028 227.322 203.182C242.569 208.304 262.789 205.355 271.936 189.808C277.705 180.005 277.191 168.103 270.318 152.353C264.248 138.442 262.348 127.778 263.758 115.548C265.326 101.956 271.331 88.5877 276.388 78.4598C283.41 64.396 287.529 44.3227 278.031 30.1618C271.742 20.7839 261.482 17.9867 249.602 14.7479C236.536 11.1859 222.778 10.0159 208.712 11.2712C208.228 11.3151 207.805 10.958 207.761 10.4762C207.718 9.99434 208.075 9.56873 208.557 9.52591C222.83 8.25243 236.795 9.44068 250.063 13.0578C261.774 16.2501 272.835 19.2654 279.488 29.1863C289.403 43.9713 285.198 64.7375 277.956 79.2421C272.964 89.2416 267.036 102.428 265.499 115.748C264.127 127.646 265.989 138.048 271.925 151.652C276.403 161.914 281.432 177.126 273.447 190.696C266.63 202.284 254.023 207.238 241.592 207.238Z" fill="#FFF9E2"/>
<path d="M252.296 36.5436C251.623 36.357 250.916 36.2646 250.19 36.2646C248.403 36.2646 246.494 36.8232 244.645 37.909C241.185 39.9391 238.489 43.4486 237.61 47.0676C236.631 51.0932 237.431 56.6347 241.501 59.2889C243.69 60.7169 246.57 61.134 249.609 60.4645C253.222 59.6687 256.436 57.503 258.209 54.6701C260.199 51.4894 260.467 47.2247 258.926 43.2624C257.594 39.8375 255.116 37.3255 252.296 36.5436Z" fill="#701C39"/>
<path d="M262.197 41.9923C260.466 37.5419 257.117 34.2428 253.237 33.1666C249.984 32.2648 246.3 32.875 242.872 34.8873C238.623 37.3806 235.301 41.7309 234.205 46.2406C232.945 51.4261 234.092 58.6395 239.587 62.2239C241.65 63.5692 244.156 64.2804 246.833 64.2804C247.992 64.2804 249.18 64.1479 250.365 63.8865C254.879 62.8927 258.924 60.1417 261.183 56.5283C263.758 52.4144 264.137 46.9809 262.197 41.9923ZM260.441 56.0635C258.302 59.4818 254.465 62.0865 250.177 63.0308C249.043 63.2806 247.922 63.4042 246.833 63.4042C244.336 63.4042 242.005 62.7549 240.067 61.4896C234.927 58.1384 233.866 51.3427 235.056 46.4469C236.099 42.1606 239.263 38.0207 243.315 35.6425C246.537 33.7516 249.976 33.1718 253.002 34.0107C256.617 35.0135 259.749 38.1157 261.38 42.31C263.22 47.0412 262.869 52.1828 260.441 56.0635Z" fill="#701C39"/>
<path d="M261.382 42.3104C259.75 38.1161 256.619 35.0139 253.004 34.0111C249.978 33.1722 246.538 33.752 243.316 35.6428C239.264 38.0207 236.1 42.1606 235.058 46.4473C233.868 51.3431 234.929 58.1387 240.068 61.49C242.007 62.7553 244.337 63.4046 246.835 63.4046C247.924 63.4046 249.045 63.281 250.178 63.0312C254.466 62.0872 258.304 59.4822 260.442 56.0639C262.87 52.1832 263.221 47.0416 261.382 42.3104ZM258.213 54.6701C256.44 57.5027 253.226 59.6687 249.612 60.4645C246.573 61.134 243.694 60.7169 241.504 59.2889C237.435 56.6351 236.635 51.0932 237.614 47.0676C238.493 43.4486 241.188 39.9391 244.648 37.909C246.498 36.8232 248.407 36.2647 250.194 36.2647C250.92 36.2647 251.626 36.357 252.3 36.5436C255.12 37.3255 257.598 39.8375 258.93 43.2621C260.471 47.2248 260.203 51.489 258.213 54.6701Z" fill="#FCB4B6"/>
<path d="M276.462 95.8942C274.187 99.6517 270.898 106.22 269.851 114.994C269.169 120.71 269.65 125.592 270.294 129.13C271.183 130.158 272.327 131.306 273.77 132.421C274.57 133.038 275.349 133.558 276.078 133.996C278.838 130.758 282.35 125.813 284.819 119.106C289.485 106.426 287.585 95.1621 286.416 90.1885C284.87 90.6915 282.975 91.4563 280.947 92.6408C279.093 93.724 277.606 94.8784 276.462 95.8942Z" fill="#701C39"/>
<path d="M281.398 139.392C281.186 139.392 280.973 139.316 280.804 139.161C280.448 138.833 280.425 138.279 280.754 137.923C286.362 131.835 295.808 119.006 296.069 101.499C296.151 96.0131 295.317 90.5144 293.59 85.1553C293.442 84.6947 293.696 84.201 294.156 84.0528C294.616 83.9054 295.112 84.1578 295.26 84.6184C297.045 90.1599 297.907 95.8482 297.823 101.525C297.552 119.615 287.82 132.838 282.043 139.11C281.871 139.297 281.634 139.392 281.398 139.392Z" fill="#EC6068"/>
<path d="M113.966 168.97C113.605 168.97 113.267 168.746 113.14 168.385C107.823 153.31 104.383 137.605 102.916 121.705C101.32 104.398 99.6699 86.502 106.819 65.7018C112.722 48.5244 123.154 33.307 137.823 20.4721C138.186 20.1541 138.74 20.1898 139.06 20.5544C139.379 20.9185 139.342 21.4719 138.978 21.7906C124.542 34.4215 114.28 49.3868 108.477 66.2712C101.451 86.7157 103.083 104.422 104.663 121.544C106.116 137.3 109.524 152.864 114.793 167.803C114.954 168.259 114.715 168.76 114.258 168.921C114.162 168.954 114.063 168.97 113.966 168.97Z" fill="#FFF9E2"/>
<path d="M165.683 173.35C165.305 173.35 164.958 173.106 164.843 172.726C157.398 147.984 153.853 122.842 154.304 97.9971C154.704 76.0314 158.247 57.528 164.282 45.8943C170.947 33.0474 180.685 22.0434 193.227 13.1875C193.624 12.9082 194.17 13.0024 194.448 13.3975C194.728 13.7926 194.634 14.3392 194.239 14.6185C181.928 23.3109 172.374 34.1049 165.839 46.7008C159.925 58.0992 156.452 76.3278 156.057 98.0287C155.609 122.692 159.13 147.654 166.523 172.222C166.661 172.685 166.399 173.174 165.936 173.313C165.851 173.339 165.766 173.35 165.683 173.35Z" fill="#FFF9E2"/>
<path d="M216.52 194.377C216.408 194.377 216.294 194.355 216.185 194.31C208.071 190.95 200.902 186.322 194.876 180.554C170.713 157.427 171.953 122.679 172.693 101.918C172.692 101.504 174.276 55.5616 199.647 26.902C207.654 17.8574 216.326 16.5489 216.411 16.5381C216.886 16.4789 217.32 16.811 217.387 17.2843C217.455 17.7575 217.129 18.1977 216.657 18.2729C216.575 18.2859 208.385 19.6752 200.96 28.063C176.371 55.8386 174.461 101.523 174.444 101.981C173.715 122.448 172.494 156.704 196.089 179.288C201.958 184.905 208.944 189.415 216.855 192.691C217.302 192.876 217.515 193.389 217.33 193.836C217.19 194.173 216.863 194.377 216.52 194.377Z" fill="#FFF9E2"/>
<path d="M95.6831 161.131C95.464 161.131 95.2438 161.05 95.0735 160.885C91.2581 157.196 88.3428 152.893 86.4073 148.095C83.5304 140.961 83.7007 134.772 83.7819 131.799C83.9291 126.476 85.0147 122.238 85.6633 119.706C86.4379 116.682 87.0783 115.108 87.5928 113.843C88.085 112.631 88.4747 111.674 88.8007 109.857C89.2142 107.553 90.3126 101.431 87.5321 95.5343C86.9021 94.1994 86.3302 93.4308 85.7774 92.6876C85.065 91.7306 84.3288 90.7409 83.6005 88.7275C82.2995 85.1298 82.3173 81.8105 82.4783 79.3213C83.1828 68.4327 88.0209 57.2503 88.0697 57.1386C91.9645 48.1989 96.9364 39.5232 102.847 31.3532C103.13 30.9615 103.679 30.8725 104.071 31.1566C104.463 31.44 104.552 31.9878 104.268 32.3799C98.4311 40.4482 93.5222 49.0137 89.677 57.839C89.6289 57.9485 84.9134 68.8486 84.2286 79.4345C84.0695 81.898 84.0658 84.8579 85.2498 88.1317C85.8902 89.9023 86.4901 90.7085 87.1853 91.642C87.7613 92.4161 88.4136 93.2938 89.1181 94.787C92.1381 101.19 90.9679 107.711 90.5272 110.167C90.1684 112.164 89.7276 113.248 89.2176 114.503C88.6971 115.782 88.1081 117.232 87.3626 120.141C86.7326 122.602 85.6771 126.721 85.5359 131.847C85.4573 134.702 85.2937 140.644 88.0347 147.441C89.877 152.009 92.6556 156.109 96.2937 159.626C96.6413 159.962 96.6506 160.517 96.3142 160.865C96.141 161.042 95.9122 161.131 95.6831 161.131Z" fill="#FFF9E2"/>
<path d="M86.7944 161.085C86.4494 161.085 86.1215 160.88 85.9829 160.54C80.33 146.71 76.8827 132.314 75.7374 117.752C75.0817 109.42 75.1749 100.966 76.0146 92.6249C77.2206 80.6378 79.9739 68.816 84.1954 57.4877C85.9963 52.657 88.0816 47.8819 90.3945 43.2951C90.6121 42.8632 91.1374 42.6889 91.5714 42.9071C92.0036 43.1249 92.1776 43.6518 91.9592 44.0837C89.6762 48.6131 87.6166 53.3288 85.8388 58.0995C81.6683 69.2871 78.9497 80.9621 77.759 92.8002C76.9296 101.038 76.8369 109.387 77.4851 117.615C78.6159 131.995 82.0211 146.215 87.6058 159.877C87.7891 160.325 87.5742 160.837 87.1256 161.02C87.0168 161.064 86.9047 161.085 86.7944 161.085Z" fill="#FFF9E2"/>
<path d="M77.6825 105.788C82.3787 108.385 89.6761 106.362 92.6335 102.353C96.2567 97.4407 93.0508 89.9767 87.2511 88.6124C81.888 87.3508 75.4926 91.5838 74.094 96.464C73.2535 99.3978 73.8958 103.693 77.6825 105.788Z" fill="#FCB4B6"/>
<path d="M82.6016 107.822C80.6807 107.822 78.8197 107.418 77.2583 106.554C73.1262 104.269 72.2849 99.5969 73.2521 96.2233C74.8512 90.6427 81.8807 86.4507 87.4524 87.7603C90.5666 88.4927 93.2338 90.9388 94.4126 94.1444C95.5467 97.2291 95.1555 100.411 93.3393 102.873C91.0368 105.995 86.6841 107.822 82.6016 107.822ZM85.2382 89.2594C80.6766 89.2594 76.0132 92.9521 74.9368 96.7055C74.1552 99.4338 74.8143 103.2 78.1074 105.021C82.621 107.518 89.3588 105.318 91.9284 101.833C93.3888 99.8531 93.6943 97.2708 92.7666 94.7488C91.789 92.0894 89.5983 90.0652 87.05 89.4657C86.4539 89.3254 85.847 89.2594 85.2382 89.2594Z" fill="#E43370"/>
<path d="M81.1 101.468C83.4226 102.753 87.0313 101.752 88.494 99.7695C90.2856 97.3406 88.7003 93.6489 85.832 92.9746C83.1801 92.3509 80.017 94.4443 79.3255 96.8572C78.9097 98.3083 79.2275 100.433 81.1 101.468Z" fill="#701C39"/>
<path d="M41.5019 131.736C31.9024 131.298 22.5302 129.514 13.6035 126.432C9.11825 124.883 4.70001 122.987 0.473277 120.797C0.0437108 120.575 -0.124308 120.046 0.0984846 119.616C0.32016 119.186 0.85255 119.019 1.27988 119.241C5.43248 121.393 9.7706 123.254 14.1758 124.776C22.9437 127.802 32.1513 129.555 41.5417 129.985C42.0253 130.007 42.3994 130.417 42.377 130.9C42.3554 131.37 41.9676 131.736 41.5019 131.736Z" fill="#701C39"/>
<path d="M270.295 130.006C269.88 130.006 269.511 129.709 269.434 129.287C268.565 124.515 268.412 119.671 268.982 114.89C269.804 108.007 272.068 101.463 275.714 95.4409C275.963 95.0265 276.502 94.8943 276.917 95.1449C277.332 95.3955 277.464 95.9339 277.214 96.348C273.699 102.155 271.515 108.464 270.723 115.098C270.174 119.705 270.32 124.373 271.158 128.973C271.245 129.449 270.93 129.905 270.453 129.992C270.4 130.001 270.347 130.006 270.295 130.006Z" fill="#FCB4B6"/>
<path d="M196.401 85.155C190.491 81.5845 185.147 91.2767 191.554 94.1148C197.199 97.1663 201.855 88.274 196.401 85.155Z" fill="#FFF9E2"/>
<path d="M201.417 72.5317C198.465 72.5317 198.46 77.1174 201.417 77.1174C204.37 77.1174 204.375 72.5317 201.417 72.5317Z" fill="#FFF9E2"/>
<path d="M188.971 75.2882C185.256 75.2603 185.248 81.0479 188.972 81.0374C192.687 81.0654 192.695 75.2781 188.971 75.2882Z" fill="#FFF9E2"/>
<path d="M192.619 103.071C188.988 94.9565 178.355 99.0629 182.422 107.574C185.619 113.543 195.412 109.629 192.619 103.071Z" fill="#FFF9E2"/>
<path d="M197.773 111.504C193.829 111.504 193.822 117.63 197.773 117.63C201.716 117.63 201.723 111.504 197.773 111.504Z" fill="#FFF9E2"/>
<path d="M185.633 122.818C182.183 122.792 182.176 128.167 185.633 128.157C189.083 128.183 189.091 122.809 185.633 122.818Z" fill="#FFF9E2"/>
<path d="M198.724 130.272C192.393 127.747 187.04 136.059 193.962 139.049C200.071 144.495 206.149 133.046 198.724 130.272Z" fill="#FFF9E2"/>
<path d="M191.099 152.042C187.397 152.042 187.391 157.791 191.099 157.791C194.8 157.791 194.806 152.042 191.099 152.042Z" fill="#FFF9E2"/>
<path d="M201.417 160.225C198.476 160.203 198.469 164.784 201.418 164.776C204.359 164.798 204.365 160.216 201.417 160.225Z" fill="#FFF9E2"/>
<path d="M202.935 167.466C199.551 167.441 199.544 172.712 202.935 172.703C206.319 172.728 206.326 167.457 202.935 167.466Z" fill="#FFF9E2"/>
<path d="M212.922 107.463C212.689 101.836 203.872 101.418 203.227 107.059C202.231 113.917 213.375 114.394 212.922 107.463Z" fill="#FFF9E2"/>
<path d="M211.741 72.0582C208.556 72.0344 208.549 76.9949 211.741 76.986C214.925 77.0098 214.932 72.0493 211.741 72.0582Z" fill="#FFF9E2"/>
<path d="M220.236 42.2115C217.294 42.1895 217.288 46.771 220.236 46.7628C223.177 46.7852 223.183 42.2033 220.236 42.2115Z" fill="#FFF9E2"/>
<path d="M196.561 45.4298C193.465 45.4067 193.458 50.2296 196.561 50.221C199.657 50.2445 199.664 45.4212 196.561 45.4298Z" fill="#FFF9E2"/>
<path d="M207.503 57.9968C205.596 52.8001 197.625 52.2977 195.341 57.5208C190.778 69.0834 211.036 69.8781 207.503 57.9968Z" fill="#FFF9E2"/>
<path d="M210.218 38.4986C206.79 38.4729 206.783 43.8126 210.219 43.803C213.646 43.829 213.653 38.4889 210.218 38.4986Z" fill="#FFF9E2"/>
<path d="M128.43 85.5229C123.346 80.5183 115.123 85.9828 117.173 92.6436C120.471 103.563 136.341 93.4825 128.43 85.5229Z" fill="#FFF9E2"/>
<path d="M141.689 80.9497C139.207 76.6944 133.469 82.157 137.612 84.835C140.038 86.5155 143.243 83.4669 141.689 80.9497Z" fill="#FFF9E2"/>
<path d="M137.802 65.4377C134.98 60.1435 126.127 63.2851 128.434 69.2321C129.811 77.1999 141.867 72.2441 137.802 65.4377Z" fill="#FFF9E2"/>
<path d="M150.256 53.4079C146.88 51.4206 144.425 57.2056 148.198 58.2869C151.115 59.1367 152.909 54.8809 150.256 53.4079Z" fill="#FFF9E2"/>
<path d="M156.191 36.8419C155.733 33.8303 151.05 33.8679 151.037 37.0557C150.861 40.9413 157.071 40.8203 156.191 36.8419Z" fill="#FFF9E2"/>
<path d="M138.584 41.7208C135.399 41.697 135.393 46.6576 138.585 46.6487C141.769 46.6725 141.776 41.7119 138.584 41.7208Z" fill="#FFF9E2"/>
<path d="M141.114 106.412C135.285 102.805 128.208 108.93 131.137 115.159C136.522 125.172 150.204 113.117 141.114 106.412Z" fill="#FFF9E2"/>
<path d="M129.783 124.759C126.487 124.734 126.481 129.867 129.783 129.858C133.078 129.883 133.085 124.75 129.783 124.759Z" fill="#FFF9E2"/>
<path d="M146.722 131.045C140.498 129.955 139.413 137.194 143.327 140.62C141.335 140.852 140.8 144.191 142.738 144.84C147.855 144.417 156.765 134.392 146.722 131.045Z" fill="#FFF9E2"/>
<path d="M138.901 149.826C135.495 149.801 135.488 155.106 138.901 155.097C142.307 155.122 142.314 149.817 138.901 149.826Z" fill="#FFF9E2"/>
<path d="M152.852 156.729C149.313 156.702 149.306 162.214 152.853 162.205C156.391 162.231 156.398 156.719 152.852 156.729Z" fill="#FFF9E2"/>
<path d="M132.403 135.976C124.062 133.565 121.862 147.465 130.862 147.102C136.826 146.856 138.336 137.629 132.403 135.976Z" fill="#FFF9E2"/>
<path d="M105.708 49.4049C102.072 39.6423 88.8963 55.6085 99.5136 58.9136C105.067 60.7724 109.8 53.7488 105.708 49.4049Z" fill="#FFF9E2"/>
<path d="M96.0243 69.9042C92.745 67.6701 88.7914 72.7792 92.3639 75.0011C95.7539 77.0026 99.6393 72.3052 96.0243 69.9042Z" fill="#FFF9E2"/>
<path d="M70.25 85.2542C67.4159 83.5864 65.0967 88.4211 68.0113 89.7009C70.5674 90.7655 72.7764 86.6655 70.25 85.2542Z" fill="#FFF9E2"/>
<path d="M66.0571 94.9639C63.049 94.9412 63.043 99.6267 66.0575 99.6181C69.0648 99.6408 69.0711 94.9558 66.0571 94.9639Z" fill="#FFF9E2"/>
<path d="M66.137 135.594C62.1144 126.588 49.704 137.433 59.046 141.723C63.25 145.321 68.3802 140.167 66.137 135.594Z" fill="#FFF9E2"/>
<path d="M71.5046 136.676C68.3318 136.676 68.3266 141.604 71.5046 141.604C74.6769 141.604 74.6825 136.676 71.5046 136.676Z" fill="#FFF9E2"/>
<path d="M65.7357 125.367C62.4403 125.342 62.4337 130.475 65.7361 130.466C69.031 130.491 69.0381 125.357 65.7357 125.367Z" fill="#FFF9E2"/>
<path d="M96.8067 81.03C93.7647 79.4073 90.7943 83.6499 93.8567 85.6402C97.3454 88.2277 101.116 82.7042 96.8067 81.03Z" fill="#FFF9E2"/>
<path d="M113.392 33.2305C110.616 33.2305 110.612 37.5425 113.392 37.5425C116.169 37.5425 116.173 33.2305 113.392 33.2305Z" fill="#FFF9E2"/>
<path d="M94.8733 127.541C91.657 127.541 91.6514 132.537 94.8733 132.537C98.0904 132.537 98.0956 127.541 94.8733 127.541Z" fill="#FFF9E2"/>
<path d="M95.2217 138.519C94.3693 137.051 91.8824 136.34 90.9171 138.07C88.9388 141.993 97.0387 142.831 95.2217 138.519Z" fill="#FFF9E2"/>
<path d="M255.287 102.86C252.307 98.078 244.874 101.521 246.384 106.891C248.55 114.006 259.126 109.164 255.287 102.86Z" fill="#FFF9E2"/>
<path d="M246.038 116.769C242.61 116.743 242.604 122.083 246.039 122.073C249.466 122.099 249.474 116.759 246.038 116.769Z" fill="#FFF9E2"/>
<path d="M243.912 127.585C241.524 127.566 241.519 131.287 243.912 131.281C246.301 131.299 246.306 127.578 243.912 127.585Z" fill="#FFF9E2"/>
<path d="M247.589 144.504C246.663 141.049 241.283 140.511 240.137 144.065C238.957 149.48 249.602 151.833 247.589 144.504Z" fill="#FFF9E2"/>
<path d="M246.038 157.802C243.505 157.802 243.501 161.737 246.038 161.737C248.572 161.737 248.577 157.802 246.038 157.802Z" fill="#FFF9E2"/>
<path d="M249.074 169.398C246.628 169.398 246.624 173.197 249.074 173.197C251.519 173.197 251.523 169.398 249.074 169.398Z" fill="#FFF9E2"/>
<path d="M103.363 96.2579C103.363 105.336 96.004 112.695 86.9258 112.695C77.8475 112.695 70.4916 105.336 70.4916 96.2579C70.4916 87.1797 77.8508 79.8237 86.9258 79.8237C96.004 79.8237 103.363 87.183 103.363 96.2579Z" fill="#BBAC45"/>
<path d="M92.9142 90.4502C92.6348 90.9432 92.5263 91.0057 92.809 90.4437C92.2831 91.4823 92.0169 92.4716 91.33 93.4379C90.9158 94.0164 90.4918 94.4963 89.9955 94.986C89.8476 95.1307 88.6216 96.2121 89.4696 95.3904C89.7786 95.088 89.8278 94.5982 89.509 95.4298C89.749 94.8053 89.5091 94.4076 89.6274 95.2885C89.3151 93.0205 87.3759 91.7649 85.0948 92.1363C88.4901 91.5841 91.2149 92.5735 93.1804 95.4265C93.187 95.4363 93.1968 95.4495 93.2034 95.4594C91.1458 94.6212 89.0883 93.7864 87.0308 92.9482C87.6224 92.8167 87.6651 92.8496 87.1589 93.0501C89.7227 91.8077 92.8649 92.7773 93.6866 95.7058C93.8575 96.2482 93.9528 96.8036 93.9692 97.3788C94.0185 98.0526 93.9955 97.9738 93.9002 97.1389C95.3662 100.817 92.2667 104.899 88.901 105.944C81.3215 108.298 74.0674 101.685 74.4191 94.0296C74.5868 90.3977 76.3452 86.9694 79.0371 84.5602C81.1736 82.6505 83.6552 81.5035 86.5575 81.8289C88.1845 82.0129 89.5025 82.5816 91.0144 83.2192C93.68 84.3433 94.1731 88.2184 92.9142 90.4502Z" fill="#2E1628"/>
<path d="M85.8922 109.153C88.0615 106.343 91.9629 106.527 94.0895 103.864C97.4947 99.6014 96.696 93.409 95.023 88.6563C94.4478 87.026 97.1628 85.8427 97.8497 87.4631C99.8251 92.1239 100.091 97.4716 98.152 102.218C97.4585 103.911 96.5185 105.528 95.069 106.681C92.7156 108.552 89.3762 108.16 87.0952 110.08C86.4838 110.589 85.3236 109.893 85.8922 109.153Z" fill="#DFCD71"/>
<defs>
<linearGradient id="paint0_linear_147_1068" x1="172.811" y1="17.5474" x2="172.811" y2="170.595" gradientUnits="userSpaceOnUse">
<stop stop-color="#EC6068"/>
<stop offset="1" stop-color="#C6424A"/>
</linearGradient>
</defs>
</svg>
