<svg width="484" height="172" viewBox="0 0 484 172" fill="none" xmlns="http://www.w3.org/2000/svg">
<g filter="url(#filter0_d_50_34881)">
<path d="M228.647 4.04601C219.248 3.91436 210.166 4.02403 200.795 4.92361C195.984 4.96749 193.593 5.21617 188.812 6.13038L186.713 6.18154C182.815 6.45945 180.146 6.77397 176.291 7.39563C167.976 8.26595 159.741 7.96605 154.087 15.0384C152.215 17.3787 150.891 19.9605 148.946 22.2862C141.603 21.9351 132.592 23.0615 125.191 23.9611C96.6088 27.0547 73.5195 30.3459 52.6243 51.9504C45.6763 59.1324 39.2256 66.6874 31.9924 73.5914C25.8196 79.4862 16.2387 80.7149 10.5999 86.3903C3.5787 93.4626 12.3478 104.433 18.3816 108.448C35.3055 119.726 59.4333 126.952 79.2022 130.221C92.7618 133.753 148.331 140.658 161.664 138.537C168.714 149.112 177.33 155.643 189.915 158.554L191.404 158.678C194.603 159.629 198.52 159.125 201.716 158.4L204.532 156.44C209.242 149.156 201.27 145.097 196.036 141.155L193.411 138.127C203.411 141.82 262.357 136.028 273.574 132.671C282.189 140.606 284.65 141.586 295.728 144.505L298.689 144.878C305.856 146.647 317.923 145.338 322.92 139.114L324.363 136.013C323.103 126.944 314.407 129.972 309.028 125.233C322.669 126.893 358.041 109.019 373.105 107.198C383.662 105.925 390.896 107.958 401.209 108.938C393.744 97.4997 395.794 89.8277 401.582 78.2941C402.959 75.5514 404.529 73.767 405.35 70.7611C370.035 83.7355 365.809 74.9225 335.26 58.145C319.755 49.6319 283.138 33.2713 266.076 31.5014L265.623 30.8797C270.321 26.2721 285.938 22.1619 287.072 15.2432C285.262 4.68956 258.19 4.6311 249.971 4.86513L248.593 4.60176C242.664 4.06787 236.227 4.10447 230.244 4.00208L228.647 4.04601Z" fill="#6B7F94"/>
<path d="M125.398 23.0117C96.8163 26.1054 73.727 29.3965 52.8317 51.0011C45.8837 58.1831 39.4331 65.738 32.1999 72.6421C26.0271 78.5369 16.4462 79.7656 10.8073 85.441C3.78618 92.5133 12.5553 103.484 18.5891 107.499C35.513 118.777 59.6408 126.002 79.4097 129.272C86.0432 124.32 118.626 129.674 140.208 109.847C148.056 102.635 152.539 93.1569 152.846 82.4789C153.249 68.4733 148.275 50.6792 140.157 39.3211C135.966 33.4482 130.328 28.2775 125.398 23.0117Z" fill="#225B96"/>
<path d="M130.779 65.2173C130.135 65.3782 129.506 65.5464 128.885 65.7878C122.244 68.3329 115.23 97.4997 106.856 105.369C102.475 109.487 87.8256 117.247 85.9533 121.43L86.7359 122.827C89.1202 123.946 89.8003 123.88 92.4625 124.012C114.477 118.483 145.545 101.859 139.051 74.9884C137.895 70.2272 134.816 67.4918 130.779 65.2173Z" fill="#112B39"/>
<path d="M75.2897 65.7219C67.6469 64.4493 60.3918 69.5323 58.9729 77.1458C57.5468 84.7593 62.4761 92.1168 70.0677 93.6892C75.1069 94.7351 80.3215 92.9725 83.7005 89.0889C87.0794 85.1981 88.0887 79.786 86.3407 74.937C84.6 70.0954 80.3727 66.5702 75.2897 65.7219Z" fill="#393980"/>
<path d="M75.6695 68.6767C69.5992 67.1993 63.4629 70.878 61.9124 76.9264C60.3546 82.9821 63.9603 89.1548 69.9941 90.7858C73.9581 91.8609 78.2001 90.7127 81.089 87.7872C83.9779 84.8618 85.0749 80.6051 83.9486 76.6485C82.8296 72.6918 79.6628 69.6494 75.6695 68.6767Z" fill="#F2EAEE"/>
<path d="M69.6476 88.0845C71.8052 90.7613 75.5132 91.6096 78.6215 90.1396C81.7226 88.6622 83.4193 85.2541 82.7099 81.8899C82.0078 78.5256 79.0896 76.0901 75.6521 75.9877C72.2147 75.8853 69.1576 78.1598 68.258 81.4729C67.6364 83.7694 68.1556 86.2341 69.6476 88.0845Z" fill="#112B39"/>
<path d="M74.2521 88.5572C75.2614 89.4788 76.7535 89.6543 77.9456 88.9887C79.145 88.3232 79.7813 86.9629 79.5326 85.6171C79.2766 84.2714 78.1942 83.233 76.8412 83.0428C75.4809 82.8527 74.1571 83.5475 73.5427 84.7761C72.9064 86.0487 73.1917 87.5992 74.2521 88.5572Z" fill="#FDFDFD"/>
<path d="M69.9185 81.8094L68.2583 81.4729C67.6366 83.7694 68.1559 86.2341 69.6479 88.0845L70.6279 85.5905C69.5674 84.6324 69.2822 83.082 69.9185 81.8094Z" fill="#112B39"/>
<path d="M248.593 4.60175C242.664 4.06786 236.228 4.10447 230.244 4.00208C227.801 7.7686 225.004 9.74327 222.272 13.0344C218.155 17.9931 214.082 23.0541 209.998 28.0567L213.845 28.5613C215.378 28.7587 216.305 28.9855 217.839 28.6856L226.081 29.2122L227.924 29.4097C237.845 30.2654 247.791 31.1577 257.733 31.8305C261.166 32.0573 263.576 31.4502 266.076 31.5014L265.623 30.8797C270.321 26.2721 285.939 22.1619 287.072 15.2431C285.262 4.68955 258.19 4.63109 249.971 4.86512L248.593 4.60175Z" fill="#112B39"/>
<path d="M248.593 4.60175C242.664 4.06786 236.227 4.10447 230.244 4.00208C227.801 7.7686 225.003 9.74327 222.271 13.0344C218.155 17.9931 214.081 23.0541 209.998 28.0567L213.844 28.5613C215.378 28.7587 216.304 28.9855 217.839 28.6856L226.08 29.2122L227.924 29.4097C232.587 19.8288 243.74 11.9009 249.971 4.86512L248.593 4.60175Z" fill="#112B39"/>
<path d="M249.971 4.86512L248.593 4.60175C239.732 11.2352 230.935 19.0828 226.08 29.2122L227.924 29.4097C232.587 19.8288 243.74 11.9008 249.971 4.86512Z" fill="#225B96"/>
<path d="M217.839 28.6857C219.616 26.5793 236.894 5.25269 237.048 4.87238L236.054 4.96746C228.566 11.7545 221.911 19.4119 216.229 27.7641L215.899 28.2688L213.844 28.5613C215.378 28.7588 216.305 28.9855 217.839 28.6857Z" fill="#225B96"/>
<path d="M168.159 131.654C164.451 130.294 162.571 130.009 158.651 129.336C159.595 132.305 160.575 135.655 161.664 138.537C168.715 149.112 177.33 155.643 189.916 158.554L191.404 158.678C194.604 159.629 198.52 159.124 201.716 158.4L204.532 156.44C209.242 149.156 201.27 145.097 196.037 141.155L193.411 138.127C191.118 135.187 183.635 134.119 180.146 134.031L178.23 133.366C176.636 133.424 172.569 132.437 170.792 132.071L168.159 131.654Z" fill="#112B39"/>
<path d="M168.158 131.654C164.45 130.294 162.571 130.009 158.651 129.336C159.594 132.305 160.574 135.655 161.664 138.537C168.714 149.112 177.33 155.643 189.915 158.554L191.404 158.678C192.295 150.97 179.875 144.014 175.289 138.829C173.783 137.132 171.984 134.068 170.791 132.071L168.158 131.654Z" fill="#112B39"/>
<path d="M170.791 132.071L168.158 131.654C169.987 134.368 172.064 137.447 174.185 139.912C179.868 146.545 187.642 149.931 189.915 158.554L191.404 158.678C192.295 150.97 179.875 144.014 175.289 138.829C173.783 137.132 171.984 134.068 170.791 132.071Z" fill="#225B96"/>
<path d="M180.146 134.031L178.23 133.366C185.683 148.659 200.608 143.32 201.716 158.4L204.532 156.44C209.242 149.156 201.27 145.097 196.037 141.155L193.411 138.127C191.118 135.187 183.635 134.119 180.146 134.031Z" fill="#225B96"/>
<path d="M193.411 138.127C191.118 135.187 183.635 134.119 180.146 134.031C185.002 140.35 186.772 142.171 194.762 143.927H197.008L196.037 141.155L193.411 138.127Z" fill="#112B39"/>
<path d="M204.532 156.44C209.242 149.156 201.27 145.097 196.037 141.155L197.008 143.927H194.762L195.266 144.534C199.851 149.96 200.755 148.198 204.532 156.44Z" fill="#112B39"/>
<path d="M309.029 125.233C301.763 122.842 297.124 123.982 290.243 126.198L288.093 126.681L283.182 126.959L281.582 127.325C278.501 127.522 275.12 127.266 272.932 129.095C272.672 131.223 272.707 130.499 273.575 132.671C282.19 140.606 284.65 141.586 295.729 144.505L298.689 144.878C305.856 146.647 317.923 145.338 322.92 139.114L324.363 136.013C323.104 126.945 314.407 129.972 309.029 125.233Z" fill="#112B39"/>
<path d="M309.029 125.233C301.763 122.842 297.124 123.982 290.243 126.198C296.282 133.615 299.794 136.116 309.654 137.549C317.043 138.617 318.872 136.438 324.363 136.013C323.104 126.945 314.407 129.972 309.029 125.233Z" fill="#112B39"/>
<path d="M281.582 127.325C278.501 127.522 275.12 127.266 272.932 129.095C272.672 131.223 272.706 130.499 273.575 132.671C282.189 140.606 284.65 141.586 295.729 144.505C289.355 139.092 285.598 134.704 281.582 127.325Z" fill="#112B39"/>
<path d="M290.243 126.198L288.093 126.681C298.813 138.763 306.95 141.257 322.92 139.114L324.363 136.013C318.872 136.438 317.043 138.617 309.654 137.549C299.794 136.116 296.282 133.614 290.243 126.198Z" fill="#225B96"/>
<path d="M283.182 126.959L281.582 127.325C285.598 134.704 289.355 139.092 295.729 144.505L298.689 144.878L299.341 144.387C299.013 143.232 293.3 140.204 291.244 138.025C287.671 134.229 285.922 131.26 283.182 126.959Z" fill="#225B96"/>
<path d="M228.648 4.04601C219.249 3.91436 210.167 4.02403 200.795 4.92361L200.665 5.35509C198.038 8.76325 195.662 10.0066 192.665 12.9613C188.294 17.269 184.096 22.4397 179.671 26.6305C188.864 27.1059 198.745 27.4423 207.867 28.2395L209.998 28.0567C214.082 23.0541 218.155 17.9931 222.271 13.0344C225.004 9.74328 227.801 7.76861 230.244 4.00208L228.648 4.04601Z" fill="#112B39"/>
<path d="M230.244 4.00208L228.648 4.046C221.35 10.4308 212.546 19.7118 207.867 28.2395L209.998 28.0567C214.082 23.0541 218.155 17.9931 222.271 13.0344C225.004 9.74327 227.801 7.7686 230.244 4.00208Z" fill="#225B96"/>
<path d="M200.795 4.92358C195.985 4.96747 193.594 5.21615 188.813 6.13035L186.714 6.18151C182.816 6.45943 180.146 6.77394 176.292 7.3956C167.976 8.26592 159.741 7.96603 154.087 15.0383C152.215 17.3787 150.891 19.9604 148.946 22.2862C151.162 28.1225 157.964 26.3379 163.434 26.0088L164.67 26.3891L170.419 26.5573L172.906 26.4476L177.842 27.0034L179.671 26.6304C184.096 22.4397 188.294 17.269 192.665 12.9613C195.662 10.0066 198.038 8.76322 200.665 5.35506L200.795 4.92358Z" fill="#112B39"/>
<path d="M176.292 7.39563C167.976 8.26595 159.741 7.96606 154.088 15.0384C152.215 17.3787 150.892 19.9605 148.946 22.2862C151.162 28.1225 157.964 26.3379 163.435 26.0088C165.614 20.0848 172.569 11.9447 177.323 7.87103L176.292 7.39563Z" fill="#112B39"/>
<path d="M186.713 6.18153C182.815 6.45945 180.146 6.77396 176.291 7.39562L177.323 7.87102C172.569 11.9447 165.613 20.0848 163.434 26.0088L164.67 26.3891L170.419 26.5573L172.905 26.4476C173.432 23.0395 185.924 9.08508 188.812 6.13037L186.713 6.18153Z" fill="#112B39"/>
<path d="M188.812 6.13037L186.713 6.18153C180.928 10.972 173.666 19.8068 170.419 26.5573L172.905 26.4476C173.432 23.0395 185.924 9.08508 188.812 6.13037Z" fill="#225B96"/>
<path d="M164.67 26.3891C169.125 20.2969 173.659 13.8682 178.64 8.23672L177.323 7.87103C172.569 11.9447 165.614 20.0848 163.435 26.0088L164.67 26.3891Z" fill="#225B96"/>
<path d="M200.665 5.35504C194.664 6.54717 180.928 21.2695 177.842 27.0034L179.67 26.6304C184.095 22.4397 188.293 17.269 192.665 12.9613C195.662 10.0065 198.038 8.7632 200.665 5.35504Z" fill="#225B96"/>
<path d="M204.819 41.6453C190.245 44.4903 167.632 73.1013 165.833 87.4507C169.68 87.5019 170.814 87.1801 173.607 84.4448C186.341 71.9604 195.867 56.7407 204.819 41.6453Z" fill="#2D4654"/>
<path d="M232.604 47.9717C219.9 50.7509 210.285 61.5238 202.594 71.4411C199.152 75.8805 194.449 81.9582 194.723 87.714C204.101 86.3098 228.857 56.8431 232.604 47.9717Z" fill="#2D4654"/>
<path d="M260.966 51.5847C248.157 53.8885 224.379 73.4085 222.107 86.4487C232.906 86.0538 254.605 60.7925 260.966 51.5847Z" fill="#2D4654"/>
<path d="M186.063 89.2354C183.605 89.5498 183.986 89.0891 182.874 90.5152C183.283 99.4671 203.8 115.316 212.052 118.409L213.802 118.695L214.446 118.132C211.474 110.928 192.368 93.8503 186.063 89.2354Z" fill="#2D4654"/>
<path d="M284.075 56.3823C272.626 57.7427 253.13 74.5202 250.573 85.2932C260.14 85.4614 278.215 63.7837 284.075 56.3823Z" fill="#2D4654"/>
<path d="M213.466 90.113C211.956 90.091 212.348 90.1276 210.837 90.603C209.045 98.1653 230.12 113.568 236.674 116.544C238.078 116.625 237.665 116.61 239.07 116.259C236.839 109.728 219.294 94.2817 213.466 90.113Z" fill="#2D4654"/>
<path d="M240.847 90.7492C240.37 90.7565 239.112 91.0491 238.575 91.1588C236.485 98.0044 256.169 112.339 262.456 114.884L264.05 114.818C263.882 110.24 244.987 93.9233 240.847 90.7492Z" fill="#2D4654"/>
<path d="M305.227 60.7413C296.057 61.3629 278.274 76.4656 277.851 85.0738C285.842 84.1084 300.151 66.9213 305.227 60.7413Z" fill="#2D4654"/>
<path d="M268.278 91.5829C266.945 91.6927 267.375 91.6414 266.107 92.2119L266.113 93.8941C269.748 101.581 279.48 109.436 287.276 112.888L288.113 112.902L288.645 112.098C285.473 106.188 273.847 95.6859 268.278 91.5829Z" fill="#2D4654"/>
<path d="M326.612 63.7034C317.475 65.8536 307.968 75.5222 305.043 84.1669C312.364 83.1357 322.36 69.664 326.612 63.7034Z" fill="#2D4654"/>
<path d="M295.72 92.285C294.158 92.4898 294.822 92.1754 293.671 93.2724C294.533 99.5256 306.44 108.207 311.808 110.986C312.566 110.913 312.621 110.759 313.361 110.379C311.392 105.12 300.369 96.0004 295.72 92.285Z" fill="#2D4654"/>
<path d="M476 47.8181C451.531 43.1666 434.519 52.7182 414.036 65.0929C411.11 66.8628 408.373 69.2105 405.35 70.761C404.529 73.7669 402.96 75.5514 401.582 78.294C395.794 89.8276 393.744 97.4996 401.209 108.938C413.766 119.528 444.248 124.516 459.562 119.865C456.021 116.603 452.497 113.326 448.99 110.035L445.899 105.033L443.211 96.7464L443.151 91.1295C443.788 86.9022 444.812 84.2181 446.197 80.1663L449.173 74.7615C452.565 70.4099 456.015 66.3435 459.577 62.1382C461.526 60.5657 463.506 58.5984 465.343 56.8577L476 47.8181Z" fill="#112B39"/>
<path d="M465.343 56.8578C455.79 56.0752 427.688 61.8895 421.987 69.2617L422.333 70.1539C426.755 70.8414 451.124 63.3888 459.577 62.1382C461.526 60.5658 463.506 58.5984 465.343 56.8578Z" fill="#225B96"/>
<path d="M449.173 74.7615C439.829 74.9883 421.745 76.2389 414.357 81.6437L413.565 83.0187C416.677 85.0372 439.753 80.6198 446.197 80.1663L449.173 74.7615Z" fill="#225B96"/>
<path d="M443.151 91.1295C436.264 91.4733 416.64 90.1349 412.968 92.329C414.821 97.529 437.931 96.9951 443.211 96.7464L443.151 91.1295Z" fill="#225B96"/>
<path d="M445.899 105.033C441.11 104.894 428.639 103.906 424.785 106.042C426.636 109.809 445.519 111.659 448.99 110.035L445.899 105.033Z" fill="#225B96"/>
<path d="M69.5 117.484C70.3284 117.484 71 118.156 71 118.984C71 119.813 70.3284 120.484 69.5 120.484H48.5C47.6716 120.484 47 119.813 47 118.984C47 118.156 47.6716 117.484 48.5 117.484H69.5Z" fill="#112A39"/>
</g>
<defs>
<filter id="filter0_d_50_34881" x="0" y="0" width="484" height="171.2" filterUnits="userSpaceOnUse" color-interpolation-filters="sRGB">
<feFlood flood-opacity="0" result="BackgroundImageFix"/>
<feColorMatrix in="SourceAlpha" type="matrix" values="0 0 0 0 0 0 0 0 0 0 0 0 0 0 0 0 0 0 127 0" result="hardAlpha"/>
<feOffset dy="4"/>
<feGaussianBlur stdDeviation="4"/>
<feComposite in2="hardAlpha" operator="out"/>
<feColorMatrix type="matrix" values="0 0 0 0 0 0 0 0 0 0 0 0 0 0 0 0 0 0 0.15 0"/>
<feBlend mode="normal" in2="BackgroundImageFix" result="effect1_dropShadow_50_34881"/>
<feBlend mode="normal" in="SourceGraphic" in2="effect1_dropShadow_50_34881" result="shape"/>
</filter>
</defs>
</svg>
