<svg width="383" height="190" viewBox="0 0 383 190" fill="none" xmlns="http://www.w3.org/2000/svg">
<g filter="url(#filter0_d_50_35198)">
<circle cx="74.1035" cy="83" r="17" fill="white"/>
<path d="M9.5 124.986C15.6914 94.9855 26.5605 56.2879 55.2616 41.1747C59.7343 38.8456 64.4219 36.9335 69.2461 35.4618C74.6074 33.8534 100.857 28.3965 107.01 30.0078C108.494 30.3964 107.146 33.5497 112.937 35.3935L118.348 36.7704C120.545 36.539 122.283 36.205 124.461 36.5878L127.381 36.5224L129.891 36.2782L132.205 36.5868L137.42 37.4042L140.623 37.248L144.178 37.6523L146.902 37.4315L153.807 38.0829L156.951 37.9852L161.844 38.4901L165.066 37.9618C167.303 38.2069 170.359 38.4364 172.478 38.9003L175.896 38.4374L179.031 39.1014L182.508 38.9354L183.435 38.9179L187.811 39.1893L195.262 39.7782L198.445 39.7831L202.254 40.1903L205.252 39.8632L208.367 40.0067L211.629 39.9755C214.5 40.1171 222.107 40.9217 224.1 39.6522L224.715 36.5116C233.318 34.4462 266.609 49.6317 275.32 55.1853C294.461 67.3874 305.223 78.5397 316.014 98.0904L360.057 54.406C362.957 63.6501 375.76 101.972 374.353 109.222C371.521 122.299 366.316 139.208 362.4 152.043C347.137 139.962 331.258 126.526 315.906 114.933C259.031 171.889 221.648 175.4 141.619 177.349C131.141 177.604 103.738 176.406 93.3769 174.607C89.1386 174.391 86.5019 173.862 82.3515 173.091L78.6406 172.029C72.5664 172.264 57.625 168.714 51.4238 166.411C35.6914 160.57 19.4512 151.186 12 135.986C19.832 131.958 35.4531 135.29 43.5 131.486C36.6641 128.588 28.4238 127.665 21.5 124.986H9.5ZM88.1816 69.2116C83.6113 63.946 76.5996 61.4851 69.7344 62.74C62.8789 63.9958 57.1952 68.78 54.7831 75.3229C51.4628 84.3492 55.1347 94.4566 63.4843 99.2398C71.8242 104.024 82.4101 102.087 88.5136 94.6588C94.6269 87.2301 94.4805 76.4762 88.1816 69.2116Z" fill="#8B6E7E"/>
<path d="M8 124.986C14.1914 94.9855 26.5605 56.2879 55.2616 41.1747C59.7343 38.8456 64.4219 36.9335 69.2461 35.4618C74.6074 33.8534 100.857 28.3965 107.01 30.0078C108.494 30.3964 107.146 33.5497 112.937 35.3935L118.348 36.7704C120.545 36.539 122.283 36.205 124.461 36.5878L127.381 36.5224L129.891 36.2782L132.205 36.5868L137.42 37.4042L140.623 37.248L144.178 37.6523L146.902 37.4315L153.807 38.0829L156.951 37.9852L161.844 38.4901L165.066 37.9618C167.303 38.2069 170.359 38.4364 172.478 38.9003L175.896 38.4374L179.031 39.1014L182.508 38.9354L183.435 38.9179L187.811 39.1893L195.262 39.7782L198.445 39.7831L202.254 40.1903L205.252 39.8632L208.367 40.0067L211.629 39.9755C214.5 40.1171 222.107 40.9217 224.1 39.6522L224.715 36.5116C233.318 34.4462 266.609 49.6317 275.32 55.1853C294.461 67.3874 305.223 78.5397 316.014 98.0904L360.057 54.406C362.957 63.6501 375.76 101.972 374.353 109.222C374.002 108.14 373.787 108.043 373.133 107.075C362.205 108.666 350.105 108.837 339.363 109.71C312.254 112.899 283.562 111.095 261.385 92.9214C228.25 65.7605 203.533 70.6833 163.768 70.1599C139.1 69.8347 113.836 68.7273 88.1816 69.2116C83.6113 63.946 76.5996 61.4851 69.7344 62.74C62.8789 63.9958 57.1952 68.78 54.7831 75.3229C33.2988 79.1305 27.498 107.009 24.5 125.986L8 124.986Z" fill="#4A4458"/>
<path d="M54.7838 75.3229C57.1959 68.78 62.8796 63.9958 69.7351 62.74C76.6003 61.4851 83.612 63.946 88.1823 69.2116C94.4812 76.4762 94.6276 87.2301 88.5143 94.6588C82.4108 102.087 71.8249 104.024 63.485 99.2398C55.1354 94.4566 51.4635 84.3492 54.7838 75.3229ZM80.2722 81.3717C82.2937 80.1198 82.9479 77.4762 81.7467 75.4206C80.5358 73.3649 77.9089 72.6501 75.8288 73.8102C74.4421 74.5847 73.5827 76.0495 73.5827 77.6403C73.5827 79.2301 74.4421 80.6959 75.8288 81.4704C77.2155 82.2448 78.9148 82.2076 80.2722 81.3717ZM78.0652 91.2222C73.6706 91.0504 70.2429 90.3092 67.1667 86.8121C65.4089 84.7955 64.5202 82.1569 64.7155 79.486C65.3893 69.7556 75.0866 69.3171 82.3913 70.7536C75.1842 64.5046 66.2097 64.9773 60.6042 72.9987C58.0456 76.6198 57.1081 81.1412 58.0163 85.4811C59.3347 91.9361 63.7878 94.858 69.2761 97.6382L68.6803 94.7701C71.9225 91.6851 72.948 92.3414 78.0652 91.2222Z" fill="#0E2F4F"/>
<path d="M78.0647 91.2221C73.6702 91.0502 70.2424 90.309 67.1662 86.812C65.4084 84.7954 64.5197 82.1567 64.715 79.4859C65.3889 69.7554 75.0861 69.317 82.3908 70.7535L84.217 72.2125L84.5978 71.3248C96.0138 82.4028 86.7854 98.9086 69.2756 97.6381L68.6798 94.7699C71.922 91.685 72.9475 92.3413 78.0647 91.2221ZM80.2717 81.3716C82.2932 80.1196 82.9474 77.4761 81.7462 75.4205C80.5353 73.3648 77.9084 72.65 75.8283 73.8101C74.4416 74.5845 73.5822 76.0494 73.5822 77.6402C73.5822 79.23 74.4416 80.6958 75.8283 81.4702C77.215 82.2446 78.9143 82.2075 80.2717 81.3716Z" fill="#232323"/>
<path d="M84.2168 72.2125L84.5977 71.3248C96.0137 82.4029 86.7853 98.9087 69.2755 97.6382L68.6797 94.77C71.9219 91.6851 72.9474 92.3413 78.0646 91.2222C81.0724 88.7241 84.8321 85.9273 87.0293 82.7789C87.7129 78.2701 86.4044 78.3043 84.5098 73.0602L84.2168 72.2125Z" fill="#F2EAEE"/>
<path d="M78.6406 172.029C127.723 138.208 103.894 101.781 111.17 90.0571L112.566 90.0923C115.701 95.1196 114.852 108.515 114.803 114.888C113.689 140.701 103.357 158.326 82.3515 173.091L78.6406 172.029Z" fill="#F2EAEE"/>
<path d="M144.871 139.512C157.146 137.245 168.553 134.97 178.357 144.86L180.105 147.182C181.16 149.949 182.352 152.342 182.41 155.263L182.869 156.908C181.17 158.888 179.383 161.31 177.186 162.601L175.633 162.837C172.469 164.839 168.064 166.857 164.275 166.994L162.674 167.405C148.924 170.154 139.441 166.496 132.02 154.436L130.721 152.4C129.236 150.615 129.393 147.722 129.197 145.272L129.402 143.072C131.902 140.93 130.516 141.519 133.621 141.062L136.228 140.859C137.869 139.989 139.021 140.068 140.867 139.934L144.871 139.512Z" fill="#F2EAEE"/>
<path d="M144.871 139.512C157.146 137.245 168.553 134.97 178.357 144.86L180.106 147.182C181.16 149.949 182.352 152.342 182.41 155.263C165.291 148.973 156.814 153.019 136.229 140.859C137.869 139.989 139.021 140.068 140.867 139.934L144.871 139.512Z" fill="#F2EAEE"/>
<path d="M144.871 139.512C157.146 137.245 168.553 134.97 178.357 144.86C164.764 140.837 155.379 142.384 144.871 139.512Z" fill="#F2EAEE"/>
<path d="M144.871 139.512C155.379 142.384 164.764 140.837 178.357 144.859L180.106 147.182C167.137 142.59 153.904 144.119 140.867 139.934L144.871 139.512Z" fill="#975B70"/>
<path d="M133.621 141.062L136.228 140.859C156.814 153.019 165.291 148.973 182.41 155.263L182.869 156.908C181.17 158.888 179.383 161.31 177.186 162.601L175.633 162.837C159.353 156.325 144.48 153.668 129.197 145.272L129.402 143.072C131.902 140.93 130.516 141.519 133.621 141.062Z" fill="#F5E1E5"/>
<path d="M129.402 143.072C146.121 154.157 165.389 153.74 177.186 162.601L175.633 162.837C159.353 156.325 144.48 153.668 129.197 145.272L129.402 143.072Z" fill="#975B70"/>
<path d="M133.621 141.062L136.229 140.859C156.814 153.019 165.291 148.973 182.41 155.263L182.869 156.908C161.834 152.158 153.055 152.461 133.621 141.062Z" fill="#975B70"/>
<path d="M132.02 154.436C141.922 159.345 152.469 163.112 162.674 167.405C148.924 170.154 139.441 166.496 132.02 154.436Z" fill="#F2EAEE"/>
<path d="M130.721 152.4C142.723 157.901 152.479 160.591 164.275 166.994L162.674 167.405C152.469 163.112 141.922 159.345 132.02 154.436L130.721 152.4Z" fill="#975B70"/>
<path d="M93.4551 174.036C94.5977 172.035 98.4062 168.798 100.154 166.566C105.848 159.302 111.209 151.384 114.666 142.809C117.791 135.046 115.34 124.613 120.789 117.992C124.207 131.568 107.4 171.758 93.4551 174.036Z" fill="#FDFDFD"/>
<path d="M181.15 80.313C186.141 80.0181 193.953 79.3658 196.131 84.7905C193.904 88.1206 194.774 87.0073 190.486 89.1616C185.887 89.3549 179.051 89.4048 176.502 85.0972C177.586 82.0464 178.123 82.4302 181.15 80.313Z" fill="#FFEAD5"/>
<path d="M141.101 90.938C145.926 90.5425 154.041 89.9156 156.268 95.0914C154.725 97.9693 154.92 97.2095 151.756 99.2193C146.863 99.7193 139.578 100.493 136.668 95.7906C137.791 92.4263 137.517 93.4458 141.101 90.938Z" fill="#FFEAD5"/>
<path d="M188.045 95.7973C192.771 95.5571 200.828 94.9487 203.24 99.6313C201.98 102.927 202.234 101.97 198.855 104.43C193.963 104.842 187.244 105.167 184.031 100.96C184.793 97.4965 184.539 98.5962 188.045 95.7973Z" fill="#FFEAD5"/>
<path d="M216.053 121.343C220.604 121.31 227.918 121.148 229.422 126.287C227.264 129.304 227.742 128.431 223.973 130.26C219.412 130.402 211.883 130.85 209.959 125.925C211.883 122.924 212.664 123.169 216.053 121.343Z" fill="#FFEAD5"/>
<path d="M226.209 86.0669C230.936 85.8179 237.85 85.7066 240.018 90.6812C237.908 93.8862 237.986 93.1597 234.217 94.8853C229.734 95.2319 223.162 95.3989 220.789 90.9556C222.312 87.6089 222.654 88.188 226.209 86.0669Z" fill="#FFEAD5"/>
<path d="M155.027 121.172C159.9 121.077 163.914 120.673 167.498 124.482C166.561 127.497 166.814 126.568 163.543 128.82C159.441 129.03 151.15 129.542 151.385 123.989L155.027 121.172Z" fill="#FFEAD5"/>
<path d="M129.353 107.434C130.945 107.401 132.527 107.404 134.119 107.441C137.635 107.554 139.578 107.954 141.853 110.396C141.023 113.265 141.082 112.45 137.898 114.625C133.055 115.163 129.49 115.792 125.643 112.201L125.848 110.197L129.353 107.434Z" fill="#FFEAD5"/>
<path d="M182.107 115.348C187.02 115.025 195.037 113.619 196.6 119.135L194.988 121.909L194.432 121.964C190.008 122.396 184.539 123.302 181.004 120.399C180.232 117.509 180.242 118.689 182.107 115.348Z" fill="#FFEAD5"/>
<path d="M244.275 108.392C245.066 108.344 245.858 108.308 246.639 108.285C250.291 108.174 254.197 108.199 256.922 110.769C257.088 113.841 257.391 112.622 254.969 115.482C249.949 115.772 245.418 116.355 241.414 113.235C241.443 110.288 241.424 111.241 244.275 108.392Z" fill="#FFEAD5"/>
<path d="M217.732 105.383C218.23 105.411 218.729 105.45 219.227 105.5C222.625 105.853 225.711 106.43 227.85 109.075C226.951 112.188 227.303 111.169 223.631 113.391C219.422 113.494 215.906 113.889 213.016 110.396C213.943 107.16 214.451 107.659 217.732 105.383Z" fill="#FFEAD5"/>
<path d="M163.563 104.478C167.674 104.345 172.566 104.076 175.897 106.62L176.072 108.736L173.524 111.441C169.393 111.675 160.994 112.605 160.848 107.208L163.563 104.478Z" fill="#FFEAD5"/>
<path d="M112.937 35.3934C113.064 25.4833 107.771 18.0751 110.828 6.33591L110.398 7.92672L111.902 4.59961C114.705 8.23338 113.631 20.6981 114.754 25.826C115.613 29.7284 116.932 33.0565 118.348 36.7703L112.937 35.3934Z" fill="#975B70"/>
<path d="M179.031 39.1014C178.718 30.2752 180.545 11.7832 188.24 6.47266C189.187 11.165 183.396 20.6493 182.449 25.9872C181.707 30.163 182.693 34.8866 182.508 38.9354L179.031 39.1014Z" fill="#975B70"/>
<path d="M153.807 38.0828C153.729 25.9237 155.125 17.83 159.461 6.27539L160.711 6.13574L160.809 5.0918C160.096 17.7138 156.229 24.7411 156.951 37.9851L153.807 38.0828Z" fill="#975B70"/>
<path d="M144.178 37.6522C143.719 27.1757 146.844 14.5273 150.799 4.76757L151.521 4.70996C151.033 16.3642 146.824 25.4266 146.902 37.4314L144.178 37.6522Z" fill="#975B70"/>
<path d="M161.844 38.4901C162.654 27.4638 164.266 17.0116 169.021 6.83397L170.213 6.06445C170.32 13.955 165.174 26.1581 165.066 37.9617L161.844 38.4901Z" fill="#975B70"/>
<path d="M172.479 38.9002C172.498 31.4276 176.688 11.4697 180.232 5.54199C182.791 8.88182 175.564 30.0243 175.896 38.4373L172.479 38.9002Z" fill="#975B70"/>
<path d="M183.436 38.9178L183.758 38.1659C188.611 26.497 187.449 21.4345 195.428 9.8418L196.356 9.57227C194.432 20.6298 188.875 26.163 187.811 39.1893L183.436 38.9178Z" fill="#975B70"/>
<path d="M137.42 37.4041C136.873 22.9813 135.711 17.663 142.918 5.15918L143.611 5.28417C141.267 18.6669 138.553 23.6073 140.623 37.2479L137.42 37.4041Z" fill="#975B70"/>
<path d="M124.461 36.5877C122.645 29.4872 120.77 9.32321 126.541 4L127.645 4.17872C127.928 18.4159 122.703 18.4921 127.381 36.5223L124.461 36.5877Z" fill="#975B70"/>
<path d="M129.891 36.2781C128.641 25.5721 130.437 14.9023 134.617 5.00781L135.213 5.50098C134.715 16.0507 131.521 26.743 132.205 36.5867L129.891 36.2781Z" fill="#975B70"/>
<path d="M195.262 39.7782C195.477 30.4188 197.391 18.833 202.293 10.7041L203.396 10.4414C203.797 14.9072 197.762 29.1259 198.572 35.2791C198.601 35.4588 198.455 39.243 198.445 39.783L195.262 39.7782Z" fill="#975B70"/>
<path d="M202.254 40.1902C202.85 34.7635 207.498 16.7665 211.873 13.912C210.223 23.7049 206.414 29.8162 205.252 39.863L202.254 40.1902Z" fill="#975B70"/>
<path d="M208.367 40.0067C210.154 27.91 212.762 20.3359 221.932 11.7266C216.521 22.1953 212.283 28.0468 211.629 39.9754L208.367 40.0067Z" fill="#975B70"/>
<path d="M223.182 28.3983C225.008 31.2674 223.826 33.4139 223.133 36.4676C222.596 34.5077 221.912 32.7987 221.209 30.8973L223.182 28.3983Z" fill="#018E8A" fill-opacity="0.247059"/>
</g>
<defs>
<filter id="filter0_d_50_35198" x="0" y="0" width="382.461" height="189.383" filterUnits="userSpaceOnUse" color-interpolation-filters="sRGB">
<feFlood flood-opacity="0" result="BackgroundImageFix"/>
<feColorMatrix in="SourceAlpha" type="matrix" values="0 0 0 0 0 0 0 0 0 0 0 0 0 0 0 0 0 0 127 0" result="hardAlpha"/>
<feOffset dy="4"/>
<feGaussianBlur stdDeviation="4"/>
<feComposite in2="hardAlpha" operator="out"/>
<feColorMatrix type="matrix" values="0 0 0 0 0 0 0 0 0 0 0 0 0 0 0 0 0 0 0.15 0"/>
<feBlend mode="normal" in2="BackgroundImageFix" result="effect1_dropShadow_50_35198"/>
<feBlend mode="normal" in="SourceGraphic" in2="effect1_dropShadow_50_35198" result="shape"/>
</filter>
</defs>
</svg>
