<svg width="364" height="182" viewBox="0 0 364 182" fill="none" xmlns="http://www.w3.org/2000/svg">
<g filter="url(#filter0_d_79_19036)">
<path d="M200.467 4C196.265 5.63468 194.19 6.85158 190.437 8.79635C186.092 11.046 176.894 9.50597 171.762 9.07184C163.663 8.38703 157.113 14.3591 151.292 19.6653C148.553 19.833 146.01 19.974 143.265 20.0106C137.541 20.7509 129.455 21.5415 124.011 22.729C117.786 23.9289 112.322 25.2646 106.201 26.8059C98.6689 29.128 92.9187 31.1047 85.5814 33.9804C82.5893 35.3024 79.0443 36.7524 76.1757 38.2251C58.6847 46.4749 42.4685 57.2231 28.0412 70.134C25.0686 72.7473 16.7166 81.3346 14.8562 82.6011C13.4512 82.1898 12.0462 81.772 10.6412 81.3411C8.98254 82.5488 9.58744 81.7589 8.98251 83.9328C9.5289 86.3744 9.68503 86.6617 10.7128 88.9857C9.88668 91.9953 8.13689 91.6428 8.00029 94.9787C9.61345 97.6031 11.0185 97.6814 13.8155 98.9152C19.325 101.35 23.9888 110.203 29.4917 115.961C56.9609 144.665 92.2552 156.606 130.717 160.542C135.258 161.476 156.021 160.62 161.504 160.444C169.303 166.019 176.543 164.87 185.584 166.241C191.159 167.083 201.163 171.105 206.393 169.708C211.388 168.2 218.885 161.45 224.168 161.854C240.975 163.147 247.325 167.247 260.902 152.943C275.826 137.223 293.644 119.427 284.614 95.6968L289.69 97.4203C289.785 91.5644 292.031 89.9715 292.238 84.7554C292.365 81.537 287.298 78.3381 287.032 75.0753C286.388 67.2087 290.674 68.2245 287.313 59.6C284.295 60.0844 281.27 60.5251 278.24 60.922L277.865 60.6635C290.024 43.6032 264.33 20.2894 251.283 12.1342C245.693 8.64031 238.364 4.46939 231.604 4.865C225.43 5.22667 220.246 10.2385 213.844 9.27553C209.404 8.12199 205.306 5.46886 200.467 4Z" fill="#8B6E7D"/>
<path d="M76.1759 38.2252C58.6848 46.4749 42.4687 57.2231 28.0414 70.134C39.8538 74.9206 50.3784 82.4249 58.7694 92.041C64.513 98.6215 75.9872 119.884 86.0564 114.772C97.7973 110.137 108.875 84.997 100.907 74.3239C90.8374 60.8463 83.5196 54.7658 76.1759 38.2252Z" fill="#4A4458"/>
<path d="M62.0669 54.8664C58.1641 53.8134 54.1506 56.1127 53.0643 60.0172C51.9846 63.9224 54.2417 67.9732 58.125 69.0922C62.0538 70.2248 66.1453 67.9269 67.2445 63.9747C68.3373 60.0225 66.0152 55.9325 62.0669 54.8664Z" fill="#FFFEFE"/>
<path d="M61.7035 57.4966C59.2448 56.6871 56.6039 58.026 55.7973 60.4879C54.9907 62.9497 56.3242 65.6021 58.7764 66.4142C61.2287 67.2263 63.876 65.8874 64.6826 63.4243C65.4892 60.9611 64.1558 58.3068 61.7035 57.4966Z" fill="#322E55"/>
<path d="M284.614 95.6968H284.411C281.96 99.0328 277.097 104.34 274.046 107.35C263.819 117.168 244.23 133.868 231.471 139.012C222.639 144.75 204.539 151.487 194.021 154.112C185.558 156.292 173.635 159.308 165.01 159.511L161.504 160.444C169.303 166.019 176.543 164.87 185.584 166.241C191.159 167.083 201.163 171.105 206.392 169.708C211.388 168.2 218.885 161.45 224.168 161.854C240.975 163.147 247.324 167.247 260.902 152.943C275.826 137.223 293.644 119.427 284.614 95.6968Z" fill="#4A4458"/>
<path d="M200.466 4C196.264 5.63468 194.189 6.85158 190.436 8.79635C186.091 11.046 176.893 9.50597 171.761 9.07184C163.663 8.38703 157.113 14.3591 151.291 19.6653C162.277 19.7462 173.348 19.5837 184.166 21.659C188.921 21.7041 197.617 23.7304 202.548 24.7965C221.628 30.1222 236.982 35.3011 254.442 45.2626C260.954 48.8434 272.262 55.6452 277.864 60.6635C290.023 43.6031 264.329 20.2894 251.283 12.1342C245.693 8.64031 238.364 4.46939 231.603 4.865C225.43 5.22667 220.246 10.2385 213.844 9.27553C209.404 8.12199 205.306 5.46886 200.466 4Z" fill="#4A4458"/>
<path d="M165.009 159.511C181.004 150.319 162.18 137.171 151.499 135.63C144.988 134.697 137.169 133.3 131.205 137.478C123.282 143.588 125.474 153.655 130.717 160.542C135.257 161.476 156.02 160.62 161.503 160.444L165.009 159.511Z" fill="#D3BAB4"/>
<path d="M231.47 139.012C235.1 132.072 233.388 129.905 226.757 126.602C210.366 118.435 172.724 134.52 194.02 154.112C204.538 151.487 222.639 144.75 231.47 139.012Z" fill="#D3BAB4"/>
<path d="M254.442 45.2625C245.63 55.2638 249.713 66.967 263.338 67.6016L265.365 67.7073C268.677 70.3225 271.716 73.2727 276.18 72.5363C282.745 71.4539 280.365 65.4002 278.63 61.7333L278.239 60.9218L277.864 60.6633C272.262 55.645 260.954 48.8432 254.442 45.2625Z" fill="#D3BAB4"/>
<path d="M202.548 24.7964C197.618 23.7304 188.921 21.704 184.166 21.659C172.776 26.3469 171.931 35.2724 183.281 40.1137C190.606 43.2355 212.312 35.837 202.548 24.7964Z" fill="#D3BAB4"/>
<path d="M284.411 95.6967C283.969 88.5287 281.497 80.5184 272.603 81.341C269.687 81.5956 267.01 83.0579 265.218 85.382C258.767 93.7512 266.397 103.25 274.045 107.35C277.097 104.34 281.96 99.0327 284.411 95.6967Z" fill="#D3BAB4"/>
<path d="M106.201 26.8059C98.6687 29.128 92.9185 31.1048 85.5813 33.9805C85.8415 34.7032 86.1212 35.418 86.4204 36.1244C94.9285 55.7699 116.387 43.6769 106.201 26.8059Z" fill="#D3BAB4"/>
<path d="M143.264 20.0105C137.54 20.7508 129.455 21.5414 124.011 22.7289C124.98 25.1012 125.871 27.0473 128.538 27.8183C133.371 29.2115 144.682 30.5328 146.673 24.3616C146.192 22.1629 144.995 21.5061 143.264 20.0105Z" fill="#D3BAB4"/>
<path d="M228.182 35.7627C226.155 35.6419 224.168 35.4983 222.161 35.8704C217.322 36.7994 213.098 39.7345 210.529 43.9544C203.803 54.7632 209.579 76.8562 219.926 73.8192C239.042 65.591 253.216 66.5121 235.045 39.5073C234.201 38.2539 229.72 36.4149 228.182 35.7627Z" fill="#D3BAB4"/>
<path d="M196.115 72.3001C174.494 71.4143 165.992 98.2625 188.661 104.595C193.494 105.509 196.785 105.933 201.404 103.466C205.384 101.331 208.286 97.6031 209.378 93.203C210.517 88.7246 209.827 83.9786 207.472 80.0094C204.767 75.5179 201.065 73.393 196.115 72.3001Z" fill="#D3BAB4"/>
<path d="M121.246 35.5009C107.84 38.9707 99.794 70.9782 121.968 75.1262C140.11 71.7224 139.941 44.1594 121.246 35.5009Z" fill="#D3BAB4"/>
<path d="M115.08 121.921C98.6627 120.896 81.9587 142.831 102.689 152.845C112.94 154.373 111.087 151.755 116.609 144.62C124.135 134.912 129.534 128.351 115.08 121.921Z" fill="#D3BAB4"/>
<path d="M155.259 66.4756C147.349 65.2535 139.921 70.5937 138.522 78.5014C137.13 86.4071 142.282 93.9864 150.127 95.5662C155.356 96.6173 160.749 94.7437 164.216 90.6701C167.683 86.5964 168.678 80.956 166.818 75.9292C164.957 70.9096 160.534 67.2916 155.259 66.4756Z" fill="#D3BAB4"/>
<path d="M178.995 109.883C171.957 108.12 164.834 112.409 163.078 119.466C161.315 126.53 165.589 133.685 172.62 135.454C179.106 137.08 185.779 133.567 188.114 127.281C189.123 124.571 189.22 121.601 188.381 118.833C187.035 114.4 183.47 110.999 178.995 109.883Z" fill="#D3BAB4"/>
<path d="M154.875 31.7659C139.511 30.1065 137.189 52.7713 155.708 57.3084C177.225 56.9546 170.473 38.5919 154.875 31.7659Z" fill="#D3BAB4"/>
<path d="M142.685 100.234C128.297 100.221 120.14 121.843 135.719 127.209C151.096 124.793 159.558 107.611 142.685 100.234Z" fill="#D3BAB4"/>
<path d="M247.654 98.4321C233.93 97.9751 226.714 114.629 241.265 122.417C254.416 122.6 263.194 104.438 247.654 98.4321Z" fill="#D3BAB4"/>
<path d="M235.856 79.3305C225.667 78.9518 208.194 91.1466 223.007 98.3016C229.657 98.628 242.736 98.171 242.311 86.9489C242.195 83.8806 238.399 80.8777 235.856 79.3305Z" fill="#D3BAB4"/>
<path d="M185.824 49.3263C173.856 48.4809 171.683 56.8626 181.2 63.5691C192.088 64.3642 194.794 55.2318 185.824 49.3263Z" fill="#D3BAB4"/>
<path d="M220.478 103.491C215.257 103.531 208.338 104.941 208.923 111.502C210.25 113.852 210.751 113.969 213.1 115.51C222.176 116.626 228.998 110.908 220.478 103.491Z" fill="#D3BAB4"/>
<path d="M119.99 85.689C116.693 85.3756 113.726 87.6801 113.2 90.9638C112.679 94.241 114.787 97.3615 118.013 98.0927C120.29 98.6084 122.664 97.812 124.173 96.0233C125.682 94.241 126.079 91.7537 125.201 89.5863C124.322 87.4124 122.313 85.9175 119.99 85.689Z" fill="#D3BAB4"/>
<path d="M262.06 70.8711C254.855 70.8391 249.271 76.1969 254.728 82.8426C262.692 82.8426 269.725 77.731 262.06 70.8711Z" fill="#D3BAB4"/>
<path d="M330.169 131.139C336.646 136.799 342.493 133.567 345.992 126.523C358.118 101.938 358.108 70.3521 351.888 44.111C349.729 35.006 345.279 20.5133 333.302 23.8773C321.255 32.2714 316.236 45.0034 301.341 53.8166C296.507 56.5696 292.826 58.3446 287.313 59.6C290.673 68.2245 286.388 67.2087 287.032 75.0753C287.298 78.3381 292.365 81.537 292.238 84.7554C292.031 89.9715 289.785 91.5644 289.69 97.4203C296.043 100.09 298.232 101.683 303.995 104.765C311.204 109.942 315.241 113.539 321.102 120.4C323.572 123.292 327.664 128.658 330.169 131.139Z" fill="#D3BAB4"/>
<path d="M301.341 53.8165C296.507 56.5695 292.826 58.3445 287.313 59.5999C290.673 68.2244 286.387 67.2086 287.031 75.0752C287.298 78.338 292.365 81.5369 292.238 84.7553C292.031 89.9714 289.785 91.5643 289.69 97.4202C296.043 100.09 298.232 101.683 303.995 104.765C306.757 103.713 307.883 103.309 309.315 101.037L308.932 99.4047C306.556 96.7934 303.574 95.6184 300.386 93.9863C315.949 93.8296 315.584 87.3471 302.245 81.9351C305.718 81.328 314.758 80.3749 314.039 75.6092C311.981 73.1598 309.634 72.2445 306.782 70.7274C307.593 68.84 314.286 68.2055 315.898 63.8557C313.283 58.5613 301.959 60.8103 297.476 61.6119C299.628 59.6476 302.458 57.7022 302.745 55.0112L301.341 53.8165Z" fill="#4A4458"/>
<path d="M330.169 131.139C336.646 136.799 342.493 133.567 345.992 126.523C358.118 101.938 358.108 70.3521 351.888 44.111C349.729 35.006 345.279 20.5133 333.302 23.8773C336.665 24.8226 339.617 25.9781 341.447 29.2272C344.237 34.1783 340.817 41.3287 341.685 46.616C342.55 51.8901 350.148 55.7131 348.114 61.849C346.362 67.1323 343.969 69.2814 346.38 74.8605C348.412 79.5589 351.945 82.9405 349.907 88.2807C348.458 92.0801 344.792 94.6653 344.015 98.6345C343.283 102.375 346.26 105.568 346.257 109.458C346.255 113.447 342.613 114.276 341.392 117.612C340.26 120.7 340.359 124.245 339.656 127.385C339.332 128.828 337.45 130.036 336.072 130.466C334.346 131.002 332.046 131.139 330.169 131.139Z" fill="#8B6E7D"/>
</g>
<defs>
<filter id="filter0_d_79_19036" x="0" y="0" width="364" height="182" filterUnits="userSpaceOnUse" color-interpolation-filters="sRGB">
<feFlood flood-opacity="0" result="BackgroundImageFix"/>
<feColorMatrix in="SourceAlpha" type="matrix" values="0 0 0 0 0 0 0 0 0 0 0 0 0 0 0 0 0 0 127 0" result="hardAlpha"/>
<feOffset dy="4"/>
<feGaussianBlur stdDeviation="4"/>
<feComposite in2="hardAlpha" operator="out"/>
<feColorMatrix type="matrix" values="0 0 0 0 0 0 0 0 0 0 0 0 0 0 0 0 0 0 0.15 0"/>
<feBlend mode="normal" in2="BackgroundImageFix" result="effect1_dropShadow_79_19036"/>
<feBlend mode="normal" in="SourceGraphic" in2="effect1_dropShadow_79_19036" result="shape"/>
</filter>
</defs>
</svg>
