<svg width="384" height="193" viewBox="0 0 384 193" fill="none" xmlns="http://www.w3.org/2000/svg">
<g filter="url(#filter0_d_50_35099)">
<path d="M132.379 31.5077C136.723 31.4253 140.357 31.6631 144.382 30.0406L148.5 31.3018C152.453 31.4479 158.671 31.4861 162.357 32.2387C167.782 33.0582 174.34 33.8715 179.59 35.0626C181.855 35.5053 187.033 36.3691 188.989 37.0136C202.979 40.3153 216.702 44.6856 230.023 50.0864C236.89 53.1081 243.787 55.9444 250.242 59.7423C265.714 68.2091 277.533 75.6968 291.008 87.3468C304.72 58.2752 341.956 31.2946 372.809 52.06C367.188 72.3385 360.146 82.3743 341.472 92.9557C340.463 93.5301 339.444 94.0789 338.404 94.6009C359.302 104.836 367.733 111.408 376 133.426C346.897 149.865 321.573 138.88 299.851 115.703C296.845 112.493 292.84 105.081 289.176 107.115C278.078 119.814 244.559 140.003 228.118 143.63L227.11 144.555C234.686 148.304 251.662 152.933 254.792 159.964C252.403 171.412 238.64 168.509 229.858 167.109C219.224 165.41 208.94 158.729 200.261 152.562C189.751 157.339 173.588 158.852 161.904 159.707C167 164.484 172.435 168.88 174.577 175.623L174.268 178.444C162.316 187.802 140.388 169.075 132.42 160.613C121.559 159.171 112.49 158.235 101.66 156.124C68.9953 149.751 28.0333 128.464 9.44127 99.8175C8.22651 98.4348 8.62797 98.9248 8 97.0552C11.356 86.8805 28.5891 71.2503 36.5159 63.6215C35.7644 56.9121 38.997 50.3808 44.8031 46.9247C50.5989 43.4686 57.8875 43.7291 63.4259 47.5898C85.2607 36.7119 108.218 32.4826 132.379 31.5077Z" fill="#CB997E"/>
<path d="M9.44141 99.8175C17.2035 96.9503 35.9397 98.3103 45.5136 96.0319C75.8105 88.8212 83.8094 117.241 98.5101 129.371C137.022 161.128 197.647 139.268 238.763 125.669C248.512 122.533 284.276 106.596 289.176 107.115C278.078 119.814 244.559 140.003 228.119 143.63L227.11 144.555C234.687 148.304 251.662 152.933 254.792 159.964C252.404 171.412 238.64 168.509 229.858 167.109C219.224 165.41 208.94 158.729 200.262 152.562C189.751 157.339 173.588 158.852 161.904 159.707C167 164.484 172.435 168.88 174.577 175.623L174.268 178.444C162.316 187.802 140.388 169.075 132.42 160.613C121.56 159.171 112.49 158.235 101.66 156.124C68.9955 149.751 28.0334 128.464 9.44141 99.8175Z" fill="#7A8A4C"/>
<path d="M193.024 145.386C204.39 145.209 216.65 144.128 228.119 143.63L227.11 144.555C234.687 148.304 251.662 152.933 254.792 159.964C252.403 171.413 238.64 168.509 229.858 167.109C219.224 165.41 208.94 158.729 200.262 152.562L193.024 145.386Z" fill="#376E56"/>
<path d="M132.42 160.613C142.169 160.603 152.268 160.85 161.904 159.707C166.999 164.484 172.435 168.88 174.576 175.623L174.267 178.444C162.315 187.803 140.388 169.076 132.42 160.613Z" fill="#376E56"/>
<path d="M179.59 35.0627C181.855 35.5053 187.033 36.3691 188.989 37.0136C202.98 40.3153 216.702 44.6856 230.023 50.0865C228.86 52.6984 225.556 59.3058 225.514 61.7396C222.786 65.3779 220.861 68.8598 218.586 72.7802C216.692 77.4913 215.601 79.5812 213.058 83.9917L211.658 84.0967C210.495 86.3647 209.208 89.0425 207.983 91.2261C202.383 86.0301 195.897 78.3571 190.678 72.5167C188.619 75.633 185.921 80.025 183.77 82.9159C179.137 76.6183 174.608 70.2486 170.181 63.81L169.584 62.5004C170.953 60.2859 172.158 57.8871 173.383 55.581C174.577 47.6897 180.795 41.2449 179.59 35.0627Z" fill="#A2B0CC"/>
<path d="M181.392 40.2247C186.066 47.2646 191.367 55.7129 196.237 62.4758L190.678 72.5167C188.619 75.6331 185.921 80.025 183.77 82.9159C179.137 76.6183 174.608 70.2486 170.181 63.81L169.584 62.5005C170.953 60.286 172.158 57.8872 173.383 55.5811C176.883 50.8401 178.983 45.5895 181.392 40.2247Z" fill="#376E56"/>
<path d="M201.692 52.6913C205.305 56.6621 216.506 67.8767 217.36 72.3428L218.585 72.7803C216.691 77.4914 215.6 79.5813 213.057 83.9918L211.657 84.0968C210.494 86.3649 209.207 89.0426 207.982 91.2262C202.382 86.0302 195.896 78.3572 190.677 72.5168L196.236 62.4759C198.161 59.1567 199.901 56.1021 201.692 52.6913Z" fill="#D7E6AB"/>
<path d="M217.36 72.3426L218.586 72.7802C216.691 77.4912 215.6 79.5812 213.057 83.9917L211.657 84.0967C213.603 78.3869 213.994 77.3008 217.36 72.3426Z" fill="#D0D7CC"/>
<path d="M230.023 50.0865C236.89 53.1082 243.787 55.9445 250.242 59.7424L248.008 64.4483C253.34 70.3485 259.949 77.2947 264.952 83.3195C261.535 90.6929 258.539 97.0513 254.637 104.206C249.5 98.3083 242.891 91.0821 238.176 85.0563C235.386 89.9424 231.804 96.7403 228.118 100.774C223.208 95.0797 218.184 89.4853 213.058 83.9918C215.6 79.5813 216.692 77.4914 218.586 72.7803C220.861 68.8598 222.786 65.378 225.514 61.7397C225.555 59.3059 228.86 52.6984 230.023 50.0865Z" fill="#D7E6AB"/>
<path d="M230.023 50.0865C236.889 53.1082 243.787 55.9445 250.241 59.7424L248.007 64.4483C246.309 69.2891 243.148 75.7937 240.976 80.6077C235.633 74.7189 230.486 67.9899 225.514 61.7397C225.555 59.3059 228.859 52.6984 230.023 50.0865Z" fill="#376E56"/>
<path d="M36.5157 63.6217C35.7642 56.9123 38.9968 50.381 44.8029 46.9249C50.5988 43.4688 57.8873 43.7293 63.4258 47.59C69.9113 52.1168 72.4747 60.492 69.6334 67.8757C66.7818 75.2594 59.2565 79.742 51.4018 78.7341C43.5573 77.7251 37.4114 71.4862 36.5157 63.6217Z" fill="#393980"/>
<path d="M48.2413 48.9766C55.221 46.0137 63.2817 49.2577 66.2671 56.2317C69.2526 63.2057 66.0304 71.2791 59.0609 74.2822C52.0709 77.2967 43.9588 74.0588 40.9631 67.0571C37.9674 60.0553 41.2307 51.952 48.2413 48.9766Z" fill="#F2EAEE"/>
<path d="M47.5213 53.0587C51.9891 51.0501 57.2393 52.9918 59.3291 57.4228C61.4086 61.8539 59.5557 67.1374 55.1599 69.2943C52.2465 70.7232 48.7978 70.471 46.1212 68.6354C43.4549 66.7997 41.9828 63.6658 42.2711 60.4373C42.5593 57.2097 44.5667 54.3888 47.5213 53.0587Z" fill="#232323"/>
<path d="M45.9773 57.0707C47.192 56.3223 48.7259 56.3007 49.9612 57.0141C51.2069 57.7265 51.9584 59.0608 51.9172 60.4908C51.8864 61.9208 51.073 63.219 49.8068 63.8748C47.9435 64.8374 45.6479 64.1507 44.6081 62.3192C43.5787 60.4887 44.186 58.1692 45.9773 57.0707Z" fill="#FDFDFD"/>
<path d="M156.427 84.2409C160.153 78.4488 165.949 68.8197 170.18 63.81C174.607 70.2487 179.137 76.6184 183.769 82.9159C179.353 89.4493 174.71 95.8323 169.871 102.054L156.427 84.2409Z" fill="#D7E6AB"/>
<path d="M211.658 84.0967L213.058 83.9917C218.184 89.4853 223.208 95.0796 228.119 100.774C226.07 104.233 217.701 114.761 214.859 118.492C209.63 113.035 205.193 107.826 200.323 102.08C203.35 98.6182 205.491 95.0838 207.982 91.2262C209.208 89.0425 210.494 86.3648 211.658 84.0967Z" fill="#376E56"/>
<path d="M132.378 31.5077C136.723 31.4253 140.357 31.6631 144.382 30.0406L148.5 31.3018C150.034 34.064 151.537 37.0002 153.019 39.8035C149.334 47.7792 145.535 54.8098 141.366 62.5282C135.745 54.501 132.636 48.678 128.127 39.9992L132.378 31.5077Z" fill="#376E56"/>
<path d="M169.583 62.5004C164.971 56.1019 154.162 43.5191 156.509 35.5722C159.659 32.0852 158.074 32.8986 162.356 32.2387C167.782 33.0582 174.339 33.8715 179.59 35.0626C180.794 41.2449 174.576 47.6897 173.382 55.581C172.157 57.8871 170.952 60.2859 169.583 62.5004Z" fill="#D7E6AB"/>
<path d="M331.446 57.2325C334.689 58.2147 334.874 58.6666 335.852 61.6718C334.524 68.1331 325.29 75.3809 320.225 80.056C326.731 78.0587 338.199 73.7121 344.232 78.2142C346.888 86.0859 316.261 92.017 309.58 93.7795C318.104 95.9745 340.927 100.191 344.417 107.702L343.243 109.887C340.309 111.803 336.902 111.084 333.185 110.887C328.975 110.2 323.344 108.164 319.154 106.797C324.929 111.9 333.762 118.418 334.524 126.206L333.206 127.791C321.419 129.319 297.093 103.333 302.281 89.7901C308.118 74.5841 317.507 64.7377 331.446 57.2325Z" fill="#2E6950"/>
<path d="M122.033 55.9033C126.192 61.7262 130.526 68.7939 134.459 74.8773L127.479 83.6952C125.225 86.166 122.445 89.687 120.242 92.3216L107.703 74.0929C112.336 68.6148 117.545 61.6325 122.033 55.9033Z" fill="#D7E6AB"/>
<path d="M141.222 64.6048C145.525 71.027 150.034 77.9989 154.481 84.2666L140.46 101.191C136.085 95.4215 131.596 89.6448 127.479 83.6952L134.458 74.8774L141.222 64.6048Z" fill="#376E56"/>
<path d="M174.289 98.2022C177.459 99.0084 186.621 110.844 189.298 114.033C185.427 119.062 180.012 125.056 175.802 129.98C172.528 128.474 164.004 117.638 161.184 114.162C165.744 108.997 170.109 103.674 174.289 98.2022Z" fill="#D7E6AB"/>
<path d="M121.179 94.1779C123.876 95.5265 132.894 107.403 135.344 110.449L120.623 124.841C116.278 122.377 110.04 113.521 106.869 109.209C112.13 104.18 116.33 99.5458 121.179 94.1779Z" fill="#D7E6AB"/>
<path d="M144.383 30.0407C162.059 13.8731 199.232 -7.46991 225.195 11.3714C226.966 12.6624 226.544 13.9884 226.523 15.9692C219.41 26.9614 201.332 32.422 188.989 37.0137C187.033 36.3692 181.855 35.5054 179.59 35.0627C174.34 33.8716 167.782 33.0583 162.357 32.2388C158.672 31.4862 152.454 31.4481 148.501 31.3019L144.383 30.0407Z" fill="#376E56"/>
</g>
<defs>
<filter id="filter0_d_50_35099" x="0" y="0" width="384" height="193" filterUnits="userSpaceOnUse" color-interpolation-filters="sRGB">
<feFlood flood-opacity="0" result="BackgroundImageFix"/>
<feColorMatrix in="SourceAlpha" type="matrix" values="0 0 0 0 0 0 0 0 0 0 0 0 0 0 0 0 0 0 127 0" result="hardAlpha"/>
<feOffset dy="4"/>
<feGaussianBlur stdDeviation="4"/>
<feComposite in2="hardAlpha" operator="out"/>
<feColorMatrix type="matrix" values="0 0 0 0 0 0 0 0 0 0 0 0 0 0 0 0 0 0 0.15 0"/>
<feBlend mode="normal" in2="BackgroundImageFix" result="effect1_dropShadow_50_35099"/>
<feBlend mode="normal" in="SourceGraphic" in2="effect1_dropShadow_50_35099" result="shape"/>
</filter>
</defs>
</svg>
