<svg width="294" height="185" viewBox="0 0 294 185" fill="none" xmlns="http://www.w3.org/2000/svg">
<g filter="url(#filter0_d_50_35041)">
<path d="M103.559 4.83148C114.594 3.68793 121.809 3.81197 132.993 4.66938L141.24 5.40863C155.413 7.8383 172.837 11.7524 184.093 20.9261C185.145 24.6868 190.013 32.1995 192.304 37.5989C196.862 48.3469 199.904 61.1329 205.099 71.0879C208.828 75.9248 216.823 82.9463 218.709 87.0283C224.672 86.9668 227.798 86.7138 233.702 85.8632C233.541 107.547 224.686 128.259 209.123 143.359C163.084 188.512 51.7539 181.438 20.6553 120.748L18.7949 117.444L18.3984 116.212C17.1601 114.612 15.6367 110.9 14.7343 108.912C11.2871 100.894 5.98241 81.4599 8.79198 73.4063C35.5234 62.6837 12.5058 62.5372 21.3476 45.9543C40.0986 24.804 57.9922 12.1693 86.4824 6.92326C92.1533 6.06194 97.8477 5.36468 103.559 4.83148Z" fill="#9FA8B4"/>
<path d="M86.4824 6.9232C92.1533 6.06188 97.8477 5.36462 103.559 4.83142C105.729 9.5521 108.125 14.4075 109.383 19.4534C115.11 42.4269 96.9199 65.1846 108.086 87.3954C110.327 93.3123 113.411 97.0623 117.519 101.895L123.503 107.428C118.435 108.939 114.172 110.21 109.257 112.138C99.2422 103.851 96.1308 103.526 82.9531 103.18C80.6172 104.005 77.8115 104.821 75.7314 106.035C74.2099 107.627 72.2539 109.865 70.4863 111.062C56.6933 115.583 45.8203 118.608 31.7891 122.091C29.9561 122.202 22.7842 121.051 20.6553 120.748L18.7949 117.444L18.3984 116.212C17.1601 114.612 15.6367 110.9 14.7343 108.912C11.2871 100.894 5.98241 81.4599 8.79198 73.4062C35.5234 62.6836 12.5058 62.5372 21.3476 45.9542C40.0986 24.804 57.9922 12.1693 86.4824 6.9232Z" fill="#A393BF"/>
<path d="M86.4825 6.9232C92.1534 6.06188 97.8478 5.36462 103.559 4.83142C105.729 9.5521 108.125 14.4075 109.383 19.4534C115.11 42.4269 96.92 65.1846 108.086 87.3954C110.327 93.3123 113.411 97.0623 117.519 101.895L123.503 107.428C118.435 108.939 114.172 110.21 109.257 112.138C99.2423 103.851 96.1309 103.526 82.9532 103.18L82.4406 101.595L81.71 98.3104L80.6895 95.0496C75.6593 59.8448 93.0304 34.6105 86.4825 6.9232Z" fill="#547496"/>
<path d="M80.6895 95.0497L81.71 98.3104L82.4405 101.595L82.9531 103.18C80.6172 104.005 77.8115 104.821 75.7314 106.035C74.21 107.627 72.2539 109.865 70.4864 111.062C56.6934 115.583 45.8204 118.608 31.7891 122.092C29.9561 122.202 22.7842 121.051 20.6553 120.748L18.7949 117.444L18.3985 116.212C17.1602 114.612 15.6367 110.9 14.7344 108.912L16.2315 109.864C29.4004 108.104 72.3467 105.249 80.6895 95.0497Z" fill="#A393BF"/>
<path d="M18.7949 117.444C41.6504 117.468 53.7763 112.638 75.7314 106.035C74.2099 107.627 72.2539 109.865 70.4863 111.062C56.6934 115.583 45.8203 118.608 31.7891 122.091C29.9561 122.202 22.7842 121.051 20.6553 120.748L18.7949 117.444Z" fill="#A393BF"/>
<path d="M82.4405 101.594L82.9531 103.18C80.6172 104.005 77.8115 104.821 75.7314 106.035C53.7763 112.638 41.6504 117.468 18.7949 117.444L18.3984 116.212C23.9736 114.776 33.874 115.451 40.1572 114.148C54.457 111.183 68.5879 106.174 82.4405 101.594Z" fill="#554572"/>
<path d="M80.6895 95.0497L81.7099 98.3104C68.373 102.009 27.0488 116.658 16.2314 109.864C29.4004 108.104 72.3467 105.249 80.6895 95.0497Z" fill="#554572"/>
<path d="M21.3477 45.9542C44.7725 63.0264 21.8584 80.2382 9.42869 75.5966L8.79199 73.4062C35.5234 62.6836 12.5059 62.5371 21.3477 45.9542Z" fill="#547496"/>
<path d="M58.061 37.8185C67.645 36.3049 76.7095 42.6437 78.5747 52.1661C80.4399 61.6876 74.438 70.9785 64.9917 73.1924C58.564 74.6992 51.8267 72.5732 47.4282 67.6514C43.0288 62.7286 41.6704 55.796 43.8872 49.5783C46.1031 43.3595 51.5405 38.8488 58.061 37.8185Z" fill="#393980"/>
<path d="M57.1572 41.7081C64.79 39.6935 72.6289 44.1681 74.7744 51.7647C76.9209 59.3613 72.582 67.2763 65.0234 69.5537C60.0166 71.0624 54.585 69.7519 50.8174 66.1259C47.0488 62.5 45.5293 57.1231 46.8437 52.0625C48.1582 47.001 52.1006 43.0421 57.1572 41.7081Z" fill="#F2EAEE"/>
<path d="M103.559 4.83148C114.594 3.68793 121.809 3.81197 132.993 4.66938L141.24 5.40863C155.413 7.8383 172.837 11.7524 184.093 20.9261C185.145 24.6868 190.013 32.1995 192.304 37.5989C196.862 48.3469 199.904 61.1329 205.099 71.0879C197.437 71.1094 182.488 70.7735 175.477 71.7569C177.881 76.0596 183.969 86.1455 184.283 90.622L177.213 92.2011L175.292 89.205C171.498 83.7929 162.821 77.9844 157.234 74.5479C140.982 76.6406 123.88 82.5986 108.086 87.3954C96.9199 65.1846 115.11 42.427 109.383 19.4535C108.125 14.4076 105.729 9.55215 103.559 4.83148Z" fill="#A393BF"/>
<path d="M141.24 5.40857C155.413 7.83824 172.837 11.7523 184.093 20.9261C185.145 24.6868 190.013 32.1994 192.304 37.5988C196.862 48.3468 199.904 61.1329 205.099 71.0879C197.437 71.1094 182.488 70.7734 175.477 71.7568C165.972 60.0977 147.603 47.4894 146.18 33.8899C144.816 20.8528 146.257 18.7493 141.24 5.40857Z" fill="#A393BF"/>
<path d="M132.993 4.66931L141.24 5.40855C146.257 18.7493 144.816 20.8528 146.18 33.8898C147.603 47.4894 165.972 60.0977 175.477 71.7568C177.881 76.0595 183.969 86.1454 184.283 90.6219L177.213 92.201L175.292 89.2049C171.498 83.7929 162.821 77.9843 157.234 74.5478C129.97 54.4366 139.958 52.3331 133.561 22.5676C133.015 20.0218 127.377 8.80891 125.872 5.7474C127.665 4.89096 130.846 4.86365 132.993 4.66931Z" fill="#547496"/>
<path d="M108.086 87.3954C123.88 82.5986 140.982 76.6406 157.234 74.5479C162.821 77.9844 171.498 83.7929 175.292 89.205L177.213 92.2011C157.815 96.288 142.26 101.336 123.503 107.429L117.519 101.895C113.411 97.0624 110.327 93.3124 108.086 87.3954Z" fill="#554572"/>
<path d="M175.292 89.205L177.213 92.201C157.815 96.2879 142.26 101.336 123.503 107.428L117.519 101.895C131.478 96.5282 160.436 89.2772 175.292 89.205Z" fill="#A393BF"/>
<path d="M82.9531 103.18C96.1309 103.526 99.2422 103.851 109.257 112.138C118.176 124.994 99.4502 146.445 74.2979 120.625C73.0469 118.122 71.5381 113.799 70.4863 111.062C72.2539 109.865 74.2099 107.627 75.7314 106.035C77.8115 104.821 80.6172 104.005 82.9531 103.18Z" fill="#230F47"/>
<path d="M205.099 71.0879C208.828 75.9248 216.823 82.9463 218.709 87.0283C205.994 87.1025 196.251 89.5419 184.283 90.622C183.969 86.1455 177.881 76.0596 175.477 71.7569C182.488 70.7735 197.437 71.1094 205.099 71.0879Z" fill="#554572"/>
<path d="M31.7891 122.091C45.8203 118.608 56.6933 115.583 70.4863 111.062C71.5381 113.799 73.0469 118.122 74.2978 120.625C61.8828 123.283 44.1865 124.4 31.7891 122.091Z" fill="#554572"/>
<path d="M194.837 124.224C198.053 123.905 200.067 123.322 202.39 125.59C199.949 128.337 199.748 127.755 195.935 128.932C192.802 129.748 189.913 130.92 187.439 128.609C189.858 125.495 190.76 125.884 194.837 124.224Z" fill="#554572"/>
<path d="M104.343 148.709C106.896 148.428 106.911 148.601 109.223 149.507L108.891 150.804C105.136 153.381 101.467 153.859 97.0195 154.85C96.0498 155.113 94.8672 154.801 93.7842 154.65L93.8467 153.058C98.0528 149.878 99.1543 149.805 104.343 148.709Z" fill="#554572"/>
<path d="M166.634 150.579C169.611 150.28 171.422 149.75 174.026 151.117L174.098 152.314C171.442 154.866 169.063 154.857 165.362 155.54C162.89 156.234 162.473 156.102 159.856 155.947L159.101 154.977C161.138 151.986 163.125 151.773 166.634 150.579Z" fill="#554572"/>
<path d="M206.752 100.053C210.622 99.7596 218.916 98.1503 221.102 101.567L219.63 103.526C215.085 103.717 210.178 104.175 205.787 103.225L205.021 101.774L206.752 100.053Z" fill="#554572"/>
<path d="M172.279 107.528L174.032 108.424L174.422 109.859C171.622 112.217 168.04 112.713 164.381 113.655C163.229 113.548 162.65 113.249 161.527 112.877L162.099 111.364C166.131 108.91 167.734 108.681 172.279 107.528Z" fill="#554572"/>
<path d="M151.076 140.683C154.388 140.436 154.686 140.288 157.706 141.422L157.561 142.705L154.42 144.253C151.454 144.954 151.229 145.073 148.25 144.76L148.157 143.391L151.076 140.683Z" fill="#554572"/>
<path d="M130.793 120.135L131.783 121.688C130.683 124.231 127.085 125.957 124.562 127.536L123.41 125.989C124.868 123.182 127.937 121.854 130.793 120.135Z" fill="#554572"/>
<path d="M124.704 158.07C126.475 158.166 128.39 158.359 130.171 158.505L130.54 159.602L127.257 161.828C125.045 161.94 123.868 161.84 121.713 161.667L121.645 160.518L124.704 158.07Z" fill="#554572"/>
<path d="M192.511 139.628C193.669 140.076 193.372 140.088 194.309 141.211C192.752 143.15 188.814 143.864 186.217 144.625C185.441 144.471 185.337 144.218 184.605 143.67C186.327 141.577 189.838 140.643 192.511 139.628Z" fill="#554572"/>
<path d="M152.298 125.102C154.398 125.204 153.419 124.922 155.284 126.136C153.14 128.152 150.694 128.428 147.765 129.2C147.11 129.124 145.845 128.7 145.157 128.499C146.845 126.475 149.438 126.12 152.298 125.102Z" fill="#554572"/>
<path d="M78.2735 144.606C81.4776 144.707 83.3096 144.193 85.5479 145.811L83.8565 147.521C81.4297 147.543 79.003 147.544 76.5772 147.524L75.8535 146.583L78.2735 144.606Z" fill="#554572"/>
<path d="M192.549 111.363C194.116 111.412 194.012 111.488 195.27 112.466C193.153 114.393 190.73 114.511 187.823 115.108C186.689 115.113 186.338 114.914 185.213 114.63C187.393 112.591 189.642 112.243 192.549 111.363Z" fill="#554572"/>
<path d="M130.205 144.477C131.416 144.849 131.45 145.08 132.534 145.884C130.772 147.749 127.971 147.824 125.321 148.287C124.174 148.446 123.79 148.273 122.604 148.114C124.762 146.008 127.29 145.483 130.205 144.477Z" fill="#554572"/>
<path d="M106.284 136.354C109.986 135.704 111.988 135.069 115.694 135.792L115.949 137.568C112.404 138.059 110.876 138.311 107.246 138.166L106.284 136.354Z" fill="#554572"/>
<path d="M171.263 128.89L172.737 129.977C171.546 131.936 167.854 132.958 165.512 133.888L163.681 133.413C165.322 131.038 168.256 130.303 171.263 128.89Z" fill="#554572"/>
<path d="M184.093 20.926C201.347 28.3273 220.218 49.4385 229.013 65.9453C235.289 61.5957 242.195 56.5996 248.581 52.5772C262.556 41.0177 274.703 35.5646 281.603 57.4639C284.005 65.0869 287.617 78.9169 283.902 86.534C278.996 89.2889 267.983 87.4832 262.06 86.9119C252.804 86.2889 242.907 85.3836 233.702 85.8631C227.798 86.7137 224.672 86.9666 218.709 87.0282C216.823 82.9462 208.828 75.9247 205.099 71.0878C199.904 61.1328 196.862 48.3468 192.304 37.5988C190.013 32.1994 185.146 24.6867 184.093 20.926Z" fill="#547496"/>
<path d="M248.581 52.5773C262.556 41.0178 274.703 35.5647 281.603 57.4639C284.005 65.0869 287.617 78.9169 283.902 86.5341C278.996 89.289 267.983 87.4833 262.06 86.912C264.313 80.3203 261.739 80.9706 258.363 75.9736C257.135 70.8691 260.225 69.4961 260.715 65.626C261.54 59.1153 252.833 58.4268 248.581 52.5773Z" fill="#230F47"/>
<rect x="50.207" y="54.0273" width="16" height="9" rx="4.5" fill="#232323"/>
</g>
<defs>
<filter id="filter0_d_50_35041" x="0" y="0" width="293.499" height="184.526" filterUnits="userSpaceOnUse" color-interpolation-filters="sRGB">
<feFlood flood-opacity="0" result="BackgroundImageFix"/>
<feColorMatrix in="SourceAlpha" type="matrix" values="0 0 0 0 0 0 0 0 0 0 0 0 0 0 0 0 0 0 127 0" result="hardAlpha"/>
<feOffset dy="4"/>
<feGaussianBlur stdDeviation="4"/>
<feComposite in2="hardAlpha" operator="out"/>
<feColorMatrix type="matrix" values="0 0 0 0 0 0 0 0 0 0 0 0 0 0 0 0 0 0 0.15 0"/>
<feBlend mode="normal" in2="BackgroundImageFix" result="effect1_dropShadow_50_35041"/>
<feBlend mode="normal" in="SourceGraphic" in2="effect1_dropShadow_50_35041" result="shape"/>
</filter>
</defs>
</svg>
