<svg width="297" height="222" viewBox="0 0 297 222" fill="none" xmlns="http://www.w3.org/2000/svg">
<path d="M129.469 199.429C129.365 199.352 129.261 199.276 129.157 199.2C129.257 199.22 129.362 199.288 129.469 199.429Z" fill="#3A3834"/>
<path d="M67.9109 138.052C74.8039 152.069 81.8242 166.108 91.0516 178.704C100.634 191.784 112.824 203.355 127.681 209.846C123.896 206.076 120.838 201.58 118.722 196.674C120.149 197.328 121.576 197.982 123.004 198.637C118.67 191.405 115.476 183.493 113.573 175.28C114.119 175.714 114.675 176.136 115.238 176.548C116.695 178.47 118.152 180.391 119.609 182.313C119.017 181.731 117.911 182.243 117.656 183.034C117.401 183.825 117.724 184.679 118.097 185.422C119.332 187.881 121.184 190.029 123.435 191.614C122.661 191.197 121.753 192.217 121.916 193.081C122.078 193.945 122.839 194.548 123.547 195.069C125.416 196.446 127.287 197.823 129.156 199.2C128.567 199.076 128.176 200.807 128.817 201.634C135.274 209.95 143.848 216.608 153.504 220.805C147.297 222.056 140.933 219.904 135.138 217.353C101.204 202.419 74.4775 171.965 64.0743 136.379C64.2684 137.01 65.7194 137.562 67.9109 138.052Z" fill="#E2DCFF"/>
<path d="M123.004 198.638C121.577 197.983 120.149 197.328 118.722 196.674C120.838 201.58 123.897 206.077 127.682 209.847C112.823 203.355 100.635 191.784 91.0521 178.704C81.8247 166.109 74.8045 152.07 67.9114 138.053C75.8685 139.833 93.611 140.809 96.5856 141.905C103.261 144.365 108.125 154.899 112.478 160.428C110.584 158.451 107.737 157.432 105.018 157.758C108.307 162.438 111.998 166.836 116.038 170.887C114.387 170.948 112.736 171.01 111.086 171.072C112.47 172.898 113.854 174.723 115.238 176.549C114.675 176.137 114.119 175.716 113.573 175.281C115.476 183.494 118.671 191.406 123.004 198.638Z" fill="#3A3834"/>
<path d="M66.6574 103.435C68.2138 102.171 70.498 102.508 72.4132 103.1C83.5971 106.558 91.8692 116.186 97.3314 126.54C98.3074 128.39 99.2695 130.344 100.931 131.615C102.593 132.886 105.201 133.207 106.67 131.717C108.679 129.679 107.25 126.302 105.928 123.764C95.1818 103.129 98.3436 78.0429 104.844 55.7042C106.193 51.0683 107.69 46.3432 107.387 41.5247C105.424 40.9236 103.311 42.2071 102.151 43.9C100.99 45.5929 100.503 47.6422 99.7429 49.5482C99.4901 50.1816 99.1123 50.8812 98.4432 51.0142C97.5645 51.1892 96.8644 50.2852 96.5223 49.4572C94.2709 44.0065 97.1661 37.9034 98.696 32.0278C105.091 32.1015 111.485 32.4234 117.866 32.8651C134.661 34.0276 151.4 35.9854 168.01 38.7303C179.297 40.5954 190.807 42.9309 200.536 48.9493C216.531 58.843 225.376 77.4228 228.502 95.9842C228.389 95.8615 228.28 95.7349 228.152 95.6226C225.666 93.4333 221.485 94.5579 219.375 97.1122C217.266 99.6665 216.712 103.133 216.358 106.427C215.851 111.136 215.592 115.872 215.581 120.608C215.569 126.011 215.778 131.804 212.841 136.34C211.889 137.808 210.414 139.174 208.664 139.125C206.603 139.068 205.152 137.15 204.025 135.423C201.965 132.265 199.904 129.107 197.843 125.949C196.319 123.614 194.47 121.061 191.712 120.652C189.071 120.261 186.527 122.089 185.125 124.36C183.723 126.631 183.175 129.308 182.395 131.86C181.083 136.149 178.988 140.306 175.68 143.334C172.373 146.363 167.725 148.128 163.323 147.27C159.021 146.431 155.573 143.333 151.725 141.236C142.385 136.143 130.883 137.104 120.64 139.976C111.109 142.648 102.002 146.836 92.3592 148.991C88.5917 148.39 84.9042 147.885 81.253 147.301C80.5896 142.543 79.229 137.885 77.1837 133.538C73.3834 125.462 67.2908 118.326 65.4355 109.596C64.9766 107.438 64.9432 104.826 66.6574 103.435Z" fill="url(#paint0_linear_147_1066)"/>
<path d="M84.9714 85.398C84.2021 79.8512 83.9816 74.4357 83.7104 68.9303C83.415 62.9269 82.6394 57.1388 83.0021 51.0893C83.168 48.3259 83.4933 45.4693 84.9087 43.0906C86.6257 40.2052 89.5554 39.3225 92.7166 39.0875C100.944 38.4766 109.684 39.5079 117.882 40.2346C126.27 40.9785 134.626 42.0772 142.922 43.5271C159.346 46.3981 175.531 50.6447 191.241 56.2319C197.154 58.3347 204.079 62.1622 203.809 68.4328C196.293 68.9004 188.778 69.3679 181.263 69.8355C180.647 69.8741 179.9 70.0059 179.693 70.5869C179.537 71.0292 179.788 71.4973 179.964 71.932C181.159 74.8819 178.695 78.2614 175.694 79.3238C172.694 80.3867 169.4 79.838 166.238 79.4729C149.215 77.5065 131.566 81.4543 117.002 90.4854C112.405 93.3362 108.013 96.7197 102.835 98.2836C97.6565 99.8475 91.2852 99.0955 87.9864 94.8086C85.9537 92.1673 85.4291 88.7003 84.9714 85.398Z" fill="#CCA3D1"/>
<path d="M200.536 48.9506C190.807 42.9328 179.298 40.5973 168.011 38.7316C151.401 35.9867 134.661 34.0289 117.866 32.8664C111.485 32.4247 105.091 32.1028 98.6965 32.0291C99.646 28.3819 100.071 24.8222 98.4091 21.5608C96.5694 17.9516 92.9182 16.2397 88.8305 15.7831C93.0921 13.9261 97.3715 12.2338 101.617 10.7079C116.697 5.28657 132.493 1.83456 148.469 0.557975C156.661 -0.0967266 164.9 -0.181373 173.103 0.336285C175.247 0.471602 194.605 3.79578 194.985 3.18024C194.076 4.65202 193.168 6.1238 192.259 7.59616C198.087 8.24568 203.914 8.8952 209.742 9.54415C208.403 9.32361 209.1 11.6631 210.288 12.3178C219.252 17.2555 229.446 19.4528 238.841 23.51C248.236 27.5672 257.399 34.2933 260.181 44.1414C263.455 55.7326 257.063 67.6283 250.904 77.9798C246.997 84.5469 243.091 91.1135 239.184 97.6807C237.731 98.6538 236.196 99.5014 234.592 100.196C233.343 100.736 231.875 101.181 230.663 100.564C230.547 100.504 230.448 100.428 230.346 100.355C230.05 98.7437 229.576 97.1469 228.503 95.9855C225.376 77.4235 216.532 58.8443 200.536 48.9506Z" fill="#6B588C"/>
<path d="M77.0622 140.789C74.9726 136.153 71.4693 132.335 68.4003 128.281C65.3312 124.228 62.5725 119.607 62.4009 114.525C62.3226 112.201 62.7574 109.7 61.6069 107.679C60.4864 105.709 58.1762 104.777 56.576 103.172C54.0776 100.668 53.5715 96.862 52.1302 93.6311C49.656 88.0843 44.4201 84.2966 39.1036 81.3599C33.7872 78.4233 28.0844 76.0112 23.5211 72.0029C23.1145 71.6459 22.7155 71.2641 22.3378 70.8616C23.7773 70.1407 25.0896 68.9148 26.19 66.9392C26.8625 65.7311 27.5656 64.5403 28.2974 63.368C41.7771 41.7634 65.0185 26.1582 88.8277 15.7832C92.9154 16.2398 96.5666 17.9517 98.4063 21.5609C102.746 30.0761 92.8704 40.625 96.5199 49.4586C96.862 50.2866 97.5622 51.1906 98.4409 51.0156C99.11 50.882 99.4877 50.183 99.7404 49.5496C100.501 47.6431 100.988 45.5943 102.148 43.9014C103.309 42.2085 105.422 40.925 107.384 41.5262C107.687 46.3446 106.191 51.0697 104.842 55.7056C98.3412 78.0438 95.1795 103.131 105.926 123.765C107.248 126.303 108.676 129.68 106.667 131.718C105.199 133.208 102.591 132.887 100.929 131.616C99.2678 130.346 98.3055 128.391 97.329 126.541C91.8668 116.187 83.5942 106.559 72.4108 103.101C70.4956 102.508 68.2114 102.172 66.655 103.436C64.9408 104.827 64.9737 107.44 65.4326 109.599C67.2879 118.329 73.3805 125.466 77.1808 133.54C79.2261 137.887 80.5867 142.546 81.2501 147.303C80.3829 147.165 79.5174 147.021 78.6543 146.87C78.4839 144.778 77.9172 142.685 77.0622 140.789Z" fill="#7F66AB"/>
<g filter="url(#filter0_d_147_1066)">
<path d="M69.2786 139.596C66.7744 130.624 58.0267 124.212 56.324 115.053C55.9872 113.241 55.8715 111.219 54.5805 109.904C53.844 109.154 52.8191 108.751 52.0377 108.048C50.8498 106.978 50.3609 105.361 49.8047 103.863C47.8343 98.5575 44.3812 93.8117 39.9388 90.3055C34.7306 86.1936 28.3299 83.8426 22.9916 79.9011C20.0843 77.7539 17.4661 74.8328 15.9437 71.5818C18.1767 71.8841 20.3774 71.8432 22.3391 70.8608C22.7163 71.2639 23.1159 71.6457 23.5225 72.0021C28.0858 76.0104 33.7886 78.4224 39.105 81.3591C44.4215 84.2958 49.6573 88.0835 52.1315 93.6303C53.5728 96.8612 54.079 100.667 56.5774 103.172C58.1776 104.776 60.4877 105.708 61.6082 107.678C62.7581 109.7 62.3234 112.2 62.4023 114.524C62.5739 119.606 65.3325 124.227 68.4016 128.281C71.4707 132.334 74.9745 136.152 77.0636 140.788C77.9181 142.684 78.4847 144.777 78.6562 146.868C75.7467 146.36 72.8544 145.769 69.9563 145.007C69.9874 143.183 69.7692 141.355 69.2786 139.596Z" fill="#E2DCFF"/>
</g>
<g filter="url(#filter1_d_147_1066)">
<path d="M225.723 99.2112C222.802 100.189 221.506 103.551 220.841 106.559C218.396 117.625 219.352 129.526 214.766 139.889C214.184 141.205 213.475 142.533 212.308 143.375C209.474 145.419 205.338 143.64 203.126 140.935C200.915 138.23 199.801 134.767 197.637 132.023C195.474 129.28 191.444 127.359 188.505 129.249C187.198 130.09 186.396 131.505 185.633 132.86C182.595 138.259 178.942 143.957 173.093 146C172.344 146.262 171.539 146.451 170.751 146.451C172.56 145.723 174.246 144.649 175.68 143.336C178.987 140.307 181.083 136.151 182.394 131.862C183.175 129.31 183.723 126.633 185.125 124.362C186.528 122.091 189.071 120.263 191.712 120.654C194.47 121.063 196.319 123.615 197.843 125.951C199.904 129.109 201.964 132.267 204.025 135.425C205.153 137.152 206.603 139.07 208.664 139.127C210.414 139.176 211.889 137.81 212.84 136.342C215.778 131.806 215.569 126.013 215.581 120.61C215.592 115.874 215.851 111.138 216.358 106.429C216.712 103.135 217.266 99.6684 219.375 97.1141C221.484 94.5598 225.666 93.4352 228.152 95.6245C229.325 96.6563 229.876 98.1529 230.215 99.7093C228.809 98.9872 227.206 98.7149 225.723 99.2112Z" fill="#E2DCFF"/>
</g>
<path d="M238.623 142.494C237.927 141.504 237.236 140.511 236.544 139.518C236.464 138.031 236.361 136.546 236.242 135.062C236.926 137.586 237.709 140.068 238.623 142.494Z" fill="#3A3834"/>
<path d="M92.3598 148.992C102.002 146.838 111.11 142.65 120.641 139.977C130.883 137.105 142.386 136.145 151.725 141.237C155.573 143.336 159.021 146.433 163.323 147.272C165.816 147.758 168.389 147.401 170.752 146.45C171.539 146.451 172.344 146.262 173.094 146C178.943 143.956 182.596 138.259 185.634 132.859C186.396 131.505 187.199 130.09 188.506 129.249C191.445 127.358 195.475 129.279 197.638 132.023C199.801 134.767 200.916 138.229 203.127 140.934C205.339 143.64 209.475 145.418 212.309 143.374C213.476 142.532 214.185 141.205 214.767 139.889C219.354 129.525 218.397 117.624 220.842 106.558C221.506 103.55 222.802 100.188 225.724 99.2109C227.207 98.7145 228.809 98.9869 230.216 99.7078C230.345 100.299 230.446 100.898 230.535 101.485C232.218 112.642 233.31 124.232 236.243 135.062C236.362 136.546 236.465 138.031 236.545 139.518C235.385 137.85 234.229 136.179 233.085 134.5C234.353 137.005 235.546 139.547 236.663 142.122C236.784 145.206 236.834 148.293 236.792 151.379C236.679 159.716 235.876 168.363 231.716 175.59C229.688 179.113 226.715 182.315 222.835 183.532C214.939 186.008 207.326 179.774 200.279 175.435C195.222 172.322 196.548 178.661 196.931 181.374C197.109 182.632 197.086 184.268 195.908 184.744C195.084 185.078 194.173 184.602 193.418 184.132C186.242 179.661 179.495 174.204 171.438 171.643C170.332 171.291 168.753 171.219 168.391 172.322C168.272 172.684 168.338 173.078 168.406 173.454C168.795 175.605 169.184 177.758 169.574 179.91C169.034 180.396 168.181 180.092 167.544 179.743C160.602 175.941 155.286 169.295 147.802 166.717C147.973 168.276 148.144 169.835 148.314 171.393C146.353 171.976 144.463 170.463 142.839 169.22C140.572 167.485 138.041 166.104 135.365 165.111C123.889 157.678 110.988 152.439 97.5519 149.891C95.8015 149.559 94.0734 149.266 92.3598 148.992Z" fill="#3A3834"/>
<path d="M148.313 171.394C148.143 169.835 147.972 168.276 147.801 166.717C155.285 169.295 160.601 175.941 167.544 179.743C168.181 180.092 169.033 180.396 169.573 179.91C169.183 177.759 168.795 175.606 168.406 173.454C168.338 173.078 168.271 172.685 168.39 172.322C168.752 171.219 170.331 171.291 171.437 171.643C179.494 174.204 186.241 179.662 193.418 184.132C194.172 184.602 195.083 185.078 195.907 184.744C197.085 184.268 197.109 182.632 196.931 181.374C196.547 178.661 195.222 172.323 200.278 175.435C207.325 179.775 214.937 186.008 222.835 183.532C226.714 182.315 229.687 179.113 231.715 175.59C235.875 168.364 236.679 159.717 236.791 151.379C236.833 148.293 236.783 145.207 236.662 142.123C240.013 149.851 242.677 157.877 244.608 166.076C245.25 168.798 245.813 171.617 245.354 174.376C244.79 177.775 242.725 180.745 240.356 183.248C231.754 192.339 218.663 196.462 206.179 195.586C193.694 194.711 181.836 189.22 171.923 181.58C174.03 184.671 175.285 188.336 175.513 192.07C168.873 185.651 162.232 179.232 155.591 172.813C156.158 175.663 155.913 178.671 154.892 181.391C149.078 175.194 142.495 169.73 135.364 165.111C138.04 166.105 140.571 167.485 142.837 169.22C144.462 170.463 146.352 171.976 148.313 171.394Z" fill="#E2DCFF"/>
<path d="M265.576 168.751C266.233 168.091 266.529 167.152 267.112 166.425C269.042 164.016 273.408 164.599 275.006 161.959C276.461 159.555 274.508 156.222 275.762 153.707C276.814 151.6 279.59 151.053 281.221 149.353C284.511 145.924 281.866 139.65 284.691 135.828C286 134.059 288.274 133.16 289.46 131.307C292.662 126.302 285.683 120.128 286.79 114.29C287.34 111.389 289.848 109.085 290.122 106.146C290.585 101.174 284.547 97.1995 285.368 92.2746C285.641 90.6375 286.66 89.2129 287.04 87.5978C287.954 83.7064 284.786 79.7966 281.024 78.4446C278.117 77.4001 274.983 77.4882 271.882 77.84C274.319 76.9498 276.793 76.1615 279.298 75.4838C280.422 75.1798 281.615 75.5851 282.36 76.48C294.317 90.8431 299.459 110.689 295.879 129.043C292.298 147.401 280.071 163.862 263.588 172.678C262.614 173.199 261.404 172.959 260.72 172.091C259.814 170.94 258.915 169.782 258.012 168.627C260.739 169.189 263.728 170.608 265.576 168.751Z" fill="#E2DCFF"/>
<path d="M230.662 100.564C231.875 101.181 233.342 100.736 234.591 100.196C236.196 99.5012 237.731 98.6536 239.183 97.6805C238.82 98.2897 238.458 98.8989 238.095 99.5081C247.569 89.9035 259.214 82.4663 271.883 77.8396C274.984 77.4878 278.119 77.3997 281.025 78.4442C284.787 79.7962 287.955 83.706 287.041 87.5974C286.661 89.2125 285.642 90.6377 285.369 92.2741C284.548 97.1991 290.586 101.174 290.123 106.146C289.849 109.085 287.341 111.388 286.791 114.289C285.684 120.127 292.663 126.301 289.46 131.307C288.274 133.16 286 134.059 284.692 135.828C281.867 139.649 284.512 145.923 281.222 149.353C279.592 151.052 276.815 151.599 275.763 153.707C274.508 156.221 276.462 159.554 275.007 161.958C273.409 164.598 269.043 164.016 267.113 166.424C266.53 167.151 266.233 168.091 265.576 168.751C263.729 170.608 260.74 169.189 258.013 168.627C251.335 160.078 244.862 151.368 238.624 142.494C233.786 129.657 232.61 115.242 230.534 101.485C230.478 101.112 230.415 100.733 230.345 100.355C230.448 100.428 230.546 100.505 230.662 100.564Z" fill="#2F313D"/>
<path d="M82.1875 80.0618C87.5869 69.2318 94.0532 58.9345 101.462 49.3662C97.0031 56.9589 93.6628 65.2063 91.5807 73.7618C94.2732 67.0316 98.8014 61.0466 104.544 56.6249C98.0188 63.681 93.8051 72.8422 92.6943 82.3892C95.1709 78.1086 98.4247 74.2789 102.249 71.1424C99.1071 75.051 96.7279 79.5694 95.2832 84.3712C97.9106 82.5896 100.991 81.4823 104.151 81.1823C100.047 85.1451 96.9092 90.1005 95.081 95.5045C99.0956 92.2172 103.111 88.9299 107.125 85.6426C103.187 90.6429 99.1399 95.5575 94.9877 100.382C99.0138 99.0435 103.134 97.9869 107.307 97.2234C103.515 99.8197 100.047 102.89 97.0112 106.34C99.585 105.971 102.127 105.379 104.599 104.572C100.672 105.945 97.1361 108.417 94.4972 111.633C97.162 111.694 99.8361 111.351 102.399 110.619C99.9703 111.901 97.5409 113.184 95.1122 114.467C97.0146 115.166 98.9177 115.866 100.82 116.565C94.2144 120.557 86.8279 123.252 79.2036 124.451C81.2708 120.094 80.7123 114.609 77.8096 110.758C75.6163 107.848 72.9187 107.591 70.1174 105.84C66.788 103.758 68.5794 102.426 70.8706 99.6475C75.7223 93.7662 78.8115 86.8339 82.1875 80.0618Z" fill="#E2DCFF"/>
<path d="M99.1841 30.7078C101.187 25.864 103.556 21.2115 106.501 16.8692C107.946 14.7405 109.489 12.6785 111.119 10.689C112.78 8.66215 114.521 6.41532 116.582 4.78116C117.296 4.21398 118.16 5.06676 117.582 5.78192C115.978 7.77021 114.043 9.51724 112.379 11.4664C110.676 13.4621 109.071 15.5397 107.568 17.6898C104.63 21.8921 101.95 26.3115 99.7408 30.9416C99.594 31.2491 99.0516 31.028 99.1841 30.7078Z" fill="#493F6E"/>
<path d="M109.348 29.9431C112.188 24.2898 115.924 19.2082 120.239 14.5896C122.388 12.2892 124.701 10.1414 127.131 8.13991C128.313 7.16563 129.524 6.22474 130.762 5.32071C131.375 4.87215 131.996 4.43281 132.623 4.00267C133.278 3.55354 133.969 2.97427 134.762 2.82053C135.256 2.72494 135.854 3.27254 135.493 3.77119C134.683 4.89 133.08 5.61495 131.96 6.40728C130.64 7.34125 129.351 8.31725 128.097 9.33645C125.737 11.2551 123.5 13.3199 121.37 15.4913C116.999 19.947 113.204 24.9813 109.834 30.2282C109.637 30.5333 109.185 30.2667 109.348 29.9431Z" fill="#493F6E"/>
<path d="M122.717 30.1188C129.887 20.7439 138.16 11.4318 148.46 5.42436C151.337 3.74586 154.455 2.22513 157.672 1.3211C158.664 1.04241 159.042 2.51074 158.093 2.84759C155.323 3.82993 152.645 4.88713 150.064 6.30709C147.542 7.6948 145.144 9.30306 142.862 11.0558C138.162 14.6662 134.021 18.9036 130.004 23.243C127.755 25.6735 125.544 28.1351 123.279 30.5518C123.008 30.8414 122.467 30.4464 122.717 30.1188Z" fill="#493F6E"/>
<path d="M138.678 31.5898C144.84 20.6344 153.922 11.4553 164.722 5.01656C167.694 3.24478 170.863 1.44536 174.141 0.304092C174.909 0.0363382 175.432 1.25937 174.699 1.62559C171.979 2.98163 169.203 4.15629 166.556 5.66666C163.879 7.19429 161.286 8.8797 158.804 10.7073C153.844 14.3597 149.337 18.6432 145.393 23.3724C143.144 26.0689 140.996 28.8806 139.099 31.8357C138.929 32.0983 138.523 31.8645 138.678 31.5898Z" fill="#493F6E"/>
<path d="M149.243 33.4159C153.516 28.4628 158.389 24.1171 163.514 20.0622C168.549 16.0787 173.84 12.4361 179.368 9.17183C180.945 8.24016 182.54 7.33959 184.152 6.46953C185.768 5.59775 187.367 4.69026 189.115 4.11387C189.81 3.88469 190.142 4.86588 189.59 5.24074C186.958 7.02634 183.948 8.31214 181.188 9.90254C178.46 11.4745 175.785 13.1363 173.167 14.8839C167.79 18.4747 162.646 22.4006 157.794 26.676C155.088 29.0611 152.414 31.491 149.76 33.933C149.41 34.2543 148.937 33.7706 149.243 33.4159Z" fill="#493F6E"/>
<path d="M164.399 34.8308C172.709 27.1506 181.686 19.6604 191.975 14.7746C194.797 13.4347 197.759 12.0418 200.89 11.7124C201.38 11.6612 201.561 12.4201 201.139 12.6343C199.566 13.433 197.943 13.9869 196.305 14.6347C194.593 15.3119 192.921 16.0829 191.277 16.9103C188.15 18.4846 185.145 20.2817 182.24 22.2343C176.229 26.2748 170.668 30.9441 164.96 35.3905C164.569 35.6946 164.015 35.1861 164.399 34.8308Z" fill="#493F6E"/>
<path d="M175.264 36.9335C184.561 29.001 194.351 21.1118 205.967 16.8663C207.557 16.2853 209.183 15.7953 210.826 15.3905C212.462 14.988 214.214 14.5314 215.904 14.4755C216.593 14.4531 216.878 15.3145 216.445 15.7821C216.268 15.9732 216.091 16.1638 215.914 16.355C215.52 16.7799 214.866 16.3308 214.985 15.8143C215.045 15.5552 215.105 15.2961 215.165 15.037C215.479 15.3508 215.793 15.6646 216.107 15.9784C214.667 16.325 213.177 16.4753 211.73 16.8156C210.293 17.1536 208.874 17.5607 207.474 18.0283C204.624 18.9807 201.863 20.1548 199.187 21.5206C193.818 24.2609 188.822 27.6755 184.011 31.2922C181.247 33.3697 178.472 35.4312 175.733 37.5421C175.387 37.8104 174.929 37.2185 175.264 36.9335Z" fill="#493F6E"/>
<path d="M185.969 41.0581C197.39 32.2919 211.283 26.8153 225.494 24.7234C229.535 24.1286 233.526 23.8188 237.601 24.2138C237.986 24.2512 237.978 24.7602 237.601 24.8074C230.522 25.689 223.461 26.2988 216.53 28.0792C209.631 29.851 202.961 32.3685 196.643 35.6627C193.116 37.5024 189.657 39.493 186.338 41.6886C185.936 41.9552 185.607 41.3362 185.969 41.0581Z" fill="#493F6E"/>
<path d="M200.809 46.7157C215.694 39.5221 232.572 36.8987 248.953 39.0419C250.023 39.1818 251.089 39.339 252.152 39.5175C252.897 39.6424 253.814 39.7144 254.371 40.2989C255.269 41.2426 254.318 42.9465 253.069 42.3142C252.512 42.0321 252.911 41.211 253.48 41.3405C253.296 41.2991 253.111 41.109 252.925 41.0422C252.745 40.9772 252.545 40.957 252.357 40.9213C251.982 40.8499 251.606 40.7849 251.23 40.7209C250.351 40.5707 249.472 40.4342 248.589 40.3121C246.756 40.0582 244.912 39.8705 243.065 39.7392C239.636 39.495 236.193 39.4559 232.759 39.6223C225.777 39.9603 218.839 41.1373 212.135 43.1181C208.369 44.2311 204.66 45.5797 201.055 47.1367C200.773 47.2582 200.522 46.8545 200.809 46.7157Z" fill="#493F6E"/>
<path d="M217.157 56.3176C223.595 54.0737 230.511 53.1788 237.311 53.0844C240.758 53.0366 244.211 53.2249 247.633 53.6527C250.954 54.0679 254.461 54.5372 257.644 55.6059C258.739 55.9738 258.3 57.5815 257.166 57.338C253.905 56.6372 250.729 55.7395 247.417 55.2535C244.073 54.7629 240.69 54.5176 237.311 54.4917C230.547 54.4399 223.906 55.4516 217.31 56.875C216.945 56.9545 216.805 56.4403 217.157 56.3176Z" fill="#493F6E"/>
<path d="M221.609 67.1342C231.128 65.3014 241.51 65.879 250.738 68.9273C251.479 69.172 251.689 70.2229 250.962 70.6363C250.64 70.8189 250.328 70.9455 249.994 71.1108C249.481 71.3659 249.045 70.8632 249.255 70.3715C249.407 70.015 249.513 69.7018 249.682 69.3569C249.868 69.8147 250.055 70.2724 250.241 70.7302C245.571 69.4093 240.894 68.3383 236.047 67.9191C231.295 67.5079 226.474 67.5742 221.725 68.0014C221.234 68.0457 221.12 67.2287 221.609 67.1342Z" fill="#493F6E"/>
<path d="M228.977 80.98C230.341 80.4738 232.065 80.5556 233.494 80.6287C234.927 80.7019 236.358 80.8775 237.769 81.1452C239.21 81.4193 240.624 81.8034 242.005 82.2975C243.303 82.7616 245.032 83.2527 246.034 84.231C246.561 84.7458 246.006 85.5088 245.361 85.3884C244.679 85.2617 244.053 84.8679 243.424 84.5886C242.729 84.2805 242.019 84.0047 241.301 83.756C240.01 83.3092 238.688 82.9418 237.35 82.6631C235.983 82.3775 234.597 82.1927 233.202 82.1103C231.82 82.0285 230.336 82.161 228.978 81.9047C228.469 81.8086 228.577 81.1285 228.977 80.98Z" fill="#493F6E"/>
<path d="M230.125 89.0741C231.85 89.5106 233.464 90.1941 235.072 90.9513C235.86 91.3227 236.642 91.7074 237.416 92.1058C237.814 92.3108 238.218 92.5135 238.602 92.7461C238.798 92.8659 239.029 92.9897 239.149 93.1947C239.256 93.3766 239.237 93.349 239.379 93.5655C239.582 93.8753 239.317 94.3239 238.952 94.31C238.851 94.3106 238.752 94.302 238.653 94.2841C238.773 94.2726 238.726 94.2795 238.511 94.3054C238.272 94.3054 238.04 94.1655 237.832 94.0613C237.431 93.8597 237.042 93.6335 236.648 93.4187C235.909 93.0162 235.163 92.6258 234.41 92.2486C232.858 91.4701 231.292 90.7429 229.784 89.8803C229.347 89.6298 229.642 88.9521 230.125 89.0741Z" fill="#493F6E"/>
<path d="M235.466 101.224C237.11 101.803 238.788 100.958 240.224 100.181C241.667 99.4017 243.11 98.6249 244.565 97.8677C247.601 96.2865 250.658 94.7497 253.75 93.2779C259.782 90.4069 265.888 87.6959 272.061 85.1445C273.822 84.4167 275.588 83.7021 277.358 82.9996C279.169 82.281 280.999 81.4386 282.881 80.9267C283.93 80.6411 284.71 82.2839 283.648 82.7457C282.991 83.0313 282.341 83.3342 281.669 83.5823C281.041 83.8144 280.635 82.9455 281.047 82.5136C281.491 82.0495 281.973 81.6211 282.442 81.1823C282.844 81.7034 283.245 82.2246 283.648 82.7457C282.089 83.496 280.409 84.024 278.793 84.6384C277.133 85.2695 275.478 85.9109 273.826 86.5645C270.54 87.8641 267.269 89.2052 264.017 90.5877C257.471 93.3706 250.991 96.3222 244.569 99.3804C242.923 100.164 241.296 101.036 239.598 101.703C238.168 102.263 236.659 102.46 235.25 101.739C234.969 101.595 235.163 101.117 235.466 101.224Z" fill="#CCA3D1"/>
<path d="M235.987 103.288C237.763 103.952 239.796 103.307 241.603 103.054C243.742 102.755 245.887 102.493 248.027 102.199C252.043 101.648 256.059 101.097 260.071 100.517C264.084 99.9366 268.094 99.3268 272.099 98.6877C274.166 98.3577 276.23 98.0117 278.297 97.6794C279.331 97.513 280.365 97.3454 281.398 97.175C282.305 97.0259 283.221 96.7667 284.115 97.08C284.485 97.2101 284.747 97.7623 284.373 98.0595C283.202 98.9905 281.372 98.9865 279.939 99.2266C278.325 99.4973 276.71 99.7552 275.093 100.006C271.793 100.517 268.491 101.008 265.185 101.48C258.636 102.414 252.078 103.27 245.502 104C243.685 104.201 241.868 104.403 240.044 104.55C238.544 104.671 237.053 104.721 235.683 104.01C235.29 103.808 235.562 103.129 235.987 103.288Z" fill="#CCA3D1"/>
<path d="M238.279 107.803C246.212 108.962 254.156 110.088 262.136 110.87C266.023 111.252 269.919 111.563 273.818 111.821C275.767 111.951 277.719 112.062 279.671 112.156C281.636 112.25 283.806 112.076 285.717 112.578C286.364 112.748 286.418 113.805 285.717 113.943C283.777 114.322 281.632 113.995 279.671 113.896C277.719 113.798 275.768 113.683 273.818 113.549C269.786 113.273 265.763 112.901 261.747 112.454C253.783 111.568 245.857 110.427 238.02 108.742C237.395 108.608 237.675 107.714 238.279 107.803Z" fill="#CCA3D1"/>
<path d="M236.159 110.524C250.274 113.455 264.267 117.008 278.274 120.408C280.202 120.876 282.13 121.344 284.058 121.812C285.474 122.156 287.692 122.305 288.351 123.839C288.721 124.699 287.773 125.562 287.012 124.872C285.975 123.933 284.085 123.814 282.773 123.488C281.041 123.056 279.309 122.625 277.576 122.194C274.24 121.363 270.903 120.532 267.567 119.702C260.831 118.025 254.106 116.304 247.378 114.596C243.532 113.62 239.711 112.565 235.896 111.478C235.279 111.302 235.539 110.395 236.159 110.524Z" fill="#CCA3D1"/>
<path d="M237.481 115.364C242.988 118.717 248.959 121.202 254.878 123.723C261.035 126.346 267.204 128.941 273.368 131.55C275.116 132.289 276.864 133.028 278.608 133.779C279.449 134.141 280.29 134.503 281.131 134.865C282.08 135.274 283.108 135.612 283.938 136.238C284.672 136.791 284.247 137.869 283.316 137.713C281.735 137.447 280.188 136.532 278.721 135.901C277.16 135.229 275.599 134.553 274.042 133.871C270.928 132.508 267.815 131.145 264.701 129.781C258.609 127.114 252.457 124.55 246.501 121.585C243.247 119.966 240.077 118.114 237.043 116.114C236.58 115.809 237 115.072 237.481 115.364Z" fill="#CCA3D1"/>
<path d="M234.821 117.366C236.684 119.747 239.136 121.482 241.646 123.12C244.521 124.998 247.365 126.925 250.205 128.856C255.973 132.776 261.753 136.68 267.502 140.63C269.075 141.711 270.648 142.793 272.221 143.873C273.035 144.432 273.848 144.992 274.662 145.551C275.435 146.082 276.308 146.527 276.775 147.366C277.13 148.003 276.547 148.589 275.907 148.495C275.097 148.375 274.479 147.837 273.819 147.382C273.06 146.86 272.301 146.337 271.542 145.814C270.079 144.806 268.615 143.797 267.151 142.79C264.223 140.773 261.304 138.743 258.386 136.711C252.631 132.703 246.809 128.77 241.148 124.63C238.506 122.699 235.911 120.692 234.019 117.983C233.693 117.514 234.463 116.908 234.821 117.366Z" fill="#CCA3D1"/>
<path d="M236.769 124.625C239.146 126.838 241.569 129.003 243.897 131.268C246.221 133.529 248.444 135.903 250.669 138.261C255.163 143.025 259.486 147.961 263.709 152.966C264.876 154.349 266.02 155.752 267.16 157.158C267.71 157.837 268.258 158.518 268.804 159.201C269.374 159.914 270.073 160.591 270.281 161.503C270.46 162.289 269.673 162.853 268.973 162.509C268.311 162.183 267.928 161.619 267.477 161.054C266.931 160.371 266.384 159.69 265.834 159.01C264.814 157.747 263.782 156.495 262.75 155.242C260.685 152.735 258.607 150.239 256.491 147.775C252.301 142.896 248.005 138.102 243.618 133.399C241.102 130.702 238.717 127.891 236.176 125.217C235.804 124.825 236.374 124.258 236.769 124.625Z" fill="#CCA3D1"/>
<path d="M72.1423 101.991C78.5574 91.1119 82.4528 78.9317 88.8276 68.0217C89.7166 66.4999 90.6465 64.9999 91.6576 63.5551C92.1448 62.8596 92.6395 62.1674 93.164 61.4995C93.7819 60.7135 94.4055 60.1763 95.1793 59.5532C95.625 59.1945 96.2786 59.6327 95.9924 60.1803C94.569 62.9039 92.6003 65.3171 90.969 67.9325C89.3021 70.6054 87.7905 73.3728 86.3597 76.1782C83.5036 81.7768 80.9413 87.5194 78.0139 93.0818C76.355 96.2338 74.5072 99.2545 72.5235 102.213C72.3669 102.447 71.9961 102.238 72.1423 101.991Z" fill="#41198A"/>
<path d="M76.564 100.04C78.1267 96.8248 79.6117 93.5772 81.2309 90.3895C82.8155 87.2703 84.5671 84.2248 86.2945 81.1833C87.9736 78.2271 89.6521 75.2594 91.4722 72.3866C92.2594 71.1446 93.0931 69.8974 94.1296 68.8477C94.9743 67.9926 96.2008 66.8571 97.4629 66.8041C97.8291 66.7891 98.0393 67.2141 97.8706 67.5141C97.5499 68.0836 96.962 68.5102 96.5163 68.9893C96.0079 69.5358 95.5052 70.0736 95.0382 70.6575C94.1457 71.7734 93.3672 72.963 92.6239 74.182C90.8889 77.0288 89.1828 79.8947 87.5037 82.7749C85.8045 85.6902 84.1888 88.6528 82.4884 91.5664C80.757 94.533 78.9864 97.4783 77.3511 100.499C77.0701 101.022 76.3094 100.563 76.564 100.04Z" fill="#41198A"/>
<path d="M77.8267 104.842C80.78 99.7504 83.9884 94.8716 87.4824 90.1338C89.1977 87.808 90.9666 85.5255 92.7891 83.2833C93.6758 82.1927 94.5562 81.09 95.4902 80.0392C96.4339 78.9768 97.4105 77.8004 98.6082 77.0196C99.0688 76.7196 99.5105 77.2919 99.3061 77.7175C98.7073 78.9624 97.6996 80.0576 96.841 81.1315C95.9618 82.2307 95.0428 83.2989 94.1543 84.39C92.3083 86.6576 90.4968 88.9568 88.7267 91.2837C85.2431 95.8643 81.8711 100.557 78.6161 105.303C78.2867 105.782 77.5278 105.357 77.8267 104.842Z" fill="#41198A"/>
<path d="M81.2721 106.251C83.8512 101.282 86.9651 96.6559 90.5518 92.3574C92.3386 90.216 94.2312 88.1615 96.2299 86.2158C97.2283 85.2433 98.2515 84.296 99.2983 83.3759C100.288 82.5053 101.299 81.512 102.557 81.0525C103.024 80.882 103.462 81.4878 103.201 81.8909C102.482 83.0028 101.321 83.7899 100.332 84.6456C99.3191 85.5214 98.3276 86.4214 97.3585 87.345C95.3812 89.2302 93.4891 91.2058 91.7023 93.273C88.0983 97.443 84.9003 101.989 82.1128 106.743C81.7949 107.286 80.9842 106.806 81.2721 106.251Z" fill="#41198A"/>
<path d="M81.8207 111.124C84.8477 106.417 88.2864 102.081 92.1628 98.0425C94.094 96.0306 96.1186 94.1062 98.218 92.2705C99.2464 91.3716 100.293 90.4941 101.358 89.639C102.286 88.8945 103.37 87.8367 104.581 87.6766C104.912 87.6329 105.029 88.0365 104.923 88.272C104.435 89.3569 103.025 90.1561 102.117 90.8776C101.047 91.7281 99.9949 92.601 98.9619 93.4958C96.9385 95.2475 94.99 97.0843 93.1129 98.992C89.2826 102.885 85.7172 107.112 82.4782 111.508C82.1943 111.894 81.5506 111.545 81.8207 111.124Z" fill="#41198A"/>
<path d="M82.8522 111.513C86.1113 108.013 89.9334 105.201 94.0349 102.764C96.0721 101.554 98.1623 100.438 100.288 99.3922C101.403 98.844 102.525 98.3102 103.652 97.7857C104.56 97.3625 105.75 96.641 106.771 96.7296C107.037 96.7527 107.308 97.0607 107.113 97.325C106.524 98.1231 105.392 98.5164 104.511 98.9212C103.433 99.4164 102.358 99.9197 101.29 100.436C99.1568 101.467 97.0384 102.537 94.9718 103.698C90.8202 106.03 86.8529 108.771 83.3905 112.051C83.0341 112.389 82.5182 111.872 82.8522 111.513Z" fill="#41198A"/>
<path d="M82.526 112.087C85.7062 110.061 89.0217 108.37 92.5307 106.99C94.3094 106.291 96.1185 105.659 97.9542 105.125C99.6678 104.627 101.532 103.947 103.336 104.112C103.631 104.139 103.798 104.543 103.498 104.707C101.908 105.571 100.006 105.803 98.2784 106.298C96.5556 106.793 94.8494 107.337 93.1681 107.958C89.632 109.263 86.1662 110.851 82.849 112.638C82.4856 112.835 82.1788 112.308 82.526 112.087Z" fill="#41198A"/>
<path d="M83.1969 114.267C86.0385 113.268 88.9083 112.487 91.8594 111.882C93.2724 111.593 94.6918 111.336 96.1169 111.114C97.5927 110.884 99.0495 110.635 100.545 110.808C100.82 110.84 100.895 111.207 100.612 111.302C99.2361 111.762 97.8132 111.88 96.3852 112.088C94.9013 112.304 93.4233 112.556 91.9521 112.845C89.0696 113.412 86.1946 114.092 83.3501 114.825C82.9861 114.918 82.8485 114.389 83.1969 114.267Z" fill="#41198A"/>
<path d="M84.7273 118.352C87.2182 117.358 89.7731 116.759 92.4391 116.475C93.7405 116.337 95.0504 116.274 96.3592 116.289C97.5281 116.303 99.0344 116.273 100.108 116.79C100.282 116.873 100.241 117.169 100.054 117.207C98.8922 117.446 97.5425 117.186 96.3592 117.159C95.0976 117.131 93.8349 117.175 92.5784 117.29C89.9746 117.528 87.364 118.084 84.8569 118.822C84.5488 118.912 84.4434 118.465 84.7273 118.352Z" fill="#41198A"/>
<path d="M13.5693 103.663C12.5945 101.894 11.7186 99.8573 12.2115 97.899C12.9929 94.7976 16.9677 92.8335 16.5572 89.6521C16.4098 88.5074 15.6808 87.5262 14.8793 86.708C12.9791 84.7675 10.5739 83.4385 8.47166 81.7301C6.36938 80.0216 4.47553 77.7092 4.28839 74.9786C4.14501 72.8833 5.43485 70.6687 7.24174 69.9253C10.164 70.0042 13.4063 71.2399 15.9433 71.5831C17.4658 74.8341 20.084 77.7552 22.9912 79.9024C28.3296 83.8445 34.7297 86.1955 39.9385 90.3068C44.3809 93.8135 47.834 98.5594 49.8044 103.864C50.3607 105.363 50.8496 106.98 52.0374 108.049C52.8188 108.752 53.8438 109.155 54.5802 109.905C55.8718 111.22 55.9869 113.243 56.3238 115.055C58.027 124.213 66.7747 130.625 69.2784 139.597C69.7689 141.356 69.9872 143.184 69.9561 145.009C67.0465 144.243 64.13 143.286 61.1882 142.074C55.5349 138.852 50.0301 135.318 44.5507 131.796C32.7276 124.196 20.4215 116.091 13.5693 103.663Z" fill="#2F313D"/>
<path d="M0.138715 81.1924C0.0615569 80.7853 0.017201 80.3154 0.00453322 79.8058C-0.0605333 77.1617 0.730019 73.4373 2.25822 71.7698C3.60158 70.3032 5.3555 69.8742 7.24243 69.9248C5.43612 70.6676 4.14571 72.8828 4.28909 74.9782C4.47565 77.7087 6.3695 80.0206 8.47235 81.7296C10.5746 83.4381 12.9798 84.767 14.88 86.7075C15.6815 87.5258 16.4099 88.507 16.5579 89.6517C16.9684 92.8336 12.993 94.7972 12.2122 97.8985C11.7188 99.8569 12.5946 101.894 13.57 103.662C20.4221 116.091 32.7284 124.195 44.5521 131.794C50.0315 135.316 55.5362 138.85 61.1895 142.073C60.7305 141.884 60.2734 141.705 59.8133 141.503C46.5311 135.653 33.2535 129.161 21.7695 120.182C16.1571 115.793 10.9115 110.754 6.99424 104.764C4.34667 100.716 -3.16243 89.0356 7.23554 89.6471C4.63749 89.4945 0.565391 83.4444 0.138715 81.1924Z" fill="#CCA3D1"/>
<path opacity="0.28" d="M69.3213 46.3693C75.4312 43.3923 81.6091 40.4988 88.0893 38.4495C108.973 31.8449 131.573 34.3808 153.143 38.1898C166.373 40.5259 179.706 43.3791 191.667 49.496C203.628 55.6128 214.227 65.3988 218.727 78.0575C219.907 81.3777 220.108 86.0464 216.87 87.4364C201.276 68.4282 176.967 58.2334 152.618 54.8228C128.269 51.4128 103.526 54.0858 79.0859 56.7616C66.0761 58.1862 52.6285 59.7501 41.3277 66.3564C37.2769 68.7247 32.7401 72.6737 28.0242 73.0347C24.9511 64.3744 62.3609 49.7608 69.3213 46.3693Z" fill="#FCF9E8"/>
<path opacity="0.28" d="M149.945 8.55361C152.742 8.02099 156.97 8.8634 156.424 11.6578C156.085 13.3922 153.758 14.6365 154.294 16.3202C161.146 15.4323 167.999 14.545 174.851 13.6571C178.081 13.2384 181.636 12.8912 184.339 14.7068C187.042 16.5223 187.586 21.4346 184.573 22.6697C193.622 22.1843 202.745 23.0981 211.518 25.3686C213.564 25.8983 216.069 28.1014 214.53 29.5496C214.043 30.0085 213.317 30.0949 212.739 30.4329C210.983 31.4607 211.439 34.3242 212.994 35.6376C214.548 36.9517 216.683 37.258 218.621 37.8799C225.777 40.1751 230.802 47.8288 230.065 55.3069C229.984 56.1326 229.843 56.9889 230.109 57.7754C230.525 59.0106 231.789 59.7038 232.861 60.4443C235.619 62.3509 237.685 65.4372 237.808 68.7879C237.93 72.1386 235.806 75.6032 232.58 76.5188C230.633 64.034 221.616 52.9 209.809 48.4006C208.907 48.0568 207.906 47.6768 207.473 46.8142C207.09 46.053 207.271 45.1478 207.3 44.2968C207.474 39.1691 201.86 35.6543 196.752 35.1712C191.645 34.6881 186.459 36.0597 181.39 35.2668C180.835 35.1799 180.236 35.0388 179.889 34.5971C179.514 34.1181 179.555 33.4496 179.525 32.8421C179.362 29.5657 176.53 26.8818 173.38 25.9668C170.23 25.0524 166.846 25.5707 163.666 26.3791C160.163 27.2699 156.557 28.5148 153.02 27.7686C149.483 27.0223 146.287 23.2524 147.693 19.9231C128.875 18.2849 112.672 31.4567 94.1833 31.2327C101.893 26.0377 107.54 21.3453 116.491 17.9728C127.344 13.8828 138.55 10.725 149.945 8.55361Z" fill="#FCF9E8"/>
<path opacity="0.28" d="M215.231 143.159C213.629 146.911 210.116 151.071 206.295 149.642C203.24 148.499 202.367 144.476 199.705 142.591C196.756 140.504 192.549 141.702 189.661 143.874C186.774 146.047 184.578 149.062 181.579 151.078C175.215 155.359 166.762 154.294 159.281 152.601C151.8 150.909 143.857 148.775 136.643 151.381C135.734 154.593 139.53 157.013 142.691 158.085C158.358 163.395 175.073 165.591 191.579 164.507C201.547 163.852 212.369 161.478 218.523 153.609C222.249 148.844 227.75 128.143 219.428 125.419C218.489 131.521 217.691 137.399 215.231 143.159Z" fill="#FCF9E8"/>
<path d="M61 70.5166C61 78.8017 54.2837 85.5181 45.9985 85.5181C37.7133 85.5181 31 78.8017 31 70.5166C31 62.2314 37.7163 55.5181 45.9985 55.5181C54.2837 55.5181 61 62.2344 61 70.5166Z" fill="#BBAC45"/>
<path d="M51.4626 65.2161C51.2077 65.6661 51.1086 65.7231 51.3666 65.2102C50.8867 66.1581 50.6437 67.061 50.0168 67.9429C49.6388 68.4708 49.2519 68.9088 48.7989 69.3557C48.6639 69.4877 47.545 70.4747 48.319 69.7248C48.6009 69.4488 48.6459 69.0018 48.3549 69.7607C48.5739 69.1908 48.355 68.8278 48.463 69.6317C48.178 67.562 46.4082 66.416 44.3264 66.755C47.4251 66.251 49.9118 67.154 51.7056 69.7577C51.7116 69.7667 51.7206 69.7787 51.7266 69.7877C49.8488 69.0228 47.971 68.2609 46.0932 67.4959C46.6331 67.376 46.6721 67.406 46.2102 67.589C48.5499 66.4551 51.4176 67.3399 52.1675 70.0127C52.3235 70.5076 52.4105 71.0146 52.4255 71.5395C52.4705 72.1545 52.4495 72.0825 52.3625 71.3205C53.7004 74.6772 50.8717 78.4029 47.8 79.3568C40.8827 81.5046 34.2623 75.4692 34.5833 68.4829C34.7363 65.1682 36.3411 62.0395 38.7979 59.8407C40.7477 58.0979 43.0125 57.051 45.6613 57.348C47.1461 57.516 48.349 58.0349 49.7288 58.6169C52.1616 59.6428 52.6115 63.1794 51.4626 65.2161Z" fill="#2E1628"/>
<path d="M44.866 82.3537C46.8458 79.7889 50.4064 79.9569 52.3472 77.5271C55.4549 73.6365 54.726 67.9852 53.1991 63.6476C52.6742 62.1597 55.152 61.0798 55.7789 62.5587C57.5818 66.8122 57.8247 71.6928 56.0548 76.0244C55.4219 77.5692 54.564 79.0451 53.2412 80.098C51.0934 81.8048 48.0457 81.4478 45.9639 83.1996C45.406 83.6646 44.3471 83.0286 44.866 82.3537Z" fill="#DFCD71"/>
<defs>
<filter id="filter0_d_147_1066" x="9.94336" y="64.8608" width="74.7129" height="88.0068" filterUnits="userSpaceOnUse" color-interpolation-filters="sRGB">
<feFlood flood-opacity="0" result="BackgroundImageFix"/>
<feColorMatrix in="SourceAlpha" type="matrix" values="0 0 0 0 0 0 0 0 0 0 0 0 0 0 0 0 0 0 127 0" result="hardAlpha"/>
<feOffset/>
<feGaussianBlur stdDeviation="3"/>
<feComposite in2="hardAlpha" operator="out"/>
<feColorMatrix type="matrix" values="0 0 0 0 1 0 0 0 0 0.8 0 0 0 0 0.372549 0 0 0 0.66 0"/>
<feBlend mode="normal" in2="BackgroundImageFix" result="effect1_dropShadow_147_1066"/>
<feBlend mode="normal" in="SourceGraphic" in2="effect1_dropShadow_147_1066" result="shape"/>
</filter>
<filter id="filter1_d_147_1066" x="164.75" y="88.46" width="71.4648" height="63.9907" filterUnits="userSpaceOnUse" color-interpolation-filters="sRGB">
<feFlood flood-opacity="0" result="BackgroundImageFix"/>
<feColorMatrix in="SourceAlpha" type="matrix" values="0 0 0 0 0 0 0 0 0 0 0 0 0 0 0 0 0 0 127 0" result="hardAlpha"/>
<feOffset/>
<feGaussianBlur stdDeviation="3"/>
<feComposite in2="hardAlpha" operator="out"/>
<feColorMatrix type="matrix" values="0 0 0 0 1 0 0 0 0 0.8 0 0 0 0 0.372549 0 0 0 0.66 0"/>
<feBlend mode="normal" in2="BackgroundImageFix" result="effect1_dropShadow_147_1066"/>
<feBlend mode="normal" in="SourceGraphic" in2="effect1_dropShadow_147_1066" result="shape"/>
</filter>
<linearGradient id="paint0_linear_147_1066" x1="146.834" y1="148.991" x2="146.834" y2="32.0278" gradientUnits="userSpaceOnUse">
<stop stop-color="#ADB3CF"/>
<stop offset="1" stop-color="#CACEE4"/>
</linearGradient>
</defs>
</svg>
