<svg width="146" height="146" viewBox="0 0 146 146" fill="none" xmlns="http://www.w3.org/2000/svg">
<path d="M101.223 44.3006C98.8141 43.0993 96.3093 42.4316 93.8171 41.6533C89.1135 40.1845 84.7285 39.9274 79.8405 40.5817C78.6485 40.7413 77.3379 41.0938 76.101 41.3081C75.3122 41.435 73.9953 41.6448 73.2893 41.9722C68.0874 43.7546 63.2671 45.39 58.6125 48.4756C57.8699 48.9678 56.8141 49.6091 56.2566 50.2799C56.1741 53.4758 55.9297 58.9464 55.2487 62.0403C54.9554 63.009 54.6659 64.005 54.3328 64.9585C53.4136 67.9199 54.4587 69.026 55.0374 71.6449C56.7912 79.5825 62.7972 83.9219 70.1023 86.4914C70.1388 86.4969 70.1753 86.5022 70.2118 86.5076C70.6973 87.8182 71.2965 89.5395 71.8091 90.7986L71.8725 90.8157C73.069 91.1488 74.4391 91.8255 75.6918 92.1701C83.0011 94.1806 91.6134 95.4758 99.1323 94.1746C99.2577 94.3075 99.8364 95.6593 99.9777 95.937C100.765 97.5216 101.836 98.9488 103.138 100.148C107.187 103.907 115.747 107.057 121.289 106.798C123.017 106.686 125.667 106.043 126.831 104.696C129.555 101.542 127.848 98.2092 125.103 95.8011C122.706 93.6988 120.036 92.689 117.316 91.1207C115.888 90.298 114.488 89.0817 113.259 87.9939C113.921 87.2825 114.696 86.3945 115.158 85.5361C115.266 85.3348 115.183 85.4448 115.436 85.2963C122.093 85.9822 129.829 85.4415 133.717 78.8175C134.571 77.362 134.915 75.2106 134.414 73.5681C132.348 71.6733 126.672 71.9882 124.05 72.3155C124.022 72.1757 123.986 72.0374 123.944 71.9014C123.577 70.6969 122.334 69.24 121.257 68.6716C120.564 68.2835 119.547 67.7195 119.279 66.9278C118.95 56.9261 112.086 50.0211 103.688 45.5041C103.339 45.2183 101.687 44.5053 101.223 44.3006Z" fill="#B77C45"/>
<path d="M54.3328 64.9609C53.4136 67.9224 54.4587 69.0284 55.0374 71.6473C56.7912 79.5849 62.7972 83.9243 70.1023 86.4938C70.1388 86.4993 70.1753 86.5046 70.2118 86.5101C70.6973 87.8206 71.2965 89.542 71.8091 90.8011L71.8725 90.8181C73.069 91.1512 74.4391 91.828 75.6918 92.1726C83.0011 94.183 91.6134 95.4782 99.1323 94.177C99.2577 94.31 99.8364 95.6617 99.9777 95.9394C100.765 97.5241 101.836 98.9512 103.138 100.15C107.187 103.909 115.747 107.06 121.289 106.8C123.017 106.688 125.667 106.045 126.831 104.698C129.555 101.544 127.848 98.2116 125.103 95.8035C122.706 93.7012 120.036 92.6914 117.316 91.1232C115.888 90.3004 114.488 89.0841 113.259 87.9963C113.921 87.2849 114.696 86.3969 115.158 85.5386C115.266 85.3372 115.183 85.4473 115.436 85.2988C122.093 85.9846 129.829 85.4439 133.717 78.82C134.571 77.3644 134.915 75.213 134.414 73.5705C132.348 71.6757 126.672 71.9906 124.05 72.3179C124.022 72.1781 123.986 72.0398 123.944 71.9038C123.577 70.6993 122.334 69.2424 121.257 68.674C120.364 70.7946 108.128 76.2554 105.437 77.2029C91.1977 82.2155 75.2907 81.2036 62.6897 72.4668C61.1841 71.4229 60.1205 70.3864 58.4236 69.5433C57.6778 68.1206 55.4188 66.554 54.3328 64.9609Z" fill="#9F6636"/>
<path d="M111.623 86.3594C110.283 86.7564 108.766 87.3822 107.463 87.7077C105.395 88.2245 103.166 88.6575 101.067 89.035C100.068 89.2146 98.8993 89.2424 97.963 89.4095C97.9757 90.488 98.6274 93.2022 99.1308 94.1724C99.2562 94.3053 99.8348 95.657 99.9761 95.9347C100.764 97.5194 101.835 98.9465 103.136 100.146C107.185 103.905 115.745 107.055 121.287 106.796C123.015 106.684 125.666 106.04 126.829 104.693C129.553 101.54 127.846 98.2069 125.101 95.7989C122.704 93.6965 120.035 92.6867 117.314 91.1185C115.887 90.2957 114.487 89.0794 113.258 87.9916C112.714 87.4673 112.159 86.8962 111.623 86.3594Z" fill="#8BC874"/>
<path d="M134.414 73.5701C132.348 71.6753 126.672 71.9902 124.05 72.3175C124.659 78.4255 119.531 82.3091 114.86 84.9874C115.077 85.1675 115.158 85.2752 115.436 85.2983C122.093 85.9842 129.829 85.4435 133.717 78.8195C134.571 77.364 134.915 75.2126 134.414 73.5701Z" fill="#8BC874"/>
<path d="M97.9631 89.4119C87.4841 89.7502 80.5735 90.1021 70.2103 86.5078C70.6959 87.8184 71.2951 89.5397 71.8076 90.7988L71.871 90.8159C73.0676 91.149 74.4376 91.8257 75.6903 92.1703C82.9996 94.1808 91.612 95.4759 99.1309 94.1748C98.6275 93.2047 97.9758 90.4904 97.9631 89.4119Z" fill="#E7CFA4"/>
<path d="M114.859 84.9844C113.857 85.373 112.493 86.0715 111.624 86.3606C112.16 86.8974 112.714 87.4686 113.259 87.9929C113.92 87.2815 114.695 86.3934 115.157 85.5351C115.265 85.3338 115.182 85.4438 115.436 85.2953C115.157 85.2722 115.076 85.1645 114.859 84.9844Z" fill="#E7CFA4"/>
<path d="M73.2875 41.9688C68.0857 43.7512 63.2654 45.3866 58.6108 48.4721C57.8682 48.9644 56.8123 49.6056 56.2549 50.2764C56.1724 53.4723 55.9279 58.9429 55.247 62.0368C55.8728 62.2207 58.1068 64.9992 59.2485 65.8605C59.6269 65.1203 60.3941 64.0302 60.8768 63.2886C64.6535 57.5568 69.2733 52.4274 74.5801 48.0738C73.9075 46.6289 73.4848 44.0683 73.3474 42.4756C73.3251 42.2164 73.3674 42.2751 73.2875 41.9688Z" fill="#9F6636"/>
<path d="M119.277 66.9237C118.948 56.922 112.084 50.017 103.686 45.5C103.257 46.6071 101.311 49.2414 100.557 50.4106C101.067 50.9622 101.515 51.6295 101.997 52.2338C105.099 56.1536 107.764 60.3993 109.947 64.8959C110.504 66.0541 111.044 67.2285 111.568 68.4019C111.896 69.1342 112.168 69.9867 112.528 70.6945C114.684 69.6033 116.932 68.1501 119.063 66.9917C119.098 66.973 119.251 66.932 119.277 66.9237Z" fill="#9F6636"/>
<path d="M101.223 44.3006C98.8132 43.0993 96.3084 42.4316 93.8163 41.6533C89.1127 40.1845 84.7277 39.9274 79.8397 40.5817C78.6477 40.7413 77.3371 41.0938 76.1002 41.3081C76.4905 43.576 76.1618 44.8792 77.4927 47.0738C83.2081 49.7612 85.7502 51.8515 92.4426 50.9417C98.6375 50.0997 97.8305 49.1378 101.223 44.3006Z" fill="#9F6636"/>
<path d="M98.4525 52.4531C97.9034 52.4984 96.4058 53.2551 95.7024 53.3997C93.3032 53.8931 90.8223 54.0293 88.3826 54.0786C88.3557 54.4994 88.2864 54.9217 88.2377 55.3411C87.763 59.4256 87.1531 63.5075 86.8231 67.6059C86.5595 70.8782 86.5774 74.1572 86.5822 77.4367C90.3483 77.4063 93.4822 77.4726 97.1553 76.525C102.236 75.5752 105.451 74.1183 110.123 72.1458C107.853 66.8406 105.151 61.5944 101.858 56.8508C100.805 55.3337 99.4554 53.8676 98.4525 52.4531Z" fill="#9F6636"/>
<path d="M76.8684 49.8828C76.652 49.9111 76.3117 50.309 76.1336 50.4601C71.7092 54.2138 67.7789 58.5516 64.3831 63.2534C63.3056 64.7451 62.3998 66.3899 61.2645 67.8534C62.2569 68.4511 63.5778 69.4896 64.6216 70.1818C67.2043 71.8973 69.9698 73.3203 72.8669 74.4247C76.2557 75.8823 79.9708 76.5317 83.5808 77.2315C83.6213 74.4861 83.7148 71.6027 83.8528 68.8595C83.9226 67.4724 84.2078 65.5795 84.357 64.1633L85.5273 53.8328C83.2684 53.0715 78.9113 51.0833 76.8684 49.8828Z" fill="#9F6636"/>
<path d="M56.256 50.2815C56.2316 50.2544 56.2071 50.2273 56.1827 50.2001C53.7837 41.4943 48.0306 35.1305 39.3281 32.5105C32.3503 30.4098 25.3191 31.9695 19.6014 36.3695C10.5758 43.3161 8.38891 57.3272 15.6408 66.2954C21.2162 73.1912 29.6896 75.8671 38.1693 77.0687C39.5886 77.2705 41.8743 77.303 43.0773 78.0776C35.9229 83.2341 34.0801 104.593 45.0725 107.005C46.9659 107.421 47.4485 106.264 47.6483 104.652C48.1774 100.382 50.2873 96.7571 52.1152 92.9798C52.3172 93.3617 52.4458 94.7529 52.6604 95.3904C55.2671 102.898 60.6994 108.717 67.7716 112.305C70.396 113.636 79.3034 116.39 80.8891 112.387C82.0858 109.368 76.679 101.609 75.1748 98.6262C73.8905 96.0904 72.7662 93.4766 71.8084 90.8003C71.2959 89.5412 70.6967 87.8198 70.2111 86.5093C70.1746 86.5038 70.1381 86.4985 70.1016 86.4931C62.7966 83.9235 56.7905 79.5841 55.0367 71.6466C54.4581 69.0277 53.413 67.9216 54.3322 64.9602C54.6653 64.0067 54.9547 63.0106 55.2481 62.0419C55.9291 58.948 56.1735 53.4774 56.256 50.2815Z" fill="#8BC874"/>
<path d="M54.0898 81.9433C52.1073 81.0033 49.8321 80.2724 47.7434 79.5764C46.3134 79.0999 44.5175 78.4537 43.0762 78.0781C35.9217 83.2347 34.079 104.593 45.0713 107.006C46.9647 107.421 47.4474 106.264 47.6471 104.653C48.1762 100.383 50.2862 96.7577 52.114 92.9804C51.5788 87.7576 52.3686 86.6497 54.0898 81.9433Z" fill="#7BB566"/>
<path d="M38.1965 51.0468C36.3266 50.9407 35.0862 51.9302 34.7149 53.7801C34.397 55.3665 35.0873 56.3679 35.9428 57.6087L36.862 57.9452C40.899 58.7314 41.8414 52.4989 38.1965 51.0468Z" fill="#080F0F"/>
<path d="M36.6544 52.27C36.3877 52.1855 36.0949 52.2539 35.893 52.4484C35.6912 52.6428 35.6117 52.9321 35.686 53.2024C35.7602 53.4727 35.9767 53.6807 36.2497 53.7446C36.6502 53.8382 37.0529 53.5987 37.1616 53.2022C37.2715 52.8056 37.0466 52.3938 36.6544 52.27Z" fill="white"/>
<path d="M19.8977 48.8672C17.1095 48.9715 16.0647 52.1967 17.4609 54.3328C18.1062 55.3202 18.5998 55.4764 19.7105 55.7289C20.6476 55.7094 21.3379 55.3068 22.0553 54.7561C22.2352 54.3635 22.3847 53.9575 22.5019 53.5419C22.9108 52.062 22.5793 50.8897 21.866 49.596C21.1161 49.1543 20.7522 49.0024 19.8977 48.8672Z" fill="#080F0F"/>
<path d="M18.6972 49.8359C17.4673 50.3334 18.0488 51.1381 18.6794 51.8059C19.5757 51.0526 19.5014 50.5338 18.6972 49.8359Z" fill="white"/>
<path d="M18.2795 56.6954C16.7589 56.4144 15.3009 57.4239 15.029 58.9454C14.7571 60.4669 15.7747 61.9194 17.2975 62.1829C18.8077 62.4444 20.2467 61.4365 20.5166 59.9272C20.7864 58.418 19.7866 56.974 18.2795 56.6954Z" fill="#F8B29C"/>
<path d="M40.2397 58.9695C39.038 58.6908 37.7976 59.2499 37.2109 60.335C36.6252 61.4203 36.8365 62.7638 37.7275 63.6164C38.0946 63.9675 38.5527 64.2095 39.0495 64.3154C40.5189 64.6288 41.9669 63.699 42.2934 62.2321C42.6199 60.7652 41.7032 59.3092 40.2397 58.9695Z" fill="#F8B29C"/>
<path d="M23.9497 56.8203C23.0806 57.1805 22.9405 57.8777 23.1444 58.7136C24.0355 62.3747 29.1476 63.0134 31.0092 59.7814C31.3261 59.017 31.5279 58.509 31.0374 57.7339C30.1411 57.2559 29.7814 58.8957 29.5011 59.499C29.112 59.7879 28.7313 60.0867 28.3015 60.2876C25.6994 61.5036 24.64 58.8642 23.9926 56.9047C23.978 56.8766 23.9644 56.8484 23.9497 56.8203Z" fill="#080F0F"/>
</svg>
