<svg width="348" height="331" viewBox="0 0 348 331" fill="none" xmlns="http://www.w3.org/2000/svg">
<path d="M169.591 108.579C166.077 108.418 162.552 108.027 159.097 107.473C139.319 104.337 121.792 95.7186 122.477 90.3316C122.543 89.7926 122.817 89.2846 123.256 88.7836L166.761 2.54564C167.837 0.427638 170.146 -0.383361 172.163 0.167639C173.274 0.489639 174.283 1.20264 174.938 2.35764L224.255 89.3906C224.713 89.8496 225.045 90.3436 225.103 90.8886C225.936 97.2826 198.037 109.924 169.591 108.579Z" fill="url(#paint0_linear_61_1116)"/>
<path opacity="0.2" d="M174.939 2.35773L224.218 89.3267C220.247 85.4977 203.692 84.3227 189.672 83.3047C189.091 83.2567 188.508 83.2307 187.927 83.1827C189.927 63.6437 176.265 14.3587 172.164 0.167725C173.275 0.489725 174.284 1.20273 174.939 2.35773Z" fill="url(#paint1_linear_61_1116)"/>
<path opacity="0.7" d="M169.598 108.57C145.988 107.447 121.663 96.6556 122.474 90.3366C123.504 82.3166 165.029 81.5406 189.68 83.3066C205.452 84.4366 224.45 85.7966 225.108 90.8926C225.932 97.2756 198.03 109.922 169.598 108.57Z" fill="url(#paint2_linear_61_1116)"/>
<path d="M203.048 202.2H146.389C146.389 198.358 146.214 192.181 145.899 184.625C145.035 164.376 143.108 134.26 140.551 112.843C140.551 112.82 140.551 112.796 140.539 112.785C139.581 104.774 138.531 97.9896 137.421 93.3996C137.164 92.3486 136.907 91.2856 136.638 90.2116C161.126 83.0766 185.894 82.9946 210.942 90.2116C205.395 111.233 202.557 180.994 203.048 202.2Z" fill="url(#paint3_linear_61_1116)"/>
<path opacity="0.5" d="M203.051 202.203H192.208C195.274 182.763 196.605 114.343 194.847 97.8325C177.862 92.3765 158.279 91.7115 137.42 93.4025C137.16 92.3495 136.9 91.2836 136.641 90.2166C161.129 83.0796 185.891 82.9976 210.94 90.2166C205.389 111.232 202.559 180.996 203.051 202.203Z" fill="url(#paint4_linear_61_1116)"/>
<path opacity="0.6" d="M193.243 207.416C192.631 207.783 192.024 208.121 191.417 208.444C179.211 215.099 167.729 215.466 156.146 209.12C155.545 208.797 154.938 208.444 154.337 208.077C155.432 156.422 163.729 116.285 173.795 116.285C183.828 116.285 192.091 156.084 193.243 207.416Z" fill="url(#paint5_linear_61_1116)"/>
<path opacity="0.6" d="M191.6 208.444C179.394 215.099 167.912 215.466 156.329 209.12C158.093 164.634 165.328 131.344 173.978 131.344C182.59 131.343 189.797 164.311 191.6 208.444Z" fill="url(#paint6_linear_61_1116)"/>
<path d="M145.898 184.626C145.034 164.377 143.107 134.261 140.55 112.844C142.769 124.603 145.63 141.022 146.774 152.839C148.222 167.787 146.786 179.429 145.898 184.626Z" fill="#FF954A"/>
<path opacity="0.4" d="M168.456 5.8166C166.309 5.3426 131.676 75.5996 133.556 77.0716C136.234 79.1676 158.833 62.3846 167.002 36.6186C171.609 22.0876 171.088 6.3976 168.456 5.8166Z" fill="#FF954A"/>
<path opacity="0.2" d="M168.249 54.4757C167.081 54.7337 166.461 58.5047 167.449 59.0947C168.129 59.5007 170.111 58.7257 170.292 57.0517C170.457 55.5247 169.008 54.3077 168.249 54.4757Z" fill="url(#paint7_linear_61_1116)"/>
<path opacity="0.2" d="M170.299 57.0588C170.299 57.1428 170.278 57.2048 170.257 57.2678C170.006 56.1168 168.876 55.2798 168.248 55.4268C167.599 55.5728 167.118 56.8078 166.993 57.9798C166.867 56.6618 167.411 54.6738 168.248 54.4848C169.002 54.3168 170.466 55.5308 170.299 57.0588Z" fill="url(#paint8_linear_61_1116)"/>
<path d="M170.299 58.0606C170.111 59.7346 168.123 60.5086 167.453 60.1116C167.013 59.8396 166.888 58.9606 166.993 58.0186C167.035 58.5206 167.181 58.9186 167.453 59.0856C168.102 59.4826 169.943 58.7926 170.257 57.2646C170.299 57.5166 170.32 57.7886 170.299 58.0606Z" fill="#FFCBA3"/>
<path opacity="0.2" d="M147.574 100.63C148.1 99.8487 148.965 99.3507 149.904 99.2757C152.481 99.0687 154.901 100.11 156.171 102.007C158.571 105.591 156.102 111.083 153.328 111.72C150.406 112.391 146.086 107.915 146.458 103.665C146.567 102.422 147.06 101.394 147.574 100.63Z" fill="url(#paint9_linear_61_1116)"/>
<path opacity="0.2" d="M157.132 105.929C157.09 104.883 156.776 103.857 156.169 102.958C154.893 101.054 152.486 100.007 149.912 100.217C148.97 100.301 148.091 100.803 147.568 101.577C147.066 102.351 146.564 103.356 146.459 104.59C146.438 104.276 146.438 103.983 146.459 103.669C146.564 102.414 147.066 101.388 147.568 100.635C148.091 99.8396 148.97 99.3586 149.912 99.2746C152.486 99.0656 154.892 100.112 156.169 102.016C156.964 103.188 157.215 104.59 157.132 105.929Z" fill="url(#paint10_linear_61_1116)"/>
<path d="M156.504 109.715C156.253 110.322 155.939 110.866 155.583 111.347C154.934 112.226 154.139 112.833 153.323 113.021C150.414 113.691 146.083 109.192 146.459 104.902C146.459 104.86 146.459 104.839 146.48 104.818C146.857 108.689 150.686 112.33 153.323 111.724C155.144 111.305 156.859 108.773 157.111 106.095C157.215 107.35 156.964 108.606 156.504 109.715Z" fill="#FFCBA3"/>
<path opacity="0.2" d="M157.728 117.049C157.281 116.959 156.336 117.933 156.573 119.003C156.768 119.886 157.688 120.483 158.083 120.291C158.748 119.97 158.411 117.187 157.728 117.049Z" fill="url(#paint11_linear_61_1116)"/>
<path opacity="0.2" d="M158.416 119.589C158.332 118.815 158.06 118.061 157.725 117.999C157.411 117.936 156.804 118.438 156.616 119.15C156.595 119.108 156.595 119.045 156.574 119.004C156.532 118.795 156.532 118.607 156.553 118.418V118.397C156.637 117.874 156.951 117.434 157.264 117.225C157.431 117.079 157.599 117.037 157.724 117.058C158.228 117.141 158.542 118.668 158.416 119.589Z" fill="url(#paint12_linear_61_1116)"/>
<path d="M158.08 121.596C157.682 121.784 156.762 121.177 156.573 120.299C156.489 119.943 156.552 119.587 156.678 119.295C156.971 120.006 157.724 120.467 158.08 120.299C158.247 120.215 158.331 119.985 158.394 119.692C158.52 120.508 158.436 121.407 158.08 121.596Z" fill="#FFCBA3"/>
<path d="M213.623 100.489C212.082 101.178 210.423 101.867 208.648 102.521C210.424 101.867 212.093 101.19 213.623 100.489Z" fill="white"/>
<path d="M99.9873 319.019L117.543 216.855L111.695 207.492L110.414 196.447L108.765 182.146H136.986L140.111 185.662L143.018 196.316H161.214L164.122 182.146H183.457L186.364 196.316H204.56L207.468 185.662L210.592 182.146H238.813L235.884 207.492L230.036 216.855L247.591 319.019H99.9873Z" fill="url(#paint13_linear_61_1116)"/>
<path opacity="0.4" d="M117.539 216.853C154.359 222.352 191.859 222.352 230.039 216.853L235.888 207.494C192.47 213.1 151.008 213.274 111.69 207.494L117.539 216.853Z" fill="url(#paint14_linear_61_1116)"/>
<path opacity="0.6" d="M136.989 182.148L139.954 196.321L143.016 196.315L140.109 185.657L136.989 182.148Z" fill="url(#paint15_linear_61_1116)"/>
<path opacity="0.6" d="M210.589 182.148L207.682 196.308L204.562 196.315L207.469 185.657L210.589 182.148Z" fill="url(#paint16_linear_61_1116)"/>
<path d="M136.987 182.146L111.088 183.6L110.415 196.447L108.766 182.146H136.987Z" fill="#FF954A"/>
<path d="M161.213 196.315L164.12 182.148H183.458L165.628 183.598L162.311 198.43L139.954 196.321L161.213 196.315Z" fill="#FF954A"/>
<path d="M186.365 196.315L208.741 197.877L212.334 183.69L238.813 182.148H210.589L207.682 196.308L186.365 196.315Z" fill="#FF954A"/>
<path opacity="0.2" d="M138.776 221.426C141.494 220.496 145.357 223.945 145.957 227.616C146.031 228.068 146.452 230.951 144.966 231.908C142.712 233.36 136.313 230.224 136.134 225.965C136.059 224.147 137.111 221.995 138.776 221.426Z" fill="url(#paint17_linear_61_1116)"/>
<path opacity="0.2" d="M146.057 229.372C146.038 228.944 145.979 228.633 145.96 228.497C145.357 224.822 141.488 221.381 138.786 222.314C137.308 222.82 136.317 224.55 136.161 226.183C136.142 226.105 136.142 226.047 136.142 225.969C136.064 224.141 137.114 222.003 138.786 221.419C141.489 220.486 145.358 223.946 145.96 227.621C145.998 227.836 146.096 228.555 146.057 229.372Z" fill="url(#paint18_linear_61_1116)"/>
<path d="M144.967 233.239C144.889 233.297 144.811 233.336 144.714 233.375C143.858 233.764 142.536 233.628 141.214 233.122C138.764 232.169 136.237 229.933 136.139 227.25C136.12 226.958 136.139 226.667 136.178 226.375C136.722 230.419 142.789 233.316 144.966 231.916C145.685 231.43 145.958 230.497 146.035 229.602C146.133 230.653 146.095 232.52 144.967 233.239Z" fill="#FFCBA3"/>
<path opacity="0.2" d="M130.872 237.237C132.142 236.869 134.897 236.459 135.659 237.815C136.009 238.437 135.934 239.421 135.411 239.961C133.932 241.488 128.967 239.349 129.055 238.228C129.093 237.753 130.034 237.48 130.872 237.237Z" fill="url(#paint19_linear_61_1116)"/>
<path opacity="0.2" d="M135.82 239.15C135.801 238.994 135.742 238.839 135.665 238.703C134.887 237.342 132.146 237.75 130.863 238.12C130.26 238.295 129.619 238.47 129.288 238.742C129.132 238.567 129.035 238.392 129.055 238.236C129.094 237.75 130.027 237.478 130.863 237.244C131.33 237.108 132.01 236.972 132.691 236.914C132.691 236.914 132.691 236.914 132.711 236.914C133.333 236.856 133.975 236.875 134.5 237.031C135.005 237.148 135.433 237.4 135.667 237.809C135.878 238.177 135.936 238.702 135.82 239.15Z" fill="url(#paint20_linear_61_1116)"/>
<path d="M135.413 241.325C133.935 242.861 128.977 240.703 129.055 239.575C129.075 239.361 129.288 239.186 129.599 239.031C130.902 240.081 134.246 241.17 135.412 239.964C135.568 239.809 135.684 239.614 135.762 239.4C135.996 240.022 135.879 240.839 135.413 241.325Z" fill="#FFCBA3"/>
<path d="M76.117 214.905C70.309 211.464 64.076 209.536 57.217 209.848L51.7 213.373V227.012H46.796V209.849C40.433 208.19 34.836 208.239 29.939 209.849V226.093L25.035 226.706V215.826L20.744 211.229C13.452 211.502 6.46904 213.24 0.0560385 217.359C-0.256961 225.877 0.738041 234.207 3.12104 242.337L14.154 255.976L7.48805 306.546C24.589 313.519 43.839 314.145 65.873 306.546L61.0461 255.976L74.4291 242.797C77.2681 233.506 77.908 224.209 76.117 214.905Z" fill="url(#paint21_linear_61_1116)"/>
<path opacity="0.5" d="M57.2182 208.929L57.1982 227.05L51.7012 227.012V213.373L57.2182 208.929Z" fill="url(#paint22_linear_61_1116)"/>
<path opacity="0.5" d="M20.7461 211.228V227.318L25.0371 226.705V215.825L20.7461 211.228Z" fill="url(#paint23_linear_61_1116)"/>
<path opacity="0.5" d="M3.12305 242.336C25.514 232.746 49.2951 232.978 74.4321 242.796L61.0491 255.975C45.1431 246.494 29.517 246.658 14.157 255.975L3.12305 242.336Z" fill="url(#paint24_linear_61_1116)"/>
<path d="M125.883 144.499L111.547 158.611L116.715 212.763H54.1949L56.3109 196.705L60.7669 162.897L61.3309 158.611L49.5159 144.01C48.9099 141.925 48.3779 139.831 47.9419 137.714C46.5379 131.014 45.9849 124.197 46.2399 117.253C53.0989 112.85 60.5859 110.989 68.3919 110.691L72.9859 115.615V127.271L78.2399 126.612V109.214C83.4829 107.491 89.4809 107.438 96.2869 109.214V127.601H101.54V112.989L107.453 109.214C109.261 109.129 111.037 109.193 112.76 109.405C118.056 110.001 123.001 111.851 127.691 114.627C129.605 124.591 128.925 134.545 125.883 144.499Z" fill="url(#paint25_linear_61_1116)"/>
<path opacity="0.5" d="M107.449 109.213L107.428 127.633L101.537 127.601V112.989L107.449 109.213Z" fill="url(#paint26_linear_61_1116)"/>
<path opacity="0.5" d="M68.3877 110.693V127.924L72.9827 127.267V115.616L68.3877 110.693Z" fill="url(#paint27_linear_61_1116)"/>
<path opacity="0.5" d="M49.5156 144.006C74.0456 133.466 101.417 132.782 125.879 144.498L111.547 158.611C93.6316 150.432 76.9026 150.599 61.3306 158.611L49.5156 144.006Z" fill="url(#paint28_linear_61_1116)"/>
<path opacity="0.2" d="M125.879 144.499L111.543 158.611L116.712 212.763H96.3682V153.613L110.31 138.778C114.598 130.144 114.75 120.132 112.756 109.405C118.052 110.001 122.997 111.851 127.687 114.627C129.601 124.591 128.921 134.545 125.879 144.499Z" fill="url(#paint29_linear_61_1116)"/>
<g opacity="0.5">
<path d="M93.7908 186.114C93.7908 187.73 93.7378 189.22 93.5698 190.72C88.2388 191.935 82.6628 191.681 77.4008 190.728C77.2328 189.228 77.1768 187.73 77.1768 186.114C77.1768 175.603 80.8948 167.083 85.4868 167.083C90.0728 167.083 93.7908 175.603 93.7908 186.114Z" fill="url(#paint30_linear_61_1116)"/>
</g>
<g opacity="0.5">
<path d="M93.1013 186.234C93.1013 187.742 93.0573 189.133 92.8983 190.539C88.0133 191.684 82.8962 191.438 78.0692 190.554C77.9102 189.148 77.8662 187.742 77.8662 186.234C77.8662 176.406 81.2733 169.607 85.4763 169.607C89.6953 169.607 93.1013 176.405 93.1013 186.234Z" fill="url(#paint31_linear_61_1116)"/>
</g>
<path d="M125.83 223.759L116.227 228.279L124.597 320.088C113.665 334.679 75.5708 333.413 50.6858 319.131C47.0058 317.025 43.6248 314.633 40.6568 311.963L41.1568 306.933L47.6968 241.572C47.6968 241.561 47.6968 241.561 47.6968 241.561L49.0258 228.278L40.6558 223.928L39.2518 217.834L36.5508 206.04C41.9748 203.062 48.1208 200.978 54.9488 199.723L58.8088 201.254L59.6918 205.38C68.4548 204.221 77.2068 203.902 85.9488 204.391V196.84C90.8518 196.819 95.6688 196.989 100.391 197.372C100.859 197.404 101.337 197.446 101.805 197.489C111.865 198.361 121.5 200.201 130.582 203.242L125.83 223.759Z" fill="url(#paint32_linear_61_1116)"/>
<path opacity="0.5" d="M49.0223 228.274C71.6333 224.271 94.0383 224.181 116.223 228.274L125.823 223.761C97.0243 216.81 68.6473 217.095 40.6533 223.925L49.0223 228.274Z" fill="url(#paint33_linear_61_1116)"/>
<path opacity="0.5" d="M54.9482 199.724L56.1622 205.858L59.6902 205.381L58.8082 201.258L54.9482 199.724Z" fill="url(#paint34_linear_61_1116)"/>
<path opacity="0.2" d="M125.826 223.759L116.223 228.279L124.593 320.088C113.66 334.679 75.5666 333.413 50.6816 319.131C64.6966 325.14 78.0656 328.22 89.8066 323.927L93.7946 225.556L100.516 219.983L101.803 197.491C111.863 198.363 121.498 200.203 130.58 203.244L125.826 223.759Z" fill="url(#paint35_linear_61_1116)"/>
<path d="M38.5617 206.606L39.2527 217.836L36.5518 206.042C41.9758 203.064 48.1218 200.98 54.9498 199.725C48.3378 201.64 42.0437 203.661 38.5617 206.606Z" fill="#FF954A"/>
<path d="M56.1621 205.857C66.2541 204.4 76.2041 203.783 85.9461 204.393V196.841C91.2651 196.821 96.0231 197.018 100.389 197.369L87.7461 198.178L87.4711 205.582C77.5301 204.877 67.0581 205.026 56.1621 205.857Z" fill="#FF954A"/>
<path d="M47.5382 270.105C46.9322 286.004 41.1572 306.933 41.1572 306.933L47.6972 241.572C47.8142 248.751 47.9102 260.172 47.5382 270.105Z" fill="#FF954A"/>
<path d="M68.3919 110.691C60.5189 112.015 53.3069 113.881 48.2599 117.518C47.0519 122.992 47.2489 130.07 47.9409 137.713C46.5369 131.013 45.9839 124.196 46.2389 117.252C53.0989 112.85 60.5859 110.989 68.3919 110.691Z" fill="#FF954A"/>
<path d="M96.2866 109.213C90.0786 108.966 84.2356 109.026 80.6216 110.957L79.3776 127.919H68.3916L78.2396 126.611V109.213C83.4826 107.49 89.4806 107.437 96.2866 109.213Z" fill="#FF954A"/>
<path d="M60.6605 181.689C60.1395 187.315 57.6725 193.599 56.3115 196.704L60.7675 162.896L60.9265 161.823C60.9265 161.823 61.3835 173.83 60.6605 181.689Z" fill="#FF954A"/>
<path d="M271.463 214.905C277.271 211.464 283.504 209.536 290.363 209.848L295.88 213.373V227.012H300.784V209.849C307.147 208.19 312.744 208.239 317.641 209.849V226.093L322.545 226.706V215.826L326.836 211.229C334.128 211.502 341.111 213.24 347.524 217.359C347.837 225.877 346.842 234.207 344.459 242.337L333.426 255.976L340.092 306.546C322.991 313.519 303.741 314.145 281.707 306.546L286.534 255.976L273.151 242.797C270.312 233.506 269.672 224.209 271.463 214.905Z" fill="url(#paint36_linear_61_1116)"/>
<path opacity="0.5" d="M290.363 208.929L290.382 227.05L295.88 227.012V213.373L290.363 208.929Z" fill="url(#paint37_linear_61_1116)"/>
<path opacity="0.5" d="M326.835 211.228V227.318L322.544 226.705V215.825L326.835 211.228Z" fill="url(#paint38_linear_61_1116)"/>
<path opacity="0.5" d="M344.458 242.336C322.067 232.746 298.286 232.978 273.149 242.796L286.532 255.975C302.438 246.494 318.064 246.658 333.424 255.975L344.458 242.336Z" fill="url(#paint39_linear_61_1116)"/>
<path opacity="0.2" d="M329.894 293.964C328.971 294.314 328.321 295.422 328.661 296.27C328.871 296.795 329.428 297.141 329.948 297.182C331.227 297.281 332.549 295.546 332.147 294.608C331.87 293.963 330.756 293.637 329.894 293.964Z" fill="url(#paint40_linear_61_1116)"/>
<path opacity="0.2" d="M332.188 295.287C332.175 295.249 332.163 295.211 332.15 295.173C331.872 294.529 330.76 294.213 329.889 294.541C329.245 294.781 328.727 295.4 328.601 296.057C328.437 295.249 329.043 294.289 329.889 293.96C330.761 293.632 331.872 293.96 332.15 294.604C332.238 294.807 332.238 295.034 332.188 295.287Z" fill="url(#paint41_linear_61_1116)"/>
<path d="M331.973 296.776C331.581 297.521 330.76 298.191 329.952 298.128C329.889 298.128 329.826 298.115 329.775 298.103C329.308 298.002 328.84 297.673 328.663 297.206C328.537 296.903 328.549 296.562 328.65 296.233C328.65 296.246 328.663 296.258 328.663 296.271C328.865 296.789 329.434 297.143 329.952 297.181C330.874 297.257 331.821 296.373 332.137 295.514C332.137 295.527 332.15 295.527 332.15 295.539C332.301 295.892 332.213 296.346 331.973 296.776Z" fill="#FFCBA3"/>
<path opacity="0.2" d="M335.395 298.367C334.704 297.512 331.763 298.603 329.922 300.015C328.58 301.044 326.795 303.033 327.333 304.017C327.789 304.851 329.792 304.743 331.158 304.252C334.235 303.147 336.188 299.347 335.395 298.367Z" fill="url(#paint42_linear_61_1116)"/>
<path opacity="0.2" d="M335.539 299.318C335.526 299.166 335.476 299.04 335.4 298.939C334.705 298.08 331.762 299.179 329.918 300.581C328.857 301.402 327.531 302.804 327.265 303.853C326.974 302.83 328.642 300.998 329.918 300.013C330.032 299.924 330.145 299.836 330.272 299.748C330.285 299.748 330.297 299.748 330.31 299.735C330.714 299.457 331.131 299.205 331.586 298.977C333.19 298.156 334.896 297.739 335.401 298.371C335.564 298.572 335.615 298.913 335.539 299.318Z" fill="url(#paint43_linear_61_1116)"/>
<path d="M331.156 305.24C329.792 305.733 327.783 305.834 327.328 305C327.189 304.735 327.214 304.394 327.341 304.027C327.808 304.848 329.804 304.747 331.156 304.254C333.48 303.408 335.16 301.046 335.501 299.517C335.943 300.756 334.049 304.192 331.156 305.24Z" fill="#FFCBA3"/>
<path d="M298.122 144.01L286.307 158.611L293.453 212.763H230.921L236.1 158.611L221.765 144.499C220.489 140.32 219.627 136.14 219.202 131.95C218.607 126.186 218.851 120.401 219.957 114.626C226.178 110.946 232.857 108.883 240.195 109.213L246.108 112.988V127.6H251.362V109.213C258.168 107.437 264.166 107.49 269.409 109.213V126.611L274.663 127.27V115.615L279.257 110.691C280.565 110.744 281.852 110.829 283.139 110.978C289.541 111.68 295.688 113.583 301.409 117.252C301.749 126.378 300.675 135.3 298.122 144.01Z" fill="url(#paint44_linear_61_1116)"/>
<path opacity="0.5" d="M246.104 112.989V127.601L240.213 127.633L240.191 109.213L246.104 112.989Z" fill="url(#paint45_linear_61_1116)"/>
<path opacity="0.5" d="M279.252 110.693V127.924L274.657 127.267V115.616L279.252 110.693Z" fill="url(#paint46_linear_61_1116)"/>
<path opacity="0.5" d="M298.124 144.006C273.594 133.466 246.223 132.782 221.76 144.498L236.092 158.611C254.006 150.432 270.736 150.599 286.308 158.611L298.124 144.006Z" fill="url(#paint47_linear_61_1116)"/>
<path opacity="0.2" d="M298.119 144.01L286.304 158.611L293.45 212.763H276.264L271.893 153.517C275.878 148.386 279.058 143.322 280.954 138.363C283.576 129.634 284.106 120.465 283.134 110.979C289.536 111.681 295.683 113.584 301.404 117.253C301.746 126.378 300.672 135.3 298.119 144.01Z" fill="url(#paint48_linear_61_1116)"/>
<g opacity="0.5">
<path d="M253.849 186.114C253.849 187.73 253.902 189.22 254.07 190.72C259.401 191.935 264.977 191.681 270.239 190.728C270.407 189.228 270.463 187.73 270.463 186.114C270.463 175.603 266.745 167.083 262.153 167.083C257.567 167.083 253.849 175.603 253.849 186.114Z" fill="url(#paint49_linear_61_1116)"/>
</g>
<g opacity="0.5">
<path d="M254.539 186.234C254.539 187.742 254.583 189.133 254.742 190.539C259.627 191.684 264.744 191.438 269.571 190.554C269.73 189.148 269.774 187.742 269.774 186.234C269.774 176.406 266.367 169.607 262.164 169.607C257.945 169.607 254.539 176.405 254.539 186.234Z" fill="url(#paint50_linear_61_1116)"/>
</g>
<path d="M306.991 223.929L298.622 228.279L306.991 311.963C289.774 327.436 258.518 333.658 238.536 328.872C231.73 327.245 226.232 324.342 223.052 320.088L223.85 311.368L230.156 242.136L231.422 228.279L221.819 223.759L220.394 217.623V217.612L217.065 203.245C230.794 198.651 245.779 196.79 261.635 196.843H261.699V204.394C267.814 204.054 273.929 204.107 280.054 204.575C282.692 204.766 285.318 205.032 287.956 205.383L288.839 201.257L292.699 199.726C299.526 200.981 305.673 203.065 311.097 206.043L306.991 223.929Z" fill="url(#paint51_linear_61_1116)"/>
<path opacity="0.5" d="M298.616 228.274C276.005 224.271 253.6 224.181 231.415 228.274L221.815 223.761C250.614 216.81 278.991 217.095 306.985 223.925L298.616 228.274Z" fill="url(#paint52_linear_61_1116)"/>
<path opacity="0.5" d="M292.692 199.724L291.478 205.858L287.949 205.381L288.831 201.258L292.692 199.724Z" fill="url(#paint53_linear_61_1116)"/>
<path opacity="0.2" d="M306.988 223.929L298.619 228.279L306.988 311.963C289.771 327.436 258.515 333.658 238.533 328.872C254.351 330.376 268.572 327.21 281.167 319.29C281.122 288.234 279.2 256.983 275.477 225.545L281.167 219.27L280.05 204.573C282.687 204.764 285.314 205.03 287.951 205.381L288.834 201.255L292.694 199.724C299.521 200.979 305.668 203.063 311.092 206.041L306.988 223.929Z" fill="url(#paint54_linear_61_1116)"/>
<path d="M261.698 197.215C245.012 198.278 230.794 200.405 220.393 204.17V217.612L217.064 203.245C230.793 198.651 245.778 196.79 261.634 196.843L261.698 197.215Z" fill="#FF954A"/>
<path d="M229.934 275.773C229.115 289.417 225.542 304.699 223.851 311.367L230.157 242.135C230.412 249.804 230.667 263.586 229.934 275.773Z" fill="#FF954A"/>
<path d="M240.195 109.213C232.76 110.451 226.044 112.172 221.499 115.349C219.952 119.938 219.463 125.806 219.202 131.95C218.607 126.186 218.851 120.401 219.957 114.626C226.179 110.947 232.857 108.883 240.195 109.213Z" fill="#FF954A"/>
<path d="M269.41 109.213C263.4 108.314 257.95 108.288 253.65 110.053L252.321 128.408L240.219 127.632L251.364 127.6V109.213C258.169 107.437 264.167 107.49 269.41 109.213Z" fill="#FF954A"/>
<path opacity="0.5" d="M298.13 144.01L286.304 158.611L298.119 144.01H298.13Z" fill="url(#paint55_linear_61_1116)"/>
<path opacity="0.2" d="M50.655 208.337C49.668 208.428 48.819 209.191 48.626 210.061C48.302 211.527 49.974 212.699 50.858 213.104C51.276 213.296 52.298 213.764 52.988 213.307C53.891 212.709 53.785 210.818 52.988 209.655C52.818 209.408 51.999 208.214 50.655 208.337Z" fill="url(#paint56_linear_61_1116)"/>
<path opacity="0.2" d="M53.5835 212.144C53.5295 211.553 53.3325 210.943 52.9925 210.46C52.8135 210.227 52.0065 209.026 50.6625 209.152C49.6945 209.242 48.8525 209.958 48.6375 210.819C48.5655 210.586 48.5655 210.335 48.6195 210.066C48.8165 209.188 49.6765 208.435 50.6625 208.346C52.0065 208.221 52.8125 209.403 52.9925 209.654C53.4755 210.37 53.7085 211.356 53.5835 212.144Z" fill="url(#paint57_linear_61_1116)"/>
<path d="M52.9917 214.328C52.2927 214.794 51.2717 214.31 50.8597 214.131C49.9817 213.719 48.2967 212.536 48.6197 211.067C48.6377 211.013 48.6377 210.977 48.6737 210.924C48.9607 211.981 50.1607 212.788 50.8597 213.11C51.2717 213.289 52.2937 213.773 52.9917 213.307C53.3147 213.092 53.5117 212.698 53.5827 212.25C53.7087 213.128 53.5297 213.952 52.9917 214.328Z" fill="#FFCBA3"/>
<path opacity="0.2" d="M65.0553 274.639C65.5053 273.97 66.2464 273.544 67.0504 273.479C69.2574 273.302 71.3293 274.193 72.4173 275.818C74.4723 278.887 72.3584 283.59 69.9834 284.135C67.4804 284.709 63.7814 280.877 64.1004 277.238C64.1924 276.173 64.6143 275.293 65.0553 274.639Z" fill="url(#paint58_linear_61_1116)"/>
<path opacity="0.2" d="M73.2394 279.178C73.2034 278.282 72.9344 277.404 72.4154 276.634C71.3224 275.003 69.2614 274.107 67.0574 274.286C66.2514 274.358 65.4984 274.788 65.0504 275.451C64.6204 276.114 64.1904 276.974 64.1004 278.031C64.0824 277.762 64.0824 277.511 64.1004 277.243C64.1904 276.168 64.6204 275.29 65.0504 274.645C65.4984 273.964 66.2514 273.552 67.0574 273.48C69.2614 273.301 71.3224 274.197 72.4154 275.828C73.0954 276.831 73.3114 278.031 73.2394 279.178Z" fill="url(#paint59_linear_61_1116)"/>
<path d="M72.7016 282.42C72.4866 282.94 72.2177 283.406 71.9137 283.818C71.3577 284.571 70.6767 285.09 69.9787 285.252C67.4877 285.825 63.7787 281.973 64.1007 278.299C64.1007 278.263 64.1007 278.245 64.1187 278.227C64.4417 281.542 67.7207 284.66 69.9787 284.141C71.5377 283.783 73.0067 281.614 73.2227 279.321C73.3117 280.395 73.0956 281.47 72.7016 282.42Z" fill="#FFCBA3"/>
<path opacity="0.2" d="M72.9372 285.313C72.5542 285.236 71.7452 286.07 71.9482 286.987C72.1152 287.743 72.9032 288.254 73.2412 288.09C73.8102 287.814 73.5222 285.431 72.9372 285.313Z" fill="url(#paint60_linear_61_1116)"/>
<path opacity="0.2" d="M73.5267 287.488C73.4547 286.825 73.2217 286.18 72.9357 286.126C72.6667 286.072 72.1478 286.502 71.9858 287.112C71.9678 287.076 71.9677 287.023 71.9497 286.987C71.9137 286.808 71.9137 286.647 71.9317 286.485V286.467C72.0037 286.019 72.2728 285.643 72.5408 285.463C72.6838 285.338 72.8277 285.302 72.9347 285.32C73.3647 285.391 73.6337 286.699 73.5267 287.488Z" fill="url(#paint61_linear_61_1116)"/>
<path d="M73.2398 289.206C72.8988 289.367 72.1108 288.848 71.9498 288.095C71.8778 287.79 71.9317 287.486 72.0397 287.235C72.2907 287.844 72.9357 288.239 73.2407 288.095C73.3837 288.023 73.4558 287.826 73.5098 287.575C73.6158 288.274 73.5438 289.045 73.2398 289.206Z" fill="#FFCBA3"/>
<path opacity="0.2" d="M226.307 122.778C225.065 122.737 223.554 123.289 223.492 123.995C223.428 124.728 224.948 125.389 225.242 125.516C227.194 126.364 229.866 126.202 230.111 125.364C230.349 124.548 228.356 122.846 226.307 122.778Z" fill="url(#paint62_linear_61_1116)"/>
<path opacity="0.2" d="M230.106 125.362C230.088 125.434 230.034 125.523 229.981 125.577C229.515 124.717 227.92 123.642 226.307 123.588C225.286 123.552 224.049 123.946 223.655 124.466C223.53 124.305 223.476 124.161 223.494 124C223.548 123.283 225.071 122.746 226.307 122.781C228.35 122.853 230.357 124.556 230.106 125.362Z" fill="url(#paint63_linear_61_1116)"/>
<path d="M230.106 126.776C229.873 127.618 227.203 127.78 225.25 126.937C224.945 126.794 223.422 126.131 223.494 125.396C223.512 125.163 223.673 124.966 223.942 124.769C224.39 125.163 225.053 125.45 225.25 125.522C226.827 126.203 228.87 126.221 229.712 125.773C230.034 126.149 230.196 126.507 230.106 126.776Z" fill="#FFCBA3"/>
<path opacity="0.2" d="M234.964 128.407C234.174 127.995 232.841 128.774 232.834 129.7C232.829 130.41 233.605 131.192 234.432 131.069C235.044 130.978 235.482 130.421 235.573 129.852C235.661 129.301 235.438 128.654 234.964 128.407Z" fill="url(#paint64_linear_61_1116)"/>
<path opacity="0.2" d="M235.57 129.861C235.57 129.915 235.552 129.951 235.534 130.004C235.445 129.664 235.247 129.377 234.961 129.216C234.28 128.858 233.205 129.395 232.918 130.148C232.864 130.005 232.828 129.843 232.828 129.7C232.846 128.768 234.172 127.998 234.961 128.41C235.444 128.661 235.659 129.306 235.57 129.861Z" fill="url(#paint65_linear_61_1116)"/>
<path d="M235.57 131.257C235.48 131.831 235.05 132.386 234.423 132.475C233.599 132.601 232.828 131.812 232.828 131.095C232.828 130.862 232.918 130.629 233.079 130.432C233.384 130.844 233.885 131.149 234.423 131.077C234.871 131.005 235.229 130.683 235.427 130.307C235.57 130.594 235.623 130.952 235.57 131.257Z" fill="#FFCBA3"/>
<defs>
<linearGradient id="paint0_linear_61_1116" x1="172.972" y1="108.734" x2="177.943" y2="0.317117" gradientUnits="userSpaceOnUse">
<stop offset="0.2333" stop-color="#FFC793"/>
<stop offset="1" stop-color="#FFD789"/>
</linearGradient>
<linearGradient id="paint1_linear_61_1116" x1="196.206" y1="88.0422" x2="200.176" y2="1.45168" gradientUnits="userSpaceOnUse">
<stop stop-color="#FFDDDD"/>
<stop offset="0.7571" stop-color="#A65190"/>
</linearGradient>
<linearGradient id="paint2_linear_61_1116" x1="172.973" y1="108.724" x2="174.175" y2="82.506" gradientUnits="userSpaceOnUse">
<stop stop-color="#FFDDDD"/>
<stop offset="0.7571" stop-color="#A65190"/>
</linearGradient>
<linearGradient id="paint3_linear_61_1116" x1="173.789" y1="84.8308" x2="173.789" y2="202.2" gradientUnits="userSpaceOnUse">
<stop offset="0.2333" stop-color="#FFC793"/>
<stop offset="1" stop-color="#FFD789"/>
</linearGradient>
<linearGradient id="paint4_linear_61_1116" x1="136.64" y1="143.517" x2="210.94" y2="143.517" gradientUnits="userSpaceOnUse">
<stop stop-color="#FFDDDD"/>
<stop offset="0.7571" stop-color="#A65190"/>
</linearGradient>
<linearGradient id="paint5_linear_61_1116" x1="173.79" y1="213.665" x2="173.79" y2="116.284" gradientUnits="userSpaceOnUse">
<stop stop-color="#FFDDDD"/>
<stop offset="0.7571" stop-color="#A65190"/>
</linearGradient>
<linearGradient id="paint6_linear_61_1116" x1="173.965" y1="213.665" x2="173.965" y2="131.343" gradientUnits="userSpaceOnUse">
<stop stop-color="#FFDDDD"/>
<stop offset="0.7571" stop-color="#A65190"/>
</linearGradient>
<linearGradient id="paint7_linear_61_1116" x1="168.631" y1="54.4604" x2="168.631" y2="59.2015" gradientUnits="userSpaceOnUse">
<stop stop-color="#950000"/>
<stop offset="0.2011" stop-color="#9F1F21"/>
<stop offset="0.6414" stop-color="#B96B75"/>
<stop offset="1" stop-color="#D0AEBE"/>
</linearGradient>
<linearGradient id="paint8_linear_61_1116" x1="168.643" y1="54.4691" x2="168.643" y2="57.9792" gradientUnits="userSpaceOnUse">
<stop stop-color="#950000"/>
<stop offset="0.2011" stop-color="#9F1F21"/>
<stop offset="0.6414" stop-color="#B96B75"/>
<stop offset="1" stop-color="#D0AEBE"/>
</linearGradient>
<linearGradient id="paint9_linear_61_1116" x1="151.789" y1="99.2492" x2="151.789" y2="111.786" gradientUnits="userSpaceOnUse">
<stop stop-color="#950000"/>
<stop offset="0.2011" stop-color="#9F1F21"/>
<stop offset="0.6414" stop-color="#B96B75"/>
<stop offset="1" stop-color="#D0AEBE"/>
</linearGradient>
<linearGradient id="paint10_linear_61_1116" x1="151.795" y1="99.2482" x2="151.795" y2="105.929" gradientUnits="userSpaceOnUse">
<stop stop-color="#950000"/>
<stop offset="0.2011" stop-color="#9F1F21"/>
<stop offset="0.6414" stop-color="#B96B75"/>
<stop offset="1" stop-color="#D0AEBE"/>
</linearGradient>
<linearGradient id="paint11_linear_61_1116" x1="157.489" y1="117.043" x2="157.489" y2="120.327" gradientUnits="userSpaceOnUse">
<stop stop-color="#950000"/>
<stop offset="0.2011" stop-color="#9F1F21"/>
<stop offset="0.6414" stop-color="#B96B75"/>
<stop offset="1" stop-color="#D0AEBE"/>
</linearGradient>
<linearGradient id="paint12_linear_61_1116" x1="157.492" y1="117.052" x2="157.492" y2="119.589" gradientUnits="userSpaceOnUse">
<stop stop-color="#950000"/>
<stop offset="0.2011" stop-color="#9F1F21"/>
<stop offset="0.6414" stop-color="#B96B75"/>
<stop offset="1" stop-color="#D0AEBE"/>
</linearGradient>
<linearGradient id="paint13_linear_61_1116" x1="173.79" y1="182.146" x2="173.79" y2="319.019" gradientUnits="userSpaceOnUse">
<stop offset="0.0251" stop-color="#EC9075"/>
<stop offset="0.8228" stop-color="#FFC984"/>
</linearGradient>
<linearGradient id="paint14_linear_61_1116" x1="173.789" y1="220.977" x2="173.789" y2="207.494" gradientUnits="userSpaceOnUse">
<stop stop-color="#FFDDDD"/>
<stop offset="0.7571" stop-color="#A65190"/>
</linearGradient>
<linearGradient id="paint15_linear_61_1116" x1="140.003" y1="196.321" x2="140.003" y2="182.147" gradientUnits="userSpaceOnUse">
<stop stop-color="#FFDDDD"/>
<stop offset="0.7571" stop-color="#A65190"/>
</linearGradient>
<linearGradient id="paint16_linear_61_1116" x1="207.576" y1="196.315" x2="207.576" y2="182.147" gradientUnits="userSpaceOnUse">
<stop stop-color="#FFDDDD"/>
<stop offset="0.7571" stop-color="#A65190"/>
</linearGradient>
<linearGradient id="paint17_linear_61_1116" x1="141.1" y1="221.272" x2="141.1" y2="232.268" gradientUnits="userSpaceOnUse">
<stop stop-color="#950000"/>
<stop offset="0.2011" stop-color="#9F1F21"/>
<stop offset="0.6414" stop-color="#B96B75"/>
<stop offset="1" stop-color="#D0AEBE"/>
</linearGradient>
<linearGradient id="paint18_linear_61_1116" x1="141.101" y1="221.265" x2="141.101" y2="229.372" gradientUnits="userSpaceOnUse">
<stop stop-color="#950000"/>
<stop offset="0.2011" stop-color="#9F1F21"/>
<stop offset="0.6414" stop-color="#B96B75"/>
<stop offset="1" stop-color="#D0AEBE"/>
</linearGradient>
<linearGradient id="paint19_linear_61_1116" x1="132.464" y1="236.877" x2="132.464" y2="240.492" gradientUnits="userSpaceOnUse">
<stop stop-color="#950000"/>
<stop offset="0.2011" stop-color="#9F1F21"/>
<stop offset="0.6414" stop-color="#B96B75"/>
<stop offset="1" stop-color="#D0AEBE"/>
</linearGradient>
<linearGradient id="paint20_linear_61_1116" x1="132.465" y1="236.883" x2="132.465" y2="239.149" gradientUnits="userSpaceOnUse">
<stop stop-color="#950000"/>
<stop offset="0.2011" stop-color="#9F1F21"/>
<stop offset="0.6414" stop-color="#B96B75"/>
<stop offset="1" stop-color="#D0AEBE"/>
</linearGradient>
<linearGradient id="paint21_linear_61_1116" x1="38.5606" y1="208.622" x2="38.5606" y2="312.011" gradientUnits="userSpaceOnUse">
<stop stop-color="#EC9075"/>
<stop offset="1" stop-color="#FFC984"/>
</linearGradient>
<linearGradient id="paint22_linear_61_1116" x1="54.4594" y1="227.05" x2="54.4594" y2="208.929" gradientUnits="userSpaceOnUse">
<stop stop-color="#FFDDDD"/>
<stop offset="0.7571" stop-color="#A65190"/>
</linearGradient>
<linearGradient id="paint23_linear_61_1116" x1="22.8915" y1="227.318" x2="22.8915" y2="211.227" gradientUnits="userSpaceOnUse">
<stop stop-color="#FFDDDD"/>
<stop offset="0.7571" stop-color="#A65190"/>
</linearGradient>
<linearGradient id="paint24_linear_61_1116" x1="38.7776" y1="255.974" x2="38.7776" y2="235.285" gradientUnits="userSpaceOnUse">
<stop stop-color="#FFDDDD"/>
<stop offset="0.7571" stop-color="#A65190"/>
</linearGradient>
<linearGradient id="paint25_linear_61_1116" x1="87.4709" y1="107.901" x2="87.4709" y2="212.763" gradientUnits="userSpaceOnUse">
<stop offset="0.2333" stop-color="#FFC793"/>
<stop offset="1" stop-color="#FFD789"/>
</linearGradient>
<linearGradient id="paint26_linear_61_1116" x1="104.493" y1="127.632" x2="104.493" y2="109.213" gradientUnits="userSpaceOnUse">
<stop stop-color="#FFDDDD"/>
<stop offset="0.7571" stop-color="#A65190"/>
</linearGradient>
<linearGradient id="paint27_linear_61_1116" x1="70.6848" y1="127.924" x2="70.6848" y2="110.692" gradientUnits="userSpaceOnUse">
<stop stop-color="#FFDDDD"/>
<stop offset="0.7571" stop-color="#A65190"/>
</linearGradient>
<linearGradient id="paint28_linear_61_1116" x1="87.6969" y1="158.611" x2="87.6969" y2="135.906" gradientUnits="userSpaceOnUse">
<stop stop-color="#FFDDDD"/>
<stop offset="0.7571" stop-color="#A65190"/>
</linearGradient>
<linearGradient id="paint29_linear_61_1116" x1="112.563" y1="109.404" x2="112.563" y2="212.763" gradientUnits="userSpaceOnUse">
<stop stop-color="#FFDDDD"/>
<stop offset="0.7571" stop-color="#A65190"/>
</linearGradient>
<linearGradient id="paint30_linear_61_1116" x1="85.4836" y1="191.539" x2="85.4836" y2="167.084" gradientUnits="userSpaceOnUse">
<stop stop-color="#FFDDDD"/>
<stop offset="0.7571" stop-color="#A65190"/>
</linearGradient>
<linearGradient id="paint31_linear_61_1116" x1="85.484" y1="191.31" x2="85.484" y2="169.607" gradientUnits="userSpaceOnUse">
<stop stop-color="#FFDDDD"/>
<stop offset="0.7571" stop-color="#A65190"/>
</linearGradient>
<linearGradient id="paint32_linear_61_1116" x1="83.5676" y1="196.841" x2="83.5676" y2="330.452" gradientUnits="userSpaceOnUse">
<stop offset="0.0054" stop-color="#FFC793"/>
<stop offset="1" stop-color="#FFD789"/>
</linearGradient>
<linearGradient id="paint33_linear_61_1116" x1="83.2384" y1="218.673" x2="83.2384" y2="228.274" gradientUnits="userSpaceOnUse">
<stop stop-color="#FFDDDD"/>
<stop offset="0.7571" stop-color="#A65190"/>
</linearGradient>
<linearGradient id="paint34_linear_61_1116" x1="57.3191" y1="199.724" x2="57.3191" y2="205.858" gradientUnits="userSpaceOnUse">
<stop stop-color="#FFDDDD"/>
<stop offset="0.7571" stop-color="#A65190"/>
</linearGradient>
<linearGradient id="paint35_linear_61_1116" x1="90.6303" y1="197.491" x2="90.6303" y2="330.453" gradientUnits="userSpaceOnUse">
<stop stop-color="#FFDDDD"/>
<stop offset="0.7571" stop-color="#A65190"/>
</linearGradient>
<linearGradient id="paint36_linear_61_1116" x1="309.021" y1="208.622" x2="309.021" y2="312.011" gradientUnits="userSpaceOnUse">
<stop stop-color="#EC9075"/>
<stop offset="1" stop-color="#FFC984"/>
</linearGradient>
<linearGradient id="paint37_linear_61_1116" x1="293.122" y1="227.05" x2="293.122" y2="208.929" gradientUnits="userSpaceOnUse">
<stop stop-color="#FFDDDD"/>
<stop offset="0.7571" stop-color="#A65190"/>
</linearGradient>
<linearGradient id="paint38_linear_61_1116" x1="324.689" y1="227.318" x2="324.689" y2="211.227" gradientUnits="userSpaceOnUse">
<stop stop-color="#FFDDDD"/>
<stop offset="0.7571" stop-color="#A65190"/>
</linearGradient>
<linearGradient id="paint39_linear_61_1116" x1="308.804" y1="255.974" x2="308.804" y2="235.285" gradientUnits="userSpaceOnUse">
<stop stop-color="#FFDDDD"/>
<stop offset="0.7571" stop-color="#A65190"/>
</linearGradient>
<linearGradient id="paint40_linear_61_1116" x1="330.395" y1="293.835" x2="330.395" y2="297.185" gradientUnits="userSpaceOnUse">
<stop stop-color="#950000"/>
<stop offset="0.2011" stop-color="#9F1F21"/>
<stop offset="0.6414" stop-color="#B96B75"/>
<stop offset="1" stop-color="#D0AEBE"/>
</linearGradient>
<linearGradient id="paint41_linear_61_1116" x1="330.397" y1="293.831" x2="330.397" y2="296.057" gradientUnits="userSpaceOnUse">
<stop stop-color="#950000"/>
<stop offset="0.2011" stop-color="#9F1F21"/>
<stop offset="0.6414" stop-color="#B96B75"/>
<stop offset="1" stop-color="#D0AEBE"/>
</linearGradient>
<linearGradient id="paint42_linear_61_1116" x1="331.403" y1="298.064" x2="331.403" y2="304.631" gradientUnits="userSpaceOnUse">
<stop stop-color="#950000"/>
<stop offset="0.2011" stop-color="#9F1F21"/>
<stop offset="0.6414" stop-color="#B96B75"/>
<stop offset="1" stop-color="#D0AEBE"/>
</linearGradient>
<linearGradient id="paint43_linear_61_1116" x1="331.403" y1="298.064" x2="331.403" y2="303.852" gradientUnits="userSpaceOnUse">
<stop stop-color="#950000"/>
<stop offset="0.2011" stop-color="#9F1F21"/>
<stop offset="0.6414" stop-color="#B96B75"/>
<stop offset="1" stop-color="#D0AEBE"/>
</linearGradient>
<linearGradient id="paint44_linear_61_1116" x1="260.178" y1="107.901" x2="260.178" y2="212.763" gradientUnits="userSpaceOnUse">
<stop offset="0.2333" stop-color="#FFC793"/>
<stop offset="1" stop-color="#FFD789"/>
</linearGradient>
<linearGradient id="paint45_linear_61_1116" x1="243.148" y1="127.632" x2="243.148" y2="109.213" gradientUnits="userSpaceOnUse">
<stop stop-color="#FFDDDD"/>
<stop offset="0.7571" stop-color="#A65190"/>
</linearGradient>
<linearGradient id="paint46_linear_61_1116" x1="276.954" y1="127.924" x2="276.954" y2="110.692" gradientUnits="userSpaceOnUse">
<stop stop-color="#FFDDDD"/>
<stop offset="0.7571" stop-color="#A65190"/>
</linearGradient>
<linearGradient id="paint47_linear_61_1116" x1="259.942" y1="158.611" x2="259.942" y2="135.906" gradientUnits="userSpaceOnUse">
<stop stop-color="#FFDDDD"/>
<stop offset="0.7571" stop-color="#A65190"/>
</linearGradient>
<linearGradient id="paint48_linear_61_1116" x1="286.68" y1="212.763" x2="286.68" y2="110.978" gradientUnits="userSpaceOnUse">
<stop stop-color="#FFDDDD"/>
<stop offset="0.7571" stop-color="#A65190"/>
</linearGradient>
<linearGradient id="paint49_linear_61_1116" x1="262.156" y1="191.539" x2="262.156" y2="167.084" gradientUnits="userSpaceOnUse">
<stop stop-color="#FFDDDD"/>
<stop offset="0.7571" stop-color="#A65190"/>
</linearGradient>
<linearGradient id="paint50_linear_61_1116" x1="262.157" y1="191.31" x2="262.157" y2="169.607" gradientUnits="userSpaceOnUse">
<stop stop-color="#FFDDDD"/>
<stop offset="0.7571" stop-color="#A65190"/>
</linearGradient>
<linearGradient id="paint51_linear_61_1116" x1="264.081" y1="196.841" x2="264.081" y2="330.451" gradientUnits="userSpaceOnUse">
<stop offset="0.0054" stop-color="#FFC793"/>
<stop offset="1" stop-color="#FFD789"/>
</linearGradient>
<linearGradient id="paint52_linear_61_1116" x1="264.401" y1="218.673" x2="264.401" y2="228.274" gradientUnits="userSpaceOnUse">
<stop stop-color="#FFDDDD"/>
<stop offset="0.7571" stop-color="#A65190"/>
</linearGradient>
<linearGradient id="paint53_linear_61_1116" x1="290.321" y1="199.724" x2="290.321" y2="205.858" gradientUnits="userSpaceOnUse">
<stop stop-color="#FFDDDD"/>
<stop offset="0.7571" stop-color="#A65190"/>
</linearGradient>
<linearGradient id="paint54_linear_61_1116" x1="274.813" y1="199.724" x2="274.813" y2="330.451" gradientUnits="userSpaceOnUse">
<stop stop-color="#FFDDDD"/>
<stop offset="0.7571" stop-color="#A65190"/>
</linearGradient>
<linearGradient id="paint55_linear_61_1116" x1="292.217" y1="158.611" x2="292.217" y2="144.009" gradientUnits="userSpaceOnUse">
<stop stop-color="#FFDDDD"/>
<stop offset="0.7571" stop-color="#A65190"/>
</linearGradient>
<linearGradient id="paint56_linear_61_1116" x1="51.1061" y1="208.328" x2="51.1061" y2="213.502" gradientUnits="userSpaceOnUse">
<stop stop-color="#950000"/>
<stop offset="0.2011" stop-color="#9F1F21"/>
<stop offset="0.6414" stop-color="#B96B75"/>
<stop offset="1" stop-color="#D0AEBE"/>
</linearGradient>
<linearGradient id="paint57_linear_61_1116" x1="51.099" y1="208.335" x2="51.099" y2="212.144" gradientUnits="userSpaceOnUse">
<stop stop-color="#950000"/>
<stop offset="0.2011" stop-color="#9F1F21"/>
<stop offset="0.6414" stop-color="#B96B75"/>
<stop offset="1" stop-color="#D0AEBE"/>
</linearGradient>
<linearGradient id="paint58_linear_61_1116" x1="68.6644" y1="273.457" x2="68.6644" y2="284.193" gradientUnits="userSpaceOnUse">
<stop stop-color="#950000"/>
<stop offset="0.2011" stop-color="#9F1F21"/>
<stop offset="0.6414" stop-color="#B96B75"/>
<stop offset="1" stop-color="#D0AEBE"/>
</linearGradient>
<linearGradient id="paint59_linear_61_1116" x1="68.6695" y1="273.456" x2="68.6695" y2="279.178" gradientUnits="userSpaceOnUse">
<stop stop-color="#950000"/>
<stop offset="0.2011" stop-color="#9F1F21"/>
<stop offset="0.6414" stop-color="#B96B75"/>
<stop offset="1" stop-color="#D0AEBE"/>
</linearGradient>
<linearGradient id="paint60_linear_61_1116" x1="72.7331" y1="285.307" x2="72.7331" y2="288.12" gradientUnits="userSpaceOnUse">
<stop stop-color="#950000"/>
<stop offset="0.2011" stop-color="#9F1F21"/>
<stop offset="0.6414" stop-color="#B96B75"/>
<stop offset="1" stop-color="#D0AEBE"/>
</linearGradient>
<linearGradient id="paint61_linear_61_1116" x1="72.7348" y1="285.315" x2="72.7348" y2="287.487" gradientUnits="userSpaceOnUse">
<stop stop-color="#950000"/>
<stop offset="0.2011" stop-color="#9F1F21"/>
<stop offset="0.6414" stop-color="#B96B75"/>
<stop offset="1" stop-color="#D0AEBE"/>
</linearGradient>
<linearGradient id="paint62_linear_61_1116" x1="226.811" y1="122.776" x2="226.811" y2="126.078" gradientUnits="userSpaceOnUse">
<stop stop-color="#950000"/>
<stop offset="0.2011" stop-color="#9F1F21"/>
<stop offset="0.6414" stop-color="#B96B75"/>
<stop offset="1" stop-color="#D0AEBE"/>
</linearGradient>
<linearGradient id="paint63_linear_61_1116" x1="226.808" y1="122.78" x2="226.808" y2="125.577" gradientUnits="userSpaceOnUse">
<stop stop-color="#950000"/>
<stop offset="0.2011" stop-color="#9F1F21"/>
<stop offset="0.6414" stop-color="#B96B75"/>
<stop offset="1" stop-color="#D0AEBE"/>
</linearGradient>
<linearGradient id="paint64_linear_61_1116" x1="234.213" y1="128.294" x2="234.213" y2="131.082" gradientUnits="userSpaceOnUse">
<stop stop-color="#950000"/>
<stop offset="0.2011" stop-color="#9F1F21"/>
<stop offset="0.6414" stop-color="#B96B75"/>
<stop offset="1" stop-color="#D0AEBE"/>
</linearGradient>
<linearGradient id="paint65_linear_61_1116" x1="234.209" y1="128.296" x2="234.209" y2="130.148" gradientUnits="userSpaceOnUse">
<stop stop-color="#950000"/>
<stop offset="0.2011" stop-color="#9F1F21"/>
<stop offset="0.6414" stop-color="#B96B75"/>
<stop offset="1" stop-color="#D0AEBE"/>
</linearGradient>
</defs>
</svg>
