<svg width="295" height="279" viewBox="0 0 295 279" fill="none" xmlns="http://www.w3.org/2000/svg">
<g filter="url(#filter0_d_91_25)">
<path d="M204.433 9.60763C207.402 8.38687 207.959 8.74882 209.524 6.56991C208.613 5.12913 208.022 4.80266 205.923 4.54005C181.011 1.44558 145.037 12.191 123.474 22.9578C116.312 26.5562 102.244 33.7956 96.6089 38.9342C84.6459 47.082 65.9678 64.1798 58.3047 76.5151C48.9465 89.0563 43.7666 97.133 39.4575 111.931C34.7911 120.789 30.6356 129.781 20.391 132.975C17.3235 133.926 10.2518 135.764 7.99997 137.205C10.6989 141.308 23.1599 141.996 29.2483 149.874C39.178 162.72 44.1252 177.916 52.7901 192.515L59.6311 204.184C74.8633 230.515 88.0728 251.68 118.538 260.8C121.626 261.673 125.701 262.957 128.77 263.532C147.322 268.614 182.953 267.855 201.528 262.922C204.582 262.113 211.197 260.828 212.795 258.131L212.369 256.584C209.384 253.88 205.592 252.666 201.786 251.538C182.236 245.753 170.95 249.635 163.724 226.285C163.905 202.984 186.814 194.027 198.012 174.545C205.355 156.851 207.523 145.509 206.235 126.481C202.448 86.5295 147.122 40.4034 204.433 9.60763Z" fill="#E887B4"/>
<path d="M96.6091 38.9341C84.6461 47.082 65.968 64.1798 58.3049 76.5151C48.9468 89.0562 43.7668 97.133 39.4577 111.931C34.7914 120.789 30.6358 129.781 20.3912 132.975C17.3237 133.926 10.252 135.764 8.00023 137.205C10.6991 141.308 23.1602 141.996 29.2485 149.874C39.1783 162.72 44.1255 177.916 52.7904 192.515L59.6314 204.184C74.8635 230.515 88.073 251.68 118.539 260.8C111.587 254.433 105.032 245.185 103.781 235.668C102.491 225.845 106.721 219.968 112.237 212.8C101.998 208.932 88.0454 203.012 80.3017 195.056C95.9052 199.911 101.246 203.538 118.411 203.751C122.64 196.738 125.341 186.035 124.926 177.852C123.339 146.517 131.219 112.62 108.304 87.6864C96.5172 93.0947 88.4239 98.4816 77.4733 105.458C84.6398 95.7136 93.2204 89.9292 103.631 84.2158C89.9725 71.0075 91.9492 55.5492 96.6091 38.9341Z" fill="#FFE4B4"/>
<path d="M58.3052 76.515C48.947 89.0562 43.7671 97.133 39.458 111.931C34.7916 120.789 30.6361 129.781 20.3915 132.975C17.324 133.926 10.2523 135.764 8.00049 137.205C10.6994 141.307 23.1605 141.996 29.2488 149.874C39.1786 162.72 44.1258 177.916 52.7906 192.515L59.6317 204.184C61.2001 202.36 63.3705 199.662 64.7515 197.661C76.3395 181.869 82.2842 148.149 75.1071 129.533C67.1257 108.83 62.1686 99.7236 58.3052 76.515Z" fill="#E887B4"/>
<path d="M39.4578 111.931C34.7915 120.789 30.6359 129.781 20.3913 132.975C17.3238 133.926 10.2522 135.764 8.00034 137.205C10.6993 141.308 23.1603 141.996 29.2486 149.874C39.1784 162.72 44.1256 177.916 52.7905 192.515C60.7733 181.259 54.8039 174.85 49.8623 163.97C41.4875 145.538 39.1239 131.761 39.4578 111.931Z" fill="#FFE4B4"/>
<path d="M57.6987 123.614C51.3267 122.698 45.4011 127.077 44.3916 133.458C43.382 139.838 47.6621 145.85 54.0037 146.957C58.1925 147.688 62.45 146.098 65.1439 142.798C67.8379 139.498 68.5503 134.998 67.0081 131.023C65.4658 127.049 61.9081 124.217 57.6987 123.614Z" fill="#FFFEFE"/>
<path d="M58.1306 130.761C56.4631 130.008 54.5191 130.228 53.0624 131.336C51.6065 132.443 50.8701 134.26 51.1438 136.077C51.4169 137.893 52.6564 139.412 54.3748 140.037C56.8996 140.96 59.699 139.71 60.71 137.212C61.7209 134.714 60.5812 131.861 58.1306 130.761Z" fill="#232323"/>
<path d="M204.434 9.60763C207.403 8.38687 207.96 8.74882 209.525 6.56991C208.614 5.12913 208.023 4.80266 205.924 4.54005C181.012 1.44558 145.038 12.191 123.475 22.9578C119.415 42.6319 118.167 57.5295 122.67 77.4945C135.835 74.4497 144.006 74.9962 157.414 75.2872C157.557 61.4401 161.605 47.9053 169.089 36.2655C176.969 24.1573 190.027 12.6666 204.434 9.60763Z" fill="#FFE4B4"/>
<path d="M160.55 210.507C148.777 219.805 142.937 219.762 128.683 217.257C115.281 238.492 112.843 241.608 128.77 263.532C147.322 268.614 182.953 267.854 201.528 262.922C204.582 262.113 211.197 260.828 212.795 258.131L212.369 256.584C209.384 253.88 205.592 252.666 201.786 251.538C182.236 245.753 170.95 249.635 163.724 226.285C160.832 219.89 160.833 217.335 160.55 210.507Z" fill="#FFE4B4"/>
<path d="M157.352 77.0971C145.914 77.0261 134.343 78.9567 123.36 82.0866C130.483 122.436 139.518 161.124 133.683 202.331C136.418 201.721 139.54 200.827 142.29 200.117C180.599 185.886 186.546 159.534 173.9 122.641C168.123 105.792 159.979 95.0465 157.352 77.0971Z" fill="#FFE4B4"/>
<path d="M261.308 233.446C264.57 233.453 266.219 233.695 268.857 231.878C271.821 226.136 263.728 218.506 260.699 213.311C237.519 173.537 244.622 115.075 277.192 82.5266C279.831 79.8863 285.402 75.784 287 72.8385L286.324 71.8166C281.051 70.972 262.24 80.525 257.341 83.1866C249.051 87.8922 242.501 92.321 234.917 98.1125C227.564 104.167 221.182 109.816 214.65 116.878C211.79 120.065 208.96 123.173 206.236 126.481C207.524 145.509 205.356 156.851 198.013 174.545C198.977 177.121 200.216 180.783 201.28 183.211C210.73 205.198 224.215 217.569 245.468 228.18C251.869 230.87 254.699 231.636 261.308 233.446Z" fill="#E887B4"/>
<path d="M261.308 233.446C264.57 233.453 266.219 233.695 268.857 231.878C271.821 226.136 263.728 218.506 260.699 213.311C237.519 173.537 244.622 115.075 277.192 82.5266C279.831 79.8863 285.402 75.784 287 72.8385L286.324 71.8166C281.051 70.972 262.24 80.525 257.341 83.1866C249.051 87.8922 242.501 92.321 234.917 98.1125C249.44 130.675 226.583 140.775 230.753 172.799C233.815 196.327 246.183 202.04 245.468 228.18C251.869 230.87 254.699 231.636 261.308 233.446Z" fill="#A0E8AF"/>
<path d="M261.308 233.446C264.57 233.453 266.219 233.695 268.857 231.878C271.821 226.136 263.728 218.506 260.699 213.311C237.519 173.537 244.622 115.075 277.192 82.5266C279.831 79.8863 285.402 75.784 287 72.8385L286.324 71.8166C281.051 70.972 262.24 80.525 257.341 83.1866C254.807 92.2642 249.669 102.839 247.748 111.072C242.462 133.742 239.372 168.398 246.341 190.649C250.912 205.248 257.064 217.74 261.308 233.446Z" fill="#E887B4"/>
<path d="M214.651 116.878C211.79 120.065 208.96 123.174 206.236 126.481C207.524 145.509 205.356 156.851 198.013 174.545C198.977 177.121 200.216 180.783 201.28 183.211C231.561 157.837 209.523 143.643 214.651 116.878Z" fill="#A0E8AF"/>
</g>
<defs>
<filter id="filter0_d_91_25" x="0" y="0" width="295" height="279" filterUnits="userSpaceOnUse" color-interpolation-filters="sRGB">
<feFlood flood-opacity="0" result="BackgroundImageFix"/>
<feColorMatrix in="SourceAlpha" type="matrix" values="0 0 0 0 0 0 0 0 0 0 0 0 0 0 0 0 0 0 127 0" result="hardAlpha"/>
<feOffset dy="4"/>
<feGaussianBlur stdDeviation="4"/>
<feComposite in2="hardAlpha" operator="out"/>
<feColorMatrix type="matrix" values="0 0 0 0 0 0 0 0 0 0 0 0 0 0 0 0 0 0 0.15 0"/>
<feBlend mode="normal" in2="BackgroundImageFix" result="effect1_dropShadow_91_25"/>
<feBlend mode="normal" in="SourceGraphic" in2="effect1_dropShadow_91_25" result="shape"/>
</filter>
</defs>
</svg>
