<svg width="179" height="139" viewBox="0 0 179 139" fill="none" xmlns="http://www.w3.org/2000/svg">
<path d="M146.305 60.2545C145.772 60.5445 145.376 61.0806 144.915 61.4751L142.861 63.0911C143.914 63.7569 145.125 64.1396 146.284 64.5846C147.904 65.2065 149.47 65.8209 151.134 66.312C151.25 66.3461 151.219 66.3441 151.339 66.4383C151.885 65.8838 154.006 64.0724 154.139 63.4615C154.201 63.1763 154.143 62.6505 153.939 62.4253C153.178 61.5853 147.483 60.3724 146.305 60.2545Z" fill="#00262A"/>
<path d="M86.4249 88.4136L88.0596 95.2402C89.1749 95.4431 90.3771 95.4597 91.5096 95.4806C96.3999 95.5706 101.377 94.974 106.171 94.0285C116.879 91.9168 127.229 87.9622 135.988 81.3376C137.527 80.173 139.074 78.9649 140.466 77.6266C140.858 77.0303 141.468 76.5416 141.964 76.0304C142.669 75.3024 143.332 74.5448 143.961 73.75C143.654 73.8995 143.4 74.0705 143.132 74.2802C142.642 74.7905 141.956 75.1659 141.367 75.5559C139.143 77.0284 136.867 78.3653 134.432 79.4661C133.726 79.7854 129.686 81.2508 129.447 81.5071C129.114 82.2255 126.035 83.6638 125.285 84.0414C122.683 85.3511 119.988 86.4601 117.251 87.4536C115.653 88.0335 114.039 88.6215 112.385 89.0245C105.638 90.6685 98.1116 90.6117 91.2801 89.4833C89.6609 89.2159 87.9846 88.9286 86.4249 88.4136Z" fill="#1E866F"/>
<path d="M72.7617 80.6714C71.4583 81.2285 70.3809 82.0517 69.3283 82.9884C68.2148 84.159 67.4485 85.2816 66.9687 86.8457C64.9851 93.6695 66.6298 101.012 69.9868 107.133C72.4587 111.639 75.8223 115.889 79.7265 119.242C85.2254 123.963 92.0894 127.252 99.0246 129.249C101 129.818 103.13 130.264 105.183 130.38C106.002 130.426 106.851 130.462 107.641 130.215L107.74 130.091L107.721 130.067C107.128 129.223 105.659 128.486 104.727 128.065C103.023 127.891 101.311 128.133 99.6156 127.757C97.1903 127.22 95.3117 125.001 93.2105 123.76C90.1053 121.925 86.6271 120.656 83.6373 118.635C82.6994 118.002 81.8489 117.234 81.2392 116.271C80.9279 115.969 80.7087 115.524 80.5224 115.135C79.9161 113.871 79.5109 112.442 79.3605 111.048C79.3575 111.021 79.3659 110.989 79.352 110.965C79.3034 110.88 78.4494 110.558 78.3176 110.491C77.5694 110.107 76.7901 109.651 76.162 109.092C75.6506 108.636 75.168 108.152 74.8205 107.555L74.7549 107.44C73.9523 106.056 73.9567 104.086 74.0601 102.538L74.2196 101.109C74.2238 101.079 74.2799 100.752 74.2707 100.735C74.2035 100.606 73.2696 100.179 73.0882 100.057C72.3364 99.5512 71.645 98.8014 71.1565 98.0409C70.085 96.3733 69.9453 94.1699 69.9004 92.2386C69.8386 89.5799 69.9536 86.9052 70.9628 84.4064C71.1974 83.825 71.455 83.2704 71.7681 82.7265C72.1164 82.1214 72.795 81.3668 72.9503 80.7111L72.7617 80.6714Z" fill="#014841"/>
<path d="M149.737 68.1504C148.58 69.3468 147.426 70.5653 146.138 71.6237C145.943 71.7839 144.826 72.561 144.801 72.6709C144.683 73.106 144.242 73.4067 143.961 73.7503C143.332 74.5452 142.669 75.3027 141.964 76.0307C141.468 76.542 140.859 77.0307 140.466 77.6269L141.375 79.3372C146.032 86.7759 154.849 91.2693 163.184 93.1616C167.024 94.0334 171.144 94.5532 175.081 94.3491C175.999 94.3015 177.159 94.2869 177.941 93.7503C178.209 93.5657 178.357 93.2869 178.396 92.9661C178.478 92.2871 178.069 91.4546 177.772 90.8621C176.897 89.1157 175.779 87.4719 174.627 85.8965C171.504 81.624 167.57 77.7163 163.387 74.4785C161.545 73.0522 159.611 71.6809 157.524 70.6338C155.054 69.3947 152.465 68.5749 149.737 68.1504Z" fill="#034A41"/>
<path d="M42.2571 63.5469C41.6677 63.833 41.0502 64.1063 40.5099 64.479C39.3892 65.2522 38.4877 66.189 37.6068 67.2209C36.2262 68.8385 34.9518 70.7022 34.2539 72.7264C32.1697 78.7729 33.008 86.2486 35.8065 91.9538C38.6773 97.8065 43.3025 102.721 48.7143 106.313C50.7792 107.684 52.9648 108.89 55.3167 109.689C56.0874 109.951 57.2538 110.425 58.0308 110.1C58.5043 109.649 58.5948 109.053 58.6145 108.423C58.6638 106.839 57.9866 105.033 57.3958 103.583C54.4538 96.3593 49.3758 89.8682 49.7461 81.679C49.8378 79.6524 50.227 77.4941 51.1721 75.6794C49.9282 74.5004 48.7721 73.2655 47.7446 71.8926C46.9456 70.825 46.2651 69.6542 45.5551 68.5263L42.2571 63.5469Z" fill="#024646"/>
<path d="M86.4246 88.4139L85.9137 87.0825C84.644 84.0236 82.4891 81.5734 79.3868 80.3247C77.2175 79.4514 74.8675 79.7669 72.7613 80.6715L72.9498 80.7113C72.7945 81.367 72.1159 82.1216 71.7676 82.7267C71.4545 83.2706 71.197 83.8252 70.9623 84.4066C69.9532 86.9054 69.8382 89.5801 69.9 92.2387C69.9448 94.1702 70.0845 96.3735 71.1561 98.0411C71.6445 98.8016 72.3359 99.5514 73.0877 100.057C73.2691 100.179 74.2031 100.606 74.2702 100.735C74.2794 100.753 74.2233 101.079 74.2192 101.11L74.0596 102.538C73.9562 104.087 73.9519 106.057 74.7544 107.44L74.8201 107.555C75.1675 108.152 75.6502 108.636 76.1616 109.092C76.7896 109.651 77.569 110.108 78.3171 110.491C78.4489 110.558 79.3029 110.88 79.3515 110.965C79.3654 110.989 79.357 111.021 79.3601 111.049C79.5104 112.443 79.9156 113.871 80.5219 115.136C80.7082 115.524 80.9274 115.969 81.2387 116.271C81.8484 117.235 82.6989 118.002 83.6368 118.636C86.6266 120.656 90.1048 121.925 93.21 123.76C95.3113 125.001 97.1898 127.22 99.6151 127.757C101.31 128.133 103.022 127.891 104.727 128.066C105.659 128.486 107.128 129.223 107.72 130.067L107.74 130.091C107.977 129.255 107.781 128.085 107.59 127.252L107.347 126.395C106.791 124.336 105.536 122.357 104.279 120.656L103.507 119.622L97.389 112.238C97.0528 111.767 96.5709 111.264 96.1401 110.877C94.6472 109.217 93.1198 107.556 91.8999 105.678C89.8702 102.555 88.8782 98.8346 88.0593 95.2406L86.4246 88.4139Z" fill="#87CEBE"/>
<path d="M94.4264 123.11L92.7057 121.924C91.7537 121.31 90.7727 120.741 89.8803 120.04C89.1869 119.495 88.5924 118.839 87.9081 118.29L87.8554 118.437L88.4078 119.832C88.4706 119.985 88.5491 120.266 88.6419 120.388C88.8775 120.695 93.2564 122.98 93.9403 123.33C94.1349 123.279 94.2609 123.225 94.4264 123.11Z" fill="#014841"/>
<path d="M107.59 127.252L105.078 126.585C105.043 127.178 105.041 127.536 104.727 128.065C105.659 128.486 107.128 129.223 107.72 130.067L107.74 130.091C107.977 129.255 107.781 128.085 107.59 127.252Z" fill="#027B58"/>
<path d="M97.3895 112.238L97.3612 112.372L97.3998 112.427C97.7103 112.901 97.9107 113.833 97.9742 114.402C97.9957 114.595 97.961 115.446 98.0268 115.544C98.1204 115.684 98.7194 115.976 98.8892 116.094C100.312 117.081 101.308 118.219 102.065 119.781C102.505 119.775 103.124 119.841 103.507 119.622L97.3895 112.238Z" fill="#027B58"/>
<path d="M86.8267 117.614C86.742 116.664 86.7438 115.542 86.3715 114.652C86.2403 114.339 85.9685 114.036 85.7598 113.766C85.2917 113.159 84.8058 112.554 84.281 111.996C84.1854 111.895 84.0249 111.697 83.9061 111.64C83.7081 111.545 83.3531 111.515 83.1315 111.463C82.6868 111.358 82.2952 111.218 81.8933 111C81.5939 110.838 81.3139 110.653 81.0566 110.429C80.8811 110.277 80.4578 109.758 80.2487 109.754C80.1952 109.946 80.1812 110.12 80.1668 110.317L80.3333 110.416L80.4318 110.389L80.5935 110.429C80.7488 111.003 81.3887 111.396 81.8144 111.792C82.4358 112.369 82.9786 113.082 83.5189 113.735L85.7622 116.395C86.1106 116.805 86.4351 117.245 86.8267 117.614Z" fill="#027B58"/>
<path d="M104.28 120.655C103.618 120.58 102.995 120.587 102.33 120.625C102.437 121.151 102.579 121.693 102.579 122.23L102.687 122.287C103.692 122.823 104.349 123.745 104.685 124.824L104.934 125.756L107.347 126.394C106.792 124.335 105.536 122.356 104.28 120.655Z" fill="#027B58"/>
<path d="M90.3574 108.019C90.2402 108.185 90.2845 108.591 90.2852 108.798C90.2877 109.45 90.3822 110.147 90.1152 110.756L90.0797 110.834C90.7901 111.42 91.3442 112.041 91.8648 112.799C92.0656 113.091 92.308 113.579 92.5608 113.812C92.6669 113.909 93.111 114.006 93.2602 114.052C94.3496 114.385 95.4791 114.554 96.5748 114.872L97.3653 115.127C97.2591 114.42 97.0957 113.648 96.7454 113.016C96.0085 111.688 94.5533 110.929 93.3169 110.141C92.2743 109.476 91.2881 108.837 90.3574 108.019Z" fill="#027B58"/>
<path d="M80.1671 110.317L80.1399 111.16C80.3087 111.484 80.2957 111.931 80.3714 112.292C80.5272 113.034 80.7152 113.74 81.0267 114.434C81.2203 114.866 81.4496 115.31 81.7114 115.704C81.873 115.947 82.2832 116.324 82.3274 116.582C83.9169 118.071 85.6816 119.076 87.6483 120.004L86.827 117.614C86.4354 117.245 86.111 116.805 85.7627 116.395L83.5193 113.735C82.979 113.081 82.4362 112.369 81.8148 111.791C81.3891 111.396 80.7492 111.003 80.5939 110.429L80.4322 110.389L80.3337 110.415L80.1671 110.317Z" fill="#014841"/>
<path d="M85.186 108.883C85.0536 109.746 85.0873 110.49 84.8186 111.355C85.092 111.881 85.6486 112.339 86.0223 112.807C86.3271 113.189 86.5822 113.609 86.8344 114.026C86.8944 114.125 87.0145 114.396 87.0974 114.463C87.5249 114.805 88.3077 114.984 88.8234 115.152L91.502 116.053L92.0672 116.216C91.9903 115.413 91.907 114.427 91.5161 113.708L91.4634 113.615C91.0724 112.912 90.5491 112.258 89.9468 111.722L89.868 111.653C89.3291 111.176 88.5561 110.962 87.9091 110.663C86.8875 110.191 86.0222 109.634 85.186 108.883Z" fill="#027B58"/>
<path d="M94.4266 123.11C94.6251 122.854 94.8492 122.569 94.9541 122.258C95.1305 121.734 95.0529 121.468 94.792 120.996C94.3064 120.119 93.6209 119.304 93.0208 118.501C92.6978 118.069 92.3455 117.486 91.9105 117.173C91.537 116.904 90.9622 116.742 90.5269 116.588L87.4161 115.591L87.6474 117.652C87.6896 117.92 87.6988 118.208 87.8556 118.437L87.9084 118.29C88.5926 118.839 89.1872 119.495 89.8805 120.04C90.7729 120.741 91.754 121.31 92.7059 121.924L94.4266 123.11Z" fill="#027B58"/>
<path d="M76.9384 90.7251C76.6113 91.3014 76.4491 92.0472 76.3066 92.686C75.9518 94.2757 75.6991 95.8551 75.8852 97.4891C76.0577 99.0021 77.3265 100.164 78.4711 101.068L78.679 101.128C79.1224 100.525 79.5036 99.5188 79.701 98.7908C80.0678 97.4383 80.068 95.259 79.3368 94.025C78.6399 92.8491 77.7958 91.7862 76.9384 90.7251Z" fill="#027B58"/>
<path d="M85.4189 101.169C85.0599 101.919 84.6264 102.675 84.081 103.306L84.0074 103.39L85.124 107.514C85.2283 107.792 85.4571 108.013 85.6554 108.227C86.5014 109.139 87.551 109.651 88.6487 110.195C88.8452 110.286 89.0553 110.426 89.2775 110.388C89.3318 110.299 89.3461 110.282 89.3896 110.174C89.9448 108.802 89.2141 105.704 88.6181 104.425L88.5755 104.335C88.1379 103.395 87.2922 102.904 86.516 102.268C86.1135 101.938 85.7638 101.557 85.4189 101.169Z" fill="#027B58"/>
<path d="M79.3728 110.267C79.6371 110.04 79.6613 109.227 79.7251 108.864C79.2075 107.532 78.7243 106.288 78.5393 104.86C78.478 104.386 78.4366 103.905 78.4308 103.427C78.4273 103.14 78.5688 102.193 78.4699 101.988C78.3803 101.803 77.7076 101.377 77.5124 101.218C76.796 100.636 76.1556 99.9809 75.5808 99.2585C75.3722 99.738 75.1055 100.264 75.0037 100.777L74.8434 101.601C74.7652 103.467 74.4483 105.319 75.4207 107.045L75.4871 107.167C76.1094 108.295 77.3266 109.153 78.4491 109.75C78.72 109.894 79.1642 110.058 79.3728 110.267Z" fill="url(#paint0_linear_77_16660)"/>
<path d="M96.0755 121.897L95.8781 121.922C95.7765 122.473 95.3441 123.298 94.9055 123.66C94.7486 123.789 94.8087 123.688 94.7532 123.9C95.0299 124.304 95.7187 124.673 96.121 124.975L96.9231 125.543C97.1993 125.794 97.5398 125.9 97.8212 126.126C99.3533 127.36 101.283 127.09 103.119 127.194L104.292 127.226C104.296 126.074 104.106 124.908 103.425 123.945L103.363 123.859C101.882 121.785 98.2938 122.401 96.0755 121.897Z" fill="#027B58"/>
<path d="M80.1038 99.7386L79.8406 100.367C79.1753 101.974 79.0956 103.313 79.3103 105.022C79.407 105.792 79.5447 106.598 79.8501 107.316L80.1466 107.995C80.7984 109.359 81.8255 110.238 83.2456 110.734C83.5297 110.788 83.7831 110.808 84.0721 110.798C84.1984 110.698 84.2353 110.662 84.2839 110.5C84.4035 110.103 84.3784 109.604 84.3743 109.192C84.3576 107.533 84.0739 105.188 83.25 103.728L83.1745 103.599C82.7369 102.826 82.0511 102.293 81.4641 101.639C80.934 101.049 80.5154 100.415 80.1038 99.7386Z" fill="#027B58"/>
<path d="M92.7068 114.722C92.7403 115.281 92.8228 115.965 92.6355 116.5L92.5949 116.609C92.6742 116.984 93.254 117.502 93.495 117.829L95.7202 120.945C96.5235 121.263 97.3578 121.292 98.2063 121.366L101.261 121.703C101.442 121.732 101.567 121.764 101.745 121.702C101.723 121.005 101.375 120.098 101.067 119.463C100.201 117.673 97.9135 116.114 96.0506 115.549C94.9456 115.214 93.8109 115.108 92.7068 114.722Z" fill="#027B58"/>
<path d="M82.6913 90.8364C82.3351 91.246 82.0769 91.7551 81.8083 92.2259C81.4471 92.859 81.0355 93.5473 80.81 94.2405L80.7759 94.3517C80.603 94.8992 80.6083 95.5188 80.5913 96.0906C80.5692 96.8329 80.5476 97.5749 80.5869 98.3168C80.6663 99.8154 82.1682 101.226 83.1724 102.208C83.2937 102.369 83.5246 102.535 83.6776 102.673C84.0054 102.225 84.2863 101.782 84.5297 101.282C85.3937 99.5084 85.622 97.4575 84.8894 95.5922C84.5713 94.7821 84.0696 94.0364 83.6662 93.2668C83.2625 92.4964 82.9727 91.6573 82.6913 90.8364Z" fill="#027B58"/>
<path d="M86.4249 88.4143L85.914 87.0829C84.6443 84.024 82.4893 81.5739 79.3871 80.3251C77.2178 79.4518 74.8678 79.7673 72.7616 80.6719L72.9501 80.7117C72.7948 81.3675 72.1162 82.1221 71.7679 82.7272C71.4548 83.2711 71.1973 83.8256 70.9626 84.407C69.9534 86.9058 69.8384 89.5805 69.9003 92.2392C69.9451 94.1706 70.0848 96.3739 71.1564 98.0415C71.6448 98.802 72.3362 99.5518 73.088 100.057C73.2694 100.179 74.2034 100.607 74.2705 100.735C74.2797 100.753 74.2236 101.079 74.2195 101.11L74.0599 102.538C73.9565 104.087 73.9521 106.057 74.7547 107.441L74.8203 107.556C75.1678 108.152 75.6505 108.637 76.1618 109.092C76.7899 109.652 77.5693 110.108 78.3174 110.491C78.4492 110.559 79.3032 110.881 79.3518 110.966C79.3657 110.99 79.3573 111.021 79.3603 111.049C79.5107 112.443 79.9159 113.872 80.5222 115.136C80.7085 115.525 80.9277 115.97 81.239 116.272L81.2407 116.074L81.274 116.149C81.3375 116.274 81.4247 116.34 81.5065 116.448C81.8376 116.888 82.2242 117.391 82.673 117.721C82.8442 117.847 82.7137 117.743 82.8684 117.917C82.9825 118.046 83.1768 118.158 83.324 118.243C83.4806 118.333 83.3209 118.236 83.4946 118.409L83.6441 118.491C83.9717 118.655 84.4604 118.875 84.6851 119.161L84.77 119.17C85.0113 119.219 85.2512 119.402 85.4633 119.529C85.9674 119.831 86.4845 120.199 87.0325 120.386C87.3104 120.481 87.4888 120.679 87.7919 120.76C88.0795 120.837 88.2918 121.142 88.6077 121.18C88.822 121.206 89.0661 121.43 89.258 121.541C89.4618 121.659 89.5729 121.725 89.798 121.788C90.1275 121.88 90.3954 122.175 90.7523 122.274C91.0772 122.364 91.3564 122.655 91.7066 122.76C91.9293 122.826 92.2251 123.051 92.4346 123.171C93.0209 123.509 93.8394 123.863 94.3108 124.328C94.4291 124.445 94.5869 124.498 94.7214 124.63C94.8406 124.748 94.9969 124.798 95.132 124.932L95.4626 125.163C95.613 125.262 95.7438 125.376 95.8788 125.495L96.2175 125.754L96.3082 125.824C96.4467 125.929 96.5797 126.018 96.7388 126.088L96.7705 126.203L96.8977 126.266C97.0571 126.346 97.177 126.442 97.317 126.552C97.6467 126.809 98.2063 127.151 98.5985 127.259C98.7741 127.307 98.8601 127.421 99.0654 127.463C99.2457 127.501 99.3683 127.65 99.5554 127.6L99.6719 127.651C99.8527 127.712 100.084 127.759 100.276 127.756C100.447 127.753 100.608 127.806 100.785 127.806C101.106 127.807 101.49 127.852 101.814 127.881L102.168 127.89C102.281 127.897 102.383 127.893 102.495 127.884L102.358 127.594L102.448 127.399L102.358 127.268C101.436 127.246 100.449 127.289 99.5461 127.081C98.4315 126.824 97.4058 126.057 96.5047 125.39L94.71 124.049L94.6319 123.84C94.7483 123.659 94.8511 123.54 95.0097 123.399L95.058 123.241L94.8506 123.206C94.8188 123.096 94.7907 122.995 94.7749 122.881L94.0767 123.525C93.1931 123.194 92.4542 122.599 91.6122 122.192C90.5903 121.697 89.5471 121.146 88.5817 120.543L88.0053 119.234L87.8528 119.317C87.7855 119.666 87.6344 119.614 87.715 120L87.5507 120.086L87.4687 120.047C87.3176 119.98 87.3865 120.008 87.2275 119.965C86.9366 119.886 86.6901 119.663 86.4236 119.527C85.5724 119.093 84.7048 118.659 83.9171 118.11L83.7941 118.025C83.3698 117.723 82.5038 117.09 82.3271 116.583C82.283 116.324 81.8728 115.947 81.7111 115.704C81.4493 115.311 81.22 114.866 81.0264 114.435C80.7149 113.741 80.527 113.035 80.3711 112.293C80.2954 111.931 80.3084 111.485 80.1396 111.16C80.0165 110.929 80.0457 110.719 80.0609 110.466L80.0685 110.354C80.0733 110.106 80.1271 109.891 80.1112 109.64C80.0995 109.455 79.9183 109.365 79.7828 109.246L79.7293 109.508C79.7117 109.66 79.7328 109.757 79.6699 109.902L79.631 109.987C79.5946 110.296 79.7086 110.013 79.5763 110.279L79.3729 110.267C79.1643 110.058 78.7201 109.894 78.4493 109.75C77.3267 109.153 76.1096 108.295 75.4873 107.167L75.4209 107.045C74.4485 105.319 74.7653 103.467 74.8435 101.601L74.7508 101.532L74.9883 100.394C75.0164 100.224 75.0525 100.177 75.1323 100.034C75.2095 99.895 75.271 99.7875 75.2272 99.6306L74.9254 99.4222L74.9058 99.5213C74.8325 99.8058 74.7189 99.9391 74.4648 100.077C74.0264 100.069 73.5584 99.6756 73.1924 99.4475L73.1776 99.3549L74.4821 100.067C74.7262 99.6032 75.1481 98.9612 75.2597 98.455C75.2852 98.3397 75.2125 98.0746 75.1981 97.9408C75.0911 96.9519 75.0826 95.9751 75.1841 94.9848C75.2722 94.1257 75.4393 93.2745 75.641 92.4351C75.8091 91.7352 76.3109 90.5911 76.2331 89.8839C76.1616 89.2337 75.8639 88.4917 75.6835 87.8598L74.3814 83.0653C74.3586 82.9618 74.3303 82.9112 74.2679 82.8279L74.2663 82.6635L74.3064 82.6527L74.3289 82.7326C74.3866 82.9306 74.4171 82.9661 74.5246 83.1299C74.7841 83.5257 74.9433 84.2964 75.1126 84.758C75.6063 86.1029 76.0968 87.4507 76.7123 88.7465C77.5651 90.5417 78.9864 92.126 80.0836 93.7843C80.9806 92.1642 82.4982 90.665 82.7577 88.7941C82.8951 87.8035 82.8419 86.8048 82.9088 85.8113C83.3045 87.6274 83.0911 89.5212 83.6273 91.287C84.2012 93.1766 85.5045 94.6968 85.8656 96.6626C86.0131 97.4652 86.035 98.2786 85.9478 99.0897C85.9153 99.3899 85.8447 99.6826 85.7679 99.9742C85.7533 100.03 85.6529 100.309 85.662 100.359C85.6705 100.405 85.9454 100.67 85.9879 100.716C86.7692 101.565 87.7468 102.16 88.5179 102.984C89.4036 103.93 89.5696 105.339 90.1211 106.474C90.3279 106.899 90.601 107.195 90.9223 107.537C91.9263 108.604 93.4571 109.313 94.7004 110.07C95.1298 110.332 95.6471 110.79 96.1405 110.877C94.6476 109.218 93.1202 107.556 91.9002 105.679C89.8706 102.556 88.8786 98.835 88.0597 95.241L86.4249 88.4143Z" fill="#027B58"/>
<path d="M25.1723 23.1541C22.2294 22.9129 19.1272 23.4017 16.4655 24.7207C15.6459 25.1269 14.9129 25.6723 14.1094 26.0897C13.3586 26.5965 12.63 27.1263 11.9468 27.7222C10.1063 29.3279 8.4438 31.0961 6.77308 32.8729C5.54351 34.1806 3.11362 36.3528 2.79197 38.1149L2.78197 38.1883L2.80126 38.4017C2.68391 38.9663 2.86247 39.5036 3.00506 40.048C3.80513 42.3511 5.19477 44.3479 6.80809 46.1572C9.24843 48.8939 12.2309 51.261 15.5394 52.8674C18.9563 54.5263 22.5098 55.511 26.2488 56.1291C27.6183 56.3555 29.0038 56.4809 30.3886 56.5645C32.8556 56.7133 35.5118 56.6089 37.6585 58.0246C39.6344 59.3275 40.9143 61.6505 42.257 63.5473L45.5551 68.5268C46.2651 69.6546 46.9455 70.8255 47.7445 71.8931C48.772 73.266 49.9282 74.5009 51.172 75.6798L66.9687 86.846C67.4485 85.2819 68.2147 84.1593 69.3283 82.9887C70.3809 82.052 71.4582 81.2288 72.7617 80.6717C74.8678 79.7672 77.2179 79.4516 79.3872 80.3249C82.4895 81.5737 84.6444 84.0239 85.9142 87.0827L86.425 88.4141C87.9847 88.929 89.661 89.2164 91.2803 89.4838C98.1117 90.6122 105.638 90.669 112.385 89.0249C114.039 88.6219 115.653 88.034 117.251 87.4541C119.988 86.4606 122.683 85.3516 125.285 84.0419C126.036 83.6643 129.114 82.226 129.447 81.5076C124.532 83.2403 119.436 84.2989 114.238 84.6692C111.982 84.83 109.705 84.8127 107.445 84.758C101.555 84.6156 95.6762 83.874 89.9569 82.4349C87.3995 81.7916 84.8368 80.94 82.3478 80.0683C73.4234 76.943 65.0945 72.5332 57.9359 66.3021C56.252 64.8366 54.6067 63.2645 53.1607 61.561C49.9634 57.7944 47.1084 53.1733 45.523 48.4869C45.0774 47.1697 44.7005 45.8977 44.5957 44.5047C44.5549 43.9617 44.6041 43.4855 44.7613 42.9629C44.7697 42.574 44.9245 42.2143 45.0811 41.8651C43.6194 37.4631 41.2712 32.817 38.056 29.4496C37.4058 28.7687 36.6934 28.0465 35.9153 27.5157C33.4537 25.3124 30.0649 23.8608 26.8278 23.3257L25.1723 23.1541Z" fill="#87CEBE"/>
<path d="M2.78158 38.1879L2.80087 38.4013C2.95578 38.6103 3.1327 38.803 3.33676 38.9649C3.92443 39.4315 4.69876 39.7114 5.40711 39.9351C7.85205 40.707 10.4588 40.7887 12.991 40.5145L13.0797 40.3812C13.0091 40.3273 12.9964 40.3096 12.8986 40.2801C12.4606 40.1483 11.7032 40.2281 11.2166 40.1971C10.1137 40.1269 9.01803 40.036 7.92646 39.8577C6.76808 39.6689 5.58633 39.3485 4.48064 38.9594C3.92911 38.7655 3.35681 38.5796 2.86981 38.2495L2.78158 38.1879Z" fill="#171917"/>
<path d="M26.8276 23.3257C26.8191 23.5117 26.7866 23.4474 26.8934 23.5676C27.2783 24.0003 27.9508 24.3416 28.4442 24.6408C30.1827 25.6949 31.7751 26.4894 33.7327 27.0574C34.4271 27.2589 35.1869 27.4932 35.9152 27.5156C33.4535 25.3123 30.0647 23.8608 26.8276 23.3257Z" fill="#2A9A81"/>
<path d="M25.1722 23.1545C22.2293 22.9133 19.1271 23.4022 16.4655 24.7211C15.6459 25.1273 14.9129 25.6728 14.1093 26.0901L14.1308 26.177L14.1712 26.3204C14.2401 26.5735 14.2914 26.7929 14.4779 26.989C14.9807 27.5172 15.8227 27.7058 16.5288 27.6966L16.6432 27.6941C17.4345 27.6809 18.4142 27.4887 19.0981 27.0747L19.2179 26.9997C19.6312 26.7456 20.0179 26.4602 20.3526 26.1066C20.9057 25.5223 21.3781 24.823 22.0732 24.3939C22.6379 24.0457 23.3143 23.8186 23.945 23.6239C24.3321 23.5046 24.861 23.4137 25.1722 23.1545Z" fill="#2A9A81"/>
<path d="M32.938 28.2679L32.4515 28.4081C32.1648 28.5383 32.0281 28.8359 31.9531 29.1231C31.7473 29.9114 31.834 30.8201 32.2725 31.5109C33.1786 32.9384 35.5845 33.5534 37.1514 33.9123C37.603 33.9679 37.9137 33.9525 38.3469 33.8021C38.482 33.6474 38.5722 33.5337 38.589 33.3214C38.6432 32.6367 37.8455 31.5487 37.4304 31.0317C36.2746 29.5915 34.815 28.4746 32.938 28.2679Z" fill="#4AA893"/>
<path d="M13.0104 29.1028L12.4798 29.2252C10.9234 29.6885 9.35563 30.7859 8.27516 31.987C8.0603 32.2259 7.75417 32.5505 7.62941 32.8482C7.51138 33.1299 7.54684 33.2782 7.63514 33.5585C8.37663 34.1569 10.3438 33.9645 11.2671 33.8762C12.4925 33.7259 13.7874 33.4882 14.881 32.8912L15.0086 32.8194C15.5439 32.5227 16.0843 32.1645 16.4933 31.7022C16.8025 31.3526 17.0104 30.9074 16.9594 30.4342C16.9181 30.0508 16.6596 29.596 16.3532 29.3605C15.5691 28.7579 13.9361 28.9378 13.0104 29.1028Z" fill="#4AA893"/>
<path d="M31.0844 33.895L30.5966 34.0956C30.2738 34.2595 29.9577 34.5821 29.8658 34.9378C29.7262 35.4779 29.9753 36.0871 30.2553 36.539C31.0914 37.8887 33.5679 40.5215 35.1171 40.9109C35.6179 40.7183 36.0102 40.4364 36.4063 40.083L36.6403 39.8268C37.2981 39.0836 37.9271 37.9729 37.819 36.9503C37.7532 36.3279 37.2884 35.7358 36.8055 35.3737C35.4922 34.3888 32.7063 33.6874 31.0844 33.895Z" fill="#4AA893"/>
<path d="M21.7005 33.0186C20.7812 33.1591 20.0546 33.5029 19.3771 34.1469C18.5433 34.9395 18.037 35.9626 18.0342 37.1173C18.0316 38.1662 18.4835 39.2601 19.2355 39.9905C20.1342 40.8637 21.2064 41.1689 22.433 41.1321C23.447 40.9945 24.4063 40.6607 25.1393 39.9191C25.8837 39.1657 26.3496 38.076 26.3238 37.0104C26.2963 35.8775 25.865 34.8563 25.0185 34.095C24.0674 33.2399 22.9548 32.9564 21.7005 33.0186Z" fill="#171917"/>
<path d="M21.1057 38.148L21.0537 38.1486C20.8484 38.1682 20.6903 38.1751 20.5815 38.3757C20.474 38.574 20.5032 38.7488 20.556 38.9546C20.7386 39.1777 20.7634 39.2203 21.0483 39.3172C21.2084 39.3119 21.3096 39.2648 21.4575 39.2076C21.6235 38.9839 21.6329 38.9364 21.6634 38.6579C21.4877 38.3443 21.4268 38.3188 21.1057 38.148Z" fill="#FEFEFE"/>
<path d="M22.9059 35.0815C22.7012 35.1565 22.4737 35.2279 22.3143 35.383C22.1254 35.5669 22.0288 35.8152 22.0286 36.077C22.0284 36.3538 22.1439 36.6766 22.3466 36.8716C22.5907 37.1063 22.891 37.142 23.213 37.1421C23.4236 37.0974 23.6432 37.0549 23.8181 36.9213C24.0325 36.7574 24.1947 36.4324 24.2064 36.1641C24.2184 35.8909 24.1091 35.5653 23.9164 35.3701C23.6292 35.0791 23.291 35.0759 22.9059 35.0815Z" fill="#FEFEFE"/>
<path d="M24.5423 25.0142C23.6217 25.2248 22.8527 25.4947 22.0916 26.069C21.4094 26.5836 20.2497 27.7034 20.1881 28.6067C20.1669 28.9171 20.3172 29.2578 20.5132 29.4914L20.594 29.5834C21.3761 30.4844 22.7094 30.8699 23.8047 31.2515L26.5377 32.1143C26.9939 32.2191 27.4992 32.2856 27.9671 32.2718C28.741 32.2489 29.5402 31.9851 30.0614 31.3866C30.5271 30.8517 30.6968 30.1735 30.6561 29.477C30.5939 28.4165 30.0572 27.4353 29.2697 26.7317L29.1611 26.6364L28.9803 26.4747C27.8181 25.5153 26.0461 24.8781 24.5423 25.0142Z" fill="#4AA893"/>
<path d="M69.3281 82.9888C68.5298 82.7804 67.7858 82.334 67.0412 81.9858C63.9458 80.5382 61.0523 78.4965 58.4138 76.3464C55.1589 73.694 52.0171 70.6419 49.7735 67.066C48.6455 65.2682 47.6527 63.312 46.6536 61.437C45.4461 59.1708 44.2664 56.1244 42.0565 54.6441C39.7792 53.1188 37.0873 52.9753 34.4569 52.5669L29.0413 51.6436C25.9632 51.0388 22.9245 50.293 19.9505 49.2901C15.8767 47.9162 12.0086 46.2249 8.43549 43.8096L5.43318 41.7074C4.64568 41.1286 3.89053 40.4732 3.00493 40.0481C3.805 42.3512 5.19464 44.348 6.80797 46.1573C9.2483 48.8939 12.2308 51.261 15.5393 52.8674C18.9562 54.5264 22.5097 55.511 26.2487 56.1292C27.6182 56.3556 29.0037 56.4809 30.3885 56.5646C32.8555 56.7133 35.5117 56.609 37.6583 58.0247C39.6343 59.3276 40.9142 61.6506 42.2569 63.5474L45.555 68.5268C46.265 69.6547 46.9454 70.8255 47.7444 71.8931C48.7719 73.266 49.928 74.5009 51.1719 75.6799L66.9685 86.8461C67.4484 85.2819 68.2146 84.1594 69.3281 82.9888Z" fill="#1E866F"/>
<path d="M131.129 41.839C128.888 39.7493 126.339 37.9817 123.801 36.2771C118.668 32.8305 113.321 29.5968 107.447 27.5732C102.484 25.8632 97.1817 24.7054 91.9337 24.4024C81.6597 23.8093 71.355 26.4557 62.177 30.9456L61.8798 31.1086C60.2384 32.0253 58.5973 32.9483 57.0394 34.003C54.8592 35.4791 52.8352 37.1292 50.7996 38.7931C50.4414 39.1615 50.071 39.6772 49.6656 39.9754C48.1331 40.4993 46.3306 40.7589 45.081 41.8644C44.9243 42.2136 44.7695 42.5734 44.7612 42.9623C44.604 43.4849 44.5548 43.961 44.5956 44.504C44.7003 45.8971 45.0773 47.169 45.5228 48.4862C47.1082 53.1727 49.9633 57.7937 53.1606 61.5604C54.6065 63.2639 56.2519 64.836 57.9358 66.3015C65.0944 72.5326 73.4233 76.9423 82.3477 80.0676C84.8366 80.9393 87.3994 81.7909 89.9567 82.4343C95.6761 83.8734 101.555 84.6149 107.445 84.7574C109.705 84.8121 111.982 84.8293 114.237 84.6686C119.436 84.2983 124.532 83.2397 129.447 81.507C129.686 81.2507 133.726 79.7852 134.433 79.466C136.867 78.3651 139.143 77.0282 141.367 75.5557C141.956 75.1657 142.642 74.7903 143.132 74.2801C143.4 74.0703 143.654 73.8993 143.961 73.7498C144.242 73.4062 144.683 73.1054 144.801 72.6703C144.825 72.5605 145.943 71.7834 146.138 71.6232C147.425 70.5649 148.58 69.3463 149.737 68.1499L151.339 66.4381C151.22 66.3438 151.25 66.3458 151.134 66.3117C149.47 65.8206 147.904 65.2063 146.284 64.5843C145.125 64.1394 143.914 63.7566 142.861 63.0908L144.916 61.4748C145.376 61.0803 145.772 60.5443 146.305 60.2542C145.922 60.1061 145.649 59.2712 145.469 58.8926C145.01 58.3783 144.641 57.5184 144.267 56.9212L142.018 53.6364C139.077 49.5907 135.665 45.9655 131.981 42.5927L131.129 41.839Z" fill="#87CEBE"/>
<path d="M61.8797 31.1091C60.2383 32.0257 58.5972 32.9487 57.0393 34.0035C54.8592 35.4795 52.8351 37.1296 50.7995 38.7935L53.1895 42.5477C55.4088 45.8521 57.896 49.0911 60.6586 51.9606C61.2928 52.6192 61.9349 53.3813 62.6251 53.9739L63.0934 51.6756C64.0263 47.8709 65.4383 44.0275 67.8504 40.9026C68.6793 39.8289 69.6319 38.8946 70.5246 37.8794C67.8309 36.4763 65.5355 34.9184 63.3683 32.769C62.8671 32.2718 62.3159 31.7711 61.9252 31.1804L61.8797 31.1091Z" fill="#0D5A5B"/>
<path d="M131.981 42.593C131.391 42.9023 130.772 43.2236 130.262 43.6563C128.899 44.8122 128.174 46.666 127.659 48.3295C127.5 48.8407 127.281 49.4763 127.28 50.0132C129.876 54.3731 131.561 59.3372 132.616 64.2866C132.807 65.1872 133.074 66.1623 133.125 67.0774C133.52 66.7551 134.065 66.5157 134.515 66.2715L137.515 64.6107C140.326 62.8866 142.897 60.9473 145.469 58.893C145.01 58.3787 144.641 57.5187 144.267 56.9215L142.018 53.6368C139.077 49.591 135.665 45.9659 131.981 42.593Z" fill="#0D5A5B"/>
<path d="M132.697 67.3038L132.713 67.2363C132.77 66.7348 132.349 65.6953 132.199 65.1948C130.857 60.7254 128.944 56.0225 126.137 52.2619C124.473 50.0334 122.452 48.8384 119.696 48.4451C116.045 47.9239 111.906 49.2942 108.99 51.4803C109.953 53.504 110.092 55.8916 110.131 58.0958L109.948 64.1328L109.089 72.8343C109.729 72.6805 110.456 72.7161 111.114 72.6815L113.909 72.4716C116.678 72.2348 119.431 71.7769 122.134 71.1309C124.381 70.5942 126.605 69.8224 128.739 68.9416L131.346 67.8358C131.778 67.6489 132.234 67.3893 132.697 67.3038Z" fill="#0D5A5B"/>
<path d="M80.7062 66.6716C82.1273 64.4474 83.2299 62.0591 84.2867 59.6453C85.2601 57.422 86.1981 55.1728 86.9428 52.8613C88.0115 49.5444 89.2722 45.5361 87.5449 42.2282C86.6568 40.5274 84.7727 39.2974 82.9802 38.753C79.6681 37.7471 75.3052 38.3514 72.3009 39.9998C68.1231 42.2921 65.7982 46.6626 64.1953 50.987L63.0523 54.4502C67.4939 58.4736 72.1079 62.0248 77.3693 64.9226L79.6669 66.1287C79.9393 66.264 80.5096 66.4594 80.7062 66.6716Z" fill="#0D5A5B"/>
<path d="M108.659 72.8058L108.746 69.3266C108.811 65.0289 108.509 60.8117 107.878 56.5614C107.701 55.3692 107.57 53.9679 107.107 52.8564L107.056 52.7394C106.71 51.9366 106.193 51.2995 105.538 50.7276C101.646 47.3296 95.5957 47.1653 90.7176 47.5176C89.2934 52.0694 87.1569 56.6005 84.8386 60.7621L81.2055 66.9371L81.3343 66.9681C81.8658 67.1027 82.4213 67.4042 82.9277 67.6212L85.7779 68.7749C88.959 69.9645 92.2 70.8921 95.5254 71.5777C98.4206 72.1748 101.373 72.4834 104.322 72.6323L107.08 72.7586C107.574 72.7711 108.178 72.711 108.659 72.8058Z" fill="#0D5A5B"/>
<path d="M131.128 41.8394C128.888 39.7497 126.339 37.9821 123.801 36.2775C118.668 32.8308 113.321 29.5972 107.447 27.5736C102.484 25.8636 97.1817 24.7058 91.9337 24.4028C81.6597 23.8097 71.355 26.4561 62.1769 30.946C64.9834 33.3809 68.5568 35.6306 72.2965 36.1475C74.4889 36.4508 76.6917 36.3749 78.8976 36.4337L81.5302 36.5707C82.1106 36.628 82.7104 36.773 83.2917 36.7567C85.3664 35.2026 87.5755 33.7894 89.9554 32.7463C94.7728 30.6347 100.105 30.0382 105.316 29.896C107.489 29.8367 109.842 29.7112 111.997 30.027L112.879 30.2147C112.064 30.4023 111.202 30.4027 110.373 30.4843L106.042 30.9461C101.656 31.4254 97.2736 32.2722 93.1247 33.7938C90.7749 34.6557 88.4767 35.7191 86.4615 37.2243C88.6708 39.3113 90.385 41.8423 90.4743 44.9869L90.4805 45.4893C91.8672 45.6974 93.3147 45.6875 94.7153 45.7887C97.3742 45.9809 100.122 46.4198 102.658 47.2564C103.88 47.6595 105.018 48.1666 106.101 48.8635C106.482 49.1085 106.834 49.3852 107.168 49.6907C107.208 49.7278 107.492 50.0171 107.516 50.0214C107.541 50.0258 108.353 49.5485 108.433 49.5064C110.178 48.5903 112.015 47.7281 113.917 47.1945C117.838 46.0942 122.093 46.3681 125.829 47.978C126.91 45.9335 128.528 42.6269 130.908 41.898L131.128 41.8394Z" fill="#0D5A5B"/>
<path d="M49.6656 39.9759C48.1331 40.4998 46.3306 40.7594 45.0809 41.8649C44.9243 42.2141 44.7695 42.5738 44.7611 42.9628C44.604 43.4853 44.5548 43.9615 44.5956 44.5045C44.7003 45.8975 45.0773 47.1695 45.5228 48.4867C47.1082 53.1732 49.9633 57.7942 53.1606 61.5609C54.6065 63.2644 56.2518 64.8365 57.9357 66.302C65.0944 72.5331 73.4233 76.9428 82.3476 80.0681C84.8366 80.9398 87.3993 81.7914 89.9567 82.4348C95.6761 83.8738 101.555 84.6154 107.445 84.7578C109.705 84.8126 111.982 84.8298 114.237 84.669C119.436 84.2988 124.532 83.2401 129.447 81.5075C129.686 81.2512 133.726 79.7857 134.432 79.4664C136.867 78.3656 139.143 77.0287 141.367 75.5562C141.956 75.1661 142.642 74.7908 143.132 74.2805C143.4 74.0708 143.654 73.8998 143.961 73.7503C144.242 73.4066 144.683 73.1059 144.8 72.6708C144.825 72.561 145.943 71.7839 146.138 71.6237C147.425 70.5653 148.58 69.3468 149.737 68.1504L151.339 66.4385C151.22 66.3442 151.25 66.3463 151.134 66.3122C149.47 65.8211 147.904 65.2067 146.284 64.5848C145.125 64.1398 143.914 63.7571 142.861 63.0913C140.297 64.9764 137.486 66.898 134.615 68.2761C134.412 68.3792 134.105 68.595 133.893 68.6409C132.907 69.2161 131.824 69.6667 130.777 70.118C126.426 71.992 121.702 73.3015 117.007 73.9435L116.257 74.0629C109.586 75.0009 102.879 74.5786 96.2504 73.548C95.9825 73.4355 95.5593 73.4118 95.2656 73.3552C94.2797 73.238 93.2327 72.904 92.2693 72.6491C88.4174 71.6303 84.7773 70.2904 81.1117 68.735L80.2725 68.3743L76.5042 66.391C72.9277 64.4109 69.5466 62.1848 66.38 59.5944L65.7008 59.0077L56.2471 49.555C56.1453 49.3827 55.9757 49.2106 55.8482 49.0535L51.9577 43.6825L50.4245 41.214C50.1846 40.8094 49.9934 40.3145 49.6656 39.9759Z" fill="#1E866F"/>
<path d="M49.6659 39.9756C48.1333 40.4995 46.3308 40.7592 45.0812 41.8647C44.9246 42.2139 44.7698 42.5736 44.7614 42.9625C45.9126 47.3031 47.657 51.2902 50.0201 55.107C50.1171 54.9283 50.4215 54.7154 50.5758 54.5715L52.1093 53.1331L54.1823 50.9188C54.7075 50.3072 55.2117 49.5479 55.8484 49.0533L51.9578 43.6822L50.4246 41.2138C50.1849 40.8092 49.9936 40.3142 49.6659 39.9756Z" fill="#00262A"/>
<path d="M151.339 66.4385C151.219 66.3442 151.25 66.3463 151.134 66.3121C149.47 65.8211 147.904 65.2067 146.284 64.5847C145.125 64.1398 143.914 63.757 142.861 63.0913C140.297 64.9763 137.486 66.8979 134.614 68.276C136.312 70.6723 137.984 73.4228 139.089 76.148L144.801 72.6707C144.825 72.5609 145.943 71.7838 146.138 71.6236C147.425 70.5653 148.58 69.3467 149.737 68.1503L151.339 66.4385Z" fill="#00262A"/>
<path d="M56.2472 49.5553C56.1453 49.383 55.9758 49.2108 55.8483 49.0538C55.2116 49.5485 54.7075 50.3077 54.1822 50.9193L52.1092 53.1336L50.5757 54.572C50.4214 54.7159 50.117 54.9288 50.02 55.1076L50.4174 55.7016C52.5576 58.8098 54.7642 61.6418 57.4803 64.2702C58.2005 64.9674 58.9714 65.7428 59.7699 66.346L60.4766 66.9369C60.9752 66.3887 61.5738 65.9321 62.0764 65.3716C63.7089 63.5514 65.0265 61.62 66.3802 59.5947L65.701 59.008L56.2472 49.5553Z" fill="#00262A"/>
<path d="M56.2471 49.5549C56.1452 49.3826 55.9756 49.2105 55.8481 49.0534C55.2115 49.5481 54.7073 50.3074 54.1821 50.919L52.1091 53.1332L50.5755 54.5716C50.4213 54.7155 50.1168 54.9284 50.0199 55.1072L50.4172 55.7012C50.5829 55.4713 50.8826 55.3016 51.1096 55.1332L52.3986 54.0995C53.563 53.0717 54.6406 51.9046 55.5795 50.6677C55.8489 50.3128 56.0438 49.9495 56.2471 49.5549Z" fill="#2F7364"/>
<path d="M66.3799 59.5942L65.7007 59.0075C65.2011 59.5916 64.8185 60.3012 64.3746 60.9324C63.0378 62.8343 61.5713 64.8535 59.7697 66.3455L60.4764 66.9364C60.9749 66.3881 61.5735 65.9315 62.0762 65.3711C63.7087 63.5508 65.0263 61.6194 66.3799 59.5942Z" fill="#2F7364"/>
<path d="M66.38 59.5945C65.0265 61.6197 63.7089 63.5511 62.0763 65.3714C61.5736 65.9318 60.975 66.3884 60.4765 66.9367C62.877 68.9199 65.3509 70.6889 67.979 72.3547C69.1131 73.0734 70.3083 73.8576 71.537 74.397C74.8049 72.9346 77.5296 70.6183 80.2726 68.3743L76.5042 66.3911C72.9278 64.4109 69.5466 62.1848 66.38 59.5945Z" fill="#00262A"/>
<path d="M81.1118 68.7353L80.2726 68.3746C77.5296 70.6185 74.8049 72.9348 71.5371 74.3972C71.7236 74.5007 72.372 74.9454 72.539 74.9431C78.6503 78.0352 84.8419 80.4579 91.5444 81.9279C93.554 79.4989 94.5716 76.3915 95.2657 73.3555C94.2798 73.2382 93.2328 72.9043 92.2694 72.6493C88.4175 71.6306 84.7774 70.2907 81.1118 68.7353Z" fill="#00262A"/>
<path d="M81.1117 68.7349L80.2725 68.3741C77.5296 70.618 74.8049 72.9344 71.537 74.3967C71.7235 74.5002 72.3719 74.9449 72.5389 74.9427C75.0277 73.8649 77.2184 72.202 79.2675 70.4454C79.8948 69.9075 80.5847 69.3747 81.1117 68.7349Z" fill="#2F7364"/>
<path d="M133.893 68.6405C132.907 69.2158 131.825 69.6664 130.777 70.1176C126.426 71.9917 121.703 73.3012 117.008 73.9431L116.257 74.0625C116.495 76.8408 116.555 79.7973 115.942 82.5328C115.874 82.8379 115.818 83.2971 115.644 83.5522L117.038 83.4047C117.329 83.2352 117.939 83.2143 118.285 83.1581L121.089 82.6665L124.203 81.9399C127.772 80.9948 131.229 79.8376 134.616 78.359L137.859 76.8142C138.043 76.7061 138.211 76.6146 138.353 76.4514L133.893 68.6405Z" fill="#00262A"/>
<path d="M117.007 73.9434L116.257 74.0628C116.495 76.8411 116.555 79.7976 115.942 82.5331C115.874 82.8382 115.818 83.2974 115.644 83.5525L117.037 83.405L116.681 83.3307C117.144 82.0843 117.26 80.6355 117.327 79.3153C117.418 77.5374 117.438 75.6812 117.007 73.9434Z" fill="#2F7364"/>
<path d="M96.2504 73.548C95.9824 73.4355 95.5593 73.4118 95.2656 73.3552C94.5715 76.3913 93.554 79.4986 91.5443 81.9276C91.7073 81.9837 92.1032 82.1484 92.2618 82.115C97.7596 83.3246 103.602 83.8982 109.233 83.8371L115.644 83.5526C115.818 83.2975 115.873 82.8383 115.942 82.5332C116.555 79.7977 116.495 76.8411 116.257 74.0629C109.586 75.001 102.879 74.5786 96.2504 73.548Z" fill="#00262A"/>
<path d="M96.2503 73.5482C95.9823 73.4357 95.5591 73.412 95.2654 73.3554C94.5713 76.3914 93.5538 79.4988 91.5441 81.9278C91.7071 81.9839 92.103 82.1486 92.2616 82.1152C92.6028 81.8513 92.8222 81.6094 93.0903 81.2691C94.342 79.6796 95.0221 77.7336 95.6487 75.8334C95.8924 75.0944 96.1941 74.3283 96.2503 73.5482Z" fill="#2F7364"/>
<defs>
<linearGradient id="paint0_linear_77_16660" x1="75.0699" y1="106.073" x2="79.2715" y2="103.786" gradientUnits="userSpaceOnUse">
<stop stop-color="#02463B"/>
<stop offset="1" stop-color="#06815A"/>
</linearGradient>
</defs>
</svg>
