<svg width="53" height="68" viewBox="0 0 53 68" fill="none" xmlns="http://www.w3.org/2000/svg">
<path d="M31.8331 66.9115C35.5061 65.4815 39.4791 65.3275 41.3061 60.2485C42.8701 55.8985 39.5311 52.0685 39.3591 47.5125C39.2551 44.7535 38.3311 40.9205 39.8401 38.2975C41.0831 36.1375 44.3031 35.6995 45.4031 33.4915C46.4921 31.3065 44.9701 28.8915 44.5511 26.7425C43.7911 22.8405 43.7131 20.3175 46.0611 17.1385C48.5621 13.7515 58.8361 -1.52753 47.2231 0.124467C37.3441 1.53047 45.6041 10.1365 41.1671 14.8795C39.0961 17.0935 37.2021 18.5865 38.2351 22.1665C39.0791 25.0925 41.6741 25.9275 39.5721 28.7525C37.7481 31.2035 36.1131 31.0005 36.1331 34.3875C36.1391 35.4555 36.9061 36.9225 36.4711 38.0155C35.8921 39.4695 34.7111 39.2515 33.7781 40.3705C28.3351 46.9015 41.0881 49.3935 37.2511 55.9265C35.8181 58.3665 32.3291 57.7535 30.9591 60.8345C30.2901 62.3375 29.8301 65.9575 31.8331 66.9115Z" fill="#57970D"/>
<path d="M23.451 66.9115C23.953 60.6885 17.434 62.5794 15.931 57.6694C15.002 54.6354 17.319 51.7914 17.093 48.8394C16.746 44.3134 14.11 45.2214 10.814 44.0634C9.28704 43.5274 8.29104 42.7584 7.55604 41.0784C6.86504 39.4974 7.45002 36.8045 6.69102 35.5385C4.48702 31.8625 -1.24896 35.1805 0.245036 39.6145C0.987036 41.8165 3.61004 44.4405 5.67204 45.3705C7.33604 46.1215 9.81303 45.5865 10.167 47.9805C10.426 49.7285 8.59502 50.5034 8.04902 52.0354C7.55902 53.4084 7.58202 55.9865 8.04902 57.3735C9.57302 61.8955 13.458 60.8024 16.445 63.2124C19.097 65.3524 19.073 67.6635 23.451 66.9115Z" fill="#266C00"/>
<path d="M26.9201 66.6214C26.3311 64.9624 23.7341 64.6534 22.5761 63.1524C21.2431 61.4224 20.8341 59.1424 21.3421 57.0194C21.9531 54.4684 23.8351 52.7934 24.9671 50.7264C26.0761 48.7014 25.9391 48.7984 24.6071 46.3904C23.7091 44.7674 22.0271 42.1513 21.9991 40.3263C21.9671 38.1813 23.8371 37.5094 23.4581 35.4064C23.0621 33.2154 20.3271 31.4374 19.3991 29.3304C17.9231 25.9794 19.4761 24.5014 20.6241 21.3804C22.4961 16.2903 18.3871 5.81336 27.7361 7.12536C28.4981 8.71236 28.9221 10.1204 28.3671 11.8374C27.6131 14.1684 25.1951 15.2574 27.4971 17.7254C28.9131 19.2434 30.4741 18.7934 31.5461 20.9784C32.1711 22.2524 31.9851 23.5544 32.4331 24.8634C32.9351 26.3284 34.0971 27.4444 34.3971 29.0034C35.0721 32.5184 32.2191 35.2854 31.6891 38.5754C31.3011 40.9824 31.7431 42.5734 32.6991 44.6924C34.5771 48.8594 33.2681 52.3853 32.1371 56.8283C31.5401 59.1723 30.8131 62.0824 29.5221 64.0584C29.0681 64.7524 27.5021 66.7154 26.9201 66.6214Z" fill="#7ABA30"/>
<path d="M33.8559 66.3325C29.0579 67.1565 29.7669 61.7795 31.9499 59.6845C34.0199 57.6985 39.4599 54.8595 37.5919 50.8905C36.9349 49.4955 34.876 49.7305 33.922 48.6505C33.03 47.6415 32.3659 43.8045 32.7519 42.6305C33.4379 40.5435 35.243 40.4125 35.013 37.7175C34.755 34.6875 32.4149 34.6875 34.7879 32.0105C37.1019 29.3995 40.6789 28.9855 39.3679 24.6455C38.7469 22.5895 36.6819 20.9865 36.4419 18.7725C36.2639 17.1275 37.1499 15.3135 37.2729 13.7795C33.8099 12.8835 30.6989 12.9245 30.9549 17.0655C31.1309 19.9165 33.036 19.9455 33.574 22.6095C33.739 23.4255 33.867 25.6995 33.578 26.4585C32.885 28.2745 31.9139 27.5825 30.6559 28.7425C27.8179 31.3585 30.276 33.8695 30.246 36.9725C30.223 39.4295 28.441 40.0725 27.78 42.3355C26.703 46.0175 30.1859 46.0245 31.2059 48.9905C32.1999 51.8785 30.606 51.1515 29.449 53.0225C28.283 54.9095 29.3279 56.1035 28.8119 57.6615C28.0069 60.0905 24.0819 62.1395 26.6099 65.3285C27.7039 66.7105 30.7329 67.3585 33.8559 66.3325Z" fill="#266C00"/>
<path d="M26.985 55.2334C26.305 57.7634 25.6241 60.2944 24.9441 62.8244C25.2391 59.9554 25.5341 57.0864 25.8281 54.2184C25.9911 52.6344 26.1441 50.9764 25.5521 49.4984C24.5541 47.0074 21.5231 45.0154 22.2621 42.4354C22.4731 41.7004 22.9771 41.0924 23.4431 40.4844C24.8671 38.6254 26.074 36.2724 25.445 34.0164C25.087 32.7334 24.1841 31.6834 23.5721 30.4994C22.9611 29.3154 22.688 27.7544 23.544 26.7324C23.79 26.4384 24.1111 26.2144 24.3491 25.9144C25.5291 24.4264 24.222 22.4714 24.023 20.9124C24.804 21.0824 26.808 22.6894 27.07 23.5144C27.622 25.2534 25.9271 25.5964 25.1431 26.9114C24.5201 27.9574 24.9991 29.3194 25.7031 30.3124C26.4071 31.3054 27.34 32.1754 27.726 33.3294C28.886 36.8044 24.5511 40.0884 25.0601 43.7164C25.4031 46.1654 27.8881 47.9654 28.0201 50.4354C28.2361 54.4714 24.7941 57.6754 24.4341 61.4674C24.3711 62.1294 24.4881 62.7954 24.6451 63.4404C24.9151 64.5444 25.352 65.6814 26.256 66.3704C26.26 63.8324 28.0981 61.3804 27.4231 58.9344C27.2501 58.3064 26.917 57.7314 26.734 57.1054C26.551 56.4794 26.5431 55.7424 26.9611 55.2424C25.7661 58.0304 24.4761 59.8274 24.2891 62.8554C24.2261 63.8744 24.2421 64.9674 24.8061 65.8174C25.0241 66.1464 25.3691 66.4434 25.7631 66.4154C26.4301 66.3674 26.6661 65.5174 26.7151 64.8494C26.9181 62.0704 26.8941 59.2754 26.6421 56.5014C26.5601 55.6014 26.164 55.6154 26.985 55.2334Z" fill="#266C00"/>
<path d="M26.0521 67.2004C24.4271 66.1314 21.9771 65.7184 20.4151 64.0214C17.8381 61.2214 20.7821 60.0894 21.0661 56.7794C21.3051 53.9944 20.5251 55.7484 19.5631 53.8794C18.7351 52.2704 19.2021 50.5544 19.5741 48.8014C20.0561 46.5304 20.9291 46.6954 19.2091 44.1344C17.4481 41.5124 16.2581 40.4664 15.8641 37.0724C15.7671 36.2364 15.3391 34.9294 15.6441 34.0824C16.2781 32.3174 16.3361 33.4914 17.8931 32.3774C20.3201 30.6414 19.8581 29.4914 20.0071 26.3104C20.1291 23.6944 18.7171 15.7304 22.9361 16.3974C25.2081 16.7564 25.0671 20.0504 24.8981 22.3214C24.6501 25.6644 24.2551 26.5844 25.5931 29.6274C26.8571 32.5014 27.4581 34.7844 26.0571 37.6474C24.9961 39.8154 23.2781 40.5954 23.4381 43.2814C23.6641 47.0844 27.5561 46.5104 27.4971 50.6974C27.4631 53.1234 27.0471 54.9834 27.2871 57.3724C27.5551 60.0254 27.1511 64.6404 26.0521 67.2004Z" fill="#57970D"/>
<path d="M2.60906 39.5455C2.83606 40.2475 3.40008 40.7795 3.94308 41.2785C4.75208 42.0235 5.56209 42.7674 6.37109 43.5124C6.53609 43.6644 6.89206 43.7494 6.90206 43.5254C5.47206 42.3154 4.58407 40.4894 4.51507 38.6174C5.15107 39.5224 5.78708 40.4275 6.42208 41.3325C6.24008 39.9915 6.43408 35.5644 4.77508 35.1734C2.85008 34.7204 2.21406 38.3215 2.60906 39.5455Z" fill="#498F00"/>
<path d="M9.29893 54.9125C9.06193 55.9625 9.50193 57.0335 9.93193 58.0205C10.2289 58.7025 10.64 59.4765 11.375 59.5915C11.145 58.2405 10.9139 56.8685 11.0639 55.5055C11.2139 54.1435 11.7979 52.7675 12.9089 51.9645C12.0599 53.9085 12.244 56.2705 13.384 58.0595C13.476 56.4775 13.8759 54.9145 14.5539 53.4825C15.1429 52.2385 15.9509 51.0605 16.1689 49.7005C16.3859 48.3415 15.7419 46.6945 14.3959 46.4075C15.6489 46.6745 14.044 50.6025 13.681 51.0015C13.375 49.2575 12.889 46.6845 11.824 49.1075C11.394 50.0855 11.6029 51.1985 10.9929 52.2555C10.4569 53.1865 9.54893 53.8065 9.29893 54.9125Z" fill="#498F00"/>
<path d="M23.269 14.3393C22.978 14.9613 23.205 15.6993 23.517 16.3113C24.519 18.2763 26.414 19.7633 28.561 20.2703C27.532 19.2843 26.628 18.1683 25.875 16.9583C24.551 14.8303 27.642 14.6384 26.992 12.6554C26.37 10.7584 23.795 13.2143 23.269 14.3393Z" fill="#68A81E"/>
<path d="M27.95 26.8514C26.938 26.9094 26.26 28.0434 26.339 29.0544C26.418 30.0654 27.035 30.9464 27.669 31.7374C27.903 32.0284 28.146 32.3224 28.278 32.6714C28.625 33.5854 28.134 34.6004 28.2 35.5764C28.236 36.1134 28.442 36.6374 28.407 37.1744C28.312 38.6604 26.457 39.7124 26.672 41.1854C28.109 41.5414 29.524 40.2134 29.825 38.7644C30.126 37.3144 29.638 35.8304 29.157 34.4304C28.839 33.5074 28.522 32.5834 28.204 31.6604C28.028 31.1494 27.884 30.5004 28.283 30.1374C28.472 29.9654 28.735 29.9114 28.981 29.8414C29.974 29.5604 30.876 28.9044 31.36 27.9934C31.796 27.1734 32.093 24.7234 30.713 24.8784C30.231 24.9324 30.254 26.0334 29.917 26.2534C29.104 26.7824 28.976 26.7924 27.95 26.8514Z" fill="#68A81E"/>
<path d="M33.8981 14.7214C32.8631 15.1894 32.2181 16.3984 32.4071 17.5184C32.5951 18.6394 33.5991 19.5704 34.7311 19.6744C34.3121 18.6774 34.0741 17.6054 34.0321 16.5244C34.1891 16.5324 34.3461 16.5394 34.5041 16.5474C34.5261 16.8474 34.5491 17.1474 34.5711 17.4474C34.8411 17.7774 35.4201 17.5964 35.6451 17.2344C35.8701 16.8714 35.8671 16.4194 35.9231 15.9964C35.9791 15.5734 36.1481 15.1064 36.5431 14.9454C35.6471 14.6794 34.6631 14.7194 33.7911 15.0554L33.8981 14.7214Z" fill="#498F00"/>
<path d="M29.5169 31.7693C29.4849 32.1813 29.5729 32.5923 29.6809 32.9913C30.0409 34.3183 30.6319 35.5824 31.4189 36.7094C31.6549 35.9474 31.4209 35.1314 31.3819 34.3344C31.3439 33.5384 31.6329 32.5873 32.4009 32.3723C32.6489 32.3023 32.9169 32.3223 33.1609 32.2423C33.4099 32.1603 33.6139 31.9823 33.8109 31.8093C35.0689 30.6983 39.4149 27.6373 35.2569 27.9923C33.3749 28.1523 29.6869 29.5603 29.5169 31.7693Z" fill="#498F00"/>
<path d="M31.219 40.5865C31.319 40.4525 31.252 40.2295 31.094 40.1725C30.312 40.8555 29.66 41.6875 29.183 42.6105C28.805 43.3435 28.533 44.1745 28.674 44.9865C28.815 45.7985 29.471 46.5625 30.295 46.6045C30.199 45.5855 30.26 44.5515 30.477 43.5505C30.68 44.6225 31.223 45.6285 32.01 46.3845C32.365 45.3325 32.196 44.1865 32.193 43.0765C32.19 41.9655 32.427 40.7325 33.323 40.0755C32.31 40.5715 31.425 41.3256 30.773 42.2466C30.55 41.3456 30.825 40.3385 31.475 39.6755L31.219 40.5865Z" fill="#498F00"/>
<path d="M30.425 54.7375C30.375 55.0515 30.411 55.4175 30.659 55.6165C30.815 55.7415 31.026 55.7745 31.2 55.8735C31.705 56.1625 31.727 56.9285 31.412 57.4175C31.096 57.9065 30.558 58.1935 30.061 58.4965C28.828 59.2475 27.603 60.5795 28.037 61.9565C29.59 60.0435 31.382 58.3245 33.358 56.8535C34.662 55.8825 36.213 54.6895 36.062 53.0705C34.772 53.6655 33.605 54.5245 32.654 55.5795C32.711 54.8705 33.235 53.1675 32.294 52.8895C31.413 52.6285 30.531 54.0655 30.425 54.7375Z" fill="#498F00"/>
<path d="M19.686 32.9784C20.979 32.1194 21.847 30.6504 21.975 29.1034C22.283 30.4014 21.611 31.8674 22.222 33.0534C22.423 33.4444 22.746 33.7574 23.075 34.0494C23.945 34.8184 24.903 35.4874 25.924 36.0394C25.426 34.4594 24.808 32.9164 24.077 31.4294C23.558 30.3734 22.976 29.3284 22.718 28.1804C22.26 26.1444 22.863 24.0364 23.462 22.0374C22.517 22.5094 22.089 23.6224 21.899 24.6614C21.709 25.7004 21.661 26.8014 21.137 27.7194C21.419 27.2324 20.956 25.5764 20.818 25.0444C20.074 27.5954 21.458 30.6364 19.686 32.9784Z" fill="#498F00"/>
<path d="M17.2609 38.5595C17.6519 39.0325 18.1329 39.4275 18.5069 39.9135C19.2609 40.8945 19.5199 42.1555 19.7799 43.3645C19.9069 43.9525 20.0949 44.6135 20.6339 44.8805C21.4169 45.2685 22.3579 44.4525 22.4529 43.5835C22.5479 42.7145 22.0989 41.8915 21.6919 41.1185C21.5179 40.7885 21.3449 40.4305 21.3899 40.0605C21.4769 39.3465 22.2829 38.9925 22.9679 38.7755C22.2539 38.6075 21.4999 38.6155 20.7889 38.7975C19.3789 39.1595 19.0569 36.4845 17.7369 36.3115C16.2509 36.1175 16.4719 37.5985 17.2609 38.5595Z" fill="#498F00"/>
<path d="M21.503 53.2844C22.026 53.6554 22.691 53.8424 23.102 54.3344C23.844 55.2204 23.394 56.5714 22.793 57.5584C22.192 58.5454 21.433 59.6084 21.663 60.7404C22.944 60.1244 23.363 58.1524 24.773 57.9664C25.269 57.9004 25.831 58.0804 26.242 57.7944C26.663 57.5014 26.677 56.8934 26.647 56.3814C26.62 55.9074 26.575 55.3914 26.25 55.0454C25.944 54.7194 25.468 54.6284 25.087 54.3954C24.119 53.8034 24.048 52.1864 24.96 51.5124C25.294 51.2654 25.72 51.1334 25.981 50.8114C26.244 50.4864 26.283 50.0374 26.287 49.6194C26.291 49.2024 26.268 48.7664 26.062 48.4034C25.856 48.0404 25.417 47.7774 25.019 47.9024C24.549 48.0504 24.375 48.6064 24.221 49.0744C24.021 49.6834 23.702 50.6844 23.187 51.1014C22.665 51.5244 22.192 51.5284 21.964 51.6694C21.674 51.8484 21.203 50.7514 20.767 51.7144C20.511 52.2804 21.073 52.9794 21.503 53.2844Z" fill="#498F00"/>
<path d="M38.5251 59.9344C37.7471 61.0044 36.5331 61.6984 35.2611 62.0604C34.7591 62.2034 34.2311 62.3044 33.7951 62.5904C32.8631 63.2004 32.6171 64.4344 32.4521 65.5354C32.6571 64.1634 37.5121 62.5344 38.5421 61.4864C37.7801 63.6754 33.5451 67.3074 33.9321 62.8594C34.2551 59.1434 38.6771 58.8694 38.8941 55.1284C39.6941 56.6154 39.5171 58.5714 38.5251 59.9344Z" fill="#498F00"/>
<path d="M39.0129 39.0066C39.1809 38.4266 39.3859 37.8396 39.7739 37.3756C40.5119 36.4936 41.7509 36.2306 42.6699 35.5396C44.4999 34.1626 44.6539 31.4546 44.1579 29.2196C43.6619 26.9836 42.6849 24.7916 42.8599 22.5076C40.4649 25.1026 43.3069 30.0716 40.8009 32.5596C40.0489 33.3056 38.9279 33.6576 38.3339 34.5356C37.5669 35.6716 37.9709 37.2166 37.6109 38.5386C37.2479 39.8716 36.1539 40.8496 35.2919 41.9286C34.4299 43.0076 33.7579 44.5056 34.3859 45.7356C35.1889 47.3106 37.7589 49.7576 38.5039 47.2886C38.8229 46.2296 38.2489 44.3586 38.3109 43.1896C38.3849 41.7746 38.6179 40.3676 39.0129 39.0066Z" fill="#498F00"/>
<path d="M46.0569 13.6684C47.5159 12.2464 47.4719 9.58443 45.9669 8.21143C45.6219 7.89643 45.2179 7.64542 44.9129 7.29242C44.4869 6.79842 44.2919 6.15043 44.1449 5.51543C43.9399 4.62743 43.8089 3.72342 43.7519 2.81342C43.7349 2.54342 43.7289 2.25642 43.8629 2.02242C43.9969 1.78742 44.3249 1.64442 44.5479 1.79642C42.1869 4.86042 41.4139 9.08442 42.5389 12.7854C42.6539 13.1644 42.7889 13.5534 42.7369 13.9464C42.6479 14.6064 42.0709 15.0684 41.5989 15.5384C40.5469 16.5854 39.9039 17.9684 39.7009 19.4224C39.3429 15.4264 43.9379 15.7344 46.0569 13.6684Z" fill="#498F00"/>
<path opacity="0.2" d="M35.2509 30.2724C34.3979 30.9564 33.403 31.5264 32.839 32.4614C32.352 33.2684 32.251 34.2424 32.162 35.1814C32.001 36.8764 31.847 38.6354 32.417 40.2394C32.646 40.8834 32.994 41.5224 32.936 42.2034C32.825 43.4974 31.382 44.2024 30.697 45.3064C30.022 46.3934 30.148 47.8314 30.705 48.9824C31.262 50.1334 32.192 51.0554 33.123 51.9334C33.687 52.4654 34.293 53.0554 34.391 53.8244C34.516 54.7974 33.789 55.6544 33.098 56.3504C31.522 57.9374 29.862 59.4414 28.127 60.8524C31.477 59.1294 35.155 57.0164 36.146 53.3814C36.479 52.1594 36.358 50.6374 35.311 49.9254C34.767 49.5554 34.071 49.4764 33.503 49.1434C31.884 48.1954 32.038 45.7824 32.779 44.0594C33.52 42.3354 34.659 40.5904 34.314 38.7464C33.988 37.0044 32.358 35.4904 32.742 33.7594C33.053 32.3544 34.526 31.6024 35.693 30.7584C36.503 30.1714 37.195 29.3024 37.283 28.2954C36.437 28.6934 36.0329 29.6454 35.2509 30.2724Z" fill="black"/>
<path opacity="0.2" d="M47.3972 13.2114C45.8902 15.1844 43.8332 16.6644 42.1812 18.5164C40.5292 20.3694 39.2521 22.8624 39.8291 25.2764C40.2011 26.8324 41.2781 28.1054 42.1131 29.4704C42.9481 30.8354 43.5611 32.5484 42.9131 34.0114C42.4591 35.0344 41.4871 35.7094 40.6521 36.4554C37.3321 39.4224 35.8611 44.3074 36.9911 48.6144C37.5461 50.7294 38.6741 52.7214 38.7611 54.9064C38.9251 59.0424 35.4371 62.2974 32.2441 64.9304C35.9261 65.3674 38.9661 61.6544 39.4821 57.9834C39.9981 54.3124 38.8061 50.6474 38.2081 46.9894C37.6101 43.3304 37.7731 39.1384 40.3911 36.5144C42.2681 34.6324 45.4292 33.3584 45.4312 30.7004C45.4322 29.9704 45.1641 29.2684 44.8641 28.6024C44.0271 26.7424 42.8871 24.9224 42.8261 22.8834C42.7431 20.1064 44.6191 17.8604 46.2281 15.7954C47.1821 14.5704 50.8661 10.6264 49.1931 9.19141C48.8411 10.6494 48.3192 12.0044 47.3972 13.2114Z" fill="black"/>
<path opacity="0.2" d="M4.38708 43.2074C5.96908 44.6114 8.06607 45.3164 10.1611 45.6094C11.4691 45.7924 13.0921 46.0494 13.4911 47.3084C13.9791 48.8504 12.1661 50.0164 11.1551 51.2794C9.62609 53.1894 10.0431 56.3454 12.0171 57.7914C12.7291 58.3124 13.5731 58.6154 14.3641 59.0054C17.3311 60.4694 19.5911 63.2954 20.3651 66.5124C18.6061 63.4274 15.8571 60.9184 12.6251 59.4464C11.9611 59.1444 11.2681 58.8784 10.6991 58.4234C10.1851 58.0124 9.79309 57.4614 9.51309 56.8654C8.75009 55.2414 8.83608 53.2444 9.73608 51.6924C10.1971 50.8984 10.8781 50.1384 10.8481 49.2204C10.7971 47.6174 8.82109 46.9854 7.33209 46.3884C4.42009 45.2214 1.6851 42.2594 1.4231 39.0364C2.7321 39.4994 3.19508 42.1494 4.38708 43.2074Z" fill="black"/>
<path opacity="0.2" d="M22.699 46.4904C22.566 47.4494 22.219 48.2624 21.653 49.2804C20.646 51.0914 20.285 53.6104 21.772 55.0534C22.283 55.5484 22.983 55.8874 23.289 56.5294C23.91 57.8344 22.548 59.1404 21.881 60.4234C20.944 62.2244 21.539 64.6754 23.197 65.8464C20.947 65.8044 19.127 63.2534 19.821 61.1124C20.387 59.3634 22.278 57.7544 21.529 56.0744C21.296 55.5514 20.838 55.1694 20.469 54.7314C19.258 53.2924 19.058 51.0864 19.989 49.4524C21.76 46.3474 20.21 45.1084 18.768 42.1374C17.987 40.5284 17.512 38.6084 18.225 36.9674C18.322 36.7434 18.547 36.4904 18.763 36.6044C18.916 36.6844 18.935 36.8914 18.934 37.0644C18.925 38.6644 18.915 40.2644 18.906 41.8644C18.904 42.2114 18.907 42.5774 19.081 42.8774C19.277 43.2144 19.649 43.4024 20 43.5714C20.913 44.0104 21.826 44.4495 22.74 44.8885C22.779 45.4885 22.766 46.0074 22.699 46.4904Z" fill="black"/>
</svg>
