<svg width="262" height="334" viewBox="0 0 262 334" fill="none" xmlns="http://www.w3.org/2000/svg">
<path d="M158.109 332.338C176.352 325.236 196.085 324.471 205.16 299.244C212.928 277.638 196.344 258.615 195.489 235.987C194.973 222.283 190.384 203.245 197.878 190.217C204.052 179.489 220.045 177.313 225.509 166.347C230.918 155.494 223.358 143.499 221.277 132.825C217.502 113.445 217.115 100.914 228.777 85.1239C241.199 68.3013 292.228 -7.587 234.549 0.618206C185.481 7.60157 226.507 50.3462 204.469 73.9039C194.183 84.9004 184.776 92.3159 189.907 110.097C194.099 124.63 206.988 128.777 196.547 142.809C187.488 154.982 179.367 153.974 179.466 170.797C179.496 176.101 183.306 183.388 181.145 188.817C178.269 196.038 172.404 194.956 167.769 200.513C140.735 232.952 204.077 245.329 185.019 277.777C177.902 289.897 160.573 286.852 153.768 302.155C150.445 309.62 148.16 327.6 158.109 332.338Z" fill="#57970D"/>
<path d="M116.477 332.339C118.971 301.43 86.592 310.822 79.1268 286.435C74.5126 271.366 86.0207 257.24 84.8982 242.578C83.1747 220.098 70.0822 224.608 53.7115 218.856C46.1272 216.194 41.1802 212.375 37.5296 204.03C34.0975 196.178 37.003 182.802 33.2332 176.514C22.2863 158.256 -6.2034 174.736 1.21705 196.759C4.90244 207.696 17.9305 220.729 28.1721 225.348C36.4369 229.078 48.7397 226.421 50.498 238.312C51.7844 246.994 42.69 250.843 39.9782 258.452C37.5444 265.271 37.6586 278.076 39.9782 284.965C47.5476 307.425 66.8437 301.996 81.6797 313.966C94.8517 324.595 94.7326 336.074 116.477 332.339Z" fill="#266C00"/>
<path d="M133.708 330.897C130.782 322.657 117.883 321.123 112.132 313.667C105.511 305.075 103.479 293.75 106.003 283.206C109.037 270.535 118.385 262.216 124.007 251.95C129.516 241.892 128.835 242.373 122.219 230.413C117.759 222.352 109.405 209.359 109.266 200.294C109.107 189.641 118.395 186.303 116.512 175.858C114.546 164.975 100.961 156.144 96.3521 145.679C89.0211 129.035 96.7346 121.694 102.437 106.193C111.734 80.9116 91.3257 28.8742 137.761 35.3906C141.545 43.273 143.651 50.2663 140.895 58.7943C137.15 70.372 125.14 75.7809 136.574 88.039C143.607 95.5787 151.36 93.3436 156.684 104.196C159.789 110.524 158.865 116.991 161.09 123.492C163.583 130.769 169.355 136.312 170.845 144.055C174.197 161.513 160.027 175.257 157.395 191.598C155.467 203.553 157.663 211.455 162.411 221.98C171.739 242.676 165.237 260.189 159.62 282.257C156.654 293.899 153.044 308.353 146.631 318.167C144.377 321.614 136.598 331.364 133.708 330.897Z" fill="#7ABA30"/>
<path d="M168.157 329.463C144.326 333.556 147.848 306.849 158.691 296.444C168.972 286.579 195.991 272.479 186.713 252.765C183.45 245.837 173.224 247.004 168.485 241.64C164.055 236.628 160.757 217.57 162.674 211.739C166.081 201.373 175.046 200.723 173.904 187.337C172.623 172.288 161 172.288 172.786 158.991C184.28 146.023 202.046 143.967 195.535 122.411C192.45 112.199 182.194 104.237 181.002 93.2405C180.117 85.07 184.518 76.0602 185.129 68.4411C167.929 63.9908 152.477 64.1944 153.749 84.7621C154.623 98.9225 164.085 99.0666 166.757 112.298C167.576 116.351 168.212 127.646 166.777 131.416C163.335 140.435 158.512 136.998 152.263 142.76C138.168 155.753 150.376 168.225 150.227 183.637C150.113 195.84 141.262 199.034 137.979 210.274C132.63 228.562 149.929 228.597 154.995 243.328C159.932 257.672 152.015 254.062 146.269 263.355C140.477 272.727 145.668 278.657 143.105 286.396C139.106 298.46 119.612 308.637 132.168 324.476C137.601 331.341 152.646 334.559 168.157 329.463Z" fill="#266C00"/>
<path d="M134.03 274.335C130.653 286.902 127.27 299.473 123.893 312.039C125.358 297.789 126.823 283.539 128.284 269.294C129.093 261.427 129.853 253.192 126.913 245.851C121.956 233.478 106.901 223.584 110.572 210.77C111.62 207.119 114.123 204.099 116.438 201.08C123.51 191.846 129.505 180.159 126.381 168.954C124.603 162.582 120.118 157.366 117.078 151.486C114.044 145.605 112.688 137.852 116.939 132.776C118.161 131.315 119.756 130.203 120.938 128.713C126.799 121.322 120.307 111.612 119.318 103.869C123.197 104.713 133.151 112.695 134.452 116.792C137.194 125.43 128.775 127.133 124.881 133.665C121.787 138.86 124.166 145.625 127.663 150.557C131.159 155.489 135.793 159.81 137.711 165.542C143.472 182.802 121.941 199.113 124.469 217.132C126.173 229.296 138.515 238.236 139.171 250.505C140.244 270.551 123.148 286.464 121.36 305.299C121.047 308.587 121.628 311.895 122.408 315.098C123.749 320.582 125.919 326.229 130.409 329.651C130.429 317.045 139.558 304.866 136.206 292.718C135.346 289.598 133.692 286.743 132.783 283.633C131.875 280.524 131.835 276.863 133.911 274.38C127.976 288.228 121.568 297.153 120.64 312.193C120.327 317.254 120.406 322.683 123.208 326.904C124.29 328.538 126.004 330.014 127.961 329.875C131.274 329.636 132.446 325.414 132.689 322.096C133.697 308.294 133.578 294.411 132.327 280.633C131.919 276.163 129.952 276.233 134.03 274.335Z" fill="#266C00"/>
<path d="M129.396 333.774C121.325 328.464 109.156 326.413 101.398 317.984C88.5983 304.077 103.221 298.455 104.631 282.014C105.818 268.182 101.944 276.894 97.1662 267.611C93.0536 259.619 95.3732 251.096 97.2209 242.389C99.6149 231.109 103.951 231.929 95.4079 219.209C86.6613 206.186 80.7507 200.991 78.7938 184.133C78.312 179.981 76.1862 173.489 77.7011 169.282C80.8501 160.516 81.1383 166.347 88.8716 160.814C100.926 152.191 98.6314 146.48 99.3714 130.68C99.9774 117.687 92.9643 78.1309 113.919 81.4438C125.204 83.2269 124.504 99.5877 123.664 110.867C122.432 127.471 120.471 132.041 127.116 147.155C133.394 161.43 136.379 172.769 129.421 186.989C124.151 197.757 115.618 201.631 116.413 214.972C117.535 233.861 136.866 231.01 136.573 251.806C136.404 263.856 134.338 273.094 135.53 284.96C136.861 298.137 134.855 321.059 129.396 333.774Z" fill="#57970D"/>
<path d="M12.9588 196.416C14.0863 199.903 16.8877 202.545 19.5847 205.023C23.6028 208.724 27.626 212.419 31.6442 216.119C32.4637 216.874 34.2318 217.296 34.2815 216.184C27.1789 210.174 22.7684 201.105 22.4257 191.807C25.5846 196.302 28.7435 200.797 31.8975 205.292C30.9935 198.631 31.9571 176.643 23.7171 174.701C14.1559 172.451 10.9969 190.337 12.9588 196.416Z" fill="#498F00"/>
<path d="M46.1868 272.741C45.0097 277.957 47.195 283.276 49.3308 288.178C50.8059 291.566 52.8474 295.41 56.498 295.981C55.3557 289.271 54.2083 282.457 54.9533 275.687C55.6984 268.922 58.599 262.088 64.1171 258.099C59.9003 267.755 60.8142 279.486 66.4764 288.372C66.9334 280.515 68.92 272.751 72.2875 265.639C75.213 259.46 79.2261 253.609 80.3089 246.854C81.3867 240.104 78.1882 231.924 71.5028 230.499C77.7263 231.825 69.7545 251.334 67.9516 253.316C66.4317 244.654 64.0179 231.874 58.7282 243.909C56.5924 248.767 57.6304 254.295 54.6006 259.545C51.9384 264.169 47.4285 267.248 46.1868 272.741Z" fill="#498F00"/>
<path d="M115.573 71.2227C114.128 74.3121 115.255 77.9776 116.805 81.0173C121.782 90.7772 131.194 98.1628 141.858 100.681C136.747 95.7837 132.257 90.2408 128.517 84.2309C121.941 73.6615 137.293 72.7079 134.065 62.8586C130.975 53.4365 118.186 65.635 115.573 71.2227Z" fill="#68A81E"/>
<path d="M138.823 133.367C133.797 133.655 130.429 139.287 130.822 144.309C131.214 149.33 134.278 153.706 137.427 157.635C138.59 159.08 139.797 160.54 140.452 162.274C142.176 166.813 139.737 171.855 140.065 176.702C140.244 179.37 141.267 181.972 141.093 184.639C140.621 192.02 131.408 197.245 132.476 204.561C139.613 206.33 146.641 199.734 148.136 192.537C149.631 185.335 147.207 177.964 144.818 171.01C143.239 166.426 141.664 161.837 140.085 157.252C139.21 154.714 138.495 151.491 140.477 149.688C141.416 148.833 142.722 148.565 143.944 148.218C148.876 146.822 153.356 143.564 155.76 139.039C157.926 134.966 159.401 122.797 152.546 123.567C150.152 123.835 150.267 129.304 148.593 130.397C144.555 133.024 143.919 133.074 138.823 133.367Z" fill="#68A81E"/>
<path d="M168.366 73.1191C163.225 75.4436 160.022 81.4485 160.961 87.0114C161.894 92.5792 166.881 97.2033 172.503 97.7199C170.422 92.7679 169.24 87.4435 169.032 82.0744C169.811 82.1141 170.591 82.1489 171.376 82.1886C171.485 83.6786 171.599 85.1687 171.709 86.6587C173.05 88.2978 175.926 87.3988 177.043 85.6008C178.161 83.7978 178.146 81.5529 178.424 79.4519C178.702 77.3509 179.542 75.0314 181.503 74.2317C177.053 72.9105 172.166 73.1092 167.835 74.7781L168.366 73.1191Z" fill="#498F00"/>
<path d="M146.606 157.795C146.447 159.841 146.884 161.882 147.421 163.864C149.209 170.455 152.144 176.733 156.053 182.331C157.225 178.546 156.063 174.493 155.869 170.535C155.681 166.581 157.116 161.858 160.931 160.79C162.162 160.442 163.493 160.541 164.705 160.144C165.942 159.737 166.955 158.853 167.934 157.993C174.182 152.475 195.768 137.272 175.116 139.035C165.768 139.83 147.451 146.823 146.606 157.795Z" fill="#498F00"/>
<path d="M155.06 201.587C155.557 200.921 155.224 199.814 154.439 199.531C150.555 202.923 147.316 207.055 144.947 211.64C143.07 215.28 141.719 219.408 142.419 223.441C143.12 227.474 146.378 231.269 150.47 231.477C149.994 226.416 150.297 221.28 151.374 216.308C152.383 221.633 155.08 226.63 158.989 230.384C160.752 225.159 159.912 219.467 159.898 213.954C159.883 208.436 161.06 202.312 165.51 199.049C160.479 201.512 156.083 205.257 152.845 209.832C151.737 205.357 153.103 200.355 156.331 197.062L155.06 201.587Z" fill="#498F00"/>
<path d="M151.116 271.872C150.868 273.432 151.046 275.25 152.278 276.238C153.053 276.859 154.101 277.023 154.965 277.515C157.473 278.95 157.583 282.755 156.018 285.183C154.449 287.612 151.777 289.038 149.308 290.543C143.184 294.273 137.1 300.889 139.255 307.728C146.969 298.226 155.869 289.688 165.684 282.382C172.16 277.559 179.864 271.634 179.114 263.593C172.707 266.548 166.91 270.814 162.187 276.054C162.47 272.533 165.073 264.074 160.399 262.694C156.023 261.397 151.642 268.535 151.116 271.872Z" fill="#498F00"/>
<path d="M97.7773 163.798C104.199 159.532 108.511 152.235 109.146 144.552C110.676 150.999 107.338 158.28 110.373 164.171C111.371 166.113 112.976 167.667 114.61 169.118C118.931 172.937 123.689 176.26 128.76 179.002C126.287 171.154 123.217 163.49 119.587 156.105C117.009 150.86 114.118 145.669 112.837 139.967C110.562 129.855 113.557 119.385 116.532 109.456C111.838 111.8 109.713 117.329 108.769 122.489C107.825 127.65 107.587 133.118 104.984 137.678C106.385 135.259 104.085 127.034 103.4 124.391C99.7044 137.062 106.579 152.166 97.7773 163.798Z" fill="#498F00"/>
<path d="M85.7327 191.519C87.6747 193.868 90.0638 195.83 91.9214 198.244C95.6664 203.117 96.9528 209.38 98.2442 215.385C98.875 218.305 99.8088 221.588 102.486 222.914C106.375 224.841 111.049 220.789 111.521 216.472C111.992 212.156 109.762 208.068 107.741 204.229C106.877 202.59 106.017 200.812 106.241 198.974C106.673 195.428 110.676 193.67 114.078 192.592C110.532 191.757 106.787 191.797 103.256 192.701C96.2525 194.499 94.6532 181.213 88.097 180.354C80.7163 179.39 81.8139 186.746 85.7327 191.519Z" fill="#498F00"/>
<path d="M106.802 264.655C109.399 266.498 112.702 267.427 114.744 269.87C118.429 274.271 116.194 280.981 113.209 285.883C110.224 290.786 106.454 296.065 107.596 301.688C113.959 298.628 116.04 288.834 123.043 287.91C125.507 287.582 128.298 288.476 130.34 287.056C132.431 285.6 132.5 282.581 132.351 280.037C132.217 277.683 131.994 275.12 130.379 273.402C128.86 271.783 126.495 271.331 124.603 270.173C119.795 267.233 119.442 259.202 123.972 255.854C125.631 254.627 127.747 253.972 129.043 252.372C130.35 250.758 130.543 248.528 130.563 246.452C130.583 244.381 130.469 242.215 129.446 240.412C128.422 238.609 126.242 237.303 124.265 237.924C121.931 238.659 121.066 241.42 120.302 243.745C119.308 246.77 117.724 251.741 115.166 253.813C112.573 255.914 110.224 255.933 109.091 256.634C107.651 257.523 105.312 252.074 103.146 256.857C101.875 259.668 104.666 263.14 106.802 264.655Z" fill="#498F00"/>
<path d="M191.347 297.685C187.483 302.999 181.453 306.446 175.136 308.244C172.642 308.954 170.02 309.456 167.854 310.877C163.225 313.906 162.003 320.035 161.184 325.504C162.202 318.689 186.316 310.598 191.432 305.393C187.647 316.265 166.612 334.305 168.535 312.213C170.139 293.756 192.102 292.395 193.18 273.814C197.154 281.2 196.275 290.915 191.347 297.685Z" fill="#498F00"/>
<path d="M193.771 193.74C194.606 190.859 195.624 187.944 197.551 185.639C201.217 181.258 207.37 179.952 211.935 176.52C221.024 169.681 221.789 156.23 219.326 145.129C216.862 134.024 212.009 123.136 212.879 111.792C200.983 124.681 215.099 149.361 202.652 161.719C198.917 165.424 193.349 167.172 190.399 171.533C186.589 177.175 188.596 184.849 186.808 191.415C185.005 198.036 179.571 202.894 175.29 208.253C171.008 213.612 167.671 221.052 170.79 227.162C174.778 234.984 187.543 247.138 191.243 234.875C192.828 229.615 189.977 220.322 190.285 214.516C190.652 207.488 191.809 200.5 193.771 193.74Z" fill="#498F00"/>
<path d="M228.758 67.8889C236.004 60.8261 235.786 47.6044 228.311 40.7849C226.597 39.2204 224.591 37.9737 223.076 36.2204C220.96 33.7668 219.991 30.5483 219.261 27.3943C218.243 22.9838 217.592 18.4937 217.309 13.9739C217.225 12.6329 217.195 11.2074 217.86 10.0451C218.526 8.87793 220.155 8.16768 221.263 8.92264C209.536 24.141 205.697 45.1209 211.284 63.5032C211.856 65.3856 212.526 67.3177 212.268 69.2697C211.826 72.5478 208.96 74.8425 206.616 77.1769C201.391 82.3772 198.197 89.2463 197.189 96.4681C195.41 76.6206 218.233 78.1504 228.758 67.8889Z" fill="#498F00"/>
<path opacity="0.2" d="M175.086 150.358C170.849 153.756 165.907 156.587 163.106 161.231C160.687 165.239 160.185 170.077 159.743 174.741C158.943 183.159 158.179 191.896 161.01 199.863C162.147 203.062 163.876 206.235 163.588 209.618C163.036 216.045 155.869 219.546 152.467 225.03C149.114 230.429 149.74 237.571 152.506 243.288C155.273 249.005 159.892 253.584 164.516 257.945C167.318 260.587 170.327 263.518 170.814 267.337C171.435 272.17 167.824 276.427 164.392 279.884C156.564 287.766 148.319 295.236 139.702 302.244C156.341 293.686 174.609 283.191 179.531 265.137C181.185 259.068 180.584 251.508 175.384 247.972C172.682 246.134 169.225 245.742 166.404 244.088C158.362 239.379 159.127 227.394 162.808 218.836C166.488 210.273 172.145 201.606 170.432 192.447C168.813 183.795 160.717 176.275 162.624 167.678C164.169 160.699 171.485 156.964 177.281 152.772C181.304 149.857 184.741 145.541 185.178 140.539C180.976 142.516 178.97 147.244 175.086 150.358Z" fill="black"/>
<path opacity="0.2" d="M235.413 65.6185C227.928 75.4181 217.711 82.769 209.506 91.9676C201.301 101.171 194.958 113.553 197.824 125.543C199.672 133.272 205.021 139.595 209.168 146.374C213.316 153.154 216.36 161.662 213.142 168.929C210.887 174.01 206.059 177.362 201.912 181.068C185.422 195.804 178.116 220.067 183.728 241.459C186.485 251.964 192.087 261.858 192.519 272.711C193.334 293.253 176.01 309.421 160.151 322.498C178.439 324.669 193.538 306.227 196.101 287.994C198.663 269.76 192.743 251.557 189.773 233.388C186.803 215.215 187.612 194.394 200.615 181.361C209.938 172.013 225.638 165.685 225.648 152.483C225.653 148.858 224.322 145.371 222.832 142.063C218.675 132.825 213.013 123.785 212.71 113.658C212.297 99.8649 221.615 88.7094 229.607 78.4528C234.345 72.3685 252.643 52.7793 244.334 45.6519C242.585 52.8935 239.993 59.6236 235.413 65.6185Z" fill="black"/>
<path opacity="0.2" d="M21.79 214.604C29.6475 221.578 40.0629 225.079 50.4684 226.535C56.965 227.444 65.0263 228.72 67.0081 234.973C69.4319 242.632 60.427 248.424 55.4056 254.697C47.8113 264.183 49.8824 279.859 59.687 287.041C63.2233 289.628 67.4153 291.133 71.344 293.07C86.0806 300.342 97.3057 314.378 101.15 330.356C92.4134 315.034 78.7596 302.572 62.7068 295.261C59.4088 293.761 55.9668 292.44 53.1407 290.18C50.5878 288.138 48.6407 285.402 47.25 282.441C43.4603 274.375 43.8874 264.456 48.3576 256.748C50.6473 252.804 54.0297 249.03 53.8807 244.47C53.6274 236.508 43.813 233.369 36.4174 230.404C21.9539 224.608 8.36967 209.896 7.06836 193.888C13.5699 196.187 15.8695 209.349 21.79 214.604Z" fill="black"/>
<path opacity="0.2" d="M112.742 230.91C112.082 235.674 110.358 239.712 107.547 244.768C102.545 253.763 100.752 266.274 108.138 273.442C110.676 275.9 114.153 277.584 115.673 280.773C118.757 287.254 111.992 293.741 108.679 300.113C104.025 309.059 106.981 321.232 115.216 327.049C104.04 326.84 95.0006 314.17 98.4475 303.536C101.259 294.849 110.651 286.857 106.931 278.513C105.774 275.915 103.499 274.018 101.666 271.842C95.6513 264.695 94.6578 253.738 99.282 245.622C108.078 230.2 100.38 224.046 93.2176 209.29C89.3385 201.298 86.9791 191.762 90.5204 183.611C91.0022 182.499 92.1199 181.242 93.1927 181.808C93.9526 182.206 94.047 183.234 94.042 184.093C93.9973 192.04 93.9475 199.987 93.9028 207.934C93.8929 209.657 93.9079 211.475 94.7721 212.965C95.7456 214.639 97.5933 215.573 99.3367 216.412C103.871 218.593 108.406 220.773 112.946 222.954C113.139 225.934 113.075 228.512 112.742 230.91Z" fill="black"/>
</svg>
