<svg width="62" height="47" viewBox="0 0 62 47" fill="none" xmlns="http://www.w3.org/2000/svg">
<path d="M23.8282 25.6167C22.0502 19.6507 20.7102 15.6957 21.1562 9.2997C21.3892 5.9537 24.0791 -2.51329 29.7281 0.724706C33.6931 2.99671 31.2482 13.1937 30.6082 16.6357C30.1662 19.0097 27.3192 29.2697 23.8282 25.6167Z" fill="#006404"/>
<path d="M32.3672 27.0976C28.1002 22.6076 29.1572 6.05662 37.6002 5.92862C47.2722 5.78262 44.3562 17.2836 41.2092 21.9056C39.5882 24.2866 35.4442 29.1966 32.3672 27.0976Z" fill="#004100"/>
<path d="M41.7181 30.5507C41.5841 25.6717 44.8431 3.59866 52.5151 10.6877C58.6471 16.3537 48.5991 30.7027 43.1521 31.3187C43.0861 30.7247 42.9991 29.9347 41.7181 30.5507Z" fill="#006404"/>
<path d="M28.3312 39.1877C26.3682 36.7647 4.5132 17.6927 4.6762 30.0387C4.7782 37.7457 22.6052 40.1717 27.6512 39.4167C27.7372 38.6897 27.2422 39.1627 28.3312 39.1877Z" fill="#498F00"/>
<path d="M26.6931 41.3557C27.3871 41.2877 21.8181 23.1326 21.0241 21.6586C19.6511 19.1096 17.9231 17.1416 14.9521 16.8796C12.2811 16.6436 10.5471 20.0207 10.5231 22.3297C10.5051 24.0797 11.0991 25.7787 11.8221 27.3717C14.3441 32.9297 18.2522 36.6577 22.9532 40.3377C23.9972 41.1557 25.3891 41.4827 26.6931 41.3557Z" fill="#006404"/>
<path d="M21.9621 42.7187C19.3601 44.1827 15.4262 41.7487 13.4512 40.1527C10.6462 37.8867 8.55814 36.1097 4.32414 36.5657C0.321144 36.9967 -1.61786 40.3097 1.65914 43.3337C4.40614 45.8677 9.58918 46.3707 13.1432 46.4097C16.1062 46.4437 21.8461 46.2747 21.9621 42.7187Z" fill="#77A300"/>
<path d="M31.2592 41.8128C31.3762 41.4598 19.2552 36.2308 18.1232 35.4758C16.6632 34.5018 15.4302 34.0928 13.8842 33.3568C12.0812 32.4978 10.5762 31.6678 8.5142 32.6038C7.2252 33.1898 6.63221 34.4578 6.38221 35.6268C5.90921 37.8388 6.34419 41.0368 8.02619 42.8548C10.8742 45.9328 15.1342 46.4058 20.1212 46.4098C24.7162 46.4148 29.9972 45.5758 31.2592 41.8128Z" fill="#004100"/>
<path d="M41.5881 40.3468C44.7121 37.6568 60.0701 24.9438 61.0511 36.0618C61.8621 45.2548 45.8511 44.3388 40.4841 43.4648C40.2331 41.8478 40.9071 41.1448 41.5881 40.3468Z" fill="#77A300"/>
<path d="M38.8361 41.6657C34.2131 39.1857 46.0311 28.1797 47.8231 26.5477C49.7351 24.8067 53.1511 20.9837 55.0051 24.8097C56.4801 27.8527 54.0631 32.9617 52.1271 35.3997C49.2721 38.9967 42.8001 44.0757 38.8361 41.6657Z" fill="#004100"/>
<path d="M33.0881 44.3876C35.1041 43.1166 55.6062 34.6846 52.4542 43.5796C50.4862 49.1316 36.9901 46.5066 33.5231 44.7206C33.6401 44.1726 33.8821 44.6376 33.0881 44.3876Z" fill="#498F00"/>
<path d="M31.2591 44.0868C37.8621 44.0868 45.3371 41.1508 48.8041 33.8328C50.4261 30.4078 50.4941 26.3918 46.6491 25.1998C41.4391 23.5848 37.0381 27.7838 34.5301 31.7818C32.5181 34.9888 30.9461 41.0738 31.2591 44.0868Z" fill="#006404"/>
<path d="M28.5931 42.8557C22.8291 42.8107 16.5231 23.7757 20.2311 19.4717C22.7201 16.5827 29.5131 17.2377 31.2481 19.6957C33.3151 22.6257 32.4801 29.1857 32.2851 32.8057C32.1681 34.9767 31.3941 44.1957 28.5931 42.8557Z" fill="#498F00"/>
<path d="M32.5821 45.1007C34.2791 44.4837 35.9631 43.2617 37.0451 42.3867C38.9621 40.8357 41.2271 38.9007 42.4361 36.7037C44.5331 32.8957 47.8421 27.2227 47.2561 22.7787C46.5511 17.4327 40.2201 18.7027 36.9101 21.5497C35.2581 22.9707 34.2521 25.3847 33.1661 27.3097C32.3701 28.7207 31.8191 30.1457 31.3871 31.6687C30.6421 34.2997 30.0351 37.1097 29.2641 39.7707C28.7711 41.4707 26.8471 44.0407 29.2051 45.1837C30.2041 45.6667 31.3961 45.5317 32.5821 45.1007Z" fill="#77A300"/>
<path d="M34.1392 37.4848C35.0122 37.9128 36.0202 37.3018 36.7772 36.6918C39.9302 34.1578 42.7152 31.1668 45.0192 27.8428C45.4002 28.3758 45.0292 29.1048 44.6602 29.6468C42.6892 32.5488 40.7182 35.4508 38.7472 38.3528C37.7632 39.8018 36.7632 41.2678 35.4432 42.4198C34.1232 43.5708 32.4242 44.3918 30.6752 44.2978C30.5532 44.2908 30.4252 44.2788 30.3242 44.2098C30.1002 44.0578 30.1142 43.7278 30.1562 43.4608C30.7122 39.8838 31.4272 34.2278 33.7422 31.3928C33.5852 32.8208 32.3102 36.5868 34.1392 37.4848Z" fill="#538300"/>
<path d="M59.4732 34.7578C58.4122 37.0278 56.9852 39.1268 55.2662 40.9498C53.4232 42.9028 50.7962 40.9918 52.3142 38.8298C53.5802 37.0258 57.6232 36.1238 59.4732 34.7578Z" fill="#538300"/>
<path d="M2.98911 40.3386C4.67311 41.4276 6.3561 42.5166 8.0401 43.6046C7.0491 44.3496 5.63409 44.3436 4.50409 43.8336C3.37409 43.3236 2.4931 42.3826 1.7771 41.3706C1.8601 41.1486 2.11009 41.0026 2.34409 41.0386L2.98911 40.3386Z" fill="#538300"/>
<path d="M23.9951 41.3478C23.2121 43.0568 21.1131 43.7298 19.2341 43.7778C15.7501 43.8668 12.2561 42.3818 9.90112 39.8128C8.97412 38.8008 8.44412 37.4008 10.0831 37.2338C11.1271 37.1268 13.4281 38.9468 14.4371 39.3608C15.3991 39.7568 23.4781 42.4778 23.9951 41.3478Z" fill="#004D00"/>
<path d="M34.1532 13.0467C34.6312 11.6617 35.9172 10.7457 37.1292 9.92266C37.8072 9.46266 38.5442 8.98366 39.3642 8.99966C40.4992 9.02166 41.4722 10.1807 41.2982 11.3017C41.2212 11.7957 40.9643 12.2407 40.7063 12.6687C39.9833 13.8637 36.5263 20.2487 35.0523 20.1927C33.2163 20.1227 33.7592 14.1897 34.1532 13.0467Z" fill="#004D00"/>
<path d="M49.3902 37.1608C49.0072 35.6918 49.9112 34.2388 50.3892 32.7968C50.7122 31.8228 51.5792 25.9338 53.0542 29.5048C53.4592 30.4848 52.2312 32.9598 51.8012 33.8238C51.5732 34.2818 49.3402 36.9688 49.3902 37.1608Z" fill="#004D00"/>
<path d="M14.1222 24.4448C14.7922 25.6848 15.4622 26.9248 16.1322 28.1648C16.3942 28.6498 17.0213 29.1948 17.3883 28.7828C17.5273 28.6268 17.5343 28.3968 17.5343 28.1878C17.5323 26.9448 17.5302 25.7028 17.5272 24.4608C17.8632 27.7178 18.6633 30.9258 19.8963 33.9588C20.2973 34.9458 20.7503 35.9418 20.8023 37.0058C18.4573 35.9768 16.6912 33.9078 15.5322 31.6238C14.3732 29.3398 13.7552 26.8268 13.1452 24.3388C12.9112 23.3818 12.7142 22.4608 12.7922 21.4768C13.4962 22.2288 13.6042 23.4858 14.1222 24.4448Z" fill="#004A03"/>
<path d="M29.2431 7.34473C29.5471 8.90973 29.3111 10.5237 29.0741 12.1007C28.8131 13.8367 28.5531 15.5717 28.2921 17.3077C28.5061 15.8827 23.7542 16.6627 23.3282 16.8297C23.2282 15.9127 22.6411 13.5917 23.1661 12.7567C24.2771 10.9897 23.8392 12.9647 25.0602 12.9677C27.7262 12.9717 28.2301 9.66173 29.2431 7.34473Z" fill="#004A03"/>
<path d="M45.8591 18.1937C46.6781 18.7847 47.8652 18.8087 48.7072 18.2497C49.3052 17.8537 49.7011 17.2247 50.2081 16.7167C50.7151 16.2097 51.4532 15.8047 52.1312 16.0387C51.3042 18.8227 50.3131 21.5577 49.1661 24.2257C48.9011 24.8417 48.3272 25.5777 47.7252 25.2827C48.6822 23.0867 47.9901 20.2897 46.1191 18.7937C45.9061 18.6237 45.8231 18.1407 46.0801 18.2287L45.8591 18.1937Z" fill="#004A03"/>
<path d="M45.1062 37.1966C43.6312 39.6456 41.2072 41.5046 38.4602 42.2946C39.4792 41.4736 40.5012 40.6496 41.4142 39.7116C42.7562 38.3336 43.8472 36.7146 44.6312 34.9586C45.1692 33.7536 45.3432 30.9106 46.6572 30.6096C47.0082 32.8096 46.2442 35.3086 45.1062 37.1966Z" fill="#004A03"/>
<path d="M50.0122 41.0546C50.1492 41.0696 50.2921 41.0966 50.3981 41.1846C50.5751 41.3316 50.5932 41.5956 50.5632 41.8236C50.4302 42.8266 49.6432 43.6506 48.7282 44.0816C47.6852 44.5736 40.4612 45.2886 41.9462 43.5776C42.3522 43.1106 45.1742 42.8046 45.9412 42.4536C47.2632 41.8486 48.4692 40.8886 50.0122 41.0546Z" fill="#428200"/>
<path d="M27.1921 28.9017C28.1421 27.0747 29.0921 25.2477 30.0421 23.4207C30.2561 28.8587 29.3161 34.3407 27.3031 39.3967C27.0791 39.9597 26.5761 40.6347 26.0231 40.3857C25.7851 40.2787 25.6521 40.0277 25.5361 39.7937C23.5741 35.8467 20.3711 30.4307 20.8711 25.8727C24.1241 27.3087 23.4631 36.0747 27.1921 28.9017Z" fill="#428200"/>
<path opacity="0.2" d="M38.8791 23.4036C37.6381 24.7816 36.3481 26.2546 35.9851 28.0736C35.8951 28.5266 35.8811 29.0446 36.1781 29.3976C36.5041 29.7856 37.0791 29.8326 37.5841 29.7996C40.8511 29.5866 43.8251 27.0276 44.5241 23.8296C44.6081 23.4466 44.6542 23.0166 44.4402 22.6876C44.2452 22.3876 43.8801 22.2476 43.5331 22.1616C41.5971 21.6816 39.4182 22.3716 38.1122 23.8796L38.8791 23.4036Z" fill="#BBE392"/>
<path opacity="0.2" d="M22.7432 22.1678C22.8112 23.1728 22.8872 24.2108 23.3522 25.1038C23.8172 25.9978 24.7792 26.7138 25.7762 26.5668C26.6672 26.4358 27.3491 25.6518 27.6321 24.7968C27.9141 23.9418 27.8732 23.0188 27.8282 22.1198C27.7722 20.9998 27.5842 19.6678 26.5742 19.1818C25.7602 18.7898 24.7431 19.1858 24.1451 19.8618C23.5471 20.5388 23.2711 21.4328 23.0101 22.2978L22.7432 22.1678Z" fill="#BBE392"/>
<path opacity="0.2" d="M36.8381 14.7958C38.0221 13.7878 39.0351 12.5798 39.8221 11.2388C40.2061 10.5848 40.4441 9.56779 39.7721 9.21579C39.4171 9.02979 38.9801 9.15879 38.6231 9.34079C37.3191 10.0088 36.4191 11.4058 36.3511 12.8698L36.8381 14.7958Z" fill="#BBE392"/>
<path opacity="0.2" d="M47.8661 15.9806C48.9151 15.5846 49.8881 14.9876 50.7161 14.2306C51.1561 13.8286 51.5661 13.3636 51.7521 12.7966C51.9381 12.2306 51.8561 11.5436 51.4221 11.1346C50.6971 10.4506 49.4621 10.8776 48.7721 11.5966C47.7341 12.6786 47.3471 14.3426 47.8021 15.7716L47.8661 15.9806Z" fill="#BBE392"/>
<path opacity="0.2" d="M54.4541 36.1506C55.6681 35.7366 56.8831 35.3226 58.0971 34.9086C58.5491 34.7546 59.1081 34.3876 58.9261 33.9466C58.8461 33.7516 58.6391 33.6416 58.4411 33.5686C56.9121 33.0056 55.0061 33.9456 54.5231 35.5016L54.4541 36.1506Z" fill="#BBE392"/>
<path opacity="0.2" d="M26.1122 10.0318C27.1372 8.81375 27.8091 7.30175 28.0231 5.72375C28.1771 4.59275 27.8151 3.10175 26.6821 2.96975C25.8111 2.86775 25.1042 3.69375 24.7982 4.51575C24.2552 5.97375 24.4492 7.68575 25.3032 8.98675L26.1122 10.0318Z" fill="#BBE392"/>
<path opacity="0.2" d="M15.9551 24.4797C16.3691 23.5937 16.7892 22.6817 16.8492 21.7067C16.9092 20.7317 16.5252 19.6637 15.6692 19.1917C14.8132 18.7197 13.5101 19.1397 13.3201 20.0987C13.2271 20.5677 13.3961 21.0457 13.5701 21.4907C13.7861 22.0457 14.0231 22.6117 14.4371 23.0397C14.8521 23.4677 15.4892 23.7317 16.0552 23.5467L15.9551 24.4797Z" fill="#BBE392"/>
<path opacity="0.2" d="M9.69309 30.5038C10.2741 30.1178 10.1981 29.1588 9.68211 28.6898C9.16611 28.2218 8.39409 28.1578 7.70609 28.2708C7.05109 28.3788 6.3901 28.6468 5.9781 29.1678C5.5661 29.6888 5.48112 30.4998 5.91212 31.0048C6.22312 31.3688 6.72211 31.5078 7.19611 31.5738C8.34511 31.7348 9.5381 31.5718 10.6031 31.1108L9.69309 30.5038Z" fill="#BBE392"/>
<path opacity="0.2" d="M12.6321 35.4137C14.9131 36.8397 18.0522 36.6017 20.0652 38.3847C16.2262 39.4687 11.8331 38.2727 9.07414 35.3917C8.74714 35.0507 8.42115 34.6067 8.53615 34.1487C9.40015 33.6557 10.5012 33.9967 11.3622 34.4947C12.2232 34.9927 13.0341 35.6517 14.0141 35.8177L12.6321 35.4137Z" fill="#BBE392"/>
<path opacity="0.2" d="M2.58616 38.9138C3.29116 39.5418 4.03818 40.1218 4.82218 40.6488C5.31718 39.8638 5.13516 38.6598 4.31916 38.2158C3.50416 37.7718 2.27417 38.4848 2.41017 39.4028L2.58616 38.9138Z" fill="#BBE392"/>
<path opacity="0.2" d="M49.9941 26.9667C51.3211 26.0447 53.1982 25.9937 54.5732 26.8427C54.9712 26.0857 54.2461 25.1927 53.4631 24.8497C52.6451 24.4917 51.6771 24.4337 50.8611 24.7967C50.0451 25.1597 49.4182 25.9717 49.3782 26.8637L49.9941 26.9667Z" fill="#BBE392"/>
</svg>
