<svg width="221" height="392" viewBox="0 0 221 392" fill="none" xmlns="http://www.w3.org/2000/svg">
<path d="M51.963 391.996C50.7809 391.852 50.1153 390.978 50.2445 390.029C51.208 382.941 51.8885 376.4 52.3802 369.426C52.9763 361.032 52.9763 354.084 51.064 347.463C47.9796 336.779 42.2727 334.311 35.046 331.177C30.5907 329.25 25.5444 327.069 20.8507 322.539C16.1025 317.96 13.7184 313.107 13.7631 308.121C13.8574 298.301 23.0113 289.813 31.0824 282.318C45.3621 269.072 54.9133 258.125 47.7561 237.845C47.4382 236.941 47.91 235.953 48.809 235.635C49.718 235.317 50.7014 235.789 51.0193 236.688C58.8669 258.914 48.1982 271.158 33.4368 284.856C25.8772 291.869 17.3045 299.821 17.225 308.151C17.1852 312.208 19.1571 316.097 23.2497 320.051C27.4914 324.139 32.0311 326.101 36.4168 327.998C43.8373 331.212 50.8505 334.246 54.3918 346.495C56.5722 354.034 56.3736 362.085 55.8372 369.665C55.3405 376.713 54.6551 383.334 53.6766 390.496C53.5574 391.36 52.8124 391.996 51.963 391.996Z" fill="#266C00"/>
<path d="M52.8122 247.545C58.1416 244.471 61.2956 239.221 59.4082 232.377C50.3089 231.9 38.6468 230.454 30.7893 234.264C36.1088 242.072 46.6434 237.925 49.3801 247.545H52.8122Z" fill="#94DA4B"/>
<path d="M24.0144 259.933C24.223 262.982 26.2694 267.055 29.2296 268.357C32.5673 269.822 37.2858 266.41 40.1368 268.565C42.6649 270.472 40.4695 275.092 43.3502 277.461C46.3403 279.924 53.0555 279.115 55.966 276.865C60.7839 273.14 56.2591 268.63 52.5488 265.774C45.5704 260.4 32.5822 256.933 24.0144 259.933Z" fill="#498F00"/>
<path d="M45.6551 287.27C45.228 290.032 27.7447 281.265 26.2398 280.655C19.8872 278.052 15.0992 279.05 15.1588 286.903C19.1471 287.668 23.4136 289.178 27.4666 287.876C27.551 292.828 22.2315 294.542 31.1569 295.118C35.0559 295.371 39.5509 296.136 43.0128 293.866C46.4299 291.626 45.074 291.05 45.6551 287.27Z" fill="#94DA4B"/>
<path d="M44.925 297.308C44.9448 296.975 44.93 296.617 44.8853 296.235C37.8473 295.455 30.0493 295.49 22.7382 294.988C16.2515 294.541 8.13566 291.655 2.68704 296.781C-3.41223 302.518 1.90724 307.832 8.34923 309.566C16.4998 311.756 22.6885 305.662 29.9003 303.422C34.0129 302.15 44.5872 303.506 44.925 297.308Z" fill="#498F00"/>
<path d="M40.5397 314.717C40.4851 311.275 31.1623 312.884 28.6243 313.237C19.2369 314.558 5.87619 319.038 3.32324 329.528C8.9159 330.859 14.7321 331.425 19.6393 328.048C23.424 325.44 26.121 322.172 30.4173 320.329C32.9156 319.256 39.0745 318.72 40.2814 315.864C40.4602 315.432 40.5447 315.054 40.5397 314.717Z" fill="#94DA4B"/>
<path d="M37.0674 332.756C32.4036 335.284 24.9086 343.415 31.3457 348.476C33.2629 349.981 39.0144 350.294 41.2545 349.45C44.3488 348.277 44.9846 344.98 48.0739 343.549C52.0325 341.711 62.3834 339.918 58.7278 333.014C55.2709 326.483 41.8157 330.183 37.0674 332.756Z" fill="#498F00"/>
<path d="M63.0341 360.59C65.9446 357.183 61.4099 355.732 56.7212 355.563C51.0938 355.355 45.4316 355.434 39.8141 355.827C35.3092 356.144 19.7679 356.467 17.4782 361.186C14.1554 368.035 30.1139 367.514 33.2678 367.484C36.6254 367.454 40.0575 367.379 43.4002 367.032C48.6303 366.49 57.1285 365.403 61.3652 362.124C62.0854 361.573 62.6318 361.062 63.0341 360.59Z" fill="#498F00"/>
<path d="M14.245 317.832C12.5662 319.51 6.46206 324.308 8.33456 327.696C9.72527 330.214 14.1755 329.032 16.2914 328.113C18.7599 327.04 21.1539 324.894 23.2151 323.419C26.2598 321.239 28.6538 320.827 31.8028 319.197C25.1721 317.946 21.8642 325.282 16.2119 325.719C10.1226 326.191 14.4785 320.136 14.245 317.832Z" fill="#7ABA30"/>
<path d="M24.9584 286.977C27.7547 288.199 28.7083 288.14 30.8589 290.082C32.5427 291.596 30.6603 292.207 33.3126 292.977C37.0129 294.05 40.4748 289.818 43.3059 288.318C42.3771 291.333 38.637 294.239 35.4533 294.909C31.3209 295.779 30.4517 294.497 28.0378 292.033C26.7266 290.692 27.4964 290.077 25.2862 289.212C23.7216 288.601 21.8342 289.52 20.2399 288.815C16.7084 287.25 15.6356 280.54 20.6024 281.037C20.0511 285.775 22.5843 285.939 24.9584 286.977Z" fill="#7ABA30"/>
<path d="M36.099 235.546C38.6817 236.484 39.3224 238.422 42.4863 238.988C44.3042 239.316 46.7826 239.003 48.4515 238.6C48.7992 241.253 50.1651 243.746 53.2246 243.701C57.1633 243.647 56.4829 240.557 57.7742 237.627C55.9465 241.069 56.7908 245.787 51.7396 246.691C48.1187 247.342 45.7495 244.426 45.0343 241.178C37.3009 240.681 35.6172 242.127 33.9136 233.966C34.9069 235.367 35.8755 234.95 36.099 235.546Z" fill="#7ABA30"/>
<path d="M25.8176 358.117C23.359 359.235 17.1952 365.905 23.0163 366.243C25.5941 366.392 32.1751 360.735 35.1205 359.9C33.7695 361.346 32.2844 362.91 32.3142 364.912C34.9814 365.274 36.3075 363.417 38.6966 362.9C40.8919 362.423 43.8522 364.092 46.2213 363.278C53.4679 360.789 44.6766 358.723 41.7114 358.217C48.3322 357.914 54.7494 360.506 61.3255 360.198C61.7328 358.44 60.8983 357.159 59.2593 356.587C66.6102 357.069 63.7742 362.672 58.5143 364.996C52.3753 367.713 43.4697 368.716 36.9284 369.71C32.4632 370.385 22.5097 370.708 18.6207 367.872C16.8525 366.581 15.9833 366.293 16.3956 363.69C16.9369 360.223 18.5958 361.872 25.8176 358.117Z" fill="#266C00"/>
<path d="M48.2279 330.104C50.155 330.913 51.8636 332.329 53.9646 332.413C48.6947 332.195 46.8173 336.784 41.5872 337.613C37.2015 338.309 32.7214 338.051 31.4102 343.33C28.9566 353.209 45.2477 340.042 47.1848 339.754C46.0921 343.648 42.6451 350.249 38.2048 351.287C33.9234 352.29 28.0228 350.04 26.6569 345.694C24.8688 339.993 33.5956 335.125 37.5442 333.019C39.6104 331.916 42.9581 329.751 45.2825 329.562C46.3603 329.473 47.3189 329.721 48.2279 330.104Z" fill="#266C00"/>
<path d="M26.6719 262.977C31.9864 265.843 35.7016 262.297 40.9118 262.977C46.5541 263.717 45.7893 267.636 46.0227 272.329C48.7545 272.95 53.3637 274.609 55.3206 273.114C53.3885 275.454 50.3588 279.983 46.4846 278.339C42.2032 276.526 44.1303 271.093 42.2827 268.793C38.2446 263.772 27.9633 269.667 26.6719 262.977Z" fill="#266C00"/>
<path d="M4.81757 302.832C11.0261 303.209 12.2082 305.28 17.5674 300.701C20.2744 298.386 20.2942 297.775 24.3173 297.691C28.7577 297.597 37.5391 297.358 41.304 298.977C38.0358 301.183 32.4282 300.328 28.4845 301.118C23.4879 302.116 22.122 305.792 17.6867 307.778C15.0741 308.946 9.06423 310.222 6.29771 308.668C4.75799 307.803 4.56923 306.924 3.64043 305.414C3.31759 304.898 2.04608 301.322 4.81757 302.832Z" fill="#266C00"/>
<path d="M183.102 377.85C182.074 377.83 181.334 377.001 181.369 376.052C181.766 366.133 179.372 358.648 177.053 351.412C173.521 340.39 170.188 329.98 179.243 314.597C189.564 297.065 194.829 285.209 180.907 268.456C177.241 264.045 172.553 260.732 168.013 257.534C159.157 251.28 149.998 244.818 150.381 230.539C151.076 204.388 168.788 190.357 185.918 176.788L188.019 175.119C206.705 160.268 205.299 146.748 203.352 128.023C202.706 121.8 201.971 114.737 201.936 106.994C201.931 106.035 202.701 105.255 203.66 105.25C204.624 105.25 205.398 106.02 205.403 106.974C205.438 114.553 206.133 121.219 206.799 127.666C208.781 146.738 210.345 161.803 190.175 177.836L188.069 179.505C170.804 193.178 154.498 206.097 153.848 230.628C153.515 243.06 161.164 248.454 170.015 254.702C174.733 258.035 179.615 261.477 183.574 266.245C198.907 284.697 192.996 298.063 182.228 316.356C173.958 330.402 176.774 339.213 180.351 350.359C182.65 357.536 185.253 365.662 184.826 376.191C184.791 377.12 184.021 377.865 183.102 377.85Z" fill="#266C00"/>
<path d="M213.097 118.835C206.69 116.495 201.847 117.36 195.817 119.833C192.415 121.229 187.677 123.633 191.884 127.929C197.367 133.532 209.193 132.34 215.749 129.623C224.327 126.071 219.976 121.348 213.097 118.835Z" fill="#266C00"/>
<path d="M211.527 136.208C206.347 135.285 178.011 145.337 181.046 151.561C181.989 153.493 185.034 152.818 186.847 152.837C190.577 152.877 193.9 153.175 197.461 153.692C204.663 154.735 212.923 152.862 218.044 147.483C224.212 140.996 218.54 137.46 211.527 136.208Z" fill="#498F00"/>
<path d="M208.507 178.685C211.413 177.538 204.072 168.513 202.91 167.729C199.036 165.111 193.94 164.54 189.385 164.679C185.332 164.803 180.067 165.275 176.625 167.609C175.269 168.528 171.937 171.816 172.175 173.515C172.548 176.187 175.483 175.785 177.529 176.381C188.362 179.55 197.029 183.21 208.507 178.685Z" fill="#94DA4B"/>
<path d="M188.019 197.534C185.665 192.329 178.861 188.465 173.775 186.558C169.717 185.038 160.682 185.336 157.717 189.259C155.497 192.195 156.709 192.766 159.525 193.64C164.05 195.046 169.026 193.705 173.685 194.643C178.523 195.627 183.028 197.345 188.019 197.534Z" fill="#498F00"/>
<path d="M191.878 213.314C183.206 199.183 142.88 195.806 128.417 201.557C128.159 201.657 134.665 208.218 135.385 208.739C138.346 210.885 141.182 211.446 144.44 212.703C148.751 214.367 152.536 217.168 156.867 218.767C160.95 220.272 164.948 219.949 169.17 220.262C177.241 220.858 186.961 221.117 191.878 213.314Z" fill="#498F00"/>
<path d="M176.486 233.832C165.053 227.648 152.074 238.381 140.551 240.989C139.429 241.242 142.538 246.189 143.119 246.621C144.862 247.923 147.246 247.942 149.303 247.615C155.069 246.691 158.591 242.454 163.344 239.658C165.341 238.481 174.559 232.794 176.486 233.832Z" fill="#94DA4B"/>
<path d="M205.244 232.466C189.956 231.488 171.981 238.476 158.864 245.673C152.362 249.239 144.817 254.037 141.634 261.065C140.635 263.275 139.175 267.75 140.914 269.658C145.056 274.187 154.284 266.509 157.706 264.596C162.102 262.133 166.801 260.007 171.142 257.385C177.003 253.838 181.999 249.403 187.771 245.787C191.054 243.731 194.292 241.595 197.376 239.256C198.628 238.307 204.042 232.392 205.244 232.466Z" fill="#266C00"/>
<path d="M208.637 273.596C197.864 270.398 169.136 272.876 167.894 285C176.193 286.296 185.243 285.651 192.976 282.253C195.783 281.022 198.524 279.656 201.226 278.523C202.041 278.181 208.696 273.616 208.637 273.596Z" fill="#266C00"/>
<path d="M202.199 302.399C202.05 302.469 191.645 296.568 190.284 296.171C185.913 294.899 180.216 293.881 175.96 296.116C165.793 301.455 175.84 304.525 182.208 304.545C188.784 304.57 196.041 305.23 202.199 302.399Z" fill="#498F00"/>
<path d="M213.872 319.882C213.246 320.672 197.471 316.182 195.902 315.904C187.662 314.438 179.119 313.251 170.735 313.852C164.313 314.309 156.415 315.973 153.624 322.678C149.844 331.758 166.384 328.549 171.505 328.549C185.288 328.549 203.834 332.582 213.872 319.882Z" fill="#498F00"/>
<path d="M178.81 169.978C178.557 170.937 178.806 172.372 178.865 173.341C184.358 174.086 191.247 171.264 195.777 168.652C193.885 170.187 187.791 173.986 189.981 175.948C192.718 178.397 198.559 173.718 200.645 178.893C195.122 181.024 185.675 178.819 180.181 177.274C178.319 176.753 175.309 176.316 174.623 174.165C173.084 169.337 178.81 171.135 178.81 169.978Z" fill="#7ABA30"/>
<path d="M140.67 200.833C137.988 200.525 135.386 202.834 136.096 205.482C140.914 206.545 147.073 206.53 151.771 205.437C155.188 204.642 158.437 202.392 161.978 203.063C158.784 204.826 151.299 208.367 151.419 212.341C159.619 212.202 165.286 217.174 173.104 216.712C179.039 216.359 184.061 212.058 189.897 212.897C187.468 222.9 158.894 221.614 151.394 217.963C146.839 215.748 143.765 211.934 138.892 210.285C132.828 208.233 131.849 205.814 127.831 200.803C131.561 199.685 136.235 200.659 140.67 200.833Z" fill="#266C00"/>
<path d="M186.097 146.838C185.62 147.98 185.57 149.41 185.714 150.632C190.438 150.995 193.358 149.266 197.669 148.02C201.092 147.031 203.307 147.662 206.635 148.084C205.095 146.401 203.381 143.336 200.734 142.909C200.734 142.909 200.709 141.697 200.734 141.762C202.959 141.732 206.362 142.666 208.393 143.743C210.842 145.045 210.941 146.401 213.012 148.099C213.121 146.078 219.961 138.051 214.179 138.697C218.426 138.767 221.302 142.959 219.544 147.17C217.09 153.051 205.184 151.864 199.91 152.828C194.595 153.796 189.261 154.988 183.946 153.384C177.201 151.343 180.638 148.318 186.097 146.838Z" fill="#266C00"/>
<path d="M181.81 295.977C179.089 297.606 177.41 299.96 180.737 301.117C183.161 301.962 186.747 299.612 188.958 299.051C182.476 304.991 195.206 301.624 196.403 301.664C197.779 301.708 199.616 301.341 197.605 303.571C195.38 306.034 188.814 305.533 185.982 305.404C182.362 305.24 173.799 306 171.614 301.892C168.45 295.937 177.281 296.9 181.81 295.977Z" fill="#266C00"/>
<path d="M192.956 123.265C191.019 127.512 195.842 129.613 198.956 127.556C201.619 125.798 200.968 122.133 203.268 120.727C204.435 123.295 207.167 125.808 210.107 125.838C213.34 125.873 214.527 122.148 217.781 122.898C215.128 127.686 208.617 127.273 204.181 128.788C204.191 128.043 203.888 127.025 204.018 126.305C200.561 131.47 188.735 130.71 192.956 123.265Z" fill="#005500"/>
<path d="M141.524 265.55C144.922 260.866 152.576 249.92 159.032 249.319C159.181 251.34 158.526 253.193 158.734 255.214C162.857 253.694 165.748 247.436 168.862 244.213C170.799 242.206 173.297 240.413 175.652 238.943C167.009 241.754 159.256 245.648 151.423 250.327C144.713 254.34 143.794 258.517 141.524 265.55Z" fill="#005500"/>
<path d="M144.098 269.404C150.644 265.535 156.852 261.328 163.384 257.722C169.687 254.245 177.132 249.78 181.364 243.884C182.397 242.444 182.039 240.144 183.087 238.952C184.885 236.911 185.889 238.337 188.009 238.083C192.718 237.522 198.281 234.974 202.105 233.886C190.701 244.873 177.271 250.629 164.119 258.869C156.559 263.603 151.384 269.777 142.017 270.626C141.997 270.432 141.873 269.111 144.098 269.404Z" fill="#005500"/>
<path d="M172.811 280.545C173.774 285.284 190.046 278.29 193.865 277.203C196.537 276.438 201.564 276.03 203.521 274.063C197.913 280.481 188.292 281.886 180.335 284.012C177.837 284.688 163.692 285.582 172.811 280.545Z" fill="#005500"/>
<path d="M169.384 315.263C166.25 316.321 157.717 319.574 158.824 324.209C165.291 325.093 170.888 320.399 177.032 320.041C176.68 323.642 181.244 321.675 183.559 322.098C185.988 322.54 188.352 324.045 190.82 324.69C194.133 325.555 198.211 326.116 201.529 325.247C203.744 324.665 204.32 322.828 206.968 323.493C200.963 328.053 189.599 325.977 182.595 325.977C175.518 325.977 170.337 328.698 163.672 329.424C159.395 329.89 153.773 329.488 155.233 323.831C156.495 318.934 162.753 320.424 169.384 315.263Z" fill="#266C00"/>
<path d="M158.243 190.55C163.235 195.05 169.429 187.729 175.056 188.494C179.119 189.045 184.468 192.726 187.249 195.607C181.304 196.754 175.468 192.562 169.175 193.55C163.006 194.519 160.697 195.646 158.243 190.55Z" fill="#266C00"/>
<path d="M136.817 386.417C136.176 386.417 135.56 386.059 135.258 385.448C132.67 380.154 129.685 376.95 126.799 373.851C121.778 368.452 117.029 363.356 116.607 349.086C116.319 339.451 119.339 332.01 122.259 324.803C124.067 320.348 125.935 315.734 127.013 310.608C129.839 297.148 123.004 285.739 115.763 273.665C108.144 260.95 100.266 247.803 105.104 232.326C106.996 226.276 109.529 222.377 111.566 219.238C115.46 213.253 117.412 210.243 111.238 198.507L110.448 197.002C102.069 181.093 100.321 177.78 102.144 156.502C104.423 129.86 117.869 116.733 132.109 102.836C139.658 95.4648 147.466 87.8457 154.256 77.7233C160.524 68.3757 166.901 52.308 164.259 37.7751C163.211 32.0036 159.163 25.5318 155.592 19.8249C152.264 14.5055 149.388 9.91115 148.822 6.08172C148.683 5.13306 149.338 4.25387 150.282 4.1148C151.246 3.97573 152.11 4.63138 152.249 5.57508C152.706 8.68928 155.532 13.2091 158.527 17.9872C162.262 23.9574 166.499 30.7271 167.671 37.1492C170.497 52.7004 163.762 69.7615 157.136 79.6504C150.148 90.0709 142.211 97.8191 134.532 105.314C120.168 119.33 107.766 131.435 105.596 156.8C103.862 177.06 105.337 179.861 113.518 195.383L114.312 196.888C121.435 210.422 118.514 214.912 114.481 221.126C112.46 224.235 110.17 227.761 108.422 233.359C104.046 247.351 111.188 259.261 118.748 271.882C126.009 283.996 133.519 296.527 130.415 311.318C129.272 316.742 127.345 321.505 125.483 326.105C122.572 333.292 119.821 340.076 120.084 348.982C120.466 361.945 124.385 366.152 129.347 371.482C132.262 374.616 135.565 378.167 138.382 383.919C138.799 384.778 138.446 385.816 137.587 386.238C137.334 386.357 137.07 386.417 136.817 386.417Z" fill="#266C00"/>
<path d="M163.985 0.956536C163.032 -3.30997 140.656 7.69653 140.274 14.2627C139.866 21.2262 149.323 22.8552 153.769 20.0539C160.479 15.8123 165.913 9.59386 163.985 0.956536Z" fill="#498F00"/>
<path d="M162.53 55.5519C168.963 54.6131 179.204 53.0436 179.368 43.8451C171.992 41.8335 142.534 29.2525 136.743 39.0422C129.367 51.5089 160.022 56.0585 167.676 55.5519H162.53Z" fill="#498F00"/>
<path d="M172.548 84.4389C171.877 75.1509 144.52 73.9439 135.366 74.6591C136.98 91.2434 162.465 84.9206 172.548 84.4389Z" fill="#94DA4B"/>
<path d="M134.175 88.1934C131.279 87.8805 125.125 86.6437 124.737 90.4781C124.345 94.4317 130.559 95.5989 132.774 97.1038C138.6 101.052 131.418 100.73 132.496 104.832C133.415 108.344 143.696 106.829 146.214 105.592C150.943 103.273 154.449 97.0542 150.217 93.1453C146.383 89.599 139.141 88.7298 134.175 88.1934Z" fill="#498F00"/>
<path d="M140.016 132.438C136.599 121.774 102.963 104.361 90.7498 107.276C89.5528 107.564 95.6272 114.85 96.263 115.362C98.8854 117.483 102.139 118.953 105.109 120.508C110.642 123.403 114.407 129.09 120.635 130.739C122.463 131.221 140.16 132.875 140.016 132.438Z" fill="#266C00"/>
<path d="M102.53 154.978C109.539 160.625 122.383 156.339 112.385 146.837C106.638 141.374 90.7491 143.569 86.8899 149.877C91.9412 154.764 98.4279 155.117 105.958 154.978H102.53Z" fill="#498F00"/>
<path d="M115.529 173.425C106.947 173.107 98.1057 173.376 89.8558 175.993C85.2565 177.448 75.7897 181.958 74.2996 187.129C73.5 189.91 75.3973 190.675 77.2251 191.728C86.8012 197.251 105.243 195.056 112.718 187.357C117.898 182.023 123.814 186.225 129.933 183.175C134.309 180.995 133.524 176.604 129.377 174.781C125.691 173.162 119.498 173.574 115.529 173.425Z" fill="#266C00"/>
<path d="M125.065 196.128C117.565 191.688 99.6746 195.274 95.8104 204.443C95.423 205.361 106.862 206.037 108.049 206.047C115.578 206.116 120.113 201.472 125.065 196.128Z" fill="#498F00"/>
<path d="M107.671 233.832C114.64 226.406 130.285 235.476 131.453 221.747C118.4 215.012 81.6104 214.188 73.2214 228.686C78.8737 237.482 104.229 236.28 111.098 230.4L107.671 233.832Z" fill="#94DA4B"/>
<path d="M124.549 242.658C111.337 239.777 91.4249 251.941 82.5144 260.916C83.0111 260.414 91.4845 260.538 93.0143 260.141C96.5209 259.227 99.4314 258.313 102.968 257.747C111.382 256.396 123.863 253.108 124.549 242.658Z" fill="#266C00"/>
<path d="M121.385 286.976C125.661 285.754 133.007 284.076 137.015 280.122C129.779 272.413 106.41 280.023 100.986 288.347C107.289 289.435 114.029 288.988 119.666 286.981L121.385 286.976Z" fill="#266C00"/>
<path d="M140.488 302.404C130.797 299.831 118.261 292.192 110.076 304.113C110.801 303.06 121.028 306.502 122.289 306.75C129.218 308.096 134.339 305.97 140.488 302.404Z" fill="#94DA4B"/>
<path d="M143.879 329.785C136.985 324.496 106.375 322.842 98.0803 327.952C89.4976 333.237 89.7459 339.59 100.325 340.275C105.61 340.618 107.736 339.312 111.784 336.381C121.578 329.298 135.217 338.606 143.879 329.785Z" fill="#94DA4B"/>
<path d="M138.774 353.83C125.726 347.816 96.2876 351.516 94.1767 370.713C93.9781 372.526 114.456 364.579 115.584 364.465C120.327 363.993 123.719 364.176 127.723 360.888C131.478 357.799 134.224 356.051 138.774 353.83Z" fill="#94DA4B"/>
<path d="M98.6712 331.543C96.7342 335.164 97.5984 336.813 101.254 337.126C104.577 337.409 105.709 335.428 108.481 334.091C112.295 332.254 117.222 332.631 121.375 332.904C118.926 334.936 112.931 333.764 109.613 334.956C106.569 336.053 104.875 337.916 101.696 338.398C99.6746 338.706 94.9759 338.984 93.9279 336.684C92.5223 333.605 97.3351 332.433 98.6712 331.543Z" fill="#7ABA30"/>
<path d="M117.958 303.69C122.001 303.481 125.711 304.837 129.55 303.258C131.865 302.304 133.623 300.228 135.873 299.443C137.229 309.73 123.391 304.862 118.027 304.907C117.913 304.485 118.042 304.107 117.958 303.69Z" fill="#7ABA30"/>
<path d="M84.9584 223.978C88.0577 222.691 105.273 215.966 106.783 221.772C101.712 221.891 94.9616 225.09 94.8871 230.792C98.0759 229.764 99.7745 225.279 102.531 223.307C104.875 221.633 107.647 221.012 110.344 220.555C113.607 220.004 117.377 219.89 120.536 219.602C123.268 219.353 128.334 219.492 127.206 223.337C126.665 225.184 120.437 228.219 118.663 228.726C115.013 229.769 111.75 229.535 108.198 231.309C113.115 230.39 126.665 228.805 129.64 223.973C134.224 216.517 118.971 217.824 115.177 217.089C101.508 214.451 86.5578 212.733 77.687 226.069C81.4668 224.847 84.427 223.391 84.9584 223.978Z" fill="#7ABA30"/>
<path d="M139.812 77.4062C141.972 79.6462 140.979 82.3432 144.505 82.9789C146.179 83.277 150.138 81.3647 152.239 81.2555C157.638 80.9773 161.696 83.272 166.354 83.719C160.29 85.8945 151.151 88.0749 144.942 85.5617C142.772 84.6826 132.679 77.9525 139.32 76.2837C139.399 76.5569 139.27 77.2025 139.812 77.4062Z" fill="#7ABA30"/>
<path d="M103.385 358.544C101.021 359.672 99.2179 362.851 99.1632 365.339C102.968 366.253 106.395 361.817 109.633 360.243C112.469 358.867 116.05 357.988 119.185 358.043C118.559 355.962 116.041 354.392 114.223 353.384C117.014 354 121.256 356.98 123.953 356.861C127.32 356.712 130.047 352.867 134.13 353.478C127.062 357.606 120.123 362.493 112.147 364.167C106.345 365.384 100.157 368.756 94.5342 369.63C96.3123 365.205 99.8735 361.837 103.385 358.544Z" fill="#7ABA30"/>
<path d="M104.244 202.978C109.569 202.273 115.335 197.763 120.476 195.736C118.956 200.698 108.486 209.579 104.244 202.978Z" fill="#266C00"/>
<path d="M127.385 93.2646C131.383 96.4632 136.201 94.4566 140.17 96.7662C140.91 100.918 137.125 101.539 137.309 104.341C141.948 105.036 145.479 102.558 148.424 99.4136C146.274 105.806 138.714 106.764 133.022 106.481C132.287 103.154 138.436 101.082 136.37 97.3672C136.246 97.1487 129.213 92.5941 127.385 93.2646Z" fill="#266C00"/>
<path d="M141.098 42.693C144.237 50.1333 157.404 48.971 164.174 48.6283C164.755 45.9065 162.227 43.4678 159.589 43.4876C159.436 43.0208 159.147 41.8685 159.123 41.4761C163.479 42.3502 168.028 45.5787 170.68 48.9909C171.803 46.4777 173.179 44.6499 176.194 44.9032C174.311 55.8352 162.674 52.5422 154.677 52.1002C148.265 51.7475 136.787 51.668 138.093 42.1814C138.098 41.8188 138.108 43.2394 141.098 42.693Z" fill="#266C00"/>
<path d="M144.098 12.6927C145.36 12.3848 145.275 14.0636 147.163 14.3169C150.371 14.749 151.593 13.4924 153.759 11.4312C156.326 8.98253 157.871 5.56039 160.757 3.40479C159.6 9.47426 157.533 16.7208 150.575 18.1811C146.706 18.9956 139.727 16.5569 144.098 12.6927Z" fill="#266C00"/>
<path d="M81.0988 184.119C81.1882 185.262 79.8173 187.993 82.8918 189.603C86.1103 191.291 95.4926 189.583 98.8552 188.619C102.784 187.492 104.234 186.965 102.332 183.642C101.269 181.79 97.5837 177.876 95.3983 177.24C101.925 176.743 107.999 181.109 114.531 180.692C119.915 180.344 124.365 178.333 129.893 178.616C130.708 184.104 118.052 181.591 115.186 181.974C109.519 182.728 107.353 188.187 101.463 189.806C96.7046 191.117 89.9447 192.394 84.9381 191.833C81.4117 191.44 73.127 186.394 81.0988 184.119Z" fill="#005500"/>
<path d="M97.3853 110.406C102.357 113.148 101.384 119.277 108.516 119.207C113.716 119.158 113.761 118.611 116.244 122.833C118.723 127.055 118.743 126.27 124.385 126.692C127.474 126.921 134.607 127.388 136.747 129.777C136.886 130.358 136.33 130.606 136.107 131.014C136.415 131.118 136.921 130.735 137.209 131.053C134.552 134.232 122.393 132.161 118.797 130.884C115.296 129.638 112.261 126.658 109.395 124.75C106.321 122.704 102.014 123.012 99.0789 120.27C95.8356 117.241 96.5757 113.039 96.5061 108.822C97.0028 110.178 97.8819 110.61 98.6915 111.34C99.1037 111.191 99.2379 110.883 97.3853 110.406Z" fill="#005500"/>
<path d="M109.385 283.545C109.32 283.923 109.34 284.3 109.449 284.668C113.11 285.706 117.888 279.76 121.787 279.224C124.802 278.812 131.502 278.504 133.866 278.797C128.82 281.941 108.615 293.186 102.898 287.841C103.986 286.317 105.839 285.447 109.385 283.545Z" fill="#005500"/>
<path d="M88.3852 259.545C90.7246 252.924 98.8355 251.687 104.617 250.599C104.229 251.573 104.562 252.919 104.309 253.917C107.671 253.227 111.411 248.647 114.739 246.914C116.945 245.772 119.756 244.321 122.209 244.043C117.163 239.081 102.883 247.421 97.4 249.695C93.3819 251.364 86.473 254.622 86.3091 259.907C87.8736 260.116 89.016 259.341 88.3852 259.545Z" fill="#005500"/>
<path d="M88.8125 151.118C92.8356 151.118 95.8555 150.925 99.536 149.832C101.413 149.276 103.569 147.721 105.754 148.531C109.271 149.832 109.326 154.66 114.466 153.001C112.564 158.44 104.513 155.713 100.634 154.938C96.1386 154.044 89.3092 155.231 88.8125 151.118Z" fill="#266C00"/>
</svg>
