<svg width="213" height="358" viewBox="0 0 213 358" fill="none" xmlns="http://www.w3.org/2000/svg">
<path d="M38.3795 309.821C20.4294 307.342 19.0536 310.188 14.3202 289.447C11.365 276.488 10.5554 260.023 14.0421 247.124C-20.4426 264.578 16.2721 321.726 42.0251 328.322C51.9786 330.87 71.9752 329.45 89.4436 331.496C81.6755 312.249 57.2485 312.423 38.3795 309.821Z" fill="#77A300"/>
<path d="M206.745 238.363C209.05 264.434 191.487 289.83 169.514 302.455C154.449 311.112 127.013 315.826 129.019 338.773C112.937 298.109 174.093 278.212 186.57 244.77C195.426 221.039 175.862 209.72 168.491 190.841C159.888 168.813 163.847 124.772 180.689 108.247C157.539 130.628 138.973 147.142 144.128 183.743C147.059 204.549 158.348 228.688 154.559 249.608C148.604 282.499 106.818 298.586 104.895 329.594C102.68 306.871 112.892 302.505 123.218 284.202C134.294 264.563 137.9 240.683 130.847 219.663C124.962 202.11 110.319 190.344 108.511 171.51C104.965 134.611 153.739 115.25 140.607 79.0868C135.387 64.7079 125.21 57.655 123.347 41.8902C121.594 27.099 126.079 10.6588 136.579 0C128.706 8.65719 108.278 21.0395 106.043 32.4483C103.619 44.8157 116.96 53.751 119.672 65.8503C127.211 99.4857 97.3211 124.449 89.9354 154.334C81.8742 186.932 106.639 201.35 112.013 230.486C116.438 254.491 98.2051 277.462 97.4601 301.72C97.6141 282.131 103.609 241.641 90.1241 225.956C82.803 217.443 73.5448 220.155 63.4422 217.234C48.9838 213.052 35.3101 203.168 29.2704 187.602C16.754 155.333 38.161 142.916 57.2883 125.114C74.0613 109.504 69.0697 93.1579 67.0234 77.0405C63.4919 91.1066 56.6824 104.597 49.3862 116.8C43.8034 126.143 38.7968 134.556 30.1892 141.475C25.585 145.176 16.158 146.477 13.3666 151.916C5.24584 167.76 16.1579 224.327 27.4873 239.903C39.8199 256.865 60.0003 265.661 72.0349 281.689C76.6938 287.893 78.9686 295.378 81.1043 302.853C82.1324 306.459 82.3311 309.995 83.2598 313.581C84.3327 317.718 87.0744 321.091 87.7995 325.094C88.7134 330.18 86.4983 330.359 91.4254 331.76C96.1488 333.101 101.056 333.284 105.74 335.023C112.713 337.611 116.364 341.534 120.293 347.514C122.046 350.192 124.594 357.374 128.041 357.86C131.806 339.304 152.344 329.892 168.853 325.526C220.364 311.882 215.194 280.487 206.745 238.363Z" fill="#77A300"/>
<path d="M42.1051 140.814C53.499 128.939 57.9243 117.242 62.5783 103.031C53.9509 124.28 33.9098 138.465 19.8586 151.776C20.6285 151.076 21.3138 150.693 22.3519 150.817C-1.47403 158.466 13.8387 219.31 23.3999 231.25C24.3187 217.303 24.3585 202.239 23.5787 188.243C23.1516 180.608 20.7327 171.013 23.7476 163.567C27.0505 155.397 36.0008 147.177 42.1051 140.814Z" fill="#9AC600"/>
<path d="M85.6187 292.427C83.9598 287.639 81.1138 282.985 79.4747 277.959C76.4599 268.725 73.2811 262.944 67.8971 255.106C62.6024 247.398 56.3094 240.593 51.124 233.391C58.9518 243.653 70.6537 249.663 77.7413 260.803C82.9366 268.959 85.1121 278.232 89.4233 286.71C93.5805 273.454 87.8836 253.681 80.6966 241.855C75.8589 233.898 65.4782 225.291 64.5245 215.65C88.41 220.026 94.718 250.974 94.718 270.767C94.718 292.561 93.2627 314.803 91.7627 336.553C91.9614 333.687 87.7098 327.314 87.1883 323.922C86.2893 318.051 87.4366 311.967 86.8604 306.021C86.4333 301.586 87.1038 296.853 85.6187 292.427Z" fill="#9AC600"/>
<path d="M115.052 217.398C115.484 219.116 116.398 220.413 117.799 221.297C111.928 186.936 89.4582 161.744 115.743 130.498C124.519 120.068 129.491 112.036 130.971 97.9603C132.764 80.8645 124.832 66.8382 119.667 50.9592C118.052 45.9924 115.862 39.2226 117.759 34.3799C119.373 30.2624 124.693 28.3403 125.805 23.2493C118.822 24.8685 115.579 30.4462 113.026 36.9229C109.46 45.9824 110.542 47.8102 114.516 55.5833C120.213 66.719 125.205 87.3661 121.594 100.772C117.68 115.3 107.647 130.344 99.0492 142.106C89.3887 155.312 95.175 178.234 100.812 191.992C105.675 203.863 111.238 215.615 115.052 217.398Z" fill="#9AC600"/>
<path d="M127.991 343.088C143.249 325.734 159.138 320.514 180.208 314.797C195.858 310.551 203.711 292.665 205.484 277.755C192.967 295.283 180.461 305.599 160.072 311.912C142.613 317.32 130.499 323.787 127.991 343.088Z" fill="#9AC600"/>
<path d="M8.76743 257.138C8.76743 267.941 8.90644 279.027 10.4511 289.368C-3.15799 286.318 -0.540489 264.896 5.99586 257.138H8.76743Z" fill="#9AC600"/>
<path d="M47.1709 248.427C39.661 240.395 31.5253 232.766 25.3466 223.602C22.3069 219.092 19.754 214.24 18.1397 209.03C16.4311 203.521 17.1961 198.371 16.1978 192.887C15.3335 188.149 13.4958 184.782 13.3518 179.805C13.2127 174.982 13.168 170.164 13.3965 165.341C11.0968 186.435 9.51733 208.275 18.398 228.301C27.7655 249.425 43.5897 259.786 60.5217 273.822C69.1292 280.954 78.6258 295.671 83.4089 309.762C82.8128 304.999 82.1473 300.231 80.9701 295.567C75.3527 273.34 62.1757 264.479 47.1709 248.427Z" fill="#597700"/>
<path d="M165.938 215.143C157.748 201.211 155.691 188.288 154.594 172.046C154.36 168.609 152.448 162.698 152.15 157.389C147.322 169.876 146.001 180.693 146.483 196.135C146.915 209.973 153.337 215.397 157.623 227.56C164.483 247.02 155.085 266.197 145.678 281.744C157.658 275.018 169.037 262.447 174.943 249.956C182.016 234.986 173.294 227.665 165.938 215.143Z" fill="#9AC600"/>
<path d="M119.746 218.138C121.236 228.568 119.463 242.247 116.468 252.046C113.145 262.899 105.804 271.839 102.794 283.015C98.9749 297.18 94.7282 317.216 98.4235 327.378C98.95 328.193 99.4119 328.849 99.8391 329.435C97.7331 321.811 101.15 308.057 103.51 302.47C110.349 286.263 123.918 274.432 128.96 256.735C133.609 240.404 125.383 225.623 117.988 210.752C118.723 213.161 119.379 215.6 119.746 218.138Z" fill="#597700"/>
<path d="M120.392 317.008C124.594 296.709 143.274 280.656 151.857 262.041C139.897 288.216 104.155 301.264 111.357 334.775C113.28 335.728 112.435 335.704 111.591 335.629C116.99 339.831 120.278 344.838 123.526 349.998C123.323 338.748 118.018 328.477 120.392 317.008Z" fill="#597700"/>
<path d="M148.594 331.079C140.835 333.602 135.069 338.48 128.994 343.755C130.897 332.152 142.455 321.091 154.176 313.278C148.584 315.578 142.892 318.026 138.491 321.935C128.731 330.607 127.028 339.553 123.824 350.48C125.354 352.913 126.889 355.377 128.642 357.806C138.317 343.69 151.261 333.771 166.653 325.939C160.921 328.352 154.524 329.147 148.594 331.079Z" fill="#597700"/>
<path d="M56.8062 316.496C49.7583 316.208 39.8296 319.273 32.5979 317.48C37.6641 322.695 42.6557 327.105 45.7401 328.168C59.1357 332.797 75.104 327.463 89.1055 332.787C82.9168 321.895 68.7812 316.983 56.8062 316.496Z" fill="#597700"/>
</svg>
