<svg width="339" height="102" viewBox="0 0 339 102" fill="none" xmlns="http://www.w3.org/2000/svg">
<path d="M280.254 47.8595C286.421 42.3737 294.704 39.673 302.734 42.4378C307.296 44.0093 310.365 46.8169 313.491 50.322L314.525 48.513L314.725 48.1409C315.831 46.1821 318.5 42.8336 320.699 43.1427C322.949 44.5133 318.674 50.6636 317.99 52.5546L318.017 52.603C319.371 54.9424 323.378 57.8249 323.308 61.0975C323.305 61.2741 323.053 61.6174 322.88 61.6448C319.534 62.1724 315.447 58.335 313.937 56.0478L313.798 55.8313C312.718 57.8093 311.412 58.5701 309.765 59.9503C300.811 67.4555 289.475 65.7847 280.635 59.0938C280.187 58.7543 279.729 58.44 279.271 58.1227C279.234 58.0725 279.194 58.0231 279.147 57.9774C279.094 57.9238 279.036 57.8746 278.973 57.8311L277.636 56.8941C277.556 56.8256 277.473 56.7582 277.394 56.6869C277.39 56.6967 277.385 56.7059 277.381 56.7157L276.691 56.2334C275.178 55.1737 274.988 53.0045 276.294 51.698C276.535 51.4577 276.727 51.1813 276.87 50.8837C276.891 50.914 276.912 50.9441 276.933 50.9745C278.092 49.956 279.137 48.8522 280.254 47.8595ZM312.333 52.5247C307.052 45.3394 297.413 40.913 288.873 45.1538C285.115 47.0202 288.793 47.7376 288.858 49.417L288.512 49.6344C287.079 49.7854 285.284 48.7582 284.142 47.9739C282.494 48.9233 281.119 50.2047 279.711 51.4713C279.189 51.942 278.726 52.6675 278.181 52.9803C277.828 53.517 277.805 53.3722 277.854 53.8977C278.295 54.4478 278.888 54.77 279.15 55.2099C281.618 56.9293 282.585 58.0007 285.561 59.4328C286.67 58.8443 288.614 57.823 289.795 58.5567L289.835 58.9442C289.578 59.5996 288.858 60.0992 288.301 60.5708C289.788 61.5493 290.829 61.8922 292.578 62.2653C300.496 63.9538 308.293 59.7581 312.958 53.4452C312.765 53.1294 312.553 52.8248 312.333 52.5247Z" fill="#613D13"/>
<path d="M227.168 40.2803C227.765 40.2155 228.324 40.1608 228.926 40.1745C232.266 40.2501 232.79 43.9115 230.599 45.9292C229.896 46.5764 229.418 46.8457 228.528 47.207C231.139 52.3575 230.201 67.7598 230.116 74.1194C230.019 81.3626 229.373 91.9054 223.665 97.0322C219.797 100.655 215.77 101.243 210.793 101.246C199.569 101.251 192.763 90.1468 201.963 81.7812C207.258 77.136 216.541 77.9972 222.86 79.8116C223.276 76.6545 223.301 72.8791 223.444 69.6609C221.403 71.7394 218.562 73.0486 215.679 73.4148C207.318 74.2503 201.523 68.6958 200.449 60.7026C198.945 49.4893 205.077 39.8656 217.132 40.3697C219.768 40.4799 221.728 40.9738 223.879 42.6813C225.079 41.4177 225.567 40.8955 227.168 40.2803ZM216.228 64.7423C219.959 63.193 221.219 60.154 221.409 56.3067C221.625 51.8512 220.12 47.8559 215.029 48.0391C209.323 49.9195 208.181 59.2543 211.827 63.4536C212.754 64.5222 214.861 65.1268 216.228 64.7423ZM213.379 95.7184C216.043 95.2634 218.208 93.9483 219.772 91.7224C221.28 89.5785 222.318 86.3421 222.656 83.7305C219.589 83.1637 216.685 82.6159 213.548 82.9085C210.4 83.3324 207.264 83.8617 205.227 86.5405C203.301 89.0712 203.702 92.3495 206.308 94.203C208.525 95.7787 210.764 95.8851 213.379 95.7184Z" fill="#613D13"/>
<path d="M66.0054 14.0725C69.4813 13.9826 77.3984 13.2938 80.0475 15.3978C80.5645 15.8262 80.7687 16.8488 80.7546 17.5006C80.6786 21.0086 76.635 20.2576 74.3371 20.5963C70.6011 21.0805 61.755 20.6268 59.0731 23.3936C57.2599 25.264 57.9713 38.6708 58.0541 41.5608C61.5372 40.9993 65.3831 40.5837 68.7337 40.2567C73.8334 39.7591 79.1793 39.2056 76.5057 46.2348C75.7873 48.1237 60.6607 48.8421 58.4721 49.0166C58.3805 52.5346 58.6831 57.6314 58.7816 61.2687C58.857 63.0342 58.9452 64.7953 59.0343 66.5561C59.2006 69.8504 60.7548 76.6626 55.7097 77.1003C49.7533 77.6171 50.202 71.7133 50.0799 67.6704C49.9815 64.3009 49.9065 60.9307 49.8545 57.5602C49.8232 55.5129 49.8599 52.943 49.652 50.941C45.8562 51.994 43.2552 52.6064 40.3912 49.5066C40.3432 49.2549 40.3016 49.0019 40.2666 48.7481C39.4221 42.5684 44.7572 42.9816 49.3602 42.3776C49.2796 41.1872 49.2053 39.9964 49.1374 38.8053C48.9712 35.848 48.9756 32.5238 48.9879 29.6024C49.062 26.2009 48.5038 20.5087 50.9791 17.8332C53.8583 14.7209 62.0128 14.2819 66.0054 14.0725Z" fill="#613D13"/>
<path d="M101.715 40.271C107.181 39.7953 106.736 42.0491 106.433 46.5254C108.902 42.8758 111.654 40.7809 116.226 40.2639C118.688 39.9855 122.237 40.2098 124.178 42.0097C129.427 46.8758 128 55.7338 128.225 62.1756C128.26 63.5033 128.153 64.868 128.284 66.1681C128.436 67.6201 130.414 68.338 130.468 69.81C130.602 73.4924 124.713 75.3082 122.298 72.9825C121.824 72.5263 121.231 71.4464 121.148 70.7599C120.702 67.0895 120.858 63.2293 120.819 59.5101C120.787 55.8564 120.94 51.701 119.093 48.4202C117.703 45.9533 113.888 46.0412 111.792 47.4851C105.999 51.4776 107.409 60.0463 107.266 66.1313C107.231 67.6573 107.425 69.1945 107.119 70.7017C106.61 73.299 104.578 74.5026 102.04 73.9583C101.059 73.7479 100.308 72.9044 99.9073 71.9962C99.4975 71.0662 99.6268 69.7461 99.5353 68.7346C99.4988 62.1509 99.769 55.5628 99.5365 48.9798C99.4755 47.1407 99.2316 43.6809 99.5013 41.8138C99.5973 41.1485 101.028 40.521 101.715 40.271Z" fill="#613D13"/>
<path d="M172.653 47.131C173.26 46.1881 173.799 45.3484 174.559 44.5116C176.845 42.0191 180.031 40.5399 183.41 40.4017C197.099 39.7603 193.72 57.9978 194.334 66.7698C194.403 67.7436 195.091 68.296 195.629 69.0104C197.618 71.9955 194.323 74.1795 191.541 74.2306C185.383 74.3438 186.914 64.584 186.924 59.7192C186.936 58.1899 186.94 56.6555 186.827 55.1294C186.651 52.7565 186.324 49.1795 184.419 47.5658C183.507 46.7938 182.383 46.496 181.209 46.5961C179.827 46.7139 178.451 47.388 177.417 48.2937C170.692 54.1758 175.901 69.4808 172.78 73.065C172.12 73.8237 171.223 74.1083 170.248 74.1624C169.329 74.2133 168.265 74.077 167.569 73.4277C166.852 72.7609 166.587 71.7114 166.481 70.7693C166.292 69.0936 166.405 67.3263 166.427 65.6417L166.497 57.8496C166.52 53.69 166.5 49.4243 166.146 45.2769C166.066 44.3366 165.997 43.412 165.944 42.4699C166.871 40.8572 167.166 40.7251 168.997 40.4472C169.908 40.3678 170.487 40.5115 171.383 40.6767C173.858 43.0373 173.389 44.0922 172.653 47.131Z" fill="#613D13"/>
<path d="M247.301 40.461C247.955 40.4212 248.613 40.3966 249.267 40.3867C252.759 40.3544 256.054 40.8689 258.754 43.3028C259.965 44.3942 260.709 47.0178 259.278 48.2183C256.638 50.3405 254.894 47.5194 252.878 46.385C246.771 42.9493 240.221 49.8905 248.939 53.5106C254.336 55.7518 263.153 58.2525 263.252 65.3267C263.317 70.0108 259.591 73.32 255.38 74.6333C252.801 75.4621 251.153 75.4545 248.495 75.4223C244.004 75.3416 237.472 73.5856 236.564 68.3626C236.255 66.5967 237.741 64.6905 239.516 64.5127C241.537 64.3105 243.122 66.8334 244.53 67.9102C246.464 69.4618 248.233 69.6545 250.648 69.5183C253.212 69.3738 255.779 67.7519 255.494 64.8588C255.214 62.0069 251.014 60.5365 248.594 59.6916C243.827 58.0283 237.9 56.1544 237.161 50.2701C236.913 48.3443 237.739 45.9542 238.966 44.4572C241.012 41.9589 244.186 40.7864 247.301 40.461Z" fill="#613D13"/>
<path d="M140.779 15.0195C141.658 15.0478 142.127 15.1733 142.982 15.3714C143.66 15.9105 144.593 16.8532 144.633 17.7454C144.948 24.6391 144.198 31.9829 143.89 38.8401C143.663 44.7996 143.485 50.7609 143.353 56.7234C143.289 59.4418 142.965 65.3923 143.467 67.6975C146.306 70.2859 145.716 72.6211 142.149 73.821C136.271 74.5741 136.162 70.9705 136.063 66.3885C135.958 61.4907 136.037 56.6398 136.202 51.7458L136.723 33.887C136.83 30.821 136.908 27.7541 136.959 24.6866C136.997 22.3524 136.702 18.0731 137.969 16.0262C138.497 15.1704 139.84 15.1127 140.779 15.0195Z" fill="#613D13"/>
<path d="M150.286 41.349C151.729 39.7491 153.18 38.9902 155.339 38.8636C159.023 38.6477 161.677 40.7067 161.693 44.5082C161.708 48.0893 161.648 51.6523 161.565 55.2305C161.353 59.9667 161.342 64.8023 161.368 69.54C161.391 73.5292 159.379 76.1598 155.199 76.0311C148.845 75.8355 149.535 70.2968 149.536 65.6399C149.549 62.1199 149.597 58.6 149.682 55.0808C149.732 51.4553 149.552 44.5711 150.286 41.349Z" fill="#613D13"/>
<path d="M84.2991 42.1843C84.9231 41.1356 85.4085 40.51 86.6765 40.1901C88.3729 39.7622 91.5003 40.0548 91.8914 42.1681C92.226 43.9762 92.1334 46.3773 92.134 48.2674L92.1446 57.574C92.1805 61.7557 92.3961 65.9381 92.417 70.1209C92.4199 70.714 92.3254 72.1522 91.9946 72.6915C90.9895 74.2641 88.1316 74.6688 86.573 73.7914C85.8056 73.3596 85.3944 72.074 85.2633 71.2352C84.7727 68.0946 85.4637 64.113 84.9837 61.054C84.9268 61.519 84.9015 62.1038 84.867 62.5811C84.6978 61.854 84.9189 58.9262 84.6809 58.6273C84.3016 59.6457 84.8111 60.0536 84.5499 60.9821L84.405 60.9045C84.3595 59.2584 84.3048 56.2767 84.5371 54.6907L84.6673 54.6955L84.6299 54.6074C84.8172 54.9962 84.8556 55.3371 84.9311 55.7603C84.9508 51.3847 84.2834 46.614 84.2991 42.1843Z" fill="#613D13"/>
<path d="M84.9841 61.054C84.9272 61.5191 84.902 62.1038 84.8675 62.5812C84.6982 61.8541 84.9193 58.9263 84.6814 58.6274C84.3021 59.6458 84.8117 60.0537 84.5503 60.9821L84.4055 60.9045C84.36 59.2585 84.3052 56.2767 84.5377 54.6907L84.6677 54.6956L84.6303 54.6074C84.8177 54.9962 84.856 55.3371 84.9316 55.7602C84.957 57.2989 85.0632 59.5718 84.9841 61.054Z" fill="#F7EDD8"/>
<path d="M87.1646 24.6804C91.7666 24.3693 95.1851 26.3487 94.2802 31.4515C93.8987 31.2223 93.5605 31.7042 93.2953 32.0097C90.9788 34.6791 87.7129 34.3328 84.4921 33.0177C81.7581 29.19 83.1842 27.5624 86.1699 24.9193C86.5169 24.8651 86.8267 24.773 87.1646 24.6804Z" fill="#613D13"/>
<path d="M154.716 23.6242C159.318 23.3131 162.737 25.2925 161.832 30.3953C161.45 30.1662 161.113 30.6481 160.848 30.9536C158.531 33.6229 155.265 33.2767 152.044 31.9616C149.31 28.1338 150.736 26.5062 153.722 23.8632C154.069 23.8089 154.378 23.7169 154.716 23.6242Z" fill="#613D13"/>
<path d="M83.503 26.5609C84.476 25.6087 84.8713 25.3102 86.1702 24.9194C83.1845 27.5625 81.7584 29.1902 84.4923 33.0178C87.7132 34.333 90.9791 34.6792 93.2956 32.0099C93.5607 31.7045 93.899 31.2224 94.2804 31.4516C92.8204 36.5267 82.9547 36.3864 82.3131 30.4529C82.1286 28.7473 82.5304 27.8805 83.503 26.5609Z" fill="#613D13"/>
<path d="M151.054 25.5058C152.028 24.5535 152.423 24.255 153.722 23.8643C150.736 26.5073 149.31 28.135 152.043 31.9626C155.265 33.2778 158.531 33.624 160.847 30.9548C161.112 30.6493 161.45 30.1672 161.832 30.3964C160.372 35.4715 150.507 35.3313 149.865 29.3977C149.68 27.6921 150.082 26.8253 151.054 25.5058Z" fill="#613D13"/>
<path d="M319.809 44.5361C318.696 47.5111 318.132 48.8569 316.578 51.596C317.197 53.5618 318.512 55.0108 319.528 56.7868C320.206 57.9692 320.837 59.1269 321.547 60.2923C318.019 58.5076 317.333 58.0392 314.463 55.2902C314.579 54.8256 315.274 53.3408 315.49 52.8609C314.825 51.651 314.254 51.2808 315.126 50.1309C316.99 48.0469 316.943 46.7394 319.809 44.5361Z" fill="#613D13"/>
<path d="M28.9292 34.5635C29.0839 35.658 29.2988 37.2729 29.6644 38.2863C30.458 40.0582 32.1926 40.6592 33.8397 41.6319C28.3422 43.4237 30.2967 46.6934 28.9235 47.4912C28.5586 47.1815 28.5699 47.0961 28.4143 46.6225C27.5076 43.8631 26.6448 42.8341 23.8418 41.9297C25.8774 40.5191 26.9995 40.1816 27.9632 37.8847C28.2433 36.8265 28.5412 35.5697 28.9292 34.5635Z" fill="#613D13"/>
<path d="M28.4403 39.4472C28.4794 39.185 28.5561 38.9778 28.637 38.7271L28.8477 38.8425C29.4116 40.1731 30.0798 40.7943 31.3374 41.559C29.8716 42.5917 29.3852 43.1057 28.6508 44.7842C28.4719 44.3651 28.0303 43.3347 27.7307 43.0425C25.9574 41.3135 27.4022 41.4195 28.4403 39.4472Z" fill="#613D13"/>
<path d="M38.1044 25.1841C38.5728 25.519 38.5916 26.3333 38.8648 26.9687C39.2903 27.9583 39.7571 28.7814 40.2999 29.7076C41.0118 30.1485 42.6754 30.811 43.1277 31.3736C42.7863 31.6852 42.0595 31.9099 41.5959 32.162C39.806 33.135 39.045 35.3216 38.4948 37.1738C38.2337 37.3343 38.3602 37.311 38.0258 37.2341C37.7656 36.1364 37.8791 35.265 37.1806 34.1459C36.1101 32.4302 35.0028 32.0647 33.1797 31.5936C33.895 31.1341 34.6076 30.6704 35.3176 30.2026C37.4308 28.7922 37.6411 27.5052 38.1044 25.1841Z" fill="#613D13"/>
<path d="M38.1564 28.751C38.9984 29.5979 39.2102 30.1492 40.6031 31.4285C39.5818 32.1528 39.1154 32.9034 38.3739 33.8894C38.3046 33.822 38.3014 33.8327 38.266 33.7568C37.7258 32.6021 37.0191 32.0651 36.001 31.3344C37.2551 30.5166 37.7863 30.1668 38.1564 28.751Z" fill="#613D13"/>
</svg>
