<svg width="68" height="305" viewBox="0 0 68 305" fill="none" xmlns="http://www.w3.org/2000/svg">
<path d="M42.6032 277.893C42.7622 278.318 32.5502 275.364 21.4302 275.997C14.1222 276.413 0.00122362 279.972 0.00122362 279.972C-0.148776 279.698 13.5302 272.68 20.1092 272.212C27.3182 271.7 41.2542 274.283 42.6032 277.893Z" fill="#FFAB03"/>
<path d="M39.3171 276.449C39.2241 277.188 31.0951 274.898 21.6431 275.327C12.1921 275.756 4.36808 278.567 3.76208 278.024C3.15608 277.481 10.3661 273.117 20.6861 272.486C31.0061 271.855 39.4101 275.711 39.3171 276.449Z" fill="#EF9506"/>
<path d="M16.7861 274.426C17.1561 275.177 31.0951 274.898 21.6431 275.327C12.1921 275.756 4.36808 278.567 3.76208 278.024C3.15608 277.481 10.3661 273.117 20.6861 272.486C31.0061 271.855 16.4161 273.675 16.7861 274.426Z" fill="#D17905"/>
<path d="M19.4734 290.625C19.0944 290.318 10.2134 282.836 13.3954 258.366C14.8374 247.28 16.9434 242.11 18.8004 237.549C20.9214 232.342 22.7514 227.846 22.7514 215.321C22.7514 190.244 15.4114 186.096 15.2384 185.984L9.25439 176.149C10.0194 176.65 28.0204 188.722 28.0204 215.321C28.0204 228.338 26.1004 233.054 23.8764 238.515C22.0794 242.927 20.0434 247.929 18.6434 258.686C15.6994 281.322 23.4414 288.254 23.5194 288.321L19.4734 290.625Z" fill="#679116"/>
<path d="M21.5982 290.989L17.8522 287.678L19.7252 289.333L17.8492 287.681C18.0642 287.436 39.2181 262.771 26.8461 227.342C24.4881 220.589 21.8571 214.445 19.3121 208.501C11.1181 189.363 3.37717 171.286 5.37617 136.301C6.31917 119.805 12.6912 105.022 18.8542 90.725C28.8282 67.587 38.2472 45.732 28.0252 15.77L32.7622 23.259C43.6072 55.046 33.3552 69.715 23.4462 92.704C17.1792 107.241 11.2612 120.973 10.3692 136.586C8.43618 170.399 15.9522 187.95 23.9092 206.533C26.4872 212.554 29.1522 218.778 31.5672 225.693C44.9332 263.97 22.5572 289.904 21.5982 290.989Z" fill="#75AA21"/>
<path d="M49.7241 123.666C49.6131 120.888 48.7241 115.222 48.1691 113.777C47.6131 112.332 46.0581 108.221 46.0581 108.221L46.5831 113.769C49.9361 123.942 49.0521 133.861 48.1591 145.037C48.2591 144.684 48.3361 144.325 48.4301 143.97C49.1181 138.284 49.8181 126.015 49.7241 123.666Z" fill="#08705C"/>
<path d="M41.5632 90.5821C39.4532 86.8581 36.9812 83.2671 35.7632 79.1631C33.6722 72.1161 35.5981 64.5671 35.3561 57.2201C35.1311 50.3691 31.6472 39.6311 27.1312 34.9621C25.0782 32.8391 23.8762 33.1071 20.9092 35.9991C24.3622 39.8641 27.4331 45.0441 29.2051 50.0731C31.8431 57.5571 30.1061 64.9941 30.5881 72.9151C31.1191 81.6441 35.3572 89.6731 39.7532 97.2321C40.9362 99.2671 42.1501 101.317 42.8171 103.574C43.3801 105.477 43.5382 107.472 43.6932 109.45C44.0542 114.044 44.4142 118.665 43.9792 123.252C43.1922 131.543 39.8492 139.355 37.9802 147.471C36.1112 155.587 35.9331 164.783 40.8351 171.517C39.5771 162.699 38.3452 153.528 41.0242 145.034C42.4492 140.516 44.9521 136.316 45.6611 131.632C46.6521 125.086 45.7421 120.2 46.5381 113.627C46.5541 113.674 46.5662 113.721 46.5812 113.768L46.0562 108.22C46.0562 108.22 47.6122 112.331 48.1672 113.776C48.7222 115.22 49.6112 120.887 49.7222 123.665C49.8162 126.013 49.1162 138.283 48.4272 143.97C53.1312 126.184 50.6372 106.592 41.5632 90.5821Z" fill="#67831C"/>
<path d="M26.0952 42.667L29.5022 38.2219C29.5022 38.2219 28.4652 36.74 27.1322 34.963C25.9232 33.351 23.7252 33.037 22.9842 34.518C22.2432 36 22.3912 39.111 22.3912 39.111L26.0952 42.667Z" fill="#08705C"/>
<path d="M25.4843 284.747C23.7213 286.519 22.8393 287.406 21.0753 289.178C24.4123 268.308 30.7083 247.889 33.2383 226.907C35.7753 205.865 30.7774 187.793 24.1624 168.024C10.3024 126.599 15.4874 88.8332 20.7434 46.1912C23.2794 45.1842 23.1843 38.1512 25.2133 40.1902C19.9903 81.1872 15.2583 128.338 28.9103 168.135C35.4613 187.234 40.1944 204.391 37.7174 224.755C35.2564 244.985 28.7963 264.635 25.4843 284.747Z" fill="#8BC13E"/>
<path d="M16.7983 80.862C17.0943 80.417 20.4653 70.222 21.2053 68.592C21.9463 66.962 25.8773 33.695 25.8773 33.695C25.8773 33.695 24.7764 32.434 22.9984 34.064C21.2204 35.694 20.9313 35.836 20.9313 35.836C20.9313 35.836 18.6864 61.037 18.0944 63.852C17.5024 66.667 16.7983 80.862 16.7983 80.862Z" fill="#A5CE63"/>
<path d="M67.1074 185.197C67.5834 195.012 68.0264 205.085 64.9774 214.426C62.3814 222.377 57.3853 229.358 54.6193 237.251C52.1203 244.383 51.5254 252.171 52.9094 259.6C53.7184 263.941 55.1824 268.452 53.8294 272.655C54.3294 268.593 51.3353 265.049 49.7233 261.288C47.9283 257.099 47.8304 252.339 48.6414 247.855C49.4524 243.371 51.1243 239.095 52.7863 234.852C54.2603 231.09 55.7343 227.328 57.2083 223.566C59.4873 217.748 61.7843 211.865 62.6473 205.676C63.0063 203.1 63.1124 200.495 63.1694 197.895C63.4314 185.946 62.7194 169.776 57.9464 158.668C56.8804 156.188 55.5423 153.845 58.0573 152.168C59.3903 151.279 63.3223 160.423 64.4783 164.522C66.3703 171.232 66.7714 178.267 67.1074 185.197Z" fill="#67831C"/>
<path d="M57.6692 157.944L60.2242 154.333C60.2242 154.333 59.3912 152.722 58.8912 152.444C58.3912 152.166 58.0582 152.166 58.0582 152.166L56.6141 153.166L56.1702 155.666C56.1702 155.666 57.1132 156.944 57.6692 157.944Z" fill="#08705C"/>
<path d="M21.0752 289.178C21.0752 289.178 25.6682 282.774 29.9462 276C35.2792 267.556 55.9462 247.333 50.3902 222.222C46.1042 202.849 45.5012 189.778 47.7232 181.778C49.9452 173.778 52.1682 155.111 53.9452 153.778C55.7232 152.445 58.3892 152 58.3892 152C58.3892 152 52.1672 173.778 51.2782 181.333C50.3892 188.889 50.3892 213.333 53.9452 222.222C57.5012 231.111 55.8022 239.609 50.3892 251.111C43.2782 266.222 32.1672 279.111 29.9452 280.889C27.7242 282.667 21.0752 289.178 21.0752 289.178Z" fill="#8BC13E"/>
<path d="M11.9262 107.804C11.6392 107.525 5.83219 96.885 8.24219 74.663C9.33419 64.596 10.9292 59.901 12.3352 55.759C13.9412 51.031 15.3272 46.947 15.3272 35.573C15.3272 12.8 9.76818 9.03299 9.63818 8.93199L5.1062 0C5.6862 0.455 19.3172 11.417 19.3172 35.573C19.3172 47.394 17.8632 51.676 16.1782 56.636C14.8172 60.643 13.2752 65.185 12.2152 74.954C9.98518 95.51 14.5232 104.054 14.5822 104.115L11.9262 107.804Z" fill="#75AA21"/>
<path d="M27.4623 304.442C22.8963 304.124 20.7203 303.971 16.2073 303.657C19.0583 288 10.2103 287.53 0.143311 279.604C15.6543 273.459 27.1123 272.996 42.8783 278.111C37.8863 287.489 26.1693 291.555 27.4623 304.442Z" fill="#FFAB03"/>
<path opacity="0.42" d="M16.3323 277.019C16.3323 277.019 22.6883 276.74 29.3983 277.011C36.1083 277.282 39.8613 278.289 39.8613 278.289C39.8613 278.289 34.6853 288.957 32.2313 291.257C29.7783 293.557 28.6773 296.861 27.5623 298.942C26.4463 301.023 26.1413 303.773 26.1413 303.773C23.7093 303.637 22.5103 303.559 20.0963 303.438C20.0963 303.438 21.0133 296.121 20.7933 289.906C20.5733 283.689 16.3323 277.019 16.3323 277.019Z" fill="#FFCC3E"/>
</svg>
