<svg width="109" height="84" viewBox="0 0 109 84" fill="none" xmlns="http://www.w3.org/2000/svg">
<path d="M44.4695 75.8308C44.8649 74.49 43.6086 72.1035 42.5799 71.5378C40.9269 70.6301 39.1127 72.56 37.4363 71.7641C35.5844 70.8837 33.7064 68.5921 36.1969 67.579C37.8226 66.9171 42.8712 68.267 41.1922 64.6243C40.0269 62.096 36.5429 61.6877 35.1318 59.2102C33.973 57.1762 34.782 53.7532 37.6301 54.3059C41.3548 55.0277 38.9774 57.82 40.8047 59.4326C44.0065 62.2573 45.9508 55.3073 45.1042 53.0952C43.8492 49.8205 39.1049 50.3992 36.4401 49.2456C33.6076 48.0192 31.1522 45.5483 29.814 42.7794C29.4238 41.9718 28.3171 39.8663 29.0063 39.0132C29.7008 38.1535 31.9065 38.489 32.7037 39.0183C33.6895 39.6725 34.7937 41.7546 35.5766 42.691C36.4284 43.708 37.9409 46.1842 39.6966 45.2088C41.5082 44.2035 39.6329 41.9471 38.6029 41.1577C36.0018 39.164 29.048 36.9804 29.3705 32.8045C29.5227 30.8329 32.1133 29.3529 34.029 30.089C35.4153 30.6222 35.9017 32.3207 36.4609 33.6056C37.2868 35.503 37.9942 38.307 39.8514 39.3045C45.8923 42.548 44.1067 29.7223 43.0142 27.1498C42.338 25.5567 40.3287 22.4771 38.5769 21.9282C36.9746 21.4275 35.2033 22.7073 33.8521 23.4186C31.9013 24.4447 23.4778 25.8714 24.0618 21.7124C24.5118 18.5144 29.2495 20.5497 31.1288 20.5172C32.5138 20.4925 35.1032 19.8942 33.9561 18.1151C33.3215 17.1319 30.3199 16.522 29.2443 16.007C25.8318 14.3709 22.4817 12.4162 21.0147 8.72278C19.1029 3.91086 22.613 -3.96898 26.2115 3.07593C27.793 6.17377 26.8215 10.403 29.2144 13.1276C30.7503 14.8768 34.0927 15.4217 36.0305 16.47C36.1462 13.3851 31.9208 9.72678 32.1107 7.10364C32.3955 3.18518 36.3244 5.80962 36.9187 8.70067C37.5404 11.7283 34.0537 14.1785 39.4079 15.7222C41.0908 16.2073 41.3001 14.6206 43.4265 14.9913C45.0001 15.2657 46.1043 16.7015 47.8561 16.9238C50.2087 11.6021 41.0895 6.82793 45.6439 2.2462C53.2584 -5.41385 51.1581 8.73579 50.0552 11.6867C48.9758 14.5751 51.5677 25.5684 45.5515 24.2744C45.0443 27.765 49.0135 30.2411 48.7469 34.3287C48.6793 35.36 47.3476 39.3695 47.6415 39.787C49.5155 42.453 51.0189 36.7581 51.4884 35.728C52.0866 34.4171 52.7915 34.7305 52.0359 33.3598C51.6354 32.6341 50.3492 32.5639 50.0123 31.7276C49.7522 31.0787 50.3231 28.925 50.9435 28.5011C52.3025 27.5699 52.824 29.0382 53.8476 29.535C56.2262 30.6885 59.2499 28.9536 57.5787 25.9676C56.221 23.5396 52.8331 23.9154 52.9489 20.6771C53.0503 17.868 55.6852 14.8989 57.7595 13.2694C60.0068 11.5046 62.405 10.948 61.6272 14.5478C61.2982 16.0694 58.0638 19.5158 61.4478 18.9345C62.8471 18.6939 64.5807 16.2723 65.5795 18.8291C66.3468 20.7929 64.1607 22.4914 62.5116 22.9088C58.995 23.801 60.5998 23.7659 62.0434 26.1575C63.0539 27.8313 63.2477 29.7691 62.1475 31.4129C60.1733 34.3625 55.7346 34.7943 54.1129 38.1119C53.7318 38.8909 51.9423 44.9773 51.9839 45.4351C52.6758 53.1043 57.8649 42.8887 60.3527 42.5389C62.1618 42.284 63.1931 43.8017 64.768 43.9473C65.7434 44.0371 66.9776 43.2945 67.9127 43.0643C69.9935 42.5506 72.0223 42.4413 71.2082 45.266C70.502 47.7136 68.1559 48.0739 65.8682 48.096C64.119 48.1129 55.6605 47.6603 56.3849 51.1743C56.87 53.5282 65.4768 51.4331 67.477 51.6243C68.4901 55.8146 64.4728 56.7808 61.0563 57.4961C59.2746 57.8694 55.5928 58.9917 53.8449 58.1568C52.4469 57.4883 52.0008 55.1214 50.7991 53.9262C50.0292 53.1602 49.2463 58.0801 49.3504 58.5613C49.7288 60.3104 50.9266 61.9764 52.3012 63.0896C54.0556 64.5085 59.1211 68.1161 60.9978 65.8832C62.4791 64.1184 60.3111 61.2169 64.162 61.1493C65.3337 61.1285 66.4106 61.9725 67.5082 61.1935C68.4576 60.5198 67.871 60.0451 68.1168 58.9046C68.8139 55.6624 70.4435 57.8082 72.5061 57.1801C75.7899 56.1826 76.5416 49.1091 75.9941 46.3234C75.4179 43.3959 73.6571 44.2464 72.5087 42.1162C71.4501 40.1537 71.7726 37.9584 70.6398 35.9933C69.7334 34.421 67.5849 33.1023 67.0907 31.3817C66.6564 29.8692 67.3378 27.9926 68.321 26.891C69.9285 25.0898 70.3823 25.3954 70.3641 22.7606C70.3511 20.7708 70.3667 19.1711 72.3812 20.5978C76.1423 23.2613 71.5541 26.5074 71.5827 29.3828C71.6035 31.4949 73.6505 32.0073 74.7274 33.4365C75.4557 34.4028 75.7496 37.1261 77.6015 36.4563C80.464 35.4198 76.1553 29.1721 76.0175 27.7247C75.7418 24.8323 78.5405 18.6405 81.7164 22.9127C83.4903 25.2992 79.5367 30.643 81.1649 32.6146C85.7766 38.1951 86.3228 26.8182 86.0536 24.6919C85.6062 21.1674 85.0574 19.4404 82.3939 17.2243C81.4849 16.4674 78.7278 15.6793 78.2947 14.618C76.1007 9.24039 84.3642 7.70577 87.7495 7.89565C89.2464 11.0156 89.2151 15.847 89.9981 19.3675C90.5001 21.6239 88.7327 31.1918 92.0971 30.751C94.9218 30.3803 96.3563 27.1082 99.7012 27.5283C99.6921 30.7419 100.415 34.0413 96.9571 35.9725C94.5512 37.316 91.5184 36.416 88.9251 37.1924C86.3722 37.9571 82.459 39.0704 82.299 42.2514C82.2587 43.0435 82.762 43.7783 82.736 44.5976C82.7178 45.1737 82.1559 45.8396 82.2548 46.4092C82.4824 47.7279 83.2042 48.001 84.5619 48.3092C84.9612 48.4003 82.6423 51.7621 82.286 52.0795C81.269 52.9859 78.5275 53.7597 79.7643 55.5961C80.7735 57.0943 85.2057 56.9967 86.8742 56.8706C89.4622 56.6729 92.5484 54.5726 93.0075 51.7725C93.3066 49.9466 92.0841 49.706 91.3051 48.2989C90.2217 46.3442 91.0346 44.3531 91.9423 42.5792C92.5692 41.3554 93.8528 38.7634 95.7125 39.8728C96.9831 40.631 96.3771 43.1319 96.2757 44.3102C96.0468 46.9632 96.0923 47.7643 99.0601 47.6967C102.106 47.6278 104.791 46.352 107.863 46.4937C108.264 48.4757 105.538 50.1339 104.015 50.909C102.278 51.792 99.1641 50.9116 97.887 52.3786C93.9946 56.8498 107.781 53.908 108.377 54.3241C110.701 55.9446 105.885 60.1297 104.36 60.5289C101.277 61.3366 97.753 58.8148 94.8282 58.5209C93.4171 58.3792 91.5821 60.1427 91.0151 61.304C90.1385 63.1001 91.3558 64.8232 90.5261 66.6895C88.9212 70.2932 85.6101 65.1094 84.3031 63.4746C82.8582 61.6669 81.1285 58.2322 77.8187 60.1206C74.9211 61.7735 79.3286 63.5136 78.7408 65.4748C78.0684 67.7156 74.0446 65.9066 72.6544 65.1913C71.3213 64.5046 69.7867 63.4616 68.1142 64.5436C66.3819 65.6634 66.5055 68.3593 68.4914 68.916C70.3498 69.4362 73.0224 68.3268 75.0473 68.7859C77.3154 69.3009 79.1699 71.9046 76.0929 72.9502C74.133 73.616 71.8922 71.846 69.7763 72.7902C67.5446 73.7851 69.1351 74.1272 70.8154 74.6604C74.1317 75.7125 78.4052 74.1506 81.3522 75.6644C80.5069 81.8913 71.4618 79.2616 68.3431 77.0949C65.3389 75.0076 60.8027 68.2891 56.8023 72.8123C53.4002 76.6593 62.007 76.8348 63.6457 78.5242C66.5276 81.4959 60.6415 82.7132 58.7128 83.0383C54.3495 83.7705 50.2997 83.3075 45.9638 82.5337C41.7436 81.7807 38.335 83.0006 34.912 79.9561C32.1718 77.5202 32.6387 75.4784 28.9569 74.6682C23.6183 73.4925 11.3895 79.7285 19.1523 68.1461C23.695 61.3691 17.8414 62.8829 12.9697 62.7333C11.6808 62.6943 10.4493 62.0063 9.3035 61.9738C8.32811 61.9452 7.17325 62.5148 6.22517 62.7164C4.5553 63.0714 0.656349 63.9064 1.46787 60.8892C1.7748 59.7486 3.83352 59.2804 4.49158 58.452C6.11723 56.4063 1.07902 50.844 0.383241 48.4094C-0.317738 45.9579 -0.369759 42.1136 2.98428 44.3934C3.92975 45.0358 4.95976 47.4938 5.90654 47.7227C7.15764 48.0245 7.92495 46.0529 8.94976 45.6692C9.47647 47.7539 9.90954 48.927 8.78329 50.8453C7.88463 52.3747 7.63493 52.6946 8.85612 54.0471C9.94985 55.2592 11.6925 55.9927 13.2675 55.3997C17.6944 53.7311 13.036 46.1634 11.9032 43.9967C10.8563 41.9939 7.14984 35.0752 10.8862 33.4222C14.8983 31.647 17.4187 40.4879 17.5709 42.6559C17.766 45.4403 16.8205 50.0129 19.8832 51.7634C22.9836 53.5347 28.1883 50.1456 31.6711 51.4851C31.766 55.0186 25.9761 54.9367 23.6768 56.548C24.461 59.0541 27.6005 58.7355 29.7515 59.3324C29.8036 61.9166 26.287 64.5371 26.7096 66.6947C27.1557 68.9693 29.0051 68.1149 30.4642 69.4128C31.8181 70.617 31.411 70.9838 32.402 72.127C33.9899 73.9555 42.9869 80.8365 44.4695 75.8308Z" fill="#FD607A"/>
<path d="M2.4523 48.707C3.05444 50.559 4.02723 52.3056 4.73601 54.164C5.44739 56.0263 6.30184 56.635 7.93399 57.4517C9.9641 58.4687 12.4312 59.0488 14.6538 58.8732C15.0855 55.9561 22.3762 60.9007 23.4986 61.7135C26.0905 63.5915 25.2556 63.6851 22.8926 65.8323C21.0159 67.5372 19.7115 69.9744 17.7698 71.5506C18.0676 68.813 23.0135 65.0728 21.4425 62.1219C19.385 58.2567 14.2441 61.8982 11.3947 62.1765C9.61686 62.3495 7.709 61.971 5.9637 61.759C5.30434 61.6784 4.2197 62.0868 3.91148 61.3598C3.31975 59.9565 6.32264 59.6574 7.11076 59.6899C7.38517 58.2476 5.88437 58.4635 5.10146 57.7599C4.26782 57.0121 4.12737 56.0745 3.87897 55.0341C3.57595 53.7583 2.08425 49.4847 2.4523 48.707Z" fill="#E34656"/>
<path d="M22.2358 74.6082C24.8876 72.556 28.7267 71.591 31.1535 73.5925C31.9208 74.2259 32.5425 75.0023 33.4268 75.5719C34.2032 76.0726 35.5857 76.2196 36.1696 76.9947C36.6612 77.6476 36.232 78.7855 36.9616 79.4514C37.6717 80.1003 39.5262 79.8779 40.4301 79.9117C41.6474 79.9573 48.28 80.4606 45.8754 77.6684C47.0575 75.8619 49.1046 79.1353 50.1736 79.8194C52.5717 81.3553 58.0235 83.3985 60.7208 81.7325C56.7373 83.4297 51.4858 82.6155 47.3437 81.9106C44.3694 81.4034 39.0281 82.4166 36.3556 81.0991C35.124 80.4918 34.2565 78.5124 33.194 77.6189C32.1614 76.7502 31.3876 76.2274 30.3953 75.2208C28.0284 72.8213 24.7536 74.3364 21.5973 74.17C21.795 73.9125 22.0772 73.7863 22.2358 74.6082Z" fill="#E34656"/>
<path d="M36.7158 68.2852C38.0554 70.9317 45.004 70.4089 42.641 66.8481C41.5512 65.2068 33.5244 60.1634 37.95 58.1606C38.3337 60.7396 42.1143 66.4749 45.2862 64.2276C46.1758 66.497 47.2682 69.4543 47.9263 71.8317C49.1449 76.2378 45.9261 75.4263 43.2704 73.1803C41.6292 71.7927 41.5329 71.4558 39.1647 71.344C37.2933 71.2556 34.9419 70.4206 35.903 68.0511C36.0226 68.3372 36.3192 68.4841 36.7158 68.2852Z" fill="#E34656"/>
<path d="M55.8868 75.4235C55.2326 72.7393 57.8219 70.4946 60.5725 70.7339C62.7379 70.9224 64.374 72.6781 65.3975 74.3025C66.9893 76.8307 68.2547 77.4549 71.5905 77.8763C73.4724 78.1143 76.34 78.8023 77.2907 76.6889C74.0849 76.4496 72.523 76.6356 69.8621 74.915C68.0167 73.7212 65.218 72.738 65.097 70.1525C67.3001 69.8937 70.7413 72.9148 72.852 71.137C70.7075 70.2865 68.1285 70.505 65.9827 69.1875C63.4493 67.6308 64.5963 67.32 64.8486 64.6279C63.7666 64.9049 62.8549 65.5019 62.1956 66.4057C61.8405 66.8921 62.0343 67.8207 61.6116 68.2004C60.1291 69.5335 57.3069 68.2382 55.4927 69.0185C52.7499 70.1955 52.0242 75.2324 55.8868 75.4235Z" fill="#E34656"/>
<path d="M50.3804 64.2069C48.6663 62.0246 47.6142 59.1011 47.7286 56.305C47.7976 54.6143 49.0617 51.8624 51.2973 52.6752C53.3482 53.4204 53.1531 56.5508 55.8179 57.0762C57.8987 57.4871 64.6731 56.2113 65.0528 53.6376C63.2035 53.5218 51.8162 54.4894 54.9543 49.7634C55.7815 48.5188 58.7284 47.6448 60.1382 47.4848C63.0982 47.1493 66.2454 46.8138 68.7788 45.2362C66.6603 44.006 60.6714 44.6172 58.6855 45.9554C56.7243 47.2768 55.1858 48.9258 52.7226 49.5006C48.0044 50.6022 50.6808 42.2893 51.3922 39.9509C48.2358 40.6168 48.3867 45.3039 48.2944 47.6422C48.215 49.6463 47.2709 50.9481 46.8521 52.8885C46.4216 54.8822 47.293 63.5163 50.3804 64.2069Z" fill="#E34656"/>
<path d="M31.8207 42.5884C34.0927 44.6276 35.2163 46.6291 38.4611 47.0297C40.5276 47.2846 42.0961 46.8203 41.9868 44.4599C39.4521 43.8902 31.0286 34.0414 33.6557 31.7954C34.752 34.6318 37.3062 39.1589 39.7252 40.9719C41.0517 41.9655 42.5707 41.5519 43.4564 43.201C43.9467 44.1126 44.1457 46.1414 43.853 47.1675C42.481 51.9704 31.6477 47.1168 31.8207 42.5884Z" fill="#E34656"/>
<path d="M44.6698 30.7599C45.1978 27.2212 44.3941 22.9607 41.611 20.4598C40.0972 19.0995 37.6223 17.561 36.3088 19.9799C35.323 19.0527 35.3035 18.1735 34.1265 17.254C32.7922 16.211 31.7101 15.0575 30.4044 13.8779C29.0909 12.6918 27.4067 11.9518 26.2115 10.5694C24.5677 8.6667 24.7055 6.58457 23.8368 4.27745C21.5765 3.68962 21.9328 6.71202 22.4309 7.85648C23.2789 9.80336 24.8057 10.9257 26.3598 12.1898C28.4862 13.9195 29.4225 16.2188 31.7374 17.5024C33.7676 18.6287 36.1813 20.1334 32.0418 20.5443C29.4719 20.7992 26.763 20.4715 24.3115 21.2089C22.7366 26.5007 36.734 21.9398 38.8773 22.5914C42.3354 23.6448 44.3564 27.2368 44.6698 30.7599Z" fill="#E34656"/>
<path d="M44.6699 19.9501C47.1422 19.1099 48.2138 19.4546 48.7938 16.7274C49.0526 15.5088 49.0734 14.3045 48.7509 12.9143C48.072 9.98941 45.8195 5.63396 48.6521 3.31904C52.2909 0.347353 50.2491 7.42998 50.1763 9.08424C50.015 12.766 50.0267 15.9861 48.9421 19.4962C48.5714 20.694 47.9004 23.5876 46.2565 23.8386C44.9118 24.0454 44.5515 21.1478 44.6699 19.9501Z" fill="#E34656"/>
<path d="M59.3527 23.4174C57.4786 22.7008 53.5992 21.8047 54.9517 18.8421C55.5317 17.5715 57.6789 17.0266 58.6816 16.1722C59.5087 15.4673 59.9392 14.4347 60.9536 14.0471C61.0967 16.0369 60.5608 16.6651 59.3045 18.1854C58.7765 18.8239 57.4968 19.4118 58.0703 20.5666C58.9417 22.321 63.3062 20.9191 64.6393 20.7929C64.149 22.2742 63.0409 22.8269 61.6988 23.2145C60.6831 23.5071 59.1732 22.8126 59.5933 24.606C61.7729 25.7505 61.466 30.0383 59.4112 31.2244C61.0446 28.8717 60.038 25.4045 59.3527 23.4174Z" fill="#E34656"/>
<path d="M71.7934 32.3909C73.4321 34.7162 71.8455 39.4085 75.5845 40.5555C77.0774 41.0133 78.906 39.6282 79.4912 38.264C80.0699 36.9154 79.3937 35.6447 79.5796 34.261C81.8243 32.9631 81.7216 36.6709 81.3835 37.948C80.8841 39.8298 78.4196 42.1422 78.5171 43.9304C78.6251 45.8915 82.1196 46.9684 81.9765 49.2235C81.823 51.6463 77.5521 52.6542 76.0474 54.1706C77.1152 51.316 79.274 46.958 77.1568 44.0227C75.8667 42.2345 73.7897 42.6819 72.7272 40.5659C71.8442 38.8076 71.9911 36.5629 71.1874 34.8033C70.7153 33.7707 66.9074 29.0251 69.9324 28.5244C69.9636 30.1175 70.6282 31.7588 71.7934 32.3909Z" fill="#E34656"/>
<path d="M87.9055 14.241C85.8689 16.6274 87.9939 22.2158 88.3646 25.0509C88.8133 28.4908 89.2203 29.764 86.7754 31.9826C86.2682 32.443 84.9234 33.2728 85.2512 34.2286C85.7584 35.7047 87.3463 34.2872 88.3204 33.9217C91.1815 32.8462 94.8984 34.9647 95.6605 30.7693C94.6643 31.175 90.1658 34.6877 89.1527 32.2948C88.8731 31.6341 89.7913 30.8954 89.9941 30.2686C90.4974 28.7131 90.119 27.9667 89.9798 26.5192C89.7301 23.9272 90.2243 21.282 89.5858 18.7876C89.1514 17.08 87.6532 15.5012 87.9055 14.241Z" fill="#E34656"/>
<path d="M82.6033 58.9044C86.0392 59.7953 83.3459 68.432 88.1084 66.8623C91.4481 65.7621 87.1876 61.4027 89.1046 59.4311C90.5078 57.9875 94.8372 58.1995 96.658 58.4883C98.0781 58.7132 100.674 60.3896 102.021 59.53C104.204 58.1371 101.532 57.4491 100.393 57.2723C98.7349 57.0135 96.4343 57.2658 95.6514 55.4672C94.5459 52.9272 97.2341 52.2887 98.4995 51.1949C94.8685 50.4341 93.7461 55.696 90.976 56.951C88.0837 58.2607 85.1328 58.7002 82.6033 58.9044Z" fill="#E34656"/>
<path d="M72.2018 60.5354C72.3605 63.0285 75.5623 62.2703 76.4428 63.9922C77.331 65.7284 75.2411 65.8259 73.9341 65.6438C71.3903 65.2901 69.9506 62.7411 67.1636 64.186C68.2209 62.8425 69.485 61.2871 71.3851 61.5563L72.2018 60.5354Z" fill="#E34656"/>
<path d="M22.2359 5.06311C21.215 2.93156 24.4468 0.993775 25.4807 3.34641C26.0568 4.65734 25.6108 7.02167 25.9203 8.48346C25.5717 7.51717 24.4949 5.35311 23.8434 4.65473C23.2984 4.0721 21.6455 2.94975 21.4192 4.65473L22.2359 5.06311Z" fill="#FF8787"/>
<path d="M35.0836 10.5693C35.782 9.25706 36.0603 5.76778 33.6869 6.52078C33.3032 7.71856 33.2044 9.20374 34.6766 9.75386L35.0836 10.5693Z" fill="#FF8787"/>
<path d="M37.5312 18.3192C40.1712 16.3308 41.3612 21.3182 43.4095 20.9398C43.8686 19.9787 43.4901 19.0488 43.273 18.1463C44.5306 18.0787 45.8311 18.1567 47.09 18.0852C46.7128 16.466 42.3353 15.9978 41.1011 16.1786C40.1725 16.3139 37.1111 16.4764 37.5312 18.3192Z" fill="#FF8787"/>
<path d="M46.9133 6.89826C46.4841 4.64967 48.6768 4.2166 49.1306 2.457C46.2864 1.23842 45.5399 4.1997 46.5049 6.28573L46.9133 6.89826Z" fill="#FF8787"/>
<path d="M46.0964 31.7795C48.0628 35.0777 45.8779 37.4706 44.1586 39.939C43.1572 41.3774 43.4824 40.467 44.753 42.077C45.4448 42.9536 45.9885 44.4401 45.6477 45.6014C45.2537 46.941 43.2392 47.4872 42.875 48.7422C42.2313 50.9557 44.4656 51.1144 45.6932 49.9764C48.0823 47.7603 46.5997 44.4453 46.5048 41.7818C46.441 40.0196 47.2123 38.8765 47.3189 37.0883C47.3748 36.1441 47.6843 35.2688 47.4151 34.3221C47.142 33.3662 46.1887 33.1191 46.0964 31.7795Z" fill="#FF8787"/>
<path d="M52.2153 39.3254C52.1581 37.5177 53.1335 35.8972 54.4132 34.6747C55.477 33.659 56.0245 33.9334 57.1105 33.4093C58.8038 32.5913 59.0456 31.2023 58.701 28.9915C57.6398 30.5846 56.3185 31.5691 54.4587 31.1711C53.4066 30.9461 51.0006 28.6195 50.3257 30.3505C49.8809 31.4923 52.2491 32.4001 52.4117 33.7149C52.534 34.7085 50.6885 37.1522 52.2153 39.3254Z" fill="#FF8787"/>
<path d="M54.6631 20.3583C52.897 18.8172 60.8353 15.7129 60.9589 13.4591C58.06 12.152 54.6774 17.648 54.6631 20.3583Z" fill="#FF8787"/>
<path d="M68.5304 30.76C68.0921 28.4867 69.5812 28.1083 71.7739 27.6648C71.822 25.8272 72.3253 24.0897 72.1705 22.2195C70.4929 22.0088 71.1522 23.9128 70.9324 24.8037C70.5397 26.3942 70.4473 25.8636 69.2392 26.9859C67.7488 28.3697 66.5432 30.7444 68.8958 32.1659C68.862 31.7016 68.7424 31.1892 68.5304 30.76Z" fill="#FF8787"/>
<path d="M79.7473 34.023C79.7499 32.2348 79.3428 30.8185 79.1751 29.1135C79.0086 27.4176 79.1165 27.9587 79.9059 26.7258C80.5237 25.7608 81.6981 25.1847 80.5562 23.8282C79.9853 23.1493 78.465 22.7527 77.5949 23.4094C75.0992 25.2913 77.5403 32.4623 79.7473 34.023Z" fill="#FF8787"/>
<path d="M85.2538 17.9108C84.2589 16.1746 80.3079 13.3421 82.6774 11.5331C83.2419 11.1026 85.8676 11.2938 85.8832 10.161C85.8975 9.10501 83.7868 9.07769 82.9974 9.14012C81.4003 9.26627 77.227 11.217 78.0216 13.3499C78.7304 15.2487 82.4212 15.3397 85.2538 17.9108Z" fill="#FF8787"/>
<path d="M81.1754 45.0356C81.1728 41.8832 82.1807 38.589 86.0198 37.3262C89.2763 36.2558 92.9204 37.6045 95.7893 35.1023C96.8544 34.1737 100.046 29.4099 97.48 29.129C96.3342 29.0041 95.2899 30.3515 94.2274 30.7637C93.2247 31.1539 92.1908 30.847 91.3897 31.7365C92.9009 32.0448 94.39 31.2072 95.8322 30.8301C96.1092 33.8239 92.2922 33.1359 90.556 33.6028C89.2386 33.9578 84.9612 35.3429 85.0197 36.8606C83.0338 35.7486 85.1706 33.7887 86.211 32.829C83.7283 32.3764 82.2574 36.7318 81.7814 38.5083C81.1715 40.7907 79.5133 42.8846 81.1754 45.0356Z" fill="#FF8787"/>
<path d="M93.8203 54.2133C94.9621 51.5031 97.5046 49.7656 100.34 49.5211C101.752 49.3988 104.856 49.9515 104.802 47.7186C102.095 47.4051 99.908 50.1323 97.2107 48.928C94.0752 47.5274 97.3447 43.4867 94.8399 42.1666C91.3116 40.3069 92.3806 46.4792 92.9593 47.8304C93.5355 49.1738 95.3757 52.1416 93.2441 53.026C93.1921 53.2874 93.2454 53.5397 93.8203 54.2133Z" fill="#FF8787"/>
<path d="M99.5309 57.4767C100.838 57.3961 106.106 58.1517 103.218 60.2897C105.478 60.4445 110.072 56.0838 105.338 55.483C102.782 55.1592 100.961 57.0761 98.3695 56.855C98.8585 57.2634 99.3449 57.3766 99.5309 57.4767Z" fill="#FF8787"/>
<path d="M76.8928 55.2332C75.9577 58.7133 83.2224 55.3853 82.1651 59.6887C80.066 59.6068 78.2336 57.6586 76.067 58.4415C74.8588 58.8785 74.1487 59.9996 73.6298 60.9736C73.0094 57.2164 69.1079 61.9867 67.7319 61.7357C68.3601 60.6095 70.2601 60.4924 69.3563 58.7328C70.7686 58.6639 72.5478 59.0476 73.713 58.3102C74.4153 57.8654 75.5025 56.1292 76.8928 55.2332Z" fill="#FF8787"/>
<path d="M40.9985 61.1481C44.3161 60.888 46.553 62.5513 46.3319 57.9176C48.1254 57.8837 46.9783 60.5485 47.319 61.6683C47.6871 62.8777 49.0825 64.0755 50.2777 64.5216C51.586 65.0093 53.0647 64.7011 54.3991 65.1771C55.3692 65.5243 57.7635 66.7715 57.8987 67.8496C55.7217 67.9095 52.7279 68.2411 52.2051 70.8447C51.8227 72.7461 53.4952 74.585 53.62 76.4174C50.1997 76.6398 50.7485 72.114 50.0449 70.1372C49.4376 68.4284 47.4413 66.4672 46.2487 65.0288C44.6946 63.1547 44.3734 63.9077 42.338 63.3745C41.1715 63.0663 39.7669 61.1298 40.9985 61.1481Z" fill="#FF8787"/>
<path d="M38.755 58.7003C39.863 57.1995 37.898 54.7819 36.4154 55.215C35.0576 55.6103 35.2761 57.9512 35.9459 58.8486C36.2242 58.0241 36.3555 56.9134 37.2828 56.9069C38.0475 56.9004 38.6106 57.8459 38.5508 58.4974L38.755 58.7003Z" fill="#FF8787"/>
<path d="M15.7086 48.7072C15.2677 45.0436 12.0489 41.3983 12.2401 37.567C12.3155 36.0558 12.8709 35.0492 14.5511 36.3549C16.1807 37.6216 15.4212 40.7428 15.5226 42.5336C15.706 45.781 15.3002 51.2913 18.3565 53.1966C19.9015 54.1603 21.2631 53.8403 22.9668 54.0081C23.4051 54.051 26.0958 53.9457 24.9059 55.2007C24.0956 56.0551 19.9392 54.9432 18.7661 55.2332C17.6828 55.5011 17.1197 55.8991 16.3224 56.6846C14.4562 55.0095 16.788 50.0428 15.7086 48.7072Z" fill="#FF8787"/>
<path d="M8.36725 55.8445C4.03392 52.2784 9.61835 51.0156 8.94858 47.5146C7.94328 47.5393 7.44908 48.7774 6.53351 48.7163C5.27591 48.6318 5.64006 47.4613 4.90787 46.7577C3.92337 45.811 0.414574 44.7926 0.231201 46.8306C3.29002 47.4847 3.33034 49.2729 4.07944 51.7296C4.56323 53.3175 6.19798 56.1865 8.36725 55.8445Z" fill="#FF8787"/>
<path d="M26.9256 63.3914C26.6108 66.6908 24.7303 66.549 22.6377 68.0823C21.1096 69.2021 20.276 70.8824 20.0094 72.7408C23.0305 72.9554 26.5146 69.7821 29.7542 71.1216C28.8958 69.8497 26.9386 69.5246 26.1622 68.2345C25.2674 66.7493 26.6603 65.4995 26.9256 63.3914Z" fill="#FF8787"/>
<path d="M38.5509 78.2786C40.5862 79.2046 46.4542 81.0955 45.7194 76.8818C48.0746 77.337 48.747 79.3463 50.8447 80.323C53.8372 81.7172 57.7322 81.9526 60.9692 81.3023C61.8627 79.4035 59.2812 79.9537 58.1575 79.8795C58.6803 78.25 56.9597 77.0938 55.5097 76.6738C55.5565 78.9692 53.9959 80.3139 51.5314 78.8976C50.6782 78.4073 50.1333 77.4255 49.2139 76.9365C48.7457 76.6881 47.6519 76.1705 47.3125 76.0248C47.1499 75.9559 47.0004 75.4825 46.7143 75.4188C44.809 74.9909 44.7297 77.2746 43.3329 78.289C41.6201 79.5336 40.5485 78.7117 38.5509 78.2786Z" fill="#FF8787"/>
<path d="M31.8207 43.2007C31.6178 43.2423 31.4188 43.2319 31.2251 43.1695C31.2264 40.4163 33.6102 42.2006 34.2787 43.5363C34.4555 41.5569 31.9872 39.121 30.0156 39.3525C29.9427 40.7779 30.3758 41.8508 30.3927 43.2007H31.8207Z" fill="#FF8787"/>
<path d="M32.636 36.2663C32.1587 34.6264 31.6047 31.7925 34.0276 31.6066C34.2799 32.2854 34.5348 32.3518 35.042 32.7783C35.202 31.2723 32.3746 29.8509 31.0962 30.6663C29.5044 31.682 31.1001 34.4872 31.8193 35.4509L32.636 36.2663Z" fill="#FF8787"/>
<path d="M26.7226 22.3979C27.9529 22.3992 29.3042 22.6489 30.3732 21.9401C29.6722 21.0245 26.2739 21.0674 26.3156 21.9908L26.7226 22.3979Z" fill="#FF8787"/>
</svg>
