<svg width="292" height="84" viewBox="0 0 292 84" fill="none" xmlns="http://www.w3.org/2000/svg">
<path d="M250.931 32.1798C256.774 26.9825 264.622 24.4238 272.229 27.0431C276.552 28.532 279.459 31.192 282.421 34.5129L283.401 32.799L283.59 32.4465C284.638 30.5906 287.167 27.4182 289.25 27.7111C291.382 29.0095 287.331 34.8366 286.683 36.6281L286.709 36.674C287.992 38.8904 291.788 41.6213 291.722 44.7218C291.719 44.8892 291.48 45.2143 291.316 45.2404C288.146 45.7402 284.274 42.1046 282.843 39.9377L282.712 39.7326C281.689 41.6065 280.451 42.3273 278.891 43.6349C270.408 50.7455 259.668 49.1626 251.292 42.8234C250.868 42.5019 250.434 42.2041 250 41.9035C249.965 41.8559 249.927 41.8091 249.883 41.7658C249.832 41.715 249.777 41.6683 249.718 41.6271L248.451 40.7394C248.375 40.6746 248.297 40.6107 248.222 40.5431C248.218 40.5524 248.213 40.5612 248.209 40.5705L247.556 40.1134C246.122 39.1095 245.942 37.0544 247.18 35.8166C247.408 35.5889 247.59 35.3269 247.725 35.0451C247.745 35.0738 247.765 35.1022 247.785 35.131C248.883 34.1661 249.873 33.1204 250.931 32.1798ZM281.324 36.5998C276.32 29.7923 267.188 25.5986 259.097 29.6164C255.537 31.3847 259.021 32.0644 259.083 33.6554L258.755 33.8615C257.398 34.0044 255.697 33.0312 254.615 32.2882C253.054 33.1877 251.751 34.4018 250.417 35.6017C249.922 36.0476 249.484 36.7351 248.967 37.0314C248.633 37.5399 248.611 37.4027 248.658 37.9006C249.075 38.4218 249.637 38.727 249.885 39.1437C252.224 40.7728 253.14 41.7879 255.959 43.1447C257.01 42.587 258.852 41.6195 259.971 42.3146L260.009 42.6818C259.765 43.3026 259.083 43.776 258.555 44.2228C259.964 45.1499 260.95 45.4747 262.607 45.8283C270.109 47.428 277.496 43.4529 281.916 37.4718C281.733 37.1727 281.532 36.884 281.324 36.5998Z" fill="#D8B991"/>
<path d="M200.636 24.9998C201.202 24.9383 201.732 24.8865 202.302 24.8995C205.466 24.9712 205.963 28.44 203.887 30.3516C203.221 30.9648 202.768 31.22 201.925 31.5622C204.399 36.4419 203.51 51.0344 203.429 57.0596C203.337 63.922 202.725 73.9105 197.318 78.7678C193.653 82.2 189.838 82.7574 185.122 82.7597C174.488 82.7646 168.04 72.2443 176.757 64.3187C181.773 59.9176 190.568 60.7335 196.555 62.4526C196.949 59.4614 196.973 55.8846 197.108 52.8356C195.174 54.8049 192.483 56.0452 189.751 56.3921C181.83 57.1836 176.34 51.9213 175.322 44.3483C173.897 33.7245 179.707 24.6069 191.128 25.0845C193.625 25.1889 195.482 25.6568 197.52 27.2745C198.657 26.0774 199.12 25.5825 200.636 24.9998ZM190.272 48.1755C193.806 46.7078 195 43.8286 195.18 40.1836C195.385 35.9623 193.959 32.177 189.136 32.3506C183.73 34.1322 182.648 42.9762 186.102 46.9547C186.98 47.967 188.976 48.5398 190.272 48.1755ZM187.572 77.5231C190.096 77.0919 192.147 75.8461 193.629 73.7371C195.058 71.7059 196.041 68.6398 196.362 66.1655C193.456 65.6284 190.705 65.1094 187.732 65.3866C184.75 65.7883 181.779 66.2898 179.849 68.8278C178.024 71.2253 178.404 74.3313 180.873 76.0874C182.974 77.5802 185.095 77.681 187.572 77.5231Z" fill="#F7E5B5"/>
<path d="M47.9463 0.16958C51.2395 0.0843422 58.7403 -0.568196 61.2501 1.42517C61.7399 1.83102 61.9334 2.79984 61.92 3.41735C61.848 6.74098 58.017 6.02946 55.8399 6.35035C52.3004 6.80907 43.9194 6.37927 41.3785 9.00057C39.6606 10.7727 40.3346 23.4745 40.4131 26.2126C43.713 25.6806 47.3567 25.2868 50.5312 24.9771C55.3627 24.5057 60.4276 23.9813 57.8945 30.6409C57.2139 32.4305 42.8826 33.1111 40.8091 33.2764C40.7223 36.6095 41.009 41.4382 41.1023 44.8843C41.1737 46.557 41.2573 48.2254 41.3417 49.8937C41.4993 53.0149 42.9718 59.4689 38.1919 59.8836C32.5487 60.3732 32.9738 54.7797 32.8581 50.9495C32.7649 47.7571 32.6938 44.5641 32.6446 41.3707C32.6149 39.4311 32.6497 36.9963 32.4527 35.0997C28.8565 36.0973 26.3922 36.6774 23.6788 33.7407C23.6333 33.5022 23.5939 33.2625 23.5608 33.0221C22.7607 27.1672 27.8153 27.5586 32.1763 26.9864C32.0999 25.8587 32.0295 24.7305 31.9652 23.602C31.8077 20.8002 31.8119 17.6507 31.8235 14.883C31.8937 11.6603 31.3649 6.26734 33.71 3.73251C36.4379 0.783852 44.1636 0.367909 47.9463 0.16958Z" fill="#F7E5B5"/>
<path d="M81.7785 24.9901C86.9574 24.5393 86.536 26.6746 86.2481 30.9156C88.5877 27.4579 91.195 25.4731 95.5268 24.9833C97.8594 24.7195 101.222 24.9321 103.061 26.6373C108.034 31.2476 106.682 39.6398 106.895 45.7429C106.928 47.0009 106.827 48.2937 106.951 49.5256C107.095 50.9012 108.969 51.5813 109.02 52.9759C109.147 56.4648 103.567 58.1851 101.279 55.9817C100.83 55.5495 100.269 54.5262 100.19 53.8759C99.7675 50.3984 99.9155 46.7413 99.8779 43.2176C99.8475 39.756 99.9931 35.8191 98.2425 32.7107C96.9263 30.3735 93.3115 30.4568 91.3262 31.8249C85.8378 35.6074 87.1729 43.7256 87.038 49.4906C87.0043 50.9364 87.1883 52.3927 86.8987 53.8208C86.4162 56.2815 84.4915 57.4219 82.0863 56.9062C81.1567 56.7067 80.4452 55.9077 80.066 55.0472C79.6777 54.166 79.8002 52.9153 79.7135 51.9571C79.6789 45.7196 79.9349 39.4779 79.7147 33.241C79.6569 31.4986 79.4258 28.2206 79.6813 26.4517C79.7723 25.8214 81.1275 25.2269 81.7785 24.9901Z" fill="#F7E5B5"/>
<path d="M148.987 31.4892C149.562 30.5959 150.073 29.8003 150.793 29.0076C152.959 26.646 155.977 25.2447 159.178 25.1138C172.148 24.506 168.946 41.7846 169.528 50.0955C169.593 51.0181 170.245 51.5414 170.755 52.2183C172.639 55.0464 169.518 57.1156 166.882 57.164C161.048 57.2712 162.498 48.0245 162.508 43.4156C162.519 41.9666 162.523 40.513 162.416 39.0671C162.249 36.8189 161.939 33.4301 160.134 31.9011C159.27 31.1697 158.205 30.8876 157.093 30.9825C155.784 31.0941 154.48 31.7327 153.5 32.5908C147.129 38.1636 152.064 52.6639 149.107 56.0597C148.482 56.7784 147.632 57.0481 146.708 57.0993C145.838 57.1477 144.83 57.0184 144.17 56.4033C143.491 55.7715 143.24 54.7772 143.139 53.8846C142.96 52.2971 143.067 50.6228 143.088 49.0266L143.155 41.6442C143.176 37.7034 143.157 33.6619 142.822 29.7325C142.746 28.8417 142.681 27.9657 142.631 27.0731C143.509 25.5452 143.788 25.4202 145.523 25.1568C146.386 25.0815 146.935 25.2177 147.784 25.3742C150.129 27.6108 149.684 28.6102 148.987 31.4892Z" fill="#F7E5B5"/>
<path d="M219.71 25.1698C220.33 25.1322 220.953 25.1088 221.573 25.0995C224.881 25.0689 228.003 25.5564 230.561 27.8622C231.708 28.8963 232.413 31.382 231.057 32.5194C228.556 34.53 226.904 31.8571 224.994 30.7824C219.208 27.5273 213.002 34.1036 221.262 37.5333C226.375 39.6567 234.729 42.026 234.822 48.7282C234.884 53.166 231.354 56.3012 227.364 57.5456C224.921 58.3308 223.36 58.3235 220.841 58.2931C216.586 58.2166 210.398 56.5529 209.538 51.6046C209.245 49.9314 210.653 48.1255 212.334 47.957C214.249 47.7654 215.751 50.1558 217.085 51.1758C218.917 52.646 220.593 52.8284 222.881 52.6995C225.31 52.5625 227.742 51.0259 227.472 48.285C227.207 45.583 223.228 44.1899 220.935 43.3895C216.419 41.8136 210.803 40.0382 210.103 34.4632C209.868 32.6387 210.651 30.3743 211.813 28.9559C213.752 26.5891 216.759 25.4782 219.71 25.1698Z" fill="#F7E5B5"/>
<path d="M118.789 1.06641C119.621 1.09322 120.066 1.21208 120.876 1.39979C121.518 1.91049 122.402 2.80369 122.44 3.64899C122.738 10.1802 122.028 17.1378 121.736 23.6346C121.521 29.2808 121.352 34.9286 121.227 40.5777C121.167 43.153 120.86 48.7908 121.335 50.9747C124.025 53.427 123.466 55.6394 120.087 56.7762C114.518 57.4897 114.414 54.0757 114.321 49.7346C114.221 45.0943 114.296 40.4984 114.452 35.8617L114.946 18.9419C115.047 16.037 115.121 13.1315 115.169 10.2253C115.205 8.01375 114.926 3.95948 116.126 2.02017C116.627 1.20937 117.899 1.15469 118.789 1.06641Z" fill="#F7E5B5"/>
<path d="M127.796 26.012C129.164 24.4962 130.538 23.7771 132.584 23.6572C136.074 23.4526 138.589 25.4034 138.604 29.0051C138.618 32.3979 138.561 35.7735 138.482 39.1635C138.282 43.6508 138.271 48.2322 138.296 52.7208C138.318 56.5001 136.411 58.9925 132.451 58.8706C126.431 58.6853 127.085 53.4377 127.086 49.0256C127.098 45.6907 127.144 42.3559 127.224 39.0218C127.272 35.5868 127.101 29.0646 127.796 26.012Z" fill="#F7E5B5"/>
<path d="M65.2786 26.803C65.8698 25.8094 66.3297 25.2168 67.531 24.9137C69.1382 24.5083 72.1012 24.7855 72.4717 26.7876C72.7887 28.5006 72.701 30.7756 72.7016 32.5662L72.7116 41.3836C72.7456 45.3453 72.9499 49.3079 72.9697 53.2707C72.9724 53.8326 72.8829 55.1953 72.5695 55.7063C71.6172 57.1962 68.9096 57.5796 67.4329 56.7483C66.7059 56.3391 66.3163 55.1211 66.1921 54.3265C65.7273 51.351 66.382 47.5787 65.9272 44.6805C65.8733 45.1212 65.8493 45.6751 65.8166 46.1274C65.6563 45.4386 65.8658 42.6647 65.6403 42.3815C65.281 43.3464 65.7637 43.7328 65.5162 44.6124L65.3789 44.5389C65.3358 42.9794 65.284 40.1544 65.5041 38.6518L65.6274 38.6564L65.592 38.5729C65.7695 38.9412 65.8058 39.2642 65.8774 39.6651C65.896 35.5197 65.2637 30.9998 65.2786 26.803Z" fill="#F7E5B5"/>
<path d="M65.9272 44.6804C65.8733 45.121 65.8494 45.675 65.8167 46.1272C65.6563 45.4384 65.8658 42.6645 65.6404 42.3813C65.281 43.3462 65.7638 43.7326 65.5162 44.6123L65.379 44.5388C65.3359 42.9792 65.284 40.1543 65.5042 38.6517L65.6274 38.6562L65.592 38.5728C65.7695 38.9411 65.8058 39.2641 65.8774 39.665C65.9015 41.1228 66.0021 43.2762 65.9272 44.6804Z" fill="#2A38B1"/>
<path d="M67.9933 10.2192C72.3533 9.92455 75.5921 11.7998 74.7348 16.6343C74.3733 16.4172 74.0529 16.8739 73.8017 17.1633C71.607 19.6922 68.5128 19.3642 65.4613 18.1182C62.8711 14.4918 64.2222 12.9497 67.0509 10.4456C67.3797 10.3943 67.6732 10.3071 67.9933 10.2192Z" fill="#FEEF9C"/>
<path d="M131.993 9.21922C136.353 8.92455 139.592 10.7998 138.735 15.6343C138.373 15.4172 138.053 15.8739 137.802 16.1633C135.607 18.6922 132.513 18.3642 129.461 17.1182C126.871 13.4918 128.222 11.9497 131.051 9.44565C131.38 9.39428 131.673 9.30705 131.993 9.21922Z" fill="#FEEF9C"/>
<path d="M64.5241 12.001C65.4459 11.0987 65.8205 10.8159 67.0511 10.4458C64.2223 12.9499 62.8712 14.4919 65.4614 18.1184C68.5129 19.3644 71.6071 19.6924 73.8018 17.1634C74.053 16.874 74.3735 16.4174 74.7349 16.6345C73.3516 21.4428 64.0046 21.3099 63.3968 15.6882C63.222 14.0724 63.6026 13.2512 64.5241 12.001Z" fill="#FED341"/>
<path d="M128.524 11.001C129.446 10.0987 129.821 9.81595 131.051 9.4458C128.222 11.9499 126.871 13.4919 129.461 17.1184C132.513 18.3644 135.607 18.6924 137.802 16.1634C138.053 15.874 138.373 15.4174 138.735 15.6345C137.352 20.4428 128.005 20.3099 127.397 14.6882C127.222 13.0724 127.603 12.2512 128.524 11.001Z" fill="#FED341"/>
<path d="M288.406 29.0317C287.352 31.8504 286.817 33.1253 285.345 35.7204C285.931 37.5829 287.177 38.9556 288.14 40.6384C288.782 41.7586 289.38 42.8553 290.053 43.9596C286.71 42.2687 286.06 41.8249 283.341 39.2205C283.451 38.7803 284.109 37.3735 284.314 36.9188C283.684 35.7725 283.143 35.4218 283.969 34.3323C285.735 32.3579 285.691 31.1191 288.406 29.0317Z" fill="#F7E5B5"/>
<path d="M12.8199 19.583C12.9665 20.6201 13.1701 22.1501 13.5165 23.1102C14.2683 24.7888 15.9117 25.3583 17.4722 26.2798C12.2638 27.9775 14.1155 31.0753 12.8145 31.8311C12.4688 31.5376 12.4795 31.4567 12.3321 31.0081C11.4731 28.3937 10.6556 27.4189 8 26.562C9.92854 25.2256 10.9917 24.9057 11.9047 22.7296C12.1701 21.727 12.4523 20.5363 12.8199 19.583Z" fill="#FED341"/>
<path d="M12.3571 24.2096C12.3942 23.9612 12.4669 23.7649 12.5435 23.5273L12.7431 23.6367C13.2774 24.8973 13.9104 25.4859 15.1019 26.2104C13.7132 27.1889 13.2524 27.6758 12.5566 29.266C12.3871 28.8689 11.9687 27.8927 11.6849 27.616C10.0048 25.9778 11.3736 26.0783 12.3571 24.2096Z" fill="#FEEF9C"/>
<path d="M21.5135 10.6968C21.9573 11.014 21.9751 11.7855 22.2339 12.3875C22.637 13.3252 23.0793 14.1049 23.5936 14.9825C24.268 15.4002 25.8442 16.0278 26.2727 16.5608C25.9492 16.8561 25.2606 17.0689 24.8214 17.3077C23.1256 18.2297 22.4046 20.3013 21.8834 22.056C21.636 22.2082 21.7558 22.1861 21.439 22.1133C21.1925 21.0732 21.3 20.2476 20.6383 19.1874C19.624 17.5619 18.575 17.2157 16.8477 16.7693C17.5254 16.3339 18.2005 15.8946 18.8732 15.4514C20.8753 14.1152 21.0745 12.8958 21.5135 10.6968Z" fill="#FED341"/>
<path d="M21.5616 14.0762C22.3593 14.8785 22.56 15.4008 23.8797 16.6128C22.9121 17.2992 22.4702 18.0102 21.7677 18.9444C21.702 18.8805 21.699 18.8906 21.6654 18.8188C21.1536 17.7247 20.4841 17.216 19.5195 16.5238C20.7077 15.749 21.211 15.4176 21.5616 14.0762Z" fill="#FEEF9C"/>
</svg>
