<svg width="292" height="91" viewBox="0 0 292 91" fill="none" xmlns="http://www.w3.org/2000/svg">
<path d="M250.931 39.9904C256.774 34.793 264.622 32.2343 272.229 34.8537C276.552 36.3426 279.459 39.0026 282.421 42.3234L283.401 40.6095L283.59 40.257C284.638 38.4012 287.167 35.2287 289.25 35.5216C291.382 36.8201 287.331 42.6471 286.683 44.4386L286.709 44.4845C287.992 46.7009 291.788 49.4318 291.722 52.5324C291.719 52.6997 291.48 53.0249 291.316 53.0509C288.146 53.5508 284.274 49.9151 282.843 47.7482L282.712 47.5431C281.689 49.4171 280.451 50.1379 278.891 51.4455C270.408 58.5561 259.668 56.9731 251.292 50.634C250.868 50.3124 250.434 50.0146 250 49.714C249.965 49.6664 249.927 49.6196 249.883 49.5763C249.832 49.5255 249.777 49.4789 249.718 49.4377L248.451 48.55C248.375 48.4851 248.297 48.4212 248.222 48.3537C248.218 48.363 248.213 48.3717 248.209 48.381L247.556 47.924C246.122 46.92 245.942 44.8649 247.18 43.6271C247.408 43.3994 247.59 43.1375 247.725 42.8556C247.745 42.8843 247.765 42.9128 247.785 42.9416C248.883 41.9767 249.873 40.9309 250.931 39.9904ZM281.324 44.4103C276.32 37.6028 267.188 33.4091 259.097 37.4269C255.537 39.1952 259.021 39.8749 259.083 41.466L258.755 41.672C257.398 41.815 255.697 40.8418 254.615 40.0988C253.054 40.9983 251.751 42.2123 250.417 43.4123C249.922 43.8582 249.484 44.5456 248.967 44.842C248.633 45.3504 248.611 45.2132 248.658 45.7111C249.075 46.2323 249.637 46.5376 249.885 46.9543C252.224 48.5833 253.14 49.5984 255.959 50.9552C257.01 50.3976 258.852 49.43 259.971 50.1252L260.009 50.4923C259.765 51.1132 259.083 51.5866 258.555 52.0334C259.964 52.9604 260.95 53.2853 262.607 53.6388C270.109 55.2385 277.496 51.2634 281.916 45.2824C281.733 44.9832 281.532 44.6946 281.324 44.4103Z" fill="#D8B991"/>
<path d="M200.636 32.8103C201.202 32.7489 201.732 32.6971 202.302 32.71C205.466 32.7817 205.963 36.2506 203.887 38.1622C203.221 38.7753 202.768 39.0305 201.925 39.3728C204.399 44.2525 203.51 58.845 203.429 64.8702C203.337 71.7326 202.725 81.7211 197.318 86.5783C193.653 90.0106 189.838 90.568 185.122 90.5702C174.488 90.5752 168.04 80.0549 176.757 72.1292C181.773 67.7282 190.568 68.5441 196.555 70.2631C196.949 67.272 196.973 63.6951 197.108 60.6461C195.174 62.6154 192.483 63.8557 189.751 64.2027C181.83 64.9942 176.34 59.7318 175.322 52.1588C173.897 41.5351 179.707 32.4174 191.128 32.895C193.625 32.9994 195.482 33.4673 197.52 35.085C198.657 33.8879 199.12 33.3931 200.636 32.8103ZM190.272 55.9861C193.806 54.5183 195 51.6391 195.18 47.9941C195.385 43.7728 193.959 39.9876 189.136 40.1611C183.73 41.9427 182.648 50.7867 186.102 54.7652C186.98 55.7776 188.976 56.3504 190.272 55.9861ZM187.572 85.3336C190.096 84.9025 192.147 83.6566 193.629 81.5477C195.058 79.5165 196.041 76.4503 196.362 73.976C193.456 73.439 190.705 72.92 187.732 73.1972C184.75 73.5988 181.779 74.1003 179.849 76.6383C178.024 79.0359 178.404 82.1418 180.873 83.8979C182.974 85.3907 185.095 85.4915 187.572 85.3336Z" fill="#F7E5B5"/>
<path d="M47.9463 7.98013C51.2395 7.89489 58.7403 7.24235 61.2501 9.23571C61.7399 9.64156 61.9334 10.6104 61.92 11.2279C61.848 14.5515 58.017 13.84 55.8399 14.1609C52.3004 14.6196 43.9194 14.1898 41.3785 16.8111C39.6606 18.5832 40.3346 31.2851 40.4131 34.0231C43.713 33.4912 47.3567 33.0974 50.5312 32.7876C55.3627 32.3162 60.4276 31.7918 57.8945 38.4514C57.2139 40.241 42.8826 40.9216 40.8091 41.0869C40.7223 44.42 41.009 49.2488 41.1023 52.6949C41.1737 54.3675 41.2573 56.036 41.3417 57.7043C41.4993 60.8254 42.9718 67.2794 38.1919 67.6941C32.5487 68.1837 32.9738 62.5903 32.8581 58.76C32.7649 55.5676 32.6938 52.3746 32.6446 49.1813C32.6149 47.2417 32.6497 44.8069 32.4527 42.9102C28.8565 43.9078 26.3922 44.488 23.6788 41.5512C23.6333 41.3127 23.5939 41.073 23.5608 40.8326C22.7607 34.9778 27.8153 35.3692 32.1763 34.797C32.0999 33.6692 32.0295 32.541 31.9652 31.4125C31.8077 28.6107 31.8119 25.4613 31.8235 22.6935C31.8937 19.4708 31.3649 14.0779 33.71 11.5431C36.4379 8.5944 44.1636 8.17846 47.9463 7.98013Z" fill="#F7E5B5"/>
<path d="M81.7785 32.8006C86.9574 32.3499 86.536 34.4852 86.2481 38.7261C88.5877 35.2684 91.195 33.2836 95.5268 32.7938C97.8594 32.5301 101.222 32.7426 103.061 34.4478C108.034 39.0581 106.682 47.4504 106.895 53.5535C106.928 54.8114 106.827 56.1043 106.951 57.3361C107.095 58.7117 108.969 59.3919 109.02 60.7865C109.147 64.2753 103.567 65.9956 101.279 63.7922C100.83 63.36 100.269 62.3368 100.19 61.6864C99.7675 58.209 99.9155 54.5518 99.8779 51.0281C99.8475 47.5665 99.9931 43.6296 98.2425 40.5213C96.9263 38.1841 93.3115 38.2674 91.3262 39.6354C85.8378 43.4179 87.1729 51.5361 87.038 57.3012C87.0043 58.747 87.1883 60.2033 86.8987 61.6313C86.4162 64.092 84.4915 65.2324 82.0863 64.7167C81.1567 64.5173 80.4452 63.7182 80.066 62.8577C79.6777 61.9766 79.8002 60.7259 79.7135 59.7676C79.6789 53.5301 79.9349 47.2884 79.7147 41.0515C79.6569 39.3091 79.4258 36.0312 79.6813 34.2622C79.7723 33.6319 81.1275 33.0374 81.7785 32.8006Z" fill="#F7E5B5"/>
<path d="M148.987 39.2998C149.562 38.4064 150.073 37.6109 150.793 36.8181C152.959 34.4566 155.977 33.0552 159.178 32.9243C172.148 32.3166 168.946 49.5952 169.528 57.906C169.593 58.8286 170.245 59.352 170.755 60.0288C172.639 62.857 169.518 64.9261 166.882 64.9745C161.048 65.0818 162.498 55.8351 162.508 51.2261C162.519 49.7772 162.523 48.3235 162.416 46.8776C162.249 44.6295 161.939 41.2406 160.134 39.7117C159.27 38.9803 158.205 38.6981 157.093 38.793C155.784 38.9046 154.48 39.5432 153.5 40.4013C147.129 45.9742 152.064 60.4745 149.107 63.8702C148.482 64.589 147.632 64.8587 146.708 64.9099C145.838 64.9582 144.83 64.829 144.17 64.2139C143.491 63.5821 143.24 62.5878 143.139 61.6952C142.96 60.1076 143.067 58.4333 143.088 56.8372L143.155 49.4548C143.176 45.5139 143.157 41.4725 142.822 37.5431C142.746 36.6523 142.681 35.7763 142.631 34.8837C143.509 33.3558 143.788 33.2307 145.523 32.9674C146.386 32.8921 146.935 33.0283 147.784 33.1848C150.129 35.4213 149.684 36.4207 148.987 39.2998Z" fill="#F7E5B5"/>
<path d="M219.71 32.9804C220.33 32.9427 220.953 32.9194 221.573 32.91C224.881 32.8794 228.003 33.3669 230.561 35.6728C231.708 36.7068 232.413 39.1925 231.057 40.3299C228.556 42.3405 226.904 39.6677 224.994 38.593C219.208 35.3379 213.002 41.9142 221.262 45.3439C226.375 47.4673 234.729 49.8365 234.822 56.5388C234.884 60.9766 231.354 64.1118 227.364 65.3561C224.921 66.1413 223.36 66.1341 220.841 66.1036C216.586 66.0271 210.398 64.3635 209.538 59.4151C209.245 57.742 210.653 55.936 212.334 55.7676C214.249 55.576 215.751 57.9663 217.085 58.9864C218.917 60.4565 220.593 60.639 222.881 60.51C225.31 60.3731 227.742 58.8365 227.472 56.0955C227.207 53.3935 223.228 52.0004 220.935 51.2C216.419 49.6241 210.803 47.8487 210.103 42.2738C209.868 40.4493 210.651 38.1848 211.813 36.7665C213.752 34.3996 216.759 33.2887 219.71 32.9804Z" fill="#F7E5B5"/>
<path d="M118.789 8.87695C119.621 8.90377 120.066 9.02263 120.876 9.21034C121.518 9.72104 122.402 10.6142 122.44 11.4595C122.738 17.9908 122.028 24.9484 121.736 31.4451C121.521 37.0913 121.352 42.7392 121.227 48.3882C121.167 50.9636 120.86 56.6013 121.335 58.7853C124.025 61.2376 123.466 63.45 120.087 64.5868C114.518 65.3003 114.414 61.8862 114.321 57.5451C114.221 52.9048 114.296 48.309 114.452 43.6723L114.946 26.7524C115.047 23.8476 115.121 20.942 115.169 18.0358C115.205 15.8243 114.926 11.77 116.126 9.83071C116.627 9.01992 117.899 8.96523 118.789 8.87695Z" fill="#F7E5B5"/>
<path d="M127.796 33.8225C129.164 32.3067 130.538 31.5877 132.584 31.4677C136.074 31.2632 138.589 33.2139 138.604 36.8156C138.618 40.2084 138.561 43.584 138.482 46.9741C138.282 51.4613 138.271 56.0427 138.296 60.5313C138.318 64.3107 136.411 66.803 132.451 66.6811C126.431 66.4958 127.085 61.2483 127.086 56.8362C127.098 53.5013 127.144 50.1665 127.224 46.8323C127.272 43.3974 127.101 36.8752 127.796 33.8225Z" fill="#F7E5B5"/>
<path d="M65.2786 34.6135C65.8698 33.62 66.3297 33.0273 67.531 32.7242C69.1382 32.3188 72.1012 32.596 72.4717 34.5982C72.7887 36.3112 72.701 38.5861 72.7016 40.3768L72.7116 49.1941C72.7456 53.1559 72.9499 57.1184 72.9697 61.0813C72.9724 61.6432 72.8829 63.0058 72.5695 63.5168C71.6172 65.0067 68.9096 65.3901 67.4329 64.5588C66.7059 64.1497 66.3163 62.9317 66.1921 62.137C65.7273 59.1615 66.382 55.3893 65.9272 52.4911C65.8733 52.9317 65.8493 53.4857 65.8166 53.9379C65.6563 53.2491 65.8658 50.4752 65.6403 50.192C65.281 51.1569 65.7637 51.5433 65.5162 52.423L65.3789 52.3495C65.3358 50.7899 65.284 47.965 65.5041 46.4624L65.6274 46.4669L65.592 46.3835C65.7695 46.7518 65.8058 47.0748 65.8774 47.4757C65.896 43.3302 65.2637 38.8103 65.2786 34.6135Z" fill="#F7E5B5"/>
<path d="M65.9272 52.4909C65.8733 52.9316 65.8494 53.4855 65.8167 53.9378C65.6563 53.249 65.8658 50.4751 65.6404 50.1919C65.281 51.1568 65.7638 51.5432 65.5162 52.4228L65.379 52.3493C65.3359 50.7898 65.284 47.9648 65.5042 46.4622L65.6274 46.4668L65.592 46.3833C65.7695 46.7516 65.8058 47.0746 65.8774 47.4755C65.9015 48.9333 66.0021 51.0867 65.9272 52.4909Z" fill="#2A38B1"/>
<path d="M67.9933 18.0298C72.3533 17.7351 75.5921 19.6104 74.7348 24.4449C74.3733 24.2278 74.0529 24.6844 73.8017 24.9738C71.607 27.5028 68.5128 27.1748 65.4613 25.9288C62.8711 22.3023 64.2222 20.7603 67.0509 18.2562C67.3797 18.2048 67.6732 18.1176 67.9933 18.0298Z" fill="#FEEF9C"/>
<path d="M131.993 17.0298C136.353 16.7351 139.592 18.6104 138.735 23.4449C138.373 23.2278 138.053 23.6844 137.802 23.9738C135.607 26.5028 132.513 26.1748 129.461 24.9288C126.871 21.3023 128.222 19.7603 131.051 17.2562C131.38 17.2048 131.673 17.1176 131.993 17.0298Z" fill="#FEEF9C"/>
<path d="M64.5241 19.8115C65.4459 18.9093 65.8205 18.6265 67.0511 18.2563C64.2223 20.7604 62.8712 22.3025 65.4614 25.9289C68.5129 27.1749 71.6071 27.5029 73.8018 24.974C74.053 24.6846 74.3735 24.2279 74.7349 24.445C73.3516 29.2533 64.0046 29.1204 63.3968 23.4988C63.222 21.8829 63.6026 21.0617 64.5241 19.8115Z" fill="#FED341"/>
<path d="M128.524 18.8115C129.446 17.9093 129.821 17.6265 131.051 17.2563C128.222 19.7604 126.871 21.3025 129.461 24.9289C132.513 26.1749 135.607 26.5029 137.802 23.974C138.053 23.6846 138.373 23.2279 138.735 23.445C137.352 28.2533 128.005 28.1204 127.397 22.4988C127.222 20.8829 127.603 20.0617 128.524 18.8115Z" fill="#FED341"/>
<path d="M288.406 36.8423C287.352 39.6609 286.817 40.9359 285.345 43.531C285.931 45.3934 287.177 46.7662 288.14 48.4489C288.782 49.5691 289.38 50.6659 290.053 51.7701C286.71 50.0792 286.06 49.6354 283.341 47.031C283.451 46.5908 284.109 45.184 284.314 44.7294C283.684 43.5831 283.143 43.2324 283.969 42.1429C285.735 40.1685 285.691 38.9297 288.406 36.8423Z" fill="#F7E5B5"/>
<path d="M12.8199 27.3936C12.9665 28.4306 13.1701 29.9606 13.5165 30.9207C14.2683 32.5994 15.9117 33.1688 17.4722 34.0904C12.2638 35.788 14.1155 38.8858 12.8145 39.6416C12.4688 39.3482 12.4795 39.2673 12.3321 38.8186C11.4731 36.2043 10.6556 35.2294 8 34.3725C9.92854 33.0361 10.9917 32.7163 11.9047 30.5402C12.1701 29.5376 12.4523 28.3469 12.8199 27.3936Z" fill="#FED341"/>
<path d="M12.3571 32.0202C12.3942 31.7718 12.4669 31.5755 12.5435 31.3379L12.7431 31.4473C13.2774 32.7079 13.9104 33.2965 15.1019 34.021C13.7132 34.9994 13.2524 35.4863 12.5566 37.0766C12.3871 36.6795 11.9687 35.7033 11.6849 35.4265C10.0048 33.7884 11.3736 33.8888 12.3571 32.0202Z" fill="#FEEF9C"/>
<path d="M21.5135 18.5073C21.9573 18.8246 21.9751 19.5961 22.2339 20.1981C22.637 21.1357 23.0793 21.9155 23.5936 22.793C24.268 23.2107 25.8442 23.8384 26.2727 24.3714C25.9492 24.6666 25.2606 24.8795 24.8214 25.1183C23.1256 26.0402 22.4046 28.1118 21.8834 29.8666C21.636 30.0187 21.7558 29.9966 21.439 29.9238C21.1925 28.8838 21.3 28.0582 20.6383 26.9979C19.624 25.3724 18.575 25.0262 16.8477 24.5798C17.5254 24.1445 18.2005 23.7052 18.8732 23.262C20.8753 21.9257 21.0745 20.7064 21.5135 18.5073Z" fill="#FED341"/>
<path d="M21.5616 21.8867C22.3593 22.6891 22.56 23.2114 23.8797 24.4234C22.9121 25.1097 22.4702 25.8208 21.7677 26.755C21.702 26.6911 21.699 26.7012 21.6654 26.6293C21.1536 25.5353 20.4841 25.0266 19.5195 24.3343C20.7077 23.5595 21.211 23.2281 21.5616 21.8867Z" fill="#FEEF9C"/>
</svg>
