<svg width="54" height="167" viewBox="0 0 54 167" fill="none" xmlns="http://www.w3.org/2000/svg">
<path d="M21.5956 156.828C21.0696 152.581 13.2747 151.006 13.8567 146.766C13.9727 145.919 14.4506 145.121 14.4286 144.268C14.3636 141.714 10.5076 141.066 8.58765 139.215C6.62765 137.325 6.94765 134.166 8.44565 131.95C9.94365 129.733 12.3436 128.189 14.5386 126.531C19.2456 122.974 23.5116 117.909 22.7926 112.356C22.3046 108.595 19.5627 105.166 19.8607 101.388C20.1277 97.9952 22.7626 95.2252 24.9786 92.4962C28.5016 88.1572 31.2457 83.2882 33.0667 78.1432C33.3317 77.3942 33.5366 76.4662 32.9316 75.9062C32.5636 75.5652 32.0016 75.4802 31.4786 75.4722C29.1506 75.4362 26.8506 76.6712 25.7466 78.5512C23.8666 81.7512 25.2946 86.3242 22.4156 88.8222C20.6426 90.3602 17.8837 90.4462 15.8257 91.6512C13.4457 93.0442 12.3327 95.8412 12.6227 98.4162C12.9127 100.991 14.4186 103.342 16.3146 105.259C16.6956 105.644 17.1237 106.15 16.8997 106.628C16.5697 107.331 15.4387 107.023 14.6067 107.087C12.5087 107.247 12.2606 110.079 13.2036 111.804C14.1466 113.529 15.6847 115.343 14.9947 117.166C14.2587 119.11 11.5807 119.575 9.41666 120.121C7.25266 120.667 4.80465 122.478 5.74265 124.348C6.05565 124.971 6.70164 125.422 6.97064 126.062C7.65864 127.703 5.64563 129.126 4.06863 130.127C2.27063 131.268 0.614659 132.803 0.119659 134.755C-0.375341 136.708 0.69365 139.08 2.80365 139.606C3.35265 139.743 3.95565 139.76 4.42865 140.051C5.72565 140.848 4.96564 142.653 4.46164 144.008C3.58364 146.365 4.54563 149.633 7.21964 150.076C8.01664 150.208 8.87265 150.07 9.61865 150.357C11.6227 151.128 11.1327 153.907 12.2957 155.589C13.0797 156.722 14.7396 157.273 16.1336 156.862C14.3036 157.402 22.0287 168.596 27.3787 165.934C29.4097 164.923 27.7846 163.327 26.1956 162.268C22.9396 160.096 22.0816 160.755 21.5956 156.828Z" fill="#255B06"/>
<path d="M25.9748 154.82L24.7858 137.637C24.3538 131.925 23.8768 126.152 21.6698 120.804C20.6458 118.112 19.4268 115.411 18.9658 112.477C18.5058 109.526 18.9698 106.591 19.3388 103.762C19.7228 100.93 19.9628 98.1021 19.2448 95.4211C18.5438 92.7141 17.0738 90.1001 16.6618 87.0841C16.4438 85.5931 16.6898 83.9471 17.5318 82.5761C17.9618 81.8981 18.4608 81.3551 18.7538 80.7861C18.8538 80.4861 19.0178 80.1991 19.0718 79.8871C19.1138 79.5731 19.1968 79.2631 19.1518 78.9361C19.1078 77.6371 18.4978 76.3301 17.8088 75.0691C17.1218 73.7981 16.3368 72.5351 15.7648 71.1481C15.1958 69.7841 14.8538 68.1791 15.4008 66.6861C15.9248 65.2241 16.9608 64.0881 17.4418 62.8041C17.6798 62.1701 17.7348 61.5051 17.4928 60.8961C17.2668 60.2851 16.7618 59.7671 16.2008 59.2991C15.6358 58.8281 14.9988 58.4041 14.4128 57.8941C13.8288 57.3961 13.2768 56.7731 13.0438 56.0221C12.7888 55.2831 12.8188 54.5001 12.9628 53.7751C13.1058 53.0441 13.3668 52.3561 13.6098 51.6731C13.8538 50.9911 14.1168 50.3191 14.2718 49.6351C14.4278 48.9561 14.4838 48.2551 14.2738 47.6161C14.0718 46.9741 13.6028 46.4321 13.0118 45.9911C12.4268 45.5411 11.7628 45.1641 11.1238 44.7301C10.5038 44.2961 9.81178 43.7851 9.58478 42.9711C9.50678 42.5711 9.54077 42.1551 9.70877 41.7851C9.87577 41.4201 10.1208 41.1171 10.3368 40.8251C11.2458 39.7011 11.3018 38.2391 11.1418 36.8431C11.0688 36.1371 10.9428 35.4321 10.8588 34.7081C10.7738 33.9791 10.7678 33.2391 10.8728 32.5021C10.9848 31.7681 11.2168 31.0271 11.6808 30.3761C11.9188 30.0561 12.2178 29.7701 12.5618 29.5361C12.9078 29.3191 13.2958 29.1011 13.8018 29.0831C14.3168 29.0691 14.7568 29.3191 15.0678 29.5911C15.2348 29.7271 15.3548 29.8871 15.4768 30.0441C15.5948 30.2051 15.7428 30.3501 15.8188 30.5331C16.2388 31.2191 16.3618 32.0031 16.3868 32.7441C16.4328 34.2441 16.0538 35.6641 15.9258 37.0631C15.7648 38.4501 15.8638 39.8721 16.7288 40.9261C17.1588 41.4651 17.7378 41.9581 18.2268 42.5981C18.7378 43.2271 19.0048 44.1101 18.9388 44.8931C18.8238 46.4751 18.0978 47.7671 18.2668 49.0771C18.3688 50.3991 18.9758 51.6821 19.6788 52.9371C20.3758 54.1961 21.1828 55.4591 21.7438 56.8781C22.0068 57.5941 22.2168 58.3461 22.2628 59.1341C22.2758 59.5241 22.2638 59.9251 22.2148 60.3151C22.1568 60.7041 22.0658 61.0701 21.9788 61.4211C21.8038 62.1211 21.6368 62.7791 21.7018 63.3611C21.7508 63.9331 22.0648 64.4601 22.5018 65.0201C22.9328 65.5671 23.4628 66.1881 23.8298 66.9001C24.2248 67.5931 24.4628 68.3471 24.6298 69.1021C24.9328 70.6241 24.7998 72.1371 24.5948 73.5851C24.1698 76.4751 23.3398 79.2631 23.5918 81.9741C23.8098 84.6711 25.4398 87.1851 26.2168 90.1161C26.6208 91.5631 26.6878 93.2321 26.2218 94.7151C25.7948 96.1851 25.1408 97.4821 24.9228 98.7741C24.7088 100.065 24.8948 101.402 25.3338 102.704C25.7798 104.009 26.4268 105.284 27.1028 106.574C27.7748 107.867 28.4808 109.177 29.0188 110.586C29.5578 112 29.8768 113.491 29.9878 114.967C30.2298 117.933 29.8188 120.838 29.4428 123.675C29.0688 126.511 28.8068 129.355 28.6658 132.209C28.5288 135.062 28.4908 137.92 28.5598 140.778C28.6248 143.638 28.8438 146.486 29.1128 149.349C29.3678 152.21 29.5918 155.099 29.3758 157.988C29.1448 160.864 28.4168 163.757 26.8378 166.278L26.6448 166.586L26.5728 166.24C26.1828 164.352 26.0568 162.441 25.9788 160.535C25.9118 158.633 25.9138 156.721 25.9748 154.82ZM26.1218 154.818C26.0848 156.727 26.1058 158.628 26.1988 160.531C26.2988 162.43 26.4488 164.335 26.8568 166.191L26.5928 166.152C27.3498 164.91 27.9118 163.572 28.2818 162.191C28.6468 160.808 28.8338 159.39 28.9058 157.967C29.0328 155.117 28.7258 152.266 28.3858 149.418C27.6308 143.717 27.2208 137.938 27.4188 132.172C27.5048 129.289 27.7128 126.406 28.0338 123.537C28.3368 120.679 28.7418 117.85 28.4988 115.078C28.3888 113.692 28.0928 112.344 27.5968 111.049C27.0968 109.748 26.4118 108.479 25.7328 107.185C25.0508 105.892 24.3628 104.56 23.8678 103.125C23.3788 101.694 23.1368 100.114 23.3928 98.5591C23.6638 97.0031 24.3468 95.6641 24.7098 94.3581C25.0928 93.0701 25.0608 91.7751 24.7128 90.4431C24.0658 87.7921 22.3838 85.1861 22.1248 82.0931C21.8818 79.0391 22.7898 76.1931 23.2078 73.4161C23.4178 72.0291 23.5398 70.6391 23.2858 69.3261C23.1438 68.6761 22.9508 68.0381 22.6238 67.4561C22.3268 66.8611 21.8938 66.3421 21.4128 65.7241C20.9518 65.1231 20.4708 64.3451 20.4088 63.4681C20.3358 62.6101 20.5698 61.8511 20.7458 61.1601C20.8378 60.8131 20.9248 60.4801 20.9768 60.1571C21.0198 59.8361 21.0328 59.5151 21.0288 59.1911C21.0008 58.5421 20.8328 57.8901 20.6068 57.2451C20.1188 55.9541 19.3598 54.7151 18.6588 53.4101C18.3018 52.7631 17.9808 52.0791 17.6988 51.3781C17.4508 50.6611 17.2338 49.9171 17.2048 49.1371C17.0728 47.5341 17.8838 46.1321 17.9718 44.8481C18.0248 44.1981 17.8698 43.6181 17.4638 43.0761C17.0698 42.5281 16.5038 42.0231 16.0188 41.3961C15.7638 41.0861 15.5968 40.7141 15.4218 40.3581C15.2958 39.9881 15.1638 39.6111 15.1288 39.2311C15.0118 38.4711 15.0568 37.7191 15.1488 36.9941C15.3158 35.5401 15.7098 34.1421 15.6898 32.7621C15.6798 32.0801 15.5818 31.3951 15.2378 30.8151C15.1788 30.6561 15.0518 30.5351 14.9558 30.3971C14.8548 30.2611 14.7558 30.1211 14.6288 30.0161C14.3848 29.7951 14.0968 29.6461 13.8158 29.6511C13.5268 29.6491 13.2008 29.8021 12.9068 29.9851C12.6188 30.1751 12.3658 30.4071 12.1558 30.6771C11.7458 31.2251 11.5178 31.8921 11.4128 32.5761C11.1778 33.9561 11.5048 35.3561 11.6548 36.8041C11.7268 37.5261 11.7558 38.2671 11.6368 39.0071C11.5258 39.7431 11.2118 40.4811 10.7368 41.0821C10.5108 41.3811 10.2878 41.6611 10.1488 41.9591C10.0118 42.2521 9.98976 42.5801 10.0428 42.8831C10.2008 43.4981 10.7928 43.9821 11.3968 44.4021C12.0118 44.8251 12.6768 45.2151 13.2998 45.6791C13.9238 46.1341 14.4848 46.7541 14.7248 47.4961C14.9738 48.2351 14.9098 49.0131 14.7528 49.7311C14.5948 50.4561 14.3328 51.1401 14.0968 51.8231C13.6248 53.1641 13.1208 54.5861 13.5718 55.8721C13.7738 56.5111 14.2498 57.0461 14.8068 57.5151C15.3618 57.9891 15.9948 58.4111 16.6008 58.8931C17.1988 59.3711 17.8028 59.9431 18.1058 60.6951C18.2718 61.0641 18.3208 61.4661 18.3288 61.8601C18.3148 62.2551 18.2348 62.6411 18.1118 63.0061C17.5908 64.4541 16.5868 65.6131 16.1728 66.9071C15.7358 68.1911 16.0508 69.5741 16.6148 70.8511C17.1798 72.1411 17.9768 73.3681 18.7098 74.6521C19.4358 75.9291 20.1608 77.3121 20.2618 78.9001C20.3178 79.2921 20.2388 79.6911 20.1868 80.0891C20.1238 80.4841 19.9388 80.8571 19.8068 81.2381C19.4368 81.9761 18.9248 82.5491 18.5878 83.1221C17.9148 84.2731 17.6968 85.6091 17.9018 86.9551C18.2768 89.6711 19.7368 92.2701 20.5188 95.1371C21.3488 98.0611 20.9988 101.078 20.5828 103.908C20.1678 106.754 19.6948 109.574 20.0898 112.34C20.4698 115.115 21.5498 117.81 22.5098 120.549C23.5108 123.288 24.1618 126.152 24.5138 129.014C24.8818 131.88 25.0138 134.754 25.1528 137.621L26.1218 154.818Z" fill="#103E00"/>
<path d="M26.0488 154.819C25.6848 149.019 25.3198 143.219 24.9558 137.419C24.6538 132.61 24.3438 127.756 22.9238 123.118C21.7418 119.256 19.7938 115.547 19.4218 111.551C18.9358 106.335 21.1857 101.044 20.0427 95.9151C19.0587 91.4971 15.6598 86.8561 18.0258 82.9031C18.4168 82.2511 18.9488 81.6721 19.2888 80.9961C21.5508 76.4951 14.3388 71.7981 15.7168 67.0061C16.3098 64.9431 18.4718 63.1311 17.8968 61.0631C17.3228 58.9991 14.3687 58.2311 13.4307 56.2821C11.9827 53.2731 16.0988 49.4941 14.1068 46.7591C12.8228 44.9971 9.32575 44.2611 9.81875 42.1911C9.96075 41.5931 10.4488 41.1251 10.7888 40.5991C11.8778 38.9111 11.3858 36.7891 11.1398 34.8411C10.8938 32.8931 11.1618 30.5351 13.0338 29.5861C13.2998 29.4511 13.5968 29.3521 13.8998 29.3691C14.3478 29.3941 14.7348 29.6671 15.0278 29.9781C17.6808 32.8001 14.0798 37.5621 16.1098 40.7891C16.7478 41.8031 17.8908 42.5391 18.2978 43.6481C18.8318 45.1031 17.9318 46.6431 17.7508 48.1701C17.2568 52.3461 22.1288 55.8781 21.6218 60.0531C21.4678 61.3191 20.8148 62.5751 21.1198 63.8181C21.3748 64.8601 22.2518 65.6621 22.8708 66.5671C26.0188 71.1721 22.1338 77.1711 22.9068 82.5591C23.4388 86.2651 26.2038 89.6731 25.7148 93.3841C25.4718 95.2231 24.4378 96.9091 24.1438 98.7421C23.4258 103.222 27.1398 107.183 28.5598 111.52C29.9028 115.621 29.1558 120.014 28.6598 124.272C27.7888 131.745 27.7268 139.298 28.4768 146.782C29.1368 153.369 30.3098 160.482 26.7148 166.217C25.8018 162.181 26.0488 154.819 26.0488 154.819Z" fill="#276A05"/>
<path d="M12.9968 38.5282C12.3158 36.4772 11.6268 34.3822 11.6918 32.2392C11.7008 31.9592 11.7258 31.6672 11.8798 31.4252C12.3198 30.7322 13.5657 30.8972 14.0987 31.5332C14.6307 32.1702 14.6537 33.0362 14.6547 33.8382C14.6547 34.8092 14.6538 35.7952 14.3608 36.7272C14.0688 37.6602 13.4418 38.5502 12.4888 38.9732L12.9968 38.5282Z" fill="#3D7C18"/>
<path d="M12.0648 41.1331C11.1558 41.2391 10.3138 41.7501 9.85376 42.4761C12.3288 43.2161 13.9058 46.0721 16.5048 45.9411C16.6918 45.9321 16.8898 45.9011 17.0288 45.7861C17.3268 45.5411 17.1908 45.0921 17.0048 44.7661C15.8598 42.7561 13.6058 41.3121 11.1538 41.0171L12.0648 41.1331Z" fill="#3D7C18"/>
<path d="M13.8928 54.042C13.7628 55.02 14.0778 56.086 14.8938 56.727C15.5538 57.245 16.4558 57.438 17.1348 57.935C17.9038 58.497 18.3008 59.381 18.5478 60.254C18.6798 60.722 19.0648 61.338 19.5358 61.121C20.3558 60.039 19.7988 58.566 19.2208 57.36C18.5828 56.028 17.9448 54.696 17.3058 53.363C16.1148 50.876 14.2298 51.508 13.8928 54.042Z" fill="#3D7C18"/>
<path d="M18.1678 72.0211C18.5538 72.2931 19.0108 72.5011 19.2938 72.8641C19.5098 73.1421 19.6008 73.4831 19.6878 73.8151C20.1098 75.4301 20.5318 77.0451 20.9538 78.6591C21.3618 77.1151 21.7698 75.5721 22.1778 74.0281C22.3918 73.2191 22.6068 72.4001 22.5848 71.5681C22.5388 69.8041 20.7458 65.3411 18.1868 65.8011C15.2038 66.3381 16.5118 70.8541 18.1678 72.0211Z" fill="#3D7C18"/>
<path d="M18.4647 85.9792C18.6297 87.4002 19.3316 88.7132 19.8876 90.0482C20.7096 92.0222 21.2246 94.0912 21.7176 96.1552C22.9276 95.8192 23.6786 94.6452 23.8056 93.4922C23.9336 92.3392 23.5616 91.1932 23.1806 90.0872C22.7206 88.7512 21.9926 84.5192 20.7496 83.6482C18.9326 82.3742 18.2917 84.4942 18.4647 85.9792Z" fill="#3D7C18"/>
<path d="M19.8988 111.834C20.2678 114.597 22.2608 116.928 23.2768 119.551C23.6838 120.602 23.9328 121.698 24.1798 122.79C24.6028 124.656 25.0248 126.522 25.4478 128.388C26.9258 123.722 28.4128 118.786 27.1238 114.073C25.9498 109.782 22.3488 106.39 21.2168 102.132C21.2868 105.416 19.4588 108.54 19.8988 111.834Z" fill="#3D7C18"/>
<path d="M22.3646 153.452C19.0496 145.664 17.5986 141.699 15.1186 133.671C13.0216 127.006 11.2696 120.232 8.00863 113.971C6.45763 110.81 4.73465 107.591 3.87765 103.999C3.01865 100.387 3.26965 96.7312 3.54165 93.2422C3.83065 89.7482 4.07663 86.2922 3.29263 82.9492C2.52863 79.5752 0.916627 76.2142 0.654627 72.4072C0.508627 70.5242 0.950634 68.4872 2.11263 66.8962C2.70263 66.1112 3.36865 65.5082 3.79565 64.8502C3.95465 64.4942 4.19065 64.1652 4.29965 63.7892C4.39465 63.4092 4.53765 63.0402 4.53265 62.6322C4.67165 61.0292 4.14663 59.3262 3.52963 57.6452C2.91663 55.9532 2.19265 54.2342 1.77065 52.3872C1.34765 50.5702 1.26964 48.4802 2.29864 46.7532C3.29264 45.0602 4.87164 43.9182 5.82064 42.4732C6.29064 41.7592 6.54563 40.9632 6.41863 40.1512C6.31263 39.3412 5.83365 38.5642 5.27065 37.8272C4.70265 37.0852 4.03163 36.3742 3.45263 35.5652C2.87263 34.7722 2.36964 33.8272 2.31664 32.8162C2.23164 31.8142 2.52563 30.8452 2.95263 29.9892C3.37963 29.1252 3.94963 28.3592 4.49963 27.5962C5.05163 26.8362 5.62964 26.0992 6.08264 25.3142C6.53464 24.5342 6.87365 23.6972 6.85665 22.8352C6.84965 21.9722 6.46866 21.1292 5.89166 20.3572C5.32666 19.5762 4.63165 18.8512 3.99465 18.0572C3.38165 17.2722 2.70563 16.3552 2.75863 15.2422C2.82763 14.7092 3.04865 14.2002 3.42465 13.8082C3.79665 13.4212 4.24264 13.1462 4.64864 12.8742C6.30964 11.8602 7.05065 10.0892 7.50765 8.2982C7.74965 7.3952 7.92863 6.4712 8.17663 5.5412C8.42663 4.6052 8.79064 3.6932 9.30264 2.8412C9.82264 1.9962 10.5076 1.2052 11.4526 0.649199C11.9296 0.380199 12.4686 0.185198 13.0386 0.077198C13.6016 -0.00880197 14.2216 -0.0718022 14.8846 0.166198C15.5576 0.414198 15.9906 0.935198 16.2456 1.4162C16.3876 1.6622 16.4566 1.9122 16.5306 2.1612C16.5966 2.4112 16.7106 2.6572 16.7116 2.9112C16.8896 3.9322 16.6376 4.9172 16.2896 5.8062C15.5776 7.6042 14.3886 9.1132 13.5536 10.7282C12.6826 12.3142 12.1586 14.0742 12.7956 15.7002C13.1056 16.5272 13.6286 17.3562 13.9746 18.3192C14.3546 19.2772 14.3156 20.4282 13.9046 21.3332C13.0956 23.1672 11.6576 24.4432 11.3686 26.0772C10.9896 27.7002 11.2886 29.4582 11.7306 31.1942C12.1636 32.9332 12.7476 34.6962 12.9876 36.5522C13.0836 37.4832 13.1057 38.4372 12.9167 39.3852C12.8107 39.8522 12.6727 40.3252 12.4947 40.7742C12.3057 41.2202 12.0826 41.6302 11.8706 42.0252C11.4476 42.8112 11.0527 43.5542 10.9727 44.2682C10.8747 44.9652 11.1227 45.6772 11.5167 46.4532C11.9057 47.2122 12.3997 48.0792 12.6717 49.0102C12.9827 49.9242 13.0897 50.8702 13.1157 51.8002C13.1237 53.6672 12.6246 55.4252 12.0786 57.1062C10.9696 60.4572 9.50464 63.6752 9.43664 66.9642C9.32964 70.2322 10.9876 73.4282 11.6576 76.9752C12.0126 78.7282 11.9766 80.7052 11.3706 82.4462C10.8096 84.1732 10.0276 85.7012 9.76565 87.2452C9.50865 88.7882 9.73065 90.4002 10.2487 91.9602C10.7757 93.5242 11.5396 95.0412 12.3456 96.5582C13.1466 98.0782 13.9936 99.6012 14.6736 101.234C15.3546 102.872 15.8156 104.596 16.0746 106.314C16.6146 109.764 16.5467 113.184 16.6197 116.543C16.6937 119.9 16.9936 123.266 17.5156 126.618C18.0416 129.969 18.7666 133.306 19.6866 136.604C20.6036 139.906 21.7516 143.144 23.0316 146.359C24.2976 149.575 25.6226 152.799 26.6696 156.13C27.6986 159.45 28.4196 162.917 28.4136 166.26C28.4136 166.423 28.4136 166.505 28.4136 166.668C28.3196 166.521 28.2727 166.447 28.1797 166.3C26.9057 164.293 25.8656 162.159 24.9106 160.006C23.9616 157.853 23.1136 155.658 22.3646 153.452ZM22.4936 153.41C23.2636 155.617 24.1267 157.793 25.0897 159.935C26.0567 162.071 27.1117 164.19 28.3787 166.153C28.2847 166.169 28.2376 166.177 28.1446 166.193C28.1306 164.551 27.9447 162.87 27.6107 161.199C27.2717 159.527 26.7986 157.87 26.2506 156.237C25.1366 152.969 23.7426 149.803 22.3906 146.614C19.6176 140.248 17.4327 133.57 16.2577 126.773C15.6567 123.377 15.2787 119.953 15.1287 116.542C14.9617 113.145 15.0207 109.79 14.4777 106.543C14.2187 104.919 13.7836 103.349 13.1446 101.84C12.5016 100.324 11.6687 98.8412 10.8477 97.3112C10.0237 95.7822 9.19965 94.1902 8.60265 92.4592C8.01365 90.7332 7.71265 88.8112 8.01565 86.9392C8.33465 85.0662 9.15663 83.4812 9.63363 81.9342C10.1326 80.4092 10.1766 78.8632 9.86764 77.2392C9.30664 74.0112 7.56565 70.6852 7.66165 66.9062C7.77165 63.1762 9.34465 59.8782 10.4167 56.6352C10.9537 55.0162 11.4096 53.3862 11.4056 51.7652C11.3836 50.9592 11.2996 50.1552 11.0396 49.3842C10.8206 48.6052 10.4156 47.8812 9.97863 47.0212C9.56263 46.1872 9.16963 45.1272 9.33163 44.0542C9.47663 43.0012 9.98263 42.1492 10.4056 41.3682C10.6226 40.9772 10.8296 40.6022 10.9916 40.2312C11.1416 39.8592 11.2566 39.4782 11.3516 39.0902C11.5176 38.3062 11.5126 37.4772 11.4376 36.6382C11.2426 34.9462 10.7026 33.2212 10.2736 31.4182C10.0486 30.5202 9.88664 29.5872 9.78564 28.6422C9.73264 27.6902 9.73463 26.7132 9.99563 25.7602C10.4406 23.7762 12.0397 22.3952 12.6887 20.8952C13.0287 20.1392 13.0767 19.3872 12.7917 18.5742C12.5237 17.7592 12.0196 16.9202 11.6766 15.9632C11.4876 15.4832 11.4386 14.9642 11.3746 14.4602C11.3796 13.9602 11.3817 13.4492 11.5117 12.9742C11.7107 12.0072 12.1206 11.1202 12.5866 10.2902C13.4966 8.6182 14.6976 7.1352 15.3796 5.4852C15.7166 4.6692 15.9487 3.8102 15.8097 2.9492C15.8177 2.7322 15.7176 2.5242 15.6676 2.3112C15.6096 2.0982 15.5566 1.8822 15.4486 1.6932C15.2516 1.3072 14.9606 0.983198 14.5946 0.847198C14.2226 0.697198 13.7196 0.716198 13.2416 0.787198C12.7686 0.870198 12.3176 1.0232 11.9056 1.2452C11.0866 1.7032 10.4466 2.4042 9.96163 3.1872C8.95263 4.7572 8.68266 6.6302 8.18466 8.4752C7.93366 9.3942 7.62365 10.3162 7.13265 11.1752C6.65365 12.0332 5.91866 12.8092 5.04666 13.3542C4.62666 13.6292 4.21765 13.8852 3.91165 14.2002C3.60965 14.5092 3.44164 14.9102 3.38064 15.3112C3.32264 16.1442 3.87764 16.9882 4.47564 17.7502C5.08664 18.5212 5.77563 19.2642 6.38363 20.0772C6.99563 20.8782 7.46164 21.8522 7.47564 22.8502C7.50264 23.8472 7.12363 24.7742 6.65563 25.5992C6.18363 26.4322 5.60263 27.1822 5.06063 27.9442C3.98563 29.4382 2.87164 31.0492 3.02664 32.7912C3.07564 33.6492 3.50663 34.4612 4.06063 35.2102C4.61063 35.9642 5.27664 36.6732 5.88964 37.4402C6.49464 38.2012 7.07864 39.0722 7.23864 40.0732C7.33864 40.5692 7.28365 41.0712 7.18365 41.5542C7.05465 42.0322 6.84863 42.4812 6.59463 42.8942C5.55163 44.5252 4.01364 45.7032 3.19564 47.2072C2.35164 48.6942 2.43865 50.4912 2.86865 52.1922C3.29665 53.9092 4.03363 55.5802 4.69463 57.2922C5.34763 58.9932 5.98863 60.8022 5.87063 62.7552C5.87863 63.2432 5.72565 63.7172 5.60665 64.1962C5.47465 64.6702 5.20165 65.0992 4.99365 65.5482C4.45365 66.4002 3.77263 67.0382 3.30663 67.7032C2.37463 69.0392 1.98963 70.6782 2.12463 72.3692C2.35163 75.7772 3.92563 79.1052 4.76263 82.6592C5.65363 86.2852 5.27365 89.9442 4.93865 93.4152C4.60665 96.9052 4.32763 100.398 5.07763 103.768C5.81263 107.15 7.36565 110.362 8.84265 113.575C10.3626 116.784 11.5896 120.127 12.5966 123.484C13.6216 126.844 14.4937 130.225 15.4647 133.579C17.8517 141.62 19.2586 145.595 22.4936 153.41Z" fill="#346017"/>
<path d="M22.4298 153.431C19.6668 146.851 17.2628 140.161 15.2208 133.382C13.5278 127.762 12.0948 122.056 9.74277 116.633C7.78477 112.117 5.11978 107.735 4.26578 102.836C3.15078 96.4413 5.44278 89.9513 4.20478 83.5953C3.13778 78.1203 -0.603216 71.9563 2.66678 67.3653C3.20678 66.6073 3.91377 65.9653 4.40977 65.1823C7.71477 59.9703 -0.214218 52.8523 2.61478 47.2253C3.83278 44.8023 6.99977 43.1493 6.87577 40.4673C6.75177 37.7893 3.28278 35.9803 2.72178 33.2603C1.85578 29.0613 8.43378 25.8293 6.98078 21.7183C6.04478 19.0693 1.87078 16.7443 3.38978 14.3593C3.82878 13.6703 4.65876 13.2913 5.32776 12.7823C7.47276 11.1513 7.83176 8.33927 8.47376 5.83427C9.11576 3.32927 10.6938 0.565272 13.6218 0.376272C14.0368 0.349272 14.4758 0.382273 14.8578 0.556273C15.4228 0.814273 15.7758 1.33627 15.9878 1.85427C17.9038 6.54427 10.9098 10.5363 12.0658 15.2733C12.4288 16.7613 13.5688 18.1113 13.6148 19.5963C13.6748 21.5443 11.8938 23.0273 11.0668 24.7973C8.80578 29.6363 13.7328 35.4573 11.8338 40.2923C11.2578 41.7583 10.0838 43.0913 10.1238 44.6623C10.1568 45.9793 11.0348 47.1583 11.5698 48.3843C14.2908 54.6213 8.31279 60.9763 8.53779 67.5753C8.69279 72.1133 11.6178 76.4303 10.8478 80.8283C10.4658 83.0083 9.22276 84.9833 8.87476 87.1823C8.02276 92.5573 12.3638 97.3143 14.2338 102.351C16.0018 107.115 15.5508 112.422 15.9038 117.331C16.5608 126.46 18.2658 135.124 21.5378 143.559C24.1418 150.271 28.1338 158.632 28.2798 166.228C25.4938 161.966 22.4298 153.431 22.4298 153.431Z" fill="#4B8727"/>
<path d="M9.10071 11.1921C9.17571 8.38909 9.30872 5.49709 10.4947 2.91909C10.6497 2.58209 10.8337 2.23909 11.1587 2.02109C12.0877 1.39709 13.6107 2.22209 13.9647 3.24709C14.3187 4.27209 13.9027 5.31709 13.4997 6.27909C13.0117 7.44309 12.5247 8.62509 11.7017 9.61809C10.8787 10.6111 9.6597 11.4131 8.2417 11.5151L9.10071 11.1921Z" fill="#5F963C"/>
<path d="M6.72675 13.9853C5.51575 13.7333 4.21174 14.0133 3.31274 14.7323C6.16374 16.6763 6.99875 20.7993 10.3658 21.6423C10.6078 21.7033 10.8727 21.7423 11.0977 21.6573C11.5777 21.4773 11.5897 20.8863 11.4887 20.4213C10.8657 17.5543 8.62375 14.8583 5.61075 13.4573L6.72675 13.9853Z" fill="#5F963C"/>
<path d="M4.03667 30.6262C3.54267 31.7952 3.59767 33.2232 4.42067 34.2662C5.08667 35.1102 6.15966 35.6202 6.85866 36.4302C7.64866 37.3462 7.87468 38.5352 7.92568 39.6652C7.95268 40.2702 8.25466 41.1232 8.90666 40.9912C10.2457 39.9102 10.0007 37.9882 9.66066 36.3592C9.28466 34.5592 8.92466 32.7452 8.58266 30.9162C7.94166 27.5022 5.31667 27.5952 4.03667 30.6262Z" fill="#5F963C"/>
<path d="M4.53778 53.9591C4.95578 54.3711 5.47277 54.7161 5.74677 55.2161C5.95677 55.5981 6.00177 56.0321 6.04477 56.4541C6.25277 58.5051 6.48676 60.5461 6.74576 62.5751C7.47676 60.7611 8.24076 58.9631 9.03876 57.1801C9.45676 56.2461 9.88777 55.3051 10.0398 54.3031C10.3628 52.1791 9.24676 46.3951 5.96176 46.3341C2.13276 46.2641 2.74478 52.1911 4.53778 53.9591Z" fill="#5F963C"/>
<path d="M2.87666 71.2233C2.94566 72.9983 3.67766 74.6883 4.24766 76.3743C5.08966 78.8673 5.59966 81.4263 6.12766 83.9633C7.52566 83.6063 8.42466 82.2253 8.62766 80.8433C8.82966 79.4613 8.46867 78.0573 8.10267 76.6913C7.65967 75.0403 7.21167 69.8403 5.83067 68.6243C3.81067 66.8453 2.80466 69.3683 2.87666 71.2233Z" fill="#5F963C"/>
<path d="M4.81875 103.16C5.53175 106.533 8.00276 109.236 9.49276 112.299C10.0898 113.527 10.5348 114.816 10.9898 116.096C11.7668 118.283 12.5738 120.454 13.4098 122.608C13.8928 116.86 14.7568 110.952 12.8938 105.448C11.1978 100.437 6.99377 96.4551 5.58877 91.2441C5.76777 95.2591 3.96875 99.1381 4.81875 103.16Z" fill="#5F963C"/>
<path d="M28.2986 138.65C27.8996 136.93 27.4966 135.199 26.7256 133.596C26.3496 132.79 25.8346 132.059 25.3196 131.309C24.8226 130.561 24.3286 129.741 24.2616 128.817C24.1706 127.899 24.4816 127.006 24.8546 126.193C25.2336 125.373 25.6826 124.594 26.0106 123.782C26.3416 122.971 26.4896 122.111 26.3076 121.278C26.1346 120.445 25.7116 119.666 25.2276 118.918C24.7456 118.168 24.2046 117.434 23.7436 116.638C23.5206 116.236 23.3016 115.827 23.1506 115.386C23.0566 115.172 23.0276 114.94 22.9656 114.717C22.9146 114.492 22.8436 114.267 22.8386 114.037C22.6216 112.188 23.1776 110.403 23.7426 108.721C24.2996 107.034 24.9856 105.375 25.1176 103.701C25.2086 102.868 25.1226 102.041 24.8366 101.283C24.6336 100.514 23.9726 99.8511 23.6976 98.8021C23.5646 98.2791 23.6146 97.6991 23.8196 97.1961C24.0236 96.6901 24.3506 96.2731 24.6866 95.9111C25.3626 95.1871 26.1146 94.6331 26.6866 94.0151C27.8676 92.8401 27.9566 91.1811 27.6716 89.5041C27.4136 87.8201 26.8486 86.0841 26.8596 84.1771C26.8626 83.2231 27.0736 82.2451 27.4356 81.3691C27.7876 80.4841 28.2496 79.6691 28.7266 78.8941C29.6906 77.3431 30.6376 75.8941 30.9516 74.2871C31.1116 73.4981 31.1236 72.7001 30.8886 71.9871C30.6726 71.2591 30.1736 70.7111 29.4956 70.0511C29.1686 69.7211 28.8146 69.3661 28.5156 68.9211C28.2056 68.4841 28.0106 67.9301 27.9656 67.3891C27.8746 66.2631 28.4066 65.3191 28.8836 64.5351C29.8976 62.9751 31.0356 61.6051 30.6176 60.0941C30.2616 58.5591 29.0046 57.1671 28.0596 55.5711C27.5966 54.7701 27.1396 53.8451 27.2146 52.7861C27.2726 52.5321 27.2896 52.2631 27.3956 52.0241C27.5116 51.7901 27.5946 51.5381 27.7506 51.3241C28.0476 50.8981 28.3886 50.5731 28.6376 50.2501C29.1726 49.6231 29.1306 48.9881 28.5886 48.3531C28.0626 47.7181 27.2716 47.2101 26.5916 46.4861C25.2176 45.0151 24.8956 42.9371 25.4686 41.1581C25.7446 40.2581 26.2976 39.4271 27.0436 38.7811C27.7886 38.1381 28.6476 37.7371 29.0266 37.0261C29.4386 36.3331 29.4006 35.4761 29.1896 34.6511C28.9856 33.8191 28.6456 32.9941 28.3776 32.1341C28.1026 31.2831 27.9206 30.3391 28.0786 29.4181C28.2176 28.5021 28.5956 27.6251 29.1616 26.8711C30.2726 25.3561 32.0916 24.2581 34.1036 24.0791C38.1376 23.7141 42.0686 26.7521 42.3646 30.4691C42.5796 32.2921 42.0536 34.1431 41.0356 35.7051C40.5416 36.4871 39.7866 37.1801 39.1796 37.7801C38.5476 38.3991 38.4926 39.1211 38.9706 39.8301C39.3976 40.5441 40.1406 41.2091 40.4126 42.2251C40.6446 43.2671 40.1626 44.2301 39.7036 44.9971C39.2406 45.7861 38.7236 46.5241 38.5606 47.2711C38.4776 47.6401 38.5386 47.9911 38.6776 48.3161C38.8356 48.6371 39.1126 48.9341 39.4416 49.2291C39.7686 49.5271 40.1426 49.8231 40.4876 50.1961C40.8496 50.5571 41.1106 51.0561 41.2456 51.5631C41.3696 52.0891 41.2996 52.6311 41.1396 53.1171C40.9546 53.5871 40.7166 54.0271 40.4346 54.4091C39.8836 55.1921 39.2546 55.8661 38.7146 56.5621C38.1756 57.2531 37.7126 57.9691 37.5366 58.7011L37.3046 58.1331C38.3976 58.8791 39.4066 59.7331 40.2586 60.7251C41.1026 61.7161 41.8356 62.8301 42.2096 64.1031C42.6176 65.3571 42.5586 66.7981 41.9876 68.0471C41.4006 69.2851 40.5086 70.1881 40.2716 71.1691C39.9786 72.1491 40.1956 73.2561 40.5286 74.3751C40.8496 75.5021 41.3166 76.6631 41.4806 77.9751C41.5566 78.6261 41.5736 79.3201 41.3906 80.0041C41.2166 80.6811 40.9086 81.3361 40.4976 81.8831C39.6856 82.9961 38.6596 83.8271 37.7556 84.6611C36.8466 85.4871 36.0416 86.3351 35.6846 87.2781C35.3236 88.2091 35.5076 89.2561 35.8596 90.3701C36.2056 91.4691 36.6926 92.7101 36.7656 94.0381C36.8566 95.3461 36.6516 96.6641 36.1756 97.8981C35.9376 98.5151 35.6306 99.1111 35.2576 99.6731C34.8786 100.251 34.4296 100.731 34.1956 101.137C34.0756 101.341 34.0116 101.52 34.0036 101.661C33.9946 101.803 34.0226 101.924 34.1206 102.107C34.3056 102.457 34.8026 102.953 35.1796 103.551C36.6636 105.884 36.7826 108.834 35.4666 111.252C34.7916 112.47 33.8556 113.371 33.2176 114.303C32.5566 115.236 32.2806 116.126 32.5746 117.1C32.8446 118.083 33.5466 119.078 34.1576 120.206C34.4616 120.773 34.7496 121.39 34.9116 122.073C35.0686 122.756 35.0876 123.461 34.9966 124.129C34.8146 125.475 34.2686 126.643 33.7976 127.761C33.3196 128.874 32.8666 129.945 32.7256 131.015C32.4436 133.184 33.1296 135.559 33.4026 137.987C34.0176 142.814 34.0476 147.724 33.2676 152.534C32.5046 157.342 31.0316 162.043 28.9226 166.479L28.2346 166.215C28.3746 165.831 28.3106 165.195 28.2296 164.644C28.1436 164.073 28.0246 163.498 27.9006 162.923C27.6606 161.767 27.3536 160.623 27.2616 159.404C27.3186 156.951 28.2066 154.705 29.0156 152.472C29.9136 150.276 30.0926 147.897 29.7716 145.573C29.4716 143.243 28.8006 140.962 28.2986 138.65ZM28.4646 138.619C28.9946 140.919 29.6956 143.194 30.0296 145.544C30.3856 147.882 30.2326 150.333 29.3466 152.574C28.5466 154.788 27.7606 157.096 27.7826 159.374C27.9026 160.506 28.2426 161.653 28.5206 162.801C28.6636 163.377 28.8026 163.956 28.9116 164.549C28.9946 165.153 29.1566 165.725 28.9226 166.479L28.2346 166.215C32.1406 157.338 33.2726 147.574 31.8366 138.171C31.6666 136.99 31.4336 135.837 31.2206 134.623C31.0136 133.414 30.8666 132.137 31.0416 130.827C31.4226 128.174 33.0156 126.071 33.2876 123.94C33.4416 122.881 33.1806 121.935 32.6026 120.912C32.0616 119.89 31.2786 118.852 30.8806 117.493C30.6856 116.821 30.6396 116.05 30.8276 115.337C30.9996 114.619 31.3536 113.993 31.7316 113.442C32.4966 112.345 33.3806 111.468 33.8826 110.526C34.9196 108.635 34.8116 106.205 33.6336 104.388C33.4786 104.159 33.3346 103.958 33.1346 103.714C32.9396 103.469 32.7116 103.193 32.5176 102.833C32.3216 102.482 32.1816 101.999 32.2276 101.539C32.2666 101.078 32.4456 100.684 32.6376 100.362C33.0386 99.7141 33.4676 99.2861 33.7606 98.8311C34.0736 98.3691 34.3336 97.8741 34.5376 97.3601C34.9456 96.3321 35.1266 95.2231 35.0606 94.1321C35.0136 93.0451 34.6176 91.9891 34.2446 90.7841C34.0676 90.1831 33.8966 89.5511 33.8476 88.8671C33.7796 88.1881 33.8846 87.4601 34.1286 86.7891C34.6596 85.4441 35.6766 84.4641 36.6196 83.6111C37.5726 82.7561 38.5256 81.9731 39.1796 81.0821C39.8416 80.1961 40.0886 79.2221 39.9406 78.1301C39.8226 77.0441 39.3926 75.9231 39.0636 74.7261C38.7376 73.5461 38.4456 72.1851 38.8626 70.8221C39.2726 69.4411 40.2566 68.5091 40.6986 67.5381C41.1476 66.5721 41.2296 65.4761 40.9066 64.4221C40.2856 62.2911 38.5326 60.4401 36.5716 59.0311L36.2426 58.7951L36.3396 58.4631C36.9216 56.4691 38.5196 55.2451 39.5126 53.8581C39.7786 53.5161 39.9706 53.1621 40.1246 52.8081C40.2456 52.4531 40.2976 52.1001 40.2276 51.7571C40.1076 51.0471 39.4546 50.5111 38.7466 49.8601C38.3996 49.5321 38.0376 49.1511 37.8086 48.6601C37.5976 48.1671 37.5386 47.6091 37.6606 47.1121C37.9076 46.1221 38.4966 45.3691 38.9466 44.6181C39.4166 43.8761 39.7706 43.1061 39.6196 42.3801C39.4586 41.6471 38.8016 40.9841 38.3076 40.1651C38.0676 39.7531 37.8546 39.2441 37.9296 38.7051C37.9806 38.1621 38.3136 37.7071 38.6466 37.3621C39.3556 36.6841 39.9876 36.1341 40.4826 35.3941C41.4576 33.9551 41.9516 32.2161 41.7666 30.5251C41.6166 28.8271 40.6956 27.2321 39.2736 26.1331C37.8686 25.0381 35.9936 24.3881 34.1516 24.5551C32.3056 24.6931 30.6236 25.7411 29.6106 27.1491C29.0936 27.8501 28.7576 28.6591 28.6406 29.4891C28.5066 30.3221 28.6726 31.1521 28.9476 31.9841C29.2146 32.8161 29.5656 33.6411 29.7946 34.5271C30.0266 35.3941 30.1106 36.4191 29.5986 37.3071C29.0986 38.2171 28.1286 38.6631 27.5066 39.2341C26.8716 39.8101 26.4026 40.5451 26.1796 41.3471C25.7066 42.9331 26.0636 44.7671 27.2486 45.9631C27.8306 46.5701 28.6586 47.0711 29.3276 47.8261C29.6536 48.2061 29.9626 48.6951 29.9886 49.2711C30.0406 49.8391 29.7606 50.3941 29.4626 50.7801C29.1636 51.1801 28.8446 51.5031 28.6346 51.8281C28.5236 51.9841 28.4826 52.1661 28.3976 52.3311C28.3226 52.5001 28.3296 52.6841 28.2836 52.8581C28.2446 53.5821 28.6036 54.3431 29.0536 55.0701C29.9446 56.5441 31.3186 57.9081 31.8526 59.8501C31.9726 60.3341 32.0136 60.8541 31.9486 61.3631C31.8906 61.8791 31.7056 62.3501 31.5056 62.7931C31.0866 63.6731 30.5396 64.4251 30.0956 65.1641C29.6476 65.8951 29.3006 66.6311 29.3736 67.2901C29.4046 67.9601 29.8926 68.5251 30.5486 69.1641C30.8706 69.4831 31.2246 69.8211 31.5446 70.2311C31.8576 70.6491 32.1266 71.1131 32.2786 71.6031C32.6066 72.5831 32.5826 73.5961 32.3996 74.5341C32.0396 76.4321 30.9626 78.0681 30.0496 79.5701C29.1306 81.0881 28.3146 82.5881 28.3156 84.2011C28.2716 85.8351 28.7776 87.5341 29.0386 89.3341C29.1646 90.2361 29.2356 91.1851 29.0556 92.1541C28.8916 93.1181 28.3826 94.0861 27.6716 94.8001C26.9806 95.5131 26.2236 96.0691 25.6276 96.6681C25.0216 97.2651 24.6866 97.9051 24.8376 98.5871C24.9606 99.2811 25.6036 100.034 25.8646 100.989C26.1746 101.903 26.2346 102.875 26.1056 103.79C25.8906 105.642 25.1246 107.3 24.5226 108.96C23.9086 110.607 23.3426 112.293 23.4916 113.983C23.5826 115.688 24.7176 117.155 25.6546 118.699C26.1236 119.474 26.5516 120.31 26.7106 121.218C26.8826 122.131 26.6796 123.062 26.3346 123.896C25.9846 124.733 25.5246 125.512 25.1456 126.311C24.7696 127.106 24.4716 127.949 24.5476 128.801C24.5976 129.656 25.0536 130.445 25.5396 131.191C26.0396 131.935 26.5626 132.695 26.9346 133.517C27.6996 135.15 28.0846 136.895 28.4646 138.619Z" fill="#3F6D24"/>
<path d="M28.3815 138.635C27.9065 136.528 27.4165 134.382 26.2645 132.507C25.5585 131.358 24.5925 130.276 24.4165 128.967C24.0935 126.568 26.5215 124.497 26.5835 122.081C26.6485 119.54 24.1495 117.577 23.3855 115.134C21.8895 110.353 27.2915 105.192 25.1645 100.616C24.8125 99.8601 24.2595 99.1481 24.2165 98.3271C24.1205 96.4831 26.4505 95.4461 27.5915 93.9251C29.8135 90.9641 27.1615 86.9481 27.6435 83.3811C27.9465 81.1391 29.4765 79.2271 30.5955 77.2141C31.7145 75.2011 32.4065 72.6621 31.0715 70.7631C30.3695 69.7651 29.1685 69.0491 28.7825 67.9151C27.9825 65.5621 31.1175 63.5541 31.3345 61.0981C31.6365 57.6871 26.3235 54.7171 28.1055 51.7101C28.5325 50.9891 29.3385 50.4351 29.4845 49.6261C29.7265 48.2931 28.1405 47.3861 27.1085 46.4211C24.9735 44.4261 25.0985 40.7891 27.3665 38.9211C27.9575 38.4341 28.6684 38.0531 29.1244 37.4561C30.5634 35.5701 28.7115 33.1041 28.3555 30.8261C27.8915 27.8601 30.4845 24.8501 33.7095 24.3601C36.9345 23.8701 40.3245 25.7741 41.5525 28.5511C42.7805 31.3281 41.9085 34.7111 39.6415 36.8701C39.0965 37.3891 38.4464 37.8991 38.3054 38.6081C38.0364 39.9621 39.7345 40.9821 40.0235 42.3331C40.4705 44.4201 37.4615 46.2681 38.1625 48.2951C38.5585 49.4401 39.9935 50.0301 40.5445 51.1201C41.8495 53.7011 37.5965 55.8021 36.9365 58.5811C40.0785 60.7321 42.8725 64.3881 41.3795 67.7121C40.8965 68.7871 40.0065 69.6881 39.6195 70.7951C38.5755 73.7771 41.4765 76.9861 40.5895 80.0111C39.6965 83.0541 35.3695 84.5201 34.7345 87.6181C34.3695 89.3971 35.3615 91.1451 35.7505 92.9201C36.2615 95.2541 35.6785 97.7721 34.1785 99.7141C33.6715 100.37 33.0325 101.058 33.1165 101.859C33.1815 102.477 33.6665 102.975 34.0605 103.48C35.7975 105.703 35.9685 108.865 34.4775 111.233C33.4775 112.822 31.7745 114.159 31.5975 115.985C31.3765 118.262 33.6255 120.118 34.0975 122.362C34.6815 125.139 32.4805 127.729 31.9485 130.514C31.5885 132.4 32.0064 134.328 32.3314 136.219C33.0114 140.173 33.2865 144.188 33.0725 148.186C32.7395 154.418 31.2115 160.594 28.5775 166.347C29.1195 165.162 27.3785 160.592 27.5135 158.895C27.7045 156.506 28.5084 154.354 29.3314 152.11C31.0154 147.519 29.4255 143.267 28.3815 138.635Z" fill="#4D7F32"/>
<path d="M31.0197 27.572C30.8687 28.344 30.9647 29.137 30.9597 29.922C30.9507 31.205 30.6727 32.525 31.0987 33.746C31.8597 35.929 34.9327 37.027 37.2347 36.133C39.5367 35.24 40.8267 32.729 40.4327 30.466C40.1467 28.824 39.0667 27.312 37.5397 26.416C35.4997 25.218 31.5827 24.688 31.0197 27.572Z" fill="#618C45"/>
<path d="M27.1867 42.0972C27.5477 40.9862 28.4637 40.1072 29.4017 39.3302C30.1717 38.6922 31.0907 38.0552 32.1257 38.1232C32.8187 38.1682 33.4337 38.5262 34.0167 38.8722C34.9517 39.4282 35.8867 39.9852 36.8217 40.5422C37.4167 40.8962 38.0427 41.2832 38.3267 41.8792C38.8527 42.9832 37.9917 44.1992 37.1757 45.1442C36.1707 46.3082 34.9467 47.5782 33.3277 47.6042C30.3517 47.6512 26.1917 45.1632 27.1867 42.0972Z" fill="#618C45"/>
<path d="M30.6395 51.3372C29.8165 53.1002 29.1815 55.3352 30.5615 56.7762C31.5495 57.8082 33.3835 58.1672 33.8615 59.4682C34.0725 57.8652 35.6905 56.7982 37.0295 55.7492C38.3685 54.7002 39.6385 53.0622 38.9135 51.5922C38.4365 50.6262 37.2616 50.1392 36.1586 49.8192C34.8886 49.4512 33.4925 49.1972 32.2425 49.6192C31.2145 49.9662 30.3855 50.7762 30.0735 51.7382L30.6395 51.3372Z" fill="#618C45"/>
<path d="M32.3276 68.4361C31.5306 68.6991 30.6886 67.9251 30.6576 67.1491C30.6266 66.3731 31.1316 65.6711 31.6496 65.0571C33.0096 63.4441 34.8066 61.9121 37.0236 61.7431C37.4936 61.7071 38.0356 61.7661 38.3096 62.1171C38.5556 62.4311 38.4956 62.8561 38.5366 63.2411C38.6366 64.1811 39.3736 64.9541 39.6996 65.8491C40.1036 66.9601 39.8116 68.2591 38.9616 69.1341C38.1116 70.0081 36.7376 70.4231 35.4876 70.1831C34.1796 69.9321 32.9346 69.0261 31.6486 69.3581L32.3276 68.4361Z" fill="#618C45"/>
<path d="M38.4786 79.36C37.7426 81.013 35.6326 81.745 34.4146 83.138C32.7176 85.079 33.0407 87.858 32.4127 90.278C31.5447 93.619 29.1096 86.677 28.9446 85.863C28.5186 83.76 28.6306 82.267 29.6186 80.327C30.6436 78.314 32.4916 75.131 35.3386 75.187C37.5166 75.228 39.3476 77.409 38.4786 79.36Z" fill="#618C45"/>
<path d="M25.8277 99.9872C24.7887 98.3352 25.8737 96.1112 27.6117 95.0652C29.3507 94.0192 31.5247 93.8432 33.5977 93.6982C33.9327 93.6752 34.3187 93.6692 34.5427 93.8982C34.8037 94.1652 34.6877 94.5862 34.5267 94.9142C33.4087 97.1952 30.8767 98.8762 30.4497 101.346C29.7867 105.176 27.0997 102.01 25.8277 99.9872Z" fill="#618C45"/>
<path d="M24.6835 116.067C24.2435 115.136 24.2565 114.084 24.2905 113.069C24.3655 110.811 24.6495 108.274 26.5605 106.847C27.9045 105.843 29.9135 105.661 31.4455 106.404C31.9995 106.672 32.5165 107.087 32.6695 107.644C32.9315 108.601 32.0665 109.466 31.4645 110.284C29.3835 113.112 30.1625 116.866 29.7735 120.259C29.6415 121.413 27.0765 119.311 27.0805 119.315C26.2685 118.649 25.1215 116.993 24.6835 116.067Z" fill="#618C45"/>
<path d="M26.6515 131.706C25.9705 129.943 25.2845 128.026 25.8925 126.241C26.5465 124.322 28.6305 123.018 30.7925 122.685C31.1035 122.637 31.4355 122.608 31.7255 122.725C32.2775 122.947 32.4476 123.622 32.2876 124.155C32.1276 124.688 31.7305 125.128 31.4095 125.597C29.7955 127.956 30.1445 130.978 30.5775 133.734C30.8675 135.58 31.5345 138.323 30.5065 139.936C28.3035 138.822 27.4685 133.822 26.6515 131.706Z" fill="#618C45"/>
<path d="M34.1328 150.163C35.2438 147.246 37.6008 144.761 38.2418 141.728C38.8248 138.971 37.9138 136.063 38.6528 133.337C39.5438 130.051 42.6768 127.58 43.6028 124.302C44.9968 119.371 41.2238 113.432 44.5828 109.375C45.5688 108.916 46.8218 109.569 47.3028 110.482C47.7838 111.395 47.7058 112.461 47.6178 113.471C47.2908 117.207 46.9648 120.943 46.6378 124.678C46.3418 128.062 46.0328 131.501 44.6918 134.666C43.5208 137.43 41.5528 140.061 41.6348 143.025C41.6608 143.963 41.8968 144.9 41.7808 145.833C41.4388 148.565 38.3118 150.272 37.2148 152.832C36.4808 154.546 36.7278 156.469 36.3868 158.284C35.7458 161.687 32.3028 165.939 28.6638 166.858C28.4678 164.494 31.0878 162.399 31.9558 160.243C33.2638 156.999 32.8908 153.422 34.1328 150.163Z" fill="#4B8727"/>
<path d="M43.8328 112.749C43.9268 112.099 44.1128 111.415 44.6378 110.97C45.1628 110.525 46.1178 110.461 46.5328 110.995C46.7818 111.315 46.7738 111.741 46.7558 112.134C46.6838 113.706 46.6118 115.277 46.5398 116.849C46.4948 117.825 46.3928 118.822 45.5288 119.428C43.8138 117.933 43.5348 114.811 43.8328 112.749Z" fill="#7A9E63"/>
<path d="M43.4058 128.823C43.5158 128.791 44.7638 138.595 40.4698 137.16C36.5558 135.851 41.0488 129.511 43.4058 128.823Z" fill="#7A9E63"/>
<path d="M37.4828 163.859C38.2008 163.133 38.7778 162.288 39.5738 161.634C41.9118 159.71 45.8438 159.637 47.5118 157.196C48.8998 155.165 48.0178 152.46 48.8118 150.177C49.3158 148.73 50.4558 147.556 51.3088 146.253C53.1868 143.383 53.6328 139.759 52.4978 136.577C50.0578 138.214 48.9588 141.033 48.2788 143.733C47.5988 146.434 47.1698 149.27 45.5758 151.625C44.7308 152.874 43.5428 154.033 43.3868 155.495C43.3548 155.793 43.3678 156.097 43.2898 156.389C42.7528 158.392 39.1728 157.767 37.6398 159.277C37.0098 159.897 36.8288 160.796 36.3038 161.494C35.8088 162.151 35.0438 162.586 34.3018 163.002C32.8738 163.802 29.7618 164.896 29.3638 166.354C32.1488 167.082 35.5938 165.769 37.4828 163.859Z" fill="#4B8727"/>
</svg>
