<svg width="30" height="105" viewBox="0 0 30 105" fill="none" xmlns="http://www.w3.org/2000/svg">
<path d="M29.114 76.7066C28.9461 74.7226 28.3853 73.2737 26.2533 71.5516C23.7583 69.5391 21.1851 70.1042 21.7715 65.9226C21.8839 65.1228 22.1372 64.5336 22.4689 64.0553C21.7273 63.2569 21.0428 62.3958 20.4436 61.4664C22.2055 61.8635 24.0657 62.0784 25.8334 61.8151C26.6319 61.401 27.4018 60.8929 27.9868 60.0361C29.4285 57.9268 28.8934 54.8327 28.9176 52.3989C28.9247 51.703 28.9176 51.0326 28.8991 50.3822C25.2641 51.3699 21.7501 52.1612 18.1279 52.4117C21.5936 50.1502 24.4045 46.5892 28.0323 44.043C27.5854 42.4518 26.9492 40.9674 26.0426 39.5356C23.4694 39.1556 20.9716 38.6119 18.6005 37.9045C20.297 37.4619 21.9124 36.9524 23.4779 36.2991C23.1164 35.922 22.7393 35.5462 22.3308 35.1676C17.2754 30.4851 20.6386 27.8507 22.1543 21.9755C22.466 20.7686 22.7933 19.0806 23.0566 17.2233C21.3075 17.683 19.5711 18.0658 17.8034 18.2124C19.7348 17.2646 21.5437 16.0306 23.3484 14.8265C23.6786 11.5161 23.7185 8.07037 23.0524 5.96254C22.2013 3.27544 16.7531 -0.612884 14.261 0.0816619C13.5436 -0.194449 12.6883 4.76843 11.4871 6.65566C11.4116 6.77379 11.3276 6.88339 11.2479 6.99725C12.2627 8.48454 13.2149 10.0359 14.4403 11.3139C12.499 11.1118 10.6359 10.6721 8.93801 9.74126C8.24062 10.5354 7.57026 11.3723 7.04508 12.4056C5.8339 14.7952 4.79208 17.5236 4.51597 20.0911C4.15162 23.4628 5.51082 24.3139 6.29076 27.5931C6.37189 27.9332 6.41601 28.2592 6.45301 28.5837C7.76382 29.4846 9.0106 30.4467 10.3997 31.2694C8.94655 31.7362 7.49342 32.0678 6.04028 32.213C5.1906 34.7762 3.34463 36.9922 2.12206 39.4274C5.22617 40.6685 8.32886 41.9096 11.4315 43.1521C7.93746 43.2545 4.61702 44.5497 1.14856 45.4207C1.82176 47.9513 3.99222 49.7303 4.58856 52.3875C5.25891 55.3764 4.66969 59.9464 3.94525 63.0334C3.44854 65.147 2.36117 66.973 1.4816 68.8972C4.04772 69.0709 6.96397 68.4888 9.40199 69.2146C6.82876 71.8163 4.20571 72.5891 0.469675 71.748C0.448326 71.8362 0.414166 71.916 0.395663 72.0056C0.185022 73.0161 0.0711625 73.9825 0 74.9304C3.76877 75.4129 7.53611 76.5287 11.3049 76.2156C8.36871 78.6394 4.15304 80.0057 0.49529 81.5414C0.890954 83.4101 1.46879 85.2717 2.15622 87.2259C2.97886 89.5643 3.73603 91.4785 4.6526 93.1608C7.1561 90.7641 9.87735 88.8014 12.2599 86.1613C11.3447 89.7137 8.65479 92.7495 6.45871 95.8863C7.74391 97.4974 9.36783 98.9705 11.6408 100.549C13.8753 102.1 17.3523 105.065 20.4763 104.027C26.1721 102.137 21.0527 95.67 21.7999 91.9482C22.5827 88.0456 23.7711 89.8987 26.138 87.5276C27.1997 86.463 28.0195 84.5217 28.539 82.5419C25.3694 82.4978 22.0903 81.9712 18.962 81.086C22.7051 79.9232 26.2903 79.1603 29.114 76.7066Z" fill="#57970D"/>
<path opacity="0.2" d="M14.0374 7.12527C16.2847 9.1164 17.5443 12.175 17.3493 15.1723C17.7479 14.1746 18.1464 13.1755 18.5449 12.1778C19.0672 10.8713 19.5981 9.49782 19.4444 8.09876C19.285 6.64562 17.5187 3.1302 15.8364 2.92098C13.4055 2.6164 12.4192 5.69064 14.0374 7.12527Z" fill="#BBE392"/>
<path opacity="0.2" d="M16.057 19.1387C14.0901 21.6437 12.8988 24.7478 12.6825 27.9245C11.3517 27.6028 10.1519 26.7731 9.38052 25.643C8.34297 24.1187 7.91742 21.9553 6.21521 21.2451C7.80356 21.248 9.39049 21.4544 10.9262 21.8571C11.0358 21.8856 9.03609 18.9096 8.97774 18.7488C8.62051 17.7639 8.18926 17.5219 9.15138 16.6338C11.0528 14.8818 14.4046 18.3631 16.057 19.1387Z" fill="#BBE392"/>
<path opacity="0.2" d="M16.5125 27.8009C16.4058 28.1966 16.3161 28.5994 16.1411 28.968C15.9404 29.3907 15.633 29.7522 15.4109 30.1635C14.3606 32.0963 15.3611 34.4603 16.3574 36.4216C16.5097 36.7233 16.6691 37.0307 16.9196 37.257C17.2498 37.5545 17.7095 37.6769 18.1535 37.674C18.8396 37.6698 19.5213 37.378 19.9981 36.8841C19.4459 35.8523 18.6161 34.9998 17.9458 34.0419C17.2754 33.0826 16.7474 31.9284 16.9352 30.7727C17.0235 30.2276 17.2654 29.7223 17.4974 29.2213C18.5207 27.0082 20.1176 24.119 20.1717 21.6995C18.33 23.053 17.1003 25.6163 16.5125 27.8009Z" fill="#BBE392"/>
<path opacity="0.2" d="M6.31784 35.7925C6.00758 35.8252 5.65034 35.8409 5.45677 36.0857C5.31018 36.2707 5.30733 36.5283 5.33438 36.7631C5.48666 38.1138 6.37192 39.2951 7.45928 40.1106C8.54665 40.9261 9.83042 41.4285 11.0971 41.9224C12.8264 42.597 14.557 43.2702 16.2863 43.9449C13.9863 42.1928 11.6109 40.5404 9.17003 38.9905C10.9889 39.0218 12.8121 38.7842 14.5627 38.2889C14.8203 38.2163 15.1192 38.091 15.1619 37.8263C15.1961 37.6142 15.0424 37.4207 14.8915 37.267C13.7871 36.1341 12.0407 35.0567 10.4424 34.8446C8.61496 34.6012 8.1638 35.6003 6.31784 35.7925Z" fill="#BBE392"/>
<path opacity="0.2" d="M25.5544 42.496C22.2795 46.9949 18.1976 50.906 13.562 53.9845C17.7393 54.1197 21.935 53.6543 25.9813 52.6096C25.6369 54.6719 25.496 56.7669 25.56 58.8563C22.4901 59.1068 19.4201 59.3587 16.3502 59.6092C17.0433 62.2692 18.3371 64.7727 20.1062 66.8763C20.0563 68.7109 16.4527 69.4979 17.2767 71.1375C17.4788 71.5389 17.9072 71.7623 18.3086 71.9616C19.7987 72.7002 21.2889 73.4375 22.7804 74.1761C22.9655 74.2672 23.1661 74.374 23.2444 74.5647C23.4095 74.9618 22.9598 75.3261 22.5769 75.5225C19.7888 76.9586 17.0006 78.3946 14.2125 79.8321C15.0607 77.0539 15.909 74.2743 16.7572 71.4962C13.757 72.4711 10.697 73.2638 7.59863 73.8644C11.1952 71.889 14.2723 68.9756 16.4441 65.4929C13.6147 65.3705 10.7725 65.5327 7.97579 65.9782C8.48389 59.6576 7.39653 53.2159 4.8418 47.4133C9.44174 47.6624 14.2409 47.8787 18.4595 46.0285C18.8551 45.8549 18.8807 42.4291 20.0578 41.7659C21.5323 40.9347 24.0585 42.1331 25.5544 42.496Z" fill="#BBE392"/>
<path opacity="0.2" d="M5.81821 89.9585C5.81679 87.4948 3.60364 84.9073 2.38818 82.976C3.80005 82.085 5.59477 81.0817 7.12903 80.4924C7.15607 81.7563 6.11425 82.7255 5.84098 83.9609C5.43962 85.7784 5.81679 88.0983 5.81821 89.9585Z" fill="#BBE392"/>
<path opacity="0.2" d="M25.1674 85.8409C25.2428 86.3604 24.7205 86.7461 24.2736 87.0222C21.7317 88.5921 19.3534 91.1724 19.6452 94.147C19.8316 96.0513 21.1054 97.8646 20.6955 99.7333C20.4194 97.9813 18.4866 97.059 17.4975 95.5874C16.9737 94.8074 16.7232 93.8752 16.2593 93.0568C15.7953 92.2385 14.9911 91.4927 14.0532 91.5425C14.2767 90.2416 16.6208 87.0009 17.6612 86.2594C18.202 85.8737 25.1005 85.3827 25.1674 85.8409Z" fill="#BBE392"/>
<path d="M16.0457 15.4171C16.2834 15.669 16.5538 15.948 16.8997 15.9594C17.2612 15.9708 17.5558 15.6889 17.7978 15.4214C18.6987 14.4251 19.5085 13.3463 20.213 12.202C20.6841 11.4391 21.3829 10.5225 22.2468 10.7588C22.2468 12.2276 22.2468 13.6964 22.2468 15.1666C20.0451 15.8085 18.0184 17.0368 16.4329 18.692C18.3671 18.8073 20.3198 18.6038 22.1885 18.09C21.2136 19.5075 19.6878 20.4269 18.3998 21.5684C16.1952 23.5211 14.6481 26.2039 14.0632 29.0903C13.982 26.2438 14.2211 23.3887 14.7734 20.5963C14.9114 19.9003 15.0694 19.193 14.9954 18.4871C14.9214 17.7811 14.5698 17.0595 13.9336 16.7464C13.4611 16.513 12.9061 16.5329 12.3923 16.4148C10.8167 16.0533 6.70638 12.5763 9.09032 11.5231C11.1483 10.6108 14.9043 14.2059 16.0457 15.4171Z" fill="#428200"/>
<path d="M16.2051 37.6015C16.6833 39.0816 16.9509 40.29 16.8769 40.8066C15.2316 40.6586 13.7543 39.7164 11.9638 39.7762C13.0056 41.0116 14.2425 42.0833 15.6145 42.9372C16.0158 43.1863 16.4456 43.4354 16.6819 43.8438C17.2726 44.8672 16.3375 46.2292 16.7886 47.3223C15.4195 44.0004 22.2482 41.7232 22.1799 39.9057C18.9064 39.7378 17.9571 40.3811 15.4479 38.0185C12.9416 35.6587 10.337 34.3223 6.90844 33.6306C6.25374 35.2289 5.38842 36.7404 4.34375 38.1138C5.08953 35.8238 6.05734 33.6064 7.2301 31.5043C7.64284 30.7642 13.0199 33.9679 11.7575 31.0488C11.5596 30.5905 7.19025 29.0278 10.0254 27.9006C11.8614 27.169 14.8644 33.4555 16.2051 37.6015Z" fill="#428200"/>
<path d="M4.73088 50.7634C6.55549 54.3272 7.11055 58.5258 6.27368 62.4397C7.15325 60.0857 7.54322 57.5822 7.9275 55.1C10.2289 55.5996 12.6071 55.7391 14.9512 55.5142C12.156 54.7513 9.42333 53.7607 6.79032 52.5538C6.62522 52.4656 6.81737 52.2265 6.99527 52.1639C8.65336 51.5832 17.0875 50.6196 12.657 47.5668C11.2323 46.5847 8.66901 46.6046 7.01804 46.5278C3.17385 46.3499 3.03436 47.4501 4.73088 50.7634Z" fill="#428200"/>
<path d="M26.4753 52.7119C24.3618 53.3424 22.1244 53.5601 19.9283 53.3495C21.484 53.5786 23.004 54.0583 24.4102 54.7628C24.8357 54.9763 25.2741 55.2339 25.4876 55.658C25.832 56.3397 25.4377 57.2093 24.8101 57.6449C24.1824 58.0804 23.3897 58.1843 22.6297 58.2597C19.3462 58.5842 16.0315 58.5856 12.748 58.2682C15.4309 60.9254 17.5117 64.1861 18.7954 67.7357C18.8638 67.9236 18.9306 68.1285 18.8766 68.3206C18.6431 69.1547 16.9438 68.426 16.6492 69.2401C16.5908 69.3995 16.6164 69.5745 16.6421 69.7425C16.9253 71.6055 17.274 73.6023 18.6033 74.9388C20.7951 74.2755 23.3256 74.889 24.9709 76.4816C24.255 71.1743 18.5264 67.5592 17.9415 62.2348C20.9574 61.6954 23.9718 61.1574 26.9877 60.618C27.4175 60.5412 27.9213 60.4045 28.0636 59.9904C28.1775 59.6602 27.9982 59.3086 27.8388 58.9969C26.8098 56.9916 26.4055 54.6703 26.6959 52.4343C25.0819 52.8086 23.468 53.183 21.8554 53.5587L26.4753 52.7119Z" fill="#428200"/>
<path d="M14.6267 65.6494C14.5925 69.1734 11.2137 71.6057 8.20072 73.4332C10.6544 73.52 13.1081 73.6068 15.5632 73.6922C15.2415 75.6947 14.7889 77.6759 14.2083 79.6201C15.9788 79.7296 17.7749 79.4108 19.3988 78.6964C18.5335 80.2249 17.2996 81.5443 15.8322 82.5107C18.7185 82.1876 21.6903 82.6672 24.3276 83.8841C21.7572 84.0122 19.2039 84.4719 16.7502 85.249C16.3075 85.3885 15.8336 85.5664 15.5888 85.962C15.4266 86.2253 15.3938 86.5456 15.3654 86.853C15.1191 89.476 14.8743 92.1005 14.6281 94.7236C14.5868 95.1705 14.5498 95.6444 14.7548 96.0429C14.9782 96.4756 15.4351 96.7218 15.8293 97.0079C17.4732 98.1992 18.2161 100.496 17.5814 102.425C14.2595 100.918 10.8152 99.6793 7.29411 98.7258C10.8978 94.1842 13.118 88.558 13.5834 82.7796C11.1525 84.7893 8.84118 86.9441 6.66645 89.2284C7.70969 85.7414 8.33877 82.1321 8.53945 78.4985C10.7071 78.4686 12.7409 76.7878 13.1778 74.6643C9.86877 75.124 6.46293 74.8749 3.25635 73.937C6.33199 72.7742 8.97639 70.507 10.5946 67.6462C10.2417 68.2696 5.23039 67.1538 4.62693 66.8464C7.36954 65.4487 11.635 65.991 14.6267 65.6494Z" fill="#428200"/>
<path d="M15.8736 21.5388C13.168 33.2394 13.6747 45.6643 17.3224 57.1058C17.5459 57.8075 17.7836 58.5177 17.812 59.2535C17.8491 60.1985 17.5388 61.1194 17.2314 62.0146C15.8722 65.9798 14.5016 70.3278 15.9405 74.2645C16.4756 75.7305 17.3865 77.0669 17.6854 78.5983C18.3045 81.7708 16.2024 84.7738 15.4822 87.9249C14.6709 91.4702 15.7412 95.3913 18.2405 98.0342C15.9476 98.0442 14.7891 95.3329 14.2226 93.1112C13.77 91.3321 13.3117 89.5147 13.4441 87.6829C13.6932 84.2116 16.0301 80.8855 15.2146 77.5024C14.9954 76.593 14.5571 75.7547 14.2255 74.8808C11.4032 67.4657 16.4571 59.0244 14.5087 51.3331C14.049 49.5185 13.2121 47.822 12.6599 46.0329C11.4074 41.9809 11.6565 37.6372 11.9184 33.403C12.1717 29.2841 12.4407 25.0984 13.8625 21.2257C14.4091 19.737 15.1235 18.3095 15.986 16.9773L15.8736 21.5388Z" fill="#428200"/>
</svg>
